<?xml version="1.0" encoding="utf-8"?>
<!-- Generator: Adobe Illustrator 23.0.3, SVG Export Plug-In . SVG Version: 6.00 Build 0)  -->
<svg version="1.1" id="Layer_1" xmlns="http://www.w3.org/2000/svg" xmlns:xlink="http://www.w3.org/1999/xlink" x="0px" y="0px"
	 viewBox="0 0 388.3 216" style="enable-background:new 0 0 388.3 216;" xml:space="preserve">
<style type="text/css">
	.st0{fill:url(#SVGID_1_);}
	.st1{fill:#FFFFFF;}
</style>
<g id="Layer_3_1_">
	<g id="Actors_1_">
		
			<linearGradient id="SVGID_1_" gradientUnits="userSpaceOnUse" x1="80.1142" y1="1312.1625" x2="306.8858" y2="1312.1625" gradientTransform="matrix(1 0 0 1 0 -1203.322)">
			<stop  offset="0.1" style="stop-color:#DA3228"/>
			<stop  offset="1" style="stop-color:#8F3029"/>
		</linearGradient>
		<path class="st0" d="M303.4,95.2c-0.3-0.6-0.6-1-1-1.6h0.3l3.8-0.4v-12c0-7.1-2-12.8-6-16.9c-3.8-3.8-8.9-5.8-14.2-5.6
			c-1.2,0-2.3,0.1-3.4,0.2c-6.8,0.9-12.3,3.7-16.2,8.6c-0.4,0.5-0.8,1-1.2,1.6l-0.6-0.5c-3.4-3.1-8-4.7-13.5-4.7
			c-1.4,0-2.6,0.1-4,0.2l-12.1,1.5l-2.2,0.2l-3.8,0.4l-3.8,0.4v4c-3.4-2.2-7.4-3.3-11.4-3.2c-1.2,0-2.3,0.1-3.5,0.2
			c-3.7,0.4-7.3,1.6-10.4,3.4v-1.4l-4.8,0.6l-4.8,0.6l-2.2,0.2l-25.3,3.1l-2.2,0.2l-3.8,0.4l-3.8,0.4v2.1c-2.6-1.1-5.5-1.6-8.4-1.6
			c-1.2,0-2.3,0.1-3.4,0.2c-6.8,0.9-12.2,3.7-16.1,8.5c-1.1,1.4-2.1,2.8-2.8,4.4l-0.2-1.5l-0.7-3.8l-0.7-4.1l-4.1,0.5l-4.1,0.5
			l-1.8,0.2l-11.1,1.4l-1.8,0.2l-3.2,0.4L92,83l-0.5,3.2L91,89.4l-0.3,1.8l-8.5,53.9l-0.4,2.6l-0.9,5.6l-0.9,5.6l5.7-0.7l5.7-0.7
			l2.5-0.3l7.6-0.9l1.8-0.2l3.2-0.4l3.2-0.4l0,0l2.1-0.2l1.8-0.2l8.2-1.1l2.5-0.3l4.4-0.6l4.4-0.6l-0.2-1.5c2.4,0.9,4.9,1.2,7.5,1.2
			c1.2,0,2.3-0.1,3.4-0.2c6.8-0.9,12.2-3.7,16.1-8.5c0.8-1,1.5-2.1,2.2-3.2v8.8l4.8-0.6l4.8-0.6l2.2-0.2l8.2-1l2.2-0.2l3.8-0.4
			l3.8-0.5v-11.1c0.9,1.5,2,3,3.3,4.2c3.8,3.6,9,5.5,14.2,5.4c1.2,0,2.3-0.1,3.5-0.2c4.7-0.5,9.1-2.3,12.9-5.1v2.8l4.8-0.6l4.9-0.6
			l2.2-0.2l8.2-1l2.2-0.2l1.7-0.2l0.5-0.1l1.6-0.2l1.3-0.2l1.5-0.2l8.3-1l3.3-0.4l5.8-0.7l5.8-0.7l-0.1-0.2c1.2,0.2,2.5,0.3,3.8,0.3
			c1.2,0,2.3-0.1,3.5-0.2c6.9-0.9,12.4-3.7,16.3-8.6c3.8-4.6,5.7-10.4,5.7-17.3C306.7,104,305.6,99.3,303.4,95.2z"/>
		<polygon class="st1" points="97.7,89.6 116,87.4 125.9,147.6 109.1,149.7 107.6,139.6 105.7,139.8 104.2,150.3 87.9,152.3 		"/>
		<path d="M114.3,89.7l0.3,1.8l8.5,51.8l0.4,2.5l-2.5,0.3l-8.2,1l-1.8,0.2l-0.2-1.8l-1.2-8.4l-5.7,0.7l-1.2,8.7l-0.2,1.8l-1.8,0.2
			l-7.6,1l-2.5,0.3l0.4-2.6l8.5-53.9l0.3-1.8l1.8-0.2l11.1-1.4L114.3,89.7 M105.4,126.2l2.5-0.3l-1.2-8.8L105.4,126.2 M117.8,84.9
			l-4.1,0.5l-1.8,0.2L100.9,87l-1.8,0.2l-3.2,0.4l-0.5,3.2l-0.3,1.8l-8.5,53.9l-0.4,2.6l-0.9,5.6l5.7-0.7l2.5-0.3l7.6-0.9l1.8-0.2
			l3.3-0.4l0.4-3.2l0.1-0.9l0.6,4.1l4.2-0.5l1.8-0.2l8.2-1l2.5-0.3l4.4-0.6l-0.7-4.4l-0.4-2.5l-8.4-51.9l-0.3-1.8L117.8,84.9
			L117.8,84.9z"/>
		<path class="st1" d="M140.5,146.4c-3.6,0.2-7-1.1-9.7-3.6c-2.8-2.8-4.3-6.9-4.3-12.1v-28.4c-0.2-4.6,1.3-9.2,4.1-12.9
			c3-3.6,7.3-5.8,11.9-6.2c0.9-0.1,1.8-0.2,2.6-0.2c3.6-0.2,7,1.1,9.7,3.6c2.8,2.8,4.3,6.9,4.3,12.1v9.7l-15.9,2v6.7l15.9-2v12.1
			c0.2,4.6-1.3,9.2-4.1,12.9c-3,3.6-7.3,5.8-11.9,6.2C142.3,146.4,141.5,146.4,140.5,146.4z"/>
		<path d="M145.4,85.3c3-0.1,5.9,0.9,8.1,3c2.4,2.4,3.6,6,3.6,10.6v7.8l-2.2,0.2l-7.8,0.9l-2.2,0.2v-8.2c0-2.2-0.7-2.6-1.4-2.6
			c-0.2,0-0.4,0-0.6,0.1c-0.9,0.1-2,0.2-2,3v29.5c0,2.2,0.6,2.5,1.4,2.5c0.2,0,0.4,0,0.6,0c1-0.1,2-0.2,2-2.9v-10.3l2.2-0.2l7.8-0.9
			l2.2-0.2v9.7c0.2,4.1-1.1,8.2-3.6,11.5c-2.6,3.1-6.5,5-10.5,5.4c-0.8,0.1-1.6,0.1-2.4,0.1c-3,0.1-5.9-0.9-8.1-3
			c-2.4-2.3-3.6-5.9-3.6-10.6v-28.5c-0.2-4.1,1-8.2,3.6-11.5c2.6-3.1,6.5-5,10.5-5.4C143.7,85.4,144.5,85.4,145.4,85.3 M145.3,81.1
			c-1,0-2,0.1-3,0.2c-5.2,0.4-10,3-13.3,7c-3.1,4-4.8,9-4.6,14.2v28.4c0,5.8,1.7,10.5,4.9,13.7c3,2.8,7,4.3,11.1,4.1
			c1,0,2-0.1,3-0.2c5.2-0.4,10-3,13.3-7c3.1-4.1,4.8-9.1,4.6-14.2v-14.5l-4.8,0.6l-2.2,0.2l-7.8,0.9l-1.2,0.1v-2.4h0.2l2.2-0.2
			l7.8-0.9l2.2-0.2l3.8-0.4V98.8c0-5.8-1.7-10.5-4.9-13.7C153.5,82.4,149.5,80.9,145.3,81.1L145.3,81.1z"/>
		<polygon class="st1" points="168.7,97.1 160.2,98.1 160.2,81.9 194,77.8 194,94 185.4,95 185.4,140.3 168.7,142.4 		"/>
		<path d="M191.8,80.2v11.9l-2.2,0.2l-6.4,0.8v45.3l-2.2,0.2l-8.2,1l-2.2,0.2V94.7l-6.4,0.8l-2.2,0.2V83.8l2.2-0.2l25.3-3.1
			L191.8,80.2 M196.1,75.4l-4.8,0.6l-2.2,0.2l-25.3,3.1l-2.2,0.2l-3.7,0.4v20.5l4.8-0.6l2.2-0.2l1.6-0.2v45.3l4.8-0.6l2.2-0.2l8.2-1
			l2.2-0.2l3.8-0.4V96.9l2.6-0.3l2.2-0.2l3.8-0.4L196.1,75.4L196.1,75.4z"/>
		<path class="st1" d="M209.5,138c-3.6,0.1-7.1-1.2-9.8-3.6c-3-2.8-4.4-7-4.4-12.4V94.2c-0.2-4.7,1.4-9.4,4.3-13.1
			c3.1-3.6,7.4-5.8,12.1-6.2c0.9-0.1,1.8-0.2,2.8-0.2c3.6-0.1,7.1,1.2,9.8,3.6c3,2.8,4.4,7,4.4,12.4v27.8c0.2,4.7-1.4,9.4-4.3,13.1
			c-3.1,3.6-7.4,5.8-12.1,6.3C211.3,138,210.4,138,209.5,138L209.5,138z"/>
		<path d="M214.4,76.8c3.1-0.1,6,0.9,8.3,3c2.5,2.4,3.8,6,3.8,10.8v27.8c0.2,4.2-1.2,8.4-3.8,11.8c-2.7,3.2-6.6,5.2-10.8,5.5
			c-0.8,0.1-1.7,0.2-2.5,0.2c-3.1,0.1-6-0.9-8.3-3c-2.5-2.4-3.8-6-3.8-10.8V94.2c-0.2-4.2,1.2-8.4,3.8-11.8
			c2.7-3.2,6.6-5.2,10.8-5.5C212.8,76.9,213.6,76.8,214.4,76.8 M211.3,123.9c0.2,0,0.4,0,0.6,0c0.9-0.1,2.2-0.2,2.2-3.3V91.7
			c0-2.5-0.7-2.8-1.5-2.8c-0.2,0-0.4,0-0.6,0c-0.9,0.1-2.2,0.2-2.2,3.3V121C209.8,123.5,210.5,123.9,211.3,123.9 M214.4,72.5
			c-1,0-2,0.1-3,0.2c-5.3,0.4-10.2,3-13.5,7c-3.2,3.8-4.7,8.7-4.7,14.5V122c0,6,1.7,10.7,5.1,13.9c3.1,2.9,7.1,4.4,11.3,4.2
			c1,0,2-0.1,3-0.2c5.3-0.4,10.2-3,13.5-7c3.1-3.8,4.7-8.7,4.7-14.5V90.7c0-6-1.7-10.7-5-13.9C222.7,73.9,218.6,72.4,214.4,72.5z"/>
		<path class="st1" d="M232.3,73.1l16.1-2c1-0.1,2.2-0.2,3.2-0.2c3.9,0,7,1,9.2,3.1c2.8,2.5,4.2,6.5,4.2,11.9v3.2
			c0.1,3.8-0.9,7.4-2.8,10.6c0.5,0.6,0.9,1.4,1.3,2.1c1.2,2.9,1.7,6,1.6,9.1v9.3c0,1,0,2.2,0.1,3.2c0.1,0.5,0.2,0.9,0.4,1.4l2.6,5.5
			l-17.7,2.2l-1-3c-0.2-0.4-0.3-0.9-0.4-1.3v4.5l-16.7,2.1L232.3,73.1L232.3,73.1z"/>
		<path d="M251.6,73.1c3.3,0,6,0.9,7.8,2.5c2.3,2.2,3.5,5.5,3.5,10.3v3.2c0,5.2-1.6,8.6-3.5,10.8c0.9,0.7,1.7,1.7,2.2,2.8
			c1,2.6,1.5,5.4,1.4,8.2v9.3c0,1.4,0,2.6,0.1,3.4c0.1,0.7,0.2,1.4,0.6,2l1.4,2.9l-3.3,0.4l-8.3,1l-1.5,0.2l-0.5-1.4
			c-0.3-0.9-0.6-1.8-0.7-2.8c-0.1-1.4-0.2-2.9-0.2-4.4V112c0-2.6-0.5-3.4-0.7-3.6c-0.4-0.3-0.9-0.5-1.5-0.4c-0.3,0-0.6,0-0.9,0
			l-0.7,0.1v22.6l-2.2,0.2l-8.2,1l-2.2,0.2V75l2.2-0.2l12.1-1.5C249.6,73.1,250.6,73.1,251.6,73.1 M246.8,96.1l0.9-0.1
			c0.8,0,1.5-0.4,2.2-0.9c0.2-0.2,0.6-0.9,0.6-2.9v-4.1c0-1.9-0.4-2.6-0.6-2.8c-0.2-0.2-0.6-0.4-1-0.3h-0.5l-1.6,0.2V96.1
			 M251.6,68.7c-1.2,0-2.3,0.1-3.4,0.2L236,70.4l-2.2,0.2l-3.8,0.4v65.8l4.8-0.6l2.2-0.2l8.2-1l2.2-0.2l1.7-0.2l0,0l0.5-0.1l1.6-0.2
			l1.3-0.2l1.5-0.2l8.3-1l3.3-0.4l5.8-0.7l-2.5-5.4l-1.4-2.9c-0.1-0.2-0.2-0.4-0.2-0.7c-0.1-1-0.1-2-0.1-3v-9.3
			c0.1-3.4-0.5-6.8-1.8-10c-0.2-0.4-0.4-0.9-0.7-1.2c1.7-3.3,2.5-6.9,2.4-10.5v-3.2c0-6-1.7-10.5-4.9-13.4
			C259.6,69.9,256,68.7,251.6,68.7L251.6,68.7z"/>
		<path class="st1" d="M281.4,129.2c-3.6,0.1-7.1-1.2-9.7-3.6c-2.8-2.8-4.2-7-4.2-12.4v-7.1l11.8-1.4l-1-0.9
			c-3.2-2.3-5.9-5.2-8.1-8.4c-3.9-7.4-3.3-16.4,1.6-23.1c3-3.6,7.3-5.8,12-6.2c0.9-0.1,1.8-0.2,2.6-0.2c3.6-0.2,7.1,1.2,9.7,3.7
			c2.8,2.8,4.2,7,4.2,12.4v6.2l-11.6,1.4c0.4,0.3,0.7,0.6,1.2,0.9c3.3,2.3,6,5.2,8.1,8.6c1.7,3.2,2.5,6.8,2.5,10.5
			c0,5.4-1.4,9.8-4.2,13.2c-3.1,3.6-7.4,5.8-12.2,6.3C283.2,129.1,282.3,129.1,281.4,129.2L281.4,129.2z"/>
		<path d="M286.6,68c3-0.1,5.9,0.9,8.1,3c2.3,2.4,3.6,6,3.6,10.8v4.4l-2.2,0.2l-7.8,1l-2.2,0.2v-4.9c0-1.7-0.4-2.3-0.6-2.5
			c-0.2-0.2-0.6-0.4-1-0.4h-0.4c-0.9,0.1-2,0.2-2,3.1c0,1.5,0.4,2.9,1.2,4.1c1.4,1.9,3.2,3.6,5.1,4.9c3.6,2.8,6.2,5.4,7.6,7.9
			c1.5,2.9,2.2,6.2,2.2,9.4c0,4.9-1.2,8.9-3.8,11.9c-2.7,3.1-6.6,5.1-10.7,5.5c-0.8,0.1-1.6,0.2-2.5,0.2c-3,0.1-6-0.9-8.1-3
			c-2.4-2.4-3.6-6-3.6-10.8v-5.2l2.2-0.2l7.8-0.9l2.2-0.2v5.8c0,2.4,0.7,2.8,1.5,2.8c0.2,0,0.4,0,0.6,0c0.6,0,1.2-0.2,1.5-0.7
			c0.5-0.8,0.7-1.8,0.6-2.7c0.1-1.6-0.4-3.2-1.2-4.6c-1.4-1.9-3.1-3.6-5.1-4.9c-3-2.1-5.5-4.8-7.5-7.8c-1.5-2.8-2.3-5.8-2.3-9
			c-0.2-4.2,1.1-8.3,3.6-11.6c2.7-3.1,6.5-5.1,10.6-5.4C284.9,68.1,285.7,68,286.6,68 M286.5,63.7L286.5,63.7c-1,0-2,0.1-2.9,0.2
			c-5.2,0.4-10,3-13.4,7c-3.1,3.8-4.7,8.6-4.7,14.3c-0.1,3.9,0.9,7.8,2.8,11.2c1.5,2.5,3.5,4.8,5.7,6.7l-2.9,0.4l-2.2,0.2l-3.8,0.4
			v9c0,6,1.6,10.6,4.9,13.9c3,2.9,7,4.4,11.1,4.3c1,0,2-0.1,3-0.2c5.3-0.4,10.2-3,13.5-7c3.1-3.8,4.7-8.7,4.7-14.6
			c0.1-4-0.9-8-2.7-11.5c-1.5-2.6-3.5-5-5.8-7l2.6-0.3l2.2-0.2l3.8-0.4v-8.2c0-6-1.6-10.6-4.8-13.8
			C294.6,65.1,290.6,63.6,286.5,63.7L286.5,63.7z"/>
	</g>
</g>
</svg>
