<svg xmlns="http://www.w3.org/2000/svg" xmlns:xlink="http://www.w3.org/1999/xlink" viewBox="0 0 497.73 299.97"><defs><linearGradient id="New_Gradient_Swatch_1" x1="94.32" y1="149.99" x2="403.41" y2="149.99" gradientUnits="userSpaceOnUse"><stop offset="0.1" stop-color="#da3228"/><stop offset="1" stop-color="#8f3029"/></linearGradient></defs><title>choose-your-move</title><g id="Choose-your-move"><path d="M398.93,125.6l-4.49.55-2,.24L371.61,129l-2,.25-3.52.43-2.13.26-2.3.28-7,.86-1.74.22-3.08.38-3.59.44-1.73.21-7.72.95-2.31.28-4.08.5-4.09.5.25,1.61a20.75,20.75,0,0,0-7.32-1.25,26.68,26.68,0,0,0-3.29.21,26.33,26.33,0,0,0-6.62,1.66v-25.4l-2.71.33V96.56l2.71-.34V69l-4.49.55-4.48.55-2,.25-20.84,2.56-2,.24L272,73.6l-3.51.43v3.09a19,19,0,0,0-9.67-2.42,25.42,25.42,0,0,0-3.21.21c-6.37.78-11.47,3.45-15.15,8-.36.44-.71.9-1,1.38-.14-.15-.28-.29-.43-.43a18.47,18.47,0,0,0-13.3-5,28.73,28.73,0,0,0-3.29.2,22.65,22.65,0,0,0-15.25,8,21.2,21.2,0,0,0-1.39,1.88c-.26-.28-.53-.56-.81-.83a18.48,18.48,0,0,0-13.3-5,28.73,28.73,0,0,0-3.29.2,23.58,23.58,0,0,0-12,4.8V85.35l-4.49.55-4.48.55-2,.24-7.64.94-1.73.21-2.86.36-.91.11-.71.09-2,.24-7.64.94-2,.24-3.51.43-3.51.43v3.2a19.11,19.11,0,0,0-9.86-2.5,27.71,27.71,0,0,0-3.23.2c-6.33.78-11.4,3.44-15,7.91-3.46,4.23-5.21,9.55-5.21,15.81v26.51c0,6.6,2,11.86,5.82,15.63a16.8,16.8,0,0,0,5.35,3.54l-3.9.48-2.75.34-4.88.6-4.88.6,1.58,4.66,1.58,4.65.87,2.55,8.71,25.66V231l4.49-.55,4.49-.55,2-.24,7.64-.94,2-.24,3.51-.44,3.51-.43V217a18.07,18.07,0,0,0,3.17,4.06,18.47,18.47,0,0,0,13.3,5,26.68,26.68,0,0,0,3.29-.21,22.57,22.57,0,0,0,15.25-8,20.79,20.79,0,0,0,1.48-2c.28.32.58.63.88.93a18.24,18.24,0,0,0,13.25,5.06,26,26,0,0,0,3.25-.21,23.23,23.23,0,0,0,12.11-4.9v2.71l4.49-.55,4.48-.55,2-.24,7.64-.94,2-.25,3.51-.43,1.22-.15,1.41-.17,7.78-1,3.06-.37,5.45-.67,5.45-.67-2.31-5-2.31-5-1.11-2.39c0-.36,0-1,0-2v-8.67a26.42,26.42,0,0,0-1.86-10.55,25.33,25.33,0,0,0,1.79-9.75v-3c0-6.74-2-12-5.91-15.51a16.41,16.41,0,0,0-6.48-3.55,21.52,21.52,0,0,0,8.77-6.34c.33-.41.65-.82.95-1.25l.2.21a17.57,17.57,0,0,0,11.47,5.08v67.36l4.49-.55,4.49-.55,2-.24,6.67-.82,1.18-.15,2.81-.34,1.71-.21,5.61-.69,4.49-.55.81-.1.22,0,1-.11,7.22-.89,2-.25,3.51-.43,3.51-.43V203a19.15,19.15,0,0,0,10.7,3,26.68,26.68,0,0,0,3.29-.21c6.4-.79,11.53-3.46,15.25-8a22.72,22.72,0,0,0,2.28-3.32l.09.58.58,3.84.58,3.85,3.86-.48,3.86-.47,1.71-.21,10.14-1.24,1.71-.21,3-.38,3-.37,3.06-.37,4.49-.55,2-.25,20.84-2.56,2-.24,3.51-.43,3.51-.43V167.36l-2.71.34V152.58l2.71-.33v-27.2Z" style="fill:url(#New_Gradient_Swatch_1)"/><path d="M118.18,156.48a12.34,12.34,0,0,1-9-3.33c-2.66-2.6-4-6.42-4-11.34V115.3a18.43,18.43,0,0,1,3.86-12,16.37,16.37,0,0,1,11.14-5.75,19.72,19.72,0,0,1,2.49-.16,12.34,12.34,0,0,1,9,3.33c2.66,2.6,4,6.42,4,11.33v9l-14.87,1.82v6.26l14.87-1.83v11.26a18.45,18.45,0,0,1-3.86,12,16.37,16.37,0,0,1-11.14,5.75,19.72,19.72,0,0,1-2.49.16Z" style="fill:#fff"/><path d="M122.68,99.38a10.43,10.43,0,0,1,7.58,2.76c2.26,2.21,3.41,5.55,3.41,9.9v7.24l-2,.24-7.22.89-2,.24v-7.72c0-2.05-.62-2.39-1.3-2.39a4.55,4.55,0,0,0-.53,0c-.86.11-1.84.23-1.84,2.8V141c0,2,.59,2.32,1.28,2.32a5.46,5.46,0,0,0,.56,0c.9-.12,1.83-.23,1.83-2.73v-9.56l2-.24,7.22-.89,2-.25v9a16.49,16.49,0,0,1-3.41,10.74,14.39,14.39,0,0,1-9.83,5,17.86,17.86,0,0,1-2.26.15,10.41,10.41,0,0,1-7.57-2.76c-2.26-2.21-3.41-5.55-3.41-9.91V115.3a16.49,16.49,0,0,1,3.41-10.74,14.44,14.44,0,0,1,9.83-5,19.68,19.68,0,0,1,2.25-.14m0-4a23.7,23.7,0,0,0-2.74.17A18.29,18.29,0,0,0,107.5,102a20.35,20.35,0,0,0-4.31,13.27v26.51c0,5.48,1.55,9.78,4.61,12.77a14.27,14.27,0,0,0,10.37,3.9,21.87,21.87,0,0,0,2.75-.18,18.29,18.29,0,0,0,12.44-6.46,20.41,20.41,0,0,0,4.31-13.28V125l-4.49.55-2,.25-7.23.89-1.17.14v-2.23l.16,0,2-.24,7.22-.89,2-.24,3.51-.43V112c0-5.47-1.55-9.77-4.61-12.76a14.28,14.28,0,0,0-10.38-3.9Zm.15,17.53Z"/><polygon points="138.54 95.99 154.15 94.08 154.15 114.17 154.38 114.15 154.38 94.05 169.99 92.13 169.99 149.56 154.38 151.47 154.38 129.26 154.15 129.29 154.15 151.5 138.54 153.42 138.54 95.99" style="fill:#fff"/><path d="M168,94.39v53.4l-2,.24-7.65.94-2,.24V127l-4.23.52v22.21l-2,.25-7.65.94-2,.24V97.76l2-.24,7.65-.94,2-.24v20.1l4.23-.52V95.82l2-.25,7.65-.94,2-.24m4-4.52-4.49.55-2,.24-7.64.94-1.73.21h0l-1.41.18-2.36.29-.72.09-2,.24-7.64.94-2,.24-3.51.43v61.46l4.49-.55,2-.24,7.64-.94,1.73-.21h0l1.41-.18,2.36-.29.72-.09,2-.24,7.64-.94,2-.24,3.51-.43V89.87Z"/><path d="M186.69,148.06a12.7,12.7,0,0,1-9.14-3.35c-2.74-2.64-4.13-6.53-4.13-11.56V107.2a18.65,18.65,0,0,1,4-12.25,16.82,16.82,0,0,1,11.36-5.83,20.69,20.69,0,0,1,2.56-.16,12.72,12.72,0,0,1,9.14,3.35c2.74,2.65,4.13,6.54,4.13,11.55v26a18.67,18.67,0,0,1-4,12.25,16.82,16.82,0,0,1-11.36,5.83,20.69,20.69,0,0,1-2.56.16Z" style="fill:#fff"/><path d="M191.32,91a10.72,10.72,0,0,1,7.75,2.79c2.34,2.26,3.52,5.66,3.52,10.11v26a16.72,16.72,0,0,1-3.52,11A14.87,14.87,0,0,1,189,145.91a18.63,18.63,0,0,1-2.31.15,10.72,10.72,0,0,1-7.75-2.79c-2.34-2.25-3.52-5.66-3.52-10.12V107.2a16.72,16.72,0,0,1,3.52-11A14.87,14.87,0,0,1,189,91.11a18.92,18.92,0,0,1,2.32-.15m-2.85,43.92a4.53,4.53,0,0,0,.53,0c.88-.11,2-.24,2-3.09V104.8c0-2.29-.7-2.66-1.44-2.66a4.93,4.93,0,0,0-.54,0c-.88.11-2,.24-2,3.09v26.94c0,2.29.7,2.66,1.44,2.66M191.32,87a24.72,24.72,0,0,0-2.8.17,18.74,18.74,0,0,0-12.66,6.54c-3,3.57-4.44,8.12-4.44,13.53v26c0,5.59,1.59,10,4.75,13a14.56,14.56,0,0,0,10.52,3.91,22.66,22.66,0,0,0,2.8-.18,18.71,18.71,0,0,0,12.66-6.53c2.95-3.57,4.44-8.12,4.44-13.53v-26c0-5.58-1.59-10-4.74-13A14.62,14.62,0,0,0,191.32,87Z"/><path d="M220.73,143.88a12.68,12.68,0,0,1-9.13-3.35c-2.75-2.64-4.14-6.53-4.14-11.56V103a18.65,18.65,0,0,1,4-12.25,16.8,16.8,0,0,1,11.36-5.83,20.69,20.69,0,0,1,2.56-.16,12.7,12.7,0,0,1,9.14,3.35c2.75,2.65,4.14,6.53,4.14,11.55v26a18.64,18.64,0,0,1-4,12.25,16.78,16.78,0,0,1-11.36,5.83,20.69,20.69,0,0,1-2.56.16Z" style="fill:#fff"/><path d="M225.36,86.78a10.72,10.72,0,0,1,7.75,2.79c2.34,2.26,3.53,5.66,3.53,10.11v26a16.73,16.73,0,0,1-3.53,11,14.87,14.87,0,0,1-10.06,5.11,18.92,18.92,0,0,1-2.32.15,10.72,10.72,0,0,1-7.75-2.79c-2.33-2.25-3.52-5.66-3.52-10.12V103A16.78,16.78,0,0,1,213,92a14.94,14.94,0,0,1,10.07-5.12,20.72,20.72,0,0,1,2.31-.14m-2.85,43.92a4.93,4.93,0,0,0,.54,0c.88-.11,2-.24,2-3.09V100.62c0-2.29-.7-2.66-1.43-2.66a4.71,4.71,0,0,0-.54.05c-.88.11-2,.24-2,3.09V128c0,2.29.71,2.66,1.44,2.66m2.85-47.92a24.72,24.72,0,0,0-2.8.17,18.78,18.78,0,0,0-12.66,6.54c-3,3.57-4.44,8.12-4.44,13.53v26c0,5.59,1.6,10,4.75,13a14.62,14.62,0,0,0,10.52,3.91,22.81,22.81,0,0,0,2.81-.18,18.73,18.73,0,0,0,12.66-6.53,20.67,20.67,0,0,0,4.44-13.53v-26c0-5.58-1.6-10-4.75-13a14.6,14.6,0,0,0-10.53-3.91Z"/><path d="M253.71,139.84a12.25,12.25,0,0,1-9-3.4c-2.61-2.62-3.94-6.51-3.94-11.55v-6.61l11.08-1.36c-.3-.25-.64-.51-1-.79a29.32,29.32,0,0,1-7.54-7.9,18.41,18.41,0,0,1-2.4-9.45,18.58,18.58,0,0,1,3.9-12.12A16.5,16.5,0,0,1,256,80.86a21.61,21.61,0,0,1,2.48-.16,12.07,12.07,0,0,1,9,3.43c2.58,2.63,3.89,6.51,3.89,11.54v5.82l-10.81,1.33c.32.27.68.55,1.07.85a27.56,27.56,0,0,1,7.59,8,19.89,19.89,0,0,1,2.29,9.78c0,5-1.32,9.18-3.93,12.37a16.71,16.71,0,0,1-11.35,5.85,22,22,0,0,1-2.51.16Z" style="fill:#fff"/><path d="M258.49,82.7a10.16,10.16,0,0,1,7.56,2.83c2.2,2.24,3.31,5.65,3.31,10.14v4.06l-2,.24-7.23.89-2,.24V96.55c0-1.63-.35-2.18-.5-2.34a1.09,1.09,0,0,0-.92-.32l-.41,0c-.82.1-1.84.23-1.84,2.94a6.66,6.66,0,0,0,1.13,3.8,21.46,21.46,0,0,0,4.79,4.6c3.41,2.59,5.72,5,7,7.4a17.89,17.89,0,0,1,2,8.8c0,4.55-1.17,8.28-3.48,11.11a14.76,14.76,0,0,1-10,5.12,18.13,18.13,0,0,1-2.27.15A10.28,10.28,0,0,1,246.1,135c-2.23-2.24-3.36-5.65-3.36-10.14v-4.84l2-.24,7.22-.89,2-.24v5.4c0,2.22.7,2.58,1.43,2.58a4.9,4.9,0,0,0,.54,0,1.93,1.93,0,0,0,1.46-.66,4.12,4.12,0,0,0,.52-2.51,7.82,7.82,0,0,0-1.11-4.29,20.25,20.25,0,0,0-4.75-4.62,27.33,27.33,0,0,1-7-7.32,16.33,16.33,0,0,1-2.13-8.44,16.72,16.72,0,0,1,3.44-10.86,14.6,14.6,0,0,1,9.94-5.07,17.4,17.4,0,0,1,2.23-.15m0-4a21.41,21.41,0,0,0-2.72.18,18.43,18.43,0,0,0-12.54,6.51c-2.89,3.53-4.35,8-4.35,13.39a20.34,20.34,0,0,0,2.68,10.47,26.76,26.76,0,0,0,5.37,6.26l-2.69.33-2,.24-3.51.43v8.38c0,5.59,1.52,10,4.53,13a14.11,14.11,0,0,0,10.44,4,22.15,22.15,0,0,0,2.76-.18,18.63,18.63,0,0,0,12.64-6.56c2.91-3.55,4.39-8.14,4.39-13.64A21.77,21.77,0,0,0,271,110.71a25.31,25.31,0,0,0-5.47-6.48l2.38-.29,2-.24,3.51-.44V95.67c0-5.57-1.5-9.93-4.46-12.94a14,14,0,0,0-10.41-4Z"/><polygon points="274.16 79.34 302.97 75.8 302.97 90.91 289.77 92.53 289.77 97.52 300.26 96.23 300.26 111.35 289.77 112.64 289.77 119.74 302.97 118.12 302.97 133.23 274.16 136.77 274.16 79.34" style="fill:#fff"/><path d="M301,78.06V89.15l-2,.24-11.22,1.38v9l8.51-1,2-.24v11.08l-2,.24-8.51,1.05V122L299,120.62l2-.24v11.08l-2,.24-20.85,2.56-2,.25V81.11l2-.24L299,78.31l2-.25m4-4.52-4.49.55-2,.25L277.66,76.9l-2,.24-3.51.43V139l4.49-.55,2-.25,20.84-2.56,2-.24L305,135V115.86l-4.49.55-2,.24-6.73.83V114.4l5-.61,2-.24,3.51-.43V94l-4.49.56-2,.24-4,.49v-1l7.7-.94,2-.24,3.51-.44V73.54Z"/><polygon points="112.69 199.53 102 168.06 118.49 166.03 120.78 173.72 123.07 165.47 139.15 163.49 128.31 198.08 128.31 222.25 112.69 224.17 112.69 199.53" style="fill:#fff"/><path d="M136.31,165.86l-.86,2.75-9.14,29.17v22.71l-2,.24-7.64.94-2,.24V199.2l-9.14-26.92-.86-2.54,2.75-.34,8.13-1,1.49-.19.41,1.4L120.85,181l3.37-12.16.42-1.5,1.49-.18,7.43-.91,2.75-.34m5.67-4.73-6.16.76-2.75.34-7.43.91-1.49.18-2.65.33-.72,2.57-.07.26-.79-2.64-3.35.41-1.49.19-8.13,1-2.75.34-4.88.6L100.9,171l.87,2.54,8.92,26.29v26.57l4.49-.55,2-.24,7.64-.94,2-.24,3.52-.44V198.39l8.95-28.58.87-2.75,1.85-5.93Z"/><path d="M150.77,220.05a12.7,12.7,0,0,1-9.14-3.35c-2.74-2.64-4.13-6.53-4.13-11.56V179.19a18.65,18.65,0,0,1,4-12.25,16.78,16.78,0,0,1,11.36-5.83,20.69,20.69,0,0,1,2.56-.16,12.68,12.68,0,0,1,9.14,3.35c2.74,2.65,4.13,6.53,4.13,11.55v26a18.69,18.69,0,0,1-4,12.25,16.82,16.82,0,0,1-11.36,5.83,20.69,20.69,0,0,1-2.56.16Z" style="fill:#fff"/><path d="M155.4,163a10.72,10.72,0,0,1,7.75,2.79c2.34,2.25,3.52,5.66,3.52,10.11v26a16.7,16.7,0,0,1-3.52,11,14.88,14.88,0,0,1-10.07,5.12,18.63,18.63,0,0,1-2.31.15,10.77,10.77,0,0,1-7.75-2.79c-2.34-2.25-3.52-5.66-3.52-10.12V179.19a16.72,16.72,0,0,1,3.52-11,14.87,14.87,0,0,1,10.06-5.12,21,21,0,0,1,2.32-.14m-2.85,43.91a4.55,4.55,0,0,0,.53,0c.88-.11,2-.24,2-3.09V176.79c0-2.29-.7-2.66-1.44-2.66a3.29,3.29,0,0,0-.54.05c-.88.1-2,.24-2,3.09v26.94c0,2.29.7,2.65,1.44,2.65M155.4,159a24.72,24.72,0,0,0-2.8.17,18.74,18.74,0,0,0-12.66,6.54c-2.95,3.56-4.44,8.12-4.44,13.53v25.95c0,5.59,1.59,10,4.75,13a14.6,14.6,0,0,0,10.52,3.91,22.66,22.66,0,0,0,2.8-.18,18.66,18.66,0,0,0,12.66-6.54c3-3.56,4.44-8.11,4.44-13.52v-26c0-5.58-1.59-9.95-4.74-13A14.62,14.62,0,0,0,155.4,159Z"/><path d="M184.92,215.86a12.45,12.45,0,0,1-9-3.35c-2.69-2.63-4.05-6.52-4.05-11.58V159.48l15.61-1.91,15.15-1.86v41.93c0,5-1.31,9.1-3.9,12.26a16.5,16.5,0,0,1-11.24,5.8A20.18,20.18,0,0,1,184.92,215.86Z" style="fill:#fff"/><path d="M200.58,158v39.67c0,4.5-1.16,8.2-3.45,11a14.58,14.58,0,0,1-9.93,5.07,18.17,18.17,0,0,1-2.28.15,10.54,10.54,0,0,1-7.66-2.78c-2.28-2.24-3.44-5.65-3.44-10.15V161.25l2-.24,7.65-.94,2-.24v40.24c0,1.59.35,2.1.5,2.25a1.21,1.21,0,0,0,1,.32l.43,0a1.91,1.91,0,0,0,1.41-.64,3.84,3.84,0,0,0,.49-2.37V159.36l2-.24,7.36-.91,2-.24m4-4.52-4.49.55-2,.24-7.37.91-2,.24-3.52.43-.3,0-2,.24-7.64.94-2,.24-3.51.43v43.22c0,5.62,1.56,10,4.65,13a14.38,14.38,0,0,0,10.45,3.92,22.31,22.31,0,0,0,2.77-.18,18.43,18.43,0,0,0,12.54-6.51c2.88-3.53,4.35-8.08,4.35-13.53V153.45Z"/><path d="M206.28,155.25l15.07-1.85a24.1,24.1,0,0,1,3-.19c3.64,0,6.54,1,8.63,2.85,2.61,2.37,3.94,6.09,3.94,11.06v3a17.48,17.48,0,0,1-2.62,9.89,9.61,9.61,0,0,1,1.19,1.93,20.13,20.13,0,0,1,1.5,8.48v8.67a28.39,28.39,0,0,0,.12,3,3.89,3.89,0,0,0,.35,1.27l2.4,5.18-16.55,2-1-2.78q-.22-.63-.39-1.23v4.18l-15.61,1.92Z" style="fill:#fff"/><path d="M224.33,155.21c3.13,0,5.57.78,7.29,2.33,2.18,2,3.28,5.2,3.28,9.58v3c0,4.92-1.47,8.06-3.29,10.07a6.83,6.83,0,0,1,2,2.59,18.17,18.17,0,0,1,1.32,7.64v8.67a29.65,29.65,0,0,0,.13,3.19,6.26,6.26,0,0,0,.53,1.91l1.24,2.68-3.05.37-7.78,1-1.41.17-.47-1.29a12.75,12.75,0,0,1-.65-2.57,36.57,36.57,0,0,1-.15-4.06v-9c0-2.47-.49-3.21-.63-3.37a1.85,1.85,0,0,0-1.37-.39,6,6,0,0,0-.81.06l-.66.08V209l-2,.25-7.65.94-2,.24V157l2-.24,11.33-1.39a22.21,22.21,0,0,1,2.74-.18m-4.44,21.54.8-.09a3.06,3.06,0,0,0,2-.84,4.17,4.17,0,0,0,.59-2.69v-3.81c0-1.78-.36-2.38-.51-2.56a1.17,1.17,0,0,0-.92-.3,2.74,2.74,0,0,0-.48,0l-1.49.18v10.07m4.44-25.54a26.22,26.22,0,0,0-3.23.21l-11.32,1.39-2,.24-3.51.43v61.46l4.49-.55,2-.24,7.64-.94,2-.25,1.58-.19h0l3.16-.39,1.4-.17,7.78-1,3.06-.37,5.45-.67-2.31-5-1.24-2.69a2.23,2.23,0,0,1-.19-.64c0-.45-.1-1.28-.1-2.77v-8.67a22,22,0,0,0-1.69-9.32,10.66,10.66,0,0,0-.62-1.16,20.26,20.26,0,0,0,2.24-9.82v-3c0-5.56-1.55-9.78-4.6-12.54-2.47-2.24-5.82-3.37-10-3.37Z"/><polygon points="257.9 148.91 276.23 146.66 277.69 157.12 279.16 146.3 297.55 144.04 297.55 201.47 270.86 204.75 257.9 206.34 257.9 148.91" style="fill:#fff"/><path d="M295.55,146.31V199.7l-2,.25-7.23.89-2,.24V187.6l-1.75,12-.26,1.74-1.7.21-6.4.79-1.7.21-.26-1.68-1.75-11.55v13.48l-2,.24-6.67.82-2,.24v-53.4l2-.24,10.91-1.34,1.72-.21.24,1.71,3,21.19,3-21.92.24-1.77,1.73-.21,10.91-1.34,2-.24m4-4.53-4.48.56-2,.24-10.91,1.34-1.72.21-3.07.38-3.35.41-1.72.21-10.91,1.34-2,.24-3.51.43V208.6l4.49-.55,2-.24L269,207l1.33-.16,2.66-.33,1.71-.21,5.62-.69h0l4.49-.55,2-.24,7.23-.89,2-.25,3.51-.43V141.78Z"/><path d="M314.25,200a12.67,12.67,0,0,1-9.14-3.36C302.37,194,301,190.1,301,185.07V159.12a18.7,18.7,0,0,1,4-12.26A16.81,16.81,0,0,1,316.32,141a20.75,20.75,0,0,1,2.56-.17,12.68,12.68,0,0,1,9.14,3.36c2.74,2.64,4.13,6.53,4.13,11.55v25.95a18.7,18.7,0,0,1-4,12.26,16.81,16.81,0,0,1-11.36,5.82,20.75,20.75,0,0,1-2.56.17Z" style="fill:#fff"/><path d="M318.88,142.87a10.73,10.73,0,0,1,7.75,2.8c2.34,2.25,3.52,5.65,3.52,10.11v25.95a16.72,16.72,0,0,1-3.52,11,14.87,14.87,0,0,1-10.06,5.12,18.92,18.92,0,0,1-2.32.15,10.73,10.73,0,0,1-7.75-2.8c-2.34-2.25-3.52-5.65-3.52-10.11V159.12a16.7,16.7,0,0,1,3.52-11A14.88,14.88,0,0,1,316.57,143a18.63,18.63,0,0,1,2.31-.15M316,186.79a4.9,4.9,0,0,0,.54,0c.88-.11,2-.25,2-3.1V156.71c0-2.28-.7-2.65-1.44-2.65a4.55,4.55,0,0,0-.53,0c-.89.11-2,.25-2,3.1v26.94c0,2.28.7,2.65,1.44,2.65m2.85-47.92a22.66,22.66,0,0,0-2.8.18,18.74,18.74,0,0,0-12.66,6.54c-2.95,3.56-4.44,8.11-4.44,13.53v25.95c0,5.59,1.59,10,4.75,13A14.6,14.6,0,0,0,314.25,202a22.66,22.66,0,0,0,2.8-.18,18.74,18.74,0,0,0,12.66-6.54c3-3.56,4.44-8.11,4.44-13.53V155.78c0-5.58-1.59-10-4.74-13a14.63,14.63,0,0,0-10.53-3.92Z"/><polygon points="332.81 139.72 348.58 137.78 350.16 149.67 351.74 137.39 366.95 135.53 358.38 194 341.38 196.09 332.81 139.72" style="fill:#fff"/><path d="M364.59,137.83l-.35,2.36-7.36,50.27-.26,1.75-1.7.21-10.15,1.24-1.7.21-.26-1.68-7.36-48.47-.35-2.27,2.31-.28,7.71-.95,1.74-.21.23,1.72,3.1,23.38L353.3,141l.23-1.78,1.73-.22,7-.86,2.31-.28m4.72-4.61-5.21.64-2.31.28-7,.86-1.74.22-3.09.38-3.58.44-1.74.21-7.71.95-2.31.28-4.08.5.62,4.07.34,2.28,7.37,48.46.25,1.68.59,3.84,3.85-.47,1.71-.21,10.15-1.24,1.7-.21,3-.38.44-3,.26-1.75,7.36-50.27.35-2.36.76-5.19Z"/><polygon points="368.23 135.37 397.05 131.83 397.05 146.94 383.84 148.56 383.84 153.55 394.33 152.26 394.33 167.38 383.84 168.66 383.84 175.77 397.05 174.15 397.05 189.26 368.23 192.79 368.23 135.37" style="fill:#fff"/><path d="M395.05,134.09v11.08l-2,.25-11.22,1.37v9l8.51-1,2-.25v11.09l-2,.24-8.51,1V178l11.22-1.38,2-.24v11.08l-2,.24-20.84,2.56-2,.24V137.14l2-.25,20.84-2.56,2-.24m4-4.52-4.49.55-2,.24-20.84,2.56-2,.25-3.51.43v61.46l4.49-.55,2-.25,20.85-2.56,2-.24,3.52-.43V171.88l-4.49.56-2,.24-6.73.83v-3.08l5-.61,2-.24,3.51-.44V150l-4.48.55-2,.25-4,.49v-1l7.71-.94,2-.25,3.52-.43V129.57Z"/></g></svg>