<svg xmlns="http://www.w3.org/2000/svg" xmlns:xlink="http://www.w3.org/1999/xlink" viewBox="0 0 497.73 299.97"><defs><linearGradient id="New_Gradient_Swatch_1" x1="218.66" y1="186.4" x2="218.66" y2="186.4" gradientUnits="userSpaceOnUse"><stop offset="0.1" stop-color="#da3228"/><stop offset="1" stop-color="#8f3029"/></linearGradient><linearGradient id="New_Gradient_Swatch_1-2" x1="176.72" y1="85.97" x2="177.67" y2="85.97" xlink:href="#New_Gradient_Swatch_1"/><linearGradient id="New_Gradient_Swatch_1-3" x1="243.93" y1="77.72" x2="244.86" y2="77.72" xlink:href="#New_Gradient_Swatch_1"/><linearGradient id="New_Gradient_Swatch_1-4" x1="165.9" y1="89.53" x2="167.28" y2="89.53" xlink:href="#New_Gradient_Swatch_1"/><linearGradient id="New_Gradient_Swatch_1-5" x1="210.76" y1="81.79" x2="211.72" y2="81.79" xlink:href="#New_Gradient_Swatch_1"/><linearGradient id="New_Gradient_Swatch_1-6" x1="108.1" y1="94.39" x2="109.04" y2="94.39" xlink:href="#New_Gradient_Swatch_1"/><linearGradient id="New_Gradient_Swatch_1-7" x1="78.5" y1="149.99" x2="419.23" y2="149.99" xlink:href="#New_Gradient_Swatch_1"/></defs><title>choose-your-block</title><g id="Choose-your-block"><polygon points="218.66 186.4 218.66 186.4 218.66 186.4 218.66 186.4" style="fill:url(#New_Gradient_Swatch_1)"/><path d="M177.18,86h-.46c.32,0,.64,0,.95,0Z" style="fill:url(#New_Gradient_Swatch_1-2)"/><path d="M244.33,77.71h-.4q.48,0,.93,0Z" style="fill:url(#New_Gradient_Swatch_1-3)"/><path d="M165.9,90.1A12.74,12.74,0,0,1,167.28,89,12.74,12.74,0,0,0,165.9,90.1Z" style="fill:url(#New_Gradient_Swatch_1-4)"/><path d="M211.22,81.79h-.46c.33,0,.64,0,1,0Z" style="fill:url(#New_Gradient_Swatch_1-5)"/><path d="M108.54,94.39h-.44c.32,0,.63,0,.94,0Z" style="fill:url(#New_Gradient_Swatch_1-6)"/><path d="M417.43,121.38l-5.4.67-7.21.88-12.14,1.49-2.25.28-4.24.52-11.61,1.43-3.51.43-2.64.32-.88.11v3.19a19.1,19.1,0,0,0-9.85-2.49,25.68,25.68,0,0,0-3.23.2c-6.34.78-11.4,3.44-15.05,7.91a22.56,22.56,0,0,0-1.36,1.85c-.24-.27-.5-.53-.76-.79a18.51,18.51,0,0,0-13.31-5,26.8,26.8,0,0,0-3.29.21,22.6,22.6,0,0,0-15.25,7.95c-3.56,4.3-5.36,9.71-5.36,16.08v21.52l-1.71.21V136l-1.12.14-3.36.41-.38,0V111.34l-1.12.13-1.59.2V96.56l1.83-.23.88-.11V69l-1.12.14-3.37.41-4.48.55-24.82,3-3.51.43-2.63.32-.88.11v3.11A19.32,19.32,0,0,0,243,74.7a25.42,25.42,0,0,0-3.21.21,22.35,22.35,0,0,0-15.15,8c-.36.44-.71.9-1,1.38l-.42-.43a18.51,18.51,0,0,0-13.31-5,28.73,28.73,0,0,0-3.29.2,22.65,22.65,0,0,0-15.25,8A21.2,21.2,0,0,0,190,88.82c-.26-.28-.53-.56-.81-.83a18.48,18.48,0,0,0-13.3-5,28.6,28.6,0,0,0-3.29.2,23.74,23.74,0,0,0-12,4.8V85.35l-1.12.14-3.37.41-4.48.55-11.36,1.39-4.48.56-11.62,1.42-3.51.43-2.63.33-.88.1v3.2a19.14,19.14,0,0,0-9.86-2.5,27.71,27.71,0,0,0-3.23.2c-6.33.78-11.4,3.44-15,7.91-3.46,4.24-5.21,9.55-5.21,15.81v26.51c0,6.6,2,11.86,5.82,15.63A16.8,16.8,0,0,0,94.91,161l-6.65.82-4.88.6-3.66.45L78.5,163l.4,1.16,1.18,3.5,1.58,4.65,9.58,28.21V231l1.12-.13,3.37-.42,4.49-.55,11.61-1.42,3.51-.44,2.64-.32.87-.11V217A18.19,18.19,0,0,0,122,221a18.47,18.47,0,0,0,13.3,5,26.68,26.68,0,0,0,3.29-.21,22.57,22.57,0,0,0,15.25-8,20.79,20.79,0,0,0,1.48-2c.28.32.58.63.88.93a18.24,18.24,0,0,0,13.25,5.06,26,26,0,0,0,3.25-.21,23.23,23.23,0,0,0,12.11-4.9v2.71l1.12-.14,3.37-.41,4.48-.55,11.62-1.43,3.51-.43,1.22-.15,12.25-1.5,5.45-.67,4.09-.5,1.36-.17-.58-1.25L231,208.53l-2.31-5-1.11-2.39c0-.38,0-1,0-2v-8.67a26.64,26.64,0,0,0-1.84-10.52,25.79,25.79,0,0,0,1.77-9.78v-3c0-6.74-2-12-5.91-15.51a16.41,16.41,0,0,0-6.48-3.55,21.45,21.45,0,0,0,8.77-6.35c.33-.4.65-.81.95-1.24.07.07.13.14.2.2a17.53,17.53,0,0,0,11.47,5.09v67.36l1.12-.13,3.37-.42,4.49-.55,14-1.72a24.76,24.76,0,0,0,11.34-4.12v2.73l1.12-.14,3.37-.41,4.49-.55,24.19-3,3.51-.43,2.63-.33.88-.1v-2.23a20.19,20.19,0,0,0,8.41,1.7,28.56,28.56,0,0,0,3.28-.2,22.62,22.62,0,0,0,15.26-8,20.26,20.26,0,0,0,1.35-1.81c.24.27.5.54.76.79a18.11,18.11,0,0,0,13.17,5,27.71,27.71,0,0,0,3.23-.2,23.51,23.51,0,0,0,11.13-4.19V197l1.13-.14,3.36-.41,4.49-.56,11.61-1.42,2.72-.34,3.33-.4,12.14-1.49,4.74-.59,3.55-.43,1.19-.15-.35-1.14-1-3.42L413,182l-8.87-28.9L413,134.29l3.11-6.56,2.33-4.93.77-1.64Z" style="fill:url(#New_Gradient_Swatch_1-7)"/><path d="M103.07,156.48a12.34,12.34,0,0,1-9-3.33c-2.66-2.6-4-6.42-4-11.34V115.3a18.43,18.43,0,0,1,3.86-12,16.37,16.37,0,0,1,11.14-5.75,19.72,19.72,0,0,1,2.49-.16,12.34,12.34,0,0,1,9,3.33c2.66,2.6,4,6.42,4,11.33v9l-14.87,1.82v6.26l14.87-1.82v11.25a18.45,18.45,0,0,1-3.86,12,16.37,16.37,0,0,1-11.14,5.75,21.81,21.81,0,0,1-2.5.16Z" style="fill:#fff"/><path d="M107.59,99.38a10.41,10.41,0,0,1,7.57,2.76c2.26,2.21,3.41,5.55,3.41,9.9v7.24l-11.19,1.37v-7.72c0-2.05-.62-2.39-1.31-2.39a4.55,4.55,0,0,0-.53,0c-.86.11-1.84.23-1.84,2.8V141c0,2,.59,2.32,1.28,2.32a5.46,5.46,0,0,0,.56,0c.9-.12,1.84-.23,1.84-2.73v-9.56l11.19-1.37v9a16.49,16.49,0,0,1-3.41,10.74,14.39,14.39,0,0,1-9.83,5,17.7,17.7,0,0,1-2.25.15,10.43,10.43,0,0,1-7.58-2.76c-2.26-2.21-3.41-5.55-3.41-9.91V115.3a16.54,16.54,0,0,1,3.41-10.75,14.47,14.47,0,0,1,9.83-5,19.85,19.85,0,0,1,2.26-.14m0-4a23.86,23.86,0,0,0-2.75.17A18.34,18.34,0,0,0,92.4,102a20.39,20.39,0,0,0-4.31,13.28v26.51c0,5.48,1.55,9.78,4.61,12.77a14.28,14.28,0,0,0,10.38,3.9,21.72,21.72,0,0,0,2.74-.18,18.29,18.29,0,0,0,12.44-6.46,20.41,20.41,0,0,0,4.31-13.28V125l-4.49.56-10.38,1.27v-2.23l.16,0,11.2-1.37,3.51-.43V112c0-5.47-1.55-9.77-4.61-12.76a14.27,14.27,0,0,0-10.37-3.9Zm.14,17.53Z"/><polygon points="123.44 95.99 139.05 94.08 139.05 114.17 139.28 114.15 139.28 94.05 154.89 92.13 154.89 149.56 139.28 151.47 139.28 129.26 139.05 129.29 139.05 151.5 123.44 153.42 123.44 95.99" style="fill:#fff"/><path d="M152.89,94.39v53.4l-11.61,1.42V127l-4.23.52v22.21l-11.61,1.43V97.76l11.61-1.42v20.1l4.23-.52V95.82l11.61-1.43m4-4.52-4.48.55-11.36,1.39h0l-4.48.56L125,93.79l-3.51.43v61.46l4.49-.55,11.61-1.43,3.51-.43.72-.09,11.61-1.42,3.51-.43V89.87Z"/><path d="M171.59,148.06a12.7,12.7,0,0,1-9.14-3.35c-2.74-2.64-4.13-6.53-4.13-11.56V107.2a18.65,18.65,0,0,1,4-12.25,16.78,16.78,0,0,1,11.36-5.83,20.69,20.69,0,0,1,2.56-.16,12.7,12.7,0,0,1,9.14,3.35c2.74,2.65,4.13,6.53,4.13,11.55v26a18.67,18.67,0,0,1-4,12.25,16.82,16.82,0,0,1-11.36,5.83,20.69,20.69,0,0,1-2.56.16Z" style="fill:#fff"/><path d="M176.22,91A10.72,10.72,0,0,1,184,93.75c2.34,2.26,3.52,5.66,3.52,10.11v26a16.68,16.68,0,0,1-3.52,11,14.83,14.83,0,0,1-10.06,5.12,18.92,18.92,0,0,1-2.32.15,10.72,10.72,0,0,1-7.75-2.79c-2.34-2.25-3.52-5.66-3.52-10.12V107.2a16.72,16.72,0,0,1,3.52-11,14.87,14.87,0,0,1,10.07-5.11,18.63,18.63,0,0,1,2.31-.15m-2.85,43.92a4.93,4.93,0,0,0,.54,0c.88-.11,2-.24,2-3.09V104.8c0-2.29-.7-2.66-1.44-2.66a4.53,4.53,0,0,0-.53,0c-.88.11-2,.24-2,3.09v26.94c0,2.29.7,2.66,1.44,2.66M176.22,87a24.72,24.72,0,0,0-2.8.17,18.76,18.76,0,0,0-12.66,6.54c-2.95,3.57-4.44,8.12-4.44,13.53v26c0,5.59,1.6,10,4.75,13a14.56,14.56,0,0,0,10.52,3.91,22.66,22.66,0,0,0,2.8-.18,18.66,18.66,0,0,0,12.66-6.54c2.95-3.56,4.44-8.11,4.44-13.52v-26c0-5.58-1.59-10-4.74-13A14.6,14.6,0,0,0,176.22,87Z"/><path d="M205.64,143.88a12.69,12.69,0,0,1-9.14-3.35c-2.75-2.64-4.14-6.53-4.14-11.56V103a18.65,18.65,0,0,1,4-12.25,16.8,16.8,0,0,1,11.37-5.83,20.65,20.65,0,0,1,2.55-.16,12.7,12.7,0,0,1,9.14,3.35c2.75,2.65,4.14,6.53,4.14,11.55v26a18.69,18.69,0,0,1-4,12.25,16.8,16.8,0,0,1-11.37,5.83,20.65,20.65,0,0,1-2.55.16Z" style="fill:#fff"/><path d="M210.26,86.78A10.72,10.72,0,0,1,218,89.57c2.34,2.26,3.53,5.66,3.53,10.11v26a16.68,16.68,0,0,1-3.53,11A14.81,14.81,0,0,1,208,141.73a18.63,18.63,0,0,1-2.31.15,10.75,10.75,0,0,1-7.76-2.79c-2.33-2.25-3.52-5.66-3.52-10.12V103a16.78,16.78,0,0,1,3.52-11A14.94,14.94,0,0,1,208,86.92a20.72,20.72,0,0,1,2.31-.14m-2.85,43.92a4.71,4.71,0,0,0,.54,0c.88-.11,2-.24,2-3.09V100.62c0-2.29-.71-2.66-1.44-2.66A4.71,4.71,0,0,0,208,98c-.88.11-2,.24-2,3.09V128c0,2.29.71,2.66,1.44,2.66m2.85-47.92a24.72,24.72,0,0,0-2.8.17,18.78,18.78,0,0,0-12.66,6.54A20.67,20.67,0,0,0,190.36,103v26c0,5.59,1.6,10,4.75,13a14.6,14.6,0,0,0,10.53,3.91,22.78,22.78,0,0,0,2.8-.18,18.7,18.7,0,0,0,12.66-6.54,20.62,20.62,0,0,0,4.44-13.52v-26c0-5.58-1.6-10-4.75-13a14.6,14.6,0,0,0-10.53-3.91Z"/><path d="M238.61,139.84a12.25,12.25,0,0,1-9-3.4c-2.61-2.63-3.94-6.51-3.94-11.55v-6.61l11.09-1.36c-.31-.25-.64-.51-1-.78a29.24,29.24,0,0,1-7.55-7.91,18.41,18.41,0,0,1-2.4-9.45,18.58,18.58,0,0,1,3.9-12.12,16.5,16.5,0,0,1,11.24-5.8,21.3,21.3,0,0,1,2.47-.16,12.07,12.07,0,0,1,9,3.43c2.58,2.63,3.89,6.51,3.89,11.54v5.83l-10.81,1.32,1.07.85a27.29,27.29,0,0,1,7.59,8,19.83,19.83,0,0,1,2.29,9.78c0,5-1.32,9.19-3.93,12.37a16.71,16.71,0,0,1-11.34,5.85A22.29,22.29,0,0,1,238.61,139.84Z" style="fill:#fff"/><path d="M243.39,82.7A10.16,10.16,0,0,1,251,85.53c2.2,2.24,3.31,5.65,3.31,10.14v4.06l-11.19,1.37V96.55c0-1.63-.35-2.18-.51-2.34a1.09,1.09,0,0,0-.92-.32l-.41,0c-.82.1-1.84.23-1.84,2.94a6.66,6.66,0,0,0,1.13,3.8,21.46,21.46,0,0,0,4.79,4.6c3.41,2.59,5.72,5,7.05,7.4a17.78,17.78,0,0,1,2,8.8c0,4.55-1.17,8.29-3.48,11.11a14.76,14.76,0,0,1-10,5.12,18.13,18.13,0,0,1-2.27.15A10.28,10.28,0,0,1,231,135c-2.23-2.24-3.36-5.65-3.36-10.14v-4.84l11.2-1.37v5.4c0,2.22.7,2.58,1.43,2.58a4.73,4.73,0,0,0,.54,0,1.93,1.93,0,0,0,1.46-.66,4.12,4.12,0,0,0,.52-2.51,7.79,7.79,0,0,0-1.11-4.3,20.37,20.37,0,0,0-4.74-4.6,27.39,27.39,0,0,1-7-7.33,16.43,16.43,0,0,1-2.13-8.44,16.66,16.66,0,0,1,3.45-10.86,14.58,14.58,0,0,1,9.93-5.07,17.52,17.52,0,0,1,2.23-.15m0-4h0a21.41,21.41,0,0,0-2.72.18,18.43,18.43,0,0,0-12.54,6.51c-2.89,3.53-4.35,8-4.35,13.39a20.34,20.34,0,0,0,2.68,10.47,26.76,26.76,0,0,0,5.37,6.26l-4.68.57-3.51.43v8.38c0,5.59,1.52,10,4.53,13a14.11,14.11,0,0,0,10.44,4,22.15,22.15,0,0,0,2.76-.18A18.63,18.63,0,0,0,254,135.1c2.91-3.56,4.38-8.14,4.38-13.64a21.77,21.77,0,0,0-2.55-10.75,25.31,25.31,0,0,0-5.47-6.48l4.37-.53,3.51-.43v-7.6c0-5.57-1.5-9.93-4.46-12.94a14.21,14.21,0,0,0-10.41-4Z"/><polygon points="259.06 79.34 287.87 75.8 287.87 90.92 274.67 92.54 274.67 97.52 285.16 96.23 285.16 111.35 274.67 112.64 274.67 119.74 287.87 118.12 287.87 133.23 259.06 136.77 259.06 79.34" style="fill:#fff"/><path d="M285.87,78.06V89.15l-13.2,1.62v9l10.49-1.28v11.08l-10.49,1.29V122l13.2-1.62v11.08l-24.81,3V81.11l24.81-3m4-4.52-4.48.55-24.82,3-3.51.43V139l4.49-.55,24.81-3,3.51-.43V115.86l-4.48.55-8.72,1.07V114.4l7-.85,3.51-.43V94l-4.48.56-6,.73v-1l9.69-1.18,3.51-.44V73.54Z"/><polygon points="97.59 199.53 86.91 168.06 103.39 166.03 105.68 173.72 107.97 165.47 124.05 163.5 113.21 198.08 113.21 222.25 97.59 224.17 97.59 199.53" style="fill:#fff"/><path d="M121.21,165.86l-10,31.92v22.71l-11.62,1.42V199.2l-10-29.46L102,168.22,105.75,181l3.79-13.66,11.67-1.43m5.67-4.73-6.16.76-11.67,1.43-2.65.33-.71,2.57-.08.26-.79-2.64-3.35.41L89.1,165.77l-4.88.6L85.8,171l9.79,28.83v26.57l4.49-.55,11.61-1.42,3.52-.44V198.39L125,167.06l1.85-5.93Z"/><path d="M135.67,220.05a12.72,12.72,0,0,1-9.14-3.35c-2.74-2.65-4.13-6.53-4.13-11.56V179.19a18.65,18.65,0,0,1,4-12.25,16.78,16.78,0,0,1,11.36-5.83,20.69,20.69,0,0,1,2.56-.16,12.66,12.66,0,0,1,9.14,3.35c2.74,2.65,4.13,6.53,4.13,11.55v26a18.69,18.69,0,0,1-4,12.25,16.86,16.86,0,0,1-11.36,5.83,20.69,20.69,0,0,1-2.56.16Z" style="fill:#fff"/><path d="M140.3,163a10.72,10.72,0,0,1,7.75,2.79c2.34,2.25,3.52,5.66,3.52,10.11v26a16.7,16.7,0,0,1-3.52,11A14.87,14.87,0,0,1,138,217.9a18.92,18.92,0,0,1-2.32.15,10.77,10.77,0,0,1-7.75-2.79c-2.34-2.25-3.52-5.66-3.52-10.12V179.19a16.72,16.72,0,0,1,3.52-11A14.88,14.88,0,0,1,138,163.09a20.72,20.72,0,0,1,2.31-.14m-2.85,43.91a4.9,4.9,0,0,0,.54,0c.88-.11,2-.24,2-3.09V176.79c0-2.29-.7-2.66-1.44-2.66a3.07,3.07,0,0,0-.53.05c-.88.1-2,.24-2,3.09v26.94c0,2.29.7,2.65,1.44,2.65M140.3,159a24.72,24.72,0,0,0-2.8.17,18.76,18.76,0,0,0-12.66,6.54c-3,3.56-4.44,8.12-4.44,13.53v25.95c0,5.59,1.6,10,4.75,13a14.6,14.6,0,0,0,10.52,3.91,22.66,22.66,0,0,0,2.8-.18,18.66,18.66,0,0,0,12.66-6.54c3-3.56,4.44-8.11,4.44-13.52v-26c0-5.58-1.59-9.95-4.74-13A14.6,14.6,0,0,0,140.3,159Z"/><path d="M169.82,215.86a12.45,12.45,0,0,1-9-3.35c-2.69-2.63-4.05-6.52-4.05-11.58V159.48l30.76-3.77v41.93c0,5-1.31,9.1-3.9,12.26a16.5,16.5,0,0,1-11.24,5.8A20,20,0,0,1,169.82,215.86Z" style="fill:#fff"/><path d="M185.48,158v39.67c0,4.5-1.16,8.2-3.44,11a14.6,14.6,0,0,1-9.94,5.07,18.17,18.17,0,0,1-2.28.15,10.54,10.54,0,0,1-7.66-2.78c-2.28-2.24-3.44-5.65-3.44-10.15V161.25l11.61-1.42v40.24c0,1.59.35,2.1.5,2.25a1.21,1.21,0,0,0,1,.32l.43,0a1.91,1.91,0,0,0,1.41-.64,3.84,3.84,0,0,0,.49-2.37V159.36L185.48,158m4-4.52L185,154l-10.66,1.31h0l-4.48.55-11.62,1.42-3.51.43v43.22c0,5.62,1.56,10,4.65,13a14.38,14.38,0,0,0,10.45,3.92,22.18,22.18,0,0,0,2.77-.18,18.43,18.43,0,0,0,12.54-6.51c2.89-3.53,4.35-8.08,4.35-13.53V153.45Z"/><path d="M191.18,155.25l15.07-1.85a24.1,24.1,0,0,1,3-.19c3.64,0,6.54,1,8.63,2.85,2.62,2.37,3.94,6.09,3.94,11.06v3a17.49,17.49,0,0,1-2.61,9.92,9.55,9.55,0,0,1,1.18,1.89,20.22,20.22,0,0,1,1.5,8.49v8.67a28,28,0,0,0,.12,3,3.78,3.78,0,0,0,.36,1.29l2.4,5.17-16.56,2-1-2.79c-.15-.41-.28-.82-.39-1.22v4.18l-15.61,1.92Z" style="fill:#fff"/><path d="M209.23,155.21c3.13,0,5.57.78,7.29,2.33,2.18,2,3.28,5.2,3.28,9.58v3c0,4.34-1.1,7.71-3.27,10.08a6.85,6.85,0,0,1,2,2.58,18.17,18.17,0,0,1,1.32,7.64v8.67a29.52,29.52,0,0,0,.13,3.19,6.26,6.26,0,0,0,.53,1.91l1.25,2.68-12.25,1.5-.47-1.29a12.51,12.51,0,0,1-.65-2.58,36.35,36.35,0,0,1-.15-4v-9c0-2.47-.48-3.21-.63-3.37a1.84,1.84,0,0,0-1.37-.39,6,6,0,0,0-.81.06l-.66.08V209l-11.61,1.43V157l13.31-1.63a22.33,22.33,0,0,1,2.74-.18m-4.44,21.54.8-.09a3.06,3.06,0,0,0,2-.84,4.17,4.17,0,0,0,.59-2.69v-3.81c0-1.78-.36-2.38-.51-2.56a1.17,1.17,0,0,0-.92-.3,2.74,2.74,0,0,0-.48,0l-1.49.18v10.07m4.44-25.54a26.22,26.22,0,0,0-3.23.21l-13.31,1.63-3.51.43v61.46l4.49-.55L205.28,213l3.51-.43,1.23-.15,12.24-1.5,5.46-.67-2.32-5-1.24-2.69a1.93,1.93,0,0,1-.18-.64,25.89,25.89,0,0,1-.11-2.77v-8.67a22.05,22.05,0,0,0-1.69-9.33,11.05,11.05,0,0,0-.6-1.13,20.32,20.32,0,0,0,2.22-9.84v-3c0-5.56-1.55-9.78-4.6-12.54-2.47-2.24-5.82-3.37-10-3.37Z"/><path d="M242.8,148.91,258.08,147a24.1,24.1,0,0,1,3-.19c3.64,0,6.54,1,8.63,2.84,2.62,2.37,3.94,6.1,3.94,11.07v2A19,19,0,0,1,272,170.9a13.73,13.73,0,0,1-.87,1.55c2.17,2.34,3.27,5.79,3.27,10.29V187c0,4.84-1.36,8.84-4,11.89s-6.49,4.89-11.32,5.49l-16.25,2Zm15.62,40.4.29,0a6.49,6.49,0,0,0,.07-1.08v-4.31a9.31,9.31,0,0,0-.12-1.67h-.24Z" style="fill:#fff"/><path d="M261.06,148.85c3.13,0,5.57.78,7.29,2.33,2.18,2,3.28,5.19,3.28,9.58v2A17,17,0,0,1,270.2,170a11.3,11.3,0,0,1-1.79,2.68c2.17,1.53,4,4.47,4,10V187c0,4.35-1.19,7.9-3.54,10.57s-5.73,4.29-10.05,4.82l-14,1.72v-53.4L258.32,149a24.39,24.39,0,0,1,2.74-.17m-4.64,20.51,1-.13a3,3,0,0,0,2-.83,4.17,4.17,0,0,0,.59-2.69V163c0-1.78-.36-2.39-.51-2.56a1.17,1.17,0,0,0-.92-.3l-.48,0-1.69.21v9m0,22.21,2.39-.29a2.35,2.35,0,0,0,1.51-.62c.08-.09.46-.66.46-2.47v-4.31c0-2.42-.49-3.11-.64-3.27a2.12,2.12,0,0,0-1.47-.4,6.62,6.62,0,0,0-.84.06l-1.41.17v11.13m4.64-46.72a28.26,28.26,0,0,0-3.23.2l-13.51,1.66-3.52.43V208.6l4.49-.55,14-1.72c5.32-.65,9.55-2.72,12.57-6.15s4.53-7.87,4.53-13.21v-4.23c0-4.91-1.27-8.23-2.86-10.46l.27-.52a20.91,20.91,0,0,0,1.82-9v-2c0-5.56-1.55-9.78-4.6-12.55-2.47-2.23-5.82-3.36-10-3.36Z"/><polygon points="277.13 144.7 292.74 142.78 292.74 185.1 305.31 183.55 305.31 198.67 277.13 202.13 277.13 144.7" style="fill:#fff"/><path d="M290.74,145v42.32l12.57-1.55V196.9l-24.19,3v-53.4L290.74,145m4-4.52-4.49.55-11.61,1.43-3.52.43v61.46l4.49-.55,24.19-3,3.51-.43V181.29l-4.48.55-8.09,1V140.52Z"/><path d="M319.72,197.45a12.69,12.69,0,0,1-9.14-3.35c-2.75-2.64-4.14-6.53-4.14-11.55v-26a18.62,18.62,0,0,1,4-12.25,16.78,16.78,0,0,1,11.36-5.83,20.65,20.65,0,0,1,2.55-.16,12.69,12.69,0,0,1,9.14,3.35c2.75,2.65,4.14,6.54,4.14,11.56v26a18.67,18.67,0,0,1-4,12.25,16.82,16.82,0,0,1-11.37,5.83,20.54,20.54,0,0,1-2.55.16Z" style="fill:#fff"/><path d="M324.34,140.35a10.75,10.75,0,0,1,7.76,2.79c2.33,2.26,3.52,5.66,3.52,10.12v26a16.78,16.78,0,0,1-3.52,11A14.89,14.89,0,0,1,322,195.3a18.63,18.63,0,0,1-2.31.15,10.72,10.72,0,0,1-7.75-2.79c-2.34-2.25-3.53-5.65-3.53-10.11v-26a16.73,16.73,0,0,1,3.53-11A14.87,14.87,0,0,1,322,140.5a18.76,18.76,0,0,1,2.31-.15m-2.85,43.92a4.71,4.71,0,0,0,.54-.05c.88-.11,2-.24,2-3.09V154.19c0-2.29-.71-2.66-1.44-2.66a4.93,4.93,0,0,0-.54.05c-.88.11-2,.24-2,3.09v26.94c0,2.29.7,2.66,1.43,2.66m2.85-47.92a22.78,22.78,0,0,0-2.8.18,18.69,18.69,0,0,0-12.65,6.53,20.62,20.62,0,0,0-4.45,13.53v26c0,5.58,1.6,10,4.75,13a14.6,14.6,0,0,0,10.53,3.91,22.66,22.66,0,0,0,2.8-.18,18.73,18.73,0,0,0,12.66-6.53c2.95-3.57,4.44-8.12,4.44-13.53v-26c0-5.59-1.6-10-4.75-13a14.6,14.6,0,0,0-10.53-3.91Z"/><path d="M353.54,193.3a12.34,12.34,0,0,1-9-3.33c-2.66-2.6-4-6.41-4-11.33V152.12a18.47,18.47,0,0,1,3.86-12,16.41,16.41,0,0,1,11.13-5.75,21.74,21.74,0,0,1,2.5-.15,12.34,12.34,0,0,1,9,3.33c2.66,2.6,4,6.41,4,11.33v9l-14.87,1.83V166L371,164.13v11.26a18.42,18.42,0,0,1-3.86,12A16.35,16.35,0,0,1,356,193.14,19.76,19.76,0,0,1,353.54,193.3Z" style="fill:#fff"/><path d="M358.05,136.21a10.39,10.39,0,0,1,7.58,2.76c2.26,2.21,3.41,5.54,3.41,9.9v7.23l-11.2,1.38v-7.73c0-2.05-.62-2.39-1.3-2.39a4.53,4.53,0,0,0-.53,0c-.86.1-1.84.22-1.84,2.79v27.58c0,2,.59,2.32,1.28,2.32a5.54,5.54,0,0,0,.56,0c.9-.11,1.83-.23,1.83-2.72v-9.56l11.2-1.38v9a16.51,16.51,0,0,1-3.41,10.74,14.45,14.45,0,0,1-9.83,5,20,20,0,0,1-2.26.14,10.35,10.35,0,0,1-7.57-2.76c-2.27-2.21-3.41-5.54-3.41-9.9V152.12A16.45,16.45,0,0,1,346,141.38a14.43,14.43,0,0,1,9.83-5,17.64,17.64,0,0,1,2.25-.14m0-4a21.66,21.66,0,0,0-2.74.17,18.28,18.28,0,0,0-12.44,6.47,20.37,20.37,0,0,0-4.31,13.27v26.52c0,5.48,1.55,9.77,4.61,12.76a14.24,14.24,0,0,0,10.37,3.9,24,24,0,0,0,2.75-.17,18.34,18.34,0,0,0,12.44-6.47A20.38,20.38,0,0,0,373,175.39V161.87l-4.49.55-10.38,1.28v-2.23l.16,0,11.2-1.38,3.51-.43V148.87c0-5.48-1.55-9.77-4.61-12.76a14.28,14.28,0,0,0-10.38-3.9Zm.15,17.53Z"/><polygon points="373.91 132.82 389.52 130.9 389.52 137.56 392.63 130.52 409.5 128.45 398.07 152.62 408.32 186.02 392.15 188 389.52 179.37 389.52 188.33 373.91 190.25 373.91 132.82" style="fill:#fff"/><path d="M406.14,130.87l-10.21,21.59,9.78,31.86-12.14,1.5L388.13,168l-.61,1.34v17.27L375.91,188V134.59l11.61-1.43V147L394,132.36l12.13-1.49m6.73-4.85-7.21.88-12.14,1.49-2.25.28-4.24.52-11.61,1.43-3.51.43v61.46l4.48-.56L388,190.53l2.71-.34h0l3.34-.4,12.14-1.5,4.73-.58-1.4-4.56-9.32-30.38,9.55-20.19,3.11-6.56Z"/></g></svg>