<svg xmlns="http://www.w3.org/2000/svg" xmlns:xlink="http://www.w3.org/1999/xlink" viewBox="0 0 497.73 299.97"><defs><linearGradient id="New_Gradient_Swatch_1" x1="59.1" y1="149.99" x2="438.64" y2="149.99" gradientUnits="userSpaceOnUse"><stop offset="0.1" stop-color="#da3228"/><stop offset="1" stop-color="#8f3029"/></linearGradient></defs><title>choose-your-weapon</title><g id="Choose-your-weapon"><path d="M434.15,117l-4.49.55-2,.24-6.81.84-2,.24-3.51.43-.53.07-1.54.19-9.59,1.18-2,.24-3.51.43-3.51.43v3.77a19.18,19.18,0,0,0-10.7-3,28.73,28.73,0,0,0-3.29.2,22.65,22.65,0,0,0-15.25,8c-.39.47-.76,1-1.11,1.46a18.25,18.25,0,0,0-13.11-4.89,26.52,26.52,0,0,0-3.39.22l-11.26,1.38-2,.24-3.51.43-3.52.43-3.34.41-3.81.47-1.69.21-10.35,1.27-1.69.21-3,.37-.89.11h0l-4.49.55-4.48.55-2,.24-17.73,2.18V111.34l-2.71.33V96.56l2.71-.34V69l-4.49.55-4.49.55-2,.25-20.85,2.56-2,.24-3.51.43L233.3,74v3.09a19,19,0,0,0-9.67-2.42,25.27,25.27,0,0,0-3.2.21c-6.38.78-11.48,3.46-15.15,8-.37.45-.71.91-1,1.38l-.43-.43a18.48,18.48,0,0,0-13.3-5,28.73,28.73,0,0,0-3.29.2A22.65,22.65,0,0,0,172,87a23.22,23.22,0,0,0-1.39,1.87c-.26-.28-.53-.56-.8-.83a18.49,18.49,0,0,0-13.31-5,28.73,28.73,0,0,0-3.29.2,23.54,23.54,0,0,0-12,4.8V85.35l-4.49.55-4.49.55-2,.24-7.65.94-1.72.21-2.24.28-1.53.19-.72.09-2,.24-7.65.94-2,.24-3.51.43-3.52.43v3.2a19.1,19.1,0,0,0-9.85-2.5,27.71,27.71,0,0,0-3.23.2c-6.34.78-11.4,3.44-15,7.91-3.46,4.23-5.22,9.55-5.22,15.81v26.51c0,6.6,2,11.86,5.82,15.63A16.85,16.85,0,0,0,75.51,161l-3.9.48-2.75.34-4.88.6-4.88.6,1.58,4.66,1.58,4.65.86,2.55,8.72,25.66V231l4.49-.55,4.48-.55,2-.24,7.64-.94,2-.24,3.51-.44,3.51-.43V217a18.07,18.07,0,0,0,3.17,4.06,18.45,18.45,0,0,0,13.3,5,26.52,26.52,0,0,0,3.28-.21,22.15,22.15,0,0,0,16.74-10c.28.32.57.63.88.93a18.21,18.21,0,0,0,13.24,5.06,26.2,26.2,0,0,0,3.26-.21,23.16,23.16,0,0,0,12.1-4.9v2.71l4.49-.55,4.49-.55,2-.24,7.65-.94,2-.25,2.27-.27,2.47-.31,1.41-.17,7.78-1,3.05-.37,5.46-.67,5.45-.67-2.31-5-2.31-5-1.11-2.39c0-.36-.06-1-.06-2v-8.67a26.43,26.43,0,0,0-1.85-10.55,25.33,25.33,0,0,0,1.78-9.75v-3c0-6.74-2-12-5.91-15.51a16.37,16.37,0,0,0-6.47-3.55,21.48,21.48,0,0,0,8.76-6.34c.34-.41.65-.82,1-1.25l.2.21a17.15,17.15,0,0,0,8.85,4.71l.24,2.45.4,3.9.22,2.19,4.93,48.76.18,1.79.42,4.07.41,4.06,4.05-.5,4.06-.5,1.79-.22,10.15-1.24,1.26-.16,4-.49,1.78-.22,9.52-1.17,1.8-.22,2.32-.29h0l4.49-.55,4.48-.55,2-.24,20.84-2.56,1-.13,3.88-.47.6-.08.78-.09,2.34-.29,7.08-.87,1.72-.21,3-.37,3.05-.38,1.94-.23,1.72-.22,7.64-.93,2.33-.29,1.13-.14,4.49-.55,2-.24,7.65-.94,2-.25,3.51-.43,3.52-.43V175.53a22.06,22.06,0,0,0,4.9-2.31c.08,6.52,2.09,11.72,6,15.45a18.47,18.47,0,0,0,13.3,5,26.68,26.68,0,0,0,3.29-.21,23.57,23.57,0,0,0,12-4.79v2.61l4.49-.55,4.48-.55,2-.24,6.81-.84,2-.24,3.52-.44,2.27-.28,1.54-.18,7.85-1,2-.24,3.52-.43,3.51-.43V116.4Z" style="fill:url(#New_Gradient_Swatch_1)"/><path d="M83,156.48a12.3,12.3,0,0,1-9-3.33c-2.67-2.6-4-6.42-4-11.34V115.3a18.38,18.38,0,0,1,3.87-12A16.34,16.34,0,0,1,85,97.54a19.76,19.76,0,0,1,2.5-.16,12.38,12.38,0,0,1,9,3.33c2.66,2.6,4,6.42,4,11.33v9l-14.87,1.82v6.26l14.87-1.83v11.26a18.45,18.45,0,0,1-3.86,12,16.39,16.39,0,0,1-11.14,5.75,19.76,19.76,0,0,1-2.5.16Z" style="fill:#fff"/><path d="M87.46,99.38A10.43,10.43,0,0,1,95,102.14c2.26,2.21,3.41,5.55,3.41,9.9v7.24l-2,.24-7.22.89-2,.24v-7.72c0-2.05-.62-2.39-1.31-2.39a4.91,4.91,0,0,0-.53,0c-.86.11-1.83.23-1.83,2.8V141c0,2,.58,2.32,1.28,2.32a5.09,5.09,0,0,0,.55,0c.91-.12,1.84-.23,1.84-2.73v-9.56l2-.24,7.22-.89,2-.24v9A16.49,16.49,0,0,1,95,149.3a14.43,14.43,0,0,1-9.83,5,18,18,0,0,1-2.26.15,10.43,10.43,0,0,1-7.58-2.76c-2.26-2.21-3.41-5.55-3.41-9.91V115.3a16.49,16.49,0,0,1,3.41-10.74,14.49,14.49,0,0,1,9.84-5,19.68,19.68,0,0,1,2.25-.14m0-4a23.7,23.7,0,0,0-2.74.17A18.27,18.27,0,0,0,72.28,102,20.35,20.35,0,0,0,68,115.3v26.51c0,5.48,1.56,9.78,4.62,12.77A14.24,14.24,0,0,0,83,158.48a21.72,21.72,0,0,0,2.74-.18,18.25,18.25,0,0,0,12.44-6.46,20.36,20.36,0,0,0,4.32-13.28V125L98,125.6l-2,.24-7.22.89-1.17.14v-2.23l.16,0,2-.24,7.23-.89,2-.24,3.52-.43V112c0-5.47-1.56-9.76-4.62-12.76a14.24,14.24,0,0,0-10.37-3.9Zm.14,17.53Z"/><polygon points="103.31 95.99 118.93 94.08 118.93 114.17 119.16 114.15 119.16 94.05 134.77 92.13 134.77 149.56 119.16 151.47 119.16 129.26 118.93 129.29 118.93 151.5 103.31 153.42 103.31 95.99" style="fill:#fff"/><path d="M132.77,94.39v53.4l-2,.24-7.64.94-2,.24V127l-4.23.52v22.21l-2,.25-7.64.94-2,.24V97.76l2-.24,7.64-.94,2-.24v20.1l4.23-.52V95.82l2-.25,7.64-.94,2-.24m4-4.52-4.49.55-2,.24-7.65.94-1.72.21h0l-2.25.28-1.52.19-.72.09-2,.24-7.64.94-2,.24-3.52.43v61.46l4.49-.55,2-.24,7.64-.94,1.73-.21h0l2.24-.28,1.53-.19.71-.09,2-.24,7.64-.94,2-.24,3.51-.43V89.87Z"/><path d="M151.47,148.06a12.69,12.69,0,0,1-9.14-3.35c-2.75-2.64-4.14-6.53-4.14-11.56V107.2a18.65,18.65,0,0,1,4-12.25,16.84,16.84,0,0,1,11.37-5.83,20.65,20.65,0,0,1,2.55-.16,12.69,12.69,0,0,1,9.14,3.35c2.75,2.65,4.14,6.53,4.14,11.55v26a18.67,18.67,0,0,1-4,12.25A16.84,16.84,0,0,1,154,147.9a20.65,20.65,0,0,1-2.55.16Z" style="fill:#fff"/><path d="M156.09,91a10.76,10.76,0,0,1,7.76,2.79c2.33,2.26,3.52,5.66,3.52,10.11v26a16.78,16.78,0,0,1-3.52,11,14.89,14.89,0,0,1-10.07,5.11,18.63,18.63,0,0,1-2.31.15,10.71,10.71,0,0,1-7.75-2.79c-2.34-2.25-3.53-5.66-3.53-10.12V107.2a16.73,16.73,0,0,1,3.52-11,14.86,14.86,0,0,1,10.07-5.12,18.63,18.63,0,0,1,2.31-.15m-2.85,43.92a4.71,4.71,0,0,0,.54,0c.88-.11,2-.24,2-3.09V104.8c0-2.29-.71-2.66-1.44-2.66a4.71,4.71,0,0,0-.54,0c-.88.11-2,.24-2,3.09v26.94c0,2.29.71,2.66,1.44,2.66M156.09,87a24.72,24.72,0,0,0-2.8.17,18.75,18.75,0,0,0-12.66,6.55,20.6,20.6,0,0,0-4.44,13.52v26c0,5.59,1.6,10,4.75,13a14.64,14.64,0,0,0,10.53,3.91,22.78,22.78,0,0,0,2.8-.18,18.73,18.73,0,0,0,12.66-6.53,20.67,20.67,0,0,0,4.44-13.53v-26c0-5.58-1.6-10-4.75-13A14.6,14.6,0,0,0,156.09,87Z"/><path d="M185.51,143.88a12.7,12.7,0,0,1-9.14-3.35c-2.74-2.64-4.13-6.53-4.13-11.56V103a18.65,18.65,0,0,1,4-12.25,16.78,16.78,0,0,1,11.36-5.83,20.69,20.69,0,0,1,2.56-.16,12.72,12.72,0,0,1,9.14,3.35c2.74,2.65,4.13,6.53,4.13,11.55v26a18.69,18.69,0,0,1-4,12.25,16.78,16.78,0,0,1-11.36,5.83,20.69,20.69,0,0,1-2.56.16Z" style="fill:#fff"/><path d="M190.14,86.78a10.72,10.72,0,0,1,7.75,2.79c2.34,2.26,3.52,5.66,3.52,10.11v26a16.72,16.72,0,0,1-3.52,11,14.87,14.87,0,0,1-10.07,5.11,18.63,18.63,0,0,1-2.31.15,10.72,10.72,0,0,1-7.75-2.79c-2.34-2.25-3.52-5.66-3.52-10.12V103a16.72,16.72,0,0,1,3.52-11,14.92,14.92,0,0,1,10.06-5.12,21,21,0,0,1,2.32-.14m-2.85,43.92a4.53,4.53,0,0,0,.53,0c.88-.11,2-.24,2-3.09V100.62c0-2.29-.7-2.66-1.44-2.66a4.93,4.93,0,0,0-.54.05c-.88.11-2,.24-2,3.09V128c0,2.29.7,2.66,1.44,2.66m2.85-47.92a24.72,24.72,0,0,0-2.8.17,18.71,18.71,0,0,0-12.66,6.55c-3,3.55-4.44,8.11-4.44,13.52v26c0,5.59,1.59,10,4.75,13a14.6,14.6,0,0,0,10.52,3.91,22.66,22.66,0,0,0,2.8-.18A18.71,18.71,0,0,0,201,139.17c2.95-3.57,4.44-8.12,4.44-13.53v-26c0-5.58-1.59-10-4.75-13a14.58,14.58,0,0,0-10.52-3.91Z"/><path d="M218.48,139.84a12.23,12.23,0,0,1-9-3.4c-2.62-2.62-3.94-6.51-3.94-11.55v-6.61l11.08-1.36-1-.79a29.11,29.11,0,0,1-7.53-7.9,18.32,18.32,0,0,1-2.4-9.45,18.63,18.63,0,0,1,3.89-12.12,16.55,16.55,0,0,1,11.24-5.8,21.3,21.3,0,0,1,2.47-.16,12.11,12.11,0,0,1,9,3.43c2.58,2.63,3.89,6.51,3.89,11.54v5.83l-10.82,1.32c.33.27.69.55,1.08.85a27.37,27.37,0,0,1,7.58,8,19.89,19.89,0,0,1,2.3,9.78c0,5-1.33,9.18-3.94,12.37A16.68,16.68,0,0,1,221,139.68a22.15,22.15,0,0,1-2.52.16Z" style="fill:#fff"/><path d="M223.26,82.7a10.14,10.14,0,0,1,7.56,2.83c2.2,2.24,3.32,5.65,3.32,10.14v4.06l-2,.24-7.22.89-2,.24V96.55c0-1.63-.35-2.18-.5-2.34a1.12,1.12,0,0,0-.92-.32l-.42,0c-.81.1-1.83.23-1.83,2.94a6.72,6.72,0,0,0,1.12,3.8,21.56,21.56,0,0,0,4.8,4.6,25.51,25.51,0,0,1,7.05,7.4,17.89,17.89,0,0,1,2,8.8c0,4.55-1.18,8.28-3.48,11.11a14.78,14.78,0,0,1-10,5.12,18.17,18.17,0,0,1-2.28.15,10.27,10.27,0,0,1-7.6-2.81c-2.23-2.24-3.36-5.65-3.36-10.14v-4.84l2-.24,7.23-.89,2-.24v5.4c0,2.22.7,2.58,1.43,2.58a5.09,5.09,0,0,0,.55,0,2,2,0,0,0,1.46-.66,4.24,4.24,0,0,0,.51-2.51,7.74,7.74,0,0,0-1.11-4.29,20.05,20.05,0,0,0-4.75-4.62,27.34,27.34,0,0,1-7-7.32,16.43,16.43,0,0,1-2.13-8.44,16.66,16.66,0,0,1,3.45-10.86A14.6,14.6,0,0,1,221,82.85a17.52,17.52,0,0,1,2.23-.15m0-4h0a21.26,21.26,0,0,0-2.71.18A18.48,18.48,0,0,0,208,85.39a20.58,20.58,0,0,0-4.35,13.39,20.46,20.46,0,0,0,2.68,10.47,26.76,26.76,0,0,0,5.37,6.26l-2.69.33-2,.24-3.51.43v8.38c0,5.59,1.52,10,4.52,13a14.13,14.13,0,0,0,10.44,4,21.91,21.91,0,0,0,2.76-.18,18.65,18.65,0,0,0,12.65-6.56c2.91-3.55,4.39-8.14,4.39-13.64a21.77,21.77,0,0,0-2.55-10.75,25.37,25.37,0,0,0-5.48-6.48l2.39-.29,2-.24,3.52-.43v-7.6c0-5.57-1.5-9.93-4.47-12.94a14,14,0,0,0-10.41-4Z"/><polygon points="238.93 79.34 267.75 75.8 267.75 90.91 254.55 92.53 254.55 97.52 265.04 96.23 265.04 111.35 254.55 112.64 254.55 119.74 267.75 118.12 267.75 133.23 238.93 136.77 238.93 79.34" style="fill:#fff"/><path d="M265.75,78.06V89.15l-2,.24-11.21,1.38v9l8.5-1,2-.24v11.08l-2,.24-8.5,1.05V122l11.21-1.38,2-.24v11.08l-2,.24-20.84,2.56-2,.25V81.11l2-.24,20.84-2.56,2-.25m4-4.52-4.49.55-2,.25L242.43,76.9l-2,.24-3.52.43V139l4.49-.55,2-.25,20.84-2.56,2-.24,3.51-.43V115.86l-4.49.55-2,.24-6.73.83V114.4l5-.61,2-.24,3.51-.43V94l-4.49.56-2,.24-4,.49v-1l7.7-.94,2-.24,3.51-.44V73.54Z"/><polygon points="77.47 199.53 66.78 168.06 83.26 166.03 85.55 173.72 87.84 165.47 103.92 163.49 93.08 198.08 93.08 222.25 77.47 224.17 77.47 199.53" style="fill:#fff"/><path d="M101.08,165.86l-.86,2.75-9.14,29.17v22.71l-2,.24-7.65.94-2,.24V199.2l-9.14-26.92-.86-2.54,2.74-.34,8.13-1,1.49-.19.42,1.4L85.62,181,89,168.79l.41-1.5,1.49-.18,7.44-.91,2.74-.34m5.68-4.73-6.16.76-2.75.34-7.43.91-1.49.18-2.65.33-.72,2.57-.07.27-.79-2.65-3.36.41-1.48.19-8.13,1-2.75.34-4.88.6L65.68,171l.86,2.54,8.93,26.29v26.57l4.49-.55,2-.24,7.64-.94,2-.24,3.51-.44V198.39l9-28.58.86-2.75,1.86-5.93Z"/><path d="M115.55,220.05a12.69,12.69,0,0,1-9.14-3.35c-2.75-2.64-4.14-6.53-4.14-11.56V179.19a18.65,18.65,0,0,1,4-12.25,16.8,16.8,0,0,1,11.37-5.83,20.65,20.65,0,0,1,2.55-.16,12.65,12.65,0,0,1,9.14,3.35c2.75,2.65,4.14,6.53,4.14,11.55v26a18.69,18.69,0,0,1-4,12.25,16.84,16.84,0,0,1-11.37,5.83,20.65,20.65,0,0,1-2.55.16Z" style="fill:#fff"/><path d="M120.17,163a10.76,10.76,0,0,1,7.76,2.79c2.33,2.25,3.52,5.66,3.52,10.11v26a16.75,16.75,0,0,1-3.52,11,14.9,14.9,0,0,1-10.07,5.12,18.63,18.63,0,0,1-2.31.15,10.75,10.75,0,0,1-7.75-2.79c-2.34-2.25-3.53-5.66-3.53-10.12V179.19a16.73,16.73,0,0,1,3.53-11,14.85,14.85,0,0,1,10.06-5.12,20.72,20.72,0,0,1,2.31-.14m-2.85,43.91a4.73,4.73,0,0,0,.54,0c.88-.11,2-.24,2-3.09V176.79c0-2.29-.71-2.66-1.44-2.66a3.29,3.29,0,0,0-.54.05c-.88.1-2,.24-2,3.09v26.94c0,2.29.7,2.65,1.43,2.65M120.17,159a24.72,24.72,0,0,0-2.8.17,18.78,18.78,0,0,0-12.66,6.54,20.65,20.65,0,0,0-4.44,13.53v25.95c0,5.59,1.6,10,4.75,13a14.64,14.64,0,0,0,10.53,3.91,22.66,22.66,0,0,0,2.8-.18A18.7,18.7,0,0,0,131,215.33a20.62,20.62,0,0,0,4.44-13.52v-26c0-5.58-1.6-9.95-4.75-13A14.6,14.6,0,0,0,120.17,159Z"/><path d="M149.69,215.86a12.47,12.47,0,0,1-9.05-3.35c-2.68-2.63-4-6.52-4-11.58V159.48l15.62-1.91,15.14-1.86v41.93c0,5-1.31,9.1-3.89,12.26a16.55,16.55,0,0,1-11.24,5.8A20.22,20.22,0,0,1,149.69,215.86Z" style="fill:#fff"/><path d="M165.35,158v39.67c0,4.5-1.16,8.2-3.44,11a14.6,14.6,0,0,1-9.94,5.07,18.17,18.17,0,0,1-2.28.15,10.5,10.5,0,0,1-7.65-2.78c-2.29-2.24-3.45-5.65-3.45-10.15V161.25l2-.24,7.64-.94,2-.24v40.24c0,1.59.34,2.1.49,2.25a1.24,1.24,0,0,0,1,.32l.42,0a1.91,1.91,0,0,0,1.42-.64,3.92,3.92,0,0,0,.49-2.37V159.36l2-.24,7.37-.91,2-.24m4-4.52-4.48.55-2,.24-7.36.91-2,.24-3.51.43-.3,0-2,.24-7.64.94-2,.24-3.52.43v43.22c0,5.62,1.57,10,4.65,13a14.4,14.4,0,0,0,10.45,3.92,22.18,22.18,0,0,0,2.77-.18A18.48,18.48,0,0,0,165,211.17c2.88-3.53,4.34-8.08,4.34-13.53V153.45Z"/><path d="M171.06,155.25l15.06-1.85a24.25,24.25,0,0,1,3-.19c3.63,0,6.54,1,8.63,2.85,2.61,2.37,3.94,6.09,3.94,11.06v3a17.48,17.48,0,0,1-2.63,9.89,9.18,9.18,0,0,1,1.19,1.93,20.13,20.13,0,0,1,1.5,8.48v8.67a28.39,28.39,0,0,0,.12,3,4.17,4.17,0,0,0,.36,1.27l2.4,5.18-16.55,2-1-2.78q-.23-.63-.39-1.23v4.18l-15.61,1.92Z" style="fill:#fff"/><path d="M189.1,155.21c3.13,0,5.58.78,7.29,2.33,2.18,2,3.29,5.2,3.29,9.58v3c0,4.92-1.48,8.06-3.29,10.07a6.93,6.93,0,0,1,2,2.59,18.35,18.35,0,0,1,1.31,7.64v8.67c0,1.34,0,2.41.13,3.19a6,6,0,0,0,.54,1.91l1.24,2.68-3.06.37-7.78,1-1.4.17-.47-1.29a12.75,12.75,0,0,1-.65-2.57,33.57,33.57,0,0,1-.16-4.06v-9c0-2.47-.48-3.21-.63-3.37a1.82,1.82,0,0,0-1.37-.39,6.19,6.19,0,0,0-.81.06l-.65.08V209l-2,.25-7.64.94-2,.24V157l2-.24,11.33-1.39a22.05,22.05,0,0,1,2.73-.18m-4.43,21.54.79-.09a3.09,3.09,0,0,0,2-.84,4.28,4.28,0,0,0,.58-2.69v-3.81c0-1.78-.35-2.38-.5-2.56a1.21,1.21,0,0,0-.93-.3,2.71,2.71,0,0,0-.47,0l-1.49.18v10.07m4.43-25.54a26.07,26.07,0,0,0-3.22.21l-11.33,1.39-2,.24-3.51.43v61.46l4.48-.55,2-.24,7.64-.94,2-.25,1.57-.19h0l3.16-.39,1.41-.17,7.78-1,3.06-.37,5.45-.67-2.31-5L204,202.54a2,2,0,0,1-.19-.64,25.89,25.89,0,0,1-.11-2.77v-8.67a22.14,22.14,0,0,0-1.68-9.32,12.73,12.73,0,0,0-.62-1.16,20.38,20.38,0,0,0,2.24-9.82v-3c0-5.56-1.55-9.78-4.6-12.54-2.47-2.24-5.83-3.37-10-3.37Z"/><polygon points="220.47 149.19 265.9 143.61 260.17 201.74 226.21 205.91 220.47 149.19" style="fill:#fff"/><path d="M263.67,145.9l-.22,2.24-4.94,50-.18,1.83-1.79.22L247,201.34l-1.79.22-.18-1.78-1.57-14.85-1.57,15.23-.19,1.83-1.79.22-10.14,1.24-1.8.22-.18-1.79-4.93-48.76-.22-2.19,2.2-.27,7.36-.9,1.81-.23.17,1.82,1.55,17.12,1.65-17.53.17-1.84,1.81-.22,8.33-1,1.81-.23.17,1.8,1.65,17.13,1.55-17.51.17-1.85,1.81-.22,6.6-.81,2.2-.27m4.47-4.58-5,.61-2.2.27-6.6.81-1.81.22-1.44.18-2.1.25-1.8.22-8.34,1-1.25.15h0l-4.09.5-1.82.23-7.36.9-2.2.27-3.88.48.39,3.89.22,2.2,4.93,48.76.18,1.79.42,4.06,4-.5,1.8-.22,10.14-1.24,1.26-.16h0l4-.49,1.79-.22,9.52-1.17,1.79-.22,3.18-.39.31-3.19.18-1.83,4.94-50,.22-2.24.49-5Z"/><polygon points="267.63 143.4 296.44 139.86 296.44 154.97 283.24 156.59 283.24 161.58 293.73 160.29 293.73 175.4 283.24 176.69 283.24 183.79 296.44 182.17 296.44 197.28 267.63 200.82 267.63 143.4" style="fill:#fff"/><path d="M294.44,142.12V153.2l-2,.24-11.22,1.38v9l8.51-1.05,2-.24v11.08l-2,.25-8.51,1v11.13l11.22-1.37,2-.25v11.09l-2,.24-20.85,2.56-2,.24v-53.4l2-.24,20.85-2.56,2-.24m4-4.52-4.48.55-2,.24L271.13,141l-2,.24-3.51.44v61.45l4.49-.55,2-.24L293,199.73l2-.24,3.51-.44V179.91l-4.48.55-2,.25-6.73.82v-3.07l5-.61,2-.25,3.51-.43V158l-4.49.55-2,.24-4,.5v-1l7.71-1,2-.24,3.51-.43V137.6Z"/><polygon points="305.56 138.74 322.69 136.63 331.91 192.93 316.2 194.86 314.83 185.37 313.03 185.59 311.64 195.42 296.35 197.3 305.56 138.74" style="fill:#fff"/><path d="M321,138.85l.27,1.66,7.92,48.4.38,2.29-2.33.29-7.65.93-1.72.22-.24-1.7-1.13-7.8-5.27.65-1.14,8.08-.24,1.75-1.72.21-7.09.87-2.33.29.37-2.39L307,142.26l.27-1.72,1.69-.21,10.35-1.27,1.69-.21m-8.3,34,2.31-.29-1.16-8.23-1.15,8.52m11.63-38.47-3.82.47-1.68.21-10.35,1.27-1.69.21-3,.37-.47,3-.27,1.72L295.16,192l-.37,2.39L294,199.6l5.26-.64,2.34-.29,7.09-.87,1.71-.21,3.05-.37.43-3,.12-.87.54,3.77,3.89-.47,1.72-.22,7.64-.93,2.34-.29,4.13-.51-.67-4.11-.38-2.29-7.92-48.4-.27-1.65-.62-3.8Z"/><path d="M333.21,135.34l15-1.84a22.63,22.63,0,0,1,2.66-.17,12.44,12.44,0,0,1,9,3.23c2.65,2.57,4,6.43,4,11.5v4.87c0,5-1.29,9.07-3.83,12.15s-6.35,5.06-11.17,5.67v20.1l-15.62,1.92Z" style="fill:#fff"/><path d="M350.87,135.33a10.51,10.51,0,0,1,7.58,2.67c2.25,2.17,3.38,5.56,3.38,10.06v4.87c0,4.5-1.13,8.16-3.38,10.88s-5.64,4.44-10,5l-1.62.2v20.1l-2,.25-7.64.94-2,.24v-53.4l2-.24,11.25-1.38a18.77,18.77,0,0,1,2.42-.16m-4,22.57,1.62-.2a2,2,0,0,0,1.34-.55,4,4,0,0,0,.43-2.31V149c0-1.68-.36-2.12-.43-2.2a1.21,1.21,0,0,0-.87-.25l-.47,0-1.62.2V157.9m4-26.57a22.63,22.63,0,0,0-2.9.19l-11.26,1.38-2,.24-3.52.43V195l4.49-.55,2-.24,7.64-.94,2-.25,3.52-.43V172.45a17.92,17.92,0,0,0,10.71-6.09c2.85-3.46,4.29-8,4.29-13.43v-4.87c0-5.63-1.54-10-4.6-12.93a14.32,14.32,0,0,0-10.36-3.8Z"/><path d="M379,187.7a12.72,12.72,0,0,1-9.14-3.35c-2.74-2.64-4.13-6.53-4.13-11.55v-26a18.65,18.65,0,0,1,4-12.25,16.78,16.78,0,0,1,11.36-5.83,20.69,20.69,0,0,1,2.56-.16,12.7,12.7,0,0,1,9.14,3.35c2.75,2.65,4.14,6.53,4.14,11.55v26a18.64,18.64,0,0,1-4,12.25,16.78,16.78,0,0,1-11.36,5.83,20.69,20.69,0,0,1-2.56.16Z" style="fill:#fff"/><path d="M383.63,130.6a10.72,10.72,0,0,1,7.75,2.79c2.34,2.26,3.53,5.66,3.53,10.11v26a16.73,16.73,0,0,1-3.53,11,14.87,14.87,0,0,1-10.06,5.11,18.92,18.92,0,0,1-2.32.15,10.72,10.72,0,0,1-7.75-2.79c-2.34-2.25-3.52-5.66-3.52-10.12V146.84a16.72,16.72,0,0,1,3.52-11,14.89,14.89,0,0,1,10.07-5.11,18.63,18.63,0,0,1,2.31-.15m-2.85,43.92a4.93,4.93,0,0,0,.54-.05c.88-.11,2-.24,2-3.09V144.44c0-2.29-.7-2.66-1.43-2.66a4.71,4.71,0,0,0-.54.05c-.88.11-2,.24-2,3.09v26.94c0,2.29.71,2.66,1.44,2.66m2.85-47.92a22.66,22.66,0,0,0-2.8.18,18.73,18.73,0,0,0-12.66,6.53c-2.95,3.57-4.44,8.12-4.44,13.53v25.95c0,5.59,1.6,10,4.75,13A14.56,14.56,0,0,0,379,189.7a22.94,22.94,0,0,0,2.81-.18A18.69,18.69,0,0,0,394.46,183a20.62,20.62,0,0,0,4.45-13.53v-26c0-5.58-1.6-9.95-4.75-13a14.6,14.6,0,0,0-10.53-3.91Z"/><polygon points="400.33 127.1 416.94 125.06 417.49 127.18 417.49 124.99 432.27 123.18 432.27 180.61 417.41 182.43 415.11 173.69 415.11 182.72 400.33 184.53 400.33 127.1" style="fill:#fff"/><path d="M430.27,125.44v53.4l-2,.24-7.85,1-1.53.18-.39-1.46-5.4-20.57V181l-2,.24-6.81.83-2,.25v-53.4l2-.24,9.59-1.18,1.54-.19.39,1.47,3.66,14.12V126.76l2-.24,6.8-.84,2-.24m4-4.52-4.49.55-2,.24-6.81.84-2,.24-3.51.43-.53.07-1.54.19-9.59,1.18-2,.24-3.51.43v61.46l4.49-.55,2-.24,6.81-.84,2-.24,2.91-.36,2.87-.36,1.54-.18,7.85-1,2-.24,3.51-.43V120.92Z"/></g></svg>