<?xml version="1.0" encoding="utf-8"?>
<!-- Generator: Adobe Illustrator 23.0.4, SVG Export Plug-In . SVG Version: 6.00 Build 0)  -->
<svg version="1.1" id="chrome" xmlns="http://www.w3.org/2000/svg" xmlns:xlink="http://www.w3.org/1999/xlink" x="0px" y="0px"
	 viewBox="0 0 512 512" style="enable-background:new 0 0 512 512;" xml:space="preserve">
<style type="text/css">
	.st0{fill:#FFFFFF;}
</style>
<path class="st0" d="M384,34.4C324.8,0.2,255.8-8.9,189.8,8.8c-66.1,17.7-121.3,60-155.5,119.3C-36.3,250.3,5.8,407.2,128,477.8
	C168.2,501,212.2,512,255.6,512c88.5,0,174.8-45.9,222.1-127.9C548.3,261.9,506.2,105,384,34.4z M198.1,39.7
	c19.3-5.2,38.9-7.7,58.3-7.7c38.8,0,77.2,10.1,111.6,30.1c35.3,20.4,62.9,49,81.9,82H256v0c-38.7,0.1-76.3,20.1-97,56
	c-5.2,9-9,18.5-11.5,28.1L82.1,114.9C111.6,78.4,151.8,52.1,198.1,39.7z M296,186.8c18.5,10.7,31.7,27.9,37.2,48.6
	c5.5,20.6,2.7,42.2-8,60.7l0,0l-0.1,0.2c-10.7,18.4-27.9,31.6-48.5,37.1c-20.7,5.5-42.2,2.7-60.7-8c-38.2-22.1-51.3-71.1-29.3-109.3
	c10.7-18.5,27.9-31.7,48.6-37.3c6.8-1.8,13.8-2.7,20.7-2.7v0h2C271.3,176.4,284.3,180,296,186.8z M62,144.1l97,168l0,0
	c9.5,16.5,23.3,30.8,41,41c17.6,10.2,36.8,15,55.8,15c10.3,0,20.5-1.4,30.3-4.2l-65.4,113.4c-26.3-4.2-52.3-13.1-76.7-27.2
	C37.1,388.3,0.3,251.1,62,144.1z M450,368.1C408.6,439.7,333.4,479.9,256.1,480l96.9-168l0,0c15-25.9,18.9-56.1,11.2-85
	c-5.3-19.7-15.5-37.1-29.7-51h130.6C488.3,237,485,307.4,450,368.1z"/>
</svg>
