<svg id="Layer_1" data-name="Layer 1" xmlns="http://www.w3.org/2000/svg" xmlns:xlink="http://www.w3.org/1999/xlink" viewBox="0 0 282.61 182.61"><defs><linearGradient id="linear-gradient" x1="25.63" y1="91.3" x2="256.98" y2="91.3" gradientUnits="userSpaceOnUse"><stop offset="0" stop-color="#d83327"/><stop offset="1" stop-color="#94322a"/></linearGradient></defs><title>correct</title><path d="M252.54,44.44l-4.5.5-2,.19H246L222.44,48l-2,.19h0l-3.5.4-3.55.4v1.5a19.71,19.71,0,0,0-7.1-1.23,27,27,0,0,0-3.14.23A24.06,24.06,0,0,0,194.83,52V50.64l-4.53.61-4.43.59-1.94.19h-.09l-20.76,2.6-2,.19h0l-3.5.4-3.55.4v3a21.61,21.61,0,0,0-8.4-1.56c-1.18,0-2.39.12-3.56.22h-.13l-11.25,1.39-2,.19h0l-3.5.4-3.55.41v2.88a21.43,21.43,0,0,0-8.4-1.56c-1.18,0-2.39.11-3.56.22h-.13l-11.25,1.4-2,.19h0l-3.5.4-3.55.4v2.84a20.13,20.13,0,0,0-9.3-2.12,27.33,27.33,0,0,0-2.93.2l-.27,0h-.11a23.39,23.39,0,0,0-14.93,7.52A17.82,17.82,0,0,0,49,67.46a27,27,0,0,0-3.14.23,21.72,21.72,0,0,0-15.07,8c-3.44,4.18-5.19,9.5-5.19,15.81V118c0,6.54,1.94,11.8,5.77,15.63,3.37,3.37,7.82,5.07,13.23,5.07a29.37,29.37,0,0,0,3.14-.22A21.78,21.78,0,0,0,62.5,130.9a18.51,18.51,0,0,0,12.83,4.61,27.39,27.39,0,0,0,2.93-.19l.27,0h.12a24.88,24.88,0,0,0,10.58-3.77v1.72l4.53-.6L98.2,132l1.93-.2h.07l7.56-.9,2-.2h.1l1.6-.2,3.2-.4h.07l1.37-.19,5.56-.72v0l4.53-.57,4.44-.59,1.93-.19h.07l7.57-.9,2-.19h.1l1.6-.2,3.2-.4h.07l1.37-.19,7.77-1,3.1-.4,5.5-.7,5.41-.69,0-.05,15.56-1.94,1.95-.2h.06l3.5-.4,3.54-.41v-.82a20.61,20.61,0,0,0,7,1.15,29.37,29.37,0,0,0,3.14-.22,21.75,21.75,0,0,0,15.08-8,19.81,19.81,0,0,0,1.28-1.73v7l4.53-.6,4.44-.59,1.93-.2h.07l7.57-.9,2-.2h.06l3.5-.4,3.54-.41V72l.9-.09h.06l3.5-.4,3.54-.41V43.94Z" style="fill:url(#linear-gradient)"/><path d="M44.53,132.56a12.48,12.48,0,0,1-9-3.3c-2.7-2.6-4-6.4-4-11.3V91.46c0-4.8,1.3-8.9,3.9-12a16.05,16.05,0,0,1,11.1-5.7,22.86,22.86,0,0,1,2.5-.2,12.48,12.48,0,0,1,9,3.3c2.7,2.6,4,6.4,4,11.3v9L47.13,99v6.3l14.9-1.8v11.3c0,4.8-1.3,8.9-3.9,12a16.55,16.55,0,0,1-11.1,5.8Z" style="fill:#fff"/><path d="M49,75.46a10.19,10.19,0,0,1,7.6,2.8c2.3,2.2,3.4,5.5,3.4,9.9v7.2l-2,.2-7.2.9-2,.2V89c0-2-.6-2.4-1.3-2.4H47c-.9.1-1.8.2-1.8,2.8V117c0,2,.6,2.3,1.3,2.3h.6c.9-.1,1.8-.2,1.8-2.7v-9.5l2-.2,7.2-.9,2-.2v9c0,4.4-1.1,8-3.4,10.7a14.38,14.38,0,0,1-9.8,5,17.7,17.7,0,0,1-2.3.1,10.19,10.19,0,0,1-7.6-2.8c-2.3-2.2-3.4-5.5-3.4-9.9V91.36c0-4.4,1.1-8,3.4-10.7a14.38,14.38,0,0,1,9.8-5,16.35,16.35,0,0,1,2.2-.2m0-4a24.52,24.52,0,0,0-2.7.2c-5.3.6-9.5,2.8-12.4,6.5-2.9,3.5-4.3,8-4.3,13.3V118c0,5.5,1.6,9.8,4.6,12.8,2.6,2.6,6.1,3.9,10.4,3.9a24.52,24.52,0,0,0,2.7-.2c5.3-.6,9.5-2.8,12.4-6.5,2.9-3.5,4.3-8,4.3-13.3v-13.5l-4.5.6-2,.2-7.2.9-1.2.1v-2.2h.2l2-.2,7.2-.9,2-.2,3.5-.4V88.36c0-5.5-1.6-9.8-4.6-12.8A13.79,13.79,0,0,0,49,71.46Zm.2,17.5Z" style="fill:#010101"/><path d="M75.33,130.51a12.22,12.22,0,0,1-9.1-3.4c-2.7-2.6-4.1-6.5-4.1-11.6v-26c0-4.9,1.3-9.1,4-12.3s6.5-5.2,11.4-5.8a22.75,22.75,0,0,1,2.6-.2,12.22,12.22,0,0,1,9.1,3.4c2.7,2.6,4.1,6.5,4.1,11.6v26c0,4.9-1.3,9.1-4,12.3s-6.5,5.2-11.4,5.8a24.62,24.62,0,0,1-2.6.2Z" style="fill:#fff"/><path d="M79.93,72.41a10.83,10.83,0,0,1,7.8,2.8c2.3,2.3,3.5,5.7,3.5,10.1v26a16.86,16.86,0,0,1-3.5,11,14.77,14.77,0,0,1-10.1,5.1,18.48,18.48,0,0,1-2.3.1,10.83,10.83,0,0,1-7.8-2.8c-2.3-2.3-3.5-5.7-3.5-10.1v-26a16.86,16.86,0,0,1,3.5-11,14.77,14.77,0,0,1,10.1-5.1,18.48,18.48,0,0,1,2.3-.1m-2.8,43.9h.5c.9-.1,2-.2,2-3.1V86.31c0-2.3-.7-2.7-1.4-2.7h-.5c-.9.1-2,.2-2,3.1v26.9c0,2.3.7,2.7,1.4,2.7m2.8-47.9c-.9,0-1.8.1-2.8.2a19.35,19.35,0,0,0-12.7,6.5A20.86,20.86,0,0,0,60,88.61v26c0,5.6,1.6,10,4.8,13a14.51,14.51,0,0,0,10.5,3.9c.9,0,1.8-.1,2.8-.2a19.35,19.35,0,0,0,12.7-6.5,20.86,20.86,0,0,0,4.4-13.5v-26c0-5.6-1.6-10-4.7-13a14.75,14.75,0,0,0-10.6-3.9Z" style="fill:#010101"/><path d="M95.23,69.06l15.1-1.9c1-.1,2-.2,3-.2a12.88,12.88,0,0,1,8.6,2.8q3.9,3.6,3.9,11.1v3a17.76,17.76,0,0,1-2.6,9.9,7.61,7.61,0,0,1,1.2,1.9,20.55,20.55,0,0,1,1.5,8.5v8.7a24.51,24.51,0,0,0,.1,3,3.26,3.26,0,0,0,.4,1.3l2.4,5.2-16.6,2-1-2.8c-.1-.4-.3-.8-.4-1.2v4.2l-15.6,1.9V69.06Z" style="fill:#fff"/><path d="M113.23,69.06a10.82,10.82,0,0,1,7.3,2.3q3.3,3,3.3,9.6v3c0,4.9-1.5,8.1-3.3,10.1a6.5,6.5,0,0,1,2,2.6,17.91,17.91,0,0,1,1.3,7.6V113a29.19,29.19,0,0,0,.1,3.2,5.92,5.92,0,0,0,.5,1.9l1.2,2.7-3.1.4-7.8,1-1.4.2-.5-1.3c-.3-.9-.5-1.8-.7-2.6a33.82,33.82,0,0,1-.2-4.1v-9c0-2.5-.5-3.2-.6-3.4s-.7-.4-1.4-.4a2.49,2.49,0,0,0-.8.1l-.7.1v21.1l-2,.2-7.6.9-2,.2V70.76l2-.2,11.3-1.4c1.3-.1,2.3-.1,3.1-.1m-4.4,21.5.8-.1a3.11,3.11,0,0,0,2-.8c.2-.2.6-.9.6-2.7v-3.8a4.82,4.82,0,0,0-.5-2.6,1.22,1.22,0,0,0-.9-.3h-.5l-1.5.2v10.1m4.4-25.5c-1,0-2.1.1-3.2.2l-11.3,1.4-2,.2-3.5.4v61.4l4.5-.6,2-.2,7.6-.9,2-.2,1.6-.2h0l3.2-.4,1.4-.2,7.8-1,3.1-.4,5.5-.7-2.3-5-1.2-2.7a1.42,1.42,0,0,1-.2-.6c0-.4-.1-1.3-.1-2.8v-8.7a22.4,22.4,0,0,0-1.7-9.3l-.6-1.2a20,20,0,0,0,2.2-9.8v-3c0-5.6-1.5-9.8-4.6-12.5a15.94,15.94,0,0,0-10.2-3.2Z" style="fill:#010101"/><path d="M127.63,65.1l15.1-1.9c1-.1,2-.2,3-.2a12.88,12.88,0,0,1,8.6,2.8q3.9,3.6,3.9,11.1v3a17.76,17.76,0,0,1-2.6,9.9,7.61,7.61,0,0,1,1.2,1.9,20.55,20.55,0,0,1,1.5,8.5v8.7a24.51,24.51,0,0,0,.1,3,3.26,3.26,0,0,0,.4,1.3l2.4,5.2-16.6,2-1-2.8c-.1-.4-.3-.8-.4-1.2v4.2l-15.6,1.9V65.1Z" style="fill:#fff"/><path d="M145.63,65.1a10.82,10.82,0,0,1,7.3,2.3q3.3,3,3.3,9.6v3c0,4.9-1.5,8.1-3.3,10.1a6.5,6.5,0,0,1,2,2.6,17.93,17.93,0,0,1,1.3,7.61V109a29.09,29.09,0,0,0,.1,3.2,5.92,5.92,0,0,0,.5,1.9l1.2,2.7-3.1.4-7.8,1-1.4.2-.5-1.3c-.3-.9-.5-1.8-.7-2.6a33.82,33.82,0,0,1-.2-4.1v-9c0-2.5-.5-3.2-.6-3.4s-.7-.4-1.4-.4a2.49,2.49,0,0,0-.8.1l-.7.1v21.1l-2,.2-7.6.9-2,.2V66.8l2-.2,11.3-1.4c1.3-.1,2.3-.1,3.1-.1m-4.4,21.5.8-.1a3.11,3.11,0,0,0,2-.8c.2-.2.6-.9.6-2.7V79.2a4.82,4.82,0,0,0-.5-2.6,1.22,1.22,0,0,0-.9-.3h-.5l-1.5.2V86.6m4.4-25.5c-1,0-2.1.1-3.2.2l-11.3,1.4-2,.2-3.5.4v61.4l4.5-.6,2-.2,7.6-.9,2-.2,1.6-.2h0l3.2-.4,1.4-.2,7.8-1,3.1-.39,5.5-.7-2.3-5-1.2-2.7a1.42,1.42,0,0,1-.2-.6c0-.4-.1-1.3-.1-2.8v-8.7a22.4,22.4,0,0,0-1.7-9.3l-.6-1.2a20,20,0,0,0,2.2-9.8v-3c0-5.6-1.5-9.81-4.6-12.5a15.89,15.89,0,0,0-10.2-3.21Z" style="fill:#010101"/><polygon points="160.03 61.01 188.83 57.51 188.83 72.61 175.63 74.21 175.63 79.21 186.13 77.91 186.13 93.01 175.63 94.31 175.63 101.41 188.83 99.81 188.83 114.91 160.03 118.51 160.03 61.01" style="fill:#fff"/><path d="M186.83,59.71v11.1l-2,.2-11.2,1.4v9l8.5-1,2-.2v11.1l-2,.2-8.5,1v11.1l11.2-1.4,2-.2v11.1l-2,.2-20.8,2.6-2,.2V62.81l2-.2,20.8-2.6,2-.3m4-4.5-4.5.6-2,.2-20.8,2.6-2,.2-3.5.4v61.4l4.5-.6,2-.2,20.8-2.6,2-.2,3.5-.4V97.51l-4.5.6-2,.2-6.7.8V96l5-.6,2-.2,3.5-.4V75.71l-4.5.6-2,.2-4,.5V76l7.7-.9,2-.2,3.5-.4V55.21Z" style="fill:#010101"/><path d="M201.78,114.41a12.48,12.48,0,0,1-9-3.3c-2.7-2.6-4-6.4-4-11.3V73.31c0-4.8,1.3-8.9,3.9-12a16.05,16.05,0,0,1,11.1-5.7,22.86,22.86,0,0,1,2.5-.2,12.48,12.48,0,0,1,9,3.3c2.7,2.6,4,6.4,4,11.3v9l-14.9,1.8v6.3l14.9-1.8v11.3c0,4.8-1.3,8.9-3.9,12a16.55,16.55,0,0,1-11.1,5.8Z" style="fill:#fff"/><path d="M206.28,57.31a10.19,10.19,0,0,1,7.6,2.8c2.3,2.2,3.4,5.5,3.4,9.9v7.2l-2,.2-7.2.9-2,.2v-7.7c0-2-.6-2.4-1.3-2.4h-.5c-.9.1-1.8.2-1.8,2.8v27.6c0,2,.6,2.3,1.3,2.3h.6c.9-.1,1.8-.2,1.8-2.7v-9.5l2-.2,7.2-.9,2-.2v9c0,4.4-1.1,8-3.4,10.7a14.38,14.38,0,0,1-9.8,5,17.7,17.7,0,0,1-2.3.1,10.19,10.19,0,0,1-7.6-2.8c-2.3-2.2-3.4-5.5-3.4-9.9V73.21c0-4.4,1.1-8,3.4-10.7a14.38,14.38,0,0,1,9.8-5,16.35,16.35,0,0,1,2.2-.2m0-4a24.52,24.52,0,0,0-2.7.2c-5.3.6-9.5,2.8-12.4,6.5-2.9,3.5-4.3,8-4.3,13.3v26.5c0,5.5,1.6,9.8,4.6,12.8,2.6,2.6,6.1,3.9,10.4,3.9a24.52,24.52,0,0,0,2.7-.2c5.3-.6,9.5-2.8,12.4-6.5,2.9-3.5,4.3-8,4.3-13.3V83l-4.5.6-2,.2-7.2.9-1.2.1v-2.2h.2l2-.2,7.2-.9,2-.2,3.5-.4V70.21c0-5.5-1.6-9.8-4.6-12.8a13.79,13.79,0,0,0-10.4-4.1Zm.2,17.5Z" style="fill:#010101"/><polygon points="227.38 68.61 219.38 69.61 219.38 54.51 250.98 50.61 250.98 65.71 242.98 66.71 242.98 109.01 227.38 110.91 227.38 68.61" style="fill:#fff"/><path d="M249,52.91v11l-2,.2-6,.7v42.3l-2,.2-7.6.9-2,.2v-42l-6,.7-2,.2V56.21l2-.2,23.6-2.9,2-.2m4-4.5-4.5.5-2,.2L222.88,52l-2,.2-3.5.4v19.1l4.5-.6,2-.2,1.5-.2V113l4.5-.6,2-.2,7.6-.9,2-.2,3.5-.4V68.41l2.5-.3,2-.2,3.5-.4V48.41Z" style="fill:#010101"/></svg>