<svg id="Layer_1" data-name="Layer 1" xmlns="http://www.w3.org/2000/svg" viewBox="0 0 350.4 211.18"><title>distinction</title><path d="M53.2,128.52c-3.43,7.51-12.68,12.12-22.61,13.77-1.67-.68-2.51-1-4.19-1.67l-.9,2-7,0c1.43-5.13,3.28-10.48,5-15.27-1.88-1.09-2.83-1.62-4.71-2.67a81.36,81.36,0,0,1,16.82-4.61c8.79-1.32,15.53-.1,16.21,4a6.25,6.25,0,0,1-.76,3.68Zm-17-3.69c-.89.11-1.92.27-3,.5a131.06,131.06,0,0,0-4.31,12.8c6.54-1.85,14.94-5.8,14-11.17C42.56,125,40.28,124.29,36.18,124.83Z"/><path d="M63.68,139.53c-3.78.59-5.68.88-9.46,1.41,1.87-7.87,3.73-15.87,6.12-23.91a107.58,107.58,0,0,1,10.71-3C68.3,122.67,65.52,131.06,63.68,139.53Z"/><path d="M99.58,114.56c-4.93,1-17,3.5-16.71,5.77.06.41.63.77,1.67.64,7.36-.94,12.9,1.69,13,5,.27,8-13.49,12-22.07,13.44-2.25-2.26-3.38-3.36-5.63-5.53,2.71-.34,19.67-3.33,19.15-6.84-.12-.81-2-1-4.7-.66l-.77.92c-5.56,0-9.8-1.59-10.19-4.11-.22-1.36.74-3,3.29-4.92l-.9-1.22c4.45-3.74,9.73-5.84,16.54-7.3.74-.16,1.48-.32,2.27-.45C96.56,111.39,97.57,112.43,99.58,114.56Z"/><path d="M128.62,109c-4.59,1-9.74,2.47-14.78,4,2.64.22,4,.33,6.59.57-2.66,8-2.52,21.45-4.28,23.91-.74,1-7.1,2.25-10.23,2.92-.37-8.79,2.19-18.55,5.77-26.78-3.21,1-6.32,2-9.17,3-2.39-1.78-3.58-2.65-6-4.35,8.07-2.87,15.22-5,22.53-7l.63-1.37c2.59-.81,5.34-1.59,8-2.26,1.33-.33,2.61-.66,3.85-.94a48.23,48.23,0,0,1,2.11,7.27C132.08,108.18,130.4,108.57,128.62,109Z"/><path d="M139,130.28c-3.78,1-5.67,1.42-9.46,2.32,1.75-10.62,3.66-21.25,5.79-31.8a88.33,88.33,0,0,1,10.69-4.18C143.41,107.83,141.05,118.94,139,130.28Z"/><path d="M184.54,88.8c-3.11,10.84-6,21.59-6.88,32.88-3.6,1.62-5.4,2.41-9,3.95,0-1.79.06-3.6.14-5.42a53.94,53.94,0,0,1-10.31-14.81A126.3,126.3,0,0,0,156.14,127c-3.48,1.49-5.22,2.21-8.71,3.62.68-10.49,2-21.55,4.75-31.7a96.18,96.18,0,0,1,11.37-6.7c1.33,6.88,4,12,8.17,15.49a137.3,137.3,0,0,1,3.7-19.7C179.06,88.28,180.89,88.45,184.54,88.8Z"/><path d="M213.24,82.75c-8.46,5.62-17.87,14.09-17.37,24.83.13,2.85,2.56,3.59,5.53,2.86,2.82-.7,6.38-2.56,9.73-4.49-.14,3.23-.21,4.84-.36,8a21.45,21.45,0,0,1-10.13,5.64c-7.44,1.62-14.27-2.27-14.83-9.62-.89-11.67,6.93-22.24,15.51-29.65l1.57.74c1.79-1.55,2.69-2.33,4.48-3.9C209.71,79.38,210.89,80.49,213.24,82.75Z"/><path d="M240.19,76.56c-4.6,1.62-9.75,3.77-14.77,6.06,2.65.22,4,.34,6.62.59-2.45,11.29-.28,24.76-3.88,34.26-.5,1.32-7.08,3.61-10.2,4.76a193.05,193.05,0,0,1,5.31-38.65c-3.21,1.55-6.3,3.15-9.15,4.69-2.43-2.46-3.64-3.67-6.07-6a238.58,238.58,0,0,1,22.49-10.75c.25-.79.37-1.18.61-2,2.59-1.21,5.34-2.37,7.95-3.37,1.34-.51,2.62-1,3.86-1.42a88,88,0,0,1,2.23,10.2C243.65,75.33,242,75.93,240.19,76.56Z"/><path d="M251,106.21c-3.78,1.52-5.67,2.27-9.45,3.72,1.57-15.06,3.29-30.08,5.29-45.09a77,77,0,0,1,10.67-6.07C255,74.56,252.74,90.33,251,106.21Z"/><path d="M292.08,72l-1.79,1c-.53,10.76-4.7,24.22-15.62,27.85-8.31,2.77-14.22-4.74-15-14C258.6,74,263.85,56.6,277,50.78c8.44-3.76,13.9,2.51,15,13.74A48.41,48.41,0,0,1,292.08,72ZM277.2,62.33C272,64.4,269,71,267.81,80.86l1.81.2a16.75,16.75,0,0,0,0,3.47c.33,3.15,1.73,5.42,4.81,4.43,6-1.95,9-13.59,8.2-21.15C282.24,63.93,280.61,61,277.2,62.33Z"/><path d="M331.77,31.14a458.14,458.14,0,0,0-6.3,49.66c-3.59,2.6-5.38,3.88-9,6.39-.05-2.72,0-5.47,0-8.23a87.44,87.44,0,0,1-10.65-22.19c-1.43,11-1.67,22-1.92,33.07-3.46,2.46-5.2,3.66-8.66,6A476.67,476.67,0,0,1,299.43,47a94.21,94.21,0,0,1,11.3-10.43C312.2,47,315,54.65,319.24,59.83A269.23,269.23,0,0,1,322.59,30C326.26,30.43,328.09,30.65,331.77,31.14Z"/><path d="M53.61,130.9c-3.37,7.35-12.44,11.82-22.16,13.39-1.65-.67-2.47-1-4.12-1.66l-.88,1.94H19.6c1.4-5,3.21-10.29,4.94-15-1.85-1.08-2.77-1.61-4.62-2.65a79.37,79.37,0,0,1,16.49-4.43c8.62-1.23,15.23,0,15.89,4.05a6.11,6.11,0,0,1-.74,3.6Zm-16.69-3.74c-.87.11-1.89.26-2.94.48a128.55,128.55,0,0,0-4.22,12.55c6.41-1.78,14.64-5.61,13.75-10.88C43.18,127.33,40.94,126.67,36.92,127.16Z" style="fill:#da3228"/><path d="M63.89,141.77c-3.72.56-5.57.83-9.28,1.33,1.72-7.73,3.65-15.56,6-23.43a107.57,107.57,0,0,1,10.49-2.81C68.41,125.27,65.68,133.48,63.89,141.77Z" style="fill:#da3228"/><path d="M99.08,117.53c-4.84,1-16.72,3.31-16.38,5.54.06.4.61.76,1.63.63,7.22-.86,12.65,1.75,12.76,5,.26,7.85-13.22,11.64-21.63,13-2.22-2.22-3.32-3.31-5.53-5.45,2.66-.32,19.29-3.14,18.78-6.59-.12-.78-2-1-4.61-.67-.31.35-.46.53-.76.89-5.45,0-9.61-1.62-10-4.09-.21-1.34.73-2.95,3.23-4.8l-.88-1.21c4.36-3.63,9.53-5.65,16.21-7,.73-.14,1.45-.3,2.23-.42C96.12,114.41,97.1,115.44,99.08,117.53Z" style="fill:#da3228"/><path d="M127.55,112.3c-4.5,1-9.56,2.33-14.49,3.75,2.59.23,3.88.35,6.46.6-2.6,7.78-2.47,21-4.2,23.37-.72,1-7,2.15-10,2.79-.35-8.61,2.15-18.15,5.66-26.17-3.15,1-6.19,2-9,2.92-2.34-1.76-3.51-2.62-5.85-4.3,7.91-2.76,14.92-4.76,22.09-6.72.24-.54.36-.8.61-1.34,2.54-.77,5.24-1.51,7.8-2.14,1.31-.32,2.57-.64,3.78-.89a48.6,48.6,0,0,1,2.07,7.12C130.94,111.55,129.29,111.92,127.55,112.3Z" style="fill:#da3228"/><path d="M137.77,133.2c-3.71.91-5.57,1.35-9.27,2.2,1.67-10.37,3.45-20.78,5.67-31.05a86.39,86.39,0,0,1,10.48-4C142.17,111.26,139.71,122.17,137.77,133.2Z" style="fill:#da3228"/><path d="M182.37,93a135.06,135.06,0,0,0-6.74,32c-3.53,1.56-5.3,2.31-8.83,3.79,0-1.75.06-3.52.13-5.29A52.89,52.89,0,0,1,156.83,109a122.55,122.55,0,0,0-2.3,21c-3.41,1.43-5.12,2.12-8.54,3.48.67-10.24,1.93-21,4.66-31a95.29,95.29,0,0,1,11.14-6.45c1.31,6.74,3.94,11.74,8,15.2a132.68,132.68,0,0,1,3.63-19.2C177,92.48,178.79,92.66,182.37,93Z" style="fill:#da3228"/><path d="M210.51,87.36c-8.28,5.41-17.52,13.61-17,24.09.13,2.78,2.51,3.52,5.42,2.83s6.26-2.45,9.54-4.3l-.35,7.84a20.89,20.89,0,0,1-9.93,5.43c-7.3,1.52-14-2.32-14.54-9.5-.87-11.38,6.79-21.65,15.2-28.8l1.55.73c1.75-1.49,2.63-2.24,4.38-3.77C207.05,84.05,208.2,85.14,210.51,87.36Z" style="fill:#da3228"/><path d="M236.93,81.56c-4.51,1.54-9.55,3.6-14.48,5.78,2.6.24,3.9.37,6.5.63-2.41,11-.28,24.14-3.81,33.37-.49,1.28-6.94,3.46-10,4.56a214.2,214.2,0,0,1,5.21-37.64c-3.15,1.48-6.18,3-9,4.5-2.39-2.42-3.58-3.61-6-5.94a231.82,231.82,0,0,1,22.06-10.29c.23-.77.35-1.15.59-1.92,2.54-1.16,5.23-2.27,7.8-3.23,1.3-.48,2.56-.95,3.78-1.34a88.48,88.48,0,0,1,2.19,10C240.32,80.4,238.67,81,236.93,81.56Z" style="fill:#da3228"/><path d="M247.52,110.54c-3.7,1.45-5.56,2.16-9.26,3.55,1.48-14.66,3.14-29.3,5.18-43.89a74.57,74.57,0,0,1,10.46-5.82C251.43,79.74,249.24,95.08,247.52,110.54Z" style="fill:#da3228"/><path d="M287.81,77.55l-1.76,1c-.51,10.47-4.63,23.55-15.32,27-8.15,2.62-13.93-4.73-14.69-13.78-1.05-12.5,4.11-29.44,16.93-35,8.27-3.57,13.62,2.57,14.72,13.51A48.37,48.37,0,0,1,287.81,77.55ZM273.22,68c-5.14,2-8.05,8.36-9.21,18l1.78.22a15.8,15.8,0,0,0,0,3.37c.32,3.08,1.7,5.29,4.71,4.35,5.92-1.84,8.79-13.15,8.05-20.52C278.16,69.62,276.56,66.74,273.22,68Z" style="fill:#da3228"/><path d="M326.72,38.16a439.8,439.8,0,0,0-6.18,48.25c-3.52,2.5-5.27,3.72-8.79,6.13-.05-2.64,0-5.32,0-8a85.77,85.77,0,0,1-10.43-21.67A252.24,252.24,0,0,0,299.46,95c-3.39,2.36-5.09,3.52-8.49,5.8.81-15.94,2.13-31.72,4-47.57a92,92,0,0,1,11.08-10c1.44,10.18,4.18,17.68,8.34,22.75a260.86,260.86,0,0,1,3.28-29C321.31,37.41,323.11,37.65,326.72,38.16Z" style="fill:#da3228"/></svg>