<?xml version="1.0" encoding="utf-8"?>
<!-- Generator: Adobe Illustrator 23.0.1, SVG Export Plug-In . SVG Version: 6.00 Build 0)  -->
<svg version="1.1" id="Layer_1" xmlns="http://www.w3.org/2000/svg" xmlns:xlink="http://www.w3.org/1999/xlink" x="0px" y="0px"
	 viewBox="0 0 497.7 300" style="enable-background:new 0 0 497.7 300;" xml:space="preserve">
<style type="text/css">
	.st0{fill:url(#SVGID_1_);}
	.st1{fill:#FFFFFF;}
</style>
<title>actors</title>
<linearGradient id="SVGID_1_" gradientUnits="userSpaceOnUse" x1="170.0479" y1="149.985" x2="327.6821" y2="149.985">
	<stop  offset="0.1" style="stop-color:#DA3228"/>
	<stop  offset="1" style="stop-color:#8F3029"/>
</linearGradient>
<path class="st0" d="M324.3,100.4l-79.7,9.8l-2.6,0.3v2c-2.6-1-5.6-1.5-8.7-1.5c-1.2,0-2.5,0.1-3.8,0.2c-7.4,0.9-13.4,4-17.6,9.2
	c0,0,0,0.1-0.1,0.1c-3.8-2.9-8.4-4.3-13.8-4.3c-1.3,0-2.6,0.1-4,0.2l-21.3,2.6l-2.6,0.3v2.7v74.6v3.4l3.4-0.4l23.4-2.9
	c7.1-0.9,12.8-3.7,17-8.3c3.9,3.3,9,5,14.7,5c1.2,0,2.5-0.1,3.9-0.2c3.5-0.4,6.8-1.4,9.6-2.8v0.8l3.4-0.4l79.7-9.8l2.6-0.3V178
	v-26.2v-3.4l-3.1,0.4v-16.1l0.5-0.1l2.6-0.3v-2.7v-26.2V100L324.3,100.4z"/>
<g>
	<g>
		<path class="st1" d="M195.1,126.4l-15.1,1.9v60.5l15.6-1.9c4.8-0.6,8.6-2.4,11.1-5.5c2.5-3,3.7-7,3.7-12.1v-28.5
			c0-5.1-1.3-9-3.9-11.4C203.9,126.7,200.1,125.8,195.1,126.4z M197.7,141.4v29.3c0,1.8-0.4,2.7-0.7,3.1c-0.3,0.3-0.8,0.8-2,1
			l-2.2,0.3v-36.3l2.7-0.3c1.2-0.1,1.5,0.2,1.6,0.3C197.2,138.9,197.7,139.4,197.7,141.4z"/>
		<path d="M197.9,126.2c3.6,0,6.6,1,8.7,3.1c2.6,2.5,3.9,6.3,3.9,11.4v28.5c0,5-1.2,9.1-3.7,12.1c-2.5,3-6.2,4.9-11.1,5.5l-15.6,1.9
			v-60.5l15.1-1.9C196.1,126.2,197,126.2,197.9,126.2 M192.8,175l2.2-0.3c1.2-0.1,1.7-0.6,2-1c0.3-0.4,0.7-1.3,0.7-3.1v-29.3
			c0-1.9-0.4-2.5-0.6-2.6c-0.1-0.1-0.4-0.3-1.1-0.3c-0.2,0-0.3,0-0.5,0l-2.7,0.3V175 M197.9,121.2c-1.1,0-2.2,0.1-3.3,0.2l-15.1,1.9
			l-4.4,0.5v4.4v60.5v5.7l5.6-0.7l15.6-1.9c6.2-0.8,11-3.2,14.3-7.2c3.2-3.9,4.9-9,4.9-15.3v-28.5c0-6.5-1.8-11.6-5.4-15
			C206.9,122.7,202.9,121.2,197.9,121.2L197.9,121.2z"/>
	</g>
	<g>
		<path class="st1" d="M230.6,121.2c-4.8,0.6-8.5,2.5-11.1,5.6c-2.6,3.1-3.9,7.2-3.9,12.2v29.7c0,5.1,1.4,8.9,4,11.5
			c2.2,2.1,5.2,3.2,8.9,3.2c0.8,0,1.7-0.1,2.6-0.2c4.8-0.6,8.5-2.5,11.1-5.6c2.6-3.1,3.9-7.2,3.9-12.2v-29.7c0-5.1-1.4-8.9-4-11.5
			C239.4,121.6,235.5,120.6,230.6,121.2z M233.4,136.2V167c0,3.3-1.3,4-2.8,4.1c-0.5,0.1-1.2,0.1-1.6-0.3c-0.4-0.4-0.7-1.4-0.7-2.8
			v-30.8c0-3.3,1.3-4,2.8-4.1c0.2,0,0.4,0,0.5,0c0.4,0,0.8,0.1,1.1,0.3C233.2,133.9,233.4,134.9,233.4,136.2z"/>
		<path d="M233.2,121c3.7,0,6.6,1.1,8.9,3.2c2.7,2.6,4,6.4,4,11.5v29.7c0,5-1.3,9.1-3.9,12.2c-2.6,3.1-6.4,5-11.1,5.6
			c-0.9,0.1-1.8,0.2-2.6,0.2c-3.7,0-6.6-1.1-8.9-3.2c-2.7-2.6-4-6.4-4-11.5V139c0-5,1.3-9.1,3.9-12.2c2.6-3.1,6.3-5,11.1-5.6
			C231.5,121.1,232.4,121,233.2,121 M230.1,171.2c0.2,0,0.4,0,0.5,0c1.4-0.2,2.8-0.8,2.8-4.1v-30.8c0-1.4-0.3-2.4-0.7-2.8
			c-0.3-0.2-0.7-0.3-1.1-0.3c-0.2,0-0.4,0-0.5,0c-1.4,0.2-2.8,0.8-2.8,4.1v30.8c0,1.4,0.3,2.4,0.7,2.8
			C229.3,171.1,229.7,171.2,230.1,171.2 M233.2,116c-1,0-2.1,0.1-3.2,0.2c-6.1,0.8-10.9,3.2-14.4,7.4c-3.3,4-5,9.2-5,15.4v29.7
			c0,6.5,1.9,11.6,5.6,15.1c3.2,3.1,7.3,4.6,12.3,4.6c1,0,2.1-0.1,3.2-0.2c6.1-0.8,10.9-3.2,14.4-7.4c3.3-4,5-9.2,5-15.4v-29.7
			c0-6.5-1.9-11.5-5.6-15.1C242.4,117.6,238.3,116,233.2,116L233.2,116z M228.4,167.7C228.4,167.7,228.4,167.7,228.4,167.7
			L228.4,167.7z"/>
	</g>
	<g>
		<polygon class="st1" points="271.6,137.5 266.4,117.6 252,119.4 252,179.8 263.8,178.4 263.8,150.3 270.9,177.5 283.4,176 
			283.4,115.5 271.6,117 		"/>
		<path d="M283.4,115.5V176l-12.5,1.5l-7.1-27.2v28.1l-11.8,1.4v-60.5l14.5-1.8l5.2,19.9V117L283.4,115.5 M288.4,109.9l-5.6,0.7
			L271,112l-4.4,0.5v0l-0.8,0.1l-14.5,1.8L247,115v4.4v60.5v5.7l5.6-0.7l11.8-1.4l4.4-0.5v0l2.8-0.3l12.5-1.5l4.4-0.5V176v-60.5
			V109.9L288.4,109.9z"/>
	</g>
	<g>
		<polygon class="st1" points="317.7,123.4 317.7,111.3 289.9,114.7 289.9,175.2 317.7,171.8 317.7,159.7 302.6,161.5 302.6,148.2 
			314.6,146.8 314.6,134.7 302.6,136.1 302.6,125.3 		"/>
		<path d="M317.7,111.3v12.1l-15.1,1.9v10.9l12-1.5v12.1l-12,1.5v13.3l15.1-1.9v12.1l-27.8,3.4v-60.5L317.7,111.3 M322.7,105.7
			l-5.6,0.7l-27.8,3.4l-4.4,0.5v4.4v60.5v5.7l5.6-0.7l27.8-3.4l4.4-0.5v-4.4v-12.1V154l-5.6,0.7l-9.5,1.2v-3.2l7.6-0.9l4.4-0.5v-4.4
			v-12.1V129l-5.6,0.7l-6.4,0.8v-0.8l10.7-1.3l4.4-0.5v-4.4v-12.1V105.7L322.7,105.7z"/>
	</g>
</g>
</svg>
