<svg id="Layer_1" data-name="Layer 1" xmlns="http://www.w3.org/2000/svg" xmlns:xlink="http://www.w3.org/1999/xlink" viewBox="0 0 282.61 182.61"><defs><linearGradient id="linear-gradient" x1="10.75" y1="91.3" x2="271.87" y2="91.3" gradientUnits="userSpaceOnUse"><stop offset="0" stop-color="#d83327"/><stop offset="1" stop-color="#94322a"/></linearGradient></defs><title>excellent</title><path d="M151.74,59.46l-3.4.45-4,.54-1.76.17h0l-4.86.58v-.08l-3.4.45h0l-.31,0-3.2.36-2.66.31v.06l-18.37,2.29-1.76.18-3.21.36-2.66.31v1.26a17,17,0,0,0-7-1.41,26.52,26.52,0,0,0-2.77.2A22.4,22.4,0,0,0,87,66.78l-2.68.3-5.84.65L67.78,68.91l-2.3.26-1.71.19-.7,1.58-1,2.16L61.3,75l-.68-1.23-1.08-2-1-1.78-2,.27-2.32.3L43.52,72l-5.23.69-1.1.11h-.08L18.38,75.12l-1.77.18-3.2.36L10.75,76v61.52l3.39-.46,4-.53,1.75-.18H20l14.81-1.86h0L40,133.9l5.89-.66,10.69-1.18,2.26-.26,1.69-.18.71-1.55,1-2.12.85-1.86.76,1.29,1.1,1.87,1,1.72,2-.26,2.27-.3L80.85,129l5.84-.77,1-.13a19.78,19.78,0,0,0,3.41.28,26.59,26.59,0,0,0,2.76-.19,20.73,20.73,0,0,0,8.22-2.64V127l3.4-.46,4-.53,1.76-.18h.07l16.76-2.09v.06l3.39-.45h.05l.31,0L135,123l2.66-.3v-.06l15.84-2v.17l3.4-.45,4-.53,1.75-.18h.07l18.2-2.25,1.77-.18,3.2-.36,2.66-.31v-.07l16.38-2v.16l3.4-.46,4-.53,1.76-.18h0l6.11-.72,1.78-.18h.09l2.08-.27,3.11-.36h0l1.36-.18,7.07-.9,1.77-.18,3.2-.36,2.66-.3v-.07l.91-.12,4-.54,1.75-.17h.06l6.83-.81,1.78-.17,3.2-.37,2.66-.3V69.19l1.36-.13,3.2-.37,2.66-.3V45.12l-3.34.37-4.06.45-1.77.18h-.07l-21.26,2.61-1,.1h-.19l-.2,0-.37.05h0l-3.15.36-2.66.31v0L228,50.3l-1.78.18-3.2.37h-.13l-.12,0-.36.07-1.25.17-6.63.82V51.8l-3.39.45-4,.54-1.76.17h-.07l-18.74,2.34-1.77.18-3.2.37-2.66.3-1.76.3-3.4.45-4,.54-1.76.17H168l-6.83.81-1.78.18-3.2.36-2.66.31Z" style="fill:url(#linear-gradient)"/><polygon points="80.29 122.44 67.53 100.17 78.89 74.37 68.2 75.56 61.85 89.97 54.76 77.19 44.08 78.6 56.79 101.48 45.48 126.67 56.17 125.48 62.46 111.68 69.61 123.85 80.29 122.44" style="fill:#fff"/><path d="M78.89,74.37l-11.36,25.8,12.76,22.27-10.68,1.41-7.15-12.17-6.29,13.8-10.69,1.19,11.31-25.19L44.08,78.6l10.68-1.41L61.86,90,68.2,75.56l10.69-1.19m5.75-4.27-5.84.65L68.11,71.93l-2.3.26-1,2.15-3.25,7.38L58,75.22l-1.09-2-2.32.3L43.91,75l-5.76.76,2.68,4.84L52.7,101.93l-10.54,23.5L39.68,131l5.89-.65,10.69-1.19,2.26-.25,1-2.11,3.25-7.12,3.68,6.26,1.1,1.88,2.27-.3,10.68-1.41,5.84-.77-2.79-4.86L71.62,99.68l10.6-24.09,2.42-5.49Z" style="fill:#010101"/><path d="M91,123.53a11.31,11.31,0,0,1-8.13-3c-2.43-2.35-3.61-5.78-3.61-10.2V86.43A16.49,16.49,0,0,1,82.76,75.6a14.49,14.49,0,0,1,10-5.14A20.55,20.55,0,0,1,95,70.28a11.25,11.25,0,0,1,8.12,3c2.44,2.34,3.61,5.77,3.61,10.19v8.13L93.32,93.2v5.69l13.45-1.63v10.2a16.44,16.44,0,0,1-3.52,10.83,14.94,14.94,0,0,1-10,5.24Z" style="fill:#fff"/><path d="M95,72a9.2,9.2,0,0,1,6.86,2.53c2.07,2,3.06,5,3.06,8.93V90l-1.8.18-6.5.82-1.8.18V84.18c0-1.81-.55-2.17-1.18-2.17h-.45c-.81.09-1.62.18-1.62,2.53v24.91c0,1.8.54,2.07,1.17,2.07h.54c.81-.09,1.63-.18,1.63-2.43v-8.58l1.8-.18,6.5-.81,1.8-.18v8.12c0,4-1,7.22-3.06,9.66a13,13,0,0,1-8.85,4.51,15.93,15.93,0,0,1-2.07.09,9.17,9.17,0,0,1-6.86-2.53c-2.08-2-3.07-5-3.07-8.93V86.34c0-4,1-7.22,3.07-9.65a12.94,12.94,0,0,1,8.84-4.52A14.86,14.86,0,0,1,95,72m0-3.61a22.07,22.07,0,0,0-2.44.18,15.92,15.92,0,0,0-11.19,5.87c-2.62,3.16-3.88,7.22-3.88,12v23.92c0,5,1.44,8.84,4.15,11.55a12.72,12.72,0,0,0,9.39,3.52,22.07,22.07,0,0,0,2.43-.18,15.9,15.9,0,0,0,11.19-5.86c2.62-3.16,3.88-7.23,3.88-12V95.19l-4.06.54-1.8.18-6.5.81-1.08.09v-2h.18l1.8-.18,6.5-.82,1.81-.18,3.15-.36V83.63c0-5-1.44-8.84-4.15-11.55A12.45,12.45,0,0,0,95,68.38Zm.18,15.8Z" style="fill:#010101"/><polygon points="106.86 69.83 132.85 66.67 132.85 80.3 120.94 81.74 120.94 86.25 130.42 85.08 130.42 98.71 120.94 99.88 120.94 106.29 132.85 104.84 132.85 118.47 106.86 121.72 106.86 69.83" style="fill:#fff"/><path d="M131.05,68.65v10l-1.81.18-10.11,1.26v8.13l7.68-.9,1.8-.19v10l-1.8.18-7.68.91v10L129.24,107l1.81-.18v10l-1.81.18-18.77,2.35-1.8.18V71.45l1.8-.18,18.77-2.35,1.81-.27m3.61-4.06-4.06.54-1.81.18L110,67.66l-1.81.18-3.16.36v55.42l4.07-.54,1.8-.18,18.77-2.35,1.81-.18,3.16-.36V102.77l-4.06.54-1.81.18-6,.72v-2.8l4.52-.54,1.8-.18,3.16-.36V83.09l-4.06.54-1.81.19-3.61.45v-.91l7-.81,1.81-.18,3.16-.36V64.59Z" style="fill:#010101"/><polygon points="132.85 66.63 146.93 64.91 146.93 103.09 158.31 101.73 158.31 115.36 132.85 118.52 132.85 66.63" style="fill:#fff"/><path d="M145.13,67v38.17l9.56-1.17,1.81-.18v10l-1.81.18-18.23,2.25-1.8.18V68.25l1.8-.18,6.86-.81,1.81-.27m3.61-4.07-4.06.55-1.81.18-6.86.81-1.8.18-3.16.36v55.42l4.06-.55,1.8-.18,18.24-2.25,1.8-.18,3.16-.36V99.66l-4.06.54-1.81.18-5.5.63V62.92Z" style="fill:#010101"/><polygon points="158.31 63.62 172.38 61.91 172.38 100.09 183.76 98.73 183.76 112.36 158.31 115.52 158.31 63.62" style="fill:#fff"/><path d="M170.58,64v38.18l9.57-1.17,1.8-.18v10l-1.8.18-18.23,2.25-1.81.18V65.25l1.81-.18,6.85-.81,1.81-.28m3.61-4.06-4.06.54-1.81.19-6.86.81-1.8.18L156.5,62v55.41l4.06-.54,1.81-.18,18.23-2.25,1.8-.18,3.16-.36V96.66l-4.06.54-1.8.18-5.51.63V59.92Z" style="fill:#010101"/><polygon points="15.55 80.31 41.55 77.15 41.55 90.78 29.63 92.22 29.63 96.73 39.11 95.56 39.11 109.19 29.63 110.36 29.63 116.77 41.55 115.33 41.55 128.95 15.55 132.2 15.55 80.31" style="fill:#fff"/><path d="M39.74,79.13v10l-1.8.18L27.83,90.6v8.12l7.67-.9,1.8-.18v10l-1.8.18-7.67.91v10l10.11-1.27,1.8-.18v10l-1.8.18-18.78,2.35-1.8.18V81.93l1.8-.18L37.94,79.4l1.8-.27m3.61-4.06-4.06.54-1.81.18L18.71,78.14l-1.8.18-3.16.36V134.1l4.06-.54,1.8-.18L38.39,131l1.8-.18,3.16-.36V113.25l-4.06.54-1.81.18-6,.72V111.9l4.51-.55,1.81-.18,3.15-.36V93.57l-4.06.55-1.8.18-3.61.45v-.9l7-.82,1.8-.18,3.16-.36V75.07Z" style="fill:#010101"/><polygon points="183.76 60.5 209.75 57.34 209.75 70.97 197.84 72.41 197.84 76.92 207.31 75.75 207.31 89.38 197.84 90.55 197.84 96.96 209.75 95.52 209.75 109.14 183.76 112.39 183.76 60.5" style="fill:#fff"/><path d="M207.94,59.32v10l-1.8.18L196,70.79v8.12l7.67-.9,1.81-.18v10L203.7,88l-7.67.9V99l10.11-1.27,1.8-.18v10l-1.8.18-18.77,2.35-1.81.18V62.12l1.81-.18,18.77-2.34,1.8-.28m3.61-4.06-4.06.54-1.8.19-18.77,2.34-1.81.18-3.16.36v55.42l4.06-.54,1.81-.18,18.77-2.35,1.81-.18,3.15-.36V93.44l-4.06.54-1.8.18-6.05.72V92.09l4.51-.54,1.81-.18,3.16-.37V73.77l-4.06.54-1.81.18-3.61.45V74l7-.82L208.4,73l3.15-.36V55.26Z" style="fill:#010101"/><polygon points="209.75 57.48 224.73 55.67 225.18 57.57 225.18 55.58 238.54 53.96 238.54 105.76 225.09 107.48 223.11 99.53 223.11 107.66 209.75 109.37 209.75 57.48" style="fill:#fff"/><path d="M236.74,56v48.2l-1.81.18-7.13.9-1.35.18-.36-1.35-4.88-18.6V106l-1.8.18-6.14.73-1.81.18V58.92l1.81-.18,8.66-1.08,1.36-.18.36,1.35L227,71.56V57l1.8-.18,6.14-.72,1.81-.09m3.61-4.15-4.07.54-1.8.18-6.14.72-1.8.18-3.16.37-.45.09-1.36.18-8.66,1.08-1.81.18-3.16.36v55.42l4.07-.54,1.8-.19,6.14-.72,1.8-.18,2.08-.27h0l3.16-.36,1.35-.18,7.13-.9,1.81-.18,3.16-.36V51.88Z" style="fill:#010101"/><polygon points="245.76 66.74 238.54 67.64 238.54 54.02 267.06 50.49 267.06 64.12 259.84 65.03 259.84 103.2 245.76 104.92 245.76 66.74" style="fill:#fff"/><path d="M265.26,52.57V62.5l-1.81.18-5.41.63v38.18l-1.81.18-6.86.81-1.8.18V64.76l-5.42.63-1.8.18v-10l1.8-.18,21.3-2.62,1.81-.18m3.61-4.06L264.8,49l-1.8.18-21.3,2.62-1.81.18-3.15.36V69.54L240.8,69l1.8-.18,1.36-.18v38.17l4.06-.54,1.8-.18,6.86-.81,1.81-.18,3.16-.36V66.56l2.25-.27,1.81-.18,3.16-.36V48.51Z" style="fill:#010101"/></svg>