<?xml version="1.0" encoding="utf-8"?>
<!-- Generator: Adobe Illustrator 23.0.3, SVG Export Plug-In . SVG Version: 6.00 Build 0)  -->
<svg version="1.1" id="Capa_1" xmlns="http://www.w3.org/2000/svg" xmlns:xlink="http://www.w3.org/1999/xlink" x="0px" y="0px"
	 viewBox="0 0 96.1 96.1" style="enable-background:new 0 0 96.1 96.1;" xml:space="preserve">
<style type="text/css">
	.st0{fill:#FFFFFF;}
	.st1{display:none;}
	.st2{display:inline;}
</style>
<g>
	<path class="st0" d="M67.7,8.8l-10.2,0c-11.5,0-18.9,7.6-18.9,19.4V37H28.4c-0.9,0-1.6,0.7-1.6,1.6v12.9c0,0.9,0.7,1.6,1.6,1.6
		h10.3v32.6c0,0.9,0.7,1.6,1.6,1.6h13.4c0.9,0,1.6-0.7,1.6-1.6V53.2h12c0.9,0,1.6-0.7,1.6-1.6l0-12.9c0-0.4-0.2-0.8-0.5-1.1
		c-0.3-0.3-0.7-0.5-1.1-0.5h-12v-7.6c0-3.6,0.9-5.5,5.6-5.5l6.9,0c0.9,0,1.6-0.7,1.6-1.6v-12C69.3,9.5,68.6,8.8,67.7,8.8z"/>
</g>
<g class="st1">
	<g class="st2">
		<path class="st0" d="M90.6,21.7c-3.1,1.4-6.5,2.3-10,2.7c3.6-2.2,6.4-5.6,7.7-9.6c-3.4,2-7.1,3.4-11.1,4.2
			c-3.2-3.4-7.7-5.5-12.7-5.5C54.8,13.5,47,21.3,47,31c0,1.4,0.2,2.7,0.5,4c-14.5-0.7-27.4-7.7-36-18.2c-1.5,2.6-2.4,5.6-2.4,8.8
			c0,6.1,3.1,11.4,7.8,14.5c-2.9-0.1-5.5-0.9-7.9-2.2V38c0,8.4,6,15.5,14,17.1c-1.5,0.4-3,0.6-4.6,0.6c-1.1,0-2.2-0.1-3.3-0.3
			c2.2,6.9,8.7,12,16.3,12.1c-6,4.7-13.5,7.5-21.7,7.5c-1.4,0-2.8-0.1-4.2-0.2c7.7,5,16.9,7.8,26.7,7.8C64.4,82.6,81.9,56,81.9,33
			l-0.1-2.3C85.3,28.3,88.2,25.2,90.6,21.7z"/>
	</g>
</g>
</svg>
