<svg id="Layer_1" data-name="Layer 1" xmlns="http://www.w3.org/2000/svg" viewBox="0 0 342.66 206.51"><title>failed</title><path d="M112.75,111.23c-4.56.92-11.69,1.62-13.52,2.87-.84.58-1.39,2.92-2,4.49,4.89-1.11,10.45-2.45,14.68-3.37-1.69,2.32-2.55,3.44-4.26,5.6-3.62.53-5.44.77-9.07,1.22l-2.14-1.36c-1.55,4.33-1.4,10.9-2.34,11.78-.75.72-7.37.85-10.62,1-.28-5.56,3.57-11.92,6.27-16.95-1.67-1.11-2.5-1.64-4.17-2.67,5.87-1.54,11.35-3.08,15.31-4.14l.72-1c4-1.1,8.89-2.35,12.93-3.37a25.24,25.24,0,0,1,2.06,5.22C115.33,110.7,114.06,111,112.75,111.23Z"/><path d="M134.49,129.23a38,38,0,0,1-3.11-9.15c-8.86,2-12.37,5.22-14.16,10.09-3.89-1.34-5.83-2-9.71-3.11a168.25,168.25,0,0,1,21-22.93c-.17-.9-.26-1.34-.43-2.24,3.8-1.3,5.71-2,9.51-3.4,1.88,8.18,1.44,17.83,6.3,25.85C140.12,126.44,138.25,127.42,134.49,129.23Zm-3.25-9.74c-.4-1.71-.66-3.48-.91-5.21s-.48-3.36-.66-5a93.16,93.16,0,0,0-7.77,9.29l6.56-1.4C129.57,118.1,130.13,118.56,131.24,119.49Z"/><path d="M155.33,125.83c-3.91.81-5.86,1.19-9.77,1.89q2.85-16.17,6-32.29a115.26,115.26,0,0,1,10.93-5.22C159.9,102.07,157.45,113.87,155.33,125.83Z"/><path d="M188.85,121.27c-1.74.23-3.7.48-5.74.8-6.4,1-13.72,2.43-19.48,3.73.9-6.92,2.23-14.65,3.73-22l-2.4-.34a119.87,119.87,0,0,1,3-13.4c3.39-2,8.19-4.82,12-6.67-2.25,10.66-4.42,21.38-6.12,32.15,4.83-1.55,11.11-3.31,16.4-4.65C189.68,115.12,189.41,117.18,188.85,121.27Z"/><path d="M205.07,84.19c-.95,1.29-1.35,6.52-1.79,9.21,4.77-2.63,10.24-5.77,15-8.11-1.58,4.91-2.37,7.31-4,12-3.67,1.39-5.5,2.06-9.16,3.36-1-1.27-1.47-1.89-2.44-3.12-.32,2.36-1.12,6.6-.86,8.9.3,2.75,1.94,3.35,4.23,2.79,3.42-.84,8.28-4.44,12.43-7.47,0,4,0,6,0,10a23.13,23.13,0,0,1-13,7.77c-7.43,1.35-12-2.77-12.79-9.66-.56-5,1.62-14.89,2.84-20-1.79-2.36-2.68-3.51-4.47-5.74,6-3.83,11.14-6.85,15.76-9.71.25-.89.37-1.33.61-2.22,4-2.38,8.76-4.91,13-7a108.29,108.29,0,0,1,2.38,10.6C217.48,78.1,206.93,81.65,205.07,84.19Z"/><path d="M259.09,74c-1.56,15-9.25,30.77-22.4,38.71-1.79-1.56-2.68-2.33-4.46-3.81-.32,2.08-.48,3.11-.8,5.17l-7.23.9Q226,95.08,228.31,75.3c-2-2.46-3-3.65-5.07-6,5.78-6.71,11.74-12,17-14.92,9-5,16.08-2.84,17.09,7.95a40.2,40.2,0,0,1-.51,9.86Zm-17.91-7.29a21.14,21.14,0,0,0-3.06,1.8c-1.39,11.19-2.67,22.43-3.52,33.68,9.09-7.54,14.63-19.1,13.7-30.92C247.89,66.1,245.38,64.64,241.18,66.68Z"/><path d="M112.89,113.9c-4.36.83-11.19,1.42-12.94,2.6-.8.55-1.32,2.79-1.91,4.29,4.68-1,10-2.24,14-3.07-1.63,2.21-2.44,3.27-4.08,5.32-3.47.47-5.2.68-8.68,1.08l-2-1.33c-1.48,4.15-1.34,10.47-2.23,11.31-.73.68-7.06.77-10.17.86-.26-5.37,3.42-11.47,6-16.29-1.59-1.08-2.39-1.61-4-2.62,5.61-1.41,10.86-2.83,14.64-3.79l.69-1c3.78-1,8.5-2.13,12.37-3.05a24.65,24.65,0,0,1,2,5C115.36,113.43,114.15,113.67,112.89,113.9Z" style="fill:#da3228"/><path d="M133.69,131.34a37.22,37.22,0,0,1-3-8.76c-8.47,1.86-11.82,4.86-13.54,9.5-3.72-1.31-5.58-1.92-9.29-3.06,5.91-7.77,13.08-14.92,20.07-21.69-.16-.86-.25-1.29-.41-2.15,3.64-1.19,5.46-1.81,9.1-3.11,1.8,7.83,1.38,17,6,24.71C139.08,128.74,137.29,129.65,133.69,131.34ZM130.58,122c-.38-1.64-.62-3.33-.86-5s-.47-3.22-.64-4.76a85.83,85.83,0,0,0-7.43,8.78l6.28-1.26C129,120.67,129.52,121.12,130.58,122Z" style="fill:#da3228"/><path d="M153.64,128.32c-3.74.72-5.61,1.06-9.34,1.69,1.78-10.23,3.62-20.48,5.77-30.64a104.77,104.77,0,0,1,10.46-4.8C158,105.8,155.67,117,153.64,128.32Z" style="fill:#da3228"/><path d="M185.72,124.36c-1.67.2-3.54.42-5.5.7-6.12.87-13.12,2.14-18.63,3.31.86-6.55,2.13-13.88,3.57-20.78l-2.3-.36a111,111,0,0,1,2.87-12.67c3.24-1.9,7.83-4.45,11.47-6.14-2.27,10-4.27,20.21-5.85,30.38,4.62-1.4,10.62-3,15.68-4.2C186.51,118.55,186.25,120.51,185.72,124.36Z" style="fill:#da3228"/><path d="M201.24,89.52c-.91,1.21-1.29,6.15-1.71,8.68,4.56-2.41,9.79-5.3,14.31-7.43-1.51,4.61-2.26,6.86-3.78,11.26-3.51,1.26-5.26,1.87-8.76,3l-2.34-3c-.31,2.23-1.07,6.23-.82,8.4.29,2.6,1.85,3.19,4.05,2.69,3.27-.75,7.92-4.08,11.89-6.88,0,3.79,0,5.67,0,9.44a22,22,0,0,1-12.41,7.17c-7.11,1.19-11.49-2.77-12.23-9.3-.54-4.69,1.54-14.06,2.71-18.88-1.72-2.26-2.57-3.36-4.27-5.5,5.7-3.53,10.65-6.3,15.08-8.93.23-.83.34-1.25.58-2.08,3.86-2.19,8.38-4.49,12.39-6.42a99.4,99.4,0,0,1,2.28,10C213.11,84,203,87.16,201.24,89.52Z" style="fill:#da3228"/><path d="M252.93,80.73c-1.5,14.13-8.92,28.86-21.43,36.12-1.71-1.5-2.57-2.23-4.27-3.66-.31,2-.46,2.93-.76,4.87l-6.92.76c1.15-12.47,2.47-24.88,3.93-37.32-1.94-2.35-2.91-3.49-4.85-5.7,5.53-6.24,11.23-11.11,16.31-13.78,8.6-4.52,15.38-2.39,16.34,7.77a37.18,37.18,0,0,1-.48,9.27Zm-17.14-7.15a22.86,22.86,0,0,0-2.93,1.65c-1.32,10.52-2.55,21.1-3.36,31.67,8.59-7,14.11-17.73,13.11-28.9C242.17,73.1,239.81,71.73,235.79,73.58Z" style="fill:#da3228"/></svg>