<?xml version="1.0" encoding="utf-8"?>
<!-- Generator: Adobe Illustrator 23.0.3, SVG Export Plug-In . SVG Version: 6.00 Build 0)  -->
<svg version="1.1" id="Layer_1" xmlns="http://www.w3.org/2000/svg" xmlns:xlink="http://www.w3.org/1999/xlink" x="0px" y="0px"
	 viewBox="0 0 388.3 216" style="enable-background:new 0 0 388.3 216;" xml:space="preserve">
<style type="text/css">
	.st0{fill:url(#SVGID_1_);}
	.st1{fill:#FFFFFF;}
</style>
<g>
	<g id="Fight-Direction_1_">
		
			<linearGradient id="SVGID_1_" gradientUnits="userSpaceOnUse" x1="46.9484" y1="1311.3219" x2="341.4351" y2="1311.3219" gradientTransform="matrix(1 0 0 1 0 -1203.322)">
			<stop  offset="0.1" style="stop-color:#DA3228"/>
			<stop  offset="1" style="stop-color:#8F3029"/>
		</linearGradient>
		<path class="st0" d="M336.6,81.7l-4.7,0.6l-2.1,0.2l-7.1,0.9l-2.1,0.2l-0.6,0.1l-2.6,0.3l-0.5,0.1l-0.6,0.1l-1.6,0.2l-10,1.2
			l-2.1,0.2l-3.7,0.5l-3.7,0.5v3.9c-3.4-2.2-7.2-3.2-11.2-3.1c-1.1,0-2.3,0.1-3.4,0.2c-4.6,0.5-8.9,2.2-12.5,5v-2.7l-4.7,0.6
			l-4.7,0.6l-2.1,0.2l-8,1l-2.1,0.2l-3.7,0.5l-2.6,0.3l-2.1,0.2l-24.7,3l-2.1,0.2l-3.7,0.5l-2.1,0.2V55.6l1-0.2l3.7-0.5l3.7-0.5
			V26.1l-4.7,0.6l-4.7,0.6l-2.1,0.2l-24.7,3l-2.1,0.2l-1.5,0.2l-4.7,0.6l-2.1,0.2l-7.8,1L158,33l-4.7,0.6l-2.1,0.2l-8,1l-2.1,0.2
			l-3.7,0.5l-3.7,0.5v3.7c-3.3-2-7-3-10.8-2.9c-1.1,0-2.2,0.1-3.4,0.2c-4.5,0.5-8.8,2.2-12.4,4.9v-2.6l-4.7,0.6l-4.7,0.6l-2,0.2
			l-8,1l-2.1,0.2L82,42.3l-2.6,0.3l-2.1,0.2l-21,2.6l-2.1,0.2l-3.7,0.5l-3.7,0.5v143.2l4.7-0.6l4.7-0.6l2.1-0.2l12.2-1.5
			c4.5-0.5,8.7-2.1,12.4-4.8v3.3l4.7-0.6l4.7-0.6l2.1-0.2l8-1l2.1-0.2l3.7-0.5l4.6-0.6l2.1-0.2l8-1l2.1-0.2l3-0.3l2-0.2l1.4-0.2
			l8.2-1l3.2-0.4l1.2-0.2l4.7-0.6l2.1-0.2l21.8-2.6l2.1-0.2l3.7-0.5l3.7-0.5v-2.8c3,1.5,6.2,2.2,9.6,2.2c1.1,0,2.2-0.1,3.4-0.2
			c6.2-0.6,11.8-3.5,15.7-8.2c0.8-1,1.5-2,2.2-3.1v8.2l4.7-0.6l4.7-0.6l2.1-0.2l8-1l2.1-0.2l3.7-0.5l3.7-0.5l2.6-0.3l4.7-0.6
			l2.1-0.2l8-1l2.1-0.2l3.7-0.5l3.7-0.5v-3.9c3.4,2.2,7.2,3.2,11.2,3.1c1.1,0,2.3-0.1,3.4-0.2c4.6-0.5,8.9-2.2,12.5-5v2.7l4.7-0.6
			l4.7-0.6l2.1-0.2l7.1-0.9l2.1-0.2l2.4-0.3l3.6-0.5l1.6-0.2l8.2-1l2.1-0.2l3.7-0.5l3.7-0.5V81.1L336.6,81.7z M123,167L123,167z"/>
		<polygon class="st1" points="53.2,52.2 82.7,48.6 82.7,64.4 69.5,66 69.5,72 79.8,70.7 79.8,86.4 69.5,87.7 69.5,110.2 
			53.2,112.2 		"/>
		<path d="M80.6,50.9v11.6l-2.1,0.2l-11,1.4v10.1l8.2-1l2.1-0.2v11.6l-2.2,0.2l-8.2,1v22.5l-2.1,0.2l-8,1l-2.1,0.2V54.1l2.1-0.2
			l21.1-2.6L80.6,50.9 M84.7,46.2L80,46.8L78,47l-21.1,2.6l-2.1,0.2l-3.7,0.5v64.2l4.7-0.6l2.1-0.2l8-1l2.1-0.2l3.7-0.5V89.5
			l4.6-0.6l2.1-0.2l3.7-0.5v-20l-4.7,0.6l-2.1,0.2l-3.5,0.4v-1.8l7.4-0.9l2.1-0.2l3.7-0.5L84.7,46.2L84.7,46.2z"/>
		<polygon class="st1" points="84.7,48.3 101.1,46.3 101.1,106.3 84.7,108.3 		"/>
		<path d="M98.9,48.7v55.8l-2.1,0.2l-8,1l-2.1,0.2V50.2l2.1-0.2l8-1L98.9,48.7 M103.1,44l-4.7,0.6l-2.1,0.2l-8,1L86.3,46l-3.7,0.5
			v64.2l4.7-0.6l2.1-0.2l8-1l2.1-0.2l3.7-0.5V44L103.1,44z"/>
		<path class="st1" d="M118.2,104.8c-3.5,0.2-6.9-1.1-9.4-3.5c-2.8-2.7-4.2-6.8-4.2-12.1V62c0-5.2,1.4-9.5,4.1-12.8
			c3-3.4,7.2-5.6,11.7-6c0.9-0.1,1.8-0.2,2.6-0.2c3.4-0.2,6.9,1.1,9.4,3.5c2.8,2.7,4.2,6.8,4.2,12.1v27.1c0,5.2-1.4,9.5-4.1,12.8
			c-3,3.5-7.2,5.7-11.7,6.1C119.9,104.7,119,104.8,118.2,104.8C118.2,104.8,118.2,104.8,118.2,104.8z"/>
		<path d="M123,45.1c3-0.2,5.8,0.9,8,2.9c2.4,2.3,3.6,5.9,3.6,10.6v6.6l-2.1,0.2l-7.6,1l-2.1,0.2v-7c0-2.4-0.7-2.8-1.5-2.8
			c-0.2,0-0.4,0-0.6,0c-1,0.1-2.1,0.2-2.1,3.2v28.2c0,2.3,0.7,2.7,1.5,2.7c0.2,0,0.4,0,0.6-0.1c1-0.1,2.1-0.2,2.1-3.1v-8l-1.9,0.2
			l-2.1,0.2V68.7l2.1-0.2l11.5-1.4l2.1-0.2v18.9c0,4.7-1.2,8.6-3.6,11.5c-2.6,3-6.3,5-10.4,5.3c-0.8,0.1-1.6,0.2-2.4,0.2
			c-3,0.2-5.8-0.9-8-2.9c-2.4-2.3-3.6-5.9-3.6-10.6V62c0-4.7,1.2-8.6,3.6-11.5c2.6-3,6.4-5,10.5-5.2C121.4,45.3,122.2,45.2,123,45.1
			 M123,41L123,41c-1,0-1.9,0.1-2.9,0.2c-5.1,0.5-9.8,2.9-13.1,6.8c-3,3.7-4.6,8.5-4.6,14.1v27.2c0,5.8,1.6,10.5,4.9,13.6
			c3,2.8,6.9,4.2,10.9,4.1c1,0,1.9-0.1,2.9-0.2c5.1-0.4,9.8-2.9,13.1-6.8c3-3.7,4.6-8.5,4.6-14.1V58.7c0-5.8-1.7-10.5-4.9-13.6
			C131,42.3,127.1,40.8,123,41L123,41z"/>
		<polygon class="st1" points="140,41.5 156.4,39.5 156.4,60.5 156.6,60.5 156.6,39.5 173,37.5 173,97.5 156.6,99.4 156.6,76.3 
			156.4,76.4 156.4,99.5 140,101.5 		"/>
		<path d="M170.8,39.8v55.8l-2.1,0.2l-8,1l-2.1,0.2V73.9l-4.4,0.6v23.2l-2.1,0.2l-8,1l-2.1,0.2V43.3l2.1-0.2l8-1l2.1-0.2v21l4.4-0.6
			v-21l2.1-0.2l8-1L170.8,39.8 M175.1,35.1l-4.7,0.6l-2.1,0.2l-8,1l-2.1,0.2l-3.7,0.5l-0.7,0.1l-2.1,0.2l-8,1l-2.1,0.2l-3.7,0.5
			v64.2l4.7-0.6l2.1-0.2l8-1l2.1-0.2l3.7-0.5l0.7-0.1l2.1-0.2l8-1l2.1-0.2l3.7-0.5L175.1,35.1L175.1,35.1z"/>
		<polygon class="st1" points="183.4,52 175,53 175,37.3 208,33.2 208,48.9 199.7,50 199.7,94.2 183.4,96.2 		"/>
		<path d="M205.9,35.6v11.6l-2.1,0.2l-6.2,0.8v44.2l-2.1,0.2l-8,1l-2.1,0.2V49.7l-6.2,0.8l-2.1,0.2V39l2.1-0.2l24.7-3L205.9,35.6
			 M210.1,30.8l-4.7,0.6l-2.1,0.2l-24.7,3l-2.1,0.2l-3.7,0.5v20.1l4.7-0.6l2.1-0.2l1.6-0.2v44.2l4.7-0.6l2.1-0.2l8-1l2.1-0.2
			l3.7-0.5V51.8l2.6-0.3l2.1-0.2l3.7-0.5L210.1,30.8L210.1,30.8z"/>
		<path class="st1" d="M53.3,122.8l16.1-2c1-0.1,1.8-0.2,2.8-0.2c3.4-0.2,6.9,1,9.4,3.4c2.8,2.6,4.2,6.7,4.2,12v26.1
			c0,5.2-1.4,9.5-4,12.7c-2.6,3.2-6.7,5.4-11.8,5.9l-16.6,2.1L53.3,122.8z"/>
		<path d="M72.1,122.7c2.9-0.2,5.8,0.9,7.9,2.8c2.3,2.2,3.5,5.8,3.5,10.5v26.1c0,4.7-1.2,8.6-3.5,11.3s-5.9,4.6-10.5,5.2l-12.1,1.5
			l-2.1,0.2v-55.8l2.1-0.2l12.2-1.5C70.4,122.8,71.2,122.7,72.1,122.7 M67.5,167.4l2-0.2c0.6,0,1.1-0.2,1.4-0.6
			c0.4-0.7,0.6-1.6,0.5-2.5v-26.9c0-1.7-0.3-2.2-0.5-2.4c-0.3-0.2-0.6-0.4-1-0.3h-0.5l-2,0.2L67.5,167.4 M72.1,118.5
			c-1,0-2,0.1-3,0.2l-12.2,1.5l-2.1,0.2l-3.7,0.5v64.2l4.7-0.6l2.1-0.2l12.2-1.5c5.7-0.7,10.1-3,13.2-6.7c3.1-3.8,4.5-8.4,4.5-14.1
			V136c0-5.8-1.6-10.5-4.8-13.5C80,119.7,76.1,118.3,72.1,118.5L72.1,118.5z"/>
		<polygon class="st1" points="89.2,118.4 105.5,116.4 105.5,176.3 89.2,178.3 		"/>
		<path d="M103.4,118.7v55.8l-2.1,0.2l-8,1l-2.1,0.2v-55.8l2.1-0.2l8-1L103.4,118.7 M107.6,114l-4.7,0.6l-2.1,0.2l-8,1l-2.1,0.2
			l-3.7,0.5v64.3l4.7-0.6l2.1-0.2l8-1l2.1-0.2l3.7-0.5V114L107.6,114z"/>
		<path class="st1" d="M109.6,115.8l15.7-1.9c1-0.2,2.1-0.2,3.1-0.2c3.8,0,6.8,1,9,3c2.7,2.5,4.1,6.4,4.1,11.6v3.1
			c0.2,3.7-0.8,7.3-2.7,10.3c0.5,0.6,0.9,1.3,1.2,2c1.2,2.8,1.7,5.8,1.6,8.9v9c0,1,0,2.1,0.2,3.1c0.1,0.5,0.2,1,0.4,1.4l2.5,5.4
			l-17.3,2.1l-1-2.9c-0.2-0.4-0.3-0.9-0.4-1.3v4.4l-16.4,2.1V115.8z"/>
		<path d="M128.5,115.8c3.3,0,5.8,0.8,7.6,2.4c2.2,2.1,3.4,5.4,3.4,10v3.1c0,5.1-1.5,8.4-3.4,10.5c0.9,0.7,1.6,1.7,2.1,2.7
			c1,2.6,1.5,5.3,1.4,8v9c0,1.1,0,2.2,0.2,3.4c0.1,0.7,0.2,1.4,0.6,2l1.3,2.8l-3.1,0.4l-8.2,1l-1.4,0.2l-0.5-1.4
			c-0.3-0.9-0.6-1.8-0.6-2.7c-0.2-1.4-0.2-2.8-0.2-4.2v-9.4c0-2.6-0.5-3.4-0.6-3.5c-0.4-0.3-0.9-0.5-1.4-0.4c-0.3,0-0.6,0-0.9,0.1
			l-0.7,0.1v22.1l-2.1,0.2l-8,1l-2.1,0.4v-55.8l2.1-0.2l11.8-1.4C126.6,115.9,127.6,115.8,128.5,115.8 M123.9,138.3l0.8-0.1
			c0.8,0,1.5-0.3,2.1-0.9c0.5-0.9,0.7-1.8,0.6-2.8v-4c0-1.8-0.4-2.5-0.6-2.6c-0.2-0.2-0.6-0.3-1-0.3c-0.2,0-0.3,0-0.5,0l-1.5,0.2
			L123.9,138.3 M128.5,111.6c-1.1,0-2.2,0.1-3.4,0.2l-11.8,1.4l-2.1,0.2l-3.7,0.5v64.2l4.7-0.6l2.1-0.2l8-1l2.1-0.2l3.7-0.5l1.3-0.2
			l1.4-0.2l8.2-1l3.2-0.4l5.7-0.7l-2.4-5.2l-1.4-2.7c-0.1-0.2-0.2-0.4-0.2-0.6c0-0.5-0.1-1.4-0.1-2.9v-9c0.2-3.4-0.5-6.6-1.8-9.7
			c-0.2-0.4-0.4-0.8-0.6-1.2c1.6-3.2,2.4-6.7,2.3-10.2v-3.1c0-5.8-1.6-10.2-4.8-13.1C136.3,112.9,132.9,111.7,128.5,111.6
			L128.5,111.6z"/>
		<polygon class="st1" points="145.5,111.4 175.5,107.8 175.5,123.6 161.8,125.3 161.8,130.5 172.7,129.1 172.7,144.9 161.8,146.3 
			161.8,153.6 175.5,152 175.5,167.8 145.5,171.5 		"/>
		<path d="M173.5,110.1v11.6l-2.1,0.2l-11.7,1.4v9.4l8.9-1l2.1-0.2v11.6l-2.1,0.2l-8.9,1v11.7l11.7-1.4l2.1-0.2V166l-2.1,0.2
			l-21.7,2.6l-2.1,0.2v-55.8l2.1-0.2l21.7-2.6L173.5,110.1 M177.6,105.4l-4.7,0.6l-2.1,0.2l-21.7,2.6l-2.1,0.2l-3.7,0.5v64.2
			l4.7-0.6l2.1-0.2l21.7-2.6l2.1-0.2l3.7-0.5v-20l-4.7,0.6l-2.1,0.2l-7,0.9v-3.2l5.2-0.6l2.1-0.2l3.7-0.5v-20l-4.7,0.6l-2.1,0.2
			l-4.2,0.5v-1l8.1-1l2.1-0.2l3.7-0.5L177.6,105.4L177.6,105.4z"/>
		<path class="st1" d="M191.4,166.4c-3.4,0.2-6.9-1.1-9.4-3.5c-2.8-2.7-4.2-6.7-4.2-11.8v-27.7c-0.2-4.6,1.3-9,4-12.5
			c3-3.4,7.1-5.6,11.7-6c0.9-0.1,1.8-0.2,2.6-0.2c3.4-0.2,6.9,1.1,9.4,3.5c2.8,2.7,4.2,6.7,4.2,11.8v9.4l-15.5,1.9v6.6l15.5-1.9
			v11.7c0.2,4.6-1.3,9-4,12.5c-3,3.4-7.1,5.6-11.7,6C193.1,166.3,192.2,166.4,191.4,166.4z"/>
		<path d="M196.1,106.7c3-0.2,5.8,0.9,7.9,2.9c2.4,2.3,3.6,5.8,3.6,10.3v7.6l-2.1,0.2l-7.6,1l-2.1,0.2v-8.1c0-2.1-0.6-2.5-1.4-2.5
			c-0.2,0-0.4,0-0.6,0c-0.9,0.1-1.9,0.2-1.9,2.9V150c0,2.1,0.6,2.4,1.4,2.4c0.2,0,0.4,0,0.6,0c1-0.1,1.9-0.2,1.9-2.9v-10l2.1-0.2
			l7.6-1l2.1-0.2v9.4c0.2,4.1-1.1,8-3.6,11.2c-2.6,3-6.3,4.9-10.2,5.2c-0.8,0.1-1.6,0.2-2.4,0.2c-2.9,0.2-5.8-0.9-7.9-2.9
			c-2.4-2.3-3.6-5.8-3.6-10.3v-27.7c-0.2-4,1.1-8,3.6-11.2c2.6-3,6.3-4.9,10.2-5.2C194.5,106.9,195.3,106.8,196.1,106.7
			 M196.1,102.6c-1,0-1.9,0-2.9,0.2c-5,0.4-9.7,2.9-13,6.8c-3.1,3.9-4.7,8.9-4.5,13.8v27.7c0,5.8,1.6,10.2,4.8,13.3
			c2.9,2.8,6.8,4.2,10.9,4.1c1,0,1.9-0.1,2.9-0.2c5-0.5,9.7-2.9,13-6.8c3.1-3.9,4.7-8.9,4.6-13.9v-14.1l-4.7,0.6l-2.1,0.2l-7.6,1
			l-1.2,0.2v-2.3h0.2l2.1-0.2l7.5-1l2.1-0.2l3.7-0.5V120c0-5.8-1.6-10.2-4.8-13.3C204,103.9,200.1,102.4,196.1,102.6L196.1,102.6z"
			/>
		<polygon class="st1" points="218.9,118.2 210.5,119.3 210.5,103.4 243.5,99.4 243.5,115.2 235.2,116.2 235.2,160.4 218.9,162.4 		
			"/>
		<path d="M241.5,101.8v11.6l-2.1,0.2l-6.2,0.8v44.2l-2.1,0.2l-8,1L221,160v-44.2l-6.2,0.8l-2.1,0.2v-11.6l2.1-0.2l24.7-3
			L241.5,101.8 M245.6,97.1l-4.7,0.6l-2.1,0.2l-24.7,3l-2.1,0.2l-3.7,0.5v20l4.7-0.6l2.1-0.2l1.6-0.2v44.1l4.7-0.6l2.1-0.2l8-1
			l2.1-0.2l3.7-0.5v-44.2l2.6-0.3l2.1-0.2l3.7-0.5L245.6,97.1L245.6,97.1z"/>
		<polygon class="st1" points="245.6,99.1 261.9,97.1 261.9,157.1 245.6,159.1 		"/>
		<path d="M259.8,99.5v55.8l-2.1,0.2l-8,1l-2.1,0.2V101l2.1-0.2l8-1L259.8,99.5 M264,94.8l-4.7,0.6l-2.1,0.2l-8,1l-2.1,0.2l-3.7,0.5
			v64.3l4.7-0.6l2.1-0.2l8-1l2.1-0.2l3.7-0.5V94.8L264,94.8z"/>
		<path class="st1" d="M279.3,155.5c-3.5,0.2-7-1.1-9.5-3.5c-2.9-2.8-4.3-6.8-4.3-12.1v-27.2c-0.2-4.6,1.3-9.2,4.2-12.8
			c3-3.5,7.3-5.7,11.8-6.1c0.9-0.1,1.8-0.2,2.6-0.2c3.5-0.2,7,1.1,9.5,3.5c2.9,2.8,4.3,6.8,4.3,12.1v27.1c0.2,4.6-1.3,9.2-4.2,12.8
			c-3,3.5-7.3,5.8-11.9,6.2C281.1,155.5,280.2,155.5,279.3,155.5L279.3,155.5z"/>
		<path d="M284.2,95.9c3-0.2,5.9,0.9,8.1,3c2.5,2.3,3.7,5.9,3.7,10.5v27.1c0.2,4.2-1.1,8.2-3.7,11.5c-2.6,3.1-6.5,5-10.5,5.4
			c-0.8,0.1-1.6,0.2-2.4,0.2c-3,0.2-5.9-0.9-8.1-3c-2.5-2.3-3.7-5.9-3.7-10.5v-27.2c-0.2-4.2,1.1-8.2,3.7-11.5
			c2.6-3.1,6.5-5,10.5-5.4C282.5,95.9,283.3,95.9,284.2,95.9 M281.2,141.7c0.2,0,0.4,0,0.6,0c1-0.1,2.1-0.2,2.1-3.3v-28
			c0-2.4-0.7-2.8-1.5-2.8c-0.2,0-0.4,0-0.6,0c-1,0.1-2.1,0.2-2.1,3.3V139C279.7,141.4,280.5,141.8,281.2,141.7 M284.2,91.7
			c-1,0-1.9,0.1-3,0.2c-5.1,0.5-9.9,2.9-13.2,6.8c-3.1,3.8-4.6,8.5-4.6,14.1V140c0,5.8,1.7,10.5,5,13.6c3,2.8,7,4.2,11,4.1
			c1,0,1.9-0.1,3-0.2c5.1-0.5,9.9-2.9,13.2-6.8c3.1-3.8,4.6-8.5,4.6-14.1v-27.1c0-5.8-1.7-10.5-5-13.6
			C292.2,93.1,288.3,91.6,284.2,91.7L284.2,91.7z"/>
		<polygon class="st1" points="301.6,92.3 319,90.2 319.5,92.3 319.5,90.1 335,88.2 335,148.2 319.5,150.1 317.1,140.9 317.1,150.4 
			301.6,152.3 		"/>
		<path d="M332.9,90.6v55.8l-2.1,0.2l-8.2,1l-1.6,0.2l-0.4-1.5l-5.7-21.5v23.7l-2.1,0.2l-7.1,0.9l-2.1,0.2V94.2l2.1-0.2l10-1.2
			l1.6-0.2l0.4,1.5l3.9,14.7V92l2.1-0.2l7.1-0.9L332.9,90.6 M337.1,85.9l-4.7,0.6l-2.1,0.2l-7.1,0.9l-2.1,0.2l-3.7,0.5l-0.6,0.1
			l-1.6,0.2l-10,1.2l-2.1,0.2l-3.7,0.5v64.2l4.7-0.6l2.1-0.2l7.1-0.9l2.1-0.2l2.4-0.3l0,0l3.6-0.5l1.6-0.2l8.2-1l2.1-0.2l3.7-0.5
			V85.9L337.1,85.9z"/>
	</g>
</g>
</svg>
