<svg id="Layer_1" data-name="Layer 1" xmlns="http://www.w3.org/2000/svg" xmlns:xlink="http://www.w3.org/1999/xlink" viewBox="0 0 282.61 182.61"><defs><linearGradient id="linear-gradient" x1="69.02" y1="91.3" x2="213.59" y2="91.3" gradientUnits="userSpaceOnUse"><stop offset="0" stop-color="#d83327"/><stop offset="1" stop-color="#94322a"/></linearGradient></defs><title>good-job</title><path d="M207.39,17.84c-3.52-3.39-8.21-5.1-13.94-5.1-1.17,0-2.35.12-3.5.23h-.08l-12.36,1.48-2.08.21h-.06l-3.71.42-3.76.43v1.31a21.89,21.89,0,0,0-7.79-1.34,30.81,30.81,0,0,0-3.11.21l-.28,0h-.13a24.72,24.72,0,0,0-16.13,8.35l-.05,0,0,.05a1.47,1.47,0,0,1-.1.13A19.69,19.69,0,0,0,127,19.75a30.81,30.81,0,0,0-3.11.21l-.28,0h-.12a24.74,24.74,0,0,0-16.14,8.35l0,0,0,.05-.45.58a19.56,19.56,0,0,0-12.68-4.18,30.61,30.61,0,0,0-3.1.21l-.29,0h-.13c-6.81.9-12.19,3.74-16,8.44-3.64,4.41-5.5,10.15-5.5,17V78.19c0,7,2.16,12.88,6.27,16.87a18.41,18.41,0,0,0,7.79,4.49l0,3.35.25,26.56-6.86.71-3.8.4L69,131v20a18,18,0,0,0,3.74,11.38,18.81,18.81,0,0,0,9.58,6.47,25.75,25.75,0,0,0,7.47,1.08c1,0,2.06-.06,3.09-.16a26,26,0,0,0,10.77-3.51,22.47,22.47,0,0,0,5.52-4.61,19.79,19.79,0,0,0,12.86,4.26,30.41,30.41,0,0,0,3.1-.21l.29,0h.12a26.82,26.82,0,0,0,10.06-3.29v1.27l4.8-.64,4.77-.64L160,160.5c6.88-.91,12.26-3.6,16.05-8s5.81-10.14,5.81-16.81v-4.46a24.61,24.61,0,0,0-2.52-11.39A27.77,27.77,0,0,0,181,110v-2.13c0-7.27-2.13-12.82-6.33-16.48A16.77,16.77,0,0,0,171.15,89l1.55-.2,4.7-.63,2-.21h.08l12.41-1.48c6.86-.9,12.27-3.69,16.11-8.3,3.68-4.45,5.54-10.16,5.54-17V34.63C213.59,27.35,211.51,21.71,207.39,17.84Z" style="fill:url(#linear-gradient)"/><path d="M141.87,95.3l16.22-2a30.88,30.88,0,0,1,3.18-.22,13.66,13.66,0,0,1,9.12,3q4.14,3.83,4.13,11.79V110a20,20,0,0,1-1.69,8.71,13.28,13.28,0,0,1-1,1.7c2.34,2.44,3.5,6.16,3.5,10.94v4.47a19.12,19.12,0,0,1-4.24,12.64,18.63,18.63,0,0,1-12,5.84L142,156.39l-.11-61.09Zm16.54,42.92h.32c0-.21.1-.64.1-1.17v-4.57c0-.85-.1-1.48-.1-1.8h-.21l-.11,7.54Z" style="fill:#fff"/><path d="M161.27,95.3c3.29,0,5.94.85,7.74,2.44q3.5,3.18,3.5,10.2v2.12a18.77,18.77,0,0,1-1.48,7.76,13.66,13.66,0,0,1-1.91,2.87c2.33,1.59,4.24,4.78,4.24,10.62v4.47A16.93,16.93,0,0,1,169.65,147c-2.44,2.87-6.05,4.57-10.71,5.1L144.1,154V97.21l14.31-1.81a27.33,27.33,0,0,1,2.86-.1m-5,21.78,1.06-.11a3.28,3.28,0,0,0,2.12-.85c.21-.21.64-1,.64-2.87v-2.87a5.18,5.18,0,0,0-.53-2.76,1.32,1.32,0,0,0-1-.32h-.53l-1.8.21v9.57m0,23.58,2.54-.31c.53-.11,1.28-.22,1.59-.64.11-.11.53-.75.53-2.66v-4.57c0-2.55-.53-3.29-.63-3.5a2.2,2.2,0,0,0-1.59-.43,2.26,2.26,0,0,0-.85.11l-1.48.21v11.79m4.87-49.61c-1.06,0-2.22.1-3.39.21l-14.31,1.8-3.71.43v65.24l4.77-.64,14.84-1.81c5.62-.74,10.18-2.87,13.36-6.58s4.77-8.4,4.77-14v-4.46c0-5.21-1.38-8.71-3.08-11.16.11-.21.22-.32.32-.53a22.34,22.34,0,0,0,1.91-9.56v-2.13c0-6-1.59-10.41-4.88-13.28-2.65-2.34-6.25-3.5-10.6-3.5Z" style="fill:#010101"/><path d="M89.29,94a13.13,13.13,0,0,1-9.65-3.61c-2.86-2.76-4.24-6.91-4.24-12.33V50.46q0-8,4.13-13.07c2.87-3.51,6.79-5.53,11.88-6.16A23.25,23.25,0,0,1,94.06,31a13.1,13.1,0,0,1,9.65,3.62C106.57,37.39,108,41.53,108,47V74.58q0,8-4.14,13.07C101,91.15,97,93.17,91.94,93.81a23.65,23.65,0,0,1-2.65.21Z" style="fill:#fff"/><path d="M94.16,33.35a11.05,11.05,0,0,1,8.17,3c2.44,2.33,3.6,6,3.6,10.73v6.59l-2.12.21-7.63,1L94.06,55V47.91c0-2.45-.74-2.87-1.49-2.87H92c-1,.11-2.12.21-2.12,3.29V77c0,2.34.75,2.76,1.49,2.76h.53c1-.1,2.12-.21,2.12-3.18V68.52l-1.91.21L90,69V57.36l2.12-.21,11.66-1.49,2.12-.21V74.79a18.54,18.54,0,0,1-3.6,11.69,15.66,15.66,0,0,1-10.5,5.42,20.74,20.74,0,0,1-2.44.1,11,11,0,0,1-8.16-3c-2.44-2.34-3.6-6-3.6-10.73V50.67A18.54,18.54,0,0,1,81.23,39a15.64,15.64,0,0,1,10.5-5.42,9.91,9.91,0,0,1,2.43-.21m0-4.25h0c-1,0-1.9.11-3,.21-5.62.75-10.08,3-13.26,6.91-3.07,3.72-4.55,8.61-4.55,14.34V78.19c0,6,1.69,10.62,5,13.81a15.28,15.28,0,0,0,11,4.15,28.89,28.89,0,0,0,3-.22c5.62-.74,10.07-3,13.25-6.9,3.08-3.72,4.56-8.61,4.56-14.35V57.47h0V47.16c0-5.95-1.69-10.62-4.87-13.81A15,15,0,0,0,94.16,29.1ZM89.82,77.34Z" style="fill:#010101"/><path d="M122.05,88.92c-4,0-7.21-1.17-9.65-3.61-2.86-2.76-4.35-6.91-4.35-12.33V45.36c0-5.21,1.38-9.67,4.24-13.07s6.89-5.53,12.09-6.16a23.16,23.16,0,0,1,2.76-.22c4,0,7.2,1.17,9.64,3.62,2.87,2.76,4.35,6.9,4.35,12.32V69.48c0,5.2-1.38,9.67-4.24,13.07S130,88.07,124.8,88.71a12.15,12.15,0,0,1-2.75.21Z" style="fill:#fff"/><path d="M127,28.25a11.47,11.47,0,0,1,8.27,3C137.74,33.67,139,37.28,139,42V69.58c0,4.78-1.27,8.72-3.71,11.69a15.66,15.66,0,0,1-10.71,5.42,19,19,0,0,1-2.44.11,11.47,11.47,0,0,1-8.27-3c-2.43-2.44-3.71-6.06-3.71-10.73V45.46c0-4.78,1.28-8.71,3.71-11.68a15.66,15.66,0,0,1,10.71-5.42c.85,0,1.59-.11,2.44-.11M124,74.9h.53c1-.11,2.13-.22,2.13-3.3V43c0-2.44-.75-2.87-1.49-2.87h-.53c-1,.11-2.12.21-2.12,3.3V72c0,2.55.74,2.87,1.48,2.87M127,24c-1,0-1.91.11-3,.21a20.54,20.54,0,0,0-13.46,6.91,22.18,22.18,0,0,0-4.67,14.34V73.09c0,6,1.7,10.62,5,13.81a15.41,15.41,0,0,0,11.14,4.15,28.91,28.91,0,0,0,3-.22,20.51,20.51,0,0,0,13.47-6.9,22.24,22.24,0,0,0,4.66-14.35V42c0-6-1.69-10.63-5-13.81A15.32,15.32,0,0,0,127,24Z" style="fill:#010101"/><path d="M122.05,159.47c-4,0-7.21-1.17-9.65-3.61-2.86-2.76-4.35-6.91-4.35-12.33V115.91c0-5.21,1.38-9.67,4.24-13.07s6.89-5.53,12.09-6.16a23.16,23.16,0,0,1,2.76-.22c4,0,7.2,1.17,9.64,3.62,2.87,2.76,4.35,6.9,4.35,12.32V140c0,5.2-1.38,9.67-4.24,13.07s-6.89,5.52-12.09,6.16a12.15,12.15,0,0,1-2.75.21Z" style="fill:#fff"/><path d="M127,98.8a11.47,11.47,0,0,1,8.27,3c2.44,2.44,3.71,6,3.71,10.73v27.62c0,4.78-1.27,8.72-3.71,11.69a15.66,15.66,0,0,1-10.71,5.42,19,19,0,0,1-2.44.11,11.47,11.47,0,0,1-8.27-3c-2.43-2.44-3.71-6.06-3.71-10.73V116c0-4.78,1.28-8.71,3.71-11.68a15.66,15.66,0,0,1,10.71-5.42c.85,0,1.59-.11,2.44-.11M124,145.45h.53c1-.11,2.13-.22,2.13-3.3V113.57c0-2.44-.75-2.87-1.49-2.87h-.53c-1,.11-2.12.21-2.12,3.3v28.58c0,2.55.74,2.87,1.48,2.87M127,94.55c-1,0-1.91.11-3,.21a20.54,20.54,0,0,0-13.46,6.91A22.18,22.18,0,0,0,105.93,116v27.63c0,6,1.7,10.62,5,13.81a15.41,15.41,0,0,0,11.14,4.15,28.91,28.91,0,0,0,3-.22,20.51,20.51,0,0,0,13.47-6.9,22.24,22.24,0,0,0,4.66-14.35V112.51c0-6-1.69-10.63-5-13.81A15.32,15.32,0,0,0,127,94.55Z" style="fill:#010101"/><path d="M155.12,84.67c-4,0-7.21-1.17-9.64-3.61-2.87-2.76-4.35-6.91-4.35-12.33V41.11c0-5.21,1.38-9.67,4.24-13.07s6.89-5.53,12.09-6.16a23.16,23.16,0,0,1,2.75-.22c4,0,7.21,1.17,9.65,3.62,2.86,2.76,4.35,6.9,4.35,12.32V65.23c0,5.2-1.38,9.67-4.24,13.07s-6.9,5.52-12.09,6.16a12.19,12.19,0,0,1-2.76.21Z" style="fill:#fff"/><path d="M160.11,24a11.48,11.48,0,0,1,8.27,3c2.43,2.44,3.71,6.05,3.71,10.73V65.33c0,4.78-1.28,8.72-3.71,11.69a15.66,15.66,0,0,1-10.71,5.42,19,19,0,0,1-2.44.11,11.47,11.47,0,0,1-8.27-3c-2.44-2.44-3.71-6.06-3.71-10.73V41.21c0-4.78,1.27-8.71,3.71-11.68a15.64,15.64,0,0,1,10.71-5.42c.85,0,1.59-.11,2.44-.11M157,70.65h.53c1-.11,2.12-.22,2.12-3.3V38.77c0-2.44-.74-2.87-1.48-2.87h-.53c-1,.11-2.12.21-2.12,3.3V67.78c0,2.55.74,2.87,1.48,2.87m3.08-50.9c-1,0-1.91.11-3,.21a20.56,20.56,0,0,0-13.47,6.91A22.23,22.23,0,0,0,139,41.21V68.84c0,6,1.7,10.62,5,13.81a15.37,15.37,0,0,0,11.13,4.15,28.89,28.89,0,0,0,3-.22,20.51,20.51,0,0,0,13.47-6.9,22.24,22.24,0,0,0,4.66-14.35V37.71c0-5.95-1.7-10.63-5-13.81a15.34,15.34,0,0,0-11.13-4.15Z" style="fill:#010101"/><path d="M174.36,21.24l16.33-2a25.18,25.18,0,0,1,2.86-.21,13.63,13.63,0,0,1,9.55,3.4c2.75,2.76,4.24,6.8,4.24,12.22V61.19c0,5.31-1.38,9.67-4,13s-6.79,5.42-12,6.06l-16.86,2.12-.11-61.09Z" style="fill:#fff"/><path d="M193.45,21.24a11.15,11.15,0,0,1,8.05,2.87c2.34,2.34,3.61,5.95,3.61,10.73V61.4c0,4.78-1.17,8.71-3.61,11.58s-5.93,4.68-10.6,5.32l-12.4,1.48-2.12.22V23.26l2.12-.21,12.4-1.49a7.6,7.6,0,0,1,2.55-.32m-4.67,45.37,2-.21a2.14,2.14,0,0,0,1.48-.64,4.67,4.67,0,0,0,.53-2.55V35.9c0-1.7-.32-2.23-.53-2.44a1.46,1.46,0,0,0-1.06-.32h-.42l-2,.21V66.61M193.45,17c-1,0-2,.11-3.08.21L178,18.69l-2.12.21-3.71.43V84.56l4.77-.63,2.12-.22,12.4-1.48c5.73-.75,10.18-3,13.36-6.8s4.56-8.5,4.56-14.24V34.63c0-6-1.59-10.63-4.88-13.71-2.75-2.66-6.46-3.93-11-3.93Z" style="fill:#010101"/><path d="M91.72,102.83,92.15,149a1.64,1.64,0,0,1-.25,1s-.1.13-.43.17h-.16a1.91,1.91,0,0,1-.14-.81V137.21L77.5,138.63v12.31a9.76,9.76,0,0,0,1.94,6.15,10.58,10.58,0,0,0,5.38,3.57,17.1,17.1,0,0,0,5,.71,21.06,21.06,0,0,0,2.22-.12,17.56,17.56,0,0,0,7.28-2.34,13.93,13.93,0,0,0,5-5,13.55,13.55,0,0,0,1.75-6.82l-.43-45.7Z" style="fill:#fff"/><path d="M105.62,101.38l.43,45.7a13.55,13.55,0,0,1-1.75,6.82,13.93,13.93,0,0,1-5,5A17.56,17.56,0,0,1,92,161.25a21.06,21.06,0,0,1-2.22.12,17.1,17.1,0,0,1-5-.71,10.58,10.58,0,0,1-5.38-3.57,9.76,9.76,0,0,1-1.94-6.15V138.63l13.67-1.42v12.18a1.91,1.91,0,0,0,.14.81h.16c.33,0,.39-.12.43-.17a1.64,1.64,0,0,0,.25-1l-.43-46.18,13.9-1.45m4.2-4.7-4.63.48L91.29,98.6l-3.84.4,0,3.86.29,30.43-10.7,1.11-3.81.39v16.15a13.89,13.89,0,0,0,2.84,8.77,14.63,14.63,0,0,0,7.48,5,21.09,21.09,0,0,0,6.23.9,26.44,26.44,0,0,0,2.65-.14,21.86,21.86,0,0,0,9-2.92A18.18,18.18,0,0,0,108,156a17.77,17.77,0,0,0,2.32-8.95l-.42-45.74-.05-4.66Z" style="fill:#010101"/></svg>