<svg id="Layer_1" data-name="Layer 1" xmlns="http://www.w3.org/2000/svg" xmlns:xlink="http://www.w3.org/1999/xlink" viewBox="0 0 282.61 182.61"><defs><linearGradient id="linear-gradient" x1="56.94" y1="91.3" x2="225.67" y2="91.3" gradientUnits="userSpaceOnUse"><stop offset="0" stop-color="#d83327"/><stop offset="1" stop-color="#91312a"/></linearGradient></defs><title>great</title><path d="M221.14,48.05l-4.43.59-1.94.2h-.09l-23.55,2.89-1.44.15V51.7l-4.17.55-3.77.5-1.68.2-10.42,1.3-1.68.2h-.06l-3,.4-1.54.21v-.12l-4.53.6-4.44.59-1.93.2h-.1l-20.75,2.59-2,.2h-.06l-3.5.4-3.54.41v4.24A20.84,20.84,0,0,0,112,61.56c-1.18,0-2.39.11-3.56.21h-.13L97.08,63.18l-2,.2h-.05l-3.5.4L88,64.19v1.19a20.33,20.33,0,0,0-7.48-1.32c-1,0-2,.1-2.93.19l-.27,0h-.12c-6.42.85-11.5,3.52-15.08,7.95-3.44,4.15-5.2,9.55-5.2,16v26c0,6.64,2.05,12.13,5.92,15.87a18.31,18.31,0,0,0,13.18,5c1,0,2-.1,2.93-.19l.27,0h.13A25.33,25.33,0,0,0,88,132.27v1.46l4.53-.61,4.43-.59,1.94-.19H99l7.57-.9,2-.19h.1l1.6-.2,3.2-.4h.07l1.37-.2,7.7-1v0l4.52-.59,3.18-.42,1-.12.57-.08,1.65-.16h.1l20.75-2.6,1.95-.19h.06l3.5-.4,3.55-.4v0l.39-.06,7.08-.89,1.67-.2h.09l3.95-.5,3.9-.5,1.66-.2,7.6-.9.37,0v.25l4.53-.61,4.43-.59L201,120H201l7.56-.9,2-.19h.06l3.5-.4,3.54-.4V75.79l.9-.09h.06l3.5-.4,3.54-.4V47.45Z" style="fill:url(#linear-gradient)"/><path d="M76.24,129.16a12.37,12.37,0,0,1-9.1-3.4c-2.7-2.6-4-6.5-4-11.6v-26q0-7.5,3.9-12.3a16.38,16.38,0,0,1,11.2-5.8,22.86,22.86,0,0,1,2.5-.2,12.37,12.37,0,0,1,9.1,3.4c2.7,2.6,4,6.5,4,11.6v26q0,7.5-3.9,12.3a16.38,16.38,0,0,1-11.2,5.8,21.05,21.05,0,0,1-2.5.2Z" style="fill:#fff"/><path d="M80.84,72.06a10.43,10.43,0,0,1,7.7,2.8c2.3,2.2,3.4,5.6,3.4,10.1v6.2l-2,.2-7.2.9-2,.2v-6.7c0-2.3-.7-2.7-1.4-2.7h-.5c-.9.1-2,.2-2,3.1v27c0,2.2.7,2.6,1.4,2.6h.5c.9-.1,2-.2,2-3v-7.6l-1.8.2-2,.2V94.66l2-.2,11-1.4,2-.2v18.2a17.39,17.39,0,0,1-3.4,11,14.71,14.71,0,0,1-9.9,5.1,18.48,18.48,0,0,1-2.3.1,10.43,10.43,0,0,1-7.7-2.8c-2.3-2.2-3.4-5.6-3.4-10.1v-26a17.39,17.39,0,0,1,3.4-11,14.71,14.71,0,0,1,9.9-5.1,9.34,9.34,0,0,1,2.3-.2m0-4h0c-.9,0-1.8.1-2.8.2-5.3.7-9.5,2.8-12.5,6.5-2.9,3.5-4.3,8.1-4.3,13.5v26c0,5.6,1.6,10,4.7,13a14.43,14.43,0,0,0,10.4,3.9c.9,0,1.8-.1,2.8-.2,5.3-.7,9.5-2.8,12.5-6.5,2.9-3.5,4.3-8.1,4.3-13.5V94.76h0v-9.7c0-5.6-1.6-10-4.6-13a14.17,14.17,0,0,0-10.5-4Zm-4.1,45.4Z" style="fill:#010101"/><polygon points="196.37 72.32 188.37 73.22 188.37 58.12 219.97 54.32 219.97 69.42 211.97 70.42 211.97 112.72 196.37 114.62 196.37 72.32" style="fill:#fff"/><path d="M218,56.52v11.1l-2,.2-6,.7v42.3l-2,.2-7.6.9-2,.2V69.82l-6,.7-2,.2V59.62l2-.2,23.6-2.9h2m4-4.5-4.5.6-2,.2-23.6,2.9-2,.2-3.5.4v19.1l4.5-.6,2-.2,1.5-.2v42.4l4.5-.6,2-.2,7.6-.9,2-.2,3.5-.4V72.22l2.5-.3,2-.2,3.5-.4V52Z" style="fill:#010101"/><polygon points="128.85 65.31 157.66 61.71 157.66 76.81 144.46 78.51 144.46 83.51 154.96 82.21 154.96 97.31 144.46 98.61 144.46 105.71 157.66 104.01 157.66 119.21 128.85 122.71 128.85 65.31" style="fill:#fff"/><path d="M155.66,64v11.1l-2,.2-11.2,1.4v9l8.5-1,2-.2v11.1l-2,.2-8.5,1v11.1l11.2-1.4,2-.2v11.1l-2,.2-20.8,2.6-2,.2V67l2-.2,20.8-2.6,2-.2m4-4.5-4.5.6-2,.2-20.8,2.6-2,.2-3.5.4v61.4l4.5-.6,2-.2,20.8-2.6,2-.2,3.5-.4v-19.1l-4.5.6-2,.2-6.7.8v-3.1l5-.6,2-.2,3.5-.4V79.91l-4.5.6-2,.2-4,.5v-1l7.7-.9,2-.2,3.5-.4V59.51Z" style="fill:#010101"/><path d="M94.22,69.66l15.1-1.8c1-.1,2-.2,3-.2a12.88,12.88,0,0,1,8.6,2.8q3.9,3.6,3.9,11.1v3a17.76,17.76,0,0,1-2.6,9.9,7.61,7.61,0,0,1,1.2,1.9,20.55,20.55,0,0,1,1.5,8.5v8.7a24.51,24.51,0,0,0,.1,3,3.26,3.26,0,0,0,.4,1.3l2.4,5.2-16.6,2-1-2.8c-.1-.4-.3-.8-.4-1.2v4.2l-15.6,1.9Z" style="fill:#fff"/><path d="M112.32,69.56a10.82,10.82,0,0,1,7.3,2.3q3.3,3,3.3,9.6v3c0,4.9-1.5,8.1-3.3,10.1a6.5,6.5,0,0,1,2,2.6,17.91,17.91,0,0,1,1.3,7.6v8.7a29.19,29.19,0,0,0,.1,3.2,5.92,5.92,0,0,0,.5,1.9l1.2,2.7-3.1.4-7.8,1-1.4.2-.5-1.3c-.3-.9-.5-1.8-.7-2.6a33.82,33.82,0,0,1-.2-4.1v-9c0-2.5-.5-3.2-.6-3.4s-.7-.4-1.4-.4a2.49,2.49,0,0,0-.8.1l-.7.1v21.1l-2,.2-7.6.9-2,.2V71.36l2-.2,11.3-1.4c1.3-.1,2.2-.2,3.1-.2m-4.4,21.6.8-.1a3.11,3.11,0,0,0,2-.8c.2-.2.6-.9.6-2.7v-3.8a4.82,4.82,0,0,0-.5-2.6,1.22,1.22,0,0,0-.9-.3h-.5l-1.5.2v10.1m4.4-25.6c-1,0-2.1.1-3.2.2l-11.3,1.4-2,.2-3.5.4v61.4l4.5-.6,2-.2,7.6-.9,2-.2,1.6-.2h0l3.2-.4,1.4-.2,7.8-1,3.1-.4,5.5-.7-2.3-5-1.2-2.7a1.42,1.42,0,0,1-.2-.6c0-.4-.1-1.3-.1-2.8v-8.7a22.4,22.4,0,0,0-1.7-9.3l-.6-1.2a20,20,0,0,0,2.2-9.8v-3c0-5.6-1.5-9.8-4.6-12.5a16.14,16.14,0,0,0-10.2-3.2Z" style="fill:#010101"/><polygon points="167.53 60.52 184.73 58.42 193.93 114.72 178.23 116.62 176.83 107.12 175.03 107.42 173.63 117.22 158.33 119.12 167.53 60.52" style="fill:#fff"/><path d="M183,60.62l.3,1.7,7.9,48.4.4,2.3-2.3.3-7.6.9-1.7.2-.2-1.7-1.1-7.8-5.3.6-1.1,8.1-.2,1.8-1.7.2-7.1.9-2.3.3.4-2.4,7.9-50.3.3-1.7,1.7-.2,10.4-1.3,1.3-.3m-8.3,34.1,2.3-.3-1.2-8.2-1.1,8.5m11.6-38.5-3.8.5-1.7.2-10.4,1.3-1.7.2-3,.4-.5,3-.3,1.7-7.9,50.3-.3,2.3-.8,5.2,5.3-.6,2.3-.3,7.1-.9,1.7-.2,3-.4.4-3,.1-.9.5,3.8,3.9-.5,1.7-.2,7.6-.9,2.3-.3,4.1-.5-.7-4.1-.4-2.3-7.9-48.4-.3-1.7-.3-3.7Z" style="fill:#010101"/></svg>