<svg xmlns="http://www.w3.org/2000/svg" xmlns:xlink="http://www.w3.org/1999/xlink" viewBox="0 0 497.73 299.97"><defs><linearGradient id="New_Gradient_Swatch_1" x1="142" y1="149.99" x2="355.74" y2="149.99" gradientUnits="userSpaceOnUse"><stop offset="0.1" stop-color="#da3228"/><stop offset="1" stop-color="#8f3029"/></linearGradient></defs><title>hit-the-target</title><g id="Hit-a-target"><path d="M351.25,69.36l-4.49.55-2,.24-20.85,2.56L322,73l-3.51.43-4.47.55-2,.24-7.65.94-2,.24-3.51.43-.72.09-2,.24-7.64.94-2,.25-1.48.18-4.49.55-2,.24-23.63,2.9-2,.25-3.51.43-3.52.43v27.2l4.49-.55,3.5-.43v40.54a21.16,21.16,0,0,0-8.5,6.27,18.4,18.4,0,0,0-1.38,1.9c-.28-.29-.56-.57-.86-.84a17.54,17.54,0,0,0-10.56-4.31V111.13l1-.12,3.51-.43,3.51-.43V82.94l-4.48.55-4.49.55-2,.25L206,87.19l-2,.24-1.82.23-4.15.5-2,.25-7.64.94-2,.24L183,90l-4.47.55-2,.24-7.65.94-2,.25-1.1.13-3.13.39-2,.24L153,93.7l-2,.24-3.52.43L144,94.8v67.58l-2,.25v27.2l4.48-.55,3.51-.43v42.32l4.48-.55,4.49-.56,2-.24,7.64-.94,2-.24,3.14-.39,5.26-.64,2.33-.29,7.09-.87,1.72-.21,3-.37,2-.25,3-.36,1.72-.22,7.65-.93,2.33-.29,1.13-.14,1.16-.14,1.85-.23,1.48-.18,2-.24,7.64-.94,2-.25,3.05-.37,1.69-.21,1.4-.17,7.78-1,3.06-.37,5.45-.67,5.46-.67-.22-.47a22.05,22.05,0,0,0,4.54.45,26,26,0,0,0,3.25-.21,23.32,23.32,0,0,0,11.62-4.52v2.39l4.49-.55,4.49-.55,2-.24L306,212l2-.25,3.51-.43,3.52-.43,1.12-.14,4.49-.55,2-.24,7.64-.94,2-.24,3.51-.43,3.51-.44V165.62l1-.12,3.51-.43,3.51-.43V139.37l1.52-.18,3.52-.43,3.51-.43V111.12l-2.71.34V96.34l2.71-.33V68.81Z" style="fill:url(#New_Gradient_Swatch_1)"/><polygon points="150.01 100.11 165.62 98.19 165.62 118.3 165.85 118.27 165.85 98.17 181.47 96.25 181.47 153.68 165.85 155.6 165.85 133.38 165.62 133.41 165.62 155.62 150.01 157.54 150.01 100.11" style="fill:#fff"/><path d="M179.47,98.51v53.4l-2,.24-7.64.94-2,.24V131.12l-4.23.52v22.21l-2,.25L154,155l-2,.24v-53.4l2-.24,7.64-.94,2-.24v20.1l4.23-.52V99.94l2-.25,7.64-.94,2-.24m4-4.52-4.49.55-2,.24-7.64.94-2,.25-.6.07-3.62.45-2,.24-7.64.94-2,.24-3.51.43V159.8l4.49-.55,2-.24,7.65-.94,1.72-.21h0l4.49-.55,2-.25,7.65-.94,2-.24,3.52-.43V94Z"/><polygon points="185.44 95.76 201.06 93.84 201.06 151.27 185.44 153.19 185.44 95.76" style="fill:#fff"/><path d="M199.06,96.1v53.4l-2,.25-7.64.94-2,.24V97.53l2-.24,7.64-.94,2-.25m4-4.52-4.49.55-2,.25-7.65.94-2,.24-3.51.43v61.46l4.48-.55,2-.24,7.64-.94,2-.25,3.51-.43V91.58Z"/><polygon points="211.01 107.74 203.02 108.72 203.02 93.6 234.61 89.72 234.61 104.84 226.62 105.82 226.62 148.13 211.01 150.05 211.01 107.74" style="fill:#fff"/><path d="M232.61,92v11.09l-2,.24-6,.74v42.31l-2,.25-7.64.94-2,.24V105.47l-6,.74-2,.25V95.37l2-.24,23.62-2.9,2-.25m4-4.52-4.48.55-2,.25-23.62,2.9-2,.24-3.51.43V111l4.49-.55,2-.25L209,110v42.31l4.49-.55,2-.24,7.65-.94,2-.25,3.51-.43V107.59l2.5-.31,2-.24,3.51-.43V87.46Z"/><polygon points="259.92 101.73 251.93 102.71 251.93 87.6 283.52 83.72 283.52 98.83 275.54 99.81 275.54 142.13 259.92 144.04 259.92 101.73" style="fill:#fff"/><path d="M281.53,86V97.06l-2,.25-6,.73v42.32l-2,.24-7.64.94-2,.24V99.47l-6,.74-2,.24V89.37l2-.25,23.62-2.9,2-.24m4-4.52L281,82l-2,.24-23.62,2.9-2,.25-3.52.43V105l4.49-.55,2-.24,1.51-.19v42.32l4.49-.56,2-.24,7.64-.94,2-.24,3.52-.43V101.58l2.49-.3,2-.25,3.52-.43V81.46Z"/><polygon points="285.49 83.48 301.1 81.56 301.1 101.66 301.33 101.63 301.33 81.53 316.94 79.61 316.94 137.04 301.33 138.96 301.33 116.74 301.1 116.77 301.1 138.99 285.49 140.91 285.49 83.48" style="fill:#fff"/><path d="M315,81.88v53.39l-2,.25-7.64.94-2,.24V114.48l-4.23.52v22.22l-2,.24-7.64.94-2,.24V85.25l2-.25,7.64-.94,2-.24v20.1l4.23-.52V83.3l2-.24,7.64-.94,2-.24m4-4.53-4.49.56-2,.24-7.64.94-2,.24-1.1.14-3.13.38-2,.24L289,81l-2,.25-3.51.43v61.46l4.49-.55,2-.25,7.65-.94,2-.24,1.1-.14,3.13-.38,2-.24,7.64-.94,2-.25,3.52-.43V77.35Z"/><polygon points="320.93 79.13 349.74 75.59 349.74 90.7 336.54 92.32 336.54 97.31 347.03 96.02 347.03 111.13 336.54 112.42 336.54 119.53 349.74 117.91 349.74 133.02 320.93 136.56 320.93 79.13" style="fill:#fff"/><path d="M347.74,77.85V88.93l-2,.25-11.21,1.37v9l8.5-1,2-.25v11.08l-2,.25-8.5,1v11.14l11.21-1.38,2-.25v11.09l-2,.24-20.84,2.56-2,.24V80.9l2-.25,20.84-2.56,2-.24m4-4.52-4.49.55-2,.24-20.85,2.56-2,.25-3.52.43v61.46l4.49-.56,2-.24,20.84-2.56,2-.24,3.51-.43V115.64l-4.49.55-2,.25-6.73.82v-3.07l5-.61,2-.24,3.51-.44V93.76l-4.49.55-2,.25-4,.49v-1l7.7-.94,2-.25,3.51-.43V73.33Z"/><polygon points="155.99 182.07 148 183.05 148 167.94 179.59 164.06 179.59 179.17 171.6 180.15 171.6 222.47 155.99 224.38 155.99 182.07" style="fill:#fff"/><path d="M177.59,166.32V177.4l-2,.25-6,.73V220.7l-2,.24-7.64.94-2,.24V179.81l-6,.74-2,.24V169.71l2-.25,23.62-2.9,2-.24m4-4.52-4.49.55-2,.24-23.63,2.9-2,.25-3.51.43v19.14l4.48-.55,2-.24,1.52-.19v42.32l4.48-.56,2-.24,7.64-.94,2-.24,3.51-.43V181.92l2.49-.3,2-.25,3.51-.43V161.8Z"/><polygon points="184.82 163.42 201.95 161.31 211.17 217.61 195.46 219.54 194.09 210.04 192.29 210.27 190.9 220.1 175.6 221.98 184.82 163.42" style="fill:#fff"/><path d="M200.29,163.53l.27,1.66,7.92,48.4.38,2.29-2.34.28-7.64.94-1.72.21-.24-1.69-1.13-7.8-5.27.65-1.14,8.08-.25,1.75-1.71.21-7.09.87-2.34.29.38-2.39,7.92-50.34.27-1.72,1.69-.21,10.35-1.27,1.69-.21m-8.3,34,2.31-.29L193.13,189,192,197.56m11.63-38.47-3.82.47-1.69.21L187.76,161l-1.69.21-3,.37-.47,3-.27,1.72-7.92,50.34-.38,2.39-.82,5.23,5.26-.64,2.34-.29,7.08-.87,1.72-.21,3-.37.43-3,.13-.87.54,3.77,3.89-.48,1.72-.21,7.64-.93,2.33-.29,4.14-.51-.68-4.11-.37-2.29-7.92-48.4-.27-1.65-.62-3.8Z"/><path d="M212.47,160l15.07-1.85a24.1,24.1,0,0,1,3-.19c3.64,0,6.54,1,8.63,2.85,2.62,2.37,3.94,6.09,3.94,11.06v3a17.48,17.48,0,0,1-2.62,9.89,9.82,9.82,0,0,1,1.19,1.92,20.22,20.22,0,0,1,1.5,8.49v8.67a28.39,28.39,0,0,0,.12,3,3.91,3.91,0,0,0,.36,1.27l2.4,5.18-16.56,2-1-2.79c-.15-.41-.28-.82-.4-1.22v4.18l-15.61,1.92Z" style="fill:#fff"/><path d="M230.52,160c3.13,0,5.58.78,7.29,2.33,2.18,2,3.28,5.2,3.28,9.58v3c0,4.93-1.47,8.07-3.29,10.08a6.83,6.83,0,0,1,2,2.59,18.17,18.17,0,0,1,1.32,7.64v8.67a29.65,29.65,0,0,0,.13,3.19,6.26,6.26,0,0,0,.53,1.91l1.25,2.68-3.06.37-7.78,1-1.41.17-.46-1.29a11.54,11.54,0,0,1-.65-2.57,33.68,33.68,0,0,1-.16-4.06v-9c0-2.48-.48-3.21-.63-3.37a1.84,1.84,0,0,0-1.37-.39c-.24,0-.52,0-.81.05l-.66.09v21.15l-2,.25-7.64.94-2,.24v-53.4l2-.24,11.32-1.39a22.33,22.33,0,0,1,2.74-.18m-4.44,21.54.8-.09a3.06,3.06,0,0,0,2-.84,4.17,4.17,0,0,0,.59-2.69v-3.81c0-1.78-.36-2.38-.51-2.56a1.17,1.17,0,0,0-.92-.3l-.48,0-1.49.19v10.07M230.52,156a26.35,26.35,0,0,0-3.23.21L216,157.58l-2,.24-3.51.43v61.46l4.49-.55,2-.24,7.65-.94,2-.25,1.58-.19h0l3.16-.39,1.41-.17,7.78-1,3.05-.37L249,215l-2.31-5-1.25-2.68a1.93,1.93,0,0,1-.18-.64,25.89,25.89,0,0,1-.11-2.77v-8.67a22,22,0,0,0-1.69-9.33,10.51,10.51,0,0,0-.62-1.15,20.28,20.28,0,0,0,2.24-9.83v-3c0-5.56-1.54-9.78-4.59-12.54-2.47-2.24-5.83-3.37-10-3.37Z"/><path d="M259.27,212.26a12.49,12.49,0,0,1-9.06-3.35c-2.68-2.63-4-6.52-4-11.58v-26c0-5,1.31-9.1,3.9-12.26a16.5,16.5,0,0,1,11.23-5.8,20.22,20.22,0,0,1,2.53-.16,12.47,12.47,0,0,1,9.05,3.35c2.69,2.63,4.05,6.52,4.05,11.58V194c0,5-1.31,9.1-3.9,12.26a16.5,16.5,0,0,1-11.24,5.8A20.18,20.18,0,0,1,259.27,212.26Z" style="fill:#fff"/><path d="M263.83,155.16a10.5,10.5,0,0,1,7.65,2.78c2.29,2.24,3.45,5.65,3.45,10.15v6.25l-2,.24-7.22.89-2,.24V169c0-2.28-.7-2.65-1.43-2.65a4.56,4.56,0,0,0-.54,0c-.88.11-2,.24-2,3.1v27c0,2.22.7,2.58,1.43,2.58a5.09,5.09,0,0,0,.55,0c.88-.11,2-.25,2-3v-7.64l-1.83.22-2,.24V177.72l2-.24,11-1.36,2-.24V194c0,4.5-1.16,8.2-3.45,11a14.58,14.58,0,0,1-9.93,5.07,18.29,18.29,0,0,1-2.28.15,10.54,10.54,0,0,1-7.66-2.78c-2.28-2.24-3.44-5.65-3.44-10.15v-26c0-4.5,1.16-8.2,3.44-11a14.6,14.6,0,0,1,9.94-5.07,18.17,18.17,0,0,1,2.28-.15m0-4a22.18,22.18,0,0,0-2.77.18,18.43,18.43,0,0,0-12.54,6.51c-2.89,3.53-4.35,8.08-4.35,13.53v26c0,5.62,1.56,10,4.65,13a14.38,14.38,0,0,0,10.45,3.92,22.31,22.31,0,0,0,2.77-.18,18.43,18.43,0,0,0,12.54-6.51c2.88-3.53,4.35-8.08,4.35-13.53V177.89h0v-9.79c0-5.62-1.57-10-4.65-13a14.4,14.4,0,0,0-10.45-3.92Zm-4.13,45.37Z"/><polygon points="280.14 151.71 308.96 148.17 308.96 163.29 295.76 164.91 295.76 169.9 306.25 168.61 306.25 183.72 295.76 185.01 295.76 192.11 308.96 190.49 308.96 205.6 280.14 209.14 280.14 151.71" style="fill:#fff"/><path d="M307,150.44v11.08l-2,.24-11.21,1.38v9l8.5-1,2-.24V182l-2,.24-8.5,1.05v11.13L305,193l2-.24v11.08l-2,.25-20.84,2.56-2,.24v-53.4l2-.24L305,150.68l2-.24m4-4.53-4.49.55-2,.25-20.84,2.56-2,.24-3.52.43V211.4l4.49-.55,2-.24,20.84-2.56,2-.25,3.52-.43V188.23l-4.49.55-2,.24-6.72.83v-3.07l5-.62,2-.24,3.52-.43V166.35l-4.49.55-2,.24-4,.49v-.95l7.7-1,2-.24,3.52-.43V145.91Z"/><polygon points="317.59 162.23 309.6 163.21 309.6 148.09 341.19 144.22 341.19 159.33 333.2 160.31 333.2 202.62 317.59 204.54 317.59 162.23" style="fill:#fff"/><path d="M339.19,146.48v11.08l-2,.24-6,.74v42.32l-2,.24-7.64.94-2,.24V160l-6,.73-2,.25V149.86l2-.24,23.62-2.9,2-.24m4-4.52-4.48.55-2,.24-23.62,2.9-2,.24-3.51.44v19.14l4.49-.55,2-.25,1.52-.18V206.8l4.49-.55,2-.24,7.65-.94,2-.24,3.51-.44V162.08l2.5-.31,2-.24,3.51-.43V142Z"/></g></svg>