<?xml version="1.0" encoding="utf-8"?>
<!-- Generator: Adobe Illustrator 23.0.3, SVG Export Plug-In . SVG Version: 6.00 Build 0)  -->
<svg version="1.1" id="Layer_1" xmlns="http://www.w3.org/2000/svg" xmlns:xlink="http://www.w3.org/1999/xlink" x="0px" y="0px"
	 viewBox="0 0 143 143" style="enable-background:new 0 0 143 143;" xml:space="preserve">
<style type="text/css">
	.st0{opacity:0.4;fill:none;stroke:#FFFFFF;stroke-width:4;stroke-dasharray:2,13;enable-background:new    ;}
	.st1{fill:#FFFFFF;}
	.st2{fill:none;stroke:#DA3228;stroke-width:4;enable-background:new    ;}
</style>
<path id="Oval" class="st0" d="M71.5,141c38.4,0,69.5-31.1,69.5-69.5S109.9,2,71.5,2S2,33.1,2,71.5S33.1,141,71.5,141z"/>
<path id="HOLDSPACEBAR" class="st1" d="M59.7,65.5h-2.4v-4.9h-4.5v4.9h-2.4V54.1h2.4v4.5h4.5v-4.5h2.4V65.5z M73,59.8
	c0,1.9-0.5,3.3-1.4,4.4c-0.9,1-2.3,1.5-4,1.5c-1.8,0-3.1-0.5-4-1.5c-0.9-1-1.4-2.5-1.4-4.4s0.5-3.4,1.4-4.4c0.9-1,2.3-1.5,4-1.5
	s3.1,0.5,4,1.5C72.5,56.4,73,57.9,73,59.8z M64.6,59.8c0,1.3,0.2,2.2,0.7,2.9s1.2,1,2.2,1c1.9,0,2.9-1.3,2.9-3.9
	c0-2.6-1-3.9-2.9-3.9c-1,0-1.7,0.3-2.2,1C64.9,57.6,64.6,58.5,64.6,59.8z M75.3,65.5V54.1h2.4v9.4h4.6v2H75.3z M93.8,59.7
	c0,1.9-0.5,3.3-1.6,4.3c-1.1,1-2.6,1.5-4.6,1.5h-3.2V54.1h3.6c1.9,0,3.3,0.5,4.3,1.5C93.3,56.6,93.8,57.9,93.8,59.7z M91.3,59.8
	c0-2.5-1.1-3.7-3.2-3.7h-1.3v7.4h1C90.2,63.5,91.3,62.3,91.3,59.8z M39.3,84.3c0,1-0.4,1.8-1.1,2.4c-0.7,0.6-1.8,0.9-3.1,0.9
	c-1.2,0-2.3-0.2-3.2-0.7v-2.2c0.8,0.3,1.4,0.6,2,0.7s1,0.2,1.5,0.2c0.5,0,0.9-0.1,1.2-0.3c0.3-0.2,0.4-0.5,0.4-0.9
	c0-0.2-0.1-0.4-0.2-0.6c-0.1-0.2-0.3-0.3-0.6-0.5c-0.2-0.2-0.7-0.4-1.5-0.8c-0.7-0.3-1.2-0.6-1.6-0.9c-0.3-0.3-0.6-0.7-0.8-1.1
	c-0.2-0.4-0.3-0.9-0.3-1.4c0-1,0.3-1.8,1-2.4c0.7-0.6,1.6-0.9,2.8-0.9c0.6,0,1.2,0.1,1.7,0.2s1.1,0.3,1.7,0.6l-0.8,1.9
	c-0.6-0.2-1.1-0.4-1.5-0.5c-0.4-0.1-0.8-0.1-1.2-0.1c-0.5,0-0.8,0.1-1.1,0.3c-0.2,0.2-0.4,0.5-0.4,0.8c0,0.2,0,0.4,0.1,0.6
	c0.1,0.2,0.3,0.3,0.5,0.5c0.2,0.1,0.7,0.4,1.5,0.8c1.1,0.5,1.8,1,2.2,1.5S39.3,83.6,39.3,84.3z M43.8,81.5h0.8
	c0.7,0,1.3-0.1,1.7-0.4c0.4-0.3,0.6-0.7,0.6-1.3c0-0.6-0.2-1-0.5-1.3c-0.3-0.3-0.8-0.4-1.5-0.4h-1.1V81.5z M49.3,79.7
	c0,1.2-0.4,2.2-1.2,2.8c-0.8,0.7-1.9,1-3.3,1h-1v4.1h-2.4V76.1H45c1.4,0,2.4,0.3,3.2,0.9C48.9,77.6,49.3,78.5,49.3,79.7z M58.4,87.5
	l-0.8-2.7h-4.2l-0.8,2.7H50l4-11.5h3l4,11.5H58.4z M57,82.8c-0.8-2.5-1.2-3.9-1.3-4.2c-0.1-0.3-0.2-0.6-0.2-0.8
	c-0.2,0.7-0.7,2.3-1.5,4.9H57z M67.3,77.9c-0.9,0-1.6,0.3-2.1,1c-0.5,0.7-0.8,1.6-0.8,2.9c0,2.5,1,3.8,2.9,3.8
	c0.8,0,1.8-0.2,2.9-0.6v2c-0.9,0.4-2,0.6-3.1,0.6c-1.7,0-2.9-0.5-3.8-1.5c-0.9-1-1.3-2.5-1.3-4.3c0-1.2,0.2-2.2,0.6-3.1
	s1.1-1.6,1.9-2.1c0.8-0.5,1.8-0.7,2.8-0.7c1.1,0,2.2,0.3,3.3,0.8l-0.8,2c-0.4-0.2-0.9-0.4-1.3-0.5C68.2,78,67.7,77.9,67.3,77.9z
	 M79.2,87.5h-6.6V76.1h6.6v2h-4.2v2.5H79v2h-3.9v2.9h4.2V87.5z M81.6,76.1h3.6c1.6,0,2.8,0.2,3.5,0.7c0.7,0.5,1.1,1.2,1.1,2.2
	c0,0.7-0.2,1.2-0.5,1.7c-0.3,0.4-0.7,0.7-1.3,0.8v0.1c0.7,0.2,1.2,0.5,1.6,0.9c0.3,0.4,0.5,1,0.5,1.8c0,1-0.4,1.9-1.1,2.4
	c-0.8,0.6-1.8,0.9-3.1,0.9h-4.3V76.1z M84.1,80.6h1.4c0.7,0,1.1-0.1,1.4-0.3c0.3-0.2,0.4-0.5,0.4-1c0-0.4-0.2-0.8-0.5-0.9
	c-0.3-0.2-0.8-0.3-1.5-0.3h-1.3V80.6z M84.1,82.5v3h1.6c0.7,0,1.2-0.1,1.5-0.4c0.3-0.3,0.5-0.6,0.5-1.2c0-0.9-0.7-1.4-2-1.4H84.1z
	 M99.4,87.5l-0.8-2.7h-4.2l-0.8,2.7h-2.6l4-11.5h3l4,11.5H99.4z M98,82.8c-0.8-2.5-1.2-3.9-1.3-4.2c-0.1-0.3-0.2-0.6-0.2-0.8
	c-0.2,0.7-0.7,2.3-1.5,4.9H98z M105.8,81.2h0.8c0.8,0,1.3-0.1,1.7-0.4c0.4-0.3,0.5-0.7,0.5-1.2c0-0.5-0.2-0.9-0.6-1.2
	c-0.4-0.2-0.9-0.3-1.7-0.3h-0.7V81.2z M105.8,83.1v4.4h-2.4V76.1h3.3c1.6,0,2.7,0.3,3.4,0.8c0.7,0.6,1.1,1.4,1.1,2.6
	c0,0.7-0.2,1.3-0.6,1.8c-0.4,0.5-0.9,0.9-1.6,1.2c1.7,2.6,2.8,4.2,3.4,5h-2.7l-2.7-4.4H105.8z"/>
<path id="Oval_1_" class="st2" d="M71.5,141c38.4,0,69.5-31.1,69.5-69.5S109.9,2,71.5,2S2,33.1,2,71.5S33.1,141,71.5,141z"/>
</svg>
