<svg>
  <path
     id="static-oval"
     d="M71.5,141A69.5,69.5,0,1,0,2,71.5,69.5,69.5,0,0,0,71.5,141Z"
     style="fill:none;stroke:#fff;stroke-width:4px;stroke-dasharray:2,13;opacity:0.4000000059604645;isolation:isolate" />
  <path
     id="HOLDSPACEBAR"
     d="m 59.71,65.52 h -2.42 v -4.93 h -4.52 v 4.93 H 50.35 V 54.1 h 2.42 v 4.47 h 4.52 V 54.1 h 2.42 z M 73,59.79 c 0.106079,1.580321 -0.398652,3.141049 -1.41,4.36 -2.298997,2.041116 -5.761003,2.041116 -8.06,0 -1.012889,-1.222019 -1.517654,-2.786433 -1.41,-4.37 -0.109199,-1.580705 0.395898,-3.142565 1.41,-4.36 1.075123,-1.053409 2.548079,-1.598948 4.05,-1.5 1.488357,-0.09475 2.945549,0.455336 4,1.51 1.011311,1.219461 1.519189,2.778862 1.42,4.36 z m -8.34,0 c -0.07235,1.016644 0.183538,2.029664 0.73,2.89 0.512751,0.672555 1.325593,1.047137 2.17,1 1.933333,0 2.9,-1.286667 2.9,-3.86 0,-2.573333 -0.96,-3.86 -2.88,-3.86 -0.84786,-0.05053 -1.665224,0.324407 -2.18,1 -0.552916,0.837028 -0.826017,1.827895 -0.78,2.83 z m 10.7,5.73 V 54.1 h 2.43 v 9.42 h 4.63 v 2 z M 93.84,59.7 c 0.09874,1.596994 -0.486687,3.160568 -1.61,4.3 -1.292382,1.077943 -2.951037,1.615305 -4.63,1.5 H 84.36 V 54.1 H 88 c 1.583448,-0.09799 3.142027,0.429919 4.34,1.47 1.057391,1.105185 1.601696,2.603839 1.5,4.13 z m -2.52,0.06 c 0,-2.446667 -1.083333,-3.673333 -3.25,-3.68 h -1.28 v 7.44 h 1 c 2.37,0 3.53,-1.25 3.53,-3.76 z"
     style="fill:#ffffff"
     inkscape:connector-curvature="0"
     sodipodi:nodetypes="ccccccccccccccccccccccccscccccccccccccccccccscccss" />
  <path
     id="oval-anim-line"
     data-name="Oval"
     d="M71.5,141A69.5,69.5,0,1,0,2,71.5,69.5,69.5,0,0,0,71.5,141Z"
     style="fill:none;stroke:#da3228;stroke-width:4px;isolation:isolate" />
</svg>
