<svg id="Layer_1" data-name="Layer 1" xmlns="http://www.w3.org/2000/svg" xmlns:xlink="http://www.w3.org/1999/xlink" viewBox="0 0 282.61 182.61"><defs><linearGradient id="linear-gradient" x1="64.98" y1="91.3" x2="217.63" y2="91.3" gradientUnits="userSpaceOnUse"><stop offset="0" stop-color="#d83327"/><stop offset="1" stop-color="#94322a"/></linearGradient></defs><title>keep-going</title><path d="M211.86,87.07a18.1,18.1,0,0,0-13.33-5.18,27.33,27.33,0,0,0-2.93.2l-.27,0h-.12a25.71,25.71,0,0,0-8.3,2.47h-2.28V65.42a20.8,20.8,0,0,0,9.81-6.65c3.44-4.15,5.19-9.52,5.19-15.92V38c0-6.8-1.94-12.09-5.76-15.73-3.2-3.38-7.74-5.17-13.14-5.17a32.84,32.84,0,0,0-3.3.22h-.09l-8.31,1v-.18l-4.53.6-4.43.59-1.94.19H158l-17.81,2.22v-.07l-4.53.57-1.29.17-2.63.3-3.55.41v0l-19.74,2.47-2,.19h0l-3.5.4-3.55.4v.24L90.09,28l-2.33.31-4.15.49L72,30.24l-3.47.4L65,31v69.54l4.53-.6,4.5-.6.19,0a20.56,20.56,0,0,0-3.37,3.29c-3.44,4.15-5.2,9.55-5.2,16v26c0,6.64,2.05,12.13,5.92,15.88a18.34,18.34,0,0,0,13.18,5c1,0,2-.1,2.93-.19l.27,0h.13c6.3-.83,11.3-3.42,14.88-7.7a18.58,18.58,0,0,0,12.69,4.48c1,0,2-.1,2.93-.19l.27,0H119a25.75,25.75,0,0,0,8.58-2.6v1.38l4.53-.6,4.44-.6,1.93-.19h.07l4.63-.55v.16l4.53-.6,3-.4,1-.11,2.47-.28h0l1-.12h0l5.74-.68,2-.19H163l2.27-.29,3.47-.4h.07l1.5-.2,7.82-1,1.95-.2h.06l3.5-.4,3.54-.41v-1.7A20.42,20.42,0,0,0,194,153a27.39,27.39,0,0,0,2.93-.19l.27,0h.13c6.42-.85,11.49-3.52,15.08-7.95,3.44-4.14,5.19-9.54,5.19-16v-25.9C217.63,96.32,215.64,90.84,211.86,87.07Z" style="fill:url(#linear-gradient)"/><polygon points="70.88 36.41 86.48 34.51 86.48 41.21 89.68 34.11 106.48 32.11 95.08 56.21 105.38 89.61 89.18 91.61 86.48 83.01 86.48 91.91 70.88 93.91 70.88 36.41" style="fill:#fff"/><path d="M103.18,34.51,93,56.11l9.8,31.9-12.1,1.5-5.4-17.9-.6,1.3v17.3l-11.6,1.4V38.21l11.6-1.4v13.9L91.18,36l12-1.5m6.7-4.9-7.2.9L90.58,32l-2.3.3-4.2.5-11.6,1.4-3.5.4V96l4.5-.6L85.08,94l2.7-.3h0l3.3-.4,12.1-1.5,4.7-.6-1.4-4.6-9.3-30.4,9.5-20.2,3.2-6.4Z" style="fill:#010101"/><polygon points="105.43 32.01 134.23 28.51 134.23 43.61 121.03 45.21 121.03 50.21 131.53 48.91 131.53 64.01 121.03 65.31 121.03 72.41 134.23 70.81 134.23 85.91 105.43 89.51 105.43 32.01" style="fill:#fff"/><path d="M132.23,30.71v11.1l-2,.2L119,43.41v9l8.5-1,2-.2v11.1l-2,.2-8.5,1v11.1l11.2-1.4,2-.2v11.1l-2,.2-20.8,2.6-2,.2V33.81l2-.2,20.8-2.6,2-.3m4-4.5-4.5.6-2,.2-20.8,2.6-2,.2-3.5.4v61.4l4.5-.6,2-.2,20.8-2.6,2-.2,3.5-.4V68.51l-4.5.6-2,.2-6.7.8V67l5-.6,2-.2,3.5-.4V46.71l-4.5.6-2,.2-4,.5V47l7.7-.9,2-.2,3.5-.4V26.21Z" style="fill:#010101"/><polygon points="134.23 28.5 163.03 25 163.03 40.09 149.83 41.7 149.83 46.7 160.33 45.4 160.33 60.49 149.83 61.8 149.83 68.89 163.03 67.3 163.03 82.39 134.23 86 134.23 28.5" style="fill:#fff"/><path d="M161,27.19v11.1l-2,.2-11.2,1.4v9l8.5-1,2-.2v11.1l-2,.2-8.5,1v11.1l11.2-1.4,2-.2v11.1l-2,.2-20.8,2.6-2,.2V30.29l2-.2,20.8-2.6,2-.3m4-4.5-4.5.6-2,.2-20.8,2.6-2,.2-3.5.4v61.4l4.5-.6,2-.2,20.8-2.6,2-.2,3.5-.4V65l-4.5.6-2,.2-6.7.8v-3.1l5-.6,2-.2,3.5-.4V43.19l-4.5.6-2,.2-4,.5v-1l7.7-.9,2-.2L165,42V22.69Z" style="fill:#010101"/><path d="M163,25.05l15-1.8a24.52,24.52,0,0,1,2.7-.2,12.86,12.86,0,0,1,9,3.2c2.6,2.6,4,6.4,4,11.5v4.9c0,5-1.3,9.1-3.8,12.2a16.89,16.89,0,0,1-11.2,5.7v20.1l-15.6,1.9-.1-57.5Z" style="fill:#fff"/><path d="M180.73,25.05a10.54,10.54,0,0,1,7.6,2.7c2.2,2.2,3.4,5.6,3.4,10.1v4.9c0,4.5-1.1,8.2-3.4,10.9s-5.6,4.4-10,5l-1.6.2V79l-2,.2-7.6.9-2,.2V26.85l2-.2,11.3-1.4a16.41,16.41,0,0,1,2.3-.2m-4,22.6,1.6-.2a1.76,1.76,0,0,0,1.3-.6c.1-.1.4-.6.4-2.3v-5.9a4.29,4.29,0,0,0-.4-2.2,1.22,1.22,0,0,0-.9-.3h-.5l-1.6.2.1,11.3m4-26.6c-.9,0-1.9.1-2.9.2l-11.3,1.4-2,.2-3.5.4v61.5l4.5-.6,2-.2,7.6-.9,2-.2,3.5-.4V62.35a17.74,17.74,0,0,0,10.7-6.1c2.9-3.5,4.3-8,4.3-13.4V38c0-5.6-1.5-10-4.6-12.9-2.5-2.7-6-4-10.3-4Z" style="fill:#010101"/><path d="M84.63,159.56a12.37,12.37,0,0,1-9.1-3.4c-2.7-2.6-4-6.5-4-11.6v-26q0-7.5,3.9-12.3a16.38,16.38,0,0,1,11.2-5.8,22.86,22.86,0,0,1,2.5-.2,12.37,12.37,0,0,1,9.1,3.4c2.7,2.6,4,6.5,4,11.6v26q0,7.5-3.9,12.3a16.38,16.38,0,0,1-11.2,5.8,21.05,21.05,0,0,1-2.5.2Z" style="fill:#fff"/><path d="M89.23,102.46a10.43,10.43,0,0,1,7.7,2.8c2.3,2.2,3.4,5.6,3.4,10.1v6.2l-2,.2-7.2.9-2,.2v-6.7c0-2.3-.7-2.7-1.4-2.7h-.5c-.9.1-2,.2-2,3.1v27c0,2.2.7,2.6,1.4,2.6h.5c.9-.1,2-.2,2-3v-7.6l-1.8.2-2,.2v-10.9l2-.2,11-1.4,2-.2v18.2a17.39,17.39,0,0,1-3.4,11,14.71,14.71,0,0,1-9.9,5.1,18.48,18.48,0,0,1-2.3.1,10.43,10.43,0,0,1-7.7-2.8c-2.3-2.2-3.4-5.6-3.4-10.1v-26a17.39,17.39,0,0,1,3.4-11,14.71,14.71,0,0,1,9.9-5.1,9.34,9.34,0,0,1,2.3-.2m0-4h0c-.9,0-1.8.1-2.8.2-5.3.7-9.5,2.8-12.5,6.5-2.9,3.5-4.3,8.1-4.3,13.5v26c0,5.6,1.6,10,4.7,13a14.43,14.43,0,0,0,10.4,3.9c.9,0,1.8-.1,2.8-.2,5.3-.7,9.5-2.8,12.5-6.5,2.9-3.5,4.3-8.1,4.3-13.5v-16.2h0v-9.7c0-5.6-1.6-10-4.6-13a14.17,14.17,0,0,0-10.5-4Zm-4.1,45.4Z" style="fill:#010101"/><path d="M193.93,147a12.37,12.37,0,0,1-9.1-3.4c-2.7-2.6-4-6.5-4-11.6V106q0-7.5,3.9-12.3a16.38,16.38,0,0,1,11.2-5.8,22.86,22.86,0,0,1,2.5-.2,12.37,12.37,0,0,1,9.1,3.4c2.7,2.6,4,6.5,4,11.6v26q0,7.5-3.9,12.3a16.38,16.38,0,0,1-11.2,5.8,21.05,21.05,0,0,1-2.5.2Z" style="fill:#fff"/><path d="M198.53,89.89a10.43,10.43,0,0,1,7.7,2.8c2.3,2.2,3.4,5.6,3.4,10.1V109l-2,.2-7.2.9-2,.2v-6.7c0-2.3-.7-2.7-1.4-2.7h-.5c-.9.1-2,.2-2,3.1v27c0,2.2.7,2.6,1.4,2.6h.5c.9-.1,2-.2,2-3V123l-1.8.2-2,.2v-10.9l2-.2,11-1.4,2-.2v18.2a17.39,17.39,0,0,1-3.4,11,14.71,14.71,0,0,1-9.9,5.1,18.48,18.48,0,0,1-2.3.1,10.43,10.43,0,0,1-7.7-2.8c-2.3-2.2-3.4-5.6-3.4-10.1v-26a17.39,17.39,0,0,1,3.4-11,14.71,14.71,0,0,1,9.9-5.1,9.34,9.34,0,0,1,2.3-.2m0-4h0c-.9,0-1.8.1-2.8.2-5.3.7-9.5,2.8-12.5,6.5-2.9,3.5-4.3,8.1-4.3,13.5v26c0,5.6,1.6,10,4.7,13A14.43,14.43,0,0,0,194,149c.9,0,1.8-.1,2.8-.2,5.3-.7,9.5-2.8,12.5-6.5,2.9-3.5,4.3-8.1,4.3-13.5v-16.2h0v-9.7c0-5.6-1.6-10-4.6-13a14.17,14.17,0,0,0-10.5-4Zm-4.1,45.4Z" style="fill:#010101"/><path d="M115.63,157.11a12.22,12.22,0,0,1-9.1-3.4c-2.7-2.6-4.1-6.5-4.1-11.6v-26c0-4.9,1.3-9.1,4-12.3s6.5-5.2,11.4-5.8a22.75,22.75,0,0,1,2.6-.2,12.22,12.22,0,0,1,9.1,3.4c2.7,2.6,4.1,6.5,4.1,11.6v26c0,4.9-1.3,9.1-4,12.3s-6.5,5.2-11.4,5.8a24.62,24.62,0,0,1-2.6.2Z" style="fill:#fff"/><path d="M120.23,99a10.83,10.83,0,0,1,7.8,2.8c2.3,2.3,3.5,5.7,3.5,10.1v26a16.86,16.86,0,0,1-3.5,11,14.77,14.77,0,0,1-10.1,5.1,18.48,18.48,0,0,1-2.3.1,10.83,10.83,0,0,1-7.8-2.8c-2.3-2.3-3.5-5.7-3.5-10.1v-26a16.86,16.86,0,0,1,3.5-11,14.77,14.77,0,0,1,10.1-5.1,18.48,18.48,0,0,1,2.3-.1m-2.8,43.9h.5c.9-.1,2-.2,2-3.1v-26.9c0-2.3-.7-2.7-1.4-2.7H118c-.9.1-2,.2-2,3.1v26.9c0,2.3.7,2.7,1.4,2.7m2.8-47.9c-.9,0-1.8.1-2.8.2a19.35,19.35,0,0,0-12.7,6.5,20.86,20.86,0,0,0-4.4,13.5v26c0,5.6,1.6,10,4.8,13a14.51,14.51,0,0,0,10.5,3.9c.9,0,1.8-.1,2.8-.2a19.35,19.35,0,0,0,12.7-6.5,20.86,20.86,0,0,0,4.4-13.5v-26c0-5.6-1.6-10-4.7-13a14.75,14.75,0,0,0-10.6-3.9Z" style="fill:#010101"/><polygon points="133.53 96.59 149.13 94.69 149.13 152.09 133.53 153.99 133.53 96.59" style="fill:#fff"/><path d="M147.13,96.89v53.4l-2,.2-7.6.9-2,.2V98.19l2-.2,7.6-.9,2-.2m4-4.5-4.5.6-2,.2-7.6.9-2,.2-3.5.4v61.4l4.5-.6,2-.2,7.6-.9,2-.2,3.5-.4V92.39Z" style="fill:#010101"/><polygon points="149.13 94.81 165.73 92.81 166.23 94.91 166.23 92.7 181.03 90.91 181.03 148.31 166.13 150.21 163.93 141.41 163.93 150.41 149.13 152.31 149.13 94.81" style="fill:#fff"/><path d="M179,93.2v53.4l-2,.2-7.9,1-1.5.2-.4-1.5-5.4-20.6v22.7l-2,.2-6.8.8-2,.2V96.4l2-.2,9.6-1.2,1.5-.2.4,1.5,3.7,14.1V94.3l2-.2,6.8-.8,2-.1m4-4.6-4.5.6-2,.2-6.8.8-2,.2-3.5.4-.5.1-1.5.2-9.6,1.2-2,.2-3.5.4v61.4l4.5-.6,2-.2,6.8-.8,2-.2,2.3-.3h0l3.5-.4,1.5-.2,7.9-1,2-.2,3.5-.4V88.6Z" style="fill:#010101"/></svg>