<?xml version="1.0" encoding="utf-8"?>
<!-- Generator: Adobe Illustrator 23.0.1, SVG Export Plug-In . SVG Version: 6.00 Build 0)  -->
<svg version="1.1" id="Vrstva_1" xmlns="http://www.w3.org/2000/svg" xmlns:xlink="http://www.w3.org/1999/xlink" x="0px" y="0px"
	 viewBox="0 0 326.8 268.9" style="enable-background:new 0 0 326.8 268.9;" xml:space="preserve">
<style type="text/css">
	.st0{fill:url(#SVGID_1_);stroke:url(#SVGID_2_);stroke-miterlimit:10;}
	.st1{fill:#231F20;}
	.st2{fill:none;}
	.st3{fill:#020202;}
	.st4{fill:#FFFFFF;}
	.st5{stroke:#000000;stroke-width:6;stroke-miterlimit:10;}
	.st6{stroke:#231F20;stroke-width:6;stroke-miterlimit:10;}
	.st7{fill:#DA3228;}
</style>
<title>logo_red</title>
<linearGradient id="SVGID_1_" gradientUnits="userSpaceOnUse" x1="17.6214" y1="116.7378" x2="313.1114" y2="142.5878" gradientTransform="matrix(1 0 0 -1 -23 240.6)">
	<stop  offset="0.1" style="stop-color:#DA3228"/>
	<stop  offset="1" style="stop-color:#903029"/>
</linearGradient>
<linearGradient id="SVGID_2_" gradientUnits="userSpaceOnUse" x1="17.1224" y1="116.6917" x2="333.8391" y2="144.404" gradientTransform="matrix(1 0 0 -1 -23 240.6)">
	<stop  offset="0" style="stop-color:#903029"/>
	<stop  offset="0.9" style="stop-color:#DA3228"/>
</linearGradient>
<path class="st0" d="M275.2,89.1l2.5-21.5l-4.3,0.4l3-26.4l4.3-0.4l4.7-40.6l-62.3,6l-0.3,2.5c-5.1-2.2-10.7-2.9-16.2-2.3
	c-8.3,0.6-16.1,4.1-22.2,9.8L184,9.8l-38.4,3.7l-0.5-0.1l-53.5,5.1L91.2,21c-4.8-1.8-9.9-2.4-15-1.8c-18.5,1.8-31.4,15-33.6,34.4
	c-1.1,9.2,0.5,16.8,5.2,24l-8.2,0.8l-1.9,16.6c-0.6,4.3-0.4,8.7,0.4,13C20.2,110.1,7.8,123,5.6,142l-4.8,42
	c-1.5,13.6,3.1,21.6,7.2,25.8c3.5,3.6,9.8,7.6,19.8,7.6c1.2,0,2.5-0.1,3.9-0.2c8.1-0.6,15.7-4,21.7-9.4c4.1,4.1,11.5,8.6,23.9,7.4
	c3.2-0.3,6.3-1,9.4-2l95-9.1c1.7-0.2,3.3-0.4,5-0.8l-0.1,0.6l56.4-5.4v0.2l41.5-4l7.7-67l12.6-1.2l4.6-40.6L275.2,89.1z"/>
<path class="st1" d="M144.2,27.1l16.8,4.4L176.4,90l0.8,3l1.1-2.9l21.2-54.7l42.7-1.6l-8.8,56.8l-0.1,0.6l0.4,0.4l31,26.6l-2,41.6
	l-30.2,11l-55.1,5.1L113,161.6l-0.5-0.1l-0.4,0.4l-33.9,30.4l-11.8-11.6l-0.4-0.4l-0.5,0.1l-33,8.1l-11.2,0.2l10-54.6l19-8.6
	l0.4-0.2l0.1-0.4l7.7-24.4l22.8-8.7l0.7-0.2V73.5l-0.3-0.3L63.9,57.1l4.7-13.8h19.3H88l22.8-5.2l25.8-5.6h0.2l0.2-0.1L144.2,27.1
	 M144,26l-7.7,5.6l-25.8,5.6l-22.8,5.2H67.9l-5.1,15L81,73.9v17l-23.2,8.9l-7.9,24.9l-19.5,8.8L20,189.7l12.6-0.1l33.1-8.1
	l12.5,12.1l34.6-31l64.5,14.3l55.4-5.1l31-11.3l2.1-42.7l-31.4-26.9l9-58l-44.6,1.7l-21.5,55.3l-15.6-59.2L144,26L144,26z"/>
<path class="st2" d="M183,156.6l-3.4,0.3l-2.3,20l4.9-0.5c2.4-0.2,4.3-0.8,4.9-6.1l0.8-6.8C188.6,157.1,187.1,156.2,183,156.6z"/>
<path class="st2" d="M84.1,133.5c-2.2,0.2-4.3,1.1-4.9,6.1l-4.9,42.7c-0.6,5,1.4,5.5,3.6,5.3s4.3-1.1,4.9-6.1l4.9-42.7
	C88.2,133.7,86.2,133.2,84.1,133.5z"/>
<polygon class="st2" points="157.4,54 151.7,77.1 158,76.4 "/>
<path class="st2" d="M187.1,124.7l-3.8,0.4l-1.9,16.6l2.7-0.3c3.3-0.3,5.4-1.5,6-6.7l0.5-4.4C191.1,124.8,189.3,124.5,187.1,124.7z"
	/>
<polygon class="st2" points="228.1,157.9 234.4,157.3 233.8,134.8 "/>
<path class="st2" d="M84.1,133.5c-2.2,0.2-4.3,1.1-4.9,6.1l-4.9,42.7c-0.6,5,1.4,5.5,3.6,5.3s4.3-1.1,4.9-6.1l4.9-42.7
	C88.2,133.7,86.2,133.2,84.1,133.5z"/>
<path class="st2" d="M187.1,124.7l-3.8,0.4l-1.9,16.6l2.7-0.3c3.3-0.3,5.4-1.5,6-6.7l0.5-4.4C191.1,124.8,189.3,124.5,187.1,124.7z"
	/>
<path class="st2" d="M183,156.6l-3.4,0.3l-2.3,20l4.9-0.5c2.4-0.2,4.3-0.8,4.9-6.1l0.8-6.8C188.6,157.1,187.1,156.2,183,156.6z"/>
<polygon class="st2" points="157.4,54 151.7,77.1 158,76.4 "/>
<polygon class="st2" points="228.1,157.9 234.4,157.3 233.8,134.8 "/>
<path class="st2" d="M187.1,124.7l-3.8,0.4l-1.9,16.6l2.7-0.3c3.3-0.3,5.4-1.5,6-6.7l0.5-4.4C191.1,124.8,189.3,124.5,187.1,124.7z"
	/>
<path class="st2" d="M183,156.6l-3.4,0.3l-2.3,20l4.9-0.5c2.4-0.2,4.3-0.8,4.9-6.1l0.8-6.8C188.6,157.1,187.1,156.2,183,156.6z"/>
<g>
	<polygon class="st3" points="210.2,12.9 210.3,12.9 210.3,12.9 	"/>
	<path class="st3" d="M295.4,93.6l-27.8,2.8l1.6-14.3l0.8-7.4l-7.4,0.7l-13.4,1.3l0.9-7.8l11.7-1.1l4.8-0.5l0.6-4.8l1.7-15.2
		l0.8-7.4l-7.4,0.7l-9.2,0.8l0.5-4.4l16-1.5l4.8-0.5l0.5-4.8L277,15l0.8-7.3l-7.4,0.7l-36.8,3.5l-4.8,0.5l-0.6,4.8l-0.5,4.3
		c-0.5-0.8-1.1-1.5-1.7-2.2c-2.6-2.9-7.4-6.4-15.8-6.4c-1,0-2.1,0.1-3.2,0.2c-15.5,1.5-25.9,12.3-27.8,28.9l-1,8.7L177,23.1
		l-0.3-6.3l0,0l-6.3,0.6l-19.7,1.9l-2,0.2l0-0.3l0,0l-7.4,0.8l-38.2,4l-4.8,0.5l-0.6,4.8l-0.4,3.4c-0.3-0.3-0.5-0.7-0.8-1
		c-2.5-2.8-7.2-6.2-15.5-6.2l0,0c-1,0-2.1,0.1-3.2,0.2C62.3,27.1,51.9,37.8,50,54.3c-1.3,11.3,2,19.4,11.8,28.5l-10.6,1l-4.8,0.5
		l-0.5,4.8L45,95.6c-0.9,8.1,0.4,14.5,3.9,19.2c-1.8-0.4-3.8-0.7-6.1-0.7l0,0c-1,0-2.1,0.1-3.2,0.2c-15.4,1.5-25.7,12.1-27.5,28.4
		l-4.8,42c-1,8.5,0.7,15.2,4.8,19.9c2.6,2.9,7.4,6.3,15.8,6.3c1,0,2.1,0,3.2-0.1c10.1-1,18-5.9,22.8-13.8c0.8,2,2,3.9,3.4,5.5
		c2.6,2.9,7.5,6.4,16.1,6.4c1.1,0,2.2,0,3.3-0.2c8.4-0.8,15.4-4.3,20.3-9.9l-0.8,7l7.3-0.7l14-1.3l0.5-0.1l4.5-0.4l10.8-1l7.3-0.7
		l14.9-1.4l4.9-0.5l0,0l20.5-2c6.5-0.6,12.1-2.7,16.5-6l-1.3,4.9l8.6-0.8l16.2-1.4l4.2-0.4l1.1-4.1l2.6-10.2l0.2,7.5l0.2,6.4
		l6.4-0.6l15.6-1.5l0,0.1l7.4-0.7l16-1.5l4.8-0.5l0.6-4.8l7.1-62.2l7.8-0.7l4.8-0.5l0.5-4.8l1.8-15.2l0.8-7.4l0-0.1L295.4,93.6z"/>
</g>
<g>
	<path class="st4" d="M65.6,119.3c-5.8,0-10.3-1.8-13.4-5.2c-3.6-4-5-10.1-4.1-18l1-8.9l19.6-1.9c-1.1-1.2-2.3-2.4-3.6-3.4
		c-10-9-13.3-16.3-12.1-27.1c1.7-15,11.1-24.7,25.1-26c1-0.1,2-0.2,3-0.2c5.7,0,10.2,1.8,13.3,5.2c3.6,4.1,5,10.1,4.1,18.1l-0.9,7.7
		l-19.1,1.8c1.2,1.2,2.4,2.4,3.7,3.6c10.1,9,13.2,16.3,11.9,27.8c-1.8,15.2-11.2,25.1-25.4,26.5C67.7,119.4,66.6,119.4,65.6,119.3
		L65.6,119.3z M69.4,96.2c-0.1,0.6-0.1,1.2,0,1.9c0.1,0,0.3,0,0.4,0c1.1-0.1,1.8-0.2,2.2-3.6c0.5-2.5-0.1-5-1.6-7.1L69.4,96.2z
		 M77.1,49.9c-1,0.1-1.6,0.2-2,3.2c-0.3,2,0.2,4,1.3,5.7l0.8-6.9c0.1-0.7,0.1-1.3,0.1-2L77.1,49.9z"/>
	<path class="st3" d="M81.1,31.5c10.8,0,15.8,7,14.4,20l-0.6,5.3l-15.4,1.5l0.7-6.1c0.5-4.6-0.9-5.3-2.6-5.3c-0.3,0-0.5,0-0.8,0
		c-2,0.2-4.1,0.8-4.7,5.8s1.4,8.6,8,14.4c9.3,8.4,12.1,14.7,10.9,25.2c-1.6,13.9-9.9,22.6-22.7,23.9c-1,0.1-1.8,0.1-2.7,0.1
		c-10.9,0-16-7-14.5-19.9l0.8-6.5l15.4-1.5l-0.8,7.4c-0.5,4.4,1,5.2,2.8,5.2c0.3,0,0.6,0,0.8-0.1c2.2-0.2,4.3-0.8,4.9-6.2
		c0.7-5.8-1.1-9.3-7.8-15.2C57.9,71.3,55,64.9,56.1,55.1c1.6-13.7,9.7-22.2,22.4-23.4C79.4,31.6,80.3,31.5,81.1,31.5 M81.2,25.5
		L81.2,25.5c-1,0-2.1,0.1-3.2,0.2C62.4,27.2,52,37.9,50.1,54.4c-1.3,11.3,2,19.4,11.8,28.5l-10.6,1l-4.8,0.5l-0.6,4.8l-0.8,6.5
		c-1,8.8,0.6,15.7,4.8,20.4c2.5,2.9,7.3,6.2,15.7,6.2c1,0,2.2-0.1,3.3-0.2C84.6,120.7,95.1,109.8,97,93c1.4-12-1.8-20.1-11.7-29.3
		l10.2-1l4.8-0.5l0.6-4.8l0.6-5.3c1-8.8-0.6-15.7-4.8-20.4C94.1,28.9,89.4,25.5,81.2,25.5L81.2,25.5z"/>
	<polygon class="st4" points="108.2,47.4 98.7,48.6 101.1,27.2 145.4,22.6 143,44 130.4,45.2 122.7,112.2 100.6,114.3 	"/>
	<path class="st3" d="M142,26l-1.8,15.2l-12.6,1.2l-7.7,67l-16,1.5l7.7-67l-9.6,1.2l1.8-15.2L142,26 M148.8,19.2l-7.4,0.8l-38.2,4
		l-4.8,0.5l-0.6,4.8l-1.7,15.2l-0.9,7.6l7.6-0.9l2-0.2L98,110.3l-0.8,7.4l7.4-0.7l16-1.5l4.8-0.5l0.6-4.8l7.1-62.2l7.8-0.8l4.8-0.5
		l0.6-4.8l1.8-15.2L148.8,19.2L148.8,19.2z"/>
	<polygon class="st4" points="149.1,22.6 174,20.2 178,107.2 155.8,109.3 155.4,94.2 150.4,94.7 146.5,110.2 124.8,112.3 	"/>
	<path class="st3" d="M171.1,23.5l3.7,81l-16.1,1.5l-0.4-15.1l-10.3,1l-3.9,15.5l-15.2,1.5l22.6-83.5L171.1,23.5 M151.7,77.1
		l6.3-0.6L157.4,54L151.7,77.1 M176.8,16.9l-6.3,0.6l-19.7,1.9l-4.1,0.4l-1.1,4l-22.6,83.5l-2.2,8.4l8.6-0.8l15.2-1.5l4.2-0.4l1-4.1
		l2.6-10.2l0.2,7.5l0.2,6.4l6.4-0.6l16.1-1.6l5.7-0.5l-0.3-5.7l-3.7-81L176.8,16.9L176.8,16.9z"/>
	<path class="st4" d="M195.4,106.8c-5.8,0-10.5-1.9-13.6-5.4c-3.7-4.1-5.1-10.1-4.2-17.9l4.7-41.1c1.7-15.1,11.1-24.9,25.1-26.2
		c1-0.1,2-0.2,2.9-0.2c5.8,0,10.5,1.9,13.6,5.4c3.7,4.1,5.1,10.1,4.2,17.9l-4.7,41.1c-1.7,15.1-11.1,24.9-25.1,26.2
		C197.3,106.7,196.3,106.8,195.4,106.8L195.4,106.8z M199.5,83.6c-0.1,0.6-0.1,1.2-0.1,1.9h0.4c1.1-0.1,1.8-0.2,2.2-3.3l1.1-9.6
		l-2.4,0.2L199.5,83.6z M206.9,37.3h-0.4c-1,0.1-1.8,0.2-2.2,3.4l-1.2,10.6l2.4-0.2l1.4-11.9C207,38.6,207,38,206.9,37.3L206.9,37.3
		z"/>
	<path class="st3" d="M210.4,19c10.9,0,16.3,7.1,14.8,19.9l-1,8.7l-15.4,1.5l1.1-9.6c0.5-4.4-1-5.3-2.9-5.3c-0.2,0-0.5,0-0.7,0
		c-2.2,0.2-4.3,1.1-4.9,6.1l-4.9,42.8c-0.5,4.4,1,5.2,2.8,5.2c0.3,0,0.6,0,0.8,0c2.1-0.2,4.3-0.8,4.9-6l1.5-13.3l-6,0.6l1.7-15.2
		l21.4-2l-3.2,27.6c-1.6,13.8-9.8,22.4-22.4,23.6c-0.9,0.1-1.8,0.1-2.7,0.1c-10.9,0-16.3-7.1-14.8-19.9l4.7-41.1
		c1.6-13.8,9.8-22.4,22.4-23.6C208.6,19.1,209.5,19,210.4,19 M210.4,13c-1,0-2.1,0.1-3.2,0.2c-15.5,1.5-25.9,12.3-27.8,28.9
		l-4.7,41.1c-1,8.7,0.7,15.5,4.9,20.2c2.6,2.9,7.4,6.4,15.9,6.4c1,0,2.1-0.1,3.2-0.2c15.5-1.5,25.9-12.3,27.8-28.9l3.2-27.5l0,0
		l0.6-4.8l1-8.7c1-8.7-0.7-15.5-4.9-20.2C223.6,16.5,218.8,13,210.4,13L210.4,13z"/>
	<polygon class="st4" points="231.6,15.2 274.5,11.1 272.1,32.5 251.3,34.5 250.1,45 266.6,43.4 264.2,64.7 247.7,66.3 246.1,80.2 
		266.9,78.2 264.4,99.5 221.5,103.6 	"/>
	<path class="st3" d="M271.1,14.5l-1.8,15.2l-20.8,2l-1.9,16.6l16.5-1.6L261.5,62L245,63.5l-2.3,20l20.8-2l-1.7,15.2l-36.8,3.5
		l9.4-82.3L271.1,14.5 M278,7.8l-7.4,0.7L233.8,12l-4.8,0.5l-0.6,4.8l-9.5,82.3l-0.8,7.4l7.4-0.7l36.8-3.5l4.8-0.5l0.5-4.8l1.7-15.2
		l0.9-7.4l-7.4,0.7l-13.4,1.3l0.9-7.8l11.7-1.1l4.8-0.5l0.6-4.8l1.7-15.2l0.8-7.4l-7.4,0.7l-9.2,0.8l0.5-4.4l16-1.5l4.8-0.5l0.5-4.8
		l1.8-15.2L278,7.8z"/>
	<path class="st4" d="M27.9,207.9c-5.7,0-10.4-1.8-13.5-5.3c-3.6-4-5-9.9-4.1-17.5l4.8-42c1.7-14.8,11-24.5,24.9-25.8
		c1-0.1,2-0.1,2.9-0.1c5.8,0,10.4,1.8,13.5,5.3c3.6,4,5,9.9,4.1,17.5L59,152.7l-21.5,2l1.7-14.8c0.1-0.5,0.1-1,0-1.5H39
		c-0.8,0.1-1.6,0.1-1.9,3l-5,43.7c-0.1,0.5-0.1,1,0,1.4h0.2c0.9-0.1,1.6-0.1,1.9-2.9l1.9-16.4l21.5-2.1L55.6,182
		c-1.7,14.8-11,24.4-24.8,25.8C29.8,207.9,28.8,207.9,27.9,207.9z"/>
	<path class="st3" d="M42.8,120.2c10.8,0,16.1,7,14.6,19.5L56.3,150l-15.4,1.5l1.3-11.1c0.5-4.1-1.1-4.9-2.8-4.9h-0.7
		c-1.9,0.2-4.1,1-4.6,5.6l-5,43.7c-0.5,4,1,4.8,2.7,4.8c0.2,0,0.5,0,0.7,0c2-0.2,4.1-1,4.6-5.5l1.6-14l15.4-1.4l-1.5,13.1
		c-1.5,13.5-9.6,21.9-22.2,23.1c-0.9,0.1-1.8,0.1-2.7,0.1c-10.8,0-16.1-7-14.6-19.5l4.8-42c1.5-13.5,9.6-21.9,22.2-23.1
		C41.1,120.2,42,120.2,42.8,120.2 M42.9,114.2c-1,0-2.1,0.1-3.2,0.2c-15.4,1.5-25.7,12.1-27.5,28.4l-4.8,42
		c-1,8.5,0.7,15.2,4.9,19.9c2.6,2.9,7.4,6.3,15.8,6.3c1,0,2.1-0.1,3.2-0.1c15.4-1.5,25.7-12.1,27.6-28.4l1.5-13.1l0.9-7.4l-7.4,0.7
		l-15.4,1.5l-0.7,0.1l0.7-6.4l3.2-0.3l15.4-1.5l4.8-0.5l0.6-4.8l1.2-10.3c1-8.5-0.7-15.2-4.8-19.9C56.1,117.6,51.2,114.2,42.9,114.2
		L42.9,114.2z"/>
	<path class="st4" d="M73.4,205.9c-5.9,0-10.7-1.9-13.8-5.4c-3.7-4.1-5.1-10.1-4.2-17.8l4.7-41.1c1.7-15.1,11.2-24.9,25.4-26.3
		c1-0.1,2.1-0.1,3-0.1c5.9,0,10.7,1.9,13.8,5.4c3.7,4.1,5.1,10.1,4.2,17.8l-4.7,41.1c-1.7,15.1-11.2,24.9-25.5,26.3
		C75.4,205.8,74.3,205.9,73.4,205.9L73.4,205.9z M84.7,136.4h-0.4c-1,0.1-1.8,0.2-2.2,3.4l-4.9,42.7c-0.1,0.7-0.1,1.3,0,2
		c0.1,0,0.2,0,0.4,0c1-0.1,1.8-0.2,2.2-3.4l4.9-42.7C84.8,137.8,84.8,137.1,84.7,136.4z"/>
	<path class="st3" d="M88.5,118.1c11,0,16.5,7.1,15,19.9l-4.7,41.1c-1.6,13.8-9.9,22.4-22.8,23.6c-1,0.1-1.9,0.1-2.8,0.1
		c-11.1,0-16.5-7.1-15.1-19.9l4.7-41.1c1.6-13.8,9.9-22.4,22.8-23.6C86.7,118.1,87.6,118.1,88.5,118.1 M77.1,187.5
		c0.2,0,0.5,0,0.8,0c2.2-0.2,4.3-1.1,4.9-6.1l4.9-42.7c0.5-4.4-1-5.3-2.9-5.3c-0.2,0-0.5,0-0.7,0c-2.2,0.2-4.3,1.1-4.9,6.1
		l-4.9,42.7C73.7,186.6,75.2,187.5,77.1,187.5 M88.5,112.1c-1.1,0-2.2,0.1-3.3,0.2c-15.7,1.5-26.2,12.4-28.1,28.9l-4.7,41.1
		c-1,8.6,0.7,15.4,4.9,20.1c2.6,2.9,7.5,6.4,16.1,6.4c1.1,0,2.2-0.1,3.3-0.2c15.7-1.5,26.2-12.3,28.2-28.9l4.7-41.1
		c1-8.6-0.7-15.4-4.9-20.1C102,115.6,97.1,112.1,88.5,112.1L88.5,112.1z"/>
	<polygon class="st4" points="109.1,114.1 135,111.6 135.6,135.2 141.3,111 167.4,108.5 157.8,196.8 99.6,202.4 	"/>
	<path class="st3" d="M164,111.8l-8.9,82.2l-14.9,1.4l3.8-35.6l-8.9,36.1l-13.1,1.2l-1.3-35.1l-3.9,35.6l-14,1.3l8.9-82.2l20.2-1.9
		l1.1,43.5l10.6-44.7L164,111.8 M170.8,105.2l-7.3,0.7l-20.2,1.9l-4.3,0.4l-0.9,3.8l-0.1-3.7l-6.4,0.6l-20.2,1.9l-4.9,0.5l-0.5,4.9
		L97,198.4l-0.8,7.3l7.3-0.7l14-1.3l0.6-0.1l4.6-0.4l10.8-1l0,0l7.3-0.7l14.9-1.4l4.9-0.5l0.5-4.9l8.9-82.2L170.8,105.2L170.8,105.2
		z"/>
	<polygon class="st4" points="262.4,121.1 250.8,122.3 253.2,101 299.5,96.4 297.1,117.8 284.5,119 276.8,186 254.7,188.1 	"/>
	<path class="st3" d="M296.1,99.8l-1.8,15.2l-12.6,1.2l-7.7,67l-16,1.5l7.7-67l-11.6,1.2l1.7-15.2L296.1,99.8 M302.9,93l-7.4,0.7
		l-40.2,4l-4.8,0.5L250,103l-1.7,15.2l-0.9,7.4l7.4-0.8l4.2-0.4l-6.8,59.6l-0.9,7.4l7.4-0.7l16-1.5l4.8-0.5l0.6-4.8l7.1-62.2
		l7.8-0.7l4.8-0.5l0.5-4.8l1.8-15.2L302.9,93L302.9,93z"/>
	<polygon class="st4" points="224.5,103.4 250.4,101.1 254.4,188.1 232.2,190.2 231.8,175.1 226.8,175.6 222.9,191.1 200.2,193.1 	
		"/>
	<path class="st3" d="M247.5,104.3l3.7,81l-16.1,1.6l-0.4-15.1l-10.3,1l-3.9,15.5l-16.2,1.4l22.6-83.5L247.5,104.3 M228.1,157.9
		l6.3-0.6l-0.6-22.5L228.1,157.9 M253.2,97.8l-6.2,0.6l-20.7,1.9l-4.2,0.4l-1.1,4l-22.6,83.5l-2.2,8.3l8.6-0.8l16.2-1.4l4.2-0.4
		l1.1-4.1l2.6-10.2l0.2,7.5l0.2,6.4l6.4-0.6l16.1-1.5l5.7-0.6l-0.3-5.7l-3.7-81L253.2,97.8L253.2,97.8z"/>
	<path class="st4" d="M166.3,108.6l22.6-2.2c1.3-0.1,2.5-0.2,3.6-0.2c6,0,10.6,1.7,13.5,5c3.3,3.7,4.5,9.2,3.7,16.6l-0.4,3.1
		c-0.8,6.5-2.7,11.6-6,15.3c3.2,3.6,4.4,9.1,3.6,16.4l-0.8,6.7c-1.7,14.6-10.9,23.8-25.3,25.2l-24.6,2.4L166.3,108.6z M180.7,173.5
		l1.2-0.1c1.4-0.1,1.8-0.2,2.2-3.4l0.8-6.8c0.2-1.2,0.2-2.4,0-3.6c-0.1,0-0.3,0-0.6,0c-0.4,0-0.8,0-1.1,0.1l-1,0.1L180.7,173.5z
		 M184.7,138.3c1.2-0.2,1.9-0.9,2.3-4l0.5-4.4c0.1-0.8,0.1-1.5,0.1-2.3l-1.7,0.2L184.7,138.3z"/>
	<path class="st3" d="M192.5,109.3c10.9,0,15.6,6,14.2,18.3l-0.4,3.1c-0.8,7.2-3.3,12.4-7.5,15.8c4.2,2.6,5.9,8,5,15.9l-0.8,6.7
		c-1.5,13.3-9.6,21.3-22.6,22.5l-20.9,2l9.5-82.3l20.2-1.9C190.3,109.3,191.5,109.3,192.5,109.3 M181.4,141.7l2.7-0.3
		c3.3-0.3,5.4-1.5,6-6.7l0.5-4.4c0.6-4.8-0.7-5.7-2.6-5.7c-0.3,0-0.6,0-0.9,0.1l-3.8,0.4L181.4,141.7 M177.4,176.9l4.9-0.5
		c2.4-0.2,4.3-0.8,4.9-6.1l0.8-6.8c0.6-5.6-0.5-7-3.5-7c-0.4,0-0.9,0-1.4,0.1l-3.4,0.3L177.4,176.9 M192.6,103.3
		c-1.2,0-2.6,0.1-3.9,0.2l-20.3,1.9l-4.8,0.5l-0.6,4.8l-9.4,82.3l-0.8,7.4l7.4-0.7l20.9-2c16-1.5,26.2-11.7,28-27.8l0.8-6.7
		c0.9-7.9-0.5-13.1-2.8-16.7c3-4.5,4.8-9.6,5.2-15l0.4-3.1c0.9-8.3-0.5-14.6-4.4-19c-3.6-4-8.9-6-15.8-6L192.6,103.3z"/>
</g>
<path class="st5" d="M39.8,259.4c-4,0.3-5.9,0.4-9.8,0.7c1.3-8.1,3-17.3,4.8-24.4c3.8-0.9,7.6-1.7,11.5-2.2
	C43.7,242,41.5,250.7,39.8,259.4z"/>
<path class="st5" d="M83.5,231.8c-3.3,8.2-5.8,16.8-7.3,25.6c-3.6,0.9-5.4,1.3-9,2.1c-4.4-4.9-8.1-10.4-11-16.4
	c-1.5,5.1-2.5,10.4-2.9,15.8c-3.7,0.8-5.5,1.1-9.1,1.8c0.4-6.3,1.4-12.6,3-18.7l2.1-0.2c0.9-2.5,1.4-3.8,2.3-6.4
	c3-1.3,6-2.3,9.1-3.1c1.9,6.1,5,11.8,9.1,16.8c0.9-6.4,2.1-12.7,3.7-18.9C77.5,230.8,79.5,231.1,83.5,231.8z"/>
<path class="st5" d="M109.7,233c-5,0.7-10.5,1.7-16,2.8c2.9,0.5,4.3,0.7,7.2,1.2c-2.6,8.1-5,17.1-5,24.7c-3.6,0.9-7.3,1.6-11,2.2
	c0.2-9.1,3-19.2,6.5-27.6c-3.5,0.8-6.8,1.6-9.9,2.4c-2.7-2.1-4-3.1-6.7-5c8.7-2.3,16.3-3.9,24.2-5.4c0.2-0.6,0.3-0.8,0.6-1.4
	c2.8-0.6,5.7-1.2,8.5-1.6c1.4-0.2,2.8-0.5,4.1-0.6c1.2,2.5,2.1,5.1,2.8,7.8C113.4,232.4,111.6,232.7,109.7,233z"/>
<path class="st6" d="M119.6,231.6c-0.6,2.1-1.3,4.5-1.8,6.5c5-1.4,10.8-3,15.8-4.1c-1.6,3.2-2.5,4.9-4.2,8c-3.9,0.6-5.8,0.9-9.7,1.5
	c-1-1-1.5-1.5-2.5-2.5c-0.4,1.7-1.3,4.7-1.1,6.4c0.2,2,1.9,2.6,4.3,2.4c3.6-0.3,8.8-2.5,13.2-4.3c-0.1,2.8-0.2,4.2-0.4,7
	c-4.2,2.7-8.9,4.3-13.9,4.7c-7.8,0.5-12.2-2.8-12.8-8.1c-0.4-3.8,1.9-11,3.1-14.6c-1.9-2-2.9-3-4.9-4.9c6.2-2,11.7-3.4,16.5-4.8
	l0.6-1.5c4.2-1.1,9.1-2.1,13.5-3c1.2,2.4,2.2,5,2.9,7.6C132.6,228.9,125,230.4,119.6,231.6z"/>
<path class="st5" d="M169,259c-7.9-5.1-15.4-13.9-20-22c4.5-4.5,6.7-6.8,10.9-11.5c-0.2-0.9-0.3-1.3-0.5-2.2
	c-2.5,0.7-6.2,1.9-8.9,2.9c-2.6,8.9-4.3,17.9-5.1,27.1c-3.3,1.2-6.8,2.1-10.3,2.8c0-0.2,0-0.3,0-0.5c-0.4-6.4,2.1-16,5.2-26.2
	c-2.3-2.1-3.4-3.1-5.8-5c8.8-4.1,18-7.2,27.6-9.2c1.8-0.4,3.6-0.7,5.4-1c0.4,0.9,0.7,1.9,0.9,2.9c0.7,2.8,0.9,5.8,0.8,8.7
	c-3.2,3.8-6.7,7.3-10.5,10.6c5.1,5.4,12.7,12.6,20.3,16.7C175,255.5,173,256.6,169,259z"/>
<path class="st5" d="M191.4,250.8c-1.3-4.3-2.3-8.7-3-13.2c-9.1,2.6-13.6,7.8-15.9,15.4c-3.4-1.8-5.1-2.6-8.6-4.4
	c1.7-3.3,4.1-7.6,5.9-10.5l-1.4-1.8c4.1-8.1,10-15.8,15-22.2c-0.4-1.3-0.6-2-1-3.3c3.9-1.2,5.8-1.9,9.7-3.2
	c4.2,11.7,4.3,24.8,9.4,36.1C197.5,246.6,195.5,248,191.4,250.8z M186.6,227.1c-0.3-1.8-0.7-3.7-1-5.4c-2.8,4.2-5.3,8.6-7.5,13.2
	c2.5-0.6,6.8-1.7,9.5-2.2C187.2,230.9,186.9,229,186.6,227.1L186.6,227.1z"/>
<path class="st5" d="M227,207.5c-9,5.2-17.7,14.1-16.8,25.3c0.5,3.4,2.9,4.2,6.1,3.6c3-0.5,6.8-2.3,10.4-4.2c0,3.6-0.1,5.4-0.3,8.9
	c-3.2,2.9-7.3,4.9-11.6,5.6c-7.5,1.1-13.8-2.5-14.7-10.1c-0.2-2-0.1-4,0.3-6l-2.3-1.5c2.4-11.8,9.8-23.1,20.7-28.7
	C222.2,203.3,223.8,204.7,227,207.5z"/>
<path class="st5" d="M251.2,203.8c-5.1,1.5-10.2,3.2-15.2,5.1c3,0.5,4.4,0.7,7.4,1.2c-1,12.2-2.1,24.4-2.6,36.7
	c-3.7,1.7-7.5,3.2-11.3,4.4c0.7-13.9,2.5-27.7,4.3-41.5c-3.3,1.4-6.4,2.8-9.4,4.2c-3-2.9-4.5-4.3-7.6-7c7.3-3.6,14.9-6.7,22.6-9.4
	l0.2-2c2.6-1,5.3-2,8-2.8c1.4-0.4,2.6-0.8,3.9-1.1c1.9,3.5,3.5,7.1,4.9,10.8C254.8,202.9,253.1,203.3,251.2,203.8z"/>
<path class="st5" d="M261.6,237.2c-4.1,1.3-6.1,2-10.3,3.3c1.5-15.8,2.1-31.2,0.6-47c3.2-2.1,6.7-3.8,10.2-5.2
	C263.9,204.5,263.2,221,261.6,237.2z"/>
<path class="st5" d="M295.6,179.6c-2.8,19-7.7,37.4-13.7,55.5c-3.3-0.3-6.4-1.3-9.3-2.9c-1.3-6.8-3.1-15.2-4.9-22.3l-2.2-0.3
	c-1.4-5.5-3.2-11.9-4.7-17c2.8-2.5,5.8-4.6,9.1-6.2c3.6,10.6,6.6,21.5,8.8,32.5c2.5-12.7,4.3-25.5,5.4-38.4L295.6,179.6z"/>
<path class="st5" d="M304,188c0.2,3.2,0.4,7,0.6,10c4.5-2.6,9.6-5.5,14-7.6c-0.4,5-0.7,7.5-1.5,12.5c-3.6,1.4-5.4,2-9.1,3.3
	c-1.3-1.5-1.9-2.2-3.2-3.7c0.2,2.7,0.1,7.5,0.7,10.2c0.7,3.2,2.5,3.9,4.8,3.3c3.5-0.9,8.1-4.9,12-8.1c0.6,4.3,0.9,6.5,1.3,10.9
	c-3.2,4.4-7.7,7.7-13,9.1c-7.7,1.8-12.5-3-14.3-11.3c-1.2-6-1-17.6-1.1-23.3c-2.6-2.9-3.9-4.3-6.7-7.1c5.3-3.6,10-6.1,14.1-8.5
	c0-0.9-0.1-1.4-0.1-2.2c3.9-2,7.8-3.7,11.9-5.2c2.4,3.5,4.5,7.1,6.3,10.9C315.7,182.9,308.8,185.8,304,188z"/>
<path class="st7" d="M28.5,263.9c-4,0.3-6,0.5-10,0.7c1.2-8.7,3-18.6,4.8-26.2c3.9-1,7.8-1.8,11.8-2.4
	C32.4,245.2,30.2,254.5,28.5,263.9z"/>
<path class="st7" d="M73.3,234.2c-3.5,8.9-6.1,18.2-7.6,27.6c-3.7,0.9-5.6,1.4-9.2,2.2c-4.5-5.4-8.2-11.3-11.1-17.6
	c-1.6,5.6-2.6,11.2-3,17c-3.8,0.8-5.6,1.2-9.3,1.9c0.3-6.8,1.3-13.5,3-20.1l2.2-0.2c1-2.7,1.4-4.1,2.4-6.9c3-1.3,6.2-2.5,9.4-3.3
	c1.9,6.6,5,12.7,9.3,18.1c0.9-6.9,2.2-13.7,3.8-20.4C67.1,233.1,69.2,233.5,73.3,234.2z"/>
<path class="st7" d="M100.2,235.5c-5.1,0.8-10.8,1.9-16.4,3.1c3,0.5,4.4,0.8,7.4,1.3c-2.7,8.8-5.3,18.5-5.4,26.7
	c-3.7,1-7.5,1.7-11.3,2.3c0.3-9.9,3.2-20.7,6.9-29.8c-3.6,0.8-7,1.7-10.1,2.6c-2.7-2.2-4.1-3.3-6.9-5.5c8.9-2.5,16.8-4.2,24.8-5.8
	l0.6-1.5c2.8-0.7,5.9-1.3,8.8-1.8c1.5-0.2,2.9-0.5,4.3-0.7c1.2,2.7,2.1,5.5,2.9,8.4C104,235,102.1,235.2,100.2,235.5z"/>
<path class="st7" d="M110.3,234.1c-0.6,2.3-1.4,4.9-1.9,7c5.2-1.5,11.1-3.2,16.2-4.4c-1.7,3.5-2.6,5.3-4.4,8.7c-4,0.7-6,1-9.9,1.6
	c-1-1.1-1.5-1.7-2.6-2.8c-0.4,1.8-1.3,5.1-1.2,7c0.2,2.2,1.9,2.8,4.4,2.6c3.7-0.4,9-2.7,13.6-4.6c-0.2,3-0.3,4.6-0.6,7.6
	c-4.2,2.9-9.2,4.7-14.3,5.1c-7.9,0.6-12.4-3.1-13-8.8c-0.4-4.1,2.1-11.9,3.3-15.9c-2-2.1-3-3.2-5-5.3c6.4-2.2,12-3.7,16.9-5.2
	c0.2-0.6,0.3-1,0.6-1.6c4.3-1.2,9.4-2.3,13.9-3.2c1.2,2.7,2.2,5.4,3,8.2C123.7,231.1,115.8,232.8,110.3,234.1z"/>
<path class="st7" d="M160.6,263.9c-8.1-5.7-15.5-15.3-20.1-24c4.6-4.9,6.9-7.4,11.2-12.5c-0.2-1-0.3-1.5-0.5-2.4
	c-2.6,0.8-6.3,2-9.1,3.2c-2.7,9.6-4.6,19.5-5.5,29.5c-3.5,1.3-7,2.3-10.6,3c0-0.2,0-0.3,0-0.5c0-9.4,2.8-19.6,5.6-28.4
	c-2.4-2.2-3.5-3.3-5.9-5.5c9-4.4,18.4-7.8,28.2-10c1.8-0.4,3.6-0.8,5.5-1.1c0.4,1,0.8,2.1,1,3.2c0.7,3.1,1,6.3,0.9,9.4
	c-3.3,4.1-6.9,8-10.8,11.5c5.2,5.9,12.9,13.8,20.6,18.2C166.9,260.1,164.8,261.4,160.6,263.9z"/>
<path class="st7" d="M183.8,255c-1.2-4.8-2.2-9.6-2.9-14.4c-9.3,2.8-14,8.5-16.6,16.7c-3.5-1.9-5.2-2.9-8.8-4.8
	c1.8-3.5,4.3-8.3,6.2-11.4l-1.4-1.9c4.3-8.5,9.5-16.6,15.3-24.2c-0.4-1.4-0.6-2.1-1-3.6c4-1.4,5.9-2,9.8-3.4
	c4.6,12.7,4.6,27,9.8,39.3C190.1,250.5,188,252.1,183.8,255z M179,229.2c-0.3-2-0.7-4-1-5.9c-2.9,4.6-5.4,9.4-7.7,14.4
	c2.6-0.7,7-1.9,9.7-2.5C179.7,233.3,179.4,231.2,179,229.2z"/>
<path class="st7" d="M220.2,207.8c-9.5,6-17.9,15.8-17,27.7c0.5,3.7,2.9,4.6,6.2,3.9c3.1-0.6,7-2.5,10.7-4.6
	c-0.1,3.9-0.1,5.9-0.4,9.7c-3.3,3.2-7.5,5.3-12,6.1c-7.7,1.2-14-2.7-15-11.1c-0.2-2.2-0.1-4.4,0.3-6.5c-0.9-0.6-1.4-1-2.3-1.6
	c2.3-12.5,9.5-24.9,20.9-31.2C215.1,203.2,216.8,204.7,220.2,207.8z"/>
<path class="st7" d="M245,203.8c-5.2,1.6-10.4,3.5-15.4,5.6c3,0.5,4.6,0.8,7.6,1.3c-0.8,13.4-2.2,26.7-2.6,40.1
	c-3.8,1.9-7.7,3.5-11.7,4.8c1.2-15.1,2.9-30.2,4.5-45.3c-3.3,1.5-6.6,3.1-9.5,4.6c-3.1-3.1-4.7-4.7-8-7.7c7.4-3.9,15.1-7.3,23-10.2
	c0.1-0.9,0.1-1.3,0.1-2.2c2.6-1.1,5.4-2.2,8.1-3.1c1.4-0.4,2.7-0.9,4-1.2c2.1,3.8,3.8,7.7,5.3,11.8
	C248.6,202.8,246.9,203.3,245,203.8z"/>
<path class="st7" d="M255.9,240.3c-4.2,1.5-6.3,2.2-10.6,3.6c2.2-17.1,2.2-34.3,0.1-51.4c3.2-2.3,6.7-4.2,10.3-5.7
	C258.2,204.5,257.7,222.6,255.9,240.3z"/>
<path class="st7" d="M289.6,177.4c-2.4,20.6-6.7,40.9-12.9,60.7c-3.4-0.4-6.6-1.5-9.5-3.2c-1.4-7.4-3.2-16.6-5.2-24.4l-2.3-0.3
	c-1.6-6-3.6-13-5.3-18.6c2.7-2.7,5.8-5,9.1-6.8c4,11.6,7.3,23.5,9.9,35.6c2.4-13.9,3.9-27.9,4.4-41.9L289.6,177.4z"/>
<path class="st7" d="M298.6,186.5c0.4,3.5,0.7,7.7,0.9,11c4.5-2.8,9.6-6,14.1-8.3c-0.2,5.5-0.4,8.2-1.1,13.7
	c-3.7,1.5-5.5,2.2-9.2,3.6c-1.3-1.6-2-2.4-3.4-4c0.2,2.9,0.2,8.2,0.9,11.1c0.8,3.5,2.6,4.3,5,3.6c3.6-1,8.3-5.4,12.2-8.9
	c0.8,4.7,1,7.1,1.5,11.9c-3.1,4.8-7.8,8.4-13.3,10c-7.9,2-12.8-3.3-14.7-12.4c-1.3-6.6-1.4-19.3-1.7-25.5c-2.8-3.2-4.2-4.7-7.1-7.8
	c5.3-3.9,10-6.6,14-9.2c-0.1-1-0.1-1.5-0.3-2.4c3.8-2.1,7.8-4,11.9-5.7c2.6,3.8,5,7.7,7.1,11.8C310.4,180.9,303.5,184.1,298.6,186.5
	z"/>
</svg>
