<svg id="Layer_1" data-name="Layer 1" xmlns="http://www.w3.org/2000/svg" viewBox="0 0 336.04 202.52"><title>merit</title><path d="M129.09,102.15c-2.73,6.91-4.4,15.64-4.26,21.51-3.85,1.47-5.78,2.14-9.65,3.36,0-5.86,1.65-12.45,3.73-18.73a113.34,113.34,0,0,0-10.29,10.31l1,.91c-1.94,1.87-4.15,4.24-6.08,6.36a66.19,66.19,0,0,1-7.88-12.07,63.9,63.9,0,0,0-4,12.38c-3.79.59-5.69.84-9.49,1.28a68.57,68.57,0,0,1,4.57-13l1.88-.22c1.1-2.24,1.65-3.39,2.74-5.75,2.6-1,7.23-2.48,10.43-3.46a30.64,30.64,0,0,0,3.67,9.24c3.91-3.87,9.88-9.55,14.76-14.24C123.76,100.77,125.53,101.2,129.09,102.15Z"/><path d="M145.25,101.29c-.88.86-1.45,4.41-1.94,6.21,4.81-1.69,10.32-3.77,15.07-5.34-1.64,3.38-2.47,5-4.13,8.19-3.69.88-5.53,1.29-9.21,2.09-1-.88-1.44-1.32-2.4-2.17-.36,1.59-1.22,4.41-1,6,.26,1.86,1.89,2.31,4.19,2,3.44-.46,8.36-2.75,12.56-4.73-.06,2.76-.09,4.13-.16,6.87a25.89,25.89,0,0,1-13.13,4.77c-7.46.6-12-2.35-12.63-6.93-.47-3.29,1.89-9.82,3.19-13.21-1.74-1.6-2.61-2.38-4.35-3.87,6-2.5,11.24-4.54,15.89-6.5.26-.6.39-.9.64-1.51,4.07-1.64,8.82-3.42,13-4.92a54.38,54.38,0,0,1,2.22,7.36C157.73,97.2,147.26,99.34,145.25,101.29Z"/><path d="M197.44,126.18a69,69,0,0,1-20.29-23.55c4.3-5.19,6.45-8,10.72-13.87-.12-1-.18-1.5-.29-2.49-2.42,1.13-6,2.94-8.59,4.46a95.4,95.4,0,0,0-4.81,29.44,59.48,59.48,0,0,1-9.69,3.16l-.06-.45c-.77-8.79,1.84-19,4.67-27.33C167,93.66,166,92.75,163.92,91a174.92,174.92,0,0,1,26.89-14.39c1.72-.72,4.8-2.28,5.2-2.06s.45,2.1.59,3.35a49.65,49.65,0,0,1,.09,10.1,112.17,112.17,0,0,1-10.34,13.15c4.82,5.55,12.47,13.32,20.15,18C202.89,122.12,201.07,123.52,197.44,126.18Z"/><path d="M211,115.26c-3.92,1.27-5.88,1.87-9.79,3q2.4-23.58,5.27-47.11a93,93,0,0,1,11-7.24C215,81,212.74,98.09,211,115.26Z"/><path d="M246.89,63.33c-4.73,2.29-10,5.3-15.2,8.4,2.75.23,4.13.36,6.88.66-1.8,14.81,1.18,32.41-3.48,44.9-.59,1.58-7.32,3.87-10.56,5A273.22,273.22,0,0,1,229.48,73c-3.3,2.07-6.48,4.18-9.4,6.19-2.55-3.06-3.83-4.53-6.37-7.35,8.27-5.9,15.59-10.47,23.1-15,.24-1.06.36-1.59.59-2.66,2.66-1.77,5.48-3.5,8.17-5,1.37-.77,2.69-1.52,4-2.16.85,3.28,2,10,2.51,14C250.46,61.6,248.73,62.45,246.89,63.33Z"/><path d="M128.94,106.07c-2.6,6.67-4.19,15.14-4.06,20.86-3.67,1.38-5.5,2-9.18,3.16,0-5.72,1.57-12.12,3.55-18.22a105.52,105.52,0,0,0-9.8,9.92l1,.9c-1.84,1.8-4,4.09-5.78,6.14a65.29,65.29,0,0,1-7.51-11.9A63.52,63.52,0,0,0,93.31,129c-3.61.54-5.42.77-9,1.17a67.24,67.24,0,0,1,4.35-12.78l1.79-.19c1-2.18,1.57-3.3,2.61-5.61,2.47-1,6.88-2.32,9.93-3.23a30.45,30.45,0,0,0,3.5,9.1c3.72-3.73,9.4-9.18,14-13.67C123.86,104.64,125.55,105.09,128.94,106.07Z" style="fill:#da3228"/><path d="M144.33,105.52c-.85.81-1.38,4.24-1.84,6,4.58-1.57,9.83-3.48,14.35-4.92-1.57,3.23-2.36,4.8-3.94,7.85-3.51.79-5.26,1.16-8.77,1.88-.91-.87-1.37-1.3-2.28-2.14-.34,1.53-1.16,4.26-1,5.77.25,1.8,1.8,2.26,4,2,3.28-.39,8-2.54,12-4.39-.06,2.66-.09,4-.16,6.64a24.21,24.21,0,0,1-12.49,4.44c-7.11.48-11.4-2.44-12-6.89-.45-3.21,1.8-9.51,3-12.78-1.66-1.59-2.49-2.35-4.14-3.83,5.73-2.33,10.69-4.21,15.12-6,.25-.58.37-.87.61-1.46,3.88-1.51,8.4-3.14,12.41-4.51a53.63,53.63,0,0,1,2.11,7.15C156.22,101.77,146.25,103.68,144.33,105.52Z" style="fill:#da3228"/><path d="M194,130.33a67.41,67.41,0,0,1-19.32-23c4.1-4.93,6.14-7.56,10.21-13.17-.11-1-.17-1.44-.28-2.39-2.3,1-5.68,2.71-8.18,4.13a91.86,91.86,0,0,0-4.58,28.29,56.92,56.92,0,0,1-9.22,2.92l-.06-.45c-.77-6.24,1.19-15.66,4.45-26.3-2-1.86-3-2.76-4.93-4.48a158.82,158.82,0,0,1,25.6-13.35c1.64-.66,4.57-2.08,4.95-1.87s.43,2,.56,3.23a48,48,0,0,1,.08,9.71,105.23,105.23,0,0,1-9.83,12.46c4.58,5.43,11.87,13,19.18,17.62C199.21,126.5,197.49,127.82,194,130.33Z" style="fill:#da3228"/><path d="M206.91,120c-3.73,1.15-5.59,1.7-9.32,2.74q2.28-22.61,5-45.15A85.69,85.69,0,0,1,213,70.92C210.73,87.27,208.6,103.61,206.91,120Z" style="fill:#da3228"/><path d="M241.12,71c-4.5,2.09-9.55,4.86-14.47,7.72,2.62.27,3.93.43,6.55.77-1.72,14.18.85,30.85-3.32,42.9-.49,1.43-7,3.6-10,4.6a262,262,0,0,1,4.72-47.08c-3.14,1.92-6.17,3.88-9,5.75-2.43-3-3.64-4.42-6.06-7.18,7.87-5.49,14.85-9.71,22-13.88.23-1,.34-1.51.57-2.52,2.53-1.64,5.22-3.24,7.78-4.62,1.3-.71,2.56-1.4,3.77-2,.81,3.15,1.88,9.58,2.39,13.38C244.52,69.38,242.87,70.16,241.12,71Z" style="fill:#da3228"/></svg>