<?xml version="1.0" encoding="utf-8"?>
<!-- Generator: Adobe Illustrator 23.0.1, SVG Export Plug-In . SVG Version: 6.00 Build 0)  -->
<svg version="1.1" id="Layer_1" xmlns="http://www.w3.org/2000/svg" xmlns:xlink="http://www.w3.org/1999/xlink" x="0px" y="0px"
	 viewBox="0 0 497.7 300" style="enable-background:new 0 0 497.7 300;" xml:space="preserve">
<style type="text/css">
	.st0{fill:url(#SVGID_1_);}
	.st1{fill:#FFFFFF;}
</style>
<title>actors</title>
<linearGradient id="SVGID_1_" gradientUnits="userSpaceOnUse" x1="140.1065" y1="149.985" x2="357.6235" y2="149.985" gradientTransform="matrix(0.9925 -0.1219 0 1.0075 1.8442 29.0264)">
	<stop  offset="0.1" style="stop-color:#DA3228"/>
	<stop  offset="1" style="stop-color:#8F3029"/>
</linearGradient>
<path class="st0" d="M350.4,104.4c-4.5-4.4-10.7-6.1-18.5-5.1l-15.3,1.9l-5,0.6l-27.8,3.4l-5,0.6l-5,0.6v1c-2.7-0.7-6-1-9.9-0.6
	c-6.7,0.8-12.5,3.6-16.8,8c-3.3-2.6-8.6-4.9-16.7-3.9c-3.7,0.5-7.2,1.5-10.2,3.1V113l-5,0.6l-5,0.6l-12.7,1.6L196,116l-3.4,0.4
	l-1.5,0.2l-16.2,2l-3.5,0.4l-4.3,0.5l-16.2,2l-5,0.6l-5,0.6v5v5v60.5v5v5l5-0.6l5-0.6l11.6-1.4l5-0.6l8.6-1.1l4.3-0.5l10.8-1.3
	l1.5-0.2l3.4-0.4l1.5-0.2l12.7-1.6l5-0.6l5-0.6v-0.9c2.7,0.7,6,1,9.9,0.5c6.7-0.8,12.5-3.6,16.8-8c3.3,2.6,8.7,4.8,16.7,3.8
	c3.7-0.5,7.2-1.5,10.2-3.1v1l5-0.6l5-0.6l27.8-3.4l5-0.6l15.4-1.9c7.8-1,14-4.2,18.5-9.7c4.3-5.2,6.5-11.7,6.5-19.4v-28.5
	C356.8,114.6,354.6,108.6,350.4,104.4z"/>
<g>
	<g>
		<polygon class="st1" points="170.9,157.6 167,129.6 150.8,131.6 150.8,192.1 162.4,190.6 162.4,171.7 165.2,190.3 176,189 
			178.8,169.7 178.8,188.6 191,187.1 191,126.7 174.8,128.7 		"/>
		<path d="M191,126.7v60.5l-12.2,1.5v-19L176,189l-10.7,1.3l-2.8-18.6v19l-11.6,1.4v-60.5l16.2-2l3.9,27.9l3.9-28.9L191,126.7
			 M196,121l-5,0.6l-16.2,2l-3.5,0.4l-4.3,0.5l-16.2,2l-5,0.6v5v60.5v5l5-0.6l11.6-1.4l5-0.6l8.6-1.1l4.3-0.5l10.8-1.3l5-0.6v-5
			v-60.5V121L196,121z"/>
	</g>
	<g>
		<polygon class="st1" points="197.5,186.3 210.2,184.8 210.2,124.3 197.5,125.9 		"/>
		<path d="M210.2,124.3v60.5l-12.7,1.6v-60.5L210.2,124.3 M215.2,118.7l-5,0.6l-12.7,1.6l-5,0.6v5v60.5v5l5-0.6l12.7-1.6l5-0.6v-5
			v-60.5V118.7L215.2,118.7z"/>
	</g>
	<g>
		<path class="st1" d="M235,146.6c-2.7-2.1-4.6-3.8-5.5-5.3c-0.9-1.4-1.3-2.8-1.3-4.5c0-3.4,1.4-3.6,2.4-3.7
			c1.1-0.1,1.5,0.2,1.7,0.4c0.2,0.3,0.6,1,0.6,2.9v4.9l12.2-1.5v-4.4c0-5.1-1.3-8.9-3.7-11.4c-2.5-2.6-6.2-3.6-11-3
			c-4.8,0.6-8.5,2.5-11.1,5.7c-2.6,3.1-3.9,7.2-3.9,12.2c0,3.6,0.8,6.8,2.4,9.5c1.6,2.6,4.2,5.4,8,8.3c2.7,2,4.5,3.8,5.5,5.3
			c0.9,1.4,1.3,3,1.3,5.1c0,1.9-0.4,2.7-0.7,3.1c-0.1,0.2-0.6,0.7-1.9,0.9c-1.3,0.2-2.5,0-2.5-3.2V162l-12.2,1.5v5.2
			c0,5.1,1.3,8.9,3.8,11.4c2.6,2.6,6.3,3.6,11.1,3c4.8-0.6,8.6-2.5,11.3-5.7c2.6-3.2,3.9-7.4,3.9-12.5c0-3.9-0.8-7.2-2.3-9.9
			C241.4,152.3,238.8,149.6,235,146.6z"/>
		<path d="M230.4,121c4.8-0.6,8.4,0.4,11,3c2.5,2.5,3.7,6.3,3.7,11.4v4.4l-12.2,1.5v-4.9c0-1.9-0.4-2.6-0.6-2.9
			c-0.2-0.2-0.6-0.5-1.7-0.4c-1,0.1-2.4,0.3-2.4,3.7c0,1.7,0.4,3.1,1.3,4.5c1,1.5,2.8,3.3,5.5,5.3c3.9,2.9,6.5,5.7,8,8.4
			c1.5,2.7,2.3,6.1,2.3,9.9c0,5.1-1.3,9.3-3.9,12.5c-2.6,3.2-6.4,5.1-11.3,5.7c-4.8,0.6-8.5-0.4-11.1-3c-2.5-2.5-3.8-6.3-3.8-11.4
			v-5.2l12.2-1.5v5.9c0,3.2,1.2,3.3,2.5,3.2c1.3-0.2,1.7-0.7,1.9-0.9c0.2-0.3,0.7-1.1,0.7-3.1c0-2-0.4-3.7-1.3-5.1
			c-0.9-1.5-2.8-3.3-5.5-5.3c-3.8-2.9-6.4-5.7-8-8.3c-1.6-2.7-2.4-5.9-2.4-9.5c0-5,1.3-9.1,3.9-12.2
			C221.9,123.5,225.6,121.6,230.4,121 M230.4,116c-6.1,0.8-11.3,3.4-14.8,7.8c-3.4,4.2-5.2,9.5-5.2,15.8c0,4.5,1,8.5,3,11.9
			c1.3,2.2,3.1,4.4,5.6,6.6l-3.8,0.5l-5,0.6v5v5.2c0,6.3,1.7,11.3,5,14.6c2.4,2.4,7,5.1,14.8,4.2c6.2-0.8,11.4-3.5,14.9-7.8
			c3.5-4.2,5.2-9.6,5.2-16.1c0-4.7-1-8.8-2.9-12.2c-1.3-2.3-3.1-4.5-5.7-6.8l3.4-0.4l5-0.6v-5v-4.4c0-6.3-1.7-11.2-5-14.6
			C242.7,117.8,238.2,115.1,230.4,116L230.4,116z M233.1,135.6C233.1,135.6,233.1,135.6,233.1,135.6L233.1,135.6L233.1,135.6z"/>
	</g>
	<g>
		<path class="st1" d="M268.5,142.5c-2.7-2.1-4.6-3.8-5.5-5.3c-0.9-1.4-1.3-2.8-1.3-4.5c0-3.4,1.4-3.6,2.4-3.7
			c1.1-0.1,1.5,0.2,1.7,0.4c0.2,0.3,0.6,1,0.6,2.9v4.9l12.2-1.5v-4.4c0-5.1-1.3-8.9-3.7-11.4c-2.5-2.6-6.2-3.6-11-3
			c-4.8,0.6-8.5,2.5-11.1,5.7c-2.6,3.1-3.9,7.2-3.9,12.2c0,3.6,0.8,6.8,2.4,9.5c1.6,2.6,4.2,5.4,8,8.3c2.7,2,4.5,3.8,5.5,5.3
			c0.9,1.4,1.3,3,1.3,5.1c0,1.9-0.4,2.7-0.7,3.1c-0.1,0.2-0.6,0.7-1.9,0.9c-1.3,0.2-2.5,0-2.5-3.2v-5.9l-12.2,1.5v5.2
			c0,5.1,1.3,8.9,3.8,11.4c2.6,2.6,6.3,3.6,11.1,3c4.8-0.6,8.6-2.5,11.3-5.7c2.6-3.2,3.9-7.4,3.9-12.5c0-3.9-0.8-7.2-2.3-9.9
			C274.9,148.2,272.3,145.4,268.5,142.5z"/>
		<path d="M263.9,116.9c4.8-0.6,8.4,0.4,11,3c2.5,2.5,3.7,6.3,3.7,11.4v4.4l-12.2,1.5v-4.9c0-1.9-0.4-2.6-0.6-2.9
			c-0.2-0.2-0.6-0.5-1.7-0.4c-1,0.1-2.4,0.3-2.4,3.7c0,1.7,0.4,3.1,1.3,4.5c1,1.5,2.8,3.3,5.5,5.3c3.9,2.9,6.5,5.7,8,8.4
			c1.5,2.7,2.3,6.1,2.3,9.9c0,5.1-1.3,9.3-3.9,12.5c-2.6,3.2-6.4,5.1-11.3,5.7c-4.8,0.6-8.5-0.4-11.1-3c-2.5-2.5-3.8-6.3-3.8-11.4
			v-5.2l12.2-1.5v5.9c0,3.2,1.2,3.3,2.5,3.2c1.3-0.2,1.7-0.7,1.9-0.9c0.2-0.3,0.7-1.1,0.7-3.1c0-2-0.4-3.7-1.3-5.1
			c-0.9-1.5-2.8-3.3-5.5-5.3c-3.8-2.9-6.4-5.7-8-8.3c-1.6-2.7-2.4-5.9-2.4-9.5c0-5,1.3-9.1,3.9-12.2
			C255.4,119.4,259.1,117.5,263.9,116.9 M263.9,111.9c-6.1,0.8-11.3,3.4-14.8,7.8c-3.4,4.2-5.2,9.5-5.2,15.8c0,4.5,1,8.5,3,11.9
			c1.3,2.2,3.1,4.4,5.6,6.6l-3.8,0.5l-5,0.6v5v5.2c0,6.3,1.7,11.3,5,14.6c2.4,2.4,7,5.1,14.8,4.2c6.2-0.8,11.4-3.5,14.9-7.8
			c3.5-4.2,5.2-9.6,5.2-16.1c0-4.7-1-8.8-2.9-12.2c-1.3-2.3-3.2-4.5-5.7-6.8l3.4-0.4l5-0.6v-5v-4.4c0-6.3-1.7-11.2-5-14.6
			C276.2,113.7,271.7,110.9,263.9,111.9L263.9,111.9z M266.6,131.5C266.6,131.5,266.6,131.5,266.6,131.5L266.6,131.5L266.6,131.5z"
			/>
	</g>
	<g>
		<polygon class="st1" points="283.8,175.7 311.5,172.3 311.5,160.2 296.5,162.1 296.5,148.8 308.4,147.3 308.4,135.2 296.5,136.7 
			296.5,125.8 311.5,124 311.5,111.9 283.8,115.3 		"/>
		<path d="M311.5,111.9V124l-15.1,1.9v10.9l12-1.5v12.1l-12,1.5v13.3l15.1-1.9v12.1l-27.8,3.4v-60.5L311.5,111.9 M316.5,106.2
			l-5,0.6l-27.8,3.4l-5,0.6v5v60.5v5l5-0.6l27.8-3.4l5-0.6v-5v-12.1v-5l-5,0.6l-10.1,1.2v-3.2l7-0.9l5-0.6v-5v-12.1v-5l-5,0.6
			l-7,0.9v-0.8l10.1-1.2l5-0.6v-5v-12.1V106.2L316.5,106.2z"/>
	</g>
	<g>
		<path class="st1" d="M343.1,112.2c-2.6-2.5-6.3-3.4-11.2-2.8l-15.3,1.9v60.5l15.3-1.9c4.9-0.6,8.7-2.5,11.2-5.6
			c2.5-3,3.8-7.2,3.8-12.2v-28.5C346.9,118.4,345.6,114.6,343.1,112.2z M329.2,121.8l2.5-0.3c1.3-0.2,1.7,0.3,1.8,0.4
			c0.2,0.2,0.6,0.9,0.6,2.8V154c0,1.8-0.4,2.6-0.6,2.9c-0.2,0.3-0.7,0.7-1.8,0.9l-2.5,0.3V121.8z"/>
		<path d="M331.9,109.4c4.9-0.6,8.7,0.3,11.2,2.8c2.5,2.4,3.8,6.2,3.8,11.3V152c0,5.1-1.3,9.2-3.8,12.2c-2.6,3.1-6.3,5-11.2,5.6
			l-15.3,1.9v-60.5L331.9,109.4 M329.2,158.1l2.5-0.3c1.1-0.1,1.6-0.6,1.8-0.9c0.2-0.3,0.6-1.1,0.6-2.9v-29.3c0-1.8-0.4-2.5-0.6-2.8
			c-0.1-0.1-0.6-0.6-1.8-0.4l-2.5,0.3V158.1 M331.9,104.4l-15.3,1.9l-5,0.6v5v60.5v5l5-0.6l15.3-1.9c6.3-0.8,11.3-3.3,14.8-7.6
			c3.4-4.1,5.1-9.4,5.1-15.8v-28.5c0-6.4-1.7-11.3-5.1-14.6C343.2,104.9,338.2,103.6,331.9,104.4L331.9,104.4z"/>
	</g>
</g>
</svg>
