<svg version="1.1" id="circle--anim" xmlns="http://www.w3.org/2000/svg" xmlns:xlink="http://www.w3.org/1999/xlink" x="0px" y="0px"
	 viewBox="0 0 143 143" style="enable-background:new 0 0 143 143;" xml:space="preserve">
<style type="text/css">
	.st0{opacity:0.4;fill:none;stroke:#FFFFFF;stroke-width:4;stroke-dasharray:2,13;enable-background:new    ;}
	.st1{fill:#FFFFFF;}
</style>
<g id="Screens">
	<g transform="translate(-1554.000000, -706.000000)">
		<g id="circle-count" transform="translate(1552.000000, 704.000000)">
			<g id="Group" transform="translate(4.000000, 4.000000)">
				<path  id="static-oval" class="st0" d="M69.5,139c38.4,0,69.5-31.1,69.5-69.5S107.9,0,69.5,0S0,31.1,0,69.5S31.1,139,69.5,139z"/>
			</g>
		</g>
	</g>
</g>
<g>
	<path class="st1" d="M44.3,60.5V67h6.3v-6.5h3.8v16.8h-3.8v-7h-6.3v7h-3.8V60.5H44.3z"/>
	<path class="st1" d="M73.1,68.8c0,5.5-3.3,8.9-8.3,8.9c-5,0-7.9-3.8-7.9-8.6c0-5,3.2-8.8,8.2-8.8C70.3,60.2,73.1,64.1,73.1,68.8z
		 M61,69c0,3.3,1.5,5.6,4.1,5.6c2.6,0,4-2.4,4-5.7c0-3-1.4-5.6-4.1-5.6C62.5,63.3,61,65.7,61,69z"/>
	<path class="st1" d="M75.6,60.5h3.8v13.6h6.7v3.2H75.6V60.5z"/>
	<path  id="oval-anim-line" class="st1" d="M88.4,60.7c1.4-0.2,3.2-0.3,5.1-0.3c3.2,0,5.3,0.6,6.9,1.8c1.8,1.3,2.8,3.4,2.8,6.3c0,3.2-1.2,5.4-2.8,6.8
		c-1.8,1.5-4.5,2.2-7.8,2.2c-2,0-3.4-0.1-4.3-0.2V60.7z M92.2,74.5c0.3,0.1,0.8,0.1,1.3,0.1c3.4,0,5.7-1.9,5.7-5.9
		c0-3.5-2-5.3-5.3-5.3c-0.8,0-1.4,0.1-1.7,0.1V74.5z"/>
</g>
</svg>
