<?xml version="1.0" encoding="UTF-8" standalone="no"?>
<!-- Generator: Adobe Illustrator 23.0.4, SVG Export Plug-In . SVG Version: 6.00 Build 0)  -->

<svg
   xmlns:dc="http://purl.org/dc/elements/1.1/"
   xmlns:cc="http://creativecommons.org/ns#"
   xmlns:rdf="http://www.w3.org/1999/02/22-rdf-syntax-ns#"
   xmlns:svg="http://www.w3.org/2000/svg"
   xmlns="http://www.w3.org/2000/svg"
   xmlns:sodipodi="http://sodipodi.sourceforge.net/DTD/sodipodi-0.dtd"
   xmlns:inkscape="http://www.inkscape.org/namespaces/inkscape"
   version="1.1"
   id="Layer_1"
   x="0px"
   y="0px"
   viewBox="0 0 318.46844 298.62903"
   xml:space="preserve"
   sodipodi:docname="newlogo2.svg"
   width="318.46844"
   height="298.62903"
   inkscape:version="0.92.4 (5da689c313, 2019-01-14)"><metadata
   id="metadata69"><rdf:RDF><cc:Work
       rdf:about=""><dc:format>image/svg+xml</dc:format><dc:type
         rdf:resource="http://purl.org/dc/dcmitype/StillImage" /><dc:title>fight-direction</dc:title></cc:Work></rdf:RDF></metadata><defs
   id="defs67" /><sodipodi:namedview
   pagecolor="#ffffff"
   bordercolor="#666666"
   borderopacity="1"
   objecttolerance="10"
   gridtolerance="10"
   guidetolerance="10"
   inkscape:pageopacity="0"
   inkscape:pageshadow="2"
   inkscape:window-width="1920"
   inkscape:window-height="1137"
   id="namedview65"
   showgrid="false"
   inkscape:zoom="1.8015097"
   inkscape:cx="351.3675"
   inkscape:cy="120.32416"
   inkscape:window-x="-8"
   inkscape:window-y="-8"
   inkscape:window-maximized="1"
   inkscape:current-layer="Layer_1" />
<style
   type="text/css"
   id="style2">
	.st0{fill:url(#SVGID_1_);}
	.st1{fill:#FFFFFF;}
	.st2{fill:#070707;}
</style>
<title
   id="title4">fight-direction</title>
<g
   id="g62"
   transform="matrix(1.9891846,0,0,1.9891846,-335.97328,-148.34074)">
	<linearGradient
   id="SVGID_1_"
   gradientUnits="userSpaceOnUse"
   x1="168.815"
   y1="149.6797"
   x2="328.91501"
   y2="149.6797">
		<stop
   offset="0.1"
   style="stop-color:#DA3228"
   id="stop6" />
		<stop
   offset="1"
   style="stop-color:#8F3029"
   id="stop8" />
	</linearGradient>
	<path
   class="st0"
   d="m 284.5,76.3 13.6,-1.6 c 9.6,-1.2 18,6.3 18,16 v 14.9 l -4.2,0.5 c 0,0 3.9,5.1 4.2,15 0,0 0.8,9.9 -3.2,16.7 l 5.1,-0.6 2,-0.2 4.5,-0.6 4.5,-0.5 V 163 l -3.5,0.4 -3.5,0.4 -1,0.1 v 42.3 L 168.9,224.7 V 166 155.4 90.3 L 262.7,79 Z"
   id="path11"
   style="fill:url(#SVGID_1_)"
   inkscape:connector-curvature="0" />
	<g
   id="Fight-Direction">
		<polygon
   class="st1"
   points="203,157.1 203,172.2 190.4,173.7 190.4,179.4 200.3,178.2 200.3,193.3 190.4,194.5 190.4,216 174.8,217.9 174.8,160.5 "
   id="polygon13"
   style="fill:#ffffff" />
		<path
   d="m 201,159.3 v 11.1 l -2,0.2 -10.6,1.3 v 9.7 l 7.9,-1 2,-0.2 v 11.1 l -2,0.2 -7.9,1 v 21.5 l -2,0.2 -7.7,0.9 -2,0.2 v -53.4 l 2,-0.2 20.2,-2.5 2.1,-0.1 m 4,-4.5 -4.5,0.6 -2,0.2 -20.2,2.5 -2,0.2 -3.5,0.4 v 61.5 l 4.5,-0.6 2,-0.2 7.6,-0.9 2,-0.2 3.5,-0.4 v -21.5 l 4.4,-0.5 2,-0.2 3.5,-0.4 v -19.1 l -4.5,0.6 -2,0.2 -3.4,0.4 v -1.7 l 7.1,-0.9 2,-0.2 3.5,-0.4 z"
   id="path15"
   inkscape:connector-curvature="0" />
		<polygon
   class="st1"
   points="205,214.2 205,156.8 220.6,154.9 220.6,212.3 "
   id="polygon17"
   style="fill:#ffffff" />
		<path
   d="m 218.6,157.2 v 53.4 l -2,0.2 -7.6,0.9 -2,0.2 v -53.4 l 2,-0.2 7.6,-0.9 2,-0.2 m 4,-4.6 -4.5,0.6 -2,0.2 -7.6,0.9 -2,0.2 -3.5,0.5 v 61.5 l 4.5,-0.6 2,-0.2 7.6,-0.9 2,-0.2 3.5,-0.4 z"
   id="path19"
   inkscape:connector-curvature="0" />
		<path
   class="st1"
   d="m 237.1,210.9 c -3.3,0.1 -6.6,-1.1 -9.1,-3.4 -2.7,-2.6 -4,-6.5 -4,-11.6 v -26 c 0,-5 1.3,-9.1 3.9,-12.3 2.8,-3.3 6.9,-5.4 11.2,-5.7 0.8,-0.1 1.7,-0.2 2.5,-0.2 3.3,-0.1 6.6,1.1 9,3.3 2.7,2.6 4,6.5 4,11.6 v 25.9 c 0,5 -1.3,9.1 -3.9,12.3 -2.8,3.3 -6.9,5.4 -11.2,5.8 -0.8,0.2 -1.6,0.2 -2.4,0.3 z"
   id="path21"
   inkscape:connector-curvature="0"
   style="fill:#ffffff" />
		<path
   d="m 241.7,153.8 c 2.8,-0.1 5.6,0.9 7.6,2.8 2.3,2.2 3.4,5.7 3.4,10.2 v 6.2 l -2,0.2 -7.2,0.9 -2,0.2 v -6.7 c 0,-2.3 -0.7,-2.7 -1.4,-2.7 -0.2,0 -0.4,0 -0.5,0 -0.9,0.1 -2,0.2 -2,3.1 v 27 c 0,2.2 0.7,2.6 1.4,2.6 0.2,0 0.4,0 0.5,-0.1 0.9,-0.1 2,-0.2 2,-3 v -7.6 l -1.8,0.2 -2,0.2 v -11.1 l 2,-0.2 11,-1.3 2,-0.2 v 18.2 c 0,4.5 -1.2,8.2 -3.4,11 -2.5,2.9 -6.1,4.8 -9.9,5.1 -0.8,0.1 -1.5,0.1 -2.3,0.1 -2.8,0.1 -5.6,-0.9 -7.6,-2.8 -2.3,-2.2 -3.4,-5.6 -3.4,-10.1 v -26 c 0,-4.5 1.1,-8.2 3.4,-11 2.5,-2.9 6.1,-4.7 10,-5 0.7,-0.2 1.4,-0.2 2.2,-0.2 m 0,-4 v 0 c -0.9,0 -1.9,0.1 -2.8,0.2 -4.9,0.4 -9.4,2.8 -12.5,6.5 -2.9,3.5 -4.4,8.1 -4.4,13.5 v 26 c 0,5.6 1.6,10 4.6,13 2.8,2.7 6.6,4.1 10.4,3.9 0.9,0 1.9,-0.1 2.8,-0.2 4.9,-0.4 9.4,-2.8 12.6,-6.5 2.9,-3.5 4.4,-8.1 4.4,-13.5 v -26 c 0,-5.6 -1.6,-10 -4.6,-13 -2.9,-2.7 -6.7,-4.1 -10.5,-3.9 z"
   id="path23"
   inkscape:connector-curvature="0" />
		<polygon
   class="st1"
   points="258,207.7 258,150.3 273.6,148.4 273.6,168.5 273.8,168.5 273.8,148.4 289.4,146.4 289.4,203.9 273.8,205.8 273.8,183.6 273.6,183.6 273.6,205.8 "
   id="polygon25"
   style="fill:#ffffff" />
		<path
   d="m 287.4,148.7 v 53.4 l -2,0.2 -7.6,0.9 -2,0.2 v -22.2 l -4.2,0.5 V 204 l -2,0.2 -7.6,0.9 -2,0.2 v -53.4 l 2,-0.2 7.6,-0.9 2,-0.2 v 20.1 l 4.2,-0.5 v -20.1 l 2,-0.2 7.6,-0.9 2,-0.3 m 4,-4.5 -4.5,0.6 -2,0.2 -7.6,0.9 -2,0.2 -3.5,0.4 -0.7,0.1 -2,0.2 -7.6,0.9 -2,0.2 -3.5,0.4 V 210 l 4.5,-0.6 2,-0.2 7.6,-0.9 2,-0.2 3.5,-0.4 0.7,-0.1 2,-0.2 7.6,-0.9 2,-0.2 3.5,-0.4 z"
   id="path27"
   inkscape:connector-curvature="0" />
		<polygon
   class="st1"
   points="323,142.3 323,157.4 315,158.4 315,200.7 299.4,202.6 299.4,160.3 291.4,161.3 291.4,146.2 "
   id="polygon29"
   style="fill:#ffffff" />
		<path
   d="m 321,144.6 v 11.1 l -2,0.2 -6,0.7 v 42.3 l -2,0.2 -7.6,0.9 -2,0.2 v -42.3 l -6,0.7 -2,0.2 v -11.1 l 2,-0.2 23.6,-2.9 h 2 m 4,-4.6 -4.5,0.6 -2,0.2 -23.6,2.9 -2,0.2 -3.5,0.4 v 19.2 l 4.5,-0.6 2,-0.2 1.5,-0.2 v 42.3 l 4.5,-0.6 2,-0.2 7.6,-0.9 2,-0.2 3.5,-0.4 v -42.3 l 2.5,-0.3 2,-0.2 3.5,-0.4 z"
   id="path31"
   inkscape:connector-curvature="0" />
	</g>
	<g
   id="g60">
		<polygon
   class="st1"
   points="174.8,152.9 174.8,95.5 190.4,93.6 190.4,135.9 203,134.4 203,149.5 "
   id="polygon34"
   style="fill:#ffffff" />
		<path
   d="m 188.4,95.8 v 42.3 l 12.6,-1.6 v 11.1 l -24.2,3 V 97.3 l 11.6,-1.5 m 4,-4.5 -4.5,0.6 -11.6,1.4 -3.5,0.4 v 61.5 l 4.5,-0.6 24.2,-3 3.5,-0.4 v -19.1 l -4.5,0.6 -8.1,1 z"
   id="path36"
   inkscape:connector-curvature="0" />
		<polygon
   class="st1"
   points="203.5,149.4 203.5,91.9 232.4,88.4 232.4,103.5 219.2,105.1 219.2,110.1 229.6,108.8 229.6,123.9 219.2,125.2 219.2,132.3 232.4,130.7 232.4,145.8 "
   id="polygon38"
   style="fill:#ffffff" />
		<path
   d="m 230.4,90.7 v 11.1 l -13.2,1.6 v 9 l 10.5,-1.3 v 11.1 l -10.5,1.3 v 11.1 l 13.2,-1.6 v 11.1 l -24.8,3 V 93.7 l 24.8,-3 m 4,-4.5 -4.5,0.6 -24.8,3 -3.5,0.4 v 61.4 l 4.5,-0.6 24.8,-3 3.5,-0.4 v -19.2 l -4.5,0.6 -8.7,1.1 V 127 l 7,-0.8 3.5,-0.4 v -19.1 l -4.5,0.6 -6,0.7 v -1 l 9.7,-1.2 3.5,-0.4 z"
   id="path40"
   inkscape:connector-curvature="0" />
		<polygon
   class="st1"
   points="265.8,84.4 265.8,99.5 257.8,100.5 257.8,142.8 242.2,144.7 242.2,102.4 234.2,103.4 234.2,88.3 "
   id="polygon42"
   style="fill:#ffffff" />
		<path
   d="m 263.8,86.7 v 11.1 l -2,0.2 -6,0.7 V 141 l -2,0.2 -7.6,0.9 -2,0.2 V 100 l -6,0.7 -2,0.2 V 90 l 2,-0.2 23.6,-2.9 2,-0.2 m 4,-4.6 -4.5,0.6 -2,0.2 -23.6,2.9 -2,0.2 -3.5,0.4 v 19.2 l 4.5,-0.6 2,-0.2 1.5,-0.2 V 147 l 4.5,-0.6 2,-0.2 7.6,-0.9 2,-0.2 3.5,-0.4 v -42.3 l 2.5,-0.3 2,-0.2 3.5,-0.4 z"
   id="path44"
   inkscape:connector-curvature="0" />
		<path
   class="st1"
   d="m 290,140.1 c -3.3,0.1 -6.6,-1.1 -9,-3.4 -2.6,-2.6 -3.9,-6.5 -3.9,-11.6 v -6.6 l 11.1,-1.4 c -0.3,-0.2 -0.6,-0.5 -1,-0.8 -3,-2.1 -5.6,-4.8 -7.6,-7.9 -1.6,-2.9 -2.5,-6.1 -2.4,-9.4 -0.2,-4.4 1.2,-8.7 3.9,-12.1 2.8,-3.3 6.9,-5.4 11.2,-5.8 0.8,-0.1 1.6,-0.2 2.5,-0.2 3.3,-0.2 6.6,1.1 9,3.4 2.6,2.6 3.9,6.5 3.9,11.5 v 5.8 l -10.8,1.3 1.1,0.8 c 3,2.1 5.6,4.8 7.6,8 1.6,3 2.4,6.4 2.3,9.8 0,5 -1.3,9.2 -3.9,12.4 -2.9,3.4 -6.9,5.5 -11.3,5.9 -1,0.2 -1.8,0.3 -2.7,0.3 z"
   id="path46"
   inkscape:connector-curvature="0"
   style="fill:#ffffff" />
		<path
   d="m 294.8,82.9 c 2.8,-0.2 5.6,0.9 7.6,2.8 2.2,2.2 3.3,5.7 3.3,10.1 v 4.1 l -11.2,1.4 v -4.5 c 0,-1.6 -0.4,-2.2 -0.5,-2.3 -0.2,-0.2 -0.6,-0.4 -0.9,-0.3 h -0.4 c -0.8,0.1 -1.8,0.2 -1.8,2.9 0,1.4 0.4,2.7 1.1,3.8 1.3,1.8 3,3.3 4.8,4.6 3.4,2.6 5.7,5 7,7.4 1.4,2.7 2.1,5.7 2,8.8 0,4.6 -1.2,8.3 -3.5,11.1 -2.5,3 -6.1,4.8 -10,5.1 -0.8,0.1 -1.5,0.1 -2.3,0.1 -2.8,0.2 -5.6,-0.9 -7.7,-2.8 -2.2,-2.2 -3.4,-5.6 -3.4,-10.1 v -4.8 l 11.2,-1.4 v 5.4 c 0,2.2 0.7,2.6 1.4,2.6 0.2,0 0.4,0 0.5,0 0.6,0 1.1,-0.2 1.5,-0.7 0.4,-0.8 0.6,-1.6 0.5,-2.5 0.1,-1.5 -0.3,-3 -1.1,-4.3 -1.3,-1.8 -2.9,-3.3 -4.7,-4.6 -2.8,-2 -5.1,-4.5 -7,-7.3 -1.5,-2.6 -2.2,-5.5 -2.1,-8.4 -0.2,-3.9 1.1,-7.8 3.4,-10.9 2.5,-2.9 6.1,-4.8 9.9,-5.1 0.9,-0.1 1.7,-0.1 2.4,-0.2 m 0,-3.9 v 0 c -0.9,0 -1.8,0.1 -2.7,0.2 -4.9,0.4 -9.4,2.8 -12.5,6.5 -2.9,3.5 -4.4,8 -4.4,13.4 -0.1,3.7 0.9,7.3 2.7,10.5 1.5,2.4 3.3,4.5 5.4,6.3 l -4.7,0.6 -3.5,0.4 v 8.4 c 0,5.6 1.5,10 4.5,13 2.8,2.7 6.6,4.2 10.4,4 0.9,0 1.8,-0.1 2.8,-0.2 4.9,-0.5 9.4,-2.8 12.6,-6.6 2.9,-3.6 4.4,-8.1 4.4,-13.6 0.1,-3.7 -0.8,-7.4 -2.5,-10.8 -1.4,-2.5 -3.3,-4.6 -5.5,-6.5 l 4.4,-0.5 3.5,-0.4 v -7.6 c 0,-5.6 -1.5,-9.9 -4.5,-12.9 -2.8,-2.9 -6.5,-4.4 -10.4,-4.2 z"
   id="path48"
   inkscape:connector-curvature="0" />
		<g
   id="g58">
			<g
   id="g56">
				<g
   id="g54">
					<path
   class="st1"
   d="m 266.3,99.9 2,-0.6 c 0.7,-0.2 2.2,-0.7 2.2,-3.1 l -4.3,0.6 V 84.3 l 11.7,-1.4 1.1,9 c 0.4,3.6 -0.1,6.9 -1.7,9.2 -1.2,1.9 -3.1,4.2 -6.9,5 l -1.7,0.3 z"
   id="path50"
   inkscape:connector-curvature="0"
   style="fill:#ffffff" />
					<path
   class="st2"
   d="m 276.2,85.1 0.9,7 c 0.4,3.3 -0.2,6.1 -1.4,7.9 -1.1,1.7 -2.6,3.5 -5.6,4.1 l -1.2,-3 c 3.6,-1.1 4,-4.2 3.4,-7.2 l -4,0.5 v -8.3 l 7.9,-1 m 3.5,-4.4 -4,0.5 -7.9,1 -3.5,0.4 v 3.5 8.3 4 l -0.6,0.2 1.5,4 1.2,3 1.2,3.2 3.3,-0.7 c 4.6,-0.9 6.9,-3.8 8.2,-5.9 1.8,-2.8 2.4,-6.5 2,-10.5 l -0.9,-7 z"
   id="path52"
   inkscape:connector-curvature="0"
   style="fill:#070707" />
				</g>
			</g>
		</g>
	</g>
</g>
</svg>