<?xml version="1.0" encoding="utf-8"?>
<!-- Generator: Adobe Illustrator 23.0.4, SVG Export Plug-In . SVG Version: 6.00 Build 0)  -->
<svg version="1.1" id="Layer_1" xmlns="http://www.w3.org/2000/svg" xmlns:xlink="http://www.w3.org/1999/xlink" x="0px" y="0px"
	 viewBox="0 0 497.7 300" style="enable-background:new 0 0 497.7 300;" xml:space="preserve">
<style type="text/css">
	.st0{fill:url(#SVGID_1_);}
	.st1{fill:#FFFFFF;}
	.st2{fill:#070707;}
</style>
<title>fight-direction</title>
<g>
	<linearGradient id="SVGID_1_" gradientUnits="userSpaceOnUse" x1="168.815" y1="149.6797" x2="328.915" y2="149.6797">
		<stop  offset="0.1" style="stop-color:#DA3228"/>
		<stop  offset="1" style="stop-color:#8F3029"/>
	</linearGradient>
	<path class="st0" d="M284.5,76.3l13.6-1.6c9.6-1.2,18,6.3,18,16v14.9l-4.2,0.5c0,0,3.9,5.1,4.2,15c0,0,0.8,9.9-3.2,16.7l5.1-0.6
		l2-0.2l4.5-0.6l4.5-0.5V163l-3.5,0.4l-3.5,0.4l-1,0.1v42.3l-152.1,18.5V166v-10.6V90.3L262.7,79L284.5,76.3z"/>
	<g id="Fight-Direction">
		<polygon class="st1" points="174.8,160.5 203,157.1 203,172.2 190.4,173.7 190.4,179.4 200.3,178.2 200.3,193.3 190.4,194.5 
			190.4,216 174.8,217.9 		"/>
		<path d="M201,159.3v11.1l-2,0.2l-10.6,1.3v9.7l7.9-1l2-0.2v11.1l-2,0.2l-7.9,1v21.5l-2,0.2l-7.7,0.9l-2,0.2v-53.4l2-0.2l20.2-2.5
			L201,159.3 M205,154.8l-4.5,0.6l-2,0.2l-20.2,2.5l-2,0.2l-3.5,0.4v61.5l4.5-0.6l2-0.2l7.6-0.9l2-0.2l3.5-0.4v-21.5l4.4-0.5l2-0.2
			l3.5-0.4v-19.1l-4.5,0.6l-2,0.2l-3.4,0.4v-1.7l7.1-0.9l2-0.2l3.5-0.4L205,154.8L205,154.8z"/>
		<polygon class="st1" points="205,156.8 220.6,154.9 220.6,212.3 205,214.2 		"/>
		<path d="M218.6,157.2v53.4l-2,0.2l-7.6,0.9l-2,0.2v-53.4l2-0.2l7.6-0.9L218.6,157.2 M222.6,152.6l-4.5,0.6l-2,0.2l-7.6,0.9l-2,0.2
			L203,155v61.5l4.5-0.6l2-0.2l7.6-0.9l2-0.2l3.5-0.4L222.6,152.6L222.6,152.6z"/>
		<path class="st1" d="M237.1,210.9c-3.3,0.1-6.6-1.1-9.1-3.4c-2.7-2.6-4-6.5-4-11.6v-26c0-5,1.3-9.1,3.9-12.3
			c2.8-3.3,6.9-5.4,11.2-5.7c0.8-0.1,1.7-0.2,2.5-0.2c3.3-0.1,6.6,1.1,9,3.3c2.7,2.6,4,6.5,4,11.6v25.9c0,5-1.3,9.1-3.9,12.3
			c-2.8,3.3-6.9,5.4-11.2,5.8C238.7,210.8,237.9,210.8,237.1,210.9L237.1,210.9z"/>
		<path d="M241.7,153.8c2.8-0.1,5.6,0.9,7.6,2.8c2.3,2.2,3.4,5.7,3.4,10.2v6.2l-2,0.2l-7.2,0.9l-2,0.2v-6.7c0-2.3-0.7-2.7-1.4-2.7
			c-0.2,0-0.4,0-0.5,0c-0.9,0.1-2,0.2-2,3.1v27c0,2.2,0.7,2.6,1.4,2.6c0.2,0,0.4,0,0.5-0.1c0.9-0.1,2-0.2,2-3v-7.6l-1.8,0.2l-2,0.2
			v-11.1l2-0.2l11-1.3l2-0.2v18.2c0,4.5-1.2,8.2-3.4,11c-2.5,2.9-6.1,4.8-9.9,5.1c-0.8,0.1-1.5,0.1-2.3,0.1
			c-2.8,0.1-5.6-0.9-7.6-2.8c-2.3-2.2-3.4-5.6-3.4-10.1v-26c0-4.5,1.1-8.2,3.4-11c2.5-2.9,6.1-4.7,10-5
			C240.2,153.8,240.9,153.8,241.7,153.8 M241.7,149.8L241.7,149.8c-0.9,0-1.9,0.1-2.8,0.2c-4.9,0.4-9.4,2.8-12.5,6.5
			c-2.9,3.5-4.4,8.1-4.4,13.5v26c0,5.6,1.6,10,4.6,13c2.8,2.7,6.6,4.1,10.4,3.9c0.9,0,1.9-0.1,2.8-0.2c4.9-0.4,9.4-2.8,12.6-6.5
			c2.9-3.5,4.4-8.1,4.4-13.5v-26c0-5.6-1.6-10-4.6-13C249.3,151,245.5,149.6,241.7,149.8L241.7,149.8z"/>
		<polygon class="st1" points="258,150.3 273.6,148.4 273.6,168.5 273.8,168.5 273.8,148.4 289.4,146.4 289.4,203.9 273.8,205.8 
			273.8,183.6 273.6,183.6 273.6,205.8 258,207.7 		"/>
		<path d="M287.4,148.7v53.4l-2,0.2l-7.6,0.9l-2,0.2v-22.2l-4.2,0.5V204l-2,0.2l-7.6,0.9l-2,0.2v-53.4l2-0.2l7.6-0.9l2-0.2v20.1
			l4.2-0.5v-20.1l2-0.2l7.6-0.9L287.4,148.7 M291.4,144.2l-4.5,0.6l-2,0.2l-7.6,0.9l-2,0.2l-3.5,0.4l-0.7,0.1l-2,0.2l-7.6,0.9
			l-2,0.2l-3.5,0.4V210l4.5-0.6l2-0.2l7.6-0.9l2-0.2l3.5-0.4l0.7-0.1l2-0.2l7.6-0.9l2-0.2l3.5-0.4L291.4,144.2L291.4,144.2z"/>
		<polygon class="st1" points="299.4,160.3 291.4,161.3 291.4,146.2 323,142.3 323,157.4 315,158.4 315,200.7 299.4,202.6 		"/>
		<path d="M321,144.6v11.1l-2,0.2l-6,0.7v42.3l-2,0.2l-7.6,0.9l-2,0.2v-42.3l-6,0.7l-2,0.2v-11.1l2-0.2l23.6-2.9L321,144.6 M325,140
			l-4.5,0.6l-2,0.2l-23.6,2.9l-2,0.2l-3.5,0.4v19.2l4.5-0.6l2-0.2l1.5-0.2v42.3l4.5-0.6l2-0.2l7.6-0.9l2-0.2l3.5-0.4v-42.3l2.5-0.3
			l2-0.2l3.5-0.4L325,140L325,140z"/>
	</g>
	<g>
		<polygon class="st1" points="174.8,95.5 190.4,93.6 190.4,135.9 203,134.4 203,149.5 174.8,152.9 		"/>
		<path d="M188.4,95.8v42.3l12.6-1.6v11.1l-24.2,3V97.3L188.4,95.8 M192.4,91.3l-4.5,0.6l-11.6,1.4l-3.5,0.4v61.5l4.5-0.6l24.2-3
			l3.5-0.4v-19.1l-4.5,0.6l-8.1,1L192.4,91.3L192.4,91.3z"/>
		<polygon class="st1" points="203.5,91.9 232.4,88.4 232.4,103.5 219.2,105.1 219.2,110.1 229.6,108.8 229.6,123.9 219.2,125.2 
			219.2,132.3 232.4,130.7 232.4,145.8 203.5,149.4 		"/>
		<path d="M230.4,90.7v11.1l-13.2,1.6v9l10.5-1.3v11.1l-10.5,1.3v11.1l13.2-1.6v11.1l-24.8,3V93.7L230.4,90.7 M234.4,86.2l-4.5,0.6
			l-24.8,3l-3.5,0.4v61.4l4.5-0.6l24.8-3l3.5-0.4v-19.2l-4.5,0.6l-8.7,1.1V127l7-0.8l3.5-0.4v-19.1l-4.5,0.6l-6,0.7v-1l9.7-1.2
			l3.5-0.4L234.4,86.2L234.4,86.2z"/>
		<polygon class="st1" points="242.2,102.4 234.2,103.4 234.2,88.3 265.8,84.4 265.8,99.5 257.8,100.5 257.8,142.8 242.2,144.7 		
			"/>
		<path d="M263.8,86.7v11.1l-2,0.2l-6,0.7V141l-2,0.2l-7.6,0.9l-2,0.2v-42.3l-6,0.7l-2,0.2V90l2-0.2l23.6-2.9L263.8,86.7
			 M267.8,82.1l-4.5,0.6l-2,0.2l-23.6,2.9l-2,0.2l-3.5,0.4v19.2l4.5-0.6l2-0.2l1.5-0.2V147l4.5-0.6l2-0.2l7.6-0.9l2-0.2l3.5-0.4
			v-42.3l2.5-0.3l2-0.2l3.5-0.4L267.8,82.1L267.8,82.1z"/>
		<path class="st1" d="M290,140.1c-3.3,0.1-6.6-1.1-9-3.4c-2.6-2.6-3.9-6.5-3.9-11.6v-6.6l11.1-1.4c-0.3-0.2-0.6-0.5-1-0.8
			c-3-2.1-5.6-4.8-7.6-7.9c-1.6-2.9-2.5-6.1-2.4-9.4c-0.2-4.4,1.2-8.7,3.9-12.1c2.8-3.3,6.9-5.4,11.2-5.8c0.8-0.1,1.6-0.2,2.5-0.2
			c3.3-0.2,6.6,1.1,9,3.4c2.6,2.6,3.9,6.5,3.9,11.5v5.8l-10.8,1.3l1.1,0.8c3,2.1,5.6,4.8,7.6,8c1.6,3,2.4,6.4,2.3,9.8
			c0,5-1.3,9.2-3.9,12.4c-2.9,3.4-6.9,5.5-11.3,5.9C291.7,140,290.9,140.1,290,140.1z"/>
		<path d="M294.8,82.9c2.8-0.2,5.6,0.9,7.6,2.8c2.2,2.2,3.3,5.7,3.3,10.1v4.1l-11.2,1.4v-4.5c0-1.6-0.4-2.2-0.5-2.3
			c-0.2-0.2-0.6-0.4-0.9-0.3h-0.4c-0.8,0.1-1.8,0.2-1.8,2.9c0,1.4,0.4,2.7,1.1,3.8c1.3,1.8,3,3.3,4.8,4.6c3.4,2.6,5.7,5,7,7.4
			c1.4,2.7,2.1,5.7,2,8.8c0,4.6-1.2,8.3-3.5,11.1c-2.5,3-6.1,4.8-10,5.1c-0.8,0.1-1.5,0.1-2.3,0.1c-2.8,0.2-5.6-0.9-7.7-2.8
			c-2.2-2.2-3.4-5.6-3.4-10.1v-4.8l11.2-1.4v5.4c0,2.2,0.7,2.6,1.4,2.6c0.2,0,0.4,0,0.5,0c0.6,0,1.1-0.2,1.5-0.7
			c0.4-0.8,0.6-1.6,0.5-2.5c0.1-1.5-0.3-3-1.1-4.3c-1.3-1.8-2.9-3.3-4.7-4.6c-2.8-2-5.1-4.5-7-7.3c-1.5-2.6-2.2-5.5-2.1-8.4
			c-0.2-3.9,1.1-7.8,3.4-10.9c2.5-2.9,6.1-4.8,9.9-5.1C293.3,83,294.1,83,294.8,82.9 M294.8,79L294.8,79c-0.9,0-1.8,0.1-2.7,0.2
			c-4.9,0.4-9.4,2.8-12.5,6.5c-2.9,3.5-4.4,8-4.4,13.4c-0.1,3.7,0.9,7.3,2.7,10.5c1.5,2.4,3.3,4.5,5.4,6.3l-4.7,0.6l-3.5,0.4v8.4
			c0,5.6,1.5,10,4.5,13c2.8,2.7,6.6,4.2,10.4,4c0.9,0,1.8-0.1,2.8-0.2c4.9-0.5,9.4-2.8,12.6-6.6c2.9-3.6,4.4-8.1,4.4-13.6
			c0.1-3.7-0.8-7.4-2.5-10.8c-1.4-2.5-3.3-4.6-5.5-6.5l4.4-0.5l3.5-0.4v-7.6c0-5.6-1.5-9.9-4.5-12.9C302.4,80.3,298.7,78.8,294.8,79
			L294.8,79z"/>
		<g>
			<g>
				<g>
					<path class="st1" d="M266.3,99.9l2-0.6c0.7-0.2,2.2-0.7,2.2-3.1l-4.3,0.6V84.3l11.7-1.4l1.1,9c0.4,3.6-0.1,6.9-1.7,9.2
						c-1.2,1.9-3.1,4.2-6.9,5l-1.7,0.3L266.3,99.9z"/>
					<path class="st2" d="M276.2,85.1l0.9,7c0.4,3.3-0.2,6.1-1.4,7.9c-1.1,1.7-2.6,3.5-5.6,4.1l-1.2-3c3.6-1.1,4-4.2,3.4-7.2l-4,0.5
						v-8.3L276.2,85.1 M279.7,80.7l-4,0.5l-7.9,1l-3.5,0.4v3.5v8.3v4l-0.6,0.2l1.5,4l1.2,3l1.2,3.2l3.3-0.7c4.6-0.9,6.9-3.8,8.2-5.9
						c1.8-2.8,2.4-6.5,2-10.5l-0.9-7L279.7,80.7L279.7,80.7z"/>
				</g>
			</g>
		</g>
	</g>
</g>
</svg>
