<svg id="Layer_1" data-name="Layer 1" xmlns="http://www.w3.org/2000/svg" viewBox="0 0 349.28 210.5"><title>pass</title><path d="M144.89,111.77a38.68,38.68,0,0,1-13.71,9c-2.44-.84-3.66-1.23-6.09-2,3.65-1.61,8.52-4.48,10.73-6.63-.16-1.09-.24-1.63-.41-2.71-2.23.65-5.88,1.83-8.49,2.72-3.21,6.22-6,13.42-5.75,19.08-3.18.23-7.9.3-11.28.16.52-4.75,4.06-11,7.14-16.6-2.06-1-3.09-1.42-5.13-2.25,9-3.1,18-6.36,27.09-9.26,1.81-.58,5-1.81,5.47-1.64.22.09.42,1.36.54,2.2A27.41,27.41,0,0,1,144.89,111.77Z"/><path d="M167.15,130a57.59,57.59,0,0,1-3.34-11.5c-9.16,2.39-12.77,6.1-14.61,11.73-4-1.77-6.07-2.56-10.1-4,6.78-9.5,14.09-18.5,21.54-27.47-.19-1.1-.28-1.66-.47-2.76,3.91-1.82,5.87-2.79,9.78-4.82,1.66,11.69,3.15,21.89,6.89,33.11A99.71,99.71,0,0,1,167.15,130Zm-3.48-12.23c-.44-2.14-.72-4.34-1-6.48s-.54-4.17-.75-6.16A133.13,133.13,0,0,0,154,116.59c2.24-.55,4.9-1.22,6.78-1.67C161.92,116,162.5,116.6,163.67,117.78Z"/><path d="M207.89,84.39c-5.22,2.55-18,8.46-17.58,12.36.08.7.69,1.29,1.8,1,7.81-2.3,13.56,2.06,14.09,8.48,1.05,12.85-12.46,20.71-23.23,22.75-2.49-3.86-3.72-5.69-6.18-9.15,2.9-.48,21-5.27,20.29-11.53-.15-1.43-2.19-1.68-5.05-1-.31.65-.47,1-.79,1.61-5.94.21-10.51-2.24-11-6.31-.27-2.21.71-5,3.36-8.48l-1-1.91A47.06,47.06,0,0,1,199.9,76.6c.78-.43,1.56-.86,2.4-1.26C204.53,78.78,205.64,80.59,207.89,84.39Z"/><path d="M237.24,69.05c-5.21,3.08-18,10.34-17.51,15.38.09.91.72,1.67,1.82,1.25,7.82-2.84,13.2,2.51,14.27,11,1.79,14.17-10.39,26-22.95,29.65-2.55-5-3.82-7.36-6.35-11.87,2.9-.69,21-7.12,20.19-15.15-.18-1.84-2.23-2.17-5.09-1.34-.31.84-.46,1.26-.77,2.08-6,.28-10.59-2.92-11.14-8.24-.31-2.88.63-6.47,3.24-11-.41-1-.62-1.51-1-2.5A48.74,48.74,0,0,1,229.1,58.91c.78-.52,1.56-1,2.4-1.5C233.79,61.86,234.94,64.18,237.24,69.05Z"/><path d="M146.13,114.61a35.38,35.38,0,0,1-12.68,8.26c-2.26-.81-3.38-1.19-5.63-1.89,3.37-1.48,7.88-4.11,9.93-6.09-.15-1-.23-1.53-.38-2.55-2.06.57-5.44,1.62-7.85,2.42-3,5.81-5.55,12.6-5.33,18-2.94.2-7.3.27-10.42.14.48-4.53,3.76-10.49,6.6-15.72-1.91-.95-2.85-1.39-4.74-2.2,8.65-2.79,16.73-5.78,25-8.28,1.68-.5,4.67-1.58,5.07-1.42a6,6,0,0,1,.49,2.06A25.46,25.46,0,0,1,146.13,114.61Z" style="fill:#da3228"/><path d="M166.71,131.79a53.06,53.06,0,0,1-3.08-10.66c-8.48,2.09-11.82,5.5-13.51,10.72-3.75-1.67-5.62-2.43-9.34-3.81,6.21-8.77,13-17,19.92-25.21-.18-1-.26-1.54-.44-2.56,3.62-1.61,5.43-2.45,9-4.23,1.38,10,2.06,21.24,6.37,30.58A90.11,90.11,0,0,1,166.71,131.79Zm-3.22-11.33c-.4-2-.66-4-.92-6s-.5-3.86-.69-5.71a119.48,119.48,0,0,0-7.35,10.47c2.08-.48,4.54-1.06,6.28-1.45C161.88,118.82,162.42,119.35,163.49,120.46Z" style="fill:#da3228"/><path d="M204.38,90.7c-4.82,2.2-16.66,7.32-16.25,10.9.07.64.64,1.19,1.66.9,7.22-1.94,12.76,2.08,13,8,.54,12-10.82,18.88-21.48,20.45-2.3-3.57-3.44-5.26-5.72-8.48,2.69-.4,19.41-4.52,18.77-10.25-.14-1.3-2-1.57-4.67-1-.29.59-.44.88-.73,1.46-5.49.1-9.72-2.23-10.17-6-.24-2,.66-4.55,3.11-7.72-.37-.71-.55-1.07-.92-1.77a41.28,41.28,0,0,1,16-13.79c.72-.38,1.44-.75,2.22-1.09C201.27,85.51,202.31,87.19,204.38,90.7Z" style="fill:#da3228"/><path d="M231.52,77.5c-4.82,2.65-16.65,8.93-16.19,13.51.09.83.66,1.53,1.69,1.18,7.23-2.41,12.71,2.54,13.19,10.23.83,13.29-8.84,23.54-21.23,26.5-2.35-4.57-3.53-6.74-5.86-10.89,2.68-.58,19.38-6.11,18.66-13.41-.16-1.66-2.06-2-4.7-1.31-.29.76-.43,1.13-.72,1.87-5.51.14-9.79-2.86-10.3-7.71-.28-2.63.59-5.88,3-9.91-.38-.93-.57-1.39-.95-2.3A42.37,42.37,0,0,1,224,68.11c.72-.45,1.44-.9,2.22-1.29C228.33,70.91,229.39,73,231.52,77.5Z" style="fill:#da3228"/></svg>