<?xml version="1.0" encoding="utf-8"?>
<!-- Generator: Adobe Illustrator 23.0.4, SVG Export Plug-In . SVG Version: 6.00 Build 0)  -->
<svg version="1.1" id="Layer_1" xmlns="http://www.w3.org/2000/svg" xmlns:xlink="http://www.w3.org/1999/xlink" x="0px" y="0px"
	 viewBox="0 0 282.6 182.6" style="enable-background:new 0 0 282.6 182.6;" xml:space="preserve">
<style type="text/css">
	.st0{fill:url(#SVGID_1_);}
	.st1{fill:#FFFFFF;}
</style>
<linearGradient id="SVGID_1_" gradientUnits="userSpaceOnUse" x1="60.2" y1="92.7009" x2="222.8" y2="92.7009" gradientTransform="matrix(1 0 0 -1 0 184.001)">
	<stop  offset="9.973378e-02" style="stop-color:#DA3228"/>
	<stop  offset="1" style="stop-color:#8F3029"/>
</linearGradient>
<path class="st0" d="M220.3,12.7l-6.7,0.9l-2,0.2L188,16.7l-5.5,0.6l0,0l0,0l-1.7,0.3l-33.3,3.8l-1.8,0.2v1.8v2.1
	c-2.9-1.9-6.4-2.8-10.4-2.8c-1,0-2,0.1-2.9,0.2h-0.3l0,0l0,0c-4.7,0.6-8.6,2.2-11.8,4.7v-0.3V25l-2.3,0.3l-6.7,0.9l-16.9,1.9
	l-1.8,0.2v1.8v1.2c-2.5-1.1-5.4-1.6-8.4-1.6c-1.2,0-2.4,0.1-3.6,0.2l0,0l0,0l-11.3,1.4L62,32.1l-1.8,0.2v1.8v56.7l0.1,13.4v63.7v2.3
	l2.3-0.3l6.7-0.9l2-0.2l31.7-3.9l7.3-0.8l1.8-0.2v-1.8v-1.8c3,1.9,6.5,2.9,10.6,2.9c1,0,1.9-0.1,2.9-0.2h0.4l0,0l0,0
	c6.3-0.8,11.4-3.5,15.3-7.9l0,0l0,0c0.9-1.1,1.7-2.2,2.3-3.5l1,6.5l0.3,1.9l1.9-0.2l17.6-2.1l6.2-0.8l0,0h0.2l1.4-0.2l0,0l0.7-0.1
	l6.7-0.9l2-0.2l20.8-2.6l7.3-0.8l1.8-0.2V150v-23.2v-2.3l-2.3,0.3l-0.4,0.1v-15l0.9-0.1l1.8-0.2v-1.8V87.2v-2.9l1.6-0.2l1.7-0.2
	v-1.8V40.8l6.2-0.7l1.8-0.2v-1.8V14.7v-2.3L220.3,12.7z"/>
<g>
	<g>
		<polygon class="st1" points="98.5,33.7 114.1,31.8 114.1,89.3 98.5,91.2 		"/>
		<path d="M112.1,34.1v2v49.4v2l-2,0.2l-7.6,0.9l-2,0.2v-2V37.4v-2l2-0.2l7.6-0.9L112.1,34.1 M116.1,29.6l-4.5,0.6l-2,0.2l-7.6,0.9
			l-2,0.2l-3.5,0.4v3.5v2v49.4v2v4.5l4.5-0.6l2-0.2l7.6-0.9l2-0.2l3.5-0.4v-3.5v-2V36.1v-2V29.6L116.1,29.6z"/>
	</g>
	<g>
		<path class="st1" d="M130.6,87.8c-3.7,0-6.8-1.1-9.1-3.4c-2.7-2.6-4-6.5-4-11.6v-26c0-5,1.3-9.1,3.9-12.3
			c2.7-3.3,6.4-5.2,11.2-5.8c0.9-0.1,1.7-0.2,2.5-0.2c3.7,0,6.8,1.1,9.1,3.4c2.7,2.6,4,6.5,4,11.6v26c0,5-1.3,9.1-3.9,12.3
			c-2.7,3.3-6.4,5.2-11.2,5.8C132.3,87.7,131.4,87.8,130.6,87.8L130.6,87.8z"/>
		<path d="M135.2,30.7c3.2,0,5.8,0.9,7.7,2.8c2.3,2.2,3.4,5.6,3.4,10.1v4.2v2l-2,0.2l-7.2,0.9l-2,0.2v-2v-4.7c0-2.3-0.7-2.7-1.4-2.7
			c-0.2,0-0.4,0-0.5,0c-0.9,0.1-2,0.2-2,3.1v27c0,2.2,0.7,2.6,1.4,2.6c0.2,0,0.4,0,0.5,0c0.9-0.1,2-0.2,2-3v-7.6l-1.8,0.2l-2,0.2v-2
			v-6.9v-2l2-0.2l11-1.4l2-0.2v2v16.2c0,4.5-1.2,8.2-3.4,11c-2.3,2.8-5.7,4.6-9.9,5.1c-0.8,0.1-1.6,0.1-2.3,0.1
			c-3.2,0-5.8-0.9-7.7-2.8c-2.3-2.2-3.4-5.6-3.4-10.1V47c0-4.5,1.2-8.2,3.4-11c2.3-2.8,5.7-4.6,9.9-5.1
			C133.7,30.7,134.5,30.7,135.2,30.7 M135.2,26.7L135.2,26.7c-0.9,0-1.8,0.1-2.8,0.2c-5.3,0.7-9.5,2.8-12.5,6.5
			c-2.9,3.5-4.3,8.1-4.3,13.5v26c0,5.6,1.6,10,4.7,13c2.7,2.6,6.2,3.9,10.4,3.9c0.9,0,1.8-0.1,2.8-0.2c5.3-0.7,9.5-2.8,12.5-6.5
			c2.9-3.5,4.3-8.1,4.3-13.5V53.4l0,0v-3.5v-2v-4.2c0-5.6-1.6-10-4.6-13C143,28,139.5,26.7,135.2,26.7L135.2,26.7z M131.1,72.1
			L131.1,72.1L131.1,72.1z"/>
	</g>
	<g>
		<polygon class="st1" points="151.5,27.2 167.1,25.3 167.1,45.4 167.4,45.4 167.4,25.3 183,23.4 183,80.8 167.4,82.7 167.4,60.5 
			167.1,60.5 167.1,82.7 151.5,84.7 		"/>
		<path d="M181,25.6v2V77v2l-2,0.2l-7.6,0.9l-2,0.2v-2V58.1l-4.2,0.5v20.2v2l-2,0.2l-7.6,0.9l-2,0.2v-2V30.7v-2l2-0.2l7.6-0.9l2-0.2
			v2v18.1l4.2-0.5V28.9v-2l2-0.2l7.6-0.9L181,25.6 M185,21.1l-4.5,0.6l-2,0.2l-7.6,0.9l-2,0.2l-3.5,0.4l-0.7,0.1l-2,0.2l-7.6,0.9
			l-2,0.2l-3.5,0.4v3.5v2v49.4v2v4.5l4.5-0.6l2-0.2l7.6-0.9l2-0.2l3.5-0.4l0.7-0.1l2-0.2l7.6-0.9l2-0.2l3.5-0.4V79v-2V27.6v-2V21.1
			L185,21.1z"/>
	</g>
	<g>
		<polygon class="st1" points="192.9,37.3 184.9,38.2 184.9,23.1 216.5,19.3 216.5,34.4 208.5,35.4 208.5,77.7 192.9,79.6 		"/>
		<path d="M214.5,21.5v2v7.1v2l-2,0.2l-6,0.7v40.3v2l-2,0.2l-7.6,0.9l-2,0.2v-2V34.8l-6,0.7l-2,0.2v-2v-7.1v-2l2-0.2l23.6-2.9H214.5
			 M218.5,17l-4.5,0.6l-2,0.2l-23.6,2.9l-2,0.2l-3.5,0.4v3.5v2v7.1v2v4.5l4.5-0.6l2-0.2l1.5-0.2v35.9v2v4.5l4.5-0.6l2-0.2l7.6-0.9
			l2-0.2l3.5-0.4V76v-2V37.2l2.5-0.3l2-0.2l3.5-0.4v-3.5v-2v-7.1v-2V17L218.5,17z"/>
	</g>
	<polygon class="st1" points="66.1,106.1 84.4,103.9 85.9,114.3 87.3,103.5 105.7,101.2 105.7,158.7 79,162 66.1,163.5 	"/>
	<path d="M103.7,103.5v2v49.4v2l-2,0.2l-7.2,0.9l-2,0.2v-2v-11.5l-1.7,12l-0.3,1.7l-1.7,0.2l-6.4,0.8l-1.7,0.2l-0.3-1.7l-1.7-11.6
		v11.5v2l-2,0.2l-6.7,0.8l-2,0.2v-2v-49.4v-2l2-0.2l10.9-1.3l1.7-0.2l0.2,1.7l3,21.2l3-21.9l0.2-1.8l1.7-0.2l10.9-1.3L103.7,103.5
		 M107.7,99l-4.5,0.6l-2,0.2l-10.9,1.3l-1.7,0.2l-3.1,0.4l-3.3,0.4l-1.7,0.2l-10.9,1.3l-2,0.2l-3.5,0.4v3.5v2v49.4v2v4.5l4.5-0.6
		l2-0.2l6.7-0.8l1.3-0.2l2.7-0.3l1.7-0.2l5.6-0.7l0,0l4.5-0.6l2-0.2l7.2-0.9l2-0.2l3.5-0.4v-3.5v-2v-49.4v-2L107.7,99L107.7,99z"/>
	<path class="st1" d="M122.4,157.2c-3.8,0-6.8-1.1-9.1-3.4c-2.7-2.6-4.1-6.5-4.1-11.6v-26c0-4.9,1.3-9.1,4-12.3
		c2.7-3.3,6.5-5.2,11.4-5.8c0.9-0.1,1.7-0.2,2.6-0.2c3.8,0,6.8,1.1,9.1,3.4c2.7,2.6,4.1,6.5,4.1,11.6v26c0,4.9-1.3,9.1-4,12.3
		c-2.7,3.3-6.5,5.2-11.4,5.8C124.1,157.1,123.2,157.2,122.4,157.2L122.4,157.2z"/>
	<path d="M127,100.1c3.2,0,5.8,0.9,7.8,2.8c2.3,2.3,3.5,5.7,3.5,10.1v26c0,4.5-1.2,8.2-3.5,11c-2.4,2.9-5.8,4.6-10.1,5.1
		c-0.8,0.1-1.6,0.1-2.3,0.1c-3.2,0-5.8-0.9-7.8-2.8c-2.3-2.3-3.5-5.7-3.5-10.1v-26c0-4.5,1.2-8.2,3.5-11c2.4-2.9,5.8-4.6,10.1-5.1
		C125.5,100.1,126.3,100.1,127,100.1 M124.2,144c0.2,0,0.4,0,0.5,0c0.9-0.1,2-0.2,2-3.1V114c0-2.3-0.7-2.7-1.4-2.7
		c-0.2,0-0.4,0-0.5,0c-0.9,0.1-2,0.2-2,3.1v26.9C122.8,143.6,123.5,144,124.2,144 M127,96.1c-0.9,0-1.8,0.1-2.8,0.2
		c-5.4,0.7-9.6,2.9-12.7,6.5c-2.9,3.6-4.4,8.1-4.4,13.5v26c0,5.6,1.6,10,4.8,13c2.7,2.6,6.2,3.9,10.5,3.9c0.9,0,1.8-0.1,2.8-0.2
		c5.4-0.7,9.6-2.9,12.7-6.5c2.9-3.6,4.4-8.1,4.4-13.5v-26c0-5.6-1.6-10-4.7-13C134.9,97.4,131.3,96.1,127,96.1L127,96.1z"/>
	<polygon class="st1" points="141,96.9 156.7,95 158.3,106.9 159.9,94.6 175.1,92.7 166.5,151.2 149.5,153.3 	"/>
	<path d="M172.8,95l-0.3,2.4l-7.4,50.3l-0.3,1.7l-1.7,0.2l-10.1,1.2l-1.7,0.2l-0.3-1.7l-7.4-48.5l-0.3-2.3l2.3-0.3l7.7-0.9l1.7-0.2
		l0.2,1.7l3.1,23.4l3.1-24.1l0.2-1.8l1.7-0.2l7-0.9L172.8,95 M177.5,90.4l-5.2,0.6l-2.3,0.3l-7,0.9l-1.7,0.2l-3.1,0.4l-3.6,0.4
		l-1.7,0.2l-7.7,0.9l-2.3,0.3l-4.1,0.5l0.6,4.1l0.3,2.3l7.4,48.5l0.3,1.7l0.6,3.8l3.9-0.5l1.7-0.2l10.1-1.2l1.7-0.2l3-0.4l0.4-3
		l0.3-1.7l7.4-50.3l0.3-2.4L177.5,90.4L177.5,90.4z"/>
	<polygon class="st1" points="176.4,92.6 205.2,89 205.2,104.1 192,105.8 192,110.8 202.5,109.5 202.5,124.6 192,125.9 192,133 
		205.2,131.3 205.2,146.5 176.4,150 	"/>
	<path d="M203.2,91.3v2v7.1v2l-2,0.2L190,104v9l8.5-1l2-0.2v2v7.1v2l-2,0.2l-8.5,1v11.1l11.2-1.4l2-0.2v2v7.1v2l-2,0.2l-20.8,2.6
		l-2,0.2v-2V96.3v-2l2-0.2l20.8-2.6L203.2,91.3 M207.2,86.8l-4.5,0.6l-2,0.2l-20.8,2.6l-2,0.2l-3.5,0.4v3.5v2v49.4v2v4.5l4.5-0.6
		l2-0.2l20.8-2.6l2-0.2l3.5-0.4v-3.5v-2v-7.1v-2v-4.5l-4.5,0.6l-2,0.2l-6.7,0.8v-3.1l5-0.6l2-0.2l3.5-0.4v-3.5v-2v-7.1v-2v-4.6
		l-4.5,0.6l-2,0.2l-4,0.5v-1l7.7-0.9l2-0.2l3.5-0.4v-3.5v-2v-7.1v-2V86.8L207.2,86.8z"/>
	<g>
		<path class="st1" d="M66,37.8L81.1,36c1-0.1,2-0.2,3-0.2c3.6,0,6.5,1,8.6,2.8c2.6,2.4,3.9,6.1,3.9,11.1v3c0,4-0.9,7.3-2.6,9.9
			c0.5,0.6,0.9,1.2,1.2,1.9c1,2.2,1.5,5,1.5,8.5v8.7c0,1.3,0,2.3,0.1,3c0,0.4,0.2,0.9,0.4,1.3l2.4,5.2l-16.6,2l-1-2.8
			c-0.1-0.4-0.3-0.8-0.4-1.2v4.2L66,95.3V37.8z"/>
		<path d="M84.1,37.7c3.1,0,5.6,0.8,7.3,2.3c2.2,2,3.3,5.2,3.3,9.6v3c0,4.9-1.5,8.1-3.3,10.1c0.9,0.7,1.5,1.5,2,2.6
			c0.9,1.9,1.3,4.4,1.3,7.6v8.7c0,1.3,0,2.4,0.1,3.2c0.1,0.7,0.2,1.3,0.5,1.9l1.2,2.7l-3.1,0.4l-7.8,1L84.2,91l-0.5-1.3
			c-0.3-0.9-0.5-1.8-0.7-2.6c-0.1-0.8-0.2-2.1-0.2-4.1v-9c0-2.5-0.5-3.2-0.6-3.4c-0.2-0.3-0.7-0.4-1.4-0.4c-0.2,0-0.5,0-0.8,0.1
			l-0.7,0.1v19.1v2l-2,0.2l-7.6,0.9l-2,0.2v-2V41.5v-2l2-0.2L81,37.9C82.3,37.8,83.2,37.7,84.1,37.7 M79.7,59.3l0.8-0.1
			c1-0.1,1.6-0.4,2-0.8c0.2-0.2,0.6-0.9,0.6-2.7v-3.8c0-1.8-0.4-2.4-0.5-2.6c-0.2-0.2-0.5-0.3-0.9-0.3c-0.1,0-0.3,0-0.5,0l-1.5,0.2
			V59.3 M84.1,33.7c-1,0-2.1,0.1-3.2,0.2l-11.3,1.4l-2,0.2l-3.5,0.4v3.5v2v49.4v2v4.5l4.5-0.6l2-0.2l7.6-0.9l2-0.2l1.6-0.2l0,0
			l3.2-0.4l1.4-0.2l7.8-1l3.1-0.4l5.5-0.7l-2.3-5l-1.2-2.7c-0.1-0.2-0.2-0.4-0.2-0.6c0-0.4-0.1-1.3-0.1-2.8v-8.7
			c0-3.8-0.6-6.9-1.7-9.3c-0.2-0.4-0.4-0.8-0.6-1.2c1.5-2.7,2.2-6,2.2-9.8v-3c0-5.6-1.5-9.8-4.6-12.5C91.6,34.8,88.2,33.7,84.1,33.7
			L84.1,33.7z"/>
	</g>
</g>
</svg>
