<svg id="Layer_1" data-name="Layer 1" xmlns="http://www.w3.org/2000/svg" viewBox="0 0 230.12 456.91"><title>sword1 hidden</title><path d="M108.2,98.37c0,36.49,2.48,206.4,4.79,281.33.69,22.46,1.41,36.71,1.41,36.71s.69-14.22,1.32-36.67c2.08-74.91,4-244.75,3.91-281.33h0c0-.45,0-.87,0-1.27,3.78-.81,6.63-2.4,7.58-4.34H100.63c1,1.93,3.79,3.53,7.57,4.34v1.23" style="opacity:0.6000000000000001"/><path d="M132.74,90.15h-1.16c-1.07,0-7.35-.25-12.27-.38a1.5,1.5,0,0,0,.19-.25c11.52-1.31,18.8-9.24,18.8-21,0-.16-.25-15.17-19.68-18.35a1.21,1.21,0,0,0-1-.57h-.37a2.9,2.9,0,0,0,0-5.8h-1.37l-.22-1.45a1.86,1.86,0,0,0-3.72,0l-.22,1.45h-1.37a2.9,2.9,0,0,0,0,5.8H110a1.26,1.26,0,0,0-1.26,1.25v.67a1.24,1.24,0,0,0,1,1.21c0,.42-.07.87-.11,1.34,0,.17,0,.33,0,.5l-.06.75c0,.17,0,.33,0,.5l-.06.75c0,.16,0,.33,0,.5s0,.49-.06.75,0,.33,0,.49l-.06.75,0,.5-.06.75,0,.5-.06.75,0,.49c0,.26,0,.51,0,.75l0,.5c0,.25,0,.5,0,.75l0,.5c0,.25,0,.5,0,.75l0,.5,0,.74c0,.18,0,.34,0,.5s0,.51,0,.75,0,.34,0,.5,0,.52,0,.75c0,0,0,.1,0,.14s0,.23,0,.36v.75c0,.16,0,.32,0,.49s0,.49,0,.75,0,.33,0,.5,0,.49,0,.75,0,.33,0,.5,0,.49,0,.75,0,.33,0,.5,0,.49,0,.74,0,.34,0,.5,0,.5,0,.75,0,.33,0,.5,0,.5,0,.75,0,.33,0,.5,0,.5,0,.74,0,.34,0,.5,0,.5,0,.75,0,.33,0,.5,0,.5,0,.75V82l0,.75c0,.16,0,.33,0,.49s0,.51,0,.75,0,.34,0,.5l0,.75c0,.17,0,.34,0,.5,0,.48,0,.91,0,1.3a1.36,1.36,0,0,0-1.27,1.35v.47a1.35,1.35,0,0,0,.37.92c-5.31.15-11.89.39-11.89.39v0a4.33,4.33,0,0,0-4,4.32,4.38,4.38,0,0,0,.21,1.26,4.34,4.34,0,0,1,3.85-4.1c1,0,14.19.5,17.64.5,3.24,0,15.12-.5,17.31-.6v0h1.17a4.36,4.36,0,0,0,4.35-4.36,1.49,1.49,0,0,0,0-.21A4.34,4.34,0,0,1,132.74,90.15Zm-14-4.89,0-.75V84c0-.24,0-.49,0-.75l0-.49c0-.25,0-.5,0-.75v-.5c0-.25,0-.5,0-.75s0-.33,0-.5,0-.5,0-.75V79c0-.24,0-.49,0-.74s0-.34,0-.5,0-.5,0-.75l0-.5c0-.25,0-.5,0-.75s0-.33,0-.5,0-.5,0-.74,0-.34,0-.5,0-.51,0-.75,0-.34,0-.5,0-.51,0-.75,0-.34,0-.5,0-.51,0-.75,0-.33,0-.49V69.05c0-.23,0-.48,0-.75s0-.33,0-.5l0-.75c0-.16,0-.32,0-.5s0-.49,0-.74l0-.5-.06-.75,0-.5-.06-.75c0-.16,0-.33,0-.5s0-.49-.06-.75,0-.33,0-.49,0-.5-.07-.75,0-.33,0-.5,0-.5-.07-.75,0-.33,0-.5,0-.5-.07-.75,0-.33,0-.49-.05-.51-.07-.75,0-.34,0-.5,0-.51-.07-.75,0-.33,0-.5,0-.5-.08-.75,0-.33,0-.5c0-.46-.09-.9-.13-1.32a1.26,1.26,0,0,0,.82-.54c11.12,2,16.16,8.84,16.16,15.37,0,12.28-5.09,18.79-15.51,19.85a1.52,1.52,0,0,0-.6-.32c0-.4,0-.86,0-1.36Z" style="opacity:0.6000000000000001"/></svg>