<?xml version="1.0" encoding="utf-8"?>
<!-- Generator: Adobe Illustrator 23.0.3, SVG Export Plug-In . SVG Version: 6.00 Build 0)  -->
<svg version="1.1" id="Layer_1" xmlns="http://www.w3.org/2000/svg" xmlns:xlink="http://www.w3.org/1999/xlink" x="0px" y="0px"
	 viewBox="0 0 230.1 456.9" style="enable-background:new 0 0 230.1 456.9;" xml:space="preserve">
<style type="text/css">
	.st0{fill:#B3B3B3;}
	.st1{fill:#787878;}
	.st2{fill:#CCCCCB;}
	.st3{fill:#552B11;}
	.st4{fill:#9E9D9E;}
	.st5{opacity:0.3;enable-background:new    ;}
	.st6{fill:#787979;}
</style>
<title>sword1</title>
<path class="st0" d="M114.4,84.5h-5.3v0.8h5.3L114.4,84.5z"/>
<path class="st0" d="M114.4,67.1h-5.6c0,0.3,0,0.5,0,0.8h5.7L114.4,67.1z"/>
<path class="st0" d="M114.4,72h-5.7c0,0.2,0,0.5,0,0.8h5.7L114.4,72z"/>
<path class="st0" d="M114.4,83.3H109c0,0.3,0,0.5,0,0.8h5.3L114.4,83.3z"/>
<path class="st0" d="M114.4,65.8h-5.6v0.7h5.6L114.4,65.8z"/>
<path class="st0" d="M114.4,82H109v0.8h5.4L114.4,82z"/>
<path class="st0" d="M114.4,62.1H109c0,0.3,0,0.5,0,0.8h5.4L114.4,62.1z"/>
<path class="st0" d="M114.4,63.3H109c0,0.2,0,0.5,0,0.7h5.5L114.4,63.3z"/>
<path class="st0" d="M114.4,64.6h-5.5c0,0.2,0,0.5,0,0.8h5.6L114.4,64.6z"/>
<path class="st0" d="M114.4,79.5h-5.5c0,0.2,0,0.5,0,0.8h5.4L114.4,79.5z"/>
<path class="st0" d="M114.4,74.5h-5.6c0,0.2,0,0.5,0,0.7h5.6L114.4,74.5z"/>
<path class="st0" d="M114.4,75.8h-5.6c0,0.2,0,0.5,0,0.8h5.6L114.4,75.8z"/>
<path class="st0" d="M114.4,70.8h-5.7c0,0.2,0,0.5,0,0.8h5.7L114.4,70.8z"/>
<path class="st0" d="M114.4,73.3h-5.6c0,0.2,0,0.5,0,0.8h5.6L114.4,73.3z"/>
<path class="st0" d="M114.4,77h-5.5c0,0.2,0,0.5,0,0.8h5.5L114.4,77z"/>
<path class="st0" d="M114.4,68.3h-5.7c0,0.3,0,0.5,0,0.8h5.7L114.4,68.3z"/>
<path class="st0" d="M114.4,80.8H109c0,0.2,0,0.5,0,0.8h5.4L114.4,80.8z"/>
<path class="st0" d="M114.4,78.3h-5.5c0,0.2,0,0.5,0,0.7h5.5L114.4,78.3z"/>
<path class="st0" d="M114.4,69.6h-5.7v0.8h5.7V69.6z"/>
<path class="st0" d="M114.4,87.1v-1.3h-5.3c0,0.5,0,0.9,0,1.3H114.4L114.4,87.1z"/>
<path class="st0" d="M114.4,57.1h-5c0,0.2,0,0.5-0.1,0.8h5L114.4,57.1z"/>
<path class="st0" d="M114.4,59.6h-5.2l-0.1,0.8h5.2V59.6z"/>
<path class="st0" d="M114.4,55.8h-4.9l-0.1,0.8h5L114.4,55.8z"/>
<path class="st0" d="M114.4,58.3h-5.1l-0.1,0.8h5.2L114.4,58.3z"/>
<path class="st0" d="M114.4,60.8h-5.3l-0.1,0.8h5.3L114.4,60.8z"/>
<path class="st0" d="M114.4,52.8H110c-0.1,0-0.1,0-0.2,0c0,0.4-0.1,0.9-0.1,1.3h4.8L114.4,52.8z"/>
<path class="st0" d="M114.4,54.6h-4.8l-0.1,0.8h4.8V54.6z"/>
<path class="st1" d="M114.4,54.1h-4.8c0,0.2,0,0.3,0,0.5h4.8L114.4,54.1z"/>
<path class="st1" d="M114.4,55.3h-4.8c0,0.2,0,0.3,0,0.5h4.9L114.4,55.3z"/>
<path class="st1" d="M114.4,56.6h-5c0,0.2,0,0.3,0,0.5h5V56.6z"/>
<path class="st1" d="M114.4,57.8h-5c0,0.2,0,0.3,0,0.5h5.1L114.4,57.8z"/>
<path class="st1" d="M114.4,59.1h-5.2v0.5h5.2L114.4,59.1z"/>
<path class="st1" d="M114.4,60.3h-5.2v0.5h5.3L114.4,60.3z"/>
<path class="st1" d="M114.4,61.6h-5.3v0.5h5.4L114.4,61.6z"/>
<path class="st1" d="M114.4,62.8H109v0.5h5.4L114.4,62.8z"/>
<path class="st1" d="M114.4,64.1h-5.5v0.5h5.5L114.4,64.1z"/>
<path class="st1" d="M114.4,65.3h-5.6v0.5h5.6L114.4,65.3z"/>
<path class="st1" d="M114.4,66.6h-5.6c0,0.2,0,0.3,0,0.5h5.6L114.4,66.6z"/>
<path class="st1" d="M114.4,67.8h-5.7c0,0.2,0,0.3,0,0.5h5.7L114.4,67.8z"/>
<path class="st1" d="M114.4,69.1h-5.7c0,0,0,0.1,0,0.1s0,0.2,0,0.4h5.7V69.1z"/>
<path class="st1" d="M114.4,70.3h-5.7c0,0.2,0,0.3,0,0.5h5.7L114.4,70.3z"/>
<path class="st1" d="M114.4,71.5h-5.7c0,0.2,0,0.3,0,0.5h5.7L114.4,71.5z"/>
<path class="st1" d="M114.4,72.8h-5.7c0,0.2,0,0.3,0,0.5h5.6L114.4,72.8z"/>
<path class="st1" d="M114.4,74h-5.6c0,0.2,0,0.3,0,0.5h5.6L114.4,74z"/>
<path class="st1" d="M114.4,75.3h-5.6c0,0.2,0,0.3,0,0.5h5.6L114.4,75.3z"/>
<path class="st1" d="M114.4,76.5h-5.6c0,0.2,0,0.3,0,0.5h5.5L114.4,76.5z"/>
<path class="st1" d="M114.4,77.8h-5.5c0,0.2,0,0.3,0,0.5h5.5L114.4,77.8z"/>
<path class="st1" d="M114.4,79h-5.5c0,0.2,0,0.3,0,0.5h5.5L114.4,79z"/>
<path class="st1" d="M114.4,80.3h-5.4c0,0.2,0,0.3,0,0.5h5.4L114.4,80.3z"/>
<path class="st1" d="M114.4,81.5H109V82h5.4L114.4,81.5z"/>
<path class="st1" d="M114.4,82.8H109c0,0.2,0,0.3,0,0.5h5.4L114.4,82.8z"/>
<path class="st1" d="M114.4,84h-5.3c0,0.2,0,0.3,0,0.5h5.3L114.4,84z"/>
<path class="st1" d="M114.4,85.3h-5.3c0,0.2,0,0.3,0,0.5h5.3L114.4,85.3z"/>
<path class="st2" d="M113.1,178.4V99.1l-4.8-0.7c0,36.5,2.5,206.4,4.8,281.3c0.7,21.3,1.3,35.2,1.4,36.6V178.4H113.1z"/>
<polygon class="st3" points="114.4,99.2 114.4,99.2 114.1,99.2 113.1,99.1 113.1,99.1 114.1,99.2 "/>
<polygon class="st3" points="114.4,178.4 114.4,99.2 114.1,99.2 113.1,99.1 113.1,178.4 "/>
<path class="st4" d="M114.4,99.2v-1.5h-0.5c-1.9,0-3.8-0.2-5.7-0.6v1.2l4.8,0.7l1,0.2L114.4,99.2z"/>
<path class="st0" d="M114.4,97.7v-4.9h-13.8c1,1.9,3.8,3.5,7.6,4.3c1.9,0.4,3.8,0.6,5.7,0.6L114.4,97.7z"/>
<path class="st0" d="M109.2,90.2c-0.4,0-0.7-0.2-1-0.4c-5.3,0.2-11.9,0.4-11.9,0.4l0,0c-2.3,0.2-4,2.1-4,4.3c0,0.4,0.1,0.9,0.2,1.3
	c0.1-2.1,1.7-3.9,3.8-4.1c1,0,14.2,0.5,17.6,0.5h0.3v-2L109.2,90.2z"/>
<path class="st1" d="M114.4,89.7v-0.5h-5.2c0,0,0-0.8-0.1-2.1c-0.7,0-1.3,0.6-1.3,1.3v0.5c0,0.3,0.1,0.7,0.4,0.9
	c2.5-0.1,4.7-0.1,5.8-0.1H114.4z"/>
<path class="st1" d="M114.4,89.2L114.4,89.2h-0.3v-1h0.3v-1.1h-5.2c0,1.3,0.1,2.1,0.1,2.1L114.4,89.2z"/>
<path class="st1" d="M114.1,88.1v1h0.3v-1H114.1z"/>
<path class="st1" d="M109.2,90.2h5.2v-0.6h-0.3c-1.1,0-3.3,0-5.8,0.1C108.5,90.1,108.9,90.2,109.2,90.2z"/>
<path class="st2" d="M114.4,47.6h-3.3l0.6-3.8h-1.4c-1.6,0-2.9,1.3-2.9,2.9c0,1.6,1.3,2.9,2.9,2.9h4.1L114.4,47.6z"/>
<path class="st1" d="M110.3,50.7h3.8v-0.5h0.3v-0.7H110c-0.7,0-1.3,0.6-1.3,1.2v0.7c0,0.6,0.4,1.1,1,1.2c0.1-0.8,0.1-1.5,0.2-2
	C110.1,50.7,110.2,50.7,110.3,50.7z"/>
<path class="st1" d="M114.4,52.8v-1.6h-0.3v-0.4h-3.8c-0.1,0-0.3,0-0.4,0c-0.1,0.5-0.1,1.3-0.2,2c0.1,0,0.1,0,0.2,0L114.4,52.8z"/>
<path class="st1" d="M114.4,50.3h-0.3v0.5h0.3V50.3z"/>
<path class="st1" d="M114.1,50.7v0.4h0.3v-0.4L114.1,50.7z"/>
<path class="st2" d="M114.4,40.6c-0.2-0.1-0.4-0.1-0.6-0.1c-1,0-1.9,0.8-1.9,1.9l-0.2,1.5h2.7V40.6z"/>
<polygon class="st2" points="114.4,47.6 114.4,43.8 111.7,43.8 111.1,47.6 "/>
<path class="st0" d="M118.7,84.5h-4.3v0.8h4.3L118.7,84.5z"/>
<path class="st5" d="M118.7,84.5h-4.3v0.8h4.3L118.7,84.5z"/>
<path class="st0" d="M119,67.1h-4.6v0.8h4.7L119,67.1z"/>
<path class="st5" d="M119,67.1h-4.6v0.8h4.7L119,67.1z"/>
<path class="st0" d="M119.1,72h-4.7v0.8h4.6C119,72.5,119.1,72.3,119.1,72z"/>
<path class="st5" d="M119.1,72h-4.7v0.8h4.6C119,72.5,119.1,72.3,119.1,72z"/>
<path class="st0" d="M118.8,83.3h-4.4V84h4.4C118.8,83.8,118.8,83.5,118.8,83.3z"/>
<path class="st5" d="M118.8,83.3h-4.4V84h4.4C118.8,83.8,118.8,83.5,118.8,83.3z"/>
<path class="st0" d="M119,65.8h-4.6v0.7h4.6C119,66.3,119,66.1,119,65.8z"/>
<path class="st5" d="M119,65.8h-4.6v0.7h4.6C119,66.3,119,66.1,119,65.8z"/>
<path class="st0" d="M118.8,82h-4.4v0.8h4.4C118.8,82.5,118.8,82.3,118.8,82z"/>
<path class="st5" d="M118.8,82h-4.4v0.8h4.4C118.8,82.5,118.8,82.3,118.8,82z"/>
<path class="st0" d="M118.7,62.1h-4.3v0.8h4.3C118.7,62.6,118.7,62.3,118.7,62.1z"/>
<path class="st5" d="M118.7,62.1h-4.3v0.8h4.3C118.7,62.6,118.7,62.3,118.7,62.1z"/>
<path class="st0" d="M118.8,63.3h-4.4v0.7h4.4L118.8,63.3z"/>
<path class="st5" d="M118.8,63.3h-4.4v0.7h4.4L118.8,63.3z"/>
<path class="st0" d="M118.9,64.6h-4.5v0.8h4.5L118.9,64.6z"/>
<path class="st5" d="M118.9,64.6h-4.5v0.8h4.5L118.9,64.6z"/>
<path class="st0" d="M118.9,79.5h-4.5v0.8h4.5C118.9,80,118.9,79.8,118.9,79.5z"/>
<path class="st5" d="M118.9,79.5h-4.5v0.8h4.5C118.9,80,118.9,79.8,118.9,79.5z"/>
<path class="st0" d="M119,74.5h-4.6v0.7h4.6C119,75,119,74.8,119,74.5z"/>
<path class="st5" d="M119,74.5h-4.6v0.7h4.6C119,75,119,74.8,119,74.5z"/>
<path class="st0" d="M119,75.8h-4.6v0.8h4.6C119,76.3,119,76,119,75.8z"/>
<path class="st5" d="M119,75.8h-4.6v0.8h4.6C119,76.3,119,76,119,75.8z"/>
<path class="st0" d="M119.1,70.8h-4.7v0.8h4.7C119.1,71.3,119.1,71,119.1,70.8z"/>
<path class="st5" d="M119.1,70.8h-4.7v0.8h4.7C119.1,71.3,119.1,71,119.1,70.8z"/>
<path class="st0" d="M119,73.3h-4.6V74h4.6C119,73.8,119,73.5,119,73.3z"/>
<path class="st5" d="M119,73.3h-4.6V74h4.6C119,73.8,119,73.5,119,73.3z"/>
<path class="st0" d="M118.9,77h-4.6v0.8h4.5C118.9,77.5,118.9,77.3,118.9,77z"/>
<path class="st5" d="M118.9,77h-4.6v0.8h4.5C118.9,77.5,118.9,77.3,118.9,77z"/>
<path class="st0" d="M119.1,68.3h-4.7v0.8h4.7C119.1,68.8,119.1,68.6,119.1,68.3z"/>
<path class="st5" d="M119.1,68.3h-4.7v0.8h4.7C119.1,68.8,119.1,68.6,119.1,68.3z"/>
<path class="st0" d="M118.8,80.8h-4.4v0.8h4.4C118.8,81.3,118.8,81,118.8,80.8z"/>
<path class="st5" d="M118.8,80.8h-4.4v0.8h4.4C118.8,81.3,118.8,81,118.8,80.8z"/>
<path class="st0" d="M118.9,78.3h-4.5V79h4.5C118.9,78.8,118.9,78.5,118.9,78.3z"/>
<path class="st5" d="M118.9,78.3h-4.5V79h4.5C118.9,78.8,118.9,78.5,118.9,78.3z"/>
<path class="st0" d="M119.1,69.6h-4.7v0.8h4.7V69.6z"/>
<path class="st5" d="M119.1,69.6h-4.7v0.8h4.7V69.6z"/>
<path class="st0" d="M118.7,87.1c0-0.4,0-0.9,0-1.3h-4.3v1.3h3.9C118.4,87.1,118.5,87.1,118.7,87.1z"/>
<path class="st5" d="M118.7,87.1c0-0.4,0-0.9,0-1.3h-4.3v1.3h3.9C118.4,87.1,118.5,87.1,118.7,87.1z"/>
<path class="st0" d="M118.2,57.1h-3.8v0.8h3.9C118.3,57.6,118.2,57.3,118.2,57.1z"/>
<path class="st5" d="M118.2,57.1h-3.8v0.8h3.9C118.3,57.6,118.2,57.3,118.2,57.1z"/>
<path class="st0" d="M118.4,59.6h-4.1v0.8h4.1C118.5,60.1,118.5,59.8,118.4,59.6z"/>
<path class="st5" d="M118.4,59.6h-4.1v0.8h4.1C118.5,60.1,118.5,59.8,118.4,59.6z"/>
<path class="st0" d="M118.1,55.8h-3.7v0.8h3.8C118.2,56.3,118.1,56.1,118.1,55.8z"/>
<path class="st5" d="M118.1,55.8h-3.7v0.8h3.8C118.2,56.3,118.1,56.1,118.1,55.8z"/>
<path class="st0" d="M118.3,58.3h-4v0.8h4C118.4,58.8,118.4,58.6,118.3,58.3z"/>
<path class="st5" d="M118.3,58.3h-4v0.8h4C118.4,58.8,118.4,58.6,118.3,58.3z"/>
<path class="st0" d="M118.6,60.8h-4.2v0.8h4.2C118.6,61.3,118.6,61.1,118.6,60.8z"/>
<path class="st5" d="M118.6,60.8h-4.2v0.8h4.2C118.6,61.3,118.6,61.1,118.6,60.8z"/>
<path class="st0" d="M117.8,52.7c-0.1,0-0.1,0-0.2,0h-3.2V54h3.5C117.9,53.6,117.8,53.2,117.8,52.7z"/>
<path class="st5" d="M117.8,52.7c-0.1,0-0.1,0-0.2,0h-3.2V54h3.5C117.9,53.6,117.8,53.2,117.8,52.7z"/>
<path class="st0" d="M118,54.6h-3.6v0.8h3.7C118,55.1,118,54.8,118,54.6z"/>
<path class="st5" d="M118,54.6h-3.6v0.8h3.7C118,55.1,118,54.8,118,54.6z"/>
<path class="st1" d="M117.9,54.1h-3.5v0.5h3.6C118,54.4,117.9,54.3,117.9,54.1z"/>
<path class="st5" d="M117.9,54.1h-3.5v0.5h3.6C118,54.4,117.9,54.3,117.9,54.1z"/>
<path class="st1" d="M118.1,55.3h-3.7v0.5h3.7C118.1,55.7,118.1,55.5,118.1,55.3z"/>
<path class="st5" d="M118.1,55.3h-3.7v0.5h3.7C118.1,55.7,118.1,55.5,118.1,55.3z"/>
<path class="st1" d="M118.2,56.6h-3.8v0.5h3.8C118.2,56.9,118.2,56.7,118.2,56.6z"/>
<path class="st5" d="M118.2,56.6h-3.8v0.5h3.8C118.2,56.9,118.2,56.7,118.2,56.6z"/>
<path class="st1" d="M118.3,57.8h-3.9v0.5h4C118.3,58.2,118.3,58,118.3,57.8z"/>
<path class="st5" d="M118.3,57.8h-3.9v0.5h4C118.3,58.2,118.3,58,118.3,57.8z"/>
<path class="st1" d="M118.4,59.1h-4v0.5h4.1C118.4,59.4,118.4,59.2,118.4,59.1z"/>
<path class="st5" d="M118.4,59.1h-4v0.5h4.1C118.4,59.4,118.4,59.2,118.4,59.1z"/>
<path class="st1" d="M118.5,60.3h-4.1v0.5h4.2C118.6,60.7,118.5,60.5,118.5,60.3z"/>
<path class="st5" d="M118.5,60.3h-4.1v0.5h4.2C118.6,60.7,118.5,60.5,118.5,60.3z"/>
<path class="st1" d="M118.6,61.6h-4.2v0.5h4.3C118.7,61.9,118.6,61.7,118.6,61.6z"/>
<path class="st5" d="M118.6,61.6h-4.2v0.5h4.3C118.7,61.9,118.6,61.7,118.6,61.6z"/>
<path class="st1" d="M118.7,62.8h-4.3v0.5h4.4C118.8,63.2,118.8,63,118.7,62.8z"/>
<path class="st5" d="M118.7,62.8h-4.3v0.5h4.4C118.8,63.2,118.8,63,118.7,62.8z"/>
<path class="st1" d="M118.8,64.1h-4.4v0.5h4.5L118.8,64.1z"/>
<path class="st5" d="M118.8,64.1h-4.4v0.5h4.5L118.8,64.1z"/>
<path class="st1" d="M118.9,65.3h-4.5v0.5h4.6L118.9,65.3z"/>
<path class="st5" d="M118.9,65.3h-4.5v0.5h4.6L118.9,65.3z"/>
<path class="st1" d="M119,66.6h-4.6v0.5h4.6C119,66.9,119,66.7,119,66.6z"/>
<path class="st5" d="M119,66.6h-4.6v0.5h4.6C119,66.9,119,66.7,119,66.6z"/>
<path class="st1" d="M119.1,67.8h-4.7v0.5h4.7C119.1,68.1,119.1,68,119.1,67.8z"/>
<path class="st5" d="M119.1,67.8h-4.7v0.5h4.7C119.1,68.1,119.1,68,119.1,67.8z"/>
<path class="st1" d="M119.1,69.2v-0.1h-4.7v0.5h4.7V69.2z"/>
<path class="st5" d="M119.1,69.2v-0.1h-4.7v0.5h4.7V69.2z"/>
<path class="st1" d="M119.1,70.3h-4.7v0.5h4.7C119.1,70.6,119.1,70.5,119.1,70.3z"/>
<path class="st5" d="M119.1,70.3h-4.7v0.5h4.7C119.1,70.6,119.1,70.5,119.1,70.3z"/>
<path class="st1" d="M119.1,71.5h-4.7V72h4.7C119.1,71.9,119.1,71.7,119.1,71.5z"/>
<path class="st5" d="M119.1,71.5h-4.7V72h4.7C119.1,71.9,119.1,71.7,119.1,71.5z"/>
<path class="st1" d="M119,72.8h-4.7v0.5h4.7C119,73.1,119,73,119,72.8z"/>
<path class="st5" d="M119,72.8h-4.7v0.5h4.7C119,73.1,119,73,119,72.8z"/>
<path class="st1" d="M119,74h-4.6v0.5h4.6C119,74.4,119,74.2,119,74z"/>
<path class="st5" d="M119,74h-4.6v0.5h4.6C119,74.4,119,74.2,119,74z"/>
<path class="st1" d="M119,75.3h-4.6v0.5h4.6C119,75.6,119,75.5,119,75.3z"/>
<path class="st5" d="M119,75.3h-4.6v0.5h4.6C119,75.6,119,75.5,119,75.3z"/>
<path class="st1" d="M119,76.5h-4.6V77h4.6L119,76.5z"/>
<path class="st5" d="M119,76.5h-4.6V77h4.6L119,76.5z"/>
<path class="st1" d="M118.9,77.8h-4.5v0.5h4.5C118.9,78.1,118.9,77.9,118.9,77.8z"/>
<path class="st5" d="M118.9,77.8h-4.5v0.5h4.5C118.9,78.1,118.9,77.9,118.9,77.8z"/>
<path class="st1" d="M118.9,79h-4.5v0.5h4.5L118.9,79z"/>
<path class="st5" d="M118.9,79h-4.5v0.5h4.5L118.9,79z"/>
<path class="st1" d="M118.9,80.3h-4.5v0.5h4.4C118.8,80.6,118.8,80.4,118.9,80.3z"/>
<path class="st5" d="M118.9,80.3h-4.5v0.5h4.4C118.8,80.6,118.8,80.4,118.9,80.3z"/>
<path class="st1" d="M118.8,81.5h-4.4V82h4.4L118.8,81.5z"/>
<path class="st5" d="M118.8,81.5h-4.4V82h4.4L118.8,81.5z"/>
<path class="st1" d="M118.8,82.8h-4.4v0.5h4.4L118.8,82.8z"/>
<path class="st5" d="M118.8,82.8h-4.4v0.5h4.4L118.8,82.8z"/>
<path class="st1" d="M118.8,84h-4.4v0.5h4.3L118.8,84z"/>
<path class="st5" d="M118.8,84h-4.4v0.5h4.3L118.8,84z"/>
<path class="st1" d="M118.7,85.3h-4.3v0.5h4.3L118.7,85.3z"/>
<path class="st5" d="M118.7,85.3h-4.3v0.5h4.3L118.7,85.3z"/>
<path class="st2" d="M115.7,379.7c2.1-74.9,4-244.8,3.9-281.3l-4.5,0.7v79.3h-0.7v238C114.4,416.4,115.1,402.2,115.7,379.7z"/>
<path class="st5" d="M115.7,379.7c2.1-74.9,4-244.8,3.9-281.3l-4.5,0.7v79.3h-0.7v238C114.4,416.4,115.1,402.2,115.7,379.7z"/>
<path class="st6" d="M118.9,50.2l-0.7-0.1l0.1,1.4l-0.1,0.7l0.5,0.1c11.9,2.2,16.1,9.6,16.1,15.4c0,12.2-5,18.7-15.2,19.8l-0.7,0.1
	l0.2,0.7c0,0.1,0,0.2,0,0.2v1.2l0.6-0.1c11.5-1.4,18.6-9.4,18.6-21C138.3,68.4,138.1,53.6,118.9,50.2z"/>
<polygon class="st3" points="114.4,99.2 115.1,99.1 115.1,99.1 114.4,99.2 "/>
<polygon class="st5" points="114.4,99.2 115.1,99.1 115.1,99.1 114.4,99.2 "/>
<polygon class="st3" points="114.4,178.4 115.1,178.4 115.1,99.1 114.4,99.2 "/>
<polygon class="st5" points="114.4,178.4 115.1,178.4 115.1,99.1 114.4,99.2 "/>
<path class="st4" d="M114.4,99.2l0.7-0.1l4.5-0.7c0-0.4,0-0.9,0-1.3c-1.7,0.4-3.5,0.6-5.2,0.6L114.4,99.2z"/>
<path class="st5" d="M114.4,99.2l0.7-0.1l4.5-0.7c0-0.4,0-0.9,0-1.3c-1.7,0.4-3.5,0.6-5.2,0.6L114.4,99.2z"/>
<path class="st0" d="M119.6,97.1c3.8-0.8,6.6-2.4,7.6-4.3h-12.8v4.9C116.1,97.7,117.9,97.5,119.6,97.1z"/>
<path class="st5" d="M119.6,97.1c3.8-0.8,6.6-2.4,7.6-4.3h-12.8v4.9C116.1,97.7,117.9,97.5,119.6,97.1z"/>
<path class="st0" d="M131.4,91.6h1.2c2.4,0,4.4-2,4.4-4.4c0-0.1,0-0.1,0-0.2c-0.6,1.8-2.2,3.1-4.1,3.1h-1.2c-1.1,0-7.3-0.2-12.3-0.4
	c-0.3,0.3-0.6,0.5-1,0.5h-3.9v2C118.1,92.2,129.3,91.7,131.4,91.6L131.4,91.6z"/>
<path class="st5" d="M131.4,91.6h1.2c2.4,0,4.4-2,4.4-4.4c0-0.1,0-0.1,0-0.2c-0.6,1.8-2.2,3.1-4.1,3.1h-1.2c-1.1,0-7.3-0.2-12.3-0.4
	c-0.3,0.3-0.6,0.5-1,0.5h-3.9v2C118.1,92.2,129.3,91.7,131.4,91.6L131.4,91.6z"/>
<path class="st1" d="M118.6,89.2h-4.2v0.5c1.1,0,2.9,0,4.9,0.1c0.2-0.2,0.3-0.5,0.3-0.8C119.3,88.9,119,89,118.6,89.2L118.6,89.2z"
	/>
<path class="st5" d="M118.6,89.2h-4.2v0.5c1.1,0,2.9,0,4.9,0.1c0.2-0.2,0.3-0.5,0.3-0.8C119.3,88.9,119,89,118.6,89.2L118.6,89.2z"
	/>
<path class="st1" d="M118.7,87.1c0,0.4,0,0.7,0,1l1-0.1C119.5,87.6,119.1,87.2,118.7,87.1z"/>
<path class="st5" d="M118.7,87.1c0,0.4,0,0.7,0,1l1-0.1C119.5,87.6,119.1,87.2,118.7,87.1z"/>
<path class="st1" d="M118.6,89.2L118.6,89.2c-0.7,0-1.4,0-2.2,0H118.6z"/>
<path class="st5" d="M118.6,89.2L118.6,89.2c-0.7,0-1.4,0-2.2,0H118.6z"/>
<path class="st1" d="M118.6,88.1c0-0.3,0-0.6,0-1c-0.1,0-0.2,0-0.3,0h-3.9v1.1c0.6,0,1.1,0.1,1.7,0.1
	C117,88.2,117.8,88.1,118.6,88.1z"/>
<path class="st5" d="M118.6,88.1c0-0.3,0-0.6,0-1c-0.1,0-0.2,0-0.3,0h-3.9v1.1c0.6,0,1.1,0.1,1.7,0.1
	C117,88.2,117.8,88.1,118.6,88.1z"/>
<path class="st1" d="M114.4,89.1L114.4,89.1h1.2H114.4z"/>
<path class="st5" d="M114.4,89.1L114.4,89.1h1.2H114.4z"/>
<path class="st1" d="M116.1,89.2L116.1,89.2z"/>
<path class="st5" d="M116.1,89.2L116.1,89.2z"/>
<path class="st1" d="M119.7,88.4c0-0.1,0-0.3-0.1-0.4l-1,0.1c0,0.5,0,0.8,0,1c0.4,0,0.7-0.1,1.1-0.1c0,0,0,0,0-0.1L119.7,88.4z"/>
<path class="st5" d="M119.7,88.4c0-0.1,0-0.3-0.1-0.4l-1,0.1c0,0.5,0,0.8,0,1c0.4,0,0.7-0.1,1.1-0.1c0,0,0,0,0-0.1L119.7,88.4z"/>
<path class="st1" d="M116.4,89.2c0.8,0,1.5,0,2.2-0.1c0-0.2,0-0.5,0-1c-0.8,0.1-1.7,0.1-2.6,0.1c-0.6,0-1.1,0-1.7-0.1v1h1.2
	L116.4,89.2z"/>
<path class="st5" d="M116.4,89.2c0.8,0,1.5,0,2.2-0.1c0-0.2,0-0.5,0-1c-0.8,0.1-1.7,0.1-2.6,0.1c-0.6,0-1.1,0-1.7-0.1v1h1.2
	L116.4,89.2z"/>
<path class="st1" d="M114.4,90.2h3.9c0.4,0,0.7-0.2,1-0.5c-2,0-3.8-0.1-4.9-0.1V90.2z"/>
<path class="st5" d="M114.4,90.2h3.9c0.4,0,0.7-0.2,1-0.5c-2,0-3.8-0.1-4.9-0.1V90.2z"/>
<path class="st2" d="M114.4,47.6v2h2.8c1.6,0,2.9-1.3,2.9-2.9c0-1.6-1.3-2.9-2.9-2.9h-1.4l0.6,3.8H114.4z"/>
<path class="st5" d="M114.4,47.6v2h2.8c1.6,0,2.9-1.3,2.9-2.9c0-1.6-1.3-2.9-2.9-2.9h-1.4l0.6,3.8H114.4z"/>
<path class="st1" d="M118.8,51.7c-0.4-0.1-0.8-0.1-1.2-0.2c0,0.4,0.1,0.8,0.1,1.2C118.3,52.7,118.8,52.2,118.8,51.7z"/>
<path class="st5" d="M118.8,51.7c-0.4-0.1-0.8-0.1-1.2-0.2c0,0.4,0.1,0.8,0.1,1.2C118.3,52.7,118.8,52.2,118.8,51.7z"/>
<path class="st1" d="M114.4,50.3c1.5,0.1,3,0.3,4.4,0.5c0-0.7-0.6-1.2-1.2-1.2h-3.2V50.3z"/>
<path class="st5" d="M114.4,50.3c1.5,0.1,3,0.3,4.4,0.5c0-0.7-0.6-1.2-1.2-1.2h-3.2V50.3z"/>
<path class="st1" d="M117.8,52.7c-0.1-0.4-0.1-0.9-0.1-1.2c-1-0.2-2.1-0.3-3.3-0.3v1.6h3.2C117.7,52.8,117.7,52.8,117.8,52.7z"/>
<path class="st5" d="M117.8,52.7c-0.1-0.4-0.1-0.9-0.1-1.2c-1-0.2-2.1-0.3-3.3-0.3v1.6h3.2C117.7,52.8,117.7,52.8,117.8,52.7z"/>
<path class="st1" d="M114.4,50.7h2.8c0.1,0,0.2,0,0.3,0c0,0.2,0.1,0.5,0.1,0.8c0.4,0.1,0.8,0.1,1.2,0.2c0-0.1,0-0.1,0-0.2v-0.7
	c0,0,0,0,0-0.1c-1.5-0.3-3-0.4-4.4-0.5L114.4,50.7z"/>
<path class="st5" d="M114.4,50.7h2.8c0.1,0,0.2,0,0.3,0c0,0.2,0.1,0.5,0.1,0.8c0.4,0.1,0.8,0.1,1.2,0.2c0-0.1,0-0.1,0-0.2v-0.7
	c0,0,0,0,0-0.1c-1.5-0.3-3-0.4-4.4-0.5L114.4,50.7z"/>
<path class="st1" d="M117.6,50.7c-0.1,0-0.2,0-0.3,0h-2.8v0.4c1.2,0.1,2.2,0.2,3.3,0.3C117.6,51.2,117.6,50.9,117.6,50.7z"/>
<path class="st5" d="M117.6,50.7c-0.1,0-0.2,0-0.3,0h-2.8v0.4c1.2,0.1,2.2,0.2,3.3,0.3C117.6,51.2,117.6,50.9,117.6,50.7z"/>
<path class="st2" d="M115.9,43.8l-0.2-1.5c0-0.8-0.5-1.5-1.2-1.8v3.2H115.9z"/>
<path class="st5" d="M115.9,43.8l-0.2-1.5c0-0.8-0.5-1.5-1.2-1.8v3.2H115.9z"/>
<polygon class="st2" points="114.4,47.6 116.4,47.6 115.9,43.8 114.4,43.8 "/>
<polygon class="st5" points="114.4,47.6 116.4,47.6 115.9,43.8 114.4,43.8 "/>
</svg>
