<?xml version="1.0" encoding="utf-8"?>
<!-- Generator: Adobe Illustrator 23.0.3, SVG Export Plug-In . SVG Version: 6.00 Build 0)  -->
<svg version="1.1" id="Layer_1" xmlns="http://www.w3.org/2000/svg" xmlns:xlink="http://www.w3.org/1999/xlink" x="0px" y="0px"
	 viewBox="0 0 230.1 456.9" style="enable-background:new 0 0 230.1 456.9;" xml:space="preserve">
<style type="text/css">
	.st0{fill:#E5A424;}
	.st1{fill:#552B11;}
	.st2{opacity:0.3;fill:#171716;enable-background:new    ;}
</style>
<title>stick</title>
<polygon class="st0" points="115.1,250.1 111.4,246.4 111.4,249.3 115.1,253 "/>
<polygon class="st0" points="115.1,222.4 111.4,218.8 111.4,221.6 115.1,225.3 "/>
<polygon class="st0" points="115.1,167 111.4,163.4 111.4,166.2 115.1,169.9 "/>
<polygon class="st0" points="115.1,240.9 111.4,237.2 111.4,240.1 115.1,243.7 "/>
<polygon class="st0" points="115.1,231.6 111.4,228 111.4,230.9 115.1,234.5 "/>
<polygon class="st0" points="115.1,203.9 111.4,200.3 111.4,203.2 115.1,206.8 "/>
<polygon class="st0" points="115.1,176.2 111.4,172.6 111.4,175.5 115.1,179.1 "/>
<polygon class="st0" points="115.1,185.5 111.4,181.8 111.4,184.7 115.1,188.4 "/>
<polygon class="st0" points="115.1,194.7 111.4,191.1 111.4,193.9 115.1,197.6 "/>
<polygon class="st0" points="115.1,213.2 111.4,209.5 111.4,212.4 115.1,216 "/>
<polygon class="st0" points="115.1,314.7 111.4,311.1 111.4,313.9 115.1,317.6 "/>
<polygon class="st0" points="115.1,324 111.4,320.3 111.4,323.2 115.1,326.8 "/>
<polygon class="st0" points="115.1,333.2 111.4,329.5 111.4,333.4 115.1,337.1 "/>
<polygon class="st0" points="115.1,259.3 111.4,255.7 111.4,258.6 115.1,262.2 "/>
<path class="st0" d="M111.4,339.8v74.1c0,1.2,0.9,2.1,2.1,2.1c0,0,0,0,0,0h1.6v-72.5L111.4,339.8z"/>
<polygon class="st0" points="115.1,268.6 111.4,264.9 111.4,267.8 115.1,271.4 "/>
<polygon class="st0" points="115.1,287 111.4,283.4 111.4,286.2 115.1,289.9 "/>
<polygon class="st0" points="115.1,305.5 111.4,301.8 111.4,304.7 115.1,308.4 "/>
<polygon class="st0" points="115.1,296.3 111.4,292.6 111.4,295.5 115.1,299.1 "/>
<polygon class="st0" points="115.1,277.8 111.4,274.1 111.4,277 115.1,280.7 "/>
<polygon class="st0" points="115.1,120.9 111.4,117.2 111.4,120.1 115.1,123.7 "/>
<path class="st0" d="M115.1,40.9h-1.6c-1.2,0-2.1,0.9-2.1,2.1v67.8l3.7,3.7L115.1,40.9z"/>
<polygon class="st0" points="115.1,139.3 111.4,135.7 111.4,138.5 115.1,142.2 "/>
<polygon class="st0" points="115.1,157.8 111.4,154.1 111.4,157 115.1,160.7 "/>
<polygon class="st0" points="115.1,148.6 111.4,144.9 111.4,147.8 115.1,151.4 "/>
<polygon class="st0" points="115.1,130.1 111.4,126.4 111.4,129.3 115.1,133 "/>
<polygon class="st1" points="115.1,114.5 111.4,110.8 111.4,117.2 115.1,120.9 "/>
<polygon class="st1" points="115.1,123.7 111.4,120.1 111.4,126.4 115.1,130.1 "/>
<polygon class="st1" points="115.1,133 111.4,129.3 111.4,135.7 115.1,139.3 "/>
<polygon class="st1" points="115.1,142.2 111.4,138.5 111.4,144.9 115.1,148.6 "/>
<polygon class="st1" points="115.1,151.4 111.4,147.8 111.4,154.1 115.1,157.8 "/>
<polygon class="st1" points="115.1,160.7 111.4,157 111.4,163.4 115.1,167 "/>
<polygon class="st1" points="115.1,169.9 111.4,166.2 111.4,172.6 115.1,176.2 "/>
<polygon class="st1" points="115.1,179.1 111.4,175.5 111.4,181.8 115.1,185.5 "/>
<polygon class="st1" points="115.1,188.4 111.4,184.7 111.4,191.1 115.1,194.7 "/>
<polygon class="st1" points="115.1,197.6 111.4,193.9 111.4,200.3 115.1,203.9 "/>
<polygon class="st1" points="115.1,206.8 111.4,203.2 111.4,209.5 115.1,213.2 "/>
<polygon class="st1" points="115.1,216 111.4,212.4 111.4,218.8 115.1,222.4 "/>
<polygon class="st1" points="115.1,225.3 111.4,221.6 111.4,228 115.1,231.6 "/>
<polygon class="st1" points="115.1,234.5 111.4,230.9 111.4,237.2 115.1,240.9 "/>
<polygon class="st1" points="115.1,243.7 111.4,240.1 111.4,246.4 115.1,250.1 "/>
<polygon class="st1" points="115.1,253 111.4,249.3 111.4,255.7 115.1,259.3 "/>
<polygon class="st1" points="115.1,262.2 111.4,258.6 111.4,264.9 115.1,268.6 "/>
<polygon class="st1" points="115.1,271.4 111.4,267.8 111.4,274.1 115.1,277.8 "/>
<polygon class="st1" points="115.1,280.7 111.4,277 111.4,283.4 115.1,287 "/>
<polygon class="st1" points="115.1,289.9 111.4,286.2 111.4,292.6 115.1,296.3 "/>
<polygon class="st1" points="115.1,299.1 111.4,295.5 111.4,301.8 115.1,305.5 "/>
<polygon class="st1" points="115.1,308.4 111.4,304.7 111.4,311.1 115.1,314.7 "/>
<polygon class="st1" points="115.1,317.6 111.4,313.9 111.4,320.3 115.1,324 "/>
<polygon class="st1" points="115.1,326.8 111.4,323.2 111.4,329.5 115.1,333.2 "/>
<polygon class="st1" points="115.1,337.1 111.4,333.4 111.4,339.8 115.1,343.4 "/>
<polygon class="st0" points="115.1,253 118.7,256.6 118.7,253.8 115.1,250.1 "/>
<polygon class="st2" points="115.1,253 118.7,256.6 118.7,253.8 115.1,250.1 "/>
<polygon class="st0" points="115.1,225.3 118.7,228.9 118.7,226.1 115.1,222.4 "/>
<polygon class="st2" points="115.1,225.3 118.7,228.9 118.7,226.1 115.1,222.4 "/>
<polygon class="st0" points="115.1,169.9 118.7,173.5 118.7,170.7 115.1,167 "/>
<polygon class="st2" points="115.1,169.9 118.7,173.5 118.7,170.7 115.1,167 "/>
<polygon class="st0" points="115.1,243.7 118.7,247.4 118.7,244.5 115.1,240.9 "/>
<polygon class="st2" points="115.1,243.7 118.7,247.4 118.7,244.5 115.1,240.9 "/>
<polygon class="st0" points="115.1,234.5 118.7,238.2 118.7,235.3 115.1,231.6 "/>
<polygon class="st2" points="115.1,234.5 118.7,238.2 118.7,235.3 115.1,231.6 "/>
<polygon class="st0" points="115.1,206.8 118.7,210.5 118.7,207.6 115.1,203.9 "/>
<polygon class="st2" points="115.1,206.8 118.7,210.5 118.7,207.6 115.1,203.9 "/>
<polygon class="st0" points="115.1,179.1 118.7,182.8 118.7,179.9 115.1,176.2 "/>
<polygon class="st2" points="115.1,179.1 118.7,182.8 118.7,179.9 115.1,176.2 "/>
<polygon class="st0" points="115.1,188.4 118.7,192 118.7,189.1 115.1,185.5 "/>
<polygon class="st2" points="115.1,188.4 118.7,192 118.7,189.1 115.1,185.5 "/>
<polygon class="st0" points="115.1,197.6 118.7,201.2 118.7,198.4 115.1,194.7 "/>
<polygon class="st2" points="115.1,197.6 118.7,201.2 118.7,198.4 115.1,194.7 "/>
<polygon class="st0" points="115.1,216 118.7,219.7 118.7,216.8 115.1,213.2 "/>
<polygon class="st2" points="115.1,216 118.7,219.7 118.7,216.8 115.1,213.2 "/>
<polygon class="st0" points="115.1,317.6 118.7,321.3 118.7,318.4 115.1,314.7 "/>
<polygon class="st2" points="115.1,317.6 118.7,321.3 118.7,318.4 115.1,314.7 "/>
<polygon class="st0" points="115.1,326.8 118.7,330.5 118.7,327.6 115.1,324 "/>
<polygon class="st2" points="115.1,326.8 118.7,330.5 118.7,327.6 115.1,324 "/>
<polygon class="st0" points="115.1,337.1 118.7,340.7 118.7,336.9 115.1,333.2 "/>
<polygon class="st2" points="115.1,337.1 118.7,340.7 118.7,336.9 115.1,333.2 "/>
<polygon class="st0" points="115.1,262.2 118.7,265.9 118.7,263 115.1,259.3 "/>
<polygon class="st2" points="115.1,262.2 118.7,265.9 118.7,263 115.1,259.3 "/>
<path class="st0" d="M118.7,413.9v-66.8l-3.7-3.7V416h1.6C117.8,416,118.7,415.1,118.7,413.9C118.7,413.9,118.7,413.9,118.7,413.9z"
	/>
<path class="st2" d="M118.7,413.9v-66.8l-3.7-3.7V416h1.6C117.8,416,118.7,415.1,118.7,413.9C118.7,413.9,118.7,413.9,118.7,413.9z"
	/>
<polygon class="st0" points="115.1,271.4 118.7,275.1 118.7,272.2 115.1,268.6 "/>
<polygon class="st2" points="115.1,271.4 118.7,275.1 118.7,272.2 115.1,268.6 "/>
<polygon class="st0" points="115.1,289.9 118.7,293.6 118.7,290.7 115.1,287 "/>
<polygon class="st2" points="115.1,289.9 118.7,293.6 118.7,290.7 115.1,287 "/>
<polygon class="st0" points="115.1,308.4 118.7,312 118.7,309.2 115.1,305.5 "/>
<polygon class="st2" points="115.1,308.4 118.7,312 118.7,309.2 115.1,305.5 "/>
<polygon class="st0" points="115.1,299.1 118.7,302.8 118.7,299.9 115.1,296.3 "/>
<polygon class="st2" points="115.1,299.1 118.7,302.8 118.7,299.9 115.1,296.3 "/>
<polygon class="st0" points="115.1,280.7 118.7,284.3 118.7,281.5 115.1,277.8 "/>
<polygon class="st2" points="115.1,280.7 118.7,284.3 118.7,281.5 115.1,277.8 "/>
<polygon class="st0" points="115.1,123.7 118.7,127.4 118.7,124.5 115.1,120.9 "/>
<polygon class="st2" points="115.1,123.7 118.7,127.4 118.7,124.5 115.1,120.9 "/>
<path class="st0" d="M118.7,118.2V43c0-1.2-0.9-2.1-2.1-2.1h-1.6v73.6L118.7,118.2z"/>
<path class="st2" d="M118.7,118.2V43c0-1.2-0.9-2.1-2.1-2.1h-1.6v73.6L118.7,118.2z"/>
<polygon class="st0" points="115.1,142.2 118.7,145.8 118.7,143 115.1,139.3 "/>
<polygon class="st2" points="115.1,142.2 118.7,145.8 118.7,143 115.1,139.3 "/>
<polygon class="st0" points="115.1,160.7 118.7,164.3 118.7,161.4 115.1,157.8 "/>
<polygon class="st2" points="115.1,160.7 118.7,164.3 118.7,161.4 115.1,157.8 "/>
<polygon class="st0" points="115.1,151.4 118.7,155.1 118.7,152.2 115.1,148.6 "/>
<polygon class="st2" points="115.1,151.4 118.7,155.1 118.7,152.2 115.1,148.6 "/>
<polygon class="st0" points="115.1,133 118.7,136.6 118.7,133.7 115.1,130.1 "/>
<polygon class="st2" points="115.1,133 118.7,136.6 118.7,133.7 115.1,130.1 "/>
<polygon class="st1" points="115.1,120.9 118.7,124.5 118.7,118.2 115.1,114.5 "/>
<polygon class="st2" points="115.1,120.9 118.7,124.5 118.7,118.2 115.1,114.5 "/>
<polygon class="st1" points="115.1,130.1 118.7,133.7 118.7,127.4 115.1,123.7 "/>
<polygon class="st2" points="115.1,130.1 118.7,133.7 118.7,127.4 115.1,123.7 "/>
<polygon class="st1" points="115.1,139.3 118.7,143 118.7,136.6 115.1,133 "/>
<polygon class="st2" points="115.1,139.3 118.7,143 118.7,136.6 115.1,133 "/>
<polygon class="st1" points="115.1,148.6 118.7,152.2 118.7,145.8 115.1,142.2 "/>
<polygon class="st2" points="115.1,148.6 118.7,152.2 118.7,145.8 115.1,142.2 "/>
<polygon class="st1" points="115.1,157.8 118.7,161.4 118.7,155.1 115.1,151.4 "/>
<polygon class="st2" points="115.1,157.8 118.7,161.4 118.7,155.1 115.1,151.4 "/>
<polygon class="st1" points="115.1,167 118.7,170.7 118.7,164.3 115.1,160.7 "/>
<polygon class="st2" points="115.1,167 118.7,170.7 118.7,164.3 115.1,160.7 "/>
<polygon class="st1" points="115.1,176.2 118.7,179.9 118.7,173.5 115.1,169.9 "/>
<polygon class="st2" points="115.1,176.2 118.7,179.9 118.7,173.5 115.1,169.9 "/>
<polygon class="st1" points="115.1,185.5 118.7,189.1 118.7,182.8 115.1,179.1 "/>
<polygon class="st2" points="115.1,185.5 118.7,189.1 118.7,182.8 115.1,179.1 "/>
<polygon class="st1" points="115.1,194.7 118.7,198.4 118.7,192 115.1,188.4 "/>
<polygon class="st2" points="115.1,194.7 118.7,198.4 118.7,192 115.1,188.4 "/>
<polygon class="st1" points="115.1,203.9 118.7,207.6 118.7,201.2 115.1,197.6 "/>
<polygon class="st2" points="115.1,203.9 118.7,207.6 118.7,201.2 115.1,197.6 "/>
<polygon class="st1" points="115.1,213.2 118.7,216.8 118.7,210.5 115.1,206.8 "/>
<polygon class="st2" points="115.1,213.2 118.7,216.8 118.7,210.5 115.1,206.8 "/>
<polygon class="st1" points="115.1,222.4 118.7,226.1 118.7,219.7 115.1,216 "/>
<polygon class="st2" points="115.1,222.4 118.7,226.1 118.7,219.7 115.1,216 "/>
<polygon class="st1" points="115.1,231.6 118.7,235.3 118.7,228.9 115.1,225.3 "/>
<polygon class="st2" points="115.1,231.6 118.7,235.3 118.7,228.9 115.1,225.3 "/>
<polygon class="st1" points="115.1,240.9 118.7,244.5 118.7,238.2 115.1,234.5 "/>
<polygon class="st2" points="115.1,240.9 118.7,244.5 118.7,238.2 115.1,234.5 "/>
<polygon class="st1" points="115.1,250.1 118.7,253.8 118.7,247.4 115.1,243.7 "/>
<polygon class="st2" points="115.1,250.1 118.7,253.8 118.7,247.4 115.1,243.7 "/>
<polygon class="st1" points="115.1,259.3 118.7,263 118.7,256.6 115.1,253 "/>
<polygon class="st2" points="115.1,259.3 118.7,263 118.7,256.6 115.1,253 "/>
<polygon class="st1" points="115.1,268.6 118.7,272.2 118.7,265.9 115.1,262.2 "/>
<polygon class="st2" points="115.1,268.6 118.7,272.2 118.7,265.9 115.1,262.2 "/>
<polygon class="st1" points="115.1,277.8 118.7,281.5 118.7,275.1 115.1,271.4 "/>
<polygon class="st2" points="115.1,277.8 118.7,281.5 118.7,275.1 115.1,271.4 "/>
<polygon class="st1" points="115.1,287 118.7,290.7 118.7,284.3 115.1,280.7 "/>
<polygon class="st2" points="115.1,287 118.7,290.7 118.7,284.3 115.1,280.7 "/>
<polygon class="st1" points="115.1,296.3 118.7,299.9 118.7,293.6 115.1,289.9 "/>
<polygon class="st2" points="115.1,296.3 118.7,299.9 118.7,293.6 115.1,289.9 "/>
<polygon class="st1" points="115.1,305.5 118.7,309.2 118.7,302.8 115.1,299.1 "/>
<polygon class="st2" points="115.1,305.5 118.7,309.2 118.7,302.8 115.1,299.1 "/>
<polygon class="st1" points="115.1,314.7 118.7,318.4 118.7,312 115.1,308.4 "/>
<polygon class="st2" points="115.1,314.7 118.7,318.4 118.7,312 115.1,308.4 "/>
<polygon class="st1" points="115.1,324 118.7,327.6 118.7,321.3 115.1,317.6 "/>
<polygon class="st2" points="115.1,324 118.7,327.6 118.7,321.3 115.1,317.6 "/>
<polygon class="st1" points="115.1,333.2 118.7,336.9 118.7,330.5 115.1,326.8 "/>
<polygon class="st2" points="115.1,333.2 118.7,336.9 118.7,330.5 115.1,326.8 "/>
<polygon class="st1" points="115.1,343.4 118.7,347.1 118.7,340.7 115.1,337.1 "/>
<polygon class="st2" points="115.1,343.4 118.7,347.1 118.7,340.7 115.1,337.1 "/>
</svg>
