<svg xmlns="http://www.w3.org/2000/svg" xmlns:xlink="http://www.w3.org/1999/xlink" viewBox="0 0 497.73 299.97"><defs><linearGradient id="New_Gradient_Swatch_1" x1="59.1" y1="149.99" x2="438.64" y2="149.99" gradientUnits="userSpaceOnUse"><stop offset="0.1" stop-color="#da3228"/><stop offset="1" stop-color="#8f3029"/></linearGradient></defs><title>swing-your-weapon</title><g id="Swing-your-weapon"><path d="M434.15,113.91l-4.49.55-2,.25-6.81.83-2,.25-3.51.43-.53.06-1.54.19-9.59,1.18-2,.24-3.51.43-3.51.44v3.76a19.18,19.18,0,0,0-10.7-3,26.68,26.68,0,0,0-3.29.21,22.57,22.57,0,0,0-15.25,8c-.39.47-.76,1-1.11,1.45a18.25,18.25,0,0,0-13.11-4.89,28.48,28.48,0,0,0-3.39.22l-11.26,1.38-2,.24-3.51.44-3,.37h0l-3.82.47-3.81.47-1.69.2-10.35,1.27-1.69.21-3,.37-.89.11h0l-4.49.55-4.48.55-2,.24L271,133.94l-2,.25-3.51.43-2.45.3-2.19.27-6.61.81-1.81.22-3.21.4-.33,0-1.8.22-8.34,1-1.8.22-3.2.4-.34,0-1.82.22L230,139a21.09,21.09,0,0,0,4.31-4c3.49-4.26,5.25-9.66,5.25-16.06V93c0-6.74-2-12.08-5.85-15.87a18.23,18.23,0,0,0-13.24-5.06,28.22,28.22,0,0,0-3.26.2,23.37,23.37,0,0,0-11.83,4.68V74.42l-4.49.55-4.48.55-2,.25-6.81.83-2,.25-3.51.43-.54.06-1.54.19-9.59,1.18-2,.24-3.49.43-4.49.55-2,.25-7.64.93-2,.25-1.37.17-4.6.56-2.19.27-6.6.81-1.82.22-3.21.4-.33,0-1.8.22-8.34,1-1.24.16-4.1.5-1.81.22-7.37.91-2.19.27L98,87.6l-3.89.48.16,1.52a20.23,20.23,0,0,0-7.06-1.19,25.42,25.42,0,0,0-3.21.21c-6.37.78-11.47,3.45-15.15,7.95-3.48,4.26-5.25,9.62-5.25,15.92A24.35,24.35,0,0,0,66.87,125c.24.4.49.79.75,1.19l-.61.07-3.51.43V138.6c0,6.68,1.92,12,5.69,15.79a16.81,16.81,0,0,0,5.46,3.66l-3,.38-2.75.33-4.88.6-4.88.6,1.58,4.66,1.58,4.66.86,2.54,8.72,25.67v30.43l4.49-.55,4.48-.56,2-.24,7.64-.94,2-.24,3.52-.43,3.51-.43V213.92a18.07,18.07,0,0,0,3.17,4.06,18.45,18.45,0,0,0,13.3,5,28.56,28.56,0,0,0,3.28-.2,22.65,22.65,0,0,0,15.26-8c.53-.65,1-1.32,1.48-2,.28.32.57.62.88.92a18.21,18.21,0,0,0,13.24,5.06,28.22,28.22,0,0,0,3.26-.2,23.17,23.17,0,0,0,12.1-4.91v2.72l4.49-.56,4.49-.55,2-.24,7.65-.94,2-.24,1.58-.2,3.16-.38,1.41-.18,7.78-.95,3.05-.38,5.46-.67,5.45-.67-2.31-5-2.31-5-1.11-2.39c0-.37-.06-1-.06-2v-8.68a26.35,26.35,0,0,0-1.85-10.54,25.38,25.38,0,0,0,1.78-9.76v-3c0-6.74-2-12-5.91-15.51a16.21,16.21,0,0,0-6.2-3.48l.46,0,2-.25,3.51-.43,3.51-.43v-3.66a18.54,18.54,0,0,0,9.1,2.83l.17,1.69.4,3.9.22,2.19,4.93,48.76.18,1.79.42,4.07.41,4.06,4.05-.49,4.06-.5,1.79-.22,10.15-1.25,1.26-.15,4-.5,1.78-.22,9.52-1.17,1.8-.22,2.32-.28h0l4.49-.55,4.48-.55,2-.25,20.84-2.56,1-.12,5.26-.65,2.34-.28,7.08-.87,1.72-.22,3-.37,2.82-.35,2.17-.26,1.72-.21,7.64-.94,2.33-.29,2.87-.35,2.75-.34,2-.24,7.65-.94,2-.24,3.51-.43,3.52-.44V172.49a22.06,22.06,0,0,0,4.9-2.31c.08,6.52,2.09,11.72,6,15.45a18.47,18.47,0,0,0,13.3,5,26.68,26.68,0,0,0,3.29-.21,23.58,23.58,0,0,0,12-4.8v2.61l4.49-.55,4.48-.55,2-.24,6.81-.84,2-.24,3.52-.43,2.27-.28,1.54-.19,7.85-1,2-.25,3.52-.43,3.51-.43V113.36Z" style="fill:url(#New_Gradient_Swatch_1)"/><path d="M83.1,154.07a12.25,12.25,0,0,1-9-3.4c-2.61-2.62-3.94-6.51-3.94-11.55v-6.61l11.08-1.36c-.3-.25-.64-.51-1-.79a29.32,29.32,0,0,1-7.54-7.9,20.35,20.35,0,0,1,1.5-21.57,16.5,16.5,0,0,1,11.24-5.8,21.3,21.3,0,0,1,2.47-.16,12.07,12.07,0,0,1,9,3.43c2.58,2.63,3.89,6.51,3.89,11.54v5.82l-10.81,1.33c.32.27.68.55,1.07.85a27.56,27.56,0,0,1,7.59,8,19.89,19.89,0,0,1,2.29,9.78c0,5-1.32,9.19-3.93,12.37a16.71,16.71,0,0,1-11.34,5.85,22.29,22.29,0,0,1-2.52.16Z" style="fill:#fff"/><path d="M87.88,96.93a10.16,10.16,0,0,1,7.56,2.83c2.2,2.24,3.31,5.65,3.31,10.14V114l-2,.24-7.23.89-2,.24v-4.55c0-1.63-.36-2.18-.51-2.34a1.09,1.09,0,0,0-.92-.32l-.41,0c-.82.1-1.84.23-1.84,2.94a6.66,6.66,0,0,0,1.13,3.8,21.46,21.46,0,0,0,4.79,4.6c3.41,2.59,5.72,5,7,7.4a17.89,17.89,0,0,1,2,8.8c0,4.55-1.17,8.29-3.48,11.11a14.76,14.76,0,0,1-10,5.12,18.13,18.13,0,0,1-2.27.15,10.28,10.28,0,0,1-7.61-2.81c-2.23-2.24-3.36-5.65-3.36-10.14v-4.84l2-.24,7.22-.89,2-.24v5.4c0,2.22.7,2.58,1.43,2.58a4.73,4.73,0,0,0,.54,0,1.93,1.93,0,0,0,1.46-.66,4.12,4.12,0,0,0,.52-2.51,7.82,7.82,0,0,0-1.11-4.29,20.25,20.25,0,0,0-4.75-4.62,27.33,27.33,0,0,1-7-7.32A16.43,16.43,0,0,1,72.27,113a16.72,16.72,0,0,1,3.44-10.86,14.63,14.63,0,0,1,9.94-5.07,17.4,17.4,0,0,1,2.23-.15m0-4a21.41,21.41,0,0,0-2.72.18,18.43,18.43,0,0,0-12.54,6.51c-2.89,3.53-4.35,8-4.35,13.39A20.34,20.34,0,0,0,71,123.48a26.76,26.76,0,0,0,5.37,6.26l-2.69.33-2,.24-3.51.43v8.38c0,5.59,1.52,9.95,4.53,13a14.11,14.11,0,0,0,10.44,4,22.15,22.15,0,0,0,2.76-.18c5.36-.66,9.62-2.86,12.64-6.56s4.39-8.14,4.39-13.64a21.77,21.77,0,0,0-2.55-10.75,25.31,25.31,0,0,0-5.47-6.48l2.38-.29,2-.24,3.51-.43v-7.6c0-5.57-1.5-9.93-4.46-12.94a14,14,0,0,0-10.41-4Z"/><polygon points="101.34 93.84 116.71 91.95 146.78 88.26 141.04 146.4 107.08 150.56 101.34 93.84" style="fill:#fff"/><path d="M144.54,90.55l-.22,2.25-4.93,50-.19,1.84-1.79.22L127.89,146l-1.78.22-.19-1.78-1.57-14.84-1.57,15.23-.19,1.83-1.78.21-10.15,1.25-1.79.22-.18-1.79-4.94-48.76-.22-2.19,2.2-.27,7.36-.91,1.82-.22.16,1.81,1.55,17.13,1.65-17.53.18-1.84,1.8-.23,8.34-1,1.8-.22.17,1.8,1.65,17.12,1.56-17.5.16-1.86,1.81-.22,6.6-.81,2.2-.27M149,86l-5,.61-2.19.27-6.6.81-1.82.22-.92.12-2.62.32-1.8.22-8.34,1-1.24.16h0l-4.1.5-1.81.22-7.37.91-2.2.27-3.88.47.39,3.9.22,2.19,4.94,48.76.18,1.79.41,4.07,4-.5,1.8-.22,10.14-1.25,1.27-.15h0l1.69-.21,2-.24.35,0,1.79-.22,9.52-1.16,1.79-.22,3.18-.39.32-3.19.18-1.84,4.93-50,.22-2.25.49-5Z"/><polygon points="148.5 88.05 164.12 86.13 164.12 143.56 148.5 145.48 148.5 88.05" style="fill:#fff"/><path d="M162.11,88.39v53.4l-2,.25-7.64.93-2,.25V89.82l2-.24,7.64-.94,2-.25m4-4.52-4.48.55-2,.25-7.64.94-2,.24-3.51.43v61.46l4.49-.55,2-.25,7.65-.93,2-.25,3.51-.43V83.87Z"/><polygon points="168.09 85.64 184.71 83.61 185.25 85.73 185.25 83.54 200.03 81.72 200.03 139.15 185.17 140.98 182.87 132.23 182.87 141.26 168.09 143.07 168.09 85.64" style="fill:#fff"/><path d="M198,84v53.4l-2,.25-7.85,1-1.54.19-.38-1.47-5.41-20.56v22.74l-2,.24-6.81.84-2,.24V87.41l2-.24L181.67,86l1.54-.19.38,1.47,3.67,14.12V85.31l2-.25,6.81-.83,2-.25m4-4.52-4.48.55-2,.25-6.81.83-2,.25-3.51.43-.54.06-1.54.19-9.59,1.18-2,.24-3.52.44v61.45l4.49-.55,2-.24,6.81-.84,2-.24,2.32-.29h0l3.47-.42,1.54-.19,7.85-1,2-.25,3.51-.43V79.46Z"/><path d="M216.56,137.68a12.49,12.49,0,0,1-9.06-3.35c-2.68-2.63-4-6.52-4-11.58V96.8c0-5,1.31-9.1,3.89-12.27a16.58,16.58,0,0,1,11.24-5.79,20.22,20.22,0,0,1,2.53-.16,12.47,12.47,0,0,1,9,3.35c2.68,2.63,4.05,6.52,4.05,11.58v25.95c0,5-1.32,9.1-3.9,12.26a16.53,16.53,0,0,1-11.24,5.8,20.18,20.18,0,0,1-2.52.16Z" style="fill:#fff"/><path d="M221.12,80.58a10.5,10.5,0,0,1,7.65,2.78c2.29,2.23,3.45,5.65,3.45,10.15v6.25l-2,.24-7.22.89-2,.24V94.39c0-2.29-.7-2.65-1.44-2.65a4.9,4.9,0,0,0-.54,0c-.88.11-2,.24-2,3.1v27c0,2.22.7,2.58,1.43,2.58a4.73,4.73,0,0,0,.54,0c.88-.11,2-.25,2-3v-7.65l-1.84.23-2,.24V103.14l2-.24,11-1.36,2-.24v18.16c0,4.5-1.16,8.2-3.45,11a14.6,14.6,0,0,1-9.93,5.07,18.44,18.44,0,0,1-2.29.15,10.52,10.52,0,0,1-7.65-2.78c-2.28-2.24-3.44-5.65-3.44-10.15V96.8c0-4.5,1.16-8.2,3.44-11a14.65,14.65,0,0,1,9.94-5.08,20.2,20.2,0,0,1,2.28-.14m0-4h0a24.2,24.2,0,0,0-2.77.17,18.48,18.48,0,0,0-12.54,6.52c-2.89,3.53-4.35,8.08-4.35,13.53v26c0,5.62,1.56,10,4.65,13a14.36,14.36,0,0,0,10.44,3.92,22.18,22.18,0,0,0,2.77-.18A18.43,18.43,0,0,0,231.87,133c2.88-3.53,4.35-8.08,4.35-13.53V93.51c0-5.62-1.57-10-4.65-13a14.4,14.4,0,0,0-10.45-3.92ZM217,122Z"/><polygon points="78.47 197.02 67.78 165.54 84.26 163.52 86.56 171.2 88.84 162.95 104.92 160.98 94.08 195.57 94.08 219.74 78.47 221.66 78.47 197.02" style="fill:#fff"/><path d="M102.08,163.34l-.86,2.76-9.14,29.16V218l-2,.24-7.65.94-2,.25V196.69l-9.14-26.92-.86-2.54,2.74-.34,8.13-1,1.49-.18.42,1.4,3.37,11.32L90,166.28l.41-1.5,1.49-.19,7.44-.91,2.74-.34m5.68-4.72-6.16.75-2.75.34-7.43.91-1.49.19-2.66.32-.71,2.58-.07.26-.79-2.64-3.36.41-1.49.18-8.12,1-2.75.34-4.88.59,1.58,4.66.86,2.54,8.93,26.3v26.57l4.49-.55,2-.25,7.64-.94,2-.24,3.51-.43V195.87l9-28.58.86-2.75,1.86-5.92Z"/><path d="M116.55,217.54a12.65,12.65,0,0,1-9.14-3.36c-2.75-2.64-4.14-6.53-4.14-11.55v-26a18.67,18.67,0,0,1,4-12.25,16.9,16.9,0,0,1,11.37-5.83,22.81,22.81,0,0,1,2.55-.16,12.65,12.65,0,0,1,9.14,3.36c2.75,2.64,4.14,6.53,4.14,11.55v25.95a18.65,18.65,0,0,1-4,12.25,16.8,16.8,0,0,1-11.37,5.83,20.72,20.72,0,0,1-2.55.17Z" style="fill:#fff"/><path d="M121.17,160.43a10.77,10.77,0,0,1,7.76,2.8c2.33,2.25,3.52,5.65,3.52,10.11v25.95a16.78,16.78,0,0,1-3.52,11,14.9,14.9,0,0,1-10.07,5.12,18.63,18.63,0,0,1-2.31.15,10.71,10.71,0,0,1-7.75-2.8c-2.34-2.25-3.53-5.65-3.53-10.11v-26a16.7,16.7,0,0,1,3.53-11,14.85,14.85,0,0,1,10.06-5.12,18.63,18.63,0,0,1,2.31-.15m-2.85,43.92a3.19,3.19,0,0,0,.54,0c.88-.1,2-.24,2-3.09V174.27c0-2.29-.71-2.65-1.44-2.65a4.9,4.9,0,0,0-.54,0c-.88.11-2,.24-2,3.09V201.7c0,2.28.7,2.65,1.43,2.65m2.85-47.92a22.66,22.66,0,0,0-2.8.18,18.78,18.78,0,0,0-12.66,6.54,20.62,20.62,0,0,0-4.44,13.52v26c0,5.59,1.6,10,4.75,13a14.61,14.61,0,0,0,10.53,3.92,22.78,22.78,0,0,0,2.8-.18A18.78,18.78,0,0,0,132,212.82a20.65,20.65,0,0,0,4.44-13.53V173.34c0-5.59-1.6-10-4.75-13a14.61,14.61,0,0,0-10.53-3.92Z"/><path d="M150.69,213.34a12.43,12.43,0,0,1-9.05-3.35c-2.68-2.62-4-6.52-4-11.58V157l15.62-1.92,15.14-1.86v41.94c0,5-1.31,9.1-3.89,12.26a16.54,16.54,0,0,1-11.24,5.79A20.22,20.22,0,0,1,150.69,213.34Z" style="fill:#fff"/><path d="M166.35,155.45v39.68c0,4.5-1.16,8.2-3.44,11A14.61,14.61,0,0,1,153,211.2a18.1,18.1,0,0,1-2.28.14,10.5,10.5,0,0,1-7.65-2.78c-2.29-2.23-3.45-5.65-3.45-10.15V158.74l2-.25,7.64-.93,2-.25v40.24c0,1.59.34,2.11.49,2.26a1.28,1.28,0,0,0,1,.32l.42,0a2,2,0,0,0,1.42-.64,4,4,0,0,0,.49-2.38V156.84l2-.24,7.37-.9,2-.25m4-4.52-4.48.55-2,.25-7.36.9-1.31.16h0l-4.49.55-2,.25-7.64.93-2,.25-3.52.43v43.21c0,5.62,1.57,10,4.65,13a14.4,14.4,0,0,0,10.45,3.92,22.13,22.13,0,0,0,2.77-.17A18.49,18.49,0,0,0,166,208.65c2.88-3.52,4.34-8.07,4.34-13.52v-44.2Z"/><path d="M172.06,152.74l15.06-1.85a24.31,24.31,0,0,1,3-.2c3.64,0,6.55,1,8.63,2.85,2.62,2.37,4,6.09,4,11.07v3a17.54,17.54,0,0,1-2.63,9.9,9.11,9.11,0,0,1,1.19,1.92,20.17,20.17,0,0,1,1.5,8.48v8.68a28,28,0,0,0,.12,3,4.15,4.15,0,0,0,.36,1.28l2.4,5.17-16.55,2-1-2.79q-.23-.61-.39-1.23v4.19l-15.61,1.92Z" style="fill:#fff"/><path d="M190.1,152.69c3.13,0,5.58.79,7.29,2.34,2.18,2,3.29,5.19,3.29,9.58v3c0,4.92-1.48,8.07-3.29,10.07a6.93,6.93,0,0,1,2,2.59,18.35,18.35,0,0,1,1.31,7.64v8.68c0,1.34,0,2.41.13,3.19a5.89,5.89,0,0,0,.54,1.9l1.24,2.68-3.06.38-7.78.95-1.4.18-.47-1.29a12.67,12.67,0,0,1-.65-2.58,33.46,33.46,0,0,1-.16-4.06v-9c0-2.48-.48-3.21-.63-3.38a1.87,1.87,0,0,0-1.37-.38,6,6,0,0,0-.81.05l-.65.08v21.16l-2,.24-7.64.94-2,.24V154.51l2-.25,11.33-1.39a22.05,22.05,0,0,1,2.73-.18m-4.43,21.55.79-.1a3.09,3.09,0,0,0,2-.84,4.21,4.21,0,0,0,.58-2.68v-3.81c0-1.78-.35-2.39-.5-2.56a1.21,1.21,0,0,0-.93-.3l-.47,0-1.49.18v10.08m4.43-25.55a26.07,26.07,0,0,0-3.22.21l-11.33,1.39-2,.25-3.51.43v61.46l4.48-.56,2-.24,7.64-.94,2-.24,1.57-.19h0l3.16-.39,1.41-.18,7.78-.95,3.06-.38,5.45-.67-2.31-5L205,200a2,2,0,0,1-.19-.65,25.49,25.49,0,0,1-.11-2.76v-8.68a22.14,22.14,0,0,0-1.68-9.32c-.19-.4-.4-.79-.62-1.16a20.32,20.32,0,0,0,2.24-9.82v-3c0-5.56-1.55-9.79-4.6-12.55-2.47-2.23-5.83-3.37-10-3.37Z"/><polygon points="221.47 146.67 266.9 141.09 261.17 199.22 227.21 203.39 221.47 146.67" style="fill:#fff"/><path d="M264.67,143.38l-.22,2.25-4.94,50-.18,1.83-1.79.22L248,198.82l-1.79.22-.18-1.78-1.57-14.84-1.57,15.23-.19,1.82-1.79.22-10.14,1.25-1.8.22-.18-1.79-4.93-48.76-.22-2.19,2.2-.27,7.36-.91L235,147l.17,1.81L236.75,166l1.65-17.53.17-1.85,1.81-.22,8.33-1,1.81-.22.17,1.8L252.34,164l1.55-17.5.17-1.86,1.81-.22,6.6-.81,2.2-.27m4.47-4.58-5,.61-2.2.27-6.6.81-1.81.22-3.21.4-.33,0-1.8.22-8.34,1-1.8.22-3.2.4-.34,0-1.82.22-7.36.91-2.2.27-3.88.47.39,3.9.22,2.19,4.93,48.76.18,1.79.42,4.07,4-.5,1.8-.22,10.14-1.25,1.26-.15h0l4-.5,1.79-.22,9.52-1.17,1.79-.22L263,201l.31-3.18.18-1.84,4.94-50,.22-2.25.49-5Z"/><polygon points="268.63 140.88 297.44 137.34 297.44 152.45 284.24 154.07 284.24 159.06 294.73 157.77 294.73 172.89 284.24 174.18 284.24 181.28 297.44 179.66 297.44 194.77 268.63 198.31 268.63 140.88" style="fill:#fff"/><path d="M295.44,139.6v11.08l-2,.25-11.22,1.38v9l8.51-1,2-.25v11.09l-2,.24-8.51,1v11.13l11.22-1.38,2-.24V193l-2,.24-20.85,2.56-2,.25v-53.4l2-.24,20.85-2.56,2-.25m4-4.52-4.48.55-2,.25-20.84,2.55-2,.25-3.51.43v61.46l4.49-.55,2-.25,20.84-2.56,2-.24,3.51-.43V177.4L295,178l-2,.24-6.73.83v-3.08l5-.61,2-.24,3.51-.43V155.51l-4.49.55-2,.25-4,.49v-1l7.7-.94,2-.25,3.51-.43V135.08Z"/><polygon points="306.56 136.22 323.7 134.12 332.91 190.41 317.2 192.34 315.83 182.85 314.03 183.07 312.64 192.9 297.35 194.78 306.56 136.22" style="fill:#fff"/><path d="M322,136.34l.27,1.66,7.92,48.39.38,2.29-2.33.29-7.65.94-1.72.21-.24-1.7-1.13-7.79-5.27.64-1.14,8.08-.24,1.76-1.72.21-7.09.87-2.33.28.37-2.38L308,139.75l.27-1.73,1.69-.2,10.35-1.28,1.69-.2m-8.3,34,2.31-.28-1.16-8.23-1.15,8.51m11.63-38.46-3.82.47-1.68.2-10.35,1.28-1.69.2-3,.37-.47,3-.27,1.73-7.92,50.34-.37,2.38-.83,5.24,5.26-.65,2.34-.28,7.09-.87,1.71-.21,3.05-.38.43-3,.12-.86.54,3.77,3.89-.48,1.72-.21,7.64-.94,2.34-.29,4.13-.5-.67-4.11-.38-2.3-7.92-48.39-.27-1.66-.62-3.79Z"/><path d="M334.21,132.83l15-1.85a22.63,22.63,0,0,1,2.66-.17,12.4,12.4,0,0,1,9,3.24c2.65,2.56,4,6.43,4,11.49v4.87c0,5-1.29,9.07-3.83,12.16s-6.35,5.05-11.17,5.67v20.1l-15.62,1.91Z" style="fill:#fff"/><path d="M351.87,132.81a10.47,10.47,0,0,1,7.58,2.68c2.25,2.17,3.38,5.55,3.38,10v4.87c0,4.5-1.13,8.17-3.38,10.89s-5.64,4.43-10,5l-1.62.2v20.1l-2,.24-7.64.94-2,.24V134.6l2-.25L349.45,133a20.75,20.75,0,0,1,2.42-.16m-4,22.58,1.62-.2a2,2,0,0,0,1.34-.56,3.92,3.92,0,0,0,.43-2.3v-5.85c0-1.68-.36-2.13-.43-2.2a1.21,1.21,0,0,0-.87-.26l-.47,0-1.62.2v11.14m4-26.58a24.59,24.59,0,0,0-2.9.19l-11.26,1.38-2,.25-3.52.43v61.46l4.49-.56,2-.24,7.64-.94,2-.24,3.51-.43V169.94a18,18,0,0,0,10.71-6.1c2.85-3.45,4.29-8,4.29-13.43v-4.87c0-5.63-1.54-10-4.6-12.93a14.34,14.34,0,0,0-10.36-3.8Z"/><path d="M380,185.19a12.68,12.68,0,0,1-9.14-3.36c-2.74-2.64-4.13-6.53-4.13-11.55V144.33a18.7,18.7,0,0,1,4-12.26,16.86,16.86,0,0,1,11.36-5.83,22.84,22.84,0,0,1,2.56-.16,12.67,12.67,0,0,1,9.14,3.36c2.75,2.64,4.14,6.53,4.14,11.55v25.95c0,4.94-1.34,9.06-4,12.25A16.78,16.78,0,0,1,382.56,185a20.75,20.75,0,0,1-2.56.17Z" style="fill:#fff"/><path d="M384.63,128.08a10.73,10.73,0,0,1,7.75,2.8c2.34,2.25,3.53,5.65,3.53,10.11v25.95a16.73,16.73,0,0,1-3.53,11A14.87,14.87,0,0,1,382.32,183a18.92,18.92,0,0,1-2.32.15,10.73,10.73,0,0,1-7.75-2.8c-2.34-2.25-3.52-5.65-3.52-10.11V144.33a16.7,16.7,0,0,1,3.52-11,14.9,14.9,0,0,1,10.07-5.12,18.63,18.63,0,0,1,2.31-.15M381.78,172a4.9,4.9,0,0,0,.54,0c.88-.11,2-.25,2-3.1V141.92c0-2.28-.7-2.65-1.43-2.65a4.73,4.73,0,0,0-.54,0c-.88.11-2,.24-2,3.1v26.94c0,2.28.71,2.65,1.44,2.65m2.85-47.92a22.66,22.66,0,0,0-2.8.18,18.78,18.78,0,0,0-12.66,6.54c-2.95,3.56-4.44,8.11-4.44,13.53v25.95c0,5.59,1.6,10,4.75,13A14.57,14.57,0,0,0,380,187.19a22.66,22.66,0,0,0,2.8-.18,18.74,18.74,0,0,0,12.66-6.54c3-3.56,4.45-8.11,4.45-13.53V141c0-5.59-1.6-10-4.75-13a14.61,14.61,0,0,0-10.53-3.92Z"/><polygon points="401.33 124.58 417.94 122.55 418.49 124.67 418.49 122.48 433.27 120.67 433.27 178.09 418.41 179.92 416.11 171.17 416.11 180.2 401.33 182.01 401.33 124.58" style="fill:#fff"/><path d="M431.27,122.92v53.4l-2,.25-7.85,1-1.53.19-.39-1.46-5.4-20.57v22.74l-2,.24-6.81.84-2,.24V126.36l2-.25,9.59-1.18,1.54-.19.39,1.47,3.66,14.12V124.25l2-.25,6.8-.83,2-.25m4-4.52-4.49.55-2,.25L422,120l-2,.25-3.51.43-.53.06-1.54.19-9.59,1.18-2,.25-3.51.43v61.45l4.49-.55,2-.24,6.81-.84,2-.24,3.51-.43,2.27-.28,1.54-.19,7.85-1,2-.25,3.51-.43V118.4Z"/></g></svg>