<?xml version="1.0" encoding="utf-8"?>
<!-- Generator: Adobe Illustrator 23.0.3, SVG Export Plug-In . SVG Version: 6.00 Build 0)  -->
<svg version="1.1" id="Layer_1" xmlns="http://www.w3.org/2000/svg" xmlns:xlink="http://www.w3.org/1999/xlink" x="0px" y="0px"
	 viewBox="0 0 230.1 456.9" style="enable-background:new 0 0 230.1 456.9;" xml:space="preserve">
<style type="text/css">
	.st0{fill:#552B11;}
	.st1{fill:#CCCCCB;}
	.st2{fill:#9E9D9E;}
	.st3{fill:#C9C9C9;}
	.st4{fill:#3B1C0D;}
	.st5{fill:#B3B3B3;}
	.st6{opacity:0.3;fill:#171716;enable-background:new    ;}
</style>
<title>sword2</title>
<path class="st0" d="M111.1,65.3L111.1,65.3c0.1,0,0.2,0,0.3,0H111.1z"/>
<path class="st0" d="M114.9,127.1v-60h-3.5c-0.1,0-0.3,0-0.4-0.1l-2.9,60.2L114.9,127.1L114.9,127.1z"/>
<path class="st1" d="M114.1,326.2V135.3l-6.3-0.7c0,41.5,0.1,271.8,7.1,281v-89.5L114.1,326.2z"/>
<path class="st2" d="M114.1,134l-6.3-0.4v1.2l6.3,0.7V134z"/>
<path class="st3" d="M114.9,65.3v-9.2c-1.4,0-2.8-0.5-4-1.4c0.4,1.1,0.5,2.3,0.5,3.4l-0.3,7.2L114.9,65.3L114.9,65.3z"/>
<path class="st2" d="M114.9,55.1c-1.7,0-3.4-0.7-4.7-1.9c0.2,0.5,0.5,1,0.6,1.5c1.2,0.9,2.6,1.3,4,1.4L114.9,55.1z"/>
<path class="st3" d="M110.9,46.4h1.9c0.5-0.7,1.3-1.1,2.1-1.2V41c-3.9,0.1-7,3.3-6.9,7.2c0,1.9,0.9,3.8,2.3,5.1l0,0
	C109.3,51.5,110.9,46.4,110.9,46.4z"/>
<path class="st3" d="M114.9,50.9c-1.6-0.1-2.8-1.4-2.7-2.9c0-0.6,0.2-1.1,0.5-1.5h-1.9c0,0-1.6,5.1-0.7,6.8l0,0
	c1.3,1.2,2.9,1.9,4.7,1.9L114.9,50.9z"/>
<path class="st0" d="M114.9,45.2c-0.8,0-1.6,0.5-2.1,1.2h2.1V45.2z"/>
<path class="st0" d="M112.8,46.4c-0.9,1.3-0.7,3,0.6,3.9c0.4,0.3,1,0.5,1.5,0.5v-4.5H112.8z"/>
<polygon class="st0" points="114.1,135.3 114.1,326.2 114.9,326.2 114.9,135.4 "/>
<polygon class="st0" points="114.9,134 114.1,134 114.1,135.3 114.9,135.4 "/>
<path class="st4" d="M110.5,66.2c0,0.3,0.2,0.6,0.5,0.8l0.1-1.6C110.7,65.5,110.5,65.9,110.5,66.2z"/>
<path class="st4" d="M114.9,67.1v-1.8h-3.5c-0.1,0-0.2,0-0.3,0.1L111,67c0.1,0.1,0.3,0.1,0.4,0.1L114.9,67.1z"/>
<path class="st4" d="M108.1,127.1L108.1,127.1c-0.5,0-0.8,0.4-0.8,0.8v0.1c0,0.3,0.2,0.6,0.4,0.7h0.3l6.9-0.4v-1.2L108.1,127.1z"/>
<polygon class="st5" points="108,128.8 107.7,128.8 96.4,129.5 78.5,128.3 78.5,134 96.4,132.7 107.8,133.5 114.1,134 114.9,134 
	114.9,131.2 114.9,129.7 114.9,129.4 114.9,128.9 114.9,128.4 "/>
<path class="st0" d="M119,65.4L119,65.4l-0.3-0.1C118.8,65.3,118.9,65.4,119,65.4z"/>
<path class="st6" d="M119,65.4L119,65.4l-0.3-0.1C118.8,65.3,118.9,65.4,119,65.4z"/>
<path class="st0" d="M114.9,67.1v60h7.1L119.1,67c-0.1,0.1-0.3,0.1-0.4,0.1L114.9,67.1z"/>
<path class="st6" d="M114.9,67.1v60h7.1L119.1,67c-0.1,0.1-0.3,0.1-0.4,0.1L114.9,67.1z"/>
<path class="st1" d="M115.3,416c7.7,0,6.8-238.8,6.7-281.3l-6,0.6v190.8H115v89.5C115,415.8,115.2,416,115.3,416z"/>
<path class="st6" d="M115.3,416c7.7,0,6.8-238.8,6.7-281.3l-6,0.6v190.8H115v89.5C115,415.8,115.2,416,115.3,416z"/>
<path class="st2" d="M116,135.3l6-0.6v-1.2l-6,0.4V135.3z"/>
<path class="st6" d="M116,135.3l6-0.6v-1.2l-6,0.4V135.3z"/>
<path class="st3" d="M114.9,56.1v9.2h4.1l-0.3-7.2c0-1.2,0.1-2.3,0.5-3.4c-1.2,0.9-2.7,1.4-4.2,1.4L114.9,56.1z"/>
<path class="st6" d="M114.9,56.1v9.2h4.1l-0.3-7.2c0-1.2,0.1-2.3,0.5-3.4c-1.2,0.9-2.7,1.4-4.2,1.4L114.9,56.1z"/>
<path class="st2" d="M114.9,55.1v1h0.2c1.5,0,3-0.5,4.2-1.4c0.2-0.5,0.4-1,0.6-1.5c-1.3,1.2-3,1.9-4.8,1.9L114.9,55.1z"/>
<path class="st6" d="M114.9,55.1v1h0.2c1.5,0,3-0.5,4.2-1.4c0.2-0.5,0.4-1,0.6-1.5c-1.3,1.2-3,1.9-4.8,1.9L114.9,55.1z"/>
<path class="st3" d="M115.1,45.2c0.9,0,1.8,0.4,2.3,1.2h2.1l0.4,6.8l0,0c2.9-2.7,3-7.1,0.4-10c-1.3-1.4-3.2-2.3-5.2-2.3h-0.2v4.3
	L115.1,45.2z"/>
<path class="st6" d="M115.1,45.2c0.9,0,1.8,0.4,2.3,1.2h2.1l0.4,6.8l0,0c2.9-2.7,3-7.1,0.4-10c-1.3-1.4-3.2-2.3-5.2-2.3h-0.2v4.3
	L115.1,45.2z"/>
<path class="st3" d="M119.5,46.4h-2.1c0.9,1.3,0.6,3-0.6,4c-0.5,0.3-1.1,0.5-1.6,0.5h-0.2v4.3h0.2c1.8,0,3.5-0.7,4.8-1.9l0,0
	L119.5,46.4z"/>
<path class="st6" d="M119.5,46.4h-2.1c0.9,1.3,0.6,3-0.6,4c-0.5,0.3-1.1,0.5-1.6,0.5h-0.2v4.3h0.2c1.8,0,3.5-0.7,4.8-1.9l0,0
	L119.5,46.4z"/>
<path class="st0" d="M117.3,46.4c-0.5-0.7-1.4-1.2-2.3-1.2h-0.2v1.2L117.3,46.4z"/>
<path class="st6" d="M117.3,46.4c-0.5-0.7-1.4-1.2-2.3-1.2h-0.2v1.2L117.3,46.4z"/>
<path class="st0" d="M117.9,48c0-0.6-0.2-1.2-0.5-1.7h-2.4v4.5h0.2C116.6,50.8,117.9,49.6,117.9,48z"/>
<path class="st6" d="M117.9,48c0-0.6-0.2-1.2-0.5-1.7h-2.4v4.5h0.2C116.6,50.8,117.9,49.6,117.9,48z"/>
<polygon class="st0" points="114.9,135.4 114.9,326.2 116,326.2 116,135.3 115.1,135.4 "/>
<polygon class="st6" points="114.9,135.4 114.9,326.2 116,326.2 116,135.3 115.1,135.4 "/>
<polygon class="st0" points="115.1,134 114.9,134 114.9,135.4 115.1,135.4 116,135.3 116,134 "/>
<polygon class="st6" points="115.1,134 114.9,134 114.9,135.4 115.1,135.4 116,135.3 116,134 "/>
<path class="st4" d="M119.6,66.2c0-0.4-0.2-0.7-0.6-0.8l0.1,1.6C119.4,66.8,119.6,66.5,119.6,66.2z"/>
<path class="st6" d="M119.6,66.2c0-0.4-0.2-0.7-0.6-0.8l0.1,1.6C119.4,66.8,119.6,66.5,119.6,66.2z"/>
<path class="st4" d="M114.9,65.3v1.8h3.8c0.1,0,0.3,0,0.4-0.1l-0.1-1.6c-0.1,0-0.2-0.1-0.3-0.1H114.9z"/>
<path class="st6" d="M114.9,65.3v1.8h3.8c0.1,0,0.3,0,0.4-0.1l-0.1-1.6c-0.1,0-0.2-0.1-0.3-0.1H114.9z"/>
<path class="st4" d="M122.4,128.8c0.3-0.1,0.4-0.4,0.4-0.7V128c0-0.5-0.4-0.8-0.8-0.8c0,0,0,0,0,0l0.1,1.6L122.4,128.8z"/>
<path class="st4" d="M114.9,127.1v1.2h0.2l7,0.4l-0.1-1.6L114.9,127.1L114.9,127.1z"/>
<path class="st6" d="M122,127.1h-7.1v1.2h0.2l7,0.4h0.3c0.3-0.1,0.4-0.4,0.4-0.7V128C122.8,127.6,122.4,127.2,122,127.1z"/>
<polygon class="st5" points="133.7,129.5 122.4,128.8 122.1,128.8 115.1,128.3 114.9,128.4 114.9,128.9 114.9,129.4 114.9,129.7 
	114.9,131.2 114.9,134 115.1,134 116,134 122,133.5 133.7,132.7 151.6,134 151.6,128.3 "/>
<polygon class="st6" points="133.7,129.5 122.4,128.8 122.1,128.8 115.1,128.3 114.9,128.4 114.9,128.9 114.9,129.4 114.9,129.7 
	114.9,131.2 114.9,134 115.1,134 116,134 122,133.5 133.7,132.7 151.6,134 151.6,128.3 "/>
</svg>
