<svg id="Layer_1" data-name="Layer 1" xmlns="http://www.w3.org/2000/svg" viewBox="0 0 230.12 456.91"><title>sword2 hidden</title><path d="M133.68,129.48l-11.28-.69a.82.82,0,0,0,.45-.73V128a.83.83,0,0,0-.82-.84L119.11,67A.87.87,0,0,0,119,65.4v-.07l-.27-7.17a10,10,0,0,1,.5-3.44,10.9,10.9,0,0,1,.62-1.51,7.08,7.08,0,0,0-4.82-12.27h-.15a7.07,7.07,0,0,0-4.67,12.26,10.9,10.9,0,0,1,.62,1.51,9.79,9.79,0,0,1,.49,3.44l-.26,7.17v.07a.89.89,0,0,0-.56.82A.87.87,0,0,0,111,67l-2.92,60.15a.84.84,0,0,0-.83.84v.08a.84.84,0,0,0,.45.73l-11.27.69-18-1.14V134l18-1.32,11.37.81v1.16c0,41.52.13,271.83,7.1,281a.61.61,0,0,0,.44.29c7.69,0,6.83-238.8,6.67-281.28v-1.17l11.67-.83,18,1.32v-5.67Z" style="opacity:0.6000000000000001"/></svg>