<?xml version="1.0" encoding="UTF-8"?>
<svg width="120px" height="120px" viewBox="0 0 120 120" version="1.1" xmlns="http://www.w3.org/2000/svg" xmlns:xlink="http://www.w3.org/1999/xlink">
    <!-- Generator: Sketch 54.1 (76490) - https://sketchapp.com -->
    <title>target</title>
    <desc>Created with Sketch.</desc>
    <g id="Screens" stroke="none" stroke-width="1" fill="none" fill-rule="evenodd">
        <g id="2-4-0_hit-the-target" transform="translate(-900.000000, -644.000000)" fill="#FFFFFF">
            <g id="target-ui" transform="translate(894.000000, 644.000000)">
                <g id="target" transform="translate(6.000000, 0.000000)">
                    <path d="M65.838722,2.09683897 L65.838722,2.09181249 C65.838722,0.819274011 66.9628602,-0.153350854 68.2179255,0.0200628816 C97.4280057,4.05716815 120,29.2901233 120,59.7254905 C120,67.8407507 118.383843,75.5790245 115.475094,82.6496135 C114.991414,83.8241355 113.590411,84.3033271 112.497962,83.6641257 L112.489623,83.6590992 C111.599819,83.138858 111.213709,82.0380578 111.608158,81.0813501 C114.321768,74.4949792 115.830348,67.2853241 115.830348,59.7254905 C115.830348,31.3903563 94.8044607,7.89824051 67.6041527,4.1602111 C66.5859237,4.02030726 65.838722,3.12810616 65.838722,2.09683897 Z M7.51037722,83.6594343 L7.50287185,83.6644608 C6.41042302,84.3044999 5.00858601,83.8236329 4.5257403,82.6507863 C1.61615712,75.5785218 0,67.840248 0,59.7258256 C0,29.2896206 22.5736621,4.05582776 51.7845763,0.0203979806 C53.0396416,-0.153015755 54.1637798,0.81960911 54.1637798,2.09214758 L54.1637798,2.09633632 C54.1637798,3.12844126 53.4157442,4.02064236 52.3983491,4.1605462 C25.1963732,7.89690011 4.16965202,31.3890159 4.16965202,59.7258256 C4.16965202,67.2856592 5.67906605,74.4953143 8.39267559,81.0816852 C8.78629074,82.0375552 8.40018096,83.1391931 7.51037722,83.6594343 Z M106.598655,93.7860425 L106.598655,93.7868803 C107.692772,94.4260816 107.968803,95.891302 107.18741,96.8907348 C96.1937054,110.9473 79.1339911,120 60.0002919,120 C40.8657587,120 23.8060445,110.9473 12.8131739,96.8898971 C12.0317811,95.891302 12.3078121,94.4269194 13.4002609,93.7868803 C14.3075772,93.2549106 15.4525636,93.4978574 16.1013615,94.3272274 C26.3320197,107.396926 42.2033831,115.811262 60.0002919,115.811262 C77.7972006,115.811262 93.6677302,107.396926 103.898388,94.3272274 C104.547186,93.4978574 105.692173,93.2557483 106.598655,93.7860425 Z" id="Combined-Shape"></path>
                </g>
            </g>
        </g>
    </g>
</svg>