<?xml version="1.0" encoding="utf-8"?>
<!-- Generator: Adobe Illustrator 23.0.3, SVG Export Plug-In . SVG Version: 6.00 Build 0)  -->
<svg version="1.1" id="Layer_1" xmlns="http://www.w3.org/2000/svg" xmlns:xlink="http://www.w3.org/1999/xlink" x="0px" y="0px"
	 viewBox="0 0 388.3 216" style="enable-background:new 0 0 388.3 216;" xml:space="preserve">
<style type="text/css">
	.st0{fill:url(#SVGID_1_);}
	.st1{fill:#FFFFFF;}
</style>
<g id="Web-Development">
	<title>web-development</title>
	
		<linearGradient id="SVGID_1_" gradientUnits="userSpaceOnUse" x1="2.8" y1="1311.3219" x2="385.3" y2="1311.3219" gradientTransform="matrix(1 0 0 1 0 -1203.322)">
		<stop  offset="0.1" style="stop-color:#DA3228"/>
		<stop  offset="1" style="stop-color:#8F3029"/>
	</linearGradient>
	<path class="st0" d="M380.9,67l-4.5,0.6l-2,0.2l-23.6,2.9l-2,0.2l-3.5,0.4l-2.5,0.3l-2,0.2l-6.8,0.8l-2,0.2l-0.6,0.1l-3.5,0.4
		l-1.5,0.2l-9.6,1.2l-2,0.2l-2.2,0.3l-4.5,0.6l-2,0.2l-20.8,2.6l-2,0.2l-3.5,0.4l-4.5,0.6l-2,0.2l-10.9,1.3l-1.7,0.2l-3.1,0.4
		l-3.4,0.4l-1.7,0.2l-10.9,1.3l-2,0.2l-3.5,0.4l-3.5,0.4v3.5l0,0c-2.9-1.5-6.1-2.3-9.4-2.2c-1.1,0-2.3,0.1-3.4,0.2l-11.3,1.4l-2,0.2
		l-3.5,0.4l-3.5,0.4V93c-3.2-2-6.9-3.1-10.7-3c-1.1,0-2.2,0.1-3.3,0.2c-5.9,0.5-11.4,3.4-15.3,7.9c-3.6,4.3-5.4,9.7-5.4,16.1v21.5
		h-0.1l-1.6,0.2V93.7l-4.5,0.6l-4.5,0.6l-2,0.2l-7.6,0.9l-2,0.2l-3.5,0.4l-3.1,0.4l-2,0.2l-19.4,2.4c2-1.1,3.8-2.6,5.3-4.4
		c3.7-4.2,5.5-9.5,5.5-15.8v-4.2c0.2-3.7-0.6-7.4-2.2-10.7c1.1-3,1.6-6.1,1.6-9.3v-2c0-6.7-2-12-5.9-15.5c-3.2-2.9-7.5-4.4-12.6-4.4
		c-1.2,0-2.5,0.1-3.7,0.2L91.1,35l-2,0.2l-2.2,0.3l-4.5,0.6l-2,0.2l-20.8,2.6l-2,0.2l-1,0.1l-5,0.6l-2.2,0.3l-6.6,0.8l-1.3,0.2
		l-0.5,0l0,0l-3.2,0.4h-0.3l-1.8,0.2l-8.3,1L26.1,43L22,43.5l-1.8,0.2l-7.4,0.9l-2.2,0.3l-3.9,0.5l-3.9,0.5l0.4,3.9l0.4,3.9l0.2,2.2
		l4.9,48.8l0.2,1.8l0.4,4.1l0.2,2.1L9,112.8l-3.5,0.4v69.5l4.5-0.6l4.5-0.6l2-0.2l11.7-1.4c4.3-0.4,8.4-2,11.8-4.6v3.1l4.5-0.6
		l4.5-0.6l2-0.2l20.8-2.6l2-0.2l3.5-0.4l1.1-0.1l0,0l3.9-0.5l3.9-0.5l1.7-0.2l10.1-1.2l1.7-0.2l3-0.4l1.6-0.2l0,0l4.5-0.6l4.5-0.6
		l2-0.2l20.8-2.6l2-0.2l3.5-0.4l3.1-0.4l2-0.2l20.2-2.5l2-0.2l3.5-0.4l3.5-0.4v-2.2c2.7,1.2,5.5,1.7,8.4,1.7c1.1,0,2.2-0.1,3.3-0.2
		c4.4-0.4,8.5-2.1,12-4.8v2.6l4.5-0.6l4.5-0.6l2-0.2l7.6-0.9l2-0.2l3.5-0.4l3.5-0.4V135c1.9-0.6,3.8-1.5,5.5-2.7v22.6l4.5-0.6
		l4.5-0.6l2-0.2l6.7-0.8l2-0.2l1.3-0.2l0.7-0.1l1.7-0.2l5.6-0.7l4.5-0.6l2-0.2l7.2-0.9l2-0.2l3.5-0.4l4.5-0.6l2-0.2l20.7-2.6l2-0.2
		l2.2-0.3l4.5-0.6l2-0.2l6.8-0.8l2-0.2l3.5-0.4l2.3-0.3l1.5-0.2l7.9-1l2-0.2l3.5-0.4l3.5-0.4l0,0l2.4-0.3l4.5-0.6l2-0.2l7.6-0.9
		l2-0.2l3.5-0.4l3.5-0.4V94.6l1-0.1l3.5-0.4l3.5-0.4V66.5L380.9,67z M105.6,182.6h0.8h0.2C106.3,182.6,105.9,182.6,105.6,182.6z"/>
	<polygon class="st1" points="10,51.6 55.5,46 49.7,104.2 15.8,108.3 	"/>
	<path d="M53.3,48.3L53,50.6l-4.9,50l-0.2,1.8l-1.8,0.2l-9.5,1.2l-1.8,0.2l-0.2-1.8L33,87.4l-1.6,15.2l-0.2,1.8l-1.8,0.2l-10.2,1.2
		l-1.8,0.2l-0.2-1.8l-4.9-48.8l-0.2-2.2l2.2-0.3l7.4-0.9l1.8-0.2l0.2,1.8l1.6,17.1L27,53.4l0.2-1.8l1.8-0.2l8.3-1l1.8-0.2l0.2,1.8
		l1.6,17l1.6-17.5l0.2-1.9l1.8-0.2l6.6-0.8L53.3,48.3 M57.7,43.7l-5,0.6l-2.2,0.3l-6.6,0.8l-1.8,0.2L38.9,46h-0.3l-1.8,0.2l-8.3,1
		l-1.8,0.2L23.5,48l0,0h-0.3l-1.8,0.2L14,49.1l-2.2,0.3l-3.9,0.5l0.4,3.9L8.5,56l4.9,48.8l0.2,1.8l0.4,4.1l4-0.5l1.8-0.2l10.1-1.2
		l1.3-0.1l0,0l2.4-0.3l1.2-0.1l0.4-0.1L37,108l9.5-1.2l1.8-0.2l3.2-0.4l0.3-3.2l0.2-2l5-50l0.2-2.2L57.7,43.7L57.7,43.7z"/>
	<polygon class="st1" points="57.2,45.8 86,42.3 86,57.4 72.8,59 72.8,64 83.3,62.7 83.3,77.8 72.8,79.1 72.8,86.2 86,84.6 86,99.7 
		57.2,103.3 	"/>
	<path d="M84,44.5v11.1l-2,0.2l-11.2,1.4v9l8.5-1l2-0.2v11.1l-2,0.2l-8.5,1v11.1L82,87.1l2-0.2V98l-2,0.2l-20.8,2.6l-2,0.2V47.6
		l2-0.2L82,44.8L84,44.5 M88,40l-4.5,0.6l-2,0.2l-20.8,2.6l-2,0.2L55.2,44v61.5l4.5-0.6l2-0.2l20.9-2.6l2-0.2l3.5-0.4V82.3l-4.5,0.6
		l-2,0.2L74.8,84v-3.1l5-0.6l2-0.2l3.5-0.4V60.5L80.8,61l-2,0.2l-4,0.5v-0.9l7.7-1l2-0.2l3.5-0.4V40L88,40z"/>
	<path class="st1" d="M88.7,42l15.3-1.9c1-0.1,2-0.2,3-0.2c3.6,0,6.6,1,8.6,2.8c2.6,2.4,3.9,6.1,3.9,11.1v2c0.1,2.8-0.5,5.6-1.6,8.2
		c-0.3,0.5-0.5,1.1-0.9,1.6c2.1,2.3,3.3,5.8,3.3,10.3V80c0,4.8-1.4,8.9-4,11.9s-6.5,4.9-11.3,5.5l-16.2,2L88.7,42z M104.3,82.4h0.3
		c0.1-0.4,0.1-0.7,0.1-1.1V77c0-0.6,0-1.1-0.1-1.7h-0.2v7.1H104.3z"/>
	<path d="M106.9,41.9c3.1,0,5.6,0.8,7.3,2.3c2.2,2,3.3,5.2,3.3,9.6v2c0.1,2.5-0.4,5-1.4,7.3c-0.5,1-1.1,1.9-1.8,2.7
		c3.2,2.2,4,6.5,4,10V80c0,4.3-1.2,7.9-3.5,10.6s-5.7,4.3-10.1,4.8l-12,1.5l-2,0.2V43.7l2-0.2l11.5-1.4
		C105.1,42,106,41.9,106.9,41.9 M102.3,62.4l1-0.1c0.7,0,1.5-0.3,2-0.8c0.5-0.8,0.7-1.8,0.6-2.7V56c0-1.8-0.4-2.4-0.5-2.6
		c-0.2-0.2-0.6-0.3-0.9-0.3H104l-1.7,0.2V62.4 M102.2,84.6l2.4-0.3c0.6,0,1.1-0.2,1.5-0.6c0.4-0.8,0.5-1.6,0.4-2.5v-4.3
		c0-2.4-0.5-3.1-0.6-3.3c-0.4-0.3-0.9-0.5-1.5-0.4c-0.3,0-0.6,0-0.8,0.1l-1.4,0.2V84.6 M106.9,37.8c-1.1,0-2.2,0.1-3.2,0.2
		l-11.5,1.5l-2,0.2l-3.5,0.4v61.4l4.5-0.6l2-0.2l12-1.5c5.3-0.6,9.6-2.7,12.6-6.1s4.6-7.9,4.6-13.2v-4.2c0.2-3.7-0.8-7.4-2.9-10.5
		c0.1-0.2,0.2-0.3,0.3-0.5c1.3-2.8,1.9-5.9,1.8-9v-2c0-5.6-1.5-9.8-4.6-12.6C114.4,39,111.1,37.9,106.9,37.8L106.9,37.8z"/>
	<path class="st1" d="M12.3,118.9l15.4-1.9c0.9-0.1,1.8-0.2,2.7-0.2c3.3-0.2,6.6,1,9,3.2c2.7,2.6,4,6.4,4,11.5v25
		c0,5-1.3,9.1-3.8,12.2s-6.4,5.1-11.3,5.7l-15.9,2L12.3,118.9z"/>
	<path d="M30.3,118.9c2.8-0.2,5.5,0.8,7.6,2.7c2.2,2.2,3.4,5.6,3.4,10.1v25c0,4.5-1.1,8.2-3.4,10.9s-5.7,4.4-10,5L16.3,174l-2,0.2
		v-53.4l2-0.2l11.6-1.4C28.7,118.9,29.5,118.9,30.3,118.9 M25.9,161.6l1.9-0.2c0.5,0,1.1-0.2,1.4-0.6c0.4-0.7,0.6-1.5,0.5-2.4v-25.7
		c0-1.6-0.3-2.1-0.5-2.3c-0.3-0.2-0.6-0.4-1-0.3h-0.4l-1.9,0.2V161.6 M30.3,114.8c-1,0-1.9,0.1-2.9,0.2l-11.7,1.4l-2,0.2l-3.5,0.4
		v61.5l4.5-0.6l2-0.2l11.7-1.4c5.4-0.7,9.6-2.8,12.6-6.4s4.3-8,4.3-13.4v-25c0-5.6-1.6-10-4.6-12.9C37.9,116,34.1,114.6,30.3,114.8
		L30.3,114.8z"/>
	<polygon class="st1" points="46.7,114.7 75.5,111.2 75.5,126.3 62.3,127.9 62.3,132.9 72.8,131.6 72.8,146.7 62.3,148 62.3,155.1 
		75.5,153.5 75.5,168.6 46.7,172.1 	"/>
	<path d="M73.5,113.4v11.1l-2,0.2l-11.2,1.4v9l8.5-1l2-0.2V145l-2,0.2l-8.5,1v11.1l11.2-1.3l2-0.2v11.1l-2,0.2l-20.8,2.6l-2,0.2
		v-53.4l2-0.2l20.8-2.6L73.5,113.4 M77.5,108.9l-4.5,0.6l-2,0.2l-20.8,2.6l-2,0.2l-3.5,0.4v61.5l4.5-0.6l2-0.2L72,171l2-0.2l3.5-0.4
		v-19.1l-4.5,0.6l-2,0.2l-6.7,0.8v-3.1l5-0.6l2-0.2l3.5-0.4v-19.1l-4.5,0.6l-2,0.2l-4,0.5v-1l7.7-0.9l2-0.2l3.5-0.4V108.9
		L77.5,108.9z"/>
	<polygon class="st1" points="75.6,111.2 91.3,109.2 92.9,121.1 94.5,108.8 109.7,107 101.1,165.4 84.1,167.5 	"/>
	<path d="M107.3,109.3l-0.4,2.4L99.5,162l-0.3,1.7l-1.7,0.2l-10.1,1.2l-1.7,0.2l-0.2-1.7l-7.4-48.5l-0.3-2.3l2.3-0.3l7.7-0.9
		l1.7-0.2l0.2,1.7l3.1,23.4l3.1-24.1l0.2-1.8l1.7-0.2l7-0.9L107.3,109.3 M112,104.7l-5.2,0.6l-2.3,0.3l-7,0.9l-1.7,0.2l-3.1,0.4
		l-3.6,0.4l-1.7,0.2l-7.7,0.9l-2.3,0.3l-4.1,0.5l0.6,4.1l0.4,2.3l7.4,48.5L82,166l0.6,3.8l3.9-0.5l1.7-0.2l10.1-1.2l1.7-0.2l3-0.4
		l0.4-3l0.2-1.7l7.4-50.3l0.3-2.4L112,104.7L112,104.7z"/>
	<polygon class="st1" points="111,106.8 139.8,103.3 139.8,118.4 126.6,120 126.6,125 137.1,123.7 137.1,138.8 126.6,140.1 
		126.6,147.2 139.8,145.6 139.8,160.7 111,164.2 	"/>
	<path d="M137.8,105.5v11.1l-2,0.2l-11.2,1.4v9l8.5-1l2-0.2v11l-2,0.2l-8.5,1v11.1l11.2-1.4l2-0.2v11.1l-2,0.2l-20.8,2.6l-2,0.2
		v-53.3l2-0.2l20.8-2.6L137.8,105.5 M141.8,101l-4.5,0.6l-2,0.2l-20.9,2.6l-2,0.2l-3.5,0.4v61.4l4.5-0.6l2-0.2l20.9-2.6l2-0.2
		l3.5-0.4v-19.2l-4.5,0.6l-2,0.2l-6.7,0.8v-3.1l5-0.6l2-0.2l3.5-0.4v-19.1l-4.5,0.6l-2,0.2l-4,0.5v-1l7.7-0.9l2-0.2l3.5-0.4V101
		L141.8,101z"/>
	<polygon class="st1" points="142.4,102.9 158.1,101 158.1,143.3 170.6,141.8 170.6,156.9 142.4,160.4 	"/>
	<path d="M156.1,103.3v42.3l10.6-1.3l2-0.2v11.1l-2,0.2l-20.2,2.5l-2,0.2v-53.4l2-0.2l7.6-0.9L156.1,103.3 M160.1,98.8l-4.5,0.6
		l-2,0.2l-7.6,0.9l-2,0.2l-3.5,0.4v61.5l4.5-0.6l2-0.2l20.2-2.5l2-0.2l3.5-0.4v-19.1l-4.5,0.6l-2,0.2l-6.1,0.8L160.1,98.8
		L160.1,98.8z"/>
	<path class="st1" d="M185,155.7c-3.4,0.1-6.7-1.1-9.1-3.4c-2.7-2.6-4.1-6.5-4.1-11.6v-26c-0.2-4.4,1.3-8.8,4-12.2
		c2.9-3.4,7-5.5,11.4-5.8c0.8-0.1,1.7-0.2,2.6-0.2c3.4-0.1,6.7,1.1,9.1,3.4c2.7,2.6,4.1,6.5,4.1,11.6v25.9c0,4.9-1.3,9.1-4,12.2
		c-2.9,3.4-7,5.5-11.4,5.8C186.8,155.6,185.9,155.6,185,155.7L185,155.7z"/>
	<path d="M189.7,98.6c2.9-0.1,5.6,0.9,7.8,2.8c2.3,2.3,3.5,5.7,3.5,10.1v25.9c0.2,4-1.1,7.9-3.5,11c-2.6,3-6.2,4.8-10.1,5.1
		c-0.8,0.1-1.5,0.1-2.3,0.1c-2.9,0.1-5.6-0.9-7.8-2.8c-2.3-2.2-3.5-5.6-3.5-10.1v-26c-0.2-4,1.1-7.9,3.5-11c2.6-3,6.2-4.8,10.1-5.1
		C188.1,98.6,188.9,98.5,189.7,98.6 M186.8,142.5c0.2,0,0.4,0,0.5-0.1c0.9-0.1,2-0.2,2-3.1v-26.9c0-2.3-0.7-2.6-1.4-2.6
		c-0.2,0-0.4,0-0.5,0c-0.9,0.1-2,0.2-2,3.1v26.9C185.4,142.1,186.1,142.5,186.8,142.5 M189.7,94.5c-0.9,0-1.9,0.1-2.8,0.2
		c-4.9,0.4-9.5,2.8-12.7,6.5c-2.9,3.6-4.4,8.1-4.4,13.5v26c0,5.6,1.6,10,4.8,13c2.8,2.7,6.6,4.1,10.5,3.9c0.9,0,1.9-0.1,2.8-0.2
		c4.9-0.4,9.5-2.8,12.6-6.5c3-3.8,4.6-8.6,4.4-13.5v-26c0-5.6-1.6-10-4.8-13C197.3,95.8,193.6,94.4,189.7,94.5L189.7,94.5z"/>
	<path class="st1" d="M206.4,95.1l15-1.8c0.9-0.1,1.8-0.2,2.7-0.2c3.3-0.2,6.6,1,9,3.2c2.6,2.6,4,6.4,4,11.5v4.9
		c0,5-1.3,9.1-3.8,12.2s-6.4,5-11.2,5.7v20.1l-15.6,1.9L206.4,95.1z"/>
	<path d="M224,95.1c2.8-0.1,5.5,0.8,7.6,2.7c2.2,2.2,3.4,5.6,3.4,10.1v4.9c0,4.5-1.1,8.2-3.4,10.9s-5.6,4.4-10,5l-1.6,0.2V149
		l-2,0.2l-7.6,0.9l-2,0.2V96.9l2-0.2l11.3-1.4C222.4,95.1,223.2,95.1,224,95.1 M220,117.7l1.6-0.2c0.5,0,1-0.2,1.3-0.6
		c0.4-0.7,0.5-1.5,0.4-2.3v-5.9c0-1.7-0.4-2.1-0.4-2.2c-0.2-0.2-0.6-0.3-0.9-0.2h-0.5l-1.6,0.2L220,117.7 M224,91.1
		c-1,0-1.9,0.1-2.9,0.2l-11.2,1.4l-2,0.2l-3.5,0.4v61.5l4.5-0.6l2-0.2l7.6-0.9l2-0.2l3.5-0.4v-20.2c4.2-0.7,8-2.9,10.7-6.1
		c2.9-3.5,4.3-8,4.3-13.4v-4.9c0-5.6-1.5-10-4.6-12.9C231.6,92.3,227.9,90.9,224,91.1L224,91.1z"/>
	<polygon class="st1" points="239.4,91 257.8,88.8 259.2,99.2 260.7,88.4 279.1,86.2 279.1,143.6 252.4,146.9 239.4,148.5 	"/>
	<path d="M277.1,88.4v53.4l-2,0.2l-7.2,0.9l-2,0.2v-13.5l-1.8,12l-0.3,1.7l-1.7,0.2l-6.4,0.8l-1.7,0.2l-0.2-1.7l-1.8-11.6v13.5
		l-2,0.2l-6.7,0.8l-2,0.2V92.8l2-0.2l10.9-1.3L256,91l0.2,1.7l3,21.2l3-21.9l0.2-1.8l1.7-0.2l10.9-1.3L277.1,88.4 M281.1,83.9
		l-4.5,0.6l-2,0.2l-11,1.3l-1.7,0.2l-3.1,0.4l0,0l-3.4,0.4l-1.7,0.2l-10.9,1.3l-2,0.2l-3.5,0.4v61.5l4.5-0.6l2-0.2l6.7-0.8l2-0.2
		l3.5-0.4h0.2l6.4-0.8l1.7-0.2l0.7-0.1l1.3-0.1l2-0.2l7.2-0.9l2-0.2l3.5-0.4L281.1,83.9L281.1,83.9z"/>
	<polygon class="st1" points="283.1,85.7 311.9,82.1 311.9,97.2 298.7,98.9 298.7,103.9 309.2,102.6 309.2,117.7 298.7,119 
		298.7,126.1 311.9,124.4 311.9,139.6 283.1,143.1 	"/>
	<path d="M309.9,84.4v11.1l-2,0.2l-11.2,1.4v9l8.5-1.1l2-0.2v11.1l-2,0.2l-8.5,1v11.1l11.2-1.3l2-0.2v11.1l-2,0.2l-20.8,2.6l-2,0.2
		V87.5l2-0.2l20.8-2.6L309.9,84.4 M313.9,79.9l-4.5,0.6l-2,0.2l-20.8,2.6l-2,0.2l-3.5,0.4v61.4l4.5-0.6l2-0.2l20.8-2.6l2-0.2
		l3.5-0.4v-19.2l-4.5,0.6l-2,0.2l-6.7,0.8v-3.1l5-0.6l2-0.2l3.5-0.4v-19.1l-4.5,0.6l-2,0.2l-4,0.5v-1l7.7-0.9l2-0.2l3.5-0.4V79.9
		L313.9,79.9z"/>
	<polygon class="st1" points="314.5,81.8 331.2,79.8 331.7,81.9 331.7,79.7 346.5,77.9 346.5,135.3 331.6,137.1 329.3,128.4 
		329.3,137.4 314.5,139.2 	"/>
	<path d="M344.5,80.1v53.4l-2,0.2l-7.9,1l-1.5,0.2l-0.4-1.5l-5.4-20.6v22.8l-2,0.2l-6.8,0.8l-2,0.2V83.6l2-0.2l9.6-1.2l1.5-0.2
		l0.4,1.5l3.7,14.1V81.5l2-0.2l6.8-0.8L344.5,80.1 M348.5,75.6l-4.5,0.6l-2,0.2l-6.8,0.8l-2,0.2l-2.5,0.3l-1.6,0.2l-1.5,0.2
		l-9.6,1.2l-2,0.2l-3.5,0.4v61.5l4.5-0.6l2-0.2l6.8-0.8l2-0.2l3.5-0.4l2.3-0.3l1.5-0.2l7.9-1l2-0.2l3.5-0.4L348.5,75.6L348.5,75.6z"
		/>
	<polygon class="st1" points="356.4,91.8 348.4,92.8 348.4,77.6 380,73.8 380,88.9 372,89.9 372,132.2 356.4,134.1 	"/>
	<path d="M378,76v11.1l-2,0.2l-6,0.7v42.3l-2,0.2l-7.6,0.9l-2,0.2V89.5l-6,0.7l-2,0.2v-11l2-0.2l23.6-2.9L378,76 M382,71.5l-4.5,0.6
		l-2,0.2l-23.6,2.9l-2,0.2l-3.5,0.4V95l4.5-0.6l2-0.2l1.5-0.2v42.3l4.5-0.6l2-0.2l7.6-0.9l2-0.2l3.5-0.4V91.6l2.5-0.3l2-0.2l3.5-0.4
		V71.5L382,71.5z"/>
</g>
</svg>
