<?xml version="1.0" encoding="utf-8"?>
<!-- Generator: Adobe Illustrator 23.0.3, SVG Export Plug-In . SVG Version: 6.00 Build 0)  -->
<svg version="1.1" id="Layer_1" xmlns="http://www.w3.org/2000/svg" xmlns:xlink="http://www.w3.org/1999/xlink" x="0px" y="0px"
	 viewBox="0 0 194.3 162" style="enable-background:new 0 0 194.3 162;" xml:space="preserve">
<style type="text/css">
	.st0{fill:url(#SVGID_1_);}
	.st1{fill:#FFFFFF;}
</style>
<linearGradient id="SVGID_1_" gradientUnits="userSpaceOnUse" x1="11.1096" y1="26.7847" x2="191.7645" y2="26.7847" gradientTransform="matrix(0.9925 -0.1219 0 -1.0075 -2.8263 119.5542)">
	<stop  offset="0.1" style="stop-color:#DA3228"/>
	<stop  offset="1" style="stop-color:#8F3029"/>
</linearGradient>
<path class="st0" d="M182,7.6c-3.8-3.7-9-5.2-15.4-4.4c-3.7,0.5-7,1.6-9.9,3.3V5.1l-4,0.5l-4,0.5l-9.8,1.2l-1.8,0.2L134,7.9
	l-12.2,1.5l-4,0.5l-4,0.5v1.5c-2.9-1.1-6.3-1.4-10.1-1c-6.4,0.8-11.5,3.5-15.4,8c-3.6-3.2-8.7-4.4-15.1-3.6l-12,1.5l-0.9,0.1
	l-3.5,0.4l-0.4,0.1l-9.2,1.1l-0.8,0.1L42.8,19l-11,1.4L31,20.5l-3.6,0.4L17,22.2l-4.4,0.5l-4.4,0.5l0.4,4.4L9,32l5.2,51.7l0.4,3.6
	l0.3,2.6L11,90.4v4v4v52.4v4v4l4-0.5l4-0.5l9.6-1.2l4-0.5l7.9-1l3.4-0.4l9.7-1.2l4-0.5l4-0.5V151c2.9,1.1,6.3,1.4,10.1,1
	c6.4-0.8,11.7-3.5,15.5-8.2c0.1-0.1,0.2-0.2,0.2-0.3l0.4,2.4l0.5,3.4l3.4-0.4l3.4-0.4l12.7-1.6l3.4-0.4l3.4-0.4h0.3l4-0.5l23.8-2.9
	l4-0.5l4-0.5v-4v-4v-10.1v-4v-4L148,116v-0.1v-4v-10.1v-2l2.7-0.3v-4v-4V81.4v-4v-3l2.1-0.3l4-0.5v-1.4c2.9,1.1,6.2,1.4,9.9,0.9
	c6.4-0.8,11.6-3.5,15.4-8.2c3.6-4.4,5.4-9.9,5.4-16.4V32.3v-4v-5.7C187.5,16.1,185.6,11.1,182,7.6z M61.6,85.3l1-0.1
	c-0.4,0.2-0.7,0.4-1,0.6V85.3z M113.9,77.9l-1,0.1c0.4-0.2,0.7-0.4,1-0.6V77.9z"/>
<g>
	<g>
		<polygon class="st1" points="45,51.1 42.7,27.4 31.7,28.7 29.4,53 27.2,29.3 16.9,30.5 22.1,82.3 34.9,80.7 37.1,59.3 39.3,80.2 
			51.5,78.7 56.8,25.6 47.2,26.8 		"/>
		<path d="M56.8,25.6l-5.2,53l-12.2,1.5l-2.2-20.8L35,80.7l-12.8,1.6L17,30.6l10.4-1.3l2.2,23.8l2.3-24.3l11-1.4l2.3,23.8l2.2-24.3
			L56.8,25.6 M61.2,21.1l-4.4,0.5l-9.6,1.2l-0.8,0.1l-3.6,0.4l-11,1.4L31,24.8l-3.6,0.4L17,26.5L12.6,27l0.4,4.4l5.2,51.7l0.4,3.6
			l3.6-0.4L35,84.7l3.6-0.4l0.8-0.1l12.2-1.5l3.6-0.4l0.4-3.7l5.2-53L61.2,21.1L61.2,21.1z"/>
	</g>
	<g>
		<path class="st1" d="M70.9,55.1l1.2-0.1c0.9-0.1,2-0.1,2.6,0.5c0.3,0.3,0.7,1.2,0.7,3.7v9c0,1.9,0,3.2,0.2,4
			c0.1,0.8,0.3,1.6,0.6,2.5l0.4,1l11.1-1.4l-0.9-2c-0.3-0.7-0.5-1.3-0.6-2.1s-0.1-1.9-0.1-3.2v-8.7c0-3.2-0.4-5.6-1.3-7.4
			c-0.5-1.2-1.3-2.1-2.3-2.7c2.3-2.3,3.5-5.7,3.5-10.1v-3c0-4.2-1.1-7.4-3.1-9.2c-2.1-1.9-5.3-2.6-9.7-2l-12.8,1.6v52.4L71,76.6
			L70.9,55.1L70.9,55.1z M70.9,34l2-0.2c1.3-0.2,1.7,0.3,1.8,0.4c0.2,0.3,0.6,1,0.6,2.9v3.8c0,1.8-0.4,2.7-0.7,3.1
			c-0.5,0.5-1.3,0.9-2.4,1l-1.3,0.2L70.9,34L70.9,34z"/>
		<path d="M73.1,23.6c4.3-0.5,7.6,0.2,9.7,2c2.1,1.9,3.1,5,3.1,9.2v3c0,4.5-1.2,7.8-3.5,10.1c1,0.6,1.8,1.6,2.3,2.7
			c0.9,1.8,1.3,4.3,1.3,7.4v8.7c0,1.4,0,2.4,0.1,3.2c0.1,0.7,0.3,1.4,0.6,2.1l0.9,2l-11.1,1.4l-0.4-1c-0.3-0.9-0.5-1.7-0.6-2.5
			s-0.2-2.1-0.2-4v-9c0-2.5-0.5-3.4-0.7-3.7c-0.5-0.6-1.7-0.6-2.6-0.5l-1.2,0.1V76l-10.6,1.3V25.2L73.1,23.6 M70.9,45.1l1.3-0.2
			c1.1-0.1,1.9-0.5,2.4-1c0.3-0.4,0.7-1.2,0.7-3.1V37c0-1.9-0.4-2.6-0.6-2.9c-0.1-0.1-0.5-0.6-1.8-0.4l-2,0.2L70.9,45.1 M73.1,19.6
			l-12.8,1.6l-4,0.5v4v52.4v4l4-0.5l10.6-1.3l4-0.5l1.6-0.2l11.1-1.4l6.1-0.8L91.2,72l-0.9-2c-0.1-0.3-0.2-0.6-0.3-0.9
			c0-0.5-0.1-1.3-0.1-2.8v-8.7c0-3.7-0.5-6.7-1.6-9c-0.2-0.5-0.5-0.9-0.7-1.3c1.5-2.7,2.3-6.1,2.3-9.9v-3c0-5.3-1.4-9.4-4.3-11.9
			C82.7,19.9,78.5,18.9,73.1,19.6L73.1,19.6z"/>
	</g>
	<g>
		<path class="st1" d="M103.6,19.2c-4.2,0.5-7.4,2.2-9.7,4.9c-2.2,2.7-3.4,6.3-3.4,10.6v26c0,4.3,1.1,7.6,3.4,9.8
			c2.3,2.2,5.5,3,9.7,2.5c4.2-0.5,7.4-2.2,9.7-4.9c2.2-2.7,3.4-6.3,3.4-10.6v-26c0-4.3-1.1-7.6-3.4-9.8
			C111,19.5,107.8,18.7,103.6,19.2z M101.1,32.9c0-3.1,1.3-3.5,2.5-3.7c1.2-0.1,2.5,0,2.5,3.1v26.9c0,3.1-1.3,3.5-2.5,3.7
			c-1.2,0.1-2.5,0-2.5-3.1V32.9z"/>
		<path d="M103.6,19.2c4.2-0.5,7.4,0.3,9.7,2.5c2.2,2.2,3.4,5.5,3.4,9.8v26c0,4.3-1.1,7.9-3.4,10.6c-2.3,2.8-5.5,4.4-9.7,4.9
			s-7.4-0.3-9.7-2.5c-2.2-2.2-3.4-5.5-3.4-9.8v-26c0-4.3,1.1-7.9,3.4-10.6C96.2,21.3,99.4,19.7,103.6,19.2 M103.6,62.9
			c1.2-0.1,2.5-0.6,2.5-3.7V32.3c0-3.1-1.3-3.2-2.5-3.1s-2.5,0.6-2.5,3.7v26.9C101.1,62.9,102.4,63.1,103.6,62.9 M103.6,15.1
			c-5.3,0.7-9.5,2.9-12.6,6.5c-3,3.6-4.5,8.1-4.5,13.5v26c0,5.4,1.5,9.6,4.5,12.4c3.1,2.9,7.3,4.1,12.6,3.5
			c5.3-0.7,9.5-2.9,12.6-6.5c3-3.6,4.5-8.1,4.5-13.5V31c0-5.4-1.5-9.6-4.5-12.4C113.2,15.7,108.9,14.5,103.6,15.1L103.6,15.1z
			 M105.2,31.8L105.2,31.8L105.2,31.8L105.2,31.8z M105.2,60L105.2,60L105.2,60L105.2,60z"/>
	</g>
	<g>
		<polygon class="st1" points="138.8,35.1 133.9,16.2 121.6,17.7 121.6,70.1 131.4,68.9 131.4,42.7 138.1,68 148.6,66.8 148.6,14.4 
			138.8,15.6 		"/>
		<path d="M148.6,14.4v52.4l-10.5,1.3l-6.7-25.4v26.2l-9.8,1.2V17.7l12.2-1.5l4.9,19V15.6L148.6,14.4 M152.6,9.8l-4,0.5l-9.8,1.2
			l-1.8,0.2l-3.1,0.4l-12.2,1.5l-4,0.5v4v52.4v4l4-0.5l9.8-1.2l4-0.5l2.7-0.3l10.5-1.3l4-0.5v-4V13.9V9.8H152.6z"/>
	</g>
	<g>
		<path class="st1" d="M179.3,29.6v-5.7c0-4.4-1.1-7.7-3.3-9.8c-2.2-2.2-5.5-3-9.6-2.5s-7.3,2.1-9.6,4.9c-2.2,2.7-3.3,6.3-3.3,10.6
			v26c0,4.4,1.1,7.7,3.3,9.8c2.2,2.2,5.4,3,9.6,2.5c4.1-0.5,7.3-2.1,9.6-4.9c2.2-2.7,3.3-6.3,3.3-10.6V32.2l-14,1.7V44l3.8-0.5v8.2
			c0,3-1.3,3.4-2.5,3.6c-1.2,0.1-2.5,0-2.5-3v-27c0-3.1,1.3-3.5,2.5-3.7c1.2-0.1,2.5,0,2.5,3.1v6.2L179.3,29.6z"/>
		<path d="M166.4,11.5c4.1-0.5,7.3,0.3,9.6,2.5c2.2,2.1,3.3,5.5,3.3,9.8v5.7l-10.2,1.3v-6.2c0-3.1-1.3-3.2-2.5-3.1s-2.5,0.6-2.5,3.7
			v27c0,3,1.3,3.1,2.5,3s2.5-0.6,2.5-3.6v-8.2l-3.8,0.5V33.8l14-1.7v17.7c0,4.4-1.1,7.9-3.3,10.6c-2.2,2.7-5.4,4.4-9.6,4.9
			c-4.1,0.5-7.3-0.3-9.6-2.5c-2.2-2.1-3.3-5.5-3.3-9.8V27c0-4.4,1.1-7.9,3.3-10.6C159.1,13.6,162.3,12,166.4,11.5 M166.4,7.4
			c-5.3,0.6-9.5,2.8-12.5,6.5c-2.9,3.5-4.4,8.1-4.4,13.5v26c0,5.4,1.5,9.6,4.4,12.4c3,2.9,7.2,4.1,12.5,3.5s9.5-2.8,12.5-6.5
			c2.9-3.5,4.4-8.1,4.4-13.5V33.1v-4v-5.7c0-5.4-1.5-9.6-4.4-12.4C175.9,8,171.7,6.8,166.4,7.4L166.4,7.4z M168.2,52.3L168.2,52.3
			L168.2,52.3L168.2,52.3z M165.1,52.7L165.1,52.7L165.1,52.7z"/>
	</g>
	<g>
		<polygon class="st1" points="36.1,122.1 32.5,96.1 18.8,97.8 18.8,150.2 28.5,149 28.5,129.3 31.4,148.6 40.3,147.5 43.3,127.5 
			43.3,147.2 53.5,145.9 53.5,93.5 39.8,95.2 		"/>
		<path d="M53.5,93.5v52.4l-10.2,1.3v-19.7l-2.9,20l-9,1.1l-2.9-19.3V149l-9.6,1.2V97.8l13.7-1.7l3.6,26l3.6-26.9L53.5,93.5
			 M57.4,89l-4,0.5l-13.7,1.7l-3.5,0.4L36,93l-0.2-1.3l-3.5,0.4l-13.7,1.7l-4,0.5v4v52.4v4l4-0.5l9.6-1.2l4-0.5l7.9-1l3.4-0.4
			l9.7-1.2l4-0.5v-4V93v-4H57.4z"/>
	</g>
	<g>
		<path class="st1" d="M71.5,90.6c-4.2,0.5-7.4,2.2-9.7,4.9c-2.2,2.7-3.4,6.3-3.4,10.6v26c0,4.3,1.1,7.6,3.4,9.8
			c2.3,2.2,5.5,3,9.7,2.5s7.4-2.2,9.7-4.9c2.2-2.7,3.4-6.3,3.4-10.6v-26c0-4.3-1.1-7.6-3.4-9.8C78.9,91,75.7,90.1,71.5,90.6z
			 M69,104.4c0-3.1,1.3-3.5,2.5-3.7c1.2-0.1,2.5,0,2.5,3.1v26.9c0,3.1-1.3,3.5-2.5,3.7c-1.2,0.1-2.5,0-2.5-3.1V104.4z"/>
		<path d="M71.5,90.6c4.2-0.5,7.4,0.3,9.7,2.5c2.2,2.2,3.4,5.5,3.4,9.8v26c0,4.3-1.1,7.9-3.4,10.6c-2.3,2.8-5.5,4.4-9.7,4.9
			s-7.4-0.3-9.7-2.5c-2.2-2.2-3.4-5.5-3.4-9.8v-26c0-4.3,1.1-7.9,3.4-10.6C64.1,92.8,67.3,91.1,71.5,90.6 M71.5,134.3
			c1.2-0.1,2.5-0.6,2.5-3.7v-26.9c0-3.1-1.3-3.2-2.5-3.1c-1.2,0.1-2.5,0.6-2.5,3.7v26.9C69,134.4,70.3,134.5,71.5,134.3 M71.5,86.6
			c-5.3,0.7-9.5,2.9-12.6,6.5c-3,3.6-4.5,8.1-4.5,13.5v26c0,5.4,1.5,9.6,4.5,12.4c3.1,2.9,7.3,4.1,12.6,3.5
			c5.3-0.7,9.5-2.9,12.6-6.5c3-3.6,4.5-8.1,4.5-13.5v-26c0-5.4-1.5-9.6-4.5-12.4C81.1,87.1,76.8,85.9,71.5,86.6L71.5,86.6z
			 M73.1,103.2L73.1,103.2L73.1,103.2L73.1,103.2z M70,103.6L70,103.6L70,103.6L70,103.6z M73.1,131.5L73.1,131.5L73.1,131.5
			L73.1,131.5z M70,131.8L70,131.8L70,131.8z"/>
	</g>
	<g>
		<polygon class="st1" points="101.7,116.5 97.9,88.1 87.1,89.4 95,140.8 107.7,139.3 115.5,85.9 105.4,87.2 		"/>
		<path d="M115.5,85.9l-7.8,53.4L95,140.9l-7.8-51.4l10.7-1.3l3.8,28.4l3.8-29.3L115.5,85.9 M120.1,81.3l-4.6,0.6l-10.1,1.2
			l-3.5,0.4l-0.3,2.2l-0.3-2.2l-3.5,0.4l-10.7,1.3l-4.6,0.6l0.7,4.5l7.8,51.4l0.5,3.4l3.4-0.4l12.7-1.6l3.4-0.4l0.5-3.5l7.8-53.4
			L120.1,81.3L120.1,81.3z"/>
	</g>
	<g>
		<polygon class="st1" points="118.7,137.9 142.5,135 142.5,124.9 129.3,126.5 129.3,114.4 139.8,113.1 139.8,103 129.3,104.3 
			129.3,94.3 142.5,92.7 142.5,82.6 118.7,85.5 		"/>
		<path d="M142.5,82.6v10.1l-13.2,1.6v10l10.5-1.3v10.1l-10.5,1.3v12.1l13.2-1.6V135l-23.8,2.9V85.5L142.5,82.6 M146.5,78.1l-4,0.5
			l-23.8,2.9l-4,0.5v4v52.4v4l4-0.5l23.8-2.9l4-0.5v-4v-10.1v-4l-4,0.5l-9.2,1.1v-4.1l6.5-0.8l4-0.5v-4v-10.1v-4l-4,0.5l-6.5,0.8v-2
			l9.2-1.1l4-0.5v-4V82.1V78.1L146.5,78.1z"/>
	</g>
</g>
</svg>
