<?xml version="1.0" encoding="utf-8"?>
<!-- Generator: Adobe Illustrator 23.0.3, SVG Export Plug-In . SVG Version: 6.00 Build 0)  -->
<svg version="1.1" id="Layer_1" xmlns="http://www.w3.org/2000/svg" xmlns:xlink="http://www.w3.org/1999/xlink" x="0px" y="0px"
	 viewBox="0 0 194.3 162" style="enable-background:new 0 0 194.3 162;" xml:space="preserve">
<style type="text/css">
	.st0{fill:url(#SVGID_1_);}
	.st1{fill:url(#SVGID_2_);}
	.st2{fill:#FFFFFF;}
</style>
<title>your-grade</title>
<g id="Your-Grade">
	
		<linearGradient id="SVGID_1_" gradientUnits="userSpaceOnUse" x1="39.45" y1="56.65" x2="39.45" y2="56.65" gradientTransform="matrix(1 0 0 -1 0 162.0013)">
		<stop  offset="0.1" style="stop-color:#DA3228"/>
		<stop  offset="1" style="stop-color:#8F3029"/>
	</linearGradient>
	<polygon class="st0" points="39.4,105.4 39.4,105.4 39.4,105.4 	"/>
	
		<linearGradient id="SVGID_2_" gradientUnits="userSpaceOnUse" x1="5.76" y1="81.0048" x2="188.57" y2="81.0048" gradientTransform="matrix(1 0 0 -1 0 162.0013)">
		<stop  offset="0.1" style="stop-color:#DA3228"/>
		<stop  offset="1" style="stop-color:#8F3029"/>
	</linearGradient>
	<path class="st1" d="M184,67.3l-4.5,0.6l-2,0.2l-17.9,2.2l-1.4-3.2l-2.3-5l-1.1-2.4c0-0.4-0.1-1-0.1-2V49c0.1-3.6-0.5-7.2-1.9-10.6
		c1.2-3.1,1.8-6.4,1.8-9.8v-3c0-6.7-2-12-5.9-15.5c-3.2-2.9-7.5-4.4-12.7-4.4c-1.2,0-2.5,0.1-3.7,0.2l-11.3,1.4l-2,0.2L115.9,8
		l-4.5,0.6l-2,0.2l-7.4,0.9l-2,0.2l-3.5,0.4h-0.3l-2,0.2l-7.6,0.9l-2,0.2l-3.5,0.4l-3.5,0.4v3.5l0,0c-3.1-1.9-6.8-2.9-10.4-2.8
		c-3.2,0-6.3,0.6-9.3,1.7l-4.6,0.6l-6.2,0.8l-2.8,0.3l-7.4,0.9l-1.5,0.2l-2.6,0.3l-1.2,0.2h-0.4l-3.4,0.4l-1.5,0.2L18.3,20l-2.8,0.3
		l-4.9,0.6l-4.9,0.6l1.6,4.7l1.6,4.7l0.9,2.5l8.7,25.7v30.4l2-0.2c-1.6,1.1-3.1,2.5-4.3,4c-3.5,4.3-5.3,9.7-5.3,16.1v25.9
		c0,6.7,2,12.1,5.9,15.9c3.6,3.4,8.3,5.2,13.2,5.1c1.1,0,2.2-0.1,3.2-0.2c4.2-0.4,8.2-2,11.6-4.5v2.4l4.5-0.6l4.5-0.6l2-0.2l7.6-0.9
		l2-0.2l3.5-0.4l1.2-0.1l1.4-0.2l7.8-1l1.1-0.1l5.3-0.6l2.3-0.3l7.1-0.9l1.7-0.2l3-0.4h0.2l0.9-0.1l3.9-0.5l1.7-0.2l7.6-0.9l2.3-0.3
		l1.1-0.1l4.5-0.6l2-0.2l11.7-1.4c4.3-0.4,8.4-2,11.8-4.6v3.1l4.5-0.6l4.5-0.6l2-0.2l20.9-2.6l2-0.2l3.5-0.4l3.5-0.4V109l-2.7,0.3
		V94.2l2.7-0.3V66.7L184,67.3z"/>
	<polygon class="st2" points="25.1,58.1 14.4,26.6 30.9,24.6 33.2,32.3 35.5,24 51.6,22.1 40.7,56.7 40.7,80.8 25.1,82.7 	"/>
	<path d="M48.7,24.4l-0.9,2.8l-9.1,29.2v22.7l-2,0.2l-7.6,0.9l-2,0.2V57.8l-9.1-26.9l-0.9-2.5l2.7-0.3l8.1-1l1.5-0.2l0.4,1.4
		l3.4,11.3l3.4-12.2l0.4-1.5l1.5-0.2l7.4-0.9L48.7,24.4 M54.4,19.7l-6.2,0.8l-2.8,0.3l-7.4,0.9l-1.5,0.2l-2.7,0.3l-0.7,2.6l-0.1,0.3
		l-0.8-2.6L29,22.8L27.5,23l-8.1,1l-2.8,0.3l-4.9,0.6l1.6,4.7l0.9,2.5l8.9,26.3V85l4.5-0.6l2-0.2l7.6-0.9l2-0.2l3.5-0.4V57l9-28.6
		l0.9-2.8L54.4,19.7L54.4,19.7z"/>
	<path class="st2" d="M63.2,78.6c-3.4,0.1-6.7-1.1-9.1-3.4c-2.8-2.6-4.1-6.5-4.1-11.6V37.8c-0.2-4.4,1.3-8.8,4-12.2
		c2.9-3.4,6.9-5.5,11.4-5.8c0.8-0.1,1.7-0.2,2.6-0.2c3.4-0.1,6.7,1.1,9.1,3.4c2.8,2.6,4.1,6.5,4.1,11.6v26c0.2,4.4-1.3,8.8-4,12.3
		c-2.9,3.4-7,5.5-11.4,5.8C64.9,78.6,64,78.7,63.2,78.6L63.2,78.6z"/>
	<path d="M67.8,21.5c2.9-0.1,5.6,0.9,7.8,2.8c2.3,2.2,3.5,5.7,3.5,10.1v26c0.2,4-1.1,7.9-3.5,11c-2.6,3-6.2,4.8-10.1,5.1
		c-0.8,0.1-1.5,0.1-2.3,0.1c-2.9,0.1-5.6-0.9-7.8-2.8c-2.3-2.2-3.5-5.6-3.5-10.1v-26c-0.2-4,1.1-7.9,3.5-11c2.5-3,6.2-4.8,10.1-5.1
		C66.3,21.5,67,21.5,67.8,21.5 M65,65.4c0.2,0,0.4,0,0.5,0c0.9-0.1,2-0.2,2-3.1v-27c0-2.3-0.7-2.7-1.4-2.7c-0.2,0-0.4,0-0.5,0
		c-0.9,0.1-2,0.2-2,3.1v26.9C63.5,65,64.2,65.4,65,65.4 M67.8,17.5c-0.9,0-1.9,0.1-2.8,0.2c-4.9,0.4-9.5,2.8-12.7,6.5
		c-3,3.8-4.6,8.6-4.4,13.5v26c0,5.6,1.6,10,4.8,13c2.9,2.7,6.6,4.1,10.5,3.9c0.9,0,1.9-0.1,2.8-0.2c4.9-0.4,9.5-2.8,12.7-6.5
		c3-3.8,4.6-8.6,4.4-13.5v-26c0-5.6-1.6-10-4.8-13C75.5,18.8,71.7,17.4,67.8,17.5L67.8,17.5z"/>
	<path class="st2" d="M97.3,74.4c-3.3,0.1-6.6-1.1-9-3.4c-2.7-2.6-4.1-6.5-4.1-11.6V18.1l15.6-1.9l15.1-1.9v41.9
		c0,5-1.3,9.1-3.9,12.3c-2.8,3.3-6.9,5.4-11.2,5.8C99.1,74.4,98.2,74.4,97.3,74.4L97.3,74.4z"/>
	<path d="M113,16.5v39.7c0,4.5-1.2,8.2-3.4,11c-2.5,2.9-6.1,4.8-9.9,5.1c-0.8,0.1-1.5,0.1-2.3,0.1c-2.8,0.1-5.6-0.9-7.6-2.8
		c-2.3-2.2-3.4-5.6-3.4-10.1V19.8l2-0.2l7.6-0.9l2-0.2v40.2c0,1.6,0.3,2.1,0.5,2.3c0.3,0.2,0.6,0.4,1,0.3h0.4c0.5,0,1.1-0.2,1.4-0.6
		c0.4-0.7,0.6-1.5,0.5-2.4V17.9l2-0.2l7.4-0.9l2-0.2 M117.1,12l-4.5,0.6l-2,0.2l-7.4,0.9l-1.3,0.2l0,0L99,14.2l-1.3,0.2h-0.3l-2,0.2
		l-7.6,0.9l-2,0.2l-3.5,0.4v43.3c0,5.6,1.6,10,4.6,13c2.8,2.7,6.6,4.1,10.4,3.9c0.9,0,1.9-0.1,2.8-0.2c4.9-0.4,9.4-2.8,12.5-6.5
		c2.9-3.5,4.3-8.1,4.3-13.5L117.1,12L117.1,12z"/>
	<path class="st2" d="M118.7,13.8l15.1-1.8c1-0.1,2-0.2,3-0.2c3.6,0,6.5,1,8.6,2.8c2.6,2.4,4,6.1,4,11.1v3c0.1,3.5-0.8,6.9-2.6,9.9
		c0.5,0.6,0.9,1.2,1.2,1.9c1.1,2.7,1.6,5.6,1.5,8.5v8.7c0,1,0,2,0.1,3c0.1,0.4,0.2,0.9,0.4,1.3l2.4,5.2l-16.5,2l-1-2.8
		c-0.1-0.4-0.3-0.8-0.4-1.2v4.2l-15.6,1.9L118.7,13.8z"/>
	<path d="M136.8,13.8c3.1,0,5.6,0.8,7.3,2.3c2.2,2,3.3,5.2,3.3,9.6v3c0,4.9-1.5,8.1-3.3,10.1c0.9,0.7,1.5,1.6,2,2.6
		c1,2.4,1.4,5,1.3,7.6v8.7c0,1.3,0,2.4,0.1,3.2c0.1,0.7,0.3,1.3,0.5,1.9l1.2,2.7l-3.1,0.4l-7.8,1L137,67l-0.5-1.3
		c-0.3-0.8-0.5-1.7-0.6-2.6c-0.1-1.3-0.2-2.7-0.2-4.1v-9c0-2.5-0.5-3.2-0.6-3.4c-0.4-0.3-0.9-0.4-1.4-0.4c-0.2,0-0.5,0-0.8,0
		l-0.6,0.1v21.2l-2,0.2l-7.6,0.9l-2,0.2V15.6l2-0.2L134,14C134.9,13.9,135.8,13.8,136.8,13.8 M132.3,35.4l0.8-0.1
		c0.7,0,1.5-0.3,2-0.8c0.5-0.8,0.7-1.8,0.6-2.7v-3.8c0-1.8-0.4-2.4-0.5-2.6c-0.2-0.2-0.6-0.4-0.9-0.3h-0.5l-1.5,0.2L132.3,35.4
		 M136.7,9.7c-1.1,0-2.2,0.1-3.2,0.2l-11.3,1.4l-2,0.2l-3.5,0.4v61.5l4.5-0.6l2-0.2l7.6-0.9l2-0.2l1.6-0.2l0,0l3.2-0.4l1.4-0.2
		l7.8-1l3.1-0.4l5.5-0.7l-2.3-5l-1.2-2.7c-0.1-0.2-0.2-0.4-0.2-0.6c-0.1-0.9-0.1-1.8-0.1-2.8V49c0.1-3.2-0.5-6.4-1.7-9.3
		c-0.2-0.4-0.4-0.8-0.6-1.2c1.6-3,2.3-6.4,2.2-9.8v-3c0-5.6-1.5-9.8-4.6-12.6C144.3,10.9,140.9,9.8,136.7,9.7L136.7,9.7z"/>
	<path class="st2" d="M30.6,150.2c-3.3,0.1-6.6-1.1-9.1-3.4c-2.7-2.6-4-6.5-4-11.6v-25.9c0-5,1.3-9.1,3.9-12.3
		c2.8-3.3,6.9-5.4,11.2-5.8c0.8-0.1,1.7-0.2,2.5-0.2c3.3-0.1,6.6,1.1,9.1,3.4c2.7,2.6,4,6.5,4,11.6v26c0,5-1.3,9.1-3.9,12.3
		c-2.8,3.3-6.9,5.4-11.2,5.7C32.3,150.1,31.5,150.2,30.6,150.2z"/>
	<path d="M35.2,93.1c2.8-0.1,5.6,0.9,7.6,2.8c2.3,2.2,3.4,5.6,3.4,10.1v6.2l-2,0.2l-7.2,0.9l-2,0.2v-6.7c0-2.3-0.7-2.7-1.4-2.7
		c-0.2,0-0.4,0-0.5,0.1c-0.9,0.1-2,0.2-2,3.1v27c0,2.2,0.7,2.6,1.4,2.6c0.2,0,0.4,0,0.5-0.1c0.9-0.1,2-0.2,2-3v-7.6l-1.8,0.2l-2,0.2
		v-11.1l2-0.2l11.1-1.4l2-0.2V132c0,4.5-1.1,8.2-3.4,11c-2.5,2.9-6.1,4.8-9.9,5.1c-0.8,0.1-1.5,0.1-2.3,0.1
		c-2.8,0.1-5.6-0.9-7.6-2.8c-2.3-2.2-3.4-5.6-3.4-10.1v-26c0-4.5,1.2-8.2,3.4-11c2.5-2.9,6.1-4.8,9.9-5.1
		C33.7,93.1,34.4,93.1,35.2,93.1 M35.2,89.1c-0.9,0-1.9,0.1-2.8,0.2c-4.9,0.4-9.4,2.8-12.6,6.5c-2.9,3.5-4.4,8.1-4.4,13.5v25.9
		c0,5.6,1.6,10,4.7,13c2.8,2.7,6.6,4.1,10.4,3.9c0.9,0,1.9-0.1,2.8-0.2c4.9-0.4,9.4-2.8,12.6-6.5c2.9-3.5,4.3-8.1,4.3-13.5v-26
		c0-5.6-1.6-10-4.6-13C42.8,90.3,39.1,88.9,35.2,89.1L35.2,89.1z"/>
	<path class="st2" d="M51.5,89.7l15.1-1.9c1-0.1,2-0.2,3-0.2c3.6,0,6.5,0.9,8.6,2.8c2.6,2.4,3.9,6.1,3.9,11.1v3
		c0.1,3.5-0.8,6.9-2.6,9.9c0.5,0.6,0.9,1.2,1.2,1.9c1.1,2.7,1.6,5.6,1.5,8.5v8.7c0,1,0,2,0.1,3c0,0.4,0.2,0.9,0.4,1.3l2.4,5.2
		l-16.6,2l-1-2.8c-0.2-0.4-0.3-0.8-0.4-1.2v4.2l-15.6,1.9L51.5,89.7z"/>
	<path d="M69.6,89.6c3.1,0,5.6,0.8,7.3,2.3c2.2,2,3.3,5.2,3.3,9.6v3c0,4.9-1.5,8.1-3.3,10.1c0.9,0.7,1.6,1.6,2,2.6
		c1,2.4,1.4,5,1.3,7.6v8.7c0,1.1,0,2.1,0.1,3.2c0.1,0.7,0.3,1.3,0.5,1.9l1.2,2.7l-3.1,0.4l-7.8,1l-1.4,0.2l-0.5-1.3
		c-0.3-0.8-0.5-1.7-0.6-2.6c-0.1-1.3-0.2-2.7-0.1-4.1v-9c0-2.5-0.5-3.2-0.6-3.4c-0.4-0.3-0.9-0.4-1.4-0.4c-0.3,0-0.5,0-0.8,0.1
		l-0.7,0.1v21.2l-2,0.2l-7.6,0.9l-2,0.2V91.5l2-0.2l11.3-1.4C67.7,89.7,68.6,89.6,69.6,89.6 M65.1,111.2l0.8-0.1
		c0.7,0,1.5-0.3,2-0.8c0.5-0.8,0.7-1.8,0.6-2.7v-3.8c0-1.8-0.4-2.4-0.5-2.6c-0.2-0.2-0.6-0.3-0.9-0.3h-0.5l-1.5,0.2L65.1,111.2
		 M69.5,85.6c-1.1,0-2.2,0.1-3.2,0.2L55,87.2l-2,0.2l-3.5,0.4v61.5l4.5-0.6l2-0.2l7.6-0.9l2-0.2l3.4-0.4l1.3-0.2l1.4-0.2l7.8-1
		l3.1-0.4l5.4-0.7l-2.3-5l-1.2-2.7c-0.1-0.2-0.2-0.4-0.2-0.6c0-0.4-0.1-1.3-0.1-2.8v-8.7c0.1-3.2-0.5-6.4-1.7-9.3
		c-0.2-0.4-0.4-0.8-0.6-1.2c1.6-3,2.3-6.4,2.2-9.8v-3c0-5.6-1.6-9.8-4.6-12.6C77,86.7,73.7,85.6,69.5,85.6L69.5,85.6z"/>
	<polygon class="st2" points="92.2,84.7 109.4,82.6 118.6,138.8 102.9,140.8 101.5,131.3 99.7,131.5 98.3,141.3 83,143.2 	"/>
	<path d="M107.7,84.8l0.3,1.7l7.9,48.4l0.4,2.3l-2.3,0.3l-7.6,0.9l-1.7,0.2l-0.2-1.7l-1.1-7.8l-5.3,0.6l-1.1,8.1l-0.2,1.8l-1.7,0.2
		l-7.1,0.9l-2.3,0.3l0.4-2.4l7.9-50.3l0.3-1.7l1.7-0.2L106,85L107.7,84.8 M99.4,118.8l2.3-0.3l-1.2-8.2L99.4,118.8 M111,80.3
		l-3.8,0.5l-1.7,0.2l-10.4,1.3l-1.7,0.2l-3,0.4l-0.5,3l-0.3,1.7l-7.9,50.3l-0.4,2.4l-0.8,5.2l5.3-0.6l2.3-0.3l7.1-0.9l1.7-0.2
		l3.1-0.4l0.4-3l0.1-0.9l0.5,3.8l3.9-0.5l1.7-0.2l7.6-0.9l2.3-0.3l4.1-0.5l-0.7-4.1l-0.4-2.3l-7.9-48.4l-0.3-1.7L111,80.3L111,80.3z
		"/>
	<path class="st2" d="M119.9,81.3l15.4-1.9c0.9-0.1,1.8-0.2,2.7-0.2c3.3-0.2,6.6,1,9,3.2c2.6,2.6,4,6.4,4,11.5v25
		c0,5-1.3,9.1-3.8,12.2s-6.4,5.1-11.3,5.7l-15.9,2L119.9,81.3z"/>
	<path d="M138,81.2c2.8-0.1,5.5,0.8,7.6,2.7c2.2,2.2,3.4,5.6,3.4,10.1v25c0,4.5-1.1,8.2-3.4,10.9s-5.6,4.4-10,5l-11.7,1.4l-2,0.2V83
		l2-0.2l11.7-1.4C136.3,81.2,137.2,81.2,138,81.2 M133.5,123.9l1.9-0.2c0.5,0,1.1-0.2,1.4-0.6c0.4-0.7,0.6-1.6,0.5-2.4V95
		c0-1.6-0.4-2.1-0.5-2.2c-0.3-0.2-0.6-0.4-1-0.3h-0.4l-1.9,0.2L133.5,123.9 M137.9,77.2c-1,0-1.9,0.1-2.9,0.2l-11.7,1.4l-2,0.2
		l-3.5,0.4v61.5l4.5-0.6l2-0.2l11.7-1.4c5.4-0.7,9.6-2.8,12.6-6.4s4.3-8,4.3-13.4v-25c0-5.6-1.5-10-4.6-12.9
		C145.5,78.3,141.8,77,137.9,77.2L137.9,77.2z"/>
	<polygon class="st2" points="154.3,77 183.2,73.5 183.2,88.6 170,90.2 170,95.2 180.4,93.9 180.4,109 170,110.3 170,117.4 
		183.2,115.8 183.2,130.9 154.3,134.5 	"/>
	<path d="M181.2,75.8v11.1l-2,0.2L168,88.5v9l8.5-1.1l2-0.2v11.1l-2,0.2l-8.5,1.1v11.1l11.2-1.4l2-0.2v11.1l-2,0.2l-20.8,2.6l-2,0.2
		V78.8l2-0.2l20.8-2.6L181.2,75.8 M185.2,71.2l-4.5,0.6l-2,0.2l-20.9,2.6l-2,0.2l-3.5,0.4v61.5l4.5-0.6l2-0.2l20.8-2.6l2-0.2
		l3.5-0.4v-19.2l-4.5,0.6l-2,0.2l-6.7,0.8v-3.1l5-0.6l2-0.2l3.5-0.4V91.7l-4.5,0.6l-2,0.2l-4,0.5V92l7.7-1l2-0.2l3.5-0.4L185.2,71.2
		L185.2,71.2z"/>
</g>
</svg>
