<?xml version="1.0" encoding="utf-8"?>
<!-- Generator: Adobe Illustrator 23.0.3, SVG Export Plug-In . SVG Version: 6.00 Build 0)  -->
<svg version="1.1" id="Layer_1" xmlns="http://www.w3.org/2000/svg" xmlns:xlink="http://www.w3.org/1999/xlink" x="0px" y="0px"
	 viewBox="0 0 282.3 112.7" style="enable-background:new 0 0 282.3 112.7;" xml:space="preserve">
<style type="text/css">
	.st0{fill:url(#SVGID_1_);}
	.st1{fill:#FFFFFF;}
</style>
<title>actors</title>
<linearGradient id="SVGID_1_" gradientUnits="userSpaceOnUse" x1="6.9357" y1="-2.9515" x2="280.3865" y2="-2.9515" gradientTransform="matrix(0.9925 -0.1219 0 -1.0075 -2.4336 71.7051)">
	<stop  offset="0.1" style="stop-color:#DA3228"/>
	<stop  offset="1" style="stop-color:#8F3029"/>
</linearGradient>
<path class="st0" d="M271,5.4l-4,0.5l-24.8,3L241.7,9l-3.4,0.4l-0.5,0.1l-14.6,1.8l-3,0.4l-3.5,0.4l-14.6,1.8l-0.5,0.1l-3.4,0.4
	l-0.5,0.1l-11.6,1.4l-0.5,0.1l-3.5,0.4l-0.5,0.1L154,19.9l-4,0.5l-5,0.6v5v4v3.3c-1-2.2-2.3-4.2-4-5.8c-3.9-3.6-9.4-4.9-16.4-4.1
	L111.3,25H111l-3.7,0.5H107l-11.2,1.4l-4,0.5l-11.6,1.4l-4,0.5l-5,0.6v0.6c-2.5-0.6-5.3-0.7-8.3-0.3c-2.2,0.3-4.2,0.8-6.2,1.5
	L54.1,32l-5.5,0.7l-11.7,1.4L36,34.2l-3.7,0.5l-3,0.4l-12.4,1.5l-5.5,0.7l-6.9,0.8l2.2,6.4l1.7,5.1L18,77.7v21.2v4v5l5-0.6l4-0.5
	l11.6-1.4l4-0.5l5-0.6v-4.8c4,3.1,9.2,4.4,15.4,3.6c6.1-0.8,11.4-3.3,15.4-7.4c3.9,3.1,9.2,4.4,15.3,3.7c3.1-0.4,6.1-1.2,8.7-2.6
	v0.8l5-0.6l4-0.5l11.6-1.4l4-0.5l0.8-0.1l12.2-1.5l6.1-0.8l7-0.9l0.6-0.1l4.3-0.5l4-0.5l11.6-1.4l4-0.5l5-0.6l3.5-0.4l11.6-1.4
	l0.5-0.1l3.4-0.4l0.5-0.1l10.6-1.3l4-0.5l7.8-1l3.4-0.4l9.8-1.2l0.5-0.1l3.4-0.4l0.5-0.1l24.8-3l4-0.5l5-0.6v-5v-4V56.1v-4v-5
	l-2.7,0.3v-2.1v-11l2.7-0.3v-5v-4V13.9v-4v-5L271,5.4z M150.5,84.6l-2.5-5.4l-1.1-2.3c0-0.4,0-0.9,0-1.8v-8.7
	c0-4.1-0.6-7.6-1.7-10.4c0.7-1.9,1.2-3.9,1.4-6.1l3.4-0.4l3-0.4v33.2v4v3.6L150.5,84.6z"/>
<g>
	<g>
		<polygon class="st1" points="35.9,43.2 32.1,56.8 28.3,44.1 16,45.6 26,75.1 26,97.8 37.6,96.4 37.6,73.6 47.6,41.7 		"/>
		<path d="M47.6,41.7l-10,31.9v22.7L26,97.7V75L16,45.5L28.4,44l3.8,12.7L36,43L47.6,41.7 M53.1,37l-5.5,0.7l-11.7,1.4l-3,0.4
			l-0.8,2.9l-0.8-2.7l-3,0.4l-12.4,1.5l-5.5,0.7l1.7,5.1l9.8,28.9v22.1v4l4-0.5l11.6-1.4l4-0.5v-4V73.9l9.8-31.3L53.1,37L53.1,37z"
			/>
	</g>
	<g>
		<path class="st1" d="M61.9,39.3c-4.3,0.5-7.7,2.3-10.1,5.1c-2.3,2.8-3.5,6.5-3.5,11v26c0,4.5,1.2,7.9,3.5,10.1
			c2.4,2.3,5.8,3.2,10.1,2.6S69.6,91.8,72,89c2.3-2.8,3.5-6.5,3.5-11V52c0-4.5-1.2-7.9-3.5-10.1C69.6,39.6,66.2,38.7,61.9,39.3z
			 M59.9,53.4c0-2.9,1.1-3,2-3.1s2-0.2,2,2.6v27c0,2.9-1.1,3-2,3.1s-2,0.2-2-2.6V53.4z"/>
		<path d="M61.9,39.3c4.3-0.5,7.7,0.4,10.1,2.6c2.3,2.3,3.5,5.7,3.5,10.1v26c0,4.5-1.2,8.2-3.5,11c-2.4,2.9-5.8,4.6-10.1,5.1
			s-7.7-0.4-10.1-2.6c-2.3-2.3-3.5-5.7-3.5-10.1v-26c0-4.5,1.2-8.2,3.5-11C54.2,41.5,57.6,39.8,61.9,39.3 M61.9,83
			c0.9-0.1,2-0.2,2-3.1V53c0-2.9-1.1-2.7-2-2.6c-0.9,0.1-2,0.2-2,3.1v26.9C59.9,83.2,61,83.1,61.9,83 M61.9,35.2
			c-5.4,0.7-9.8,2.9-13,6.8c-3,3.7-4.6,8.3-4.6,13.9v26c0,5.5,1.5,9.8,4.6,12.7c3.2,3,7.5,4.2,13,3.6c5.5-0.7,9.8-2.9,13-6.8
			c3-3.7,4.6-8.3,4.6-13.9v-26c0-5.5-1.5-9.8-4.6-12.7C71.7,35.8,67.3,34.6,61.9,35.2L61.9,35.2z"/>
	</g>
	<g>
		<path class="st1" d="M94.6,76.2c0,1.6-0.3,2.2-0.5,2.4s-0.5,0.5-1.4,0.6c-1,0.1-1.3-0.2-1.4-0.3c-0.1-0.1-0.5-0.7-0.5-2.3V36.4
			l-11.6,1.4v39.7c0,4.5,1.2,7.9,3.4,10.1c2.3,2.3,5.7,3.2,9.9,2.6c4.3-0.5,7.6-2.2,9.9-5.1c2.3-2.8,3.4-6.5,3.4-11V34.4l-11.3,1.4
			v40.4H94.6z"/>
		<path d="M105.9,34.6v39.7c0,4.5-1.2,8.2-3.4,11c-2.3,2.8-5.7,4.6-9.9,5.1c-4.3,0.5-7.6-0.4-9.9-2.6c-2.3-2.2-3.4-5.6-3.4-10.1
			V37.9l11.6-1.4v40.2c0,1.6,0.3,2.1,0.5,2.3c0.1,0.1,0.4,0.4,1.4,0.3c0.9-0.1,1.2-0.4,1.4-0.6c0.1-0.2,0.5-0.8,0.5-2.4V36.1
			L105.9,34.6 M109.9,30.1l-4,0.5L94.7,32l-4,0.5l-11.6,1.4l-4,0.5v4v39.7c0,5.5,1.5,9.8,4.5,12.8c3.1,3,7.4,4.2,12.9,3.6
			c5.4-0.7,9.7-2.9,12.9-6.7c3-3.6,4.5-8.3,4.5-13.9V34.2L109.9,30.1L109.9,30.1z"/>
	</g>
	<g>
		<path class="st1" d="M136.9,79.3c-0.1-0.8-0.1-1.8-0.1-3.2v-8.7c0-3.2-0.4-5.7-1.3-7.6c-0.5-1.1-1.2-1.9-2-2.6
			c2.2-2.4,3.3-5.7,3.3-10.1v-3c0-4.4-1.1-7.6-3.3-9.6s-5.6-2.7-10-2.2l-13.3,1.6v53.4l11.6-1.4v-21l0.7-0.1c1.1-0.1,1.9,0,2.2,0.3
			c0.1,0.2,0.6,0.9,0.6,3.4v9c0,2,0,3.3,0.2,4.1c0.1,0.8,0.3,1.7,0.7,2.6l0.5,1.3l12.2-1.5l-1.2-2.7C137.2,80.6,137,80,136.9,79.3z
			 M121.7,43.7l1.5-0.2c0.7-0.1,1.2,0,1.4,0.3c0.2,0.2,0.5,0.8,0.5,2.6v3.8c0,1.8-0.4,2.5-0.6,2.7c-0.4,0.4-1,0.7-2,0.8l-0.8,0.1
			L121.7,43.7L121.7,43.7z"/>
		<path d="M123.4,32.4c4.5-0.5,7.8,0.2,10,2.2s3.3,5.2,3.3,9.6v3c0,4.3-1.1,7.7-3.3,10.1c0.9,0.7,1.5,1.5,2,2.6
			c0.9,1.9,1.3,4.4,1.3,7.6v8.7c0,1.3,0,2.4,0.1,3.2c0.1,0.7,0.2,1.3,0.5,1.9l1.2,2.7l-12.2,1.5l-0.5-1.3c-0.3-0.9-0.5-1.8-0.7-2.6
			c-0.1-0.8-0.2-2.1-0.2-4.1v-9c0-2.5-0.5-3.2-0.6-3.4c-0.3-0.3-1.1-0.5-2.2-0.3l-0.7,0.1v21.2l-11.6,1.4V34.1L123.4,32.4
			 M121.7,53.8l0.8-0.1c1-0.1,1.6-0.4,2-0.8c0.2-0.2,0.6-0.9,0.6-2.7v-3.8c0-1.8-0.4-2.4-0.5-2.6c-0.2-0.3-0.7-0.4-1.4-0.3l-1.5,0.2
			L121.7,53.8 M123.4,28.4L110.1,30l-4,0.5v4v53.4v4l4-0.5l11.6-1.4l4-0.5l0.8-0.1l12.2-1.5l6.1-0.8l-2.5-5.4l-1.2-2.7
			c-0.1-0.3-0.2-0.5-0.2-0.7c0-0.4-0.1-1.3-0.1-2.8v-8.7c0-3.8-0.5-6.8-1.7-9.2c-0.2-0.4-0.4-0.8-0.6-1.2c1.5-2.8,2.2-6.1,2.2-9.9
			v-3c0-5.5-1.5-9.6-4.4-12.3C133.3,28.7,129,27.7,123.4,28.4L123.4,28.4z"/>
	</g>
	<g>
		<polygon class="st1" points="152.8,39.9 160.8,38.9 160.8,81.2 172.4,79.8 172.4,37.5 180.4,36.5 180.4,25.4 152.8,28.8 		"/>
		<path d="M180.4,25.4v11.1l-8,1v42.3l-11.6,1.4V38.9l-8,1V28.8L180.4,25.4 M184.3,20.9l-4,0.5l-27.6,3.4l-4,0.5v4v11.1v4l4-0.5
			l4-0.5v38.3v4l4-0.5l11.6-1.4l4-0.5v-4V41l4-0.5l4-0.5v-4V24.9V20.9L184.3,20.9z"/>
	</g>
	<g>
		<polygon class="st1" points="184.8,78.3 196.5,76.8 196.5,23.4 184.8,24.9 		"/>
		<path d="M196.5,23.4v53.4l-11.6,1.4V24.9L196.5,23.4 M200.4,18.9l-4,0.5l-11.6,1.4l-4,0.5v4v53.4v4l4-0.5l11.6-1.4l4-0.5v-4V22.9
			V18.9L200.4,18.9z"/>
	</g>
	<g>
		<polygon class="st1" points="218.8,44 215.6,21.1 201,22.9 201,76.3 211.6,75 211.6,61.5 213.6,74.7 223.4,73.5 225.4,59.8 
			225.4,73.3 236.6,71.9 236.6,18.5 222,20.3 		"/>
		<path d="M236.6,18.5v53.4l-11.2,1.4V59.8l-2,13.7l-9.8,1.2l-2-13.2V75L201,76.3V22.9l14.6-1.8l3.2,22.9l3.2-23.7L236.6,18.5
			 M240.6,14l-4,0.5L222,16.3l-3,0.4l-3.5,0.4l-14.6,1.8l-4,0.5v4v53.4v4l4-0.5l10.6-1.3l4-0.5l7.8-1l3.4-0.4l9.8-1.2l4-0.5v-4V18
			v-4H240.6z"/>
	</g>
	<g>
		<polygon class="st1" points="265.9,26 265.9,14.9 241.1,18 241.1,71.4 265.9,68.3 265.9,57.2 252.7,58.9 252.7,47.7 263.2,46.4 
			263.2,35.4 252.7,36.6 252.7,27.6 		"/>
		<path d="M265.9,14.9V26l-13.2,1.6v9l10.5-1.3v11.1l-10.5,1.3v11.2l13.2-1.6v11.1l-24.8,3V18L265.9,14.9 M269.9,10.4l-4,0.5
			l-24.8,3l-4,0.5v4v53.4v4l4-0.5l24.8-3l4-0.5v-4V56.7v-4l-4,0.5l-9.2,1.1v-3.1l6.5-0.8l4-0.5v-4v-11v-4l-4,0.5l-6.5,0.8v-1
			l9.2-1.1l4-0.5v-4V14.5V10.4L269.9,10.4z"/>
	</g>
</g>
</svg>
