<?xml version="1.0" standalone="no"?>
<!DOCTYPE svg PUBLIC "-//W3C//DTD SVG 1.1//EN" "http://www.w3.org/Graphics/SVG/1.1/DTD/svg11.dtd" >
<svg xmlns="http://www.w3.org/2000/svg">
<metadata></metadata>
<defs>
<font id="placard_mtcondensed_bold" horiz-adv-x="917" >
<font-face units-per-em="2048" ascent="1638" descent="-410" />
<missing-glyph horiz-adv-x="681" />
<glyph unicode="&#xfb01;" d="M43 967v219h55v135q0 144 54 200t192 56q33 0 141 -6v-191q-61 -1 -79.5 -18.5t-18.5 -71.5v-104h98v-219h-71v-967h-316v967h-55zM541 1448q0 61 47 94t135 33q78 0 125 -36t47 -97q0 -58 -49.5 -92.5t-132.5 -34.5t-127.5 35t-44.5 98zM559 0v1229h315v-1229h-315z" />
<glyph unicode="&#xfb02;" d="M43 967v219h55v135q0 144 54 200t192 56q11 0 29 -1t51.5 -3t60.5 -4v-191q-61 -1 -79.5 -18t-18.5 -70v-104h98v-221l-71 2v-967h-316v967h-55zM557 0v1556h315v-1556h-315z" />
<glyph horiz-adv-x="0" />
<glyph horiz-adv-x="682" />
<glyph unicode=" "  horiz-adv-x="681" />
<glyph unicode="&#x09;" horiz-adv-x="681" />
<glyph unicode="&#xa0;" horiz-adv-x="681" />
<glyph unicode="!" horiz-adv-x="512" d="M92 158q0 74 50.5 125t123.5 51q72 0 124 -51.5t52 -124.5q0 -72 -52 -123t-124 -51q-73 0 -123.5 51t-50.5 123zM104 1311q0 129 43 197.5t123 68.5q83 0 125.5 -68t42.5 -198q0 -97 -30 -291q-32 -211 -115 -584h-55q-67 322 -103 543q-31 228 -31 332z" />
<glyph unicode="&#x22;" horiz-adv-x="970" d="M106 1219v247h308v-247l-47 -275h-207zM559 1219v247h305v-247l-45 -275h-207z" />
<glyph unicode="#" horiz-adv-x="1368" d="M78 336v188h209l63 303h-272v191h309l84 383h188l-84 -383h355l82 383h190l-82 -383h168v-191h-205l-63 -303h268v-188h-303l-84 -377h-188l82 377h-359l-78 -377h-190l80 377h-170zM477 524h354l64 303h-356z" />
<glyph unicode="$" d="M47 432v57h279v-51q0 -72 22 -109.5t74 -56.5v361q-130 107 -174 149t-101 111q-45 56 -70.5 126.5t-25.5 139.5q0 108 52.5 191.5t150.5 130.5q36 18 70 26.5t98 16.5v67h96v-67q106 -15 169 -43t114 -82q90 -104 90 -266v-70h-281v39q0 119 -92 160v-310 q119 -102 169 -151t101 -115q101 -132 101 -293q0 -115 -49.5 -201.5t-143.5 -136.5q-64 -31 -178 -49v-135h-96v137q-98 9 -164 36t-117 79q-54 52 -74 119.5t-20 189.5zM324 1167q0 -69 98 -145v242q-43 -8 -70.5 -35t-27.5 -62zM518 270q47 10 72.5 42.5t25.5 80.5 q0 76 -98 158v-281z" />
<glyph unicode="%" horiz-adv-x="1323" d="M61 -305l1010 1866h199l-1004 -1866h-205zM74 1057v223q0 157 67 233q33 36 75 50t118 14q65 0 103 -12t67 -43q76 -76 76 -215v-201q0 -123 -24.5 -192.5t-80.5 -106.5q-68 -43 -156 -43q-120 0 -182.5 75t-62.5 218zM266 1036q0 -96 62 -96q25 0 42 24.5t17 59.5v293 q0 42 -16 66t-43 24q-31 0 -46 -26.5t-16 -86.5v-258zM772 -25v220q0 148 65.5 223.5t192.5 75.5q110 0 176 -74.5t66 -198.5v-235q0 -155 -61.5 -230t-188.5 -75q-131 0 -190.5 69.5t-59.5 224.5zM965 -66q0 -81 59 -81q55 0 55 110v264q0 90 -57 90q-54 0 -57 -90v-293z " />
<glyph unicode="&#x26;" horiz-adv-x="1110" d="M53 451q0 176 99 311q28 39 55 66t80 71q-80 188 -80 305q0 164 100 268.5t258 104.5q155 0 252.5 -96t97.5 -250q0 -125 -84 -246q-56 -81 -159 -174l92 -217q32 67 45.5 117.5t24.5 138.5h247q-9 -111 -24.5 -187t-46.5 -163q-23 -61 -43.5 -99t-63.5 -102l129 -299 h-362l-19 45q-67 -37 -108 -49t-105 -12q-172 0 -278.5 128.5t-106.5 338.5zM352 446q0 -66 43.5 -118t100.5 -52q21 0 51 15l-133 313q-62 -74 -62 -158zM496 1272q0 -50 65 -180q98 92 98 163q0 43 -23.5 71t-60.5 28q-32 0 -55.5 -24t-23.5 -58z" />
<glyph unicode="'" horiz-adv-x="487" d="M90 1219v247h307v-247l-47 -275h-207z" />
<glyph unicode="(" horiz-adv-x="704" d="M86 621q0 292 147 565q51 91 105.5 168t171.5 219h158q-89 -166 -129.5 -264.5t-77.5 -239.5q-58 -216 -58 -424q0 -325 99 -602q48 -131 162 -360h-158q-108 133 -161.5 209t-106.5 171q-152 277 -152 558z" />
<glyph unicode=")" horiz-adv-x="704" d="M55 -317q67 136 99.5 208.5t62.5 155.5q100 284 100 582q0 313 -94 581q-45 129 -162 365h158q117 -147 173 -229t108 -181q135 -258 135 -534q0 -297 -143 -555q-58 -99 -110.5 -173t-168.5 -220h-158z" />
<glyph unicode="*" horiz-adv-x="1044" d="M125 1241q0 47 30 80t74 33q47 0 105 -36.5t155 -123.5q7 -6 15.5 -14.5t15.5 -14.5l-31 76q-63 148 -63 215q0 54 29 85.5t80 31.5q52 0 81 -32t29 -89q0 -42 -20 -103.5t-74 -183.5q121 109 181.5 149t109.5 40q44 0 74 -33t30 -80q0 -117 -194 -117q-58 0 -119 6 l-78 7q106 -60 156.5 -95.5t81.5 -70.5q38 -44 38 -88t-33 -75.5t-79 -31.5q-35 0 -65.5 24.5t-49.5 67.5q-34 80 -53 172q-1 4 -16 78l-15 -65q-34 -151 -73 -214t-99 -63q-47 0 -78.5 33t-31.5 82q0 56 69 113q12 11 20.5 17.5t20.5 15t18 13t23.5 15.5t28 17t39.5 23.5 t49 29.5l-62 -5q-62 -6 -118 -6q-106 0 -153.5 27.5t-47.5 89.5z" />
<glyph unicode="+" horiz-adv-x="1366" d="M125 569v215h450v449h213v-449h453v-215h-453v-448h-213v448h-450z" />
<glyph unicode="," horiz-adv-x="512" d="M90 166q0 75 47.5 121.5t124.5 46.5q82 0 132 -61.5t50 -161.5q0 -90 -52 -175t-140 -135q-44 -28 -139 -57l-23 39q53 37 77.5 87.5t27.5 129.5q-57 35 -81 73.5t-24 92.5z" />
<glyph unicode="-" horiz-adv-x="704" d="M63 477v277h590v-277h-590z" />
<glyph unicode="." horiz-adv-x="512" d="M90 158q0 73 51 124.5t123 51.5q74 0 125 -51t51 -125q0 -72 -51.5 -123t-124.5 -51q-72 0 -123 51t-51 123z" />
<glyph unicode="/" horiz-adv-x="704" d="M59 -342l408 1921h184l-409 -1921h-183z" />
<glyph unicode="0" d="M72 387v721q0 162 37 248q54 132 188 184q81 35 172 35q187 0 299 -115q57 -58 80.5 -140t23.5 -218v-674q0 -124 -25 -202.5t-83 -135.5q-106 -106 -287 -106q-191 0 -298 106.5t-107 296.5zM391 362q0 -46 22 -72t62 -26q35 0 56.5 29t21.5 78v819q0 46 -22.5 75 t-57.5 29q-38 0 -60 -29t-22 -81v-822z" />
<glyph unicode="1" d="M178 1174v290l465 111v-1575h-315v1210z" />
<glyph unicode="2" d="M68 0l372 799q67 142 90 216.5t23 149.5q0 127 -78 127q-82 0 -82 -121v-122h-315v133q0 181 108 288t291 107q177 0 285 -110.5t108 -292.5q0 -164 -120 -424l-209 -447h309v-303h-782z" />
<glyph unicode="3" d="M66 332v231h319v-194q0 -46 21 -74.5t55 -28.5q39 0 61.5 27.5t22.5 75.5v206q0 62 -38.5 91.5t-119.5 29.5h-39v260h35q95 0 128.5 33.5t33.5 128.5q0 104 -16.5 139t-63.5 35q-34 0 -57 -25.5t-23 -64.5v-147h-319v121q0 189 109.5 295t307.5 106q173 0 277 -98.5 t104 -264.5v-114q0 -117 -44 -178.5t-148 -92.5q104 -22 148 -86t44 -196v-174q0 -175 -110.5 -283t-288.5 -108q-177 0 -288 97.5t-111 252.5z" />
<glyph unicode="4" d="M37 289v278l430 1008h326v-1026h96v-260h-96v-289h-320v289h-436zM240 549h233v541z" />
<glyph unicode="5" d="M66 338v235h319v-217q0 -37 23 -62.5t57 -25.5q37 0 60.5 28.5t23.5 74.5v354q0 39 -24.5 65.5t-59.5 26.5q-65 0 -80 -82h-305l8 819h746v-276h-465v-238q48 42 91.5 59t104.5 17q128 0 213.5 -96.5t85.5 -241.5v-395q0 -185 -107.5 -292t-293.5 -107 q-166 0 -281.5 102.5t-115.5 251.5z" />
<glyph unicode="6" d="M74 432v627q0 182 40 288t132 166q98 64 221 64q180 0 288.5 -102t108.5 -269v-41h-311v25q-2 48 -23.5 77t-56.5 29q-39 0 -61.5 -30t-22.5 -82v-213q46 43 87.5 60.5t96.5 17.5q132 0 211.5 -92.5t79.5 -247.5v-316q0 -198 -110 -305q-51 -47 -128 -75.5t-151 -28.5 q-91 0 -170.5 30t-134.5 86q-53 53 -74.5 128t-21.5 204zM389 362q0 -43 21.5 -68.5t56.5 -25.5t58.5 27t23.5 67v300q0 47 -20.5 74.5t-55.5 27.5q-39 0 -61.5 -34t-22.5 -93v-275z" />
<glyph unicode="7" d="M61 1266v288h826v-182l-449 -1372h-315l414 1266h-476z" />
<glyph unicode="8" d="M66 440q0 136 20.5 212.5t69.5 123.5q34 34 110 66q-74 26 -110 55t-58 78q-30 71 -30 186q0 203 101 308.5t294 105.5q192 0 296.5 -103.5t104.5 -295.5q0 -101 -20 -164.5t-64 -106.5q-37 -32 -108 -63q73 -35 107.5 -68t56.5 -86q32 -74 32 -231q0 -147 -21 -224.5 t-77 -136.5q-52 -53 -126.5 -82.5t-154.5 -29.5q-215 0 -319 104q-58 57 -81 135.5t-23 216.5zM389 346q0 -40 22.5 -64t59.5 -24q34 0 55 25t21 63v258q0 41 -22 64.5t-60 23.5q-37 0 -55 -21t-21 -67v-258zM389 1055q0 -82 80 -82q74 0 74 92v154q0 35 -21 57t-55 22 q-37 0 -56 -20.5t-22 -65.5v-157z" />
<glyph unicode="9" d="M74 369v24h313v-24q0 -105 82 -105q36 0 57 27.5t21 73.5v225q-55 -47 -89 -61.5t-87 -14.5q-138 0 -217.5 96.5t-79.5 266.5v307q0 180 107 286.5t288 106.5q182 0 291 -109q63 -62 85.5 -138t22.5 -232v-549q0 -195 -26.5 -294t-96.5 -167q-110 -104 -284 -104 q-177 0 -282 105t-105 280zM389 903q0 -104 74 -104q40 0 65 32.5t25 83.5v273q0 51 -21 79.5t-59 28.5q-81 0 -84 -108v-285z" />
<glyph unicode=":" horiz-adv-x="512" d="M88 158q0 74 50.5 125t123.5 51q72 0 124 -51.5t52 -124.5q0 -72 -52 -123t-124 -51q-73 0 -123.5 51t-50.5 123zM92 762q0 73 51 124.5t123 51.5t124 -51.5t52 -124.5q0 -72 -52 -123t-124 -51t-123 51t-51 123z" />
<glyph unicode=";" horiz-adv-x="512" d="M92 -215q53 35 77.5 86t27.5 131q-103 57 -103 154q0 80 46 131t118 51q86 -2 138.5 -63t52.5 -162q0 -91 -52.5 -176t-140.5 -136q-54 -32 -141 -55zM98 762q0 73 52 124.5t124 51.5t123.5 -51.5t51.5 -124.5q0 -72 -51.5 -123t-123.5 -51t-124 51t-52 123z" />
<glyph unicode="&#x3c;" horiz-adv-x="1366" d="M127 580v192l1112 465v-231l-819 -330l819 -328v-233z" />
<glyph unicode="=" horiz-adv-x="1366" d="M127 332v215h1112v-215h-1112zM127 809v215h1112v-215h-1112z" />
<glyph unicode="&#x3e;" horiz-adv-x="1366" d="M127 115v233l819 328l-819 330v231l1112 -463v-194z" />
<glyph unicode="?" horiz-adv-x="704" d="M53 1245v279q106 53 242 53q166 0 267.5 -91.5t101.5 -240.5q0 -93 -34.5 -178t-127.5 -219q-98 -142 -128.5 -210t-56.5 -202h-59q-43 130 -43 240q0 130 78 317q49 119 49 172q0 57 -40 94t-101 37q-38 0 -67.5 -10t-80.5 -41zM113 158q0 72 51.5 124t124.5 52 q72 0 123 -52t51 -124q0 -73 -51 -123.5t-123 -50.5q-74 0 -125 50.5t-51 123.5z" />
<glyph unicode="@" horiz-adv-x="1996" d="M57 481q0 256 109.5 480t300.5 356q120 83 281 128.5t333 45.5q251 0 445 -96.5t300.5 -271.5t106.5 -402q0 -145 -53 -278t-141.5 -230t-210.5 -155t-254 -58q-82 0 -125.5 27t-58.5 88q-118 -115 -271 -115q-173 0 -279 118t-106 310q0 145 60 287.5t163 242.5 q131 125 318 125q177 0 264 -135l25 111h262l-150 -717q-14 -66 -14 -90q0 -47 39 -47q34 0 85.5 31t96.5 77q170 179 170 418q0 261 -185.5 419.5t-490.5 158.5q-209 0 -373.5 -69.5t-273.5 -203.5q-87 -104 -138.5 -257.5t-51.5 -309.5q0 -332 226 -523.5t619 -191.5 q477 0 689 264h213q-107 -215 -334 -330.5t-545 -115.5h-6q-490 0 -767.5 242t-277.5 667zM692 416q0 -106 48.5 -170t129.5 -64q63 0 118 35t95 98q43 69 72 170.5t29 184.5q0 107 -51 170t-136 63q-126 0 -211.5 -133t-93.5 -340v-14z" />
<glyph unicode="A" horiz-adv-x="1003" d="M43 0l311 1554h334l299 -1554h-352l-19 205h-202l-17 -205h-354zM436 432h160l-76 860z" />
<glyph unicode="B" horiz-adv-x="1003" d="M78 0v1554h495q197 0 293 -96q47 -46 66.5 -112t19.5 -181q0 -108 -16.5 -170t-56.5 -100q-17 -17 -39.5 -28.5t-75.5 -32.5q72 -23 107 -49t57 -70q30 -73 30 -211q0 -156 -5.5 -220.5t-24.5 -111.5q-21 -50 -62 -88q-42 -38 -105 -61t-130 -23h-553zM426 295h61 q65 0 93 44t28 148q0 112 -28 155.5t-97 43.5h-57v-391zM432 977h62q112 0 112 145q0 76 -27 112t-85 36h-62v-293z" />
<glyph unicode="C" horiz-adv-x="1003" d="M72 487v566q0 249 122 385.5t345 136.5q190 0 309 -131t119 -340v-88h-355v162q0 42 -22 67t-60 25q-57 0 -78.5 -34t-21.5 -126v-702q0 -59 23.5 -92t64.5 -33q47 0 68.5 38.5t21.5 124.5v132h355v-109q0 -228 -119.5 -357.5t-327.5 -129.5q-215 0 -329.5 130 t-114.5 375z" />
<glyph unicode="D" horiz-adv-x="1003" d="M68 2v1552h538q165 0 260 -101t95 -279v-717q0 -455 -400 -455h-493zM426 317h55q70 0 95.5 48.5t25.5 183.5v555q0 68 -28 104.5t-80 36.5h-68v-928z" />
<glyph unicode="E" horiz-adv-x="811" d="M76 0v1554h704v-309h-346v-287h330v-309h-330v-334h350v-315h-708z" />
<glyph unicode="F" horiz-adv-x="704" d="M68 0v1554h616v-309h-258v-287h238v-309h-238v-649h-358z" />
<glyph unicode="G" horiz-adv-x="1003" d="M70 463v610q0 233 125 367.5t342 134.5q198 0 312 -128t114 -351v-78h-357v149q0 103 -88 103q-43 0 -66.5 -28t-23.5 -79v-753q0 -64 22 -93.5t70 -29.5q38 0 61 29.5t23 80.5v178h-98v310h457v-416q0 -228 -119.5 -357.5t-329.5 -129.5q-204 0 -324 129.5t-120 351.5z " />
<glyph unicode="H" horiz-adv-x="1003" d="M68 0v1554h358v-563h180v563h359v-1554h-359v670h-180v-670h-358z" />
<glyph unicode="I" horiz-adv-x="512" d="M92 0v1554h354v-1554h-354z" />
<glyph unicode="J" horiz-adv-x="512" d="M43 18q35 1 48 16.5t13 55.5v1464h359v-1583q0 -204 -164 -272q-49 -20 -103.5 -27.5t-152.5 -9.5v356z" />
<glyph unicode="K" horiz-adv-x="1003" d="M70 0v1554h358v-729l186 729h344l-231 -706l260 -848h-358l-201 815v-815h-358z" />
<glyph unicode="L" horiz-adv-x="704" d="M68 0v1554h358v-1239h258v-315h-616z" />
<glyph unicode="M" horiz-adv-x="1216" d="M43 0l158 1554h239l181 -649l182 649h237l148 -1554h-342l-19 909l-180 -731h-61l-180 727l-19 -905h-344z" />
<glyph unicode="N" horiz-adv-x="1003" d="M68 0v1554h247l349 -882l-31 882h330v-1554h-240l-358 905l32 -905h-329z" />
<glyph unicode="O" horiz-adv-x="1003" d="M68 530v422q0 201 31.5 318.5t105.5 191.5q115 115 315 115q216 0 329.5 -135t113.5 -393v-465q0 -190 -35.5 -307t-114.5 -191q-112 -106 -295 -106q-228 0 -339 135.5t-111 414.5zM426 408q0 -66 21 -94.5t69 -28.5q40 0 64 34.5t24 94.5v731q0 127 -84 127 q-49 0 -71.5 -36t-22.5 -110v-718z" />
<glyph unicode="P" horiz-adv-x="1003" d="M78 0v1554h487q191 0 296.5 -106t105.5 -299v-258q0 -148 -25 -235t-84 -146q-94 -88 -240 -88h-190v-422h-350zM436 731h68q52 0 80 34t28 97v275q0 45 -28.5 76.5t-69.5 31.5h-78v-514z" />
<glyph unicode="Q" horiz-adv-x="1003" d="M80 524v451q0 311 108.5 455.5t341.5 144.5q223 0 332 -136.5t109 -416.5v-389q0 -259 -43 -381q-23 -68 -55.5 -110.5t-108.5 -104.5q39 -35 68 -49.5t61 -14.5q27 0 70 25l32 -25l-186 -278q-99 17 -157 45t-111 84q-28 31 -48 63.5t-47 92.5q-96 19 -152 47.5 t-101 83.5q-113 130 -113 413zM438 426q0 -86 17.5 -115.5t68.5 -29.5q41 0 64.5 35t23.5 96v733q0 125 -82 125q-49 0 -70.5 -35t-21.5 -113v-696z" />
<glyph unicode="R" horiz-adv-x="1003" d="M70 0v1554h524q192 0 279.5 -99t87.5 -320q0 -195 -99 -281q-21 -19 -41.5 -30t-64.5 -27q108 -32 156.5 -98t48.5 -181v-518h-359v496q0 85 -30.5 121t-102.5 36h-41v-653h-358zM428 942h59q62 0 90.5 37.5t28.5 120.5q0 90 -30 127t-101 37h-47v-322z" />
<glyph unicode="S" d="M61 383v94h330v-112q0 -37 17.5 -57.5t48.5 -20.5q37 0 54 29.5t17 93.5q0 81 -23.5 123t-107.5 110q-178 145 -250.5 261t-72.5 259q0 194 107 304t296 110q177 0 285 -101.5t108 -265.5v-108h-319v86q0 39 -17 61.5t-47 22.5q-34 0 -48.5 -22t-14.5 -72q0 -59 29 -103 t118 -119q69 -57 144 -129q56 -57 81 -93t46 -87q37 -85 37 -182q0 -142 -28 -228.5t-93 -146.5q-111 -108 -301 -108q-185 0 -290.5 107t-105.5 294z" />
<glyph unicode="T" horiz-adv-x="811" d="M51 1239v315h731v-315h-188v-1239h-358v1239h-185z" />
<glyph unicode="U" horiz-adv-x="1003" d="M72 408v1146h358v-1146q0 -65 19 -93t63 -28q92 0 92 127v1140h359v-1105q0 -225 -107 -338q-60 -61 -149 -95t-189 -34q-214 0 -330 111t-116 315z" />
<glyph unicode="V" horiz-adv-x="1003" d="M37 1554h371l108 -1185l109 1185h370l-313 -1572h-334z" />
<glyph unicode="W" horiz-adv-x="1409" d="M37 1554h354l76 -987l133 987h231l138 -981l71 981h355l-260 -1572h-306l-110 946l-111 -946h-307z" />
<glyph unicode="X" d="M43 1554h336l92 -548l90 548h334l-188 -755l190 -799h-342l-80 520l-84 -520h-344l191 803z" />
<glyph unicode="Y" d="M55 1554h338l82 -692l84 692h336l-246 -874v-680h-352v680z" />
<glyph unicode="Z" horiz-adv-x="704" d="M37 0l229 1245h-215v309h627l-229 -1239h227v-315h-639z" />
<glyph unicode="[" horiz-adv-x="704" d="M70 -293v1845h612v-215h-293v-1415h289v-215h-608z" />
<glyph unicode="\" horiz-adv-x="724" d="M33 1524h198l439 -1880h-197z" />
<glyph unicode="]" horiz-adv-x="704" d="M35 -78h293v1409h-289v221h612v-1845h-616v215z" />
<glyph unicode="^" horiz-adv-x="1196" d="M115 692l377 799h223l366 -799h-284l-199 490l-197 -490h-286z" />
<glyph unicode="_" horiz-adv-x="1024" d="M-18 -180h1062v-223h-1062v223z" />
<glyph unicode="`" horiz-adv-x="681" d="M14 1559q0 10 17 10h336l153 -228h-127l-368 203q-11 6 -11 15z" />
<glyph unicode="a" d="M76 358v494q0 179 69.5 286t184.5 107q143 0 219 -231v215h315v-1229h-315v231q-37 -119 -97 -182t-135 -63q-110 0 -175.5 101.5t-65.5 270.5zM391 432q0 -56 23 -89.5t61 -33.5q19 0 34.5 10.5t39.5 42.5v521q-37 43 -80 43q-36 0 -57 -29t-21 -80v-385z" />
<glyph unicode="b" d="M82 0v1554h319v-536q47 120 103.5 172.5t136.5 52.5q101 0 164 -98.5t63 -259.5v-504q0 -178 -67 -285.5t-176 -107.5q-77 0 -129.5 52t-98.5 173v-213h-315zM397 338q26 -24 39 -30.5t35 -6.5q38 0 60 29t22 80v399q0 53 -20.5 83t-57.5 30q-43 0 -78 -54v-530z" />
<glyph unicode="c" d="M86 403v375q0 225 102 348t289 123q170 0 273.5 -97t103.5 -257v-162h-297v174q0 40 -21 66t-53 26q-82 0 -82 -122v-545q0 -103 80 -103q32 0 52 24t20 64v179h301v-138q0 -178 -101 -276t-282 -98q-175 0 -280 114.5t-105 304.5z" />
<glyph unicode="d" d="M76 360v480q0 185 63 293t172 108q78 0 138.5 -59.5t97.5 -173.5v546h315v-1554h-315v203q-45 -117 -98 -165t-132 -48q-109 0 -175 101t-66 269zM391 418q0 -54 21 -83.5t61 -29.5q35 0 74 29v543q-40 43 -78 43q-36 0 -57 -32t-21 -87v-383z" />
<glyph unicode="e" d="M74 473v252q0 266 98.5 395t300.5 129q184 0 287.5 -115t103.5 -321v-254h-475v-217q0 -125 80 -125q41 0 60.5 29t19.5 90v96h315v-51q0 -184 -106.5 -291.5t-288.5 -107.5q-76 0 -148.5 26.5t-119.5 71.5q-127 121 -127 393zM391 768h158v143q0 105 -72 105 q-86 0 -86 -121v-127z" />
<glyph unicode="f" horiz-adv-x="512" d="M45 967v219h57v135q0 145 53.5 200.5t192.5 55.5q10 0 28 -1t50.5 -3t60.5 -4v-191q-60 -2 -79 -19t-19 -69v-104h98v-221l-69 2v-967h-316v967h-57z" />
<glyph unicode="g" d="M74 408v446q0 179 64.5 281t178.5 102q76 0 125.5 -46.5t102.5 -172.5v211h315v-1118q0 -125 -24.5 -205t-81.5 -137q-118 -115 -348 -115q-81 0 -142.5 7t-159.5 30v258q129 -31 218 -31q134 0 175.5 44t41.5 185q-56 -55 -103 -76.5t-106 -21.5q-256 0 -256 359z M389 438q0 -54 19.5 -83t56.5 -29q32 0 80 39v501q-39 39 -76 39q-38 0 -59 -32.5t-21 -92.5v-342z" />
<glyph unicode="h" d="M86 0v1554h315v-491q50 103 102 145.5t128 42.5q109 0 174 -85.5t65 -229.5v-936h-315v877q0 41 -18.5 66.5t-49.5 25.5q-28 0 -45.5 -16.5t-40.5 -65.5v-887h-315z" />
<glyph unicode="i" horiz-adv-x="512" d="M94 1448q0 61 47.5 94t134.5 33q80 0 126.5 -36t46.5 -97q0 -59 -49 -93t-134 -34q-83 0 -127.5 35t-44.5 98zM113 0v1229h315v-1229h-315z" />
<glyph unicode="j" horiz-adv-x="512" d="M39 -96q60 9 79 37t19 108v1180h316v-1182q0 -141 -44.5 -226t-144.5 -132q-61 -30 -170 -43zM119 1448q0 60 48 93.5t134 33.5q80 0 126 -36t46 -97q0 -59 -48.5 -93t-133.5 -34q-82 0 -127 34.5t-45 98.5z" />
<glyph unicode="k" d="M84 0v1554h315v-919l181 594h309l-203 -574l213 -655h-326l-174 635v-635h-315z" />
<glyph unicode="l" horiz-adv-x="512" d="M109 0v1554h315v-1554h-315z" />
<glyph unicode="m" horiz-adv-x="1409" d="M88 0v1229h315v-209q53 126 102 172.5t132 46.5q183 0 227 -223q51 127 104 175t142 48q106 0 171 -83.5t65 -221.5v-934h-316v872q0 40 -19 64.5t-50 24.5q-26 0 -43.5 -19.5t-40.5 -73.5v-868h-316v862q0 47 -20 73t-54 26q-28 0 -45 -19.5t-39 -73.5v-868h-315z" />
<glyph unicode="n" d="M80 0v1229h315v-178q47 106 98 147t134 41q114 0 175.5 -87t61.5 -247v-905h-315v858q0 49 -17.5 77t-48.5 28q-29 0 -47.5 -19t-40.5 -72v-872h-315z" />
<glyph unicode="o" d="M82 422v369q0 219 102 338.5t289 119.5q183 0 287 -115t104 -317v-391q0 -195 -104.5 -318.5t-267.5 -123.5q-194 0 -302 115.5t-108 322.5zM397 328q0 -95 76 -95t76 101v586q0 39 -21 61.5t-57 22.5q-33 0 -53.5 -25.5t-20.5 -65.5v-585z" />
<glyph unicode="p" d="M90 -324v1553h311v-203q50 114 101 162.5t121 48.5q112 0 178.5 -99t66.5 -266v-460q0 -193 -61.5 -303.5t-167.5 -110.5q-168 0 -238 233v-555h-311zM401 362q19 -26 34 -35.5t38 -9.5q80 0 80 142v372q0 44 -19 69.5t-53 25.5q-40 0 -80 -37v-527z" />
<glyph unicode="q" d="M84 365v448q0 201 64.5 312.5t181.5 111.5q75 0 129 -55t94 -172v219h309v-1553h-315v553q-74 -229 -232 -229q-104 0 -167.5 100.5t-63.5 264.5zM395 449q0 -63 21 -97.5t59 -34.5q29 0 51 19q21 18 21 39v520q-34 31 -66 31q-86 0 -86 -140v-337z" />
<glyph unicode="r" horiz-adv-x="598" d="M68 0v1229h280v-260l10 49q31 135 55 178t70 43q24 0 41 -7.5t45 -31.5v-348q-12 6 -20 12q-39 19 -64 19q-49 0 -75.5 -40.5t-26.5 -115.5v-727h-315z" />
<glyph unicode="s" horiz-adv-x="811" d="M59 852q0 204 89 300.5t278 96.5q157 0 251.5 -85t94.5 -226v-98h-289v92q0 46 -16 67t-53 21q-34 0 -48 -23t-14 -79v-15v-12v-31q0 -52 24.5 -72.5t117.5 -50.5q79 -25 117.5 -44.5t82.5 -57.5q47 -51 64.5 -104.5t17.5 -147.5q0 -401 -360 -401q-163 0 -256.5 85.5 t-93.5 237.5v103h286v-105q0 -46 14 -65t48 -19q38 0 52.5 24t14.5 85q0 63 -9.5 90.5t-38 45.5t-101.5 42q-78 25 -110.5 41.5t-78.5 54.5q-47 51 -65.5 106t-18.5 144z" />
<glyph unicode="t" horiz-adv-x="512" d="M47 967v221h66v280h315v-280h66v-221h-66v-967h-315v967h-66z" />
<glyph unicode="u" d="M80 338v891h315v-887q0 -60 18.5 -87.5t59.5 -27.5q78 0 78 115v887h315v-891q0 -167 -105 -261.5t-288 -94.5q-185 0 -289 94.5t-104 261.5z" />
<glyph unicode="v" horiz-adv-x="811" d="M39 1229h301l74 -948l73 948h301l-256 -1247h-237z" />
<glyph unicode="w" horiz-adv-x="1323" d="M51 1229h311l107 -862l96 862h221l91 -862l112 862h311l-305 -1247h-231l-90 698l-94 -698h-234z" />
<glyph unicode="x" d="M49 0l234 623l-234 606h318l104 -424l109 424h317l-233 -602l231 -627h-324l-100 436l-96 -436h-326z" />
<glyph unicode="y" horiz-adv-x="811" d="M47 1231h295l80 -944l76 944h295l-263 -1251q-26 -129 -46 -183t-54 -86q-28 -25 -73 -40t-89 -15q-48 0 -170 29v280q74 -28 117 -28q36 0 57 16.5t31 52.5z" />
<glyph unicode="z" horiz-adv-x="598" d="M41 0l184 987h-172v242h531l-185 -981h181v-248h-539z" />
<glyph unicode="{" horiz-adv-x="796" d="M63 508v240q81 3 122.5 27t66.5 81q19 46 25 94.5t6 155.5v35q0 117 7 176t27 104q27 67 91 109q57 34 114.5 45.5t171.5 11.5h54v-237h-13q-64 0 -98.5 -5t-57 -22t-29 -43.5t-7.5 -75.5q0 -299 -35 -399q-22 -60 -54.5 -98.5t-97.5 -79.5q58 -33 94 -76t56 -102 q37 -113 37 -398q0 -89 35.5 -116t154.5 -27h15v-240h-54q-116 0 -175 12.5t-111 47.5q-65 41 -93 108q-20 46 -26 102.5t-6 174.5v34q0 159 -23.5 232t-83.5 104q-26 13 -46 17.5t-67 7.5z" />
<glyph unicode="|" horiz-adv-x="1251" d="M502 -186v1702h250v-1702h-250z" />
<glyph unicode="}" horiz-adv-x="796" d="M49 -92h14q119 0 155 27t36 116q0 297 37 398q22 62 56.5 103t92.5 75q-65 41 -97.5 80t-53.5 98q-35 107 -35 399q-1 64 -16 93.5t-54 41t-123 11.5h-12v237h53q115 0 174 -11.5t113 -45.5q67 -47 90 -109q20 -50 27.5 -107.5t7.5 -172.5v-35q0 -160 23 -232t84 -104 q26 -13 45 -17t67 -5v-240q-81 -4 -122 -29t-66 -82q-19 -46 -25 -94t-6 -153v-37q0 -113 -7 -172t-26 -105q-27 -69 -92 -108q-57 -35 -115.5 -47.5t-171.5 -12.5h-53v240z" />
<glyph unicode="~" horiz-adv-x="1343" d="M117 547v223q158 137 317 137q57 0 115 -17.5t156 -66.5q92 -44 139 -59.5t90 -15.5q127 0 293 147v-223q-171 -140 -303 -140q-64 0 -123 19t-183 80q-132 63 -198 63q-144 0 -303 -147z" />
<glyph unicode="&#xa1;" horiz-adv-x="512" d="M96 1096q0 72 51 124t123 52q73 0 124.5 -52t51.5 -124t-51.5 -123t-124.5 -51q-72 0 -123 51t-51 123zM100 -49q0 185 117 747l25 119h63l17 -90q120 -589 120 -776q0 -126 -46 -199.5t-124 -73.5q-85 0 -128.5 69.5t-43.5 203.5z" />
<glyph unicode="&#xa2;" d="M41 -299l149 401q-60 76 -81 151t-21 206v291q0 493 397 493q69 0 125 -18l103 262h108l-112 -303q47 -36 68.5 -59.5t39.5 -59.5q43 -76 43 -225v-107h-295v62l-162 -426v-45q0 -47 22 -73t62 -26q78 0 78 113v151h295v-116q0 -190 -96 -289.5t-281 -99.5q-57 0 -98 10 t-106 39l-125 -332h-113zM403 674l121 317q-33 10 -41 10q-37 0 -58.5 -28.5t-21.5 -77.5v-221z" />
<glyph unicode="&#xa3;" d="M53 -16v282q32 32 44 60.5t12 70.5v305h-52v265h52v239q0 164 107 271.5t271 107.5q172 0 274.5 -106.5t102.5 -286.5v-45h-295v45q0 50 -19.5 79t-53.5 29q-35 0 -55.5 -28.5t-20.5 -75.5v-229h211v-265h-211v-239q0 -102 -68 -178q34 6 56 6q1 0 55 -4q6 -1 13 -2 t11 -1.5t7 -0.5q88 0 88 110v60h303v-50q0 -218 -86.5 -318.5t-272.5 -100.5q-52 0 -153 16q-109 16 -168 16q-74 0 -152 -32z" />
<glyph unicode="&#xa4;" horiz-adv-x="1366" d="M158 295l133 131q-45 79 -59.5 128t-14.5 126q0 80 14.5 127t59.5 117l-133 135l139 143l135 -135q74 47 122 61.5t136 14.5q72 0 120.5 -15.5t121.5 -60.5l135 135l141 -143l-135 -135q46 -76 60 -125t14 -127q0 -80 -14.5 -128t-59.5 -118l135 -131l-141 -141l-135 131 q-76 -46 -124.5 -61t-127.5 -15q-82 0 -130 15t-118 61l-131 -131zM416 676q0 -110 78 -189t188 -79t188 79t78 189t-77.5 188t-186.5 78q-110 0 -189 -78t-79 -188z" />
<glyph unicode="&#xa5;" d="M55 340v166h242v176h-242v168h195l-195 706h340l80 -700l84 700h336l-201 -706h201v-168h-246v-176h246v-166h-246v-338h-352v338h-242z" />
<glyph unicode="&#xa6;" horiz-adv-x="1204" d="M494 -274v727h217v-727h-217zM494 694v731h217v-731h-217z" />
<glyph unicode="&#xa7;" horiz-adv-x="811" d="M59 739q0 126 18 187.5t70 113.5q-37 44 -52 91.5t-15 115.5q0 152 91.5 241t248.5 89q160 0 256 -95t96 -253v-66h-285v72q0 51 -12 71.5t-41 20.5q-61 0 -61 -94q0 -52 27 -88t112 -98q54 -38 82 -61t72 -66q70 -75 92 -141t22 -204q0 -170 -14.5 -227.5t-71.5 -114.5 q37 -55 50.5 -101.5t13.5 -115.5q0 -163 -93 -248t-270 -85q-106 0 -186 48t-117 134q-31 74 -31 233h289v-86q0 -80 56 -80q30 0 43.5 21.5t13.5 69.5q0 52 -23.5 87.5t-95.5 94.5q-50 40 -125 112q-56 59 -81 93.5t-44 78.5q-35 88 -35 250zM350 678q0 -56 30.5 -104.5 t111.5 -118.5v125q0 59 -10.5 92t-37.5 64t-94 85v-143z" />
<glyph unicode="&#xa8;" horiz-adv-x="681" d="M59 1454q0 52 38.5 86.5t97.5 34.5q54 0 90.5 -34.5t36.5 -86.5q0 -53 -35 -87t-92 -34q-60 0 -98 33.5t-38 87.5zM383 1454q0 51 38.5 86t92.5 35q59 0 95 -33t36 -88q0 -54 -36.5 -87.5t-94.5 -33.5q-57 0 -94 34t-37 87z" />
<glyph unicode="&#xa9;" horiz-adv-x="1511" d="M-10 729q0 156 60.5 298t163 244.5t244 163t296.5 60.5q209 0 385 -102.5t278.5 -278.5t102.5 -385q0 -155 -60.5 -296.5t-163 -244t-244.5 -163t-298 -60.5q-155 0 -296.5 60.5t-244 163t-163 244t-60.5 296.5zM139 729q0 -166 82.5 -307.5t224.5 -224t308 -82.5 q167 0 309 82t224.5 223.5t82.5 308.5q0 125 -49 239.5t-131.5 197t-196.5 131.5t-239 49t-238.5 -49t-196 -131.5t-131.5 -197t-49 -239.5zM379 727q0 197 104.5 312.5t284.5 115.5q125 0 206.5 -60t127.5 -184l-162 -39q-28 72 -71 106t-107 34q-98 0 -152.5 -74 t-54.5 -209q0 -134 52.5 -209.5t146.5 -75.5q137 0 186 172l162 -55q-38 -126 -124.5 -192t-211.5 -66q-178 0 -282.5 114.5t-104.5 309.5z" />
<glyph unicode="&#xaa;" horiz-adv-x="575" d="M55 1030v295q0 115 43 183.5t115 68.5q87 0 141 -141v133h193v-768h-193v141q-31 -77 -66.5 -112t-82.5 -35q-67 0 -108.5 64.5t-41.5 170.5zM252 1071q0 -33 15 -55.5t38 -22.5t49 35v324q-30 26 -53 26t-36 -20t-13 -55v-232z" />
<glyph unicode="&#xab;" d="M51 623l168 616h252l-164 -618l160 -609h-256zM469 625l162 614h256l-166 -612l162 -615h-256z" />
<glyph unicode="&#xac;" horiz-adv-x="1366" d="M125 819v215h1116v-702h-215v487h-901z" />
<glyph unicode="&#xad;" horiz-adv-x="704" d="M63 477v277h590v-277h-590z" />
<glyph unicode="&#xae;" horiz-adv-x="1511" d="M-10 729q0 156 60.5 298t163 244.5t244 163t296.5 60.5q209 0 385 -102.5t278.5 -278.5t102.5 -385q0 -155 -60.5 -296.5t-163 -244t-244.5 -163t-298 -60.5q-155 0 -296.5 60.5t-244 163t-163 244t-60.5 296.5zM139 729q0 -124 49 -238t131.5 -196t197 -131t239.5 -49 q167 0 309 82.5t224.5 224t82.5 307.5q0 125 -49 239.5t-131.5 197t-196.5 131.5t-239 49t-239.5 -49t-197 -131.5t-131.5 -197t-49 -239.5zM408 319v814h387q130 0 201 -60t71 -170q0 -91 -59 -152.5t-160 -74.5q52 -20 79.5 -51t92.5 -142l96 -164h-203l-69 134 q-61 120 -109.5 160t-130.5 40h-31v-334h-165zM573 782h134q101 1 143.5 27t42.5 86q0 111 -170 111h-150v-224z" />
<glyph unicode="&#xaf;" horiz-adv-x="681" d="M18 1343v216h648v-216h-648z" />
<glyph unicode="&#xb0;" horiz-adv-x="819" d="M90 1171q0 132 94 226t226 94t225.5 -94t93.5 -226t-93.5 -225.5t-225.5 -93.5q-132 2 -226 94.5t-94 224.5zM256 1171q0 -63 45.5 -107t108.5 -44t108 44t45 107q0 64 -45 109t-108 45t-108.5 -45.5t-45.5 -108.5z" />
<glyph unicode="&#xb1;" horiz-adv-x="1368" d="M125 -57v215h1116v-215h-1116zM125 750v215h450v448h216v-448h450v-215h-450v-451h-216v451h-450z" />
<glyph unicode="&#xb2;" horiz-adv-x="811" d="M170 795l264 460q27 49 27 113q0 41 -13 59.5t-42 18.5q-49 0 -52 -74v-53h-178q3 137 54.5 193.5t172.5 56.5q110 0 174 -53.5t64 -147.5q0 -81 -41 -156l-141 -247h190v-170h-479z" />
<glyph unicode="&#xb3;" horiz-adv-x="811" d="M174 1008v57h176v-64q0 -44 18 -68t50 -24q61 0 61 105q0 66 -20.5 93.5t-71.5 27.5h-31v120h21q54 0 78 23.5t24 75.5q0 90 -65 90q-60 0 -60 -72l-2 -53h-178v29q0 113 60.5 167t185.5 54q239 0 239 -215q0 -69 -24 -99t-103 -59q80 -19 105 -50t25 -114 q0 -129 -60 -188.5t-188 -59.5q-115 0 -177.5 59t-62.5 165z" />
<glyph unicode="&#xb4;" horiz-adv-x="681" d="M182 1341l154 228h336q16 0 16 -13q0 -7 -10 -14l-367 -201h-129z" />
<glyph unicode="&#xb6;" horiz-adv-x="1138" d="M2 1163q0 107 44 198t120 142q75 49 137 61.5t234 12.5h596v-260h-113v-1606h-238v1606h-143v-1606h-244v1045q-187 13 -290 120t-103 287z" />
<glyph unicode="&#xb7;" horiz-adv-x="512" d="M90 625q0 73 52 124.5t124 51.5q74 0 126 -51.5t52 -124.5t-52 -123.5t-126 -50.5q-73 0 -124.5 50.5t-51.5 123.5z" />
<glyph unicode="&#xb8;" horiz-adv-x="681" d="M135 -158q35 -12 60 -12q38 0 65 20t27 48q0 39 -51 67l59 53q266 -6 266 -149q0 -68 -60.5 -108t-162.5 -40q-81 0 -203 31v90z" />
<glyph unicode="&#xb9;" horiz-adv-x="811" d="M262 1368v152l262 59v-795h-184v596z" />
<glyph unicode="&#xba;" horiz-adv-x="575" d="M63 1071v213q0 142 62 217.5t180 75.5q114 0 178 -73.5t64 -203.5v-229q0 -126 -65 -204.5t-169 -78.5q-119 0 -184.5 74.5t-65.5 208.5zM256 995q0 -23 12.5 -37t32.5 -14q43 0 49 55v379q0 20 -13 32.5t-32 12.5q-23 0 -36 -15t-13 -40v-373z" />
<glyph unicode="&#xbb;" d="M55 12l164 609l-162 618h254l162 -616l-160 -611h-258zM471 12l162 613l-160 614h254l162 -612l-166 -615h-252z" />
<glyph unicode="&#xbc;" horiz-adv-x="1409" d="M72 -317l1073 1890h201l-1070 -1890h-204zM141 1335v170l293 68v-889h-176v680zM784 4l293 580h180v-584h72v-143h-78v-162h-176v162h-291v147zM905 0h172v340z" />
<glyph unicode="&#xbd;" horiz-adv-x="1409" d="M68 -317l1077 1890h203l-1080 -1890h-200zM139 1335v168l293 70v-893h-176v682zM854 285v37q0 126 61.5 193t178.5 67q106 0 169.5 -64t63.5 -170q0 -98 -65 -231l-123 -252h178v-170h-453l226 446q29 56 53 154q8 36 8 53q0 32 -15.5 52t-41.5 20q-64 0 -64 -96v-39 h-176z" />
<glyph unicode="&#xbe;" horiz-adv-x="1409" d="M72 -317l1073 1896h201l-1070 -1896h-204zM80 893v108h176v-79q0 -43 13.5 -62.5t43.5 -19.5q35 0 49.5 28t14.5 97q0 72 -16 93.5t-72 24.5v144h16q72 0 72 96q0 49 -15 71.5t-47 22.5q-59 0 -59 -69v-58h-176v45q0 109 69.5 176.5t184.5 67.5q219 0 219 -238 q0 -86 -24 -123t-97 -65q74 -19 98.5 -54.5t24.5 -123.5q0 -297 -231 -297q-118 0 -181 56t-63 159zM784 10l295 578h174v-586h74v-143h-74v-158h-176v158h-293v151zM903 2h174v342z" />
<glyph unicode="&#xbf;" horiz-adv-x="704" d="M61 6q0 91 35.5 176.5t128.5 218.5q97 142 128 209.5t59 200.5l51 2l8 -31q39 -133 39 -196q0 -138 -84 -342q-47 -110 -47 -156q0 -59 41.5 -94t109.5 -35q71 0 140 49v-278q-125 -52 -209 -52q-211 0 -311 103q-42 42 -65.5 101.5t-23.5 123.5zM262 1092q0 72 51 123 t123 51q73 0 124.5 -51t51.5 -123q0 -74 -51.5 -125.5t-124.5 -51.5q-72 0 -123 52t-51 125z" />
<glyph unicode="&#xc0;" horiz-adv-x="1003" d="M43 0l311 1554h334l299 -1554h-352l-19 205h-202l-17 -205h-354zM174 1874q0 10 16 10h336l154 -227h-127l-369 203q-10 5 -10 14zM436 432h160l-76 860z" />
<glyph unicode="&#xc1;" horiz-adv-x="1003" d="M43 0l311 1554h334l299 -1554h-352l-19 205h-202l-17 -205h-354zM342 1656l154 228h336q16 0 16 -13q0 -7 -10 -14l-367 -201h-129zM436 432h160l-76 860z" />
<glyph unicode="&#xc2;" horiz-adv-x="1003" d="M43 0l311 1554h334l299 -1554h-352l-19 205h-202l-17 -205h-354zM217 1657l129 227h332l127 -227h-121l-172 127l-176 -127h-119zM436 432h160l-76 860z" />
<glyph unicode="&#xc3;" horiz-adv-x="1003" d="M43 0l311 1554h334l299 -1554h-352l-19 205h-202l-17 -205h-354zM219 1626q6 116 56.5 181t134.5 65q50 0 141 -39q64 -25 80 -25q42 0 45 66h129q-4 -117 -53.5 -181.5t-133.5 -64.5q-49 0 -139 37q-60 25 -84 25q-46 0 -49 -64h-127zM436 432h160l-76 860z" />
<glyph unicode="&#xc4;" horiz-adv-x="1003" d="M43 0l311 1554h334l299 -1554h-352l-19 205h-202l-17 -205h-354zM219 1769q0 52 38.5 86.5t97.5 34.5q54 0 90.5 -34.5t36.5 -86.5q0 -53 -35 -87t-92 -34q-60 0 -98 33.5t-38 87.5zM436 432h160l-76 860zM543 1769q0 51 38.5 86t92.5 35q59 0 95 -33t36 -88 q0 -54 -36.5 -87.5t-94.5 -33.5q-57 0 -94 34t-37 87z" />
<glyph unicode="&#xc5;" horiz-adv-x="1003" d="M43 0l311 1554h334l299 -1554h-352l-19 205h-202l-17 -205h-354zM330 1777q0 69 51.5 114.5t130.5 45.5q82 0 135.5 -44.5t53.5 -111.5q0 -69 -53 -112t-138 -43q-80 0 -130 42t-50 109zM402 1781q0 -37 30 -58.5t82 -21.5q53 0 83 20.5t30 57.5q0 38 -30 60t-81 22 q-55 0 -84.5 -21t-29.5 -59zM436 432h160l-76 860z" />
<glyph unicode="&#xc6;" horiz-adv-x="1323" d="M45 0l326 1556h913v-309h-326v-289h310v-309h-316v-340h336v-309h-694v315h-152l-43 -315h-354zM479 578h121v792h-12z" />
<glyph unicode="&#xc7;" horiz-adv-x="1003" d="M72 487v566q0 249 122 385.5t345 136.5q190 0 309 -131t119 -340v-88h-355v162q0 42 -22 67t-60 25q-57 0 -78.5 -34t-21.5 -126v-702q0 -59 23.5 -92t64.5 -33q47 0 68.5 38.5t21.5 124.5v132h355v-109q0 -228 -119.5 -357.5t-327.5 -129.5q-215 0 -329.5 130 t-114.5 375zM295 -158q35 -12 60 -12q38 0 65 20t27 48q0 39 -51 67l59 53q266 -6 266 -149q0 -68 -60.5 -108t-162.5 -40q-81 0 -203 31v90z" />
<glyph unicode="&#xc8;" horiz-adv-x="811" d="M76 0v1554h704v-309h-346v-287h330v-309h-330v-334h350v-315h-708zM78 1874q0 10 16 10h336l154 -227h-127l-369 203q-10 5 -10 14z" />
<glyph unicode="&#xc9;" horiz-adv-x="811" d="M76 0v1554h704v-309h-346v-287h330v-309h-330v-334h350v-315h-708zM245 1656l154 228h336q16 0 16 -13q0 -7 -10 -14l-367 -201h-129z" />
<glyph unicode="&#xca;" horiz-adv-x="811" d="M76 0v1554h704v-309h-346v-287h330v-309h-330v-334h350v-315h-708zM121 1657l129 227h332l127 -227h-121l-172 127l-176 -127h-119z" />
<glyph unicode="&#xcb;" horiz-adv-x="811" d="M76 0v1554h704v-309h-346v-287h330v-309h-330v-334h350v-315h-708zM122 1769q0 52 38.5 86.5t97.5 34.5q54 0 90.5 -34.5t36.5 -86.5q0 -53 -35 -87t-92 -34q-60 0 -98 33.5t-38 87.5zM446 1769q0 51 38.5 86t92.5 35q59 0 95 -33t36 -88q0 -54 -36.5 -87.5t-94.5 -33.5 q-57 0 -94 34t-37 87z" />
<glyph unicode="&#xcc;" horiz-adv-x="512" d="M-70 1874q0 10 17 10h336l153 -227h-127l-368 203q-11 6 -11 14zM92 0v1554h354v-1554h-354z" />
<glyph unicode="&#xcd;" horiz-adv-x="512" d="M92 0v1554h354v-1554h-354zM98 1656l154 228h336q16 0 16 -13q0 -7 -10 -14l-367 -201h-129z" />
<glyph unicode="&#xce;" horiz-adv-x="512" d="M-27 1657l129 227h332l127 -227h-121l-172 127l-176 -127h-119zM92 0v1554h354v-1554h-354z" />
<glyph unicode="&#xcf;" horiz-adv-x="512" d="M-25 1769q0 52 38.5 86.5t97.5 34.5q54 0 90.5 -34.5t36.5 -86.5q0 -53 -35 -87t-92 -34q-60 0 -98 33.5t-38 87.5zM92 0v1554h354v-1554h-354zM299 1769q0 51 38.5 86t92.5 35q59 0 95 -33t36 -88q0 -54 -36.5 -87.5t-94.5 -33.5q-57 0 -94 34t-37 87z" />
<glyph unicode="&#xd0;" horiz-adv-x="1003" d="M12 707v167h56v682h534q165 0 262 -100.5t97 -271.5v-725q0 -455 -402 -455h-491v703h-56zM426 319h57q65 0 92 47.5t27 161.5v572q0 147 -108 147h-68v-373h80v-167h-80v-388z" />
<glyph unicode="&#xd1;" horiz-adv-x="1003" d="M68 0v1554h247l349 -882l-31 882h330v-1554h-240l-358 905l32 -905h-329zM219 1626q6 116 56 180.5t135 64.5q52 0 141 -38q64 -25 80 -25q42 0 45 66h129q-4 -117 -53.5 -181.5t-132.5 -64.5q-50 0 -140 37q-57 24 -83 24q-47 0 -50 -63h-127z" />
<glyph unicode="&#xd2;" horiz-adv-x="1003" d="M68 530v422q0 201 31.5 318.5t105.5 191.5q115 115 315 115q216 0 329.5 -135t113.5 -393v-465q0 -190 -35.5 -307t-114.5 -191q-112 -106 -295 -106q-228 0 -339 135.5t-111 414.5zM174 1874q0 10 16 10h336l154 -227h-127l-369 203q-10 5 -10 14zM426 408 q0 -66 21 -94.5t69 -28.5q40 0 64 34.5t24 94.5v731q0 127 -84 127q-49 0 -71.5 -36t-22.5 -110v-718z" />
<glyph unicode="&#xd3;" horiz-adv-x="1003" d="M68 530v422q0 201 31.5 318.5t105.5 191.5q115 115 315 115q216 0 329.5 -135t113.5 -393v-465q0 -190 -35.5 -307t-114.5 -191q-112 -106 -295 -106q-228 0 -339 135.5t-111 414.5zM342 1656l154 228h336q16 0 16 -13q0 -7 -10 -14l-367 -201h-129zM426 408 q0 -66 21 -94.5t69 -28.5q40 0 64 34.5t24 94.5v731q0 127 -84 127q-49 0 -71.5 -36t-22.5 -110v-718z" />
<glyph unicode="&#xd4;" horiz-adv-x="1003" d="M68 530v422q0 201 31.5 318.5t105.5 191.5q115 115 315 115q216 0 329.5 -135t113.5 -393v-465q0 -190 -35.5 -307t-114.5 -191q-112 -106 -295 -106q-228 0 -339 135.5t-111 414.5zM217 1657l129 227h332l127 -227h-121l-172 127l-176 -127h-119zM426 408 q0 -66 21 -94.5t69 -28.5q40 0 64 34.5t24 94.5v731q0 127 -84 127q-49 0 -71.5 -36t-22.5 -110v-718z" />
<glyph unicode="&#xd5;" horiz-adv-x="1003" d="M68 530v422q0 201 31.5 318.5t105.5 191.5q115 115 315 115q216 0 329.5 -135t113.5 -393v-465q0 -190 -35.5 -307t-114.5 -191q-112 -106 -295 -106q-228 0 -339 135.5t-111 414.5zM219 1626q6 116 56 180.5t135 64.5q52 0 141 -38q64 -25 80 -25q42 0 45 66h129 q-4 -117 -53.5 -181.5t-132.5 -64.5q-50 0 -140 37q-57 24 -83 24q-47 0 -50 -63h-127zM426 408q0 -66 21 -94.5t69 -28.5q40 0 64 34.5t24 94.5v731q0 127 -84 127q-49 0 -71.5 -36t-22.5 -110v-718z" />
<glyph unicode="&#xd6;" horiz-adv-x="1003" d="M68 530v422q0 201 31.5 318.5t105.5 191.5q115 115 315 115q216 0 329.5 -135t113.5 -393v-465q0 -190 -35.5 -307t-114.5 -191q-112 -106 -295 -106q-228 0 -339 135.5t-111 414.5zM219 1769q0 52 38.5 86.5t97.5 34.5q54 0 90.5 -34.5t36.5 -86.5q0 -53 -35 -87 t-92 -34q-60 0 -98 33.5t-38 87.5zM426 408q0 -66 21 -94.5t69 -28.5q40 0 64 34.5t24 94.5v731q0 127 -84 127q-49 0 -71.5 -36t-22.5 -110v-718zM543 1769q0 51 38.5 86t92.5 35q59 0 95 -33t36 -88q0 -54 -36.5 -87.5t-94.5 -33.5q-57 0 -94 34t-37 87z" />
<glyph unicode="&#xd7;" horiz-adv-x="1366" d="M158 1049l151 151l375 -375l375 375l151 -151l-372 -375l370 -371l-151 -151l-371 370l-373 -370l-151 151l370 371z" />
<glyph unicode="&#xd8;" horiz-adv-x="1044" d="M76 -18l92 184q-32 54 -49 115q-33 109 -33 303v477q0 178 65 305t181 174q80 35 211 35q90 0 150 -19t136 -71l45 90h123l-90 -182q78 -145 78 -371v-504q0 -266 -110.5 -402t-325.5 -136q-100 0 -167.5 21t-133.5 73l-47 -92h-125zM449 406q0 -121 90 -121 q38 0 63 26.5t25 69.5v444l-178 -350v-69zM449 725l178 356v76q0 54 -24.5 83.5t-67.5 29.5q-37 0 -61.5 -29.5t-24.5 -73.5v-442z" />
<glyph unicode="&#xd9;" horiz-adv-x="1003" d="M72 408v1146h358v-1146q0 -65 19 -93t63 -28q92 0 92 127v1140h359v-1105q0 -225 -107 -338q-60 -61 -149 -95t-189 -34q-214 0 -330 111t-116 315zM174 1874q0 10 16 10h336l154 -227h-127l-369 203q-10 5 -10 14z" />
<glyph unicode="&#xda;" horiz-adv-x="1003" d="M72 408v1146h358v-1146q0 -65 19 -93t63 -28q92 0 92 127v1140h359v-1105q0 -225 -107 -338q-60 -61 -149 -95t-189 -34q-214 0 -330 111t-116 315zM342 1656l154 228h336q16 0 16 -13q0 -7 -10 -14l-367 -201h-129z" />
<glyph unicode="&#xdb;" horiz-adv-x="1003" d="M72 408v1146h358v-1146q0 -65 19 -93t63 -28q92 0 92 127v1140h359v-1105q0 -225 -107 -338q-60 -61 -149 -95t-189 -34q-214 0 -330 111t-116 315zM217 1657l129 227h332l127 -227h-121l-172 127l-176 -127h-119z" />
<glyph unicode="&#xdc;" horiz-adv-x="1003" d="M72 408v1146h358v-1146q0 -65 19 -93t63 -28q92 0 92 127v1140h359v-1105q0 -225 -107 -338q-60 -61 -149 -95t-189 -34q-214 0 -330 111t-116 315zM219 1769q0 52 38.5 86.5t97.5 34.5q54 0 90.5 -34.5t36.5 -86.5q0 -53 -35 -87t-92 -34q-60 0 -98 33.5t-38 87.5z M543 1769q0 51 38.5 86t92.5 35q59 0 95 -33t36 -88q0 -54 -36.5 -87.5t-94.5 -33.5q-57 0 -94 34t-37 87z" />
<glyph unicode="&#xdd;" d="M55 1554h338l82 -692l84 692h336l-246 -874v-680h-352v680zM299 1656l154 228h336q16 0 16 -13q0 -7 -10 -14l-367 -201h-129z" />
<glyph unicode="&#xde;" horiz-adv-x="1003" d="M78 0v1554h350v-200h119q212 0 316 -107t104 -327v-261q0 -221 -91 -329.5t-276 -108.5h-172v-221h-350zM428 537h59q62 0 91.5 35t29.5 108v252q0 54 -29.5 86.5t-76.5 32.5h-74v-514z" />
<glyph unicode="&#xdf;" d="M80 0v1202q0 172 107 270.5t294 98.5q188 0 288.5 -95t100.5 -272v-49q0 -97 -36.5 -160t-120.5 -108q83 -37 120 -103.5t37 -175.5v-241q0 -183 -67.5 -279t-196.5 -96q-49 0 -80 10t-61 37v217q10 -2 22 -2q38 0 51 34.5t13 135.5v217q0 58 -20.5 86t-65.5 31v256 q47 3 66.5 27t19.5 81v109q0 42 -21.5 70t-54.5 28q-76 0 -76 -121v-1208h-319z" />
<glyph unicode="&#xe0;" d="M76 358v494q0 179 69.5 286t184.5 107q143 0 219 -231v215h315v-1229h-315v231q-37 -119 -97 -182t-135 -63q-110 0 -175.5 101.5t-65.5 270.5zM131 1559q0 10 16 10h336l154 -228h-127l-369 203q-10 5 -10 15zM391 432q0 -56 23 -89.5t61 -33.5q19 0 34.5 10.5 t39.5 42.5v521q-37 43 -80 43q-36 0 -57 -29t-21 -80v-385z" />
<glyph unicode="&#xe1;" d="M76 358v494q0 179 69.5 286t184.5 107q143 0 219 -231v215h315v-1229h-315v231q-37 -119 -97 -182t-135 -63q-110 0 -175.5 101.5t-65.5 270.5zM299 1341l154 228h336q16 0 16 -13q0 -7 -10 -14l-367 -201h-129zM391 432q0 -56 23 -89.5t61 -33.5q19 0 34.5 10.5 t39.5 42.5v521q-37 43 -80 43q-36 0 -57 -29t-21 -80v-385z" />
<glyph unicode="&#xe2;" d="M76 358v494q0 179 69.5 286t184.5 107q143 0 219 -231v215h315v-1229h-315v231q-37 -119 -97 -182t-135 -63q-110 0 -175.5 101.5t-65.5 270.5zM174 1341l129 228h332l127 -228h-121l-172 127l-176 -127h-119zM391 432q0 -56 23 -89.5t61 -33.5q19 0 34.5 10.5t39.5 42.5 v521q-37 43 -80 43q-36 0 -57 -29t-21 -80v-385z" />
<glyph unicode="&#xe3;" d="M76 358v494q0 179 69.5 286t184.5 107q143 0 219 -231v215h315v-1229h-315v231q-37 -119 -97 -182t-135 -63q-110 0 -175.5 101.5t-65.5 270.5zM176 1311q6 116 56 180.5t135 64.5q52 0 141 -38q64 -25 80 -25q42 0 45 66h129q-4 -117 -53.5 -181.5t-133.5 -64.5 q-49 0 -139 37q-57 24 -84 24q-46 0 -49 -63h-127zM391 432q0 -56 23 -89.5t61 -33.5q19 0 34.5 10.5t39.5 42.5v521q-37 43 -80 43q-36 0 -57 -29t-21 -80v-385z" />
<glyph unicode="&#xe4;" d="M76 358v494q0 179 69.5 286t184.5 107q143 0 219 -231v215h315v-1229h-315v231q-37 -119 -97 -182t-135 -63q-110 0 -175.5 101.5t-65.5 270.5zM176 1454q0 52 38.5 86.5t97.5 34.5q54 0 90.5 -34.5t36.5 -86.5q0 -53 -35 -87t-92 -34q-60 0 -98 33.5t-38 87.5zM391 432 q0 -56 23 -89.5t61 -33.5q19 0 34.5 10.5t39.5 42.5v521q-37 43 -80 43q-36 0 -57 -29t-21 -80v-385zM500 1454q0 51 38.5 86t92.5 35q59 0 95 -33t36 -88q0 -54 -36.5 -87.5t-94.5 -33.5q-57 0 -94 34t-37 87z" />
<glyph unicode="&#xe5;" d="M76 358v494q0 179 69.5 286t184.5 107q143 0 219 -231v215h315v-1229h-315v231q-37 -119 -97 -182t-135 -63q-110 0 -175.5 101.5t-65.5 270.5zM287 1462q0 69 51.5 114.5t130.5 45.5q82 0 135.5 -44.5t53.5 -111.5q0 -69 -53 -112t-138 -43q-80 0 -130 42t-50 109z M359 1466q0 -37 30 -58.5t82 -21.5q53 0 83 20.5t30 57.5q0 38 -30 60t-81 22q-55 0 -84.5 -21t-29.5 -59zM391 432q0 -56 23 -89.5t61 -33.5q19 0 34.5 10.5t39.5 42.5v521q-37 43 -80 43q-36 0 -57 -29t-21 -80v-385z" />
<glyph unicode="&#xe6;" horiz-adv-x="1323" d="M68 377v475q0 186 67 290.5t187 104.5q64 0 115.5 -39.5t115.5 -138.5v160h246v-150q41 98 81 134t109 36q120 0 203.5 -117t83.5 -284v-291h-447v-250q0 -46 15.5 -67t50.5 -21q28 0 44.5 20t16.5 52v141h320v-59q0 -178 -100 -284.5t-265 -106.5q-164 0 -266 102 q-32 35 -55 84q-103 -186 -260 -186q-126 0 -194 102.5t-68 292.5zM383 305q0 -45 14.5 -65.5t46.5 -20.5q29 0 70 41v711q-35 43 -63 43q-32 0 -50 -28.5t-18 -78.5v-602zM831 764h130v162q0 38 -17 61t-45 23q-35 0 -51.5 -24.5t-16.5 -76.5v-145z" />
<glyph unicode="&#xe7;" d="M86 403v375q0 225 102 348t289 123q170 0 273.5 -97t103.5 -257v-162h-297v174q0 40 -21 66t-53 26q-82 0 -82 -122v-545q0 -103 80 -103q32 0 52 24t20 64v179h301v-138q0 -178 -101 -276t-282 -98q-175 0 -280 114.5t-105 304.5zM252 -158q35 -12 60 -12q38 0 65 20 t27 48q0 39 -51 67l59 53q266 -6 266 -149q0 -68 -60 -108t-163 -40q-81 0 -203 31v90z" />
<glyph unicode="&#xe8;" d="M74 473v252q0 266 98.5 395t300.5 129q184 0 287.5 -115t103.5 -321v-254h-475v-217q0 -125 80 -125q41 0 60.5 29t19.5 90v96h315v-51q0 -184 -106.5 -291.5t-288.5 -107.5q-76 0 -148.5 26.5t-119.5 71.5q-127 121 -127 393zM131 1559q0 10 16 10h336l154 -228h-127 l-369 203q-10 5 -10 15zM391 768h158v143q0 105 -72 105q-86 0 -86 -121v-127z" />
<glyph unicode="&#xe9;" d="M74 473v252q0 266 98.5 395t300.5 129q184 0 287.5 -115t103.5 -321v-254h-475v-217q0 -125 80 -125q41 0 60.5 29t19.5 90v96h315v-51q0 -184 -106.5 -291.5t-288.5 -107.5q-76 0 -148.5 26.5t-119.5 71.5q-127 121 -127 393zM299 1341l154 228h336q16 0 16 -13 q0 -7 -10 -14l-367 -201h-129zM391 768h158v143q0 105 -72 105q-86 0 -86 -121v-127z" />
<glyph unicode="&#xea;" d="M74 473v252q0 266 98.5 395t300.5 129q184 0 287.5 -115t103.5 -321v-254h-475v-217q0 -125 80 -125q41 0 60.5 29t19.5 90v96h315v-51q0 -184 -106.5 -291.5t-288.5 -107.5q-76 0 -148.5 26.5t-119.5 71.5q-127 121 -127 393zM174 1341l129 228h332l127 -228h-121 l-172 127l-176 -127h-119zM391 768h158v143q0 105 -72 105q-86 0 -86 -121v-127z" />
<glyph unicode="&#xeb;" d="M74 473v252q0 266 98.5 395t300.5 129q184 0 287.5 -115t103.5 -321v-254h-475v-217q0 -125 80 -125q41 0 60.5 29t19.5 90v96h315v-51q0 -184 -106.5 -291.5t-288.5 -107.5q-76 0 -148.5 26.5t-119.5 71.5q-127 121 -127 393zM176 1454q0 52 38.5 86.5t97.5 34.5 q54 0 90.5 -34.5t36.5 -86.5q0 -53 -35 -87t-92 -34q-60 0 -98 33.5t-38 87.5zM391 768h158v143q0 105 -72 105q-86 0 -86 -121v-127zM500 1454q0 51 38.5 86t92.5 35q59 0 95 -33t36 -88q0 -54 -36.5 -87.5t-94.5 -33.5q-57 0 -94 34t-37 87z" />
<glyph unicode="&#xec;" horiz-adv-x="512" d="M-70 1559q0 10 17 10h336l153 -228h-127l-368 203q-11 6 -11 15zM113 0v1229h315v-1229h-315z" />
<glyph unicode="&#xed;" horiz-adv-x="512" d="M98 1341l154 228h336q16 0 16 -13q0 -7 -10 -14l-367 -201h-129zM113 0v1229h315v-1229h-315z" />
<glyph unicode="&#xee;" horiz-adv-x="512" d="M-27 1341l129 228h332l127 -228h-121l-172 127l-176 -127h-119zM113 0v1229h315v-1229h-315z" />
<glyph unicode="&#xef;" horiz-adv-x="512" d="M-25 1454q0 52 38.5 86.5t97.5 34.5q54 0 90.5 -34.5t36.5 -86.5q0 -53 -35 -87t-92 -34q-60 0 -98 33.5t-38 87.5zM113 0v1229h315v-1229h-315zM299 1454q0 51 38.5 86t92.5 35q59 0 95 -33t36 -88q0 -54 -36.5 -87.5t-94.5 -33.5q-57 0 -94 34t-37 87z" />
<glyph unicode="&#xf0;" d="M94 467v268q0 170 25 274t82 162q26 28 66.5 45t80.5 17q47 0 86.5 -21.5t89.5 -74.5q-15 79 -32.5 120.5t-57.5 94.5l-209 -64l-35 105l152 47q-31 33 -57 49l190 80q30 -13 86 -51l8 -7l187 56l32 -105l-124 -39q63 -70 92.5 -115t58.5 -114q59 -148 59 -324v-401 q0 -139 -28 -228t-92 -153q-102 -102 -260 -102q-179 0 -285 106q-64 64 -89.5 147t-25.5 228zM410 309q0 -30 20.5 -51.5t48.5 -21.5q76 0 76 79v613q0 28 -24 49.5t-56 21.5q-26 0 -45.5 -19.5t-19.5 -47.5v-623z" />
<glyph unicode="&#xf1;" d="M80 0v1229h315v-178q47 106 98 147t134 41q114 0 175.5 -87t61.5 -247v-905h-315v858q0 49 -17.5 77t-48.5 28q-29 0 -47.5 -19t-40.5 -72v-872h-315zM176 1311q6 116 56 180.5t135 64.5q52 0 141 -38q64 -25 80 -25q42 0 45 66h129q-4 -117 -53.5 -181.5t-132.5 -64.5 q-50 0 -140 37q-57 24 -83 24q-47 0 -50 -63h-127z" />
<glyph unicode="&#xf2;" d="M82 422v369q0 219 102 338.5t289 119.5q183 0 287 -115t104 -317v-391q0 -195 -104.5 -318.5t-267.5 -123.5q-194 0 -302 115.5t-108 322.5zM131 1559q0 10 16 10h336l154 -228h-127l-369 203q-10 5 -10 15zM397 328q0 -95 76 -95t76 101v586q0 39 -21 61.5t-57 22.5 q-33 0 -53.5 -25.5t-20.5 -65.5v-585z" />
<glyph unicode="&#xf3;" d="M82 422v369q0 219 102 338.5t289 119.5q183 0 287 -115t104 -317v-391q0 -195 -104.5 -318.5t-267.5 -123.5q-194 0 -302 115.5t-108 322.5zM299 1341l154 228h336q16 0 16 -13q0 -7 -10 -14l-367 -201h-129zM397 328q0 -95 76 -95t76 101v586q0 39 -21 61.5t-57 22.5 q-33 0 -53.5 -25.5t-20.5 -65.5v-585z" />
<glyph unicode="&#xf4;" d="M82 422v369q0 219 102 338.5t289 119.5q183 0 287 -115t104 -317v-391q0 -195 -104.5 -318.5t-267.5 -123.5q-194 0 -302 115.5t-108 322.5zM174 1341l129 228h332l127 -228h-121l-172 127l-176 -127h-119zM397 328q0 -95 76 -95t76 101v586q0 39 -21 61.5t-57 22.5 q-33 0 -53.5 -25.5t-20.5 -65.5v-585z" />
<glyph unicode="&#xf5;" d="M82 422v369q0 219 102 338.5t289 119.5q183 0 287 -115t104 -317v-391q0 -195 -104.5 -318.5t-267.5 -123.5q-194 0 -302 115.5t-108 322.5zM176 1311q6 116 56 180.5t135 64.5q52 0 141 -38q64 -25 80 -25q42 0 45 66h129q-4 -117 -53.5 -181.5t-132.5 -64.5 q-50 0 -140 37q-57 24 -83 24q-47 0 -50 -63h-127zM397 328q0 -95 76 -95t76 101v586q0 39 -21 61.5t-57 22.5q-33 0 -53.5 -25.5t-20.5 -65.5v-585z" />
<glyph unicode="&#xf6;" d="M82 422v369q0 219 102 338.5t289 119.5q183 0 287 -115t104 -317v-391q0 -195 -104.5 -318.5t-267.5 -123.5q-194 0 -302 115.5t-108 322.5zM176 1454q0 52 38.5 86.5t97.5 34.5q54 0 90.5 -34.5t36.5 -86.5q0 -53 -35 -87t-92 -34q-60 0 -98 33.5t-38 87.5zM397 328 q0 -95 76 -95t76 101v586q0 39 -21 61.5t-57 22.5q-33 0 -53.5 -25.5t-20.5 -65.5v-585zM500 1454q0 51 38.5 86t92.5 35q59 0 95 -33t36 -88q0 -54 -36.5 -87.5t-94.5 -33.5q-57 0 -94 34t-37 87z" />
<glyph unicode="&#xf7;" horiz-adv-x="1368" d="M127 573v205h1114v-205h-1114zM551 1098q0 52 37.5 88.5t91.5 36.5t91.5 -37t37.5 -90q0 -54 -37.5 -91.5t-91.5 -37.5q-53 0 -91 38.5t-38 92.5zM553 262q0 54 37.5 92.5t91.5 38.5t91.5 -37.5t37.5 -91.5t-37.5 -91.5t-91.5 -37.5t-91.5 37t-37.5 90z" />
<glyph unicode="&#xf8;" d="M55 -18l97 170q-72 102 -72 278v379q0 203 104 321.5t285 118.5q71 0 124.5 -16t123.5 -59l43 75h123l-88 -159q71 -134 71 -287v-406q0 -183 -104.5 -299t-267.5 -116q-80 0 -139 18t-126 63l-47 -81h-127zM395 336q0 -47 21.5 -76t56.5 -29t56.5 24t21.5 64v326 l-156 -276v-33zM395 596l156 276v43q0 35 -23 59.5t-55 24.5q-33 0 -55.5 -23t-22.5 -58v-322z" />
<glyph unicode="&#xf9;" d="M80 338v891h315v-887q0 -60 18.5 -87.5t59.5 -27.5q78 0 78 115v887h315v-891q0 -167 -105 -261.5t-288 -94.5q-185 0 -289 94.5t-104 261.5zM131 1559q0 10 16 10h336l154 -228h-127l-369 203q-10 5 -10 15z" />
<glyph unicode="&#xfa;" d="M80 338v891h315v-887q0 -60 18.5 -87.5t59.5 -27.5q78 0 78 115v887h315v-891q0 -167 -105 -261.5t-288 -94.5q-185 0 -289 94.5t-104 261.5zM299 1341l154 228h336q16 0 16 -13q0 -7 -10 -14l-367 -201h-129z" />
<glyph unicode="&#xfb;" d="M80 338v891h315v-887q0 -60 18.5 -87.5t59.5 -27.5q78 0 78 115v887h315v-891q0 -167 -105 -261.5t-288 -94.5q-185 0 -289 94.5t-104 261.5zM174 1341l129 228h332l127 -228h-121l-172 127l-176 -127h-119z" />
<glyph unicode="&#xfc;" d="M80 338v891h315v-887q0 -60 18.5 -87.5t59.5 -27.5q78 0 78 115v887h315v-891q0 -167 -105 -261.5t-288 -94.5q-185 0 -289 94.5t-104 261.5zM176 1454q0 52 38.5 86.5t97.5 34.5q54 0 90.5 -34.5t36.5 -86.5q0 -53 -35 -87t-92 -34q-60 0 -98 33.5t-38 87.5zM500 1454 q0 51 38.5 86t92.5 35q59 0 95 -33t36 -88q0 -54 -36.5 -87.5t-94.5 -33.5q-57 0 -94 34t-37 87z" />
<glyph unicode="&#xfd;" horiz-adv-x="811" d="M47 1231h295l80 -944l76 944h295l-263 -1251q-26 -129 -46 -183t-54 -86q-28 -25 -73 -40t-89 -15q-48 0 -170 29v280q74 -28 117 -28q36 0 57 16.5t31 52.5zM245 1341l154 228h336q16 0 16 -13q0 -7 -10 -14l-367 -201h-129z" />
<glyph unicode="&#xfe;" d="M90 -322v1876h311v-528q43 110 97 161.5t127 51.5q109 0 177 -100t68 -262v-465q0 -193 -62.5 -302.5t-172.5 -109.5q-67 0 -127 51q-53 43 -64 76l-43 115v-564h-311zM401 367q19 -27 34 -37.5t38 -10.5q38 0 60 33.5t22 93.5v392q0 40 -21 65t-53 25q-40 0 -80 -37 v-524z" />
<glyph unicode="&#xff;" horiz-adv-x="811" d="M47 1231h295l80 -944l76 944h295l-263 -1251q-26 -129 -46 -183t-54 -86q-28 -25 -73 -40t-89 -15q-48 0 -170 29v280q74 -28 117 -28q36 0 57 16.5t31 52.5zM123 1454q0 52 38 86.5t97 34.5q54 0 90.5 -34.5t36.5 -86.5q0 -53 -35 -87t-92 -34q-60 0 -97.5 33.5 t-37.5 87.5zM446 1454q0 51 39 86t93 35q59 0 95 -33t36 -88q0 -54 -36.5 -87.5t-94.5 -33.5q-57 0 -94.5 34.5t-37.5 86.5z" />
<glyph unicode="&#x152;" horiz-adv-x="1323" d="M63 573v435q0 548 396 548h823v-309h-330v-291h316v-309h-320v-336h338v-309h-805q-219 0 -318.5 135.5t-99.5 435.5zM426 430q0 -57 22 -90t60 -33t62 34t24 91v717q0 49 -23 76.5t-63 27.5q-38 0 -60 -30t-22 -84v-709z" />
<glyph unicode="&#x153;" horiz-adv-x="1323" d="M68 408v374q0 229 99 349t290 120q64 0 107 -14t108 -53q57 37 103 51t110 14q192 0 291.5 -118t99.5 -345v-229h-449v-225q0 -109 66 -109q68 0 68 103v104h315v-51q0 -184 -100 -290.5t-271 -106.5q-78 0 -127 14.5t-108 54.5q-97 -69 -219 -69q-175 0 -279 115.5 t-104 310.5zM383 328q0 -61 13 -83t50 -22q66 0 66 115v584q0 88 -63 88q-35 0 -50.5 -27t-15.5 -88v-567zM831 764h130v160q0 40 -16.5 62t-47.5 22q-66 0 -66 -84v-160z" />
<glyph unicode="&#x178;" d="M55 1554h338l82 -692l84 692h336l-246 -874v-680h-352v680zM176 1769q0 52 38 86.5t97 34.5q54 0 90.5 -34.5t36.5 -86.5q0 -53 -35 -86.5t-92 -33.5q-60 0 -97.5 33t-37.5 87zM500 1769q0 51 38.5 86t92.5 35q59 0 95 -33t36 -88q0 -54 -36 -87t-95 -33q-57 0 -94 34 t-37 86z" />
<glyph unicode="&#x2c6;" horiz-adv-x="681" d="M57 1341l129 228h332l127 -228h-121l-172 127l-176 -127h-119z" />
<glyph unicode="&#x2dc;" horiz-adv-x="681" d="M59 1311q6 116 56 180.5t135 64.5q52 0 141 -38q64 -25 80 -25q42 0 45 66h129q-4 -117 -53.5 -181.5t-132.5 -64.5q-50 0 -140 37q-57 24 -83 24q-47 0 -50 -63h-127z" />
<glyph unicode="&#x2000;" horiz-adv-x="968" />
<glyph unicode="&#x2001;" horiz-adv-x="1937" />
<glyph unicode="&#x2002;" horiz-adv-x="968" />
<glyph unicode="&#x2003;" horiz-adv-x="1937" />
<glyph unicode="&#x2004;" horiz-adv-x="645" />
<glyph unicode="&#x2005;" horiz-adv-x="484" />
<glyph unicode="&#x2006;" horiz-adv-x="322" />
<glyph unicode="&#x2007;" horiz-adv-x="322" />
<glyph unicode="&#x2008;" horiz-adv-x="242" />
<glyph unicode="&#x2009;" horiz-adv-x="387" />
<glyph unicode="&#x200a;" horiz-adv-x="107" />
<glyph unicode="&#x2010;" horiz-adv-x="704" d="M63 477v277h590v-277h-590z" />
<glyph unicode="&#x2011;" horiz-adv-x="704" d="M63 477v277h590v-277h-590z" />
<glyph unicode="&#x2012;" horiz-adv-x="704" d="M63 477v277h590v-277h-590z" />
<glyph unicode="&#x2013;" horiz-adv-x="1024" d="M-10 420v182h1044v-182h-1044z" />
<glyph unicode="&#x2014;" horiz-adv-x="2048" d="M-10 420v182h2068v-182h-2068z" />
<glyph unicode="&#x2018;" horiz-adv-x="512" d="M94 1206q0 78 42 156.5t112 132.5q36 30 72 46.5t106 33.5l18 -35q-57 -50 -78 -96t-24 -129q58 -29 80 -65.5t22 -98.5q0 -72 -46 -119t-117 -47q-83 0 -135 61.5t-52 159.5z" />
<glyph unicode="&#x2019;" horiz-adv-x="512" d="M96 1020q55 44 78.5 93.5t26.5 127.5q-56 36 -80.5 73t-24.5 89q0 73 46.5 122.5t115.5 49.5q88 0 138 -59.5t50 -163.5q0 -130 -88 -228.5t-239 -138.5z" />
<glyph unicode="&#x201a;" horiz-adv-x="512" d="M90 166q0 75 47.5 121.5t124.5 46.5q82 0 132 -61.5t50 -161.5q0 -90 -52 -175t-140 -135q-44 -28 -139 -57l-23 39q53 37 77.5 87.5t27.5 129.5q-57 35 -81 73.5t-24 92.5z" />
<glyph unicode="&#x201c;" horiz-adv-x="1044" d="M129 1192q0 170 129 281q37 34 76 54.5t119 49.5l22 -37q-55 -42 -77.5 -90.5t-26.5 -136.5q58 -31 83 -69t25 -97q0 -72 -48 -119t-120 -47q-78 0 -130 60t-52 151zM633 1196q0 164 115 270q37 36 79 59t127 56l25 -41q-56 -38 -79.5 -87t-29.5 -138q58 -31 83.5 -67 t25.5 -89q0 -75 -44.5 -126.5t-111.5 -51.5q-83 0 -136.5 61t-53.5 154z" />
<glyph unicode="&#x201d;" horiz-adv-x="1044" d="M102 1018q57 34 82.5 85.5t28.5 137.5q-56 35 -80 72.5t-24 89.5q0 77 44.5 124.5t116.5 47.5q80 0 134.5 -63.5t54.5 -159.5q0 -91 -46.5 -171t-129.5 -134q-44 -29 -154 -72zM614 1014q54 37 79 89.5t28 137.5q-105 57 -105 162q0 72 47 122t117 50q80 0 133.5 -63.5 t53.5 -159.5q0 -93 -46 -173t-130 -132q-53 -35 -152 -72z" />
<glyph unicode="&#x201e;" horiz-adv-x="1044" d="M111 -223q60 43 84 92t26 131q-56 35 -80 73.5t-24 92.5q0 74 47.5 121t122.5 47q79 0 129.5 -62.5t50.5 -160.5q0 -90 -47.5 -172t-130.5 -134q-55 -34 -152 -69zM618 -221q54 37 79 89.5t28 135.5q-104 52 -104 150q0 80 46 131t119 51q83 0 134 -62t51 -165 q0 -84 -46.5 -165.5t-121.5 -131.5q-59 -36 -164 -76z" />
<glyph unicode="&#x2022;" horiz-adv-x="1024" d="M180 723q0 137 97 233.5t235 96.5q137 0 234.5 -97t97.5 -233q0 -138 -97.5 -236t-234.5 -98q-138 0 -235 98t-97 236z" />
<glyph unicode="&#x2026;" horiz-adv-x="2048" d="M207 141q0 69 48 117.5t116 48.5q69 0 117.5 -48.5t48.5 -117.5q0 -67 -48.5 -114t-117.5 -47q-68 0 -116 47t-48 114zM885 141q0 69 48 117.5t116 48.5q69 0 117 -48.5t48 -117.5q0 -67 -48 -114t-117 -47q-68 0 -116 47t-48 114zM1563 139q0 69 47.5 117.5t115.5 48.5 q69 0 116.5 -48.5t47.5 -117.5q0 -67 -47.5 -113t-116.5 -46t-116 46t-47 113z" />
<glyph unicode="&#x202f;" horiz-adv-x="387" />
<glyph unicode="&#x2039;" horiz-adv-x="512" d="M63 621l162 612h256l-162 -612l162 -613h-254z" />
<glyph unicode="&#x203a;" horiz-adv-x="512" d="M59 1233h256l162 -612l-160 -613h-256l160 610z" />
<glyph unicode="&#x205f;" horiz-adv-x="484" />
<glyph unicode="&#x2122;" horiz-adv-x="2048" d="M217 1436v141h664v-141h-246v-678h-166v678h-252zM979 758v819h260l150 -563l149 563h260v-819h-158v653l-178 -653h-149l-176 653v-653h-158z" />
<glyph unicode="&#x25fc;" horiz-adv-x="1228" d="M0 0v1229h1229v-1229h-1229z" />
</font>
</defs>
</svg>
