<svg xmlns="http://www.w3.org/2000/svg" xmlns:xlink="http://www.w3.org/1999/xlink"><symbol id="dogstudio" xml:space="preserve" viewBox="0 0 26 28" xmlns="http://www.w3.org/2000/svg"><style>.ast0{fill:#af976d}</style><path class="ast0" d="M22.4 9.8c-.5-.7-1.2-1.4-2.1-1.9.1-.9.2-1.9.2-2.8 0-1.3-.2-2.6-.6-3.9L19.6 0 19 1.1s-.7 1.3-1.9 2.7c.1-.2.2-.4.2-.5L18 2l-1.3.8c-4.3 2.6-7.7 7.1-8.3 8-.5.6-1 1.3-1.4 1.8-1 1.3-2 2.7-3.5 3.9-1.1.8-2.2 1.6-2.5 1.8l-1 .5 1 .3c.1 0 1.7.6 4.2.6 1 0 2-.1 3-.3 0 3 .4 6.3 1.2 8.4v.2h.1c.1 0 .1-.1.2-.4.1-.2.1-.4.2-.6 2.7-6.9 8-10 11.9-11.4l.6-.2c1.9-.6 3.2-.7 3.2-.7h.3l-.2-.2c.1 0-1.4-1.8-3.3-4.7zm-17.8 7C6 15.6 7 14.3 7.8 13.1c.4-.6 1.3-1.7 1.3-1.7v-.1c.3-.4.7-.8 1-1.1-.6.9-1 2.1-1.3 3.5-.3 1.4-.5 3-.6 4.7-.7.1-1.3.2-2 .3-.1-.3-.3-.6-.4-.8-.4-.4-.8-.8-1.2-1.1zM15.4 5.6c-.6.5-1.3 1-1.9 1.4-.4.2-.8.3-1.2.5 1.2-1.2 2.3-2.2 3.5-3.1-.1.4-.3.8-.4 1.2zm-3 7.6c.6.1 1.1.2 1.8.6.5.3.9.6 1.3 1-1.6 1.5-3.3 2.4-3.4 2.4-.9.4-1.8.8-2.8 1.1.1-1.4.2-2.3.4-3.4.6-.3 1.8-.9 2.7-1.7zm-2.5.5c.1-.2.1-.4.1-.5.2 0 .5-.1.9-.1-.4.3-.8.5-1 .6zm1.4-1.6c-.4 0-.7 0-1 .1.1-.2.1-.4.2-.5 1.1-.9 3.6-1.4 6.1-.8 1.5.4 3.6 1.4 4.8 4-1.3.5-2.6 1.1-3.8 1.8-.6-1.7-1.6-2.9-3-3.7-1.2-.7-2.4-.9-3.3-.9zm1.2 5.9c.2-.1 1.9-1 3.5-2.5.3.5.6 1 .7 1.7-3.1 2-5.5 4.7-7.1 8-.3-1.8-.5-3.9-.5-5.9 1.2-.4 2.3-.8 3.4-1.3zm-1.1-7.8c.6-.8 1.3-1.4 2.1-1.8.9-.4 1.9-.7 2.8-.7 2.3 0 4.4 1.3 5.2 2.6 1.1 1.6 2 2.9 2.6 3.7-.6.1-1.2.3-1.8.5-1.4-3-3.8-4.1-5.5-4.6-.8-.2-1.6-.3-2.3-.3-1.2.1-2.3.3-3.1.6zm7.9-2.8c-1-.4-2-.6-3-.6-.3 0-.6 0-.9.1 1.9-1.5 3.2-3.1 3.9-4.2.2.8.2 1.6.2 2.5 0 .7 0 1.4-.2 2.2zM5.1 18.8c-1.1 0-2.1-.1-2.8-.3.4-.3.9-.6 1.4-1 .5.2.9.6 1.2 1 .1 0 .2.1.2.3z"/></symbol><symbol viewBox="0 0 14 30" id="facebook" xmlns="http://www.w3.org/2000/svg"><path d="M9.4 30H3.8V15H0V9.8h3.8v-3C3.7 2.6 4.9 0 9.9 0H14v5.2h-2.6c-1.9 0-2 .7-2 2.1v2.6H14l-.5 5.1H9.4v15z"/></symbol><symbol viewBox="0 0 28 26" id="linkedin" xmlns="http://www.w3.org/2000/svg"><path d="M10 8h5.53v2.84h.08A6.14 6.14 0 0 1 21.08 8C26.92 8 28 11.64 28 16.37V26h-5.77v-8.54c0-2 0-4.66-3-4.66s-3.46 2.2-3.46 4.51V26H10zM0 8h6v18H0zM6 3a3 3 0 1 1-3-3 3 3 0 0 1 3 3z"/></symbol><symbol viewBox="0 0 18 23" id="pinterest" xmlns="http://www.w3.org/2000/svg"><path d="M15.7 2.4C14.1.8 11.9 0 9.5 0 5.9 0 3.6 1.5 2.4 2.8.9 4.3 0 6.4 0 8.4c0 2.6 1.1 4.5 2.9 5.3.1 0 .2.1.4.1.4 0 .7-.2.8-.6.1-.2.2-.8.3-1 .1-.5 0-.7-.3-1-.5-.6-.8-1.3-.8-2.3 0-2.8 2.1-5.8 5.9-5.8 3.1 0 5 1.7 5 4.6 0 1.8-.4 3.4-1.1 4.6-.5.7-1.4 1.7-2.7 1.7-.6 0-1.1-.2-1.4-.6-.3-.4-.4-.9-.3-1.4.1-.6.3-1.2.5-1.8.3-1.1.6-2.1.6-2.9.1-1.4-.7-2.3-2-2.3C6.2 5 5 6.6 5 8.7c0 1 .3 1.8.4 2.1-.2.9-1.4 5.9-1.6 6.9-.1.6-.9 5 .4 5.3 1.5.4 2.8-3.9 2.9-4.4.1-.4.5-1.9.7-2.8.7.7 1.8 1.1 3 1.1 2.1 0 4-.9 5.3-2.7 1.3-1.7 2-4 2-6.5-.1-2-1-3.9-2.4-5.3z"/></symbol><symbol viewBox="0 0 30 25" id="twitter" xmlns="http://www.w3.org/2000/svg"><path d="M30 3c-1.1.5-2.3.8-3.5 1 1.3-.8 2.2-2 2.7-3.5-1.2.7-2.5 1.2-3.9 1.5-1.1-1.2-2.7-2-4.5-2-3.4 0-6.2 2.8-6.2 6.3 0 .5.1 1 .2 1.4C9.7 7.5 5.1 5 2.1 1.2c-.5.9-.8 2-.8 3.2 0 2.2 1.1 4.1 2.7 5.3-1 0-2-.3-2.8-.8V9c0 3.1 2.1 5.6 4.9 6.2-.5.1-1.1.2-1.6.2-.4 0-.8 0-1.2-.1.8 2.5 3.1 4.3 5.7 4.4-2.1 1.7-4.8 2.7-7.6 2.7-.5 0-1 0-1.5-.1C2.7 24 6 25 9.4 25c11.3 0 17.5-9.6 17.5-18v-.8c1.2-.9 2.3-2 3.1-3.2z"/></symbol></svg>