<?xml version="1.0" encoding="utf-8"?>
<!-- Generator: Adobe Illustrator 19.2.1, SVG Export Plug-In . SVG Version: 6.00 Build 0)  -->
<!DOCTYPE svg PUBLIC "-//W3C//DTD SVG 1.1//EN" "http://www.w3.org/Graphics/SVG/1.1/DTD/svg11.dtd">
<svg version="1.1"
	 id="svg2996" inkscape:version="0.48.5 r10040" sodipodi:docname="Turner_logo_detail.svg" xmlns:cc="http://creativecommons.org/ns#" xmlns:dc="http://purl.org/dc/elements/1.1/" xmlns:inkscape="http://www.inkscape.org/namespaces/inkscape" xmlns:rdf="http://www.w3.org/1999/02/22-rdf-syntax-ns#" xmlns:sodipodi="http://sodipodi.sourceforge.net/DTD/sodipodi-0.dtd" xmlns:svg="http://www.w3.org/2000/svg"
	 xmlns="http://www.w3.org/2000/svg" xmlns:xlink="http://www.w3.org/1999/xlink" x="0px" y="0px" width="887.9px" height="155.9px"
	 viewBox="0 0 887.9 155.9" style="enable-background:new 0 0 887.9 155.9;" xml:space="preserve">
<style type="text/css">
	.st0{fill:#DFDFDF;}
</style>
<sodipodi:namedview  bordercolor="#666666" borderopacity="1" fit-margin-bottom="0" fit-margin-left="0" fit-margin-right="0" fit-margin-top="0" gridtolerance="10" guidetolerance="10" id="namedview2998" inkscape:current-layer="svg2996" inkscape:cx="695.308" inkscape:cy="109.55985" inkscape:pageopacity="0" inkscape:pageshadow="2" inkscape:window-height="706" inkscape:window-maximized="1" inkscape:window-width="1366" inkscape:window-x="-8" inkscape:window-y="-8" inkscape:zoom="0.55507034" objecttolerance="10" pagecolor="#ffffff" showgrid="false">
	</sodipodi:namedview>
<g id="g3027" transform="translate(-58.178092,-60.827932)">
	<path id="path3008" inkscape:connector-curvature="0" sodipodi:nodetypes="ccccccccc" class="st0" d="M83.3,212.6h52.3l16.9-100.5
		h41.3l8.3-47.2H66.4l-8.3,47.2h42.7L83.3,212.6z"/>
	<path id="path3010" inkscape:connector-curvature="0" sodipodi:nodetypes="ccccccccc" class="st0" d="M213.3,64.8h51.3L250,149.2
		c-0.3,29.1,34.7,25.8,41.4,0L307.1,65h50.7l-14.2,86c-14.7,88.5-161.3,87-144.8-1L213.3,64.8z"/>
	<path id="path3012" inkscape:connector-curvature="0" class="st0" d="M456.9,61.9c-18.4,0-33.3,14.9-33.3,33.4s14.9,33.4,33.3,33.4
		s33.3-15,33.3-33.4S475.2,61.9,456.9,61.9z M369.8,64.8l-24.7,148.5h51.8l25.3-148.5H369.8z"/>
	<path id="path3018" inkscape:connector-curvature="0" class="st0" d="M912.9,61.9c-18.4,0-33.3,14.9-33.3,33.4s14.9,33.4,33.3,33.4
		s33.3-15,33.3-33.4S931.2,61.9,912.9,61.9z M825.8,64.8l-24.7,148.5h51.8l25.3-148.5H825.8z"/>
	<path id="path3020" inkscape:connector-curvature="0" sodipodi:nodetypes="ccccccccccc" class="st0" d="M481.3,212.9h50.3
		l15.1-80.6c0-28.3,47-42.3,41.5,0l-13.4,80.6h51.4l15.1-90.1c9.9-75.6-60.3-73.6-91.8-38.7l5.3-19h-47.5L481.3,212.9z"/>
	<path id="path3022" inkscape:connector-curvature="0" class="st0" d="M736,61c-15.5,0.4-31.3,5.8-47,15
		c-42,26.3-60.8,102.6-9.1,132.5c54.1,24.6,105.3-13.2,114-41.5h-53.2c-9.4,8.6-27.2,14.3-41.2,0.2c-2.3-3.5-4.4-7.2-4.6-12.3h104.5
		c10.9-40.3-0.1-62.4-17.9-78.8C766.7,65.2,751.5,60.6,736,61z M735.6,99.4c4.5,0,9,1.1,13,3.8c6.5,4.4,8.2,10.4,8.3,18.7l-53.8-0.2
		c2.8-6.7,7.5-12.7,15.5-17.6C723.8,101.4,729.8,99.5,735.6,99.4z"/>
</g>
</svg>
