<?xml version="1.0" encoding="UTF-8" standalone="no"?>
<!DOCTYPE svg  PUBLIC '-//W3C//DTD SVG 1.1//EN'  'http://www.w3.org/Graphics/SVG/1.1/DTD/svg11.dtd'>
<svg xmlns="http://www.w3.org/2000/svg">
<defs>
<font id="FredFredburgerAraHeadBlack-Regular" horiz-adv-x="0">
<font-face underline-position="-103" font-weight="400" descent="-410" panose-1="2 0 5 3 4 0 0 2 0 4" units-per-em="2048" unicode-range="U+0020-FEFC" bbox="-435 -906 2774 2411" x-height="1077" underline-thickness="102" font-family="FredFredburgerAraHeadBlack" ascent="1638" cap-height="1528"/>
<missing-glyph d="M250 574l99 142l-99 141v-283zM695 716l100 -144v287zM523 468l-123 -174h243zM523 964l120 174h-244zM-30 1431h1104v-1431h-1104v1431z" horiz-adv-x="1126"/>
<glyph glyph-name="AlefHamzaBelow" horiz-adv-x="587" unicode="ﺍٕ" d="M482 16l-347 -22q2 75 3.5 129t2.5 93t1.5 66.5t0.5 48.5v74q0 40 -1.5 112.5t-4.5 164.5t-7.5 197t-11.5 210.5t-16 205t-20 181.5l379 31q5 -49 8.5 -126t6 -165.5t3.5 -180t2 -170t1 -135v-75.5v-639zM87 -411q17 1 33 1.5t30 2.5q-30 43 -30 92q0 47 17.5 86.5 t47.5 67.5t70 43.5t86 15.5q27 0 67.5 -7t78.5 -21l-27 -131q-35 8 -60 11t-42 3q-43 0 -68 -23q-8 -8 -13 -19t-5 -26q0 -27 16 -47t41 -28q18 2 41 5t47 6.5t48 8t45 9.5l15 -146l-107 -17q-58 -10 -141 -18.5t-174 -9.5z"/>
<glyph arabic-form="isolated" glyph-name="AlefMaddaSep" horiz-adv-x="596" unicode="ﺍٓ" d="M486 16l-347 -22q2 75 3.5 129t2.5 93t1.5 66.5t0.5 48.5v74q0 40 -0.5 101.5t-2.5 136t-5.5 160t-9 174t-14 176.5t-19.5 170l369 31q5 -49 8.5 -120.5t6 -151t3.5 -160.5t2 -150.5t1 -120v-69.5v-566zM-125 1450q24 58 49.5 96t54 59.5t61.5 30t72 8.5q35 0 69.5 -5 t69.5 -11q36 -7 73 -12t72 -5q40 0 73 16t73 52l81 -131q-51 -45 -107 -69t-106 -24q-47 0 -89 6t-82 14q-35 7 -65.5 11.5t-55.5 4.5q-19 0 -34 -2.5t-28.5 -12.5t-27 -29t-28.5 -53z"/>
<glyph arabic-form="final" glyph-name="AlefMaddaFin" horiz-adv-x="607" unicode="ﺎٓ" d="M626 0q-95 0 -170 11.5t-133.5 31t-101.5 46t-74 56.5q-27 107 -34.5 241t-7.5 281q0 61 -3 139.5t-7 165t-8 177t-7 174.5l365 31q-2 -60 -2 -138v-163v-515q0 -42 1.5 -80t6.5 -68q33 -20 74.5 -25t100.5 -5v-360zM-103 1450q24 58 49.5 96t54 59.5t61.5 30t72 8.5 q35 0 69.5 -5t69.5 -11q36 -7 73 -12t72 -5q40 0 73 16t73 52l81 -131q-51 -45 -107 -69t-106 -24q-47 0 -89 6t-82 14q-35 7 -65.5 11.5t-55.5 4.5q-19 0 -34 -2.5t-28.5 -12.5t-27 -29t-28.5 -53z"/>
<glyph arabic-form="isolated" glyph-name="AlefHamzaAboveSep" horiz-adv-x="596" unicode="ﺍٔ" d="M486 16l-347 -22q2 75 3.5 129t2.5 93t1.5 66.5t0.5 48.5v74q0 40 -0.5 101.5t-2.5 136t-5.5 160t-9 174t-14 176.5t-19.5 170l369 31q5 -49 8.5 -120.5t6 -151t3.5 -160.5t2 -150.5t1 -120v-69.5v-566zM25 1582q17 1 33 1.5t30 2.5q-30 43 -30 92q0 47 17.5 86.5 t47.5 67.5t70 43.5t86 15.5q27 0 67.5 -7t78.5 -21l-27 -131q-35 8 -60 11t-42 3q-43 0 -68 -23q-8 -8 -13 -19t-5 -26q0 -27 16 -47t41 -28q18 2 41 5t47 6.5t48 8t45 9.5l15 -146l-107 -17q-58 -10 -141 -18.5t-174 -9.5z"/>
<glyph arabic-form="final" glyph-name="AlefHamzaAboveFin" horiz-adv-x="631" unicode="ﺎٔ" d="M650 0q-95 0 -170 11.5t-133.5 31t-101.5 46t-74 56.5q-27 107 -34.5 241t-7.5 281q0 61 -3 139.5t-7 165t-8 177t-7 174.5l365 31q-2 -60 -2 -138v-163v-515q0 -42 1.5 -80t6.5 -68q33 -20 74.5 -25t100.5 -5v-360zM63 1582q17 1 33 1.5t30 2.5q-30 43 -30 92 q0 47 17.5 86.5t47.5 67.5t70 43.5t86 15.5q27 0 67.5 -7t78.5 -21l-27 -131q-35 8 -60 11t-42 3q-43 0 -68 -23q-8 -8 -13 -19t-5 -26q0 -27 16 -47t41 -28q18 2 41 5t47 6.5t48 8t45 9.5l15 -146l-107 -17q-58 -10 -141 -18.5t-174 -9.5z"/>
<glyph arabic-form="final" glyph-name="AlefHamzaBelowFin" horiz-adv-x="631" unicode="ﺎٕ" d="M628 0q-95 0 -166.5 11.5t-125.5 31t-93 46t-70 56.5q-27 107 -34.5 241t-7.5 281q0 41 -1.5 101t-4.5 131.5t-6.5 149.5t-6.5 154.5t-6 147t-5 126.5l375 31q-1 -20 -1.5 -53.5t-1 -74.5t-1.5 -86.5t-1.5 -89.5t-1 -83.5t-0.5 -67.5v-515q0 -42 1.5 -80t6.5 -68 q33 -21 69.5 -25.5t81.5 -4.5v-360zM121 -363q17 1 33 1.5t30 2.5q-30 43 -30 92q0 47 17.5 86.5t47.5 67.5t70 43.5t86 15.5q27 0 67.5 -7t78.5 -21l-27 -131q-35 8 -60 11t-42 3q-43 0 -68 -23q-8 -8 -13 -19t-5 -26q0 -27 16 -47t41 -28q18 2 41 5t47 6.5t48 8t45 9.5 l15 -146l-107 -17q-58 -10 -141 -18.5t-174 -9.5z"/>
<glyph arabic-form="isolated" glyph-name="LamAlefMaddaSep" horiz-adv-x="1198" unicode="ﻟﺂ" d="M699 506q-10 -15 -33 -41.5t-49 -55t-50.5 -54t-37.5 -38.5q22 0 60.5 1t78.5 2.5t75 4t52 5.5q1 4 1 11q0 19 -10 42t-24.5 46t-31.5 43t-31 34zM1165 1502l-18 -142q-10 -84 -34.5 -168.5t-57 -163.5t-69 -148t-70.5 -122q40 -47 77 -105.5t64.5 -119.5t44 -120 t16.5 -107q0 -32 -2.5 -63.5t-10.5 -64.5t-25 -67t-45 -70q-24 -9 -68.5 -16t-100 -12t-118 -8.5t-122.5 -5.5t-112.5 -3t-89.5 -1h-319l-34 341h94q22 17 51 44.5t61 61t65 70t63.5 71.5t55.5 66t42 54q-57 67 -124.5 138t-140 144.5t-148.5 147.5t-151 148l373 96 q54 -48 98 -90.5t85.5 -86.5t85 -92.5t97.5 -109.5q20 48 35.5 92.5t29.5 94.5q12 46 21 82t16 68.5t11.5 64.5t7.5 70zM-266 1459q24 58 49.5 96t54 59.5t61.5 30t72 8.5q35 0 69.5 -5t69.5 -11q36 -7 73 -12t72 -5q40 0 73 16t73 52l81 -131q-51 -45 -107 -69t-106 -24 q-47 0 -89 6t-82 14q-35 7 -65.5 11.5t-55.5 4.5q-19 0 -34 -2.5t-28.5 -12.5t-27 -29t-28.5 -53z"/>
<glyph arabic-form="final" glyph-name="LamAlefMaddaFin" horiz-adv-x="1341" unicode="ﻠﺂ" d="M1341 0q-160 0 -269 35t-165 92q-8 14 -15 49.5t-15 86.5q-53 -77 -126.5 -131t-159 -88.5t-178 -50.5t-183.5 -16q-11 0 -30 1t-40 2t-40 2t-30 2l-30 351l196 -10q52 0 92.5 3t85.5 13q-19 50 -43.5 114t-53 135t-58.5 146.5t-60 148.5l-159 360l341 127 q41 -86 71 -156t55.5 -137.5t49 -137.5t51.5 -156q6 -20 18 -59t25 -85t25.5 -91t20.5 -77q15 13 34 31t38 37t35.5 38.5t27.5 37.5q0 65 -1.5 163.5t-6 214t-13 239t-23.5 238.5l366 32q2 -48 3.5 -108.5t2.5 -125.5t1 -129.5t0.5 -119.5t0.5 -96.5v-59.5v-335 q0 -41 1.5 -74.5t6.5 -65.5q34 -21 71 -25.5t80 -4.5v-360zM-137 1451q24 58 49.5 96t54 59.5t61.5 30t72 8.5q35 0 69.5 -5t69.5 -11q36 -7 73 -12t72 -5q40 0 73 16t73 52l81 -131q-51 -45 -107 -69t-106 -24q-47 0 -89 6t-82 14q-35 7 -65.5 11.5t-55.5 4.5 q-19 0 -34 -2.5t-28.5 -12.5t-27 -29t-28.5 -53z"/>
<glyph arabic-form="isolated" glyph-name="LamAlefHamzaAboveSep" horiz-adv-x="1198" unicode="ﻟﺄ" d="M699 506q-10 -15 -33 -41.5t-49 -55t-50.5 -54t-37.5 -38.5q22 0 60.5 1t78.5 2.5t75 4t52 5.5q1 4 1 11q0 19 -10 42t-24.5 46t-31.5 43t-31 34zM1165 1502l-18 -142q-10 -84 -34.5 -168.5t-57 -163.5t-69 -148t-70.5 -122q40 -47 77 -105.5t64.5 -119.5t44 -120 t16.5 -107q0 -32 -2.5 -63.5t-10.5 -64.5t-25 -67t-45 -70q-24 -9 -68.5 -16t-100 -12t-118 -8.5t-122.5 -5.5t-112.5 -3t-89.5 -1h-319l-34 341h94q22 17 51 44.5t61 61t65 70t63.5 71.5t55.5 66t42 54q-57 67 -124.5 138t-140 144.5t-148.5 147.5t-151 148l373 96 q54 -48 98 -90.5t85.5 -86.5t85 -92.5t97.5 -109.5q20 48 35.5 92.5t29.5 94.5q12 46 21 82t16 68.5t11.5 64.5t7.5 70zM-123 1566q17 1 33 1.5t30 2.5q-30 43 -30 92q0 47 17.5 86.5t47.5 67.5t70 43.5t86 15.5q27 0 67.5 -7t78.5 -21l-27 -131q-35 8 -60 11t-42 3 q-43 0 -68 -23q-8 -8 -13 -19t-5 -26q0 -27 16 -47t41 -28q18 2 41 5t47 6.5t48 8t45 9.5l15 -146l-107 -17q-58 -10 -141 -18.5t-174 -9.5z"/>
<glyph arabic-form="final" glyph-name="LamAlefHamzaAboveFin" horiz-adv-x="1341" unicode="ﻠﺄ" d="M1341 0q-160 0 -269 35t-165 92q-8 14 -15 49.5t-15 86.5q-53 -77 -126.5 -131t-159 -88.5t-178 -50.5t-183.5 -16q-11 0 -30 1t-40 2t-40 2t-30 2l-30 351l196 -10q52 0 92.5 3t85.5 13q-19 50 -43.5 114t-53 135.5t-59.5 148t-61 151.5l-157 355l360 83 q27 -57 47.5 -103.5t37.5 -88t31 -80t28.5 -80t29.5 -88t34 -103.5q6 -20 18 -59t25 -85t25.5 -91t20.5 -77q15 13 34 31t38 37t35.5 38.5t27.5 37.5q0 65 -1.5 163.5t-6 214t-13 239t-23.5 238.5l366 32q3 -72 4.5 -147t2.5 -141.5t1 -119.5v-81v-485q0 -41 1.5 -74.5 t6.5 -65.5q34 -21 71 -25.5t80 -4.5v-360zM-5 1532q17 1 33 1.5t30 2.5q-30 43 -30 92q0 47 17.5 86.5t47.5 67.5t70 43.5t86 15.5q27 0 67.5 -7t78.5 -21l-27 -131q-35 8 -60 11t-42 3q-43 0 -68 -23q-8 -8 -13 -19t-5 -26q0 -27 16 -47t41 -28q18 2 41 5t47 6.5t48 8 t45 9.5l15 -146l-107 -17q-58 -10 -141 -18.5t-174 -9.5z"/>
<glyph arabic-form="isolated" glyph-name="LamAlefHamzaBelowSep" horiz-adv-x="1218" unicode="ﻟﺈ" d="M717 506q-10 -15 -33 -41.5t-49 -55t-50.5 -54t-37.5 -38.5q22 0 60.5 1t78.5 2.5t75 4t52 5.5q1 4 1 11q0 19 -10 42t-24.5 46t-31.5 43t-31 34zM1183 1502l-18 -142q-11 -87 -35.5 -172t-56.5 -163t-68.5 -146t-70.5 -121q40 -47 77 -105.5t64.5 -119.5t44 -120 t16.5 -107q0 -32 -2.5 -63.5t-10.5 -64.5t-25 -67t-45 -70q-24 -9 -68.5 -16t-100 -12t-118 -8.5t-122.5 -5.5t-112.5 -3t-89.5 -1h-319l-34 341h94q22 17 50.5 45t60 61t63.5 69.5t61.5 72t54.5 66.5t42 54q-118 126 -257.5 263.5t-311.5 282.5l309 195q69 -61 126 -116 t108.5 -108t101.5 -107.5t105 -115.5q20 48 36 93.5t29 93.5q17 59 33 134t23 151zM174 -407q17 1 33 1.5t30 2.5q-30 43 -30 92q0 47 17.5 86.5t47.5 67.5t70 43.5t86 15.5q27 0 67.5 -7t78.5 -21l-27 -131q-35 8 -60 11t-42 3q-43 0 -68 -23q-8 -8 -13 -19t-5 -26 q0 -27 16 -47t41 -28q18 2 41 5t47 6.5t48 8t45 9.5l15 -146l-107 -17q-58 -10 -141 -18.5t-174 -9.5z"/>
<glyph arabic-form="final" glyph-name="LamAlefHamzaBelowFin" horiz-adv-x="1341" unicode="ﻠﺈ" d="M1341 0q-160 0 -269 35t-165 92q-8 14 -15 49.5t-15 86.5q-53 -77 -126.5 -131t-159 -88.5t-178 -50.5t-183.5 -16q-11 0 -30 1t-40 2t-40 2t-30 2l-30 351l196 -10q52 0 92.5 3t85.5 13q-19 50 -43.5 114t-53 135t-58.5 146.5t-60 148.5l-159 360l341 127 q41 -86 71 -156t55.5 -137.5t49 -137.5t51.5 -156q6 -20 18 -59t25 -85t25.5 -91t20.5 -77q15 13 34 31t38 37t35.5 38.5t27.5 37.5q0 65 -1.5 163.5t-6 214t-13 239t-23.5 238.5l366 32q2 -48 3.5 -108.5t2.5 -125.5t1 -129.5t0.5 -119.5t0.5 -96.5v-59.5v-335 q0 -41 1.5 -74.5t6.5 -65.5q34 -21 71 -25.5t80 -4.5v-360zM555 -307q17 1 33 1.5t30 2.5q-30 43 -30 92q0 47 17.5 86.5t47.5 67.5t70 43.5t86 15.5q27 0 67.5 -7t78.5 -21l-27 -131q-35 8 -60 11t-42 3q-43 0 -68 -23q-8 -8 -13 -19t-5 -26q0 -27 16 -47t41 -28q18 2 41 5 t47 6.5t48 8t45 9.5l15 -146l-107 -17q-58 -10 -141 -18.5t-174 -9.5z"/>
<glyph arabic-form="isolated" glyph-name="LamAlefSep" horiz-adv-x="1218" unicode="ﻟﺎ" d="M717 506q-10 -15 -33 -41.5t-49 -55t-50.5 -54t-37.5 -38.5q22 0 60.5 1t78.5 2.5t75 4t52 5.5q1 4 1 11q0 19 -10 42t-24.5 46t-31.5 43t-31 34zM1183 1502l-18 -142q-11 -87 -35.5 -172t-56.5 -163t-68.5 -146t-70.5 -121q40 -47 77 -105.5t64.5 -119.5t44 -120 t16.5 -107q0 -32 -2.5 -63.5t-10.5 -64.5t-25 -67t-45 -70q-24 -9 -68.5 -16t-100 -12t-118 -8.5t-122.5 -5.5t-112.5 -3t-89.5 -1h-319l-34 341h94q22 17 50.5 45t60 61t63.5 69.5t61.5 72t54.5 66.5t42 54q-118 126 -257.5 263.5t-311.5 282.5l309 195q69 -61 126 -116 t108.5 -108t101.5 -107.5t105 -115.5q20 48 36 93.5t29 93.5q17 59 33 134t23 151z"/>
<glyph arabic-form="final" glyph-name="LamAlefFin" horiz-adv-x="1341" unicode="ﻠﺎ" d="M1341 0q-160 0 -269 35t-165 92q-8 14 -15 49.5t-15 86.5q-53 -77 -126.5 -131t-159 -88.5t-178 -50.5t-183.5 -16q-11 0 -30 1t-40 2t-40 2t-30 2l-30 351l196 -10q52 0 92.5 3t85.5 13q-19 50 -43.5 114t-53 135t-58.5 146.5t-60 148.5l-159 360l341 127 q41 -86 71 -156t55.5 -137.5t49 -137.5t51.5 -156q6 -20 18 -59t25 -85t25.5 -91t20.5 -77q15 13 34 31t38 37t35.5 38.5t27.5 37.5q0 65 -1.5 163.5t-6 214t-13 239t-23.5 238.5l366 32q2 -48 3.5 -108.5t2.5 -125.5t1 -129.5t0.5 -119.5t0.5 -96.5v-59.5v-335 q0 -41 1.5 -74.5t6.5 -65.5q34 -21 71 -25.5t80 -4.5v-360z"/>
<glyph glyph-name="AlefFathatanSep" horiz-adv-x="579" unicode="ﺍً" d="M477 16l-347 -22q2 75 3.5 129t2.5 93t1.5 66.5t0.5 48.5v74q0 40 -0.5 101.5t-2.5 136t-5.5 160t-9 174t-14 176.5t-19.5 170l369 31q5 -49 8.5 -120.5t6 -151t3.5 -160.5t2 -150.5t1 -120v-69.5v-566zM501 1717q-59 -27 -126 -51t-138 -42.5t-142.5 -30t-139.5 -14.5 l-21 94q139 13 269.5 47t264.5 87zM548 1547q-59 -27 -126.5 -51t-139 -42.5t-143.5 -30t-140 -14.5l-21 94q139 13 269.5 47t264.5 87z"/>
<glyph glyph-name="AlefFathatanFin" horiz-adv-x="607" unicode="ﺎً" d="M626 0q-95 0 -170 11.5t-133.5 31t-101.5 46t-74 56.5q-27 107 -34.5 241t-7.5 281q0 61 -3 139.5t-7 165t-8 177t-7 174.5l365 31q-2 -60 -2 -138v-163v-515q0 -42 1.5 -80t6.5 -68q33 -20 74.5 -25t100.5 -5v-360zM524 1718q-59 -27 -126 -51t-138 -42.5t-142.5 -30 t-139.5 -14.5l-21 94q139 13 269.5 47t264.5 87zM571 1548q-59 -27 -126.5 -51t-139 -42.5t-143.5 -30t-140 -14.5l-21 94q139 13 269.5 47t264.5 87z"/>
<glyph glyph-name="LamAlefFathatanSep" horiz-adv-x="1198" unicode="ﻟﺎً" d="M699 506q-10 -15 -33 -41.5t-49 -55t-50.5 -54t-37.5 -38.5q22 0 60.5 1t78.5 2.5t75 4t52 5.5q1 4 1 11q0 19 -10 42t-24.5 46t-31.5 43t-31 34zM1165 1502l-18 -142q-10 -84 -34.5 -168.5t-57 -163.5t-69 -148t-70.5 -122q40 -47 77 -105.5t64.5 -119.5t44 -120 t16.5 -107q0 -32 -2.5 -63.5t-10.5 -64.5t-25 -67t-45 -70q-24 -9 -68.5 -16t-100 -12t-118 -8.5t-122.5 -5.5t-112.5 -3t-89.5 -1h-319l-34 341h94q22 17 51 44.5t61 61t65 70t63.5 71.5t55.5 66t42 54q-57 67 -124.5 138t-140 144.5t-148.5 147.5t-151 148l373 96 q54 -48 98 -90.5t85.5 -86.5t85 -92.5t97.5 -109.5q20 48 35.5 92.5t29.5 94.5q12 46 21 82t16 68.5t11.5 64.5t7.5 70zM329 1722q-59 -27 -126 -51t-138 -42.5t-142.5 -30t-139.5 -14.5l-21 94q139 13 269.5 47t264.5 87zM376 1552q-59 -27 -126.5 -51t-139 -42.5 t-143.5 -30t-140 -14.5l-21 94q139 13 269.5 47t264.5 87z"/>
<glyph glyph-name="LamAlefFathatanFin" horiz-adv-x="1341" unicode="ﻠﺎً" d="M1341 0q-160 0 -269 35t-165 92q-8 14 -15 49.5t-15 86.5q-53 -77 -126.5 -131t-159 -88.5t-178 -50.5t-183.5 -16q-11 0 -30 1t-40 2t-40 2t-30 2l-30 351l196 -10q52 0 92.5 3t85.5 13q-19 50 -43.5 114t-53 135.5t-59.5 148t-61 151.5l-157 355l360 83 q27 -57 47.5 -103.5t37.5 -88t31 -80t28.5 -80t29.5 -88t34 -103.5q6 -20 18 -59t25 -85t25.5 -91t20.5 -77q15 13 34 31t38 37t35.5 38.5t27.5 37.5q0 65 -1.5 163.5t-6 214t-13 239t-23.5 238.5l366 32q3 -72 4.5 -147t2.5 -141.5t1 -119.5v-81v-485q0 -41 1.5 -74.5 t6.5 -65.5q34 -21 71 -25.5t80 -4.5v-360zM472 1683q-59 -27 -126 -51t-138 -42.5t-142.5 -30t-139.5 -14.5l-21 94q139 13 269.5 47t264.5 87zM519 1513q-59 -27 -126.5 -51t-139 -42.5t-143.5 -30t-140 -14.5l-21 94q139 13 269.5 47t264.5 87z"/>
<glyph glyph-name="AlefMaqsuraFin" horiz-adv-x="1402" unicode="ى" d="M1465 20q-13 -120 -67.5 -211.5t-145 -153.5t-215 -93.5t-277.5 -31.5q-159 0 -290 37t-224.5 110t-144.5 182.5t-51 254.5q0 82 20 180.5t55 197.5l317 -47q-18 -63 -29.5 -123.5t-11.5 -117.5q0 -174 100.5 -250t303.5 -76q60 0 121 12t111 37t81.5 64t31.5 93 q0 7 -0.5 12.5t-1.5 12.5q-20 15 -41 33t-45 43.5t-53 61.5t-65 86l262 219q33 -46 63.5 -81.5t56 -60t45 -37.5t31.5 -13v-312z"/>
<glyph arabic-form="isolated" glyph-name="AlefMaqsuraSep" horiz-adv-x="1589" unicode="ى" d="M1221 598q49 -22 89 -41.5t73 -40.5t59 -46t46 -57q26 -42 33 -83.5t7 -71.5q0 -103 -47.5 -198t-145.5 -168t-249.5 -117t-358.5 -44q-138 0 -263 28.5t-219 91.5t-149.5 163t-55.5 243q0 42 4 80.5t14 79t26 85.5t39 102l315 -64q-15 -44 -24.5 -75.5t-14 -56.5t-6 -46 t-1.5 -43q0 -63 30 -109t82.5 -75t123 -43t151.5 -14q89 0 162 9.5t125 26t80.5 40t28.5 52.5v11q-35 29 -82.5 53.5t-106.5 49.5q-56 24 -101 45.5t-80 42.5t-61 43t-44 47q-3 33 -4 54.5t-1 38.5q0 49 6 91.5t19.5 81.5t34.5 77t50 79q38 53 81.5 90.5t90 62.5t93 39.5 t89 22t79 9.5t63.5 2q19 0 48 -2t62 -7t66 -14t62 -24l-75 -297q-32 5 -75.5 11.5t-81.5 6.5q-41 0 -85.5 -6.5t-82.5 -22t-66.5 -40t-37.5 -60.5q6 -7 17.5 -14t32.5 -17.5t54 -25t82 -36.5z"/>
<glyph arabic-form="isolated" glyph-name="AlefWaslaSep" horiz-adv-x="596" unicode="ٱ" d="M486 16l-347 -22q2 75 3.5 129t2.5 93t1.5 66.5t0.5 48.5v74q0 40 -0.5 101.5t-2.5 136t-5.5 160t-9 174t-14 176.5t-19.5 170l369 31q5 -49 8.5 -120.5t6 -151t3.5 -160.5t2 -150.5t1 -120v-69.5v-566zM373 1719q-11 0 -29 -3.5t-39 -15t-42 -34.5t-39 -62h23 q56 0 92.5 4.5t58.5 12t30.5 18.5t8.5 24q0 15 -6.5 26t-16 17.5t-20.5 9.5t-21 3zM138 1461q-25 -1 -43.5 -4t-33.5 -12.5t-27.5 -28.5t-24.5 -52l-125 35q16 48 33 83t39.5 58.5t53 37.5t74.5 21q30 84 68 134.5t78 78t79.5 36t72.5 8.5q31 0 65 -11.5t62.5 -35.5 t47 -60.5t18.5 -86.5q0 -93 -81 -142.5t-233 -54.5z"/>
<glyph arabic-form="final" glyph-name="AlefWaslaFin" horiz-adv-x="607" unicode="ٱ" d="M626 0q-95 0 -170 11.5t-133.5 31t-101.5 46t-74 56.5q-27 107 -34.5 241t-7.5 281q0 61 -3 139.5t-7 165t-8 177t-7 174.5l365 31q-2 -60 -2 -138v-163v-515q0 -42 1.5 -80t6.5 -68q33 -20 74.5 -25t100.5 -5v-360zM384 1719q-11 0 -29 -3.5t-39 -15t-42 -34.5t-39 -62 h23q56 0 92.5 4.5t58.5 12t30.5 18.5t8.5 24q0 15 -6.5 26t-16 17.5t-20.5 9.5t-21 3zM149 1461q-25 -1 -43.5 -4t-33.5 -12.5t-27.5 -28.5t-24.5 -52l-125 35q16 48 33 83t39.5 58.5t53 37.5t74.5 21q30 84 68 134.5t78 78t79.5 36t72.5 8.5q31 0 65 -11.5t62.5 -35.5 t47 -60.5t18.5 -86.5q0 -93 -81 -142.5t-233 -54.5z"/>
<glyph arabic-form="isolated" glyph-name="NoonGhunnaSep" horiz-adv-x="1291" unicode="ں" d="M416 445q-18 -63 -25 -115.5t-7 -81.5q0 -47 13.5 -89t43 -74t76.5 -51t114 -19q132 0 200 67.5t75 200.5q0 33 -12 87.5t-31.5 118t-43 129t-47.5 121.5l365 78q22 -68 40.5 -130t32 -123t21 -123.5t7.5 -132.5q0 -134 -38 -251t-116 -203.5t-196 -136.5t-277 -50 q-107 0 -207.5 32t-179.5 95.5t-126.5 157.5t-47.5 217q0 43 2 79t7.5 73t16.5 78t29 93z"/>
<glyph arabic-form="final" glyph-name="NoonGhunnaFin" horiz-adv-x="1298" unicode="ں" d="M416 338q-18 -63 -25 -115.5t-7 -81.5q0 -47 13.5 -89t43 -74t76.5 -51t114 -19q132 0 200 67.5t75 200.5q0 33 -12 83t-31 107.5t-42.5 118.5t-47.5 117l354 108q27 -85 46 -162t32 -160q6 -8 17 -13.5t24.5 -8.5t27 -4.5t24.5 -1.5v-360q-17 0 -42.5 5t-54.5 17 q-21 -105 -66.5 -190t-118 -145.5t-173 -93.5t-232.5 -33q-107 0 -207.5 32t-179.5 95.5t-126.5 157.5t-47.5 217q0 43 2.5 84t8.5 83.5t17.5 88.5t29.5 98z"/>
<glyph arabic-form="initial" glyph-name="AlefMaqsuraIni" horiz-adv-x="600" unicode="ى" d="M0 360q27 0 56.5 1.5t56.5 6t48.5 13t32.5 22.5q2 11 3.5 23.5t1.5 20.5q0 48 -4 88.5t-14.5 87.5t-28 107.5t-45.5 148.5l358 83q25 -75 40.5 -131t24.5 -105.5t12 -99t3 -111.5q0 -40 -3 -82t-9.5 -83t-16 -79.5t-22.5 -71.5q-43 -60 -106.5 -98.5t-133 -61t-137 -31 t-117.5 -8.5q-21 0 -42.5 10.5t-38.5 27.5v285q12 15 35 26t46 11z"/>
<glyph arabic-form="medial" glyph-name="AlefMaqsuraMed" horiz-adv-x="624" unicode="ى" d="M624 0q-84 0 -155 28.5t-133 98.5q-38 -35 -81 -59t-87.5 -39t-87.5 -22t-80 -7q-21 0 -42.5 10.5t-38.5 27.5v285q12 15 35 26t46 11q20 0 43.5 3.5t44.5 9t37.5 13t24.5 15.5q3 8 5 19.5t3.5 24.5t2 24.5t0.5 19.5q0 85 -16 160.5t-42 154.5l350 81q24 -68 36 -133.5 t12 -138.5q0 -44 -4 -95.5t-13 -104.5q15 -16 34.5 -26.5t39 -16.5t37 -8t29.5 -2v-360z"/>
<glyph arabic-form="isolated" glyph-name="ShaddaKasratanNS" d="M176 2245q0 -83 -39 -131t-123 -48q-28 0 -52.5 8t-46.5 34q-20 -42 -53.5 -65t-81.5 -23q-86 0 -124 46t-38 132q0 8 0.5 23t2.5 37l120 5q-2 -26 -2.5 -33t-0.5 -11q0 -32 10 -53.5t39 -21.5q32 0 42.5 25t10.5 63q0 4 -0.5 11.5t-1 16.5l-1 18t-1.5 15l116 22 q2 -17 6 -38.5t11.5 -41t19 -33t28.5 -13.5q22 0 30 16t8 37q0 20 -8.5 51.5t-23.5 55.5l106 51q23 -32 35 -71t12 -84zM225 1942q-59 -27 -126 -51t-138 -42.5t-142.5 -30t-139.5 -14.5l-21 94q139 13 269.5 47t264.5 87zM272 1772q-59 -27 -126.5 -51t-139 -42.5 t-143.5 -30t-140 -14.5l-21 94q139 13 269.5 47t264.5 87z" unicode="ﱟ"/>
<glyph arabic-form="isolated" glyph-name="ShaddaFathaNS" d="M258 1855q0 -83 -39 -131t-123 -48q-28 0 -52.5 8t-46.5 34q-20 -42 -53.5 -65t-81.5 -23q-86 0 -124 46t-38 132q0 8 0.5 23t2.5 37l120 5q-2 -26 -2.5 -33t-0.5 -11q0 -32 10 -53.5t39 -21.5q32 0 42.5 25t10.5 63q0 4 -0.5 11.5t-1 16.5l-1 18t-1.5 15l116 22 q2 -17 6 -38.5t11.5 -41t19 -33t28.5 -13.5q22 0 30 16t8 37q0 20 -8.5 51.5t-23.5 55.5l106 51q23 -32 35 -71t12 -84zM225 2101q-59 -27 -126 -51t-138 -42.5t-142.5 -30t-139.5 -14.5l-28 116q139 13 269.5 47t264.5 87z" unicode="ﱠ"/>
<glyph arabic-form="isolated" glyph-name="ShaddaDammaNS" d="M258 1855q0 -83 -39 -131t-123 -48q-28 0 -52.5 8t-46.5 34q-20 -42 -53.5 -65t-81.5 -23q-86 0 -124 46t-38 132q0 8 0.5 23t2.5 37l120 5q-2 -26 -2.5 -33t-0.5 -11q0 -32 10 -53.5t39 -21.5q32 0 42.5 25t10.5 63q0 4 -0.5 11.5t-1 16.5l-1 18t-1.5 15l116 22 q2 -17 6 -38.5t11.5 -41t19 -33t28.5 -13.5q22 0 30 16t8 37q0 20 -8.5 51.5t-23.5 55.5l106 51q23 -32 35 -71t12 -84zM34 2291q-29 0 -46.5 -18.5t-17.5 -45.5q0 -47 51 -72q45 15 57.5 36t12.5 43q0 24 -17 40.5t-40 16.5zM-345 2078q64 5 124.5 12t117.5 23 q-21 20 -34.5 48t-13.5 68q0 33 13.5 65.5t38.5 58t60 41.5t79 16q28 0 58.5 -10t56 -30t41.5 -50.5t16 -72.5q0 -45 -13.5 -81t-42 -65t-74 -52t-109.5 -42q-56 -17 -130.5 -31.5t-169.5 -17.5z" unicode="ﱡ"/>
<glyph arabic-form="isolated" glyph-name="ShaddaKasraNS" d="M210 2081q0 -83 -39 -131t-123 -48q-28 0 -52.5 8t-46.5 34q-20 -42 -53.5 -65t-81.5 -23q-86 0 -124 46t-38 132q0 8 0.5 23t2.5 37l120 5q-2 -26 -2.5 -33t-0.5 -11q0 -32 10 -53.5t39 -21.5q32 0 42.5 25t10.5 63q0 4 -0.5 11.5t-1 16.5l-1 18t-1.5 15l116 22 q2 -17 6 -38.5t11.5 -41t19 -33t28.5 -13.5q22 0 30 16t8 37q0 20 -8.5 51.5t-23.5 55.5l106 51q23 -32 35 -71t12 -84zM274 1772q-59 -27 -126 -51t-138 -42.5t-142.5 -30t-139.5 -14.5l-28 116q139 13 269.5 47t264.5 87z" unicode="ﱢ"/>
<glyph arabic-form="isolated" glyph-name="ShaddaSmallAlefAboveNS" d="M11 2343q6 -67 9.5 -113t5.5 -83t2.5 -69.5t0.5 -71.5l-128 -15q0 40 -1 76t-3 74.5t-6 83.5t-10 103zM258 1855q0 -83 -39 -131t-123 -48q-28 0 -52.5 8t-46.5 34q-20 -42 -53.5 -65t-81.5 -23q-86 0 -124 46t-38 132q0 8 0.5 23t2.5 37l120 5q-2 -26 -2.5 -33t-0.5 -11 q0 -32 10 -53.5t39 -21.5q32 0 42.5 25t10.5 63q0 4 -0.5 11.5t-1 16.5l-1 18t-1.5 15l116 22q2 -17 6 -38.5t11.5 -41t19 -33t28.5 -13.5q22 0 30 16t8 37q0 20 -8.5 51.5t-23.5 55.5l106 51q23 -32 35 -71t12 -84z" unicode="ﱣ"/>
<glyph arabic-form="isolated" glyph-name="HamzaSep" horiz-adv-x="949" unicode="ء" d="M150 477q0 90 32 161t88 120t132 75t164 26q46 0 113 -9.5t150 -37.5l-57 -274q-74 13 -117 16t-74 3q-60 0 -96.5 -31t-36.5 -83q0 -18 6.5 -35.5t18.5 -32t29.5 -24.5t39.5 -13q81 1 168 7.5t172 21.5l27 -283l-202 -26q-119 -15 -263 -29t-325 -24l-39 296l107 10 q-11 18 -18 40.5t-11.5 45.5t-6 44t-1.5 36z"/>
<glyph arabic-form="isolated" glyph-name="WawHamzaAboveSep" horiz-adv-x="1084" unicode="ؤ" d="M430 445q0 -45 38.5 -67t120.5 -22h112q0 25 -3.5 53t-10 54t-15.5 48.5t-20 38.5q-16 23 -38 35.5t-55 12.5q-24 0 -47 -13.5t-41.5 -35t-29.5 -49t-11 -55.5zM605 39q-6 -1 -17 -2t-23.5 -2t-23.5 -1.5t-16 -0.5q-117 0 -201.5 31.5t-132.5 87.5q-20 23 -36.5 48.5 t-28.5 56t-19 67t-7 82.5q0 55 15.5 114t45 114.5t72 105t96 87t117.5 59t136 21.5q78 0 143.5 -24.5t117 -66.5t88.5 -97t59 -115q11 -32 19.5 -66.5t14 -69.5t8 -69.5t2.5 -65.5q0 -35 -3 -73t-9.5 -77t-16 -76.5t-22.5 -70.5q-24 -61 -66 -126t-116 -129t-187.5 -124.5 t-281.5 -112.5l-138 306q59 13 120 32.5t116 43t100.5 49.5t73.5 52zM326 1125q17 1 33 1.5t30 2.5q-30 43 -30 92q0 47 17.5 86.5t47.5 67.5t70 43.5t86 15.5q27 0 67.5 -7t78.5 -21l-27 -131q-35 8 -60 11t-42 3q-43 0 -68 -23q-8 -8 -13 -19t-5 -26q0 -27 16 -47t41 -28 q18 2 41 5t47 6.5t48 8t45 9.5l15 -146l-107 -17q-58 -10 -141 -18.5t-174 -9.5z"/>
<glyph arabic-form="final" glyph-name="WawHamzaAboveFin" horiz-adv-x="1095" unicode="ؤ" d="M430 445q0 -45 38.5 -67t120.5 -22h112q0 25 -3.5 53t-10 54t-15.5 48.5t-20 38.5q-16 23 -38 35.5t-55 12.5q-24 0 -47 -13.5t-41.5 -35t-29.5 -49t-11 -55.5zM582 21q-140 4 -239.5 37t-151.5 94q-20 23 -36.5 48.5t-28.5 56t-19 67t-7 82.5q0 55 15.5 114t45 114.5 t72 105t96 87t117.5 59t136 21.5q78 0 143.5 -24.5t117 -66.5t88.5 -97t59 -115q20 -57 30.5 -121t12.5 -123h62v-360h-128q-27 -58 -71 -118.5t-117 -119.5t-179 -114t-256 -101l-172 294q51 12 109.5 30.5t114.5 41.5t104.5 48t79.5 49zM327 1130q17 1 33 1.5t30 2.5 q-30 43 -30 92q0 47 17.5 86.5t47.5 67.5t70 43.5t86 15.5q27 0 67.5 -7t78.5 -21l-27 -131q-35 8 -60 11t-42 3q-43 0 -68 -23q-8 -8 -13 -19t-5 -26q0 -27 16 -47t41 -28q18 2 41 5t47 6.5t48 8t45 9.5l15 -146l-107 -17q-58 -10 -141 -18.5t-174 -9.5z"/>
<glyph arabic-form="isolated" glyph-name="AlefHamzaBelowSep" horiz-adv-x="587" unicode="إ" d="M482 16l-347 -22q2 75 3.5 129t2.5 93t1.5 66.5t0.5 48.5v74q0 40 -1.5 112.5t-4.5 164.5t-7.5 197t-11.5 210.5t-16 205t-20 181.5l379 31q5 -49 8.5 -126t6 -165.5t3.5 -180t2 -170t1 -135v-75.5v-639zM87 -411q17 1 33 1.5t30 2.5q-30 43 -30 92q0 47 17.5 86.5 t47.5 67.5t70 43.5t86 15.5q27 0 67.5 -7t78.5 -21l-27 -131q-35 8 -60 11t-42 3q-43 0 -68 -23q-8 -8 -13 -19t-5 -26q0 -27 16 -47t41 -28q18 2 41 5t47 6.5t48 8t45 9.5l15 -146l-107 -17q-58 -10 -141 -18.5t-174 -9.5z"/>
<glyph arabic-form="isolated" glyph-name="YehHamzaAboveSep" horiz-adv-x="1589" unicode="ئ" d="M1221 598q49 -22 89 -41.5t73 -40.5t59 -46t46 -57q26 -42 33 -83.5t7 -71.5q0 -103 -47.5 -198t-145.5 -168t-249.5 -117t-358.5 -44q-138 0 -263 28.5t-219 91.5t-149.5 163t-55.5 243q0 42 4 80.5t14 79t26 85.5t39 102l315 -64q-15 -44 -24.5 -75.5t-14 -56.5t-6 -46 t-1.5 -43q0 -63 30 -109t82.5 -75t123 -43t151.5 -14q89 0 162 9.5t125 26t80.5 40t28.5 52.5v11q-35 29 -82.5 53.5t-106.5 49.5q-56 24 -101 45.5t-80 42.5t-61 43t-44 47q-3 33 -4 54.5t-1 38.5q0 49 6 91.5t19.5 81.5t34.5 77t50 79q38 53 81.5 90.5t90 62.5t93 39.5 t89 22t79 9.5t63.5 2q19 0 48 -2t62 -7t66 -14t62 -24l-75 -297q-32 5 -75.5 11.5t-81.5 6.5q-41 0 -85.5 -6.5t-82.5 -22t-66.5 -40t-37.5 -60.5q6 -7 17.5 -14t32.5 -17.5t54 -25t82 -36.5zM108 843q17 1 33 1.5t30 2.5q-30 43 -30 92q0 47 17.5 86.5t47.5 67.5t70 43.5 t86 15.5q27 0 67.5 -7t78.5 -21l-27 -131q-35 8 -60 11t-42 3q-43 0 -68 -23q-8 -8 -13 -19t-5 -26q0 -27 16 -47t41 -28q18 2 41 5t47 6.5t48 8t45 9.5l15 -146l-107 -17q-58 -10 -141 -18.5t-174 -9.5z"/>
<glyph arabic-form="final" glyph-name="YehHamzaAboveFin" horiz-adv-x="1402" unicode="ئ" d="M1465 20q-13 -120 -67.5 -211.5t-145 -153.5t-215 -93.5t-277.5 -31.5q-159 0 -290 37t-224.5 110t-144.5 182.5t-51 254.5q0 82 20 180.5t55 197.5l317 -47q-18 -63 -29.5 -123.5t-11.5 -117.5q0 -174 100.5 -250t303.5 -76q60 0 121 12t111 37t81.5 64t31.5 93 q0 7 -0.5 12.5t-1.5 12.5q-20 15 -41 33t-45 43.5t-53 61.5t-65 86l262 219q33 -46 63.5 -81.5t56 -60t45 -37.5t31.5 -13v-312zM130 744q17 1 33 1.5t30 2.5q-30 43 -30 92q0 47 17.5 86.5t47.5 67.5t70 43.5t86 15.5q27 0 67.5 -7t78.5 -21l-27 -131q-35 8 -60 11t-42 3 q-43 0 -68 -23q-8 -8 -13 -19t-5 -26q0 -27 16 -47t41 -28q18 2 41 5t47 6.5t48 8t45 9.5l15 -146l-107 -17q-58 -10 -141 -18.5t-174 -9.5z"/>
<glyph arabic-form="initial" glyph-name="YehHamzaAboveIni" horiz-adv-x="600" unicode="ئ" d="M0 360q27 0 56.5 1.5t56.5 6t48.5 13t32.5 22.5q2 11 3.5 23.5t1.5 20.5q0 48 -4 88.5t-14.5 87.5t-28 107.5t-45.5 148.5l358 83q25 -75 40.5 -131t24.5 -105.5t12 -99t3 -111.5q0 -40 -3 -82t-9.5 -83t-16 -79.5t-22.5 -71.5q-43 -60 -106.5 -98.5t-133 -61t-137 -31 t-117.5 -8.5q-21 0 -42.5 10.5t-38.5 27.5v285q12 15 35 26t46 11zM37 1173q17 1 33 1.5t30 2.5q-30 43 -30 92q0 47 17.5 86.5t47.5 67.5t70 43.5t86 15.5q27 0 67.5 -7t78.5 -21l-27 -131q-35 8 -60 11t-42 3q-43 0 -68 -23q-8 -8 -13 -19t-5 -26q0 -27 16 -47t41 -28 q18 2 41 5t47 6.5t48 8t45 9.5l15 -146l-107 -17q-58 -10 -141 -18.5t-174 -9.5z"/>
<glyph arabic-form="medial" glyph-name="YehHamzaAboveMed" horiz-adv-x="624" unicode="ئ" d="M624 0q-84 0 -155 28.5t-133 98.5q-38 -35 -81 -59t-87.5 -39t-87.5 -22t-80 -7q-21 0 -42.5 10.5t-38.5 27.5v285q12 15 35 26t46 11q20 0 43.5 3.5t44.5 9t37.5 13t24.5 15.5q3 8 5 19.5t3.5 24.5t2 24.5t0.5 19.5q0 85 -16 160.5t-42 154.5l350 81q24 -68 36 -133.5 t12 -138.5q0 -44 -4 -95.5t-13 -104.5q15 -16 34.5 -26.5t39 -16.5t37 -8t29.5 -2v-360zM37 1093q17 1 33 1.5t30 2.5q-30 43 -30 92q0 47 17.5 86.5t47.5 67.5t70 43.5t86 15.5q27 0 67.5 -7t78.5 -21l-27 -131q-35 8 -60 11t-42 3q-43 0 -68 -23q-8 -8 -13 -19t-5 -26 q0 -27 16 -47t41 -28q18 2 41 5t47 6.5t48 8t45 9.5l15 -146l-107 -17q-58 -10 -141 -18.5t-174 -9.5z"/>
<glyph arabic-form="isolated" glyph-name="AlefSep" horiz-adv-x="587" unicode="ا" d="M482 16l-347 -22q2 75 3.5 129t2.5 93t1.5 66.5t0.5 48.5v74q0 40 -1.5 112.5t-4.5 164.5t-7.5 197t-11.5 210.5t-16 205t-20 181.5l379 31q5 -49 8.5 -126t6 -165.5t3.5 -180t2 -170t1 -135v-75.5v-639z"/>
<glyph arabic-form="final" glyph-name="AlefFin" horiz-adv-x="632" unicode="ا" d="M632 0q-95 0 -166.5 11.5t-125.5 31t-93 46t-70 56.5q-27 107 -34.5 241t-7.5 281q0 41 -1.5 101t-4.5 131.5t-6.5 149.5t-6.5 154.5t-6 147t-5 126.5l375 31q-1 -20 -1.5 -53.5t-1 -74.5t-1.5 -86.5t-1.5 -89.5t-1 -83.5t-0.5 -67.5v-515q0 -42 1.5 -80t6.5 -68 q33 -21 69.5 -25.5t81.5 -4.5v-360z"/>
<glyph arabic-form="isolated" glyph-name="BehSep" horiz-adv-x="1796" unicode="ب" d="M1690 209q-43 -60 -123 -104.5t-190 -74t-245 -44.5t-287 -15q-100 0 -198 9.5t-187 34t-165 66.5t-131.5 106.5t-87 155t-31.5 211.5q0 40 1.5 74t7 70t16 78.5t28.5 98.5l325 -45q-7 -37 -11 -63t-6.5 -47t-3 -41t-0.5 -44q0 -74 25 -129.5t79 -92.5t138 -55.5 t201 -18.5q108 0 201 5t164 14t117.5 23t62.5 32q2 12 3.5 24t1.5 20q0 47 -4 86t-14.5 84.5t-28 104.5t-45.5 147l358 83q25 -75 40.5 -133t24.5 -108.5t12 -99.5t3 -106q0 -81 -12.5 -160.5t-38.5 -145.5zM1153 -307q0 -34 -17.5 -70t-46 -65t-65.5 -48t-76 -19 q-36 0 -74 17t-68.5 44t-50.5 60.5t-20 66.5q0 36 20 71.5t51 64t67 46t69 17.5q35 0 72.5 -15.5t68 -41.5t50.5 -59t20 -69z"/>
<glyph arabic-form="final" glyph-name="BehFin" horiz-adv-x="1864" unicode="ب" d="M849 -62q-100 0 -198.5 9t-188 33t-165.5 65.5t-132 106t-88 154.5t-32 211q0 40 1.5 73.5t6 67.5t14 72t24.5 88l332 -23q-8 -37 -12 -63t-6 -48t-2.5 -42t-0.5 -44q0 -74 25.5 -129t82.5 -91t148 -54t222 -18q209 0 335.5 22t174.5 70q5 20 8 41.5t3 46.5q0 85 -16 162 t-42 156l368 57q8 -31 13.5 -60t9.5 -59t5.5 -62.5t1.5 -69.5q0 -44 -4 -95.5t-13 -104.5q15 -15 34.5 -24.5t39 -15.5t37 -8t29.5 -2v-360q-84 0 -155 28t-133 96q-54 -47 -132.5 -82t-173.5 -58t-202.5 -34.5t-218.5 -11.5zM1137 -338q0 -34 -17.5 -70t-46 -65t-65.5 -48 t-76 -19q-36 0 -74 17t-68.5 44t-50.5 60.5t-20 66.5q0 36 20 71.5t51 64t67 46t69 17.5q35 0 72.5 -15.5t68 -41.5t50.5 -59t20 -69z"/>
<glyph arabic-form="initial" glyph-name="BehIni" horiz-adv-x="600" unicode="ب" d="M485 -235q0 -34 -17.5 -70t-46 -65t-65.5 -48t-76 -19q-36 0 -74 17t-68.5 44t-50.5 60.5t-20 66.5q0 36 20 71.5t51 64t67 46t69 17.5q35 0 72.5 -15.5t68 -41.5t50.5 -59t20 -69zM0 0q-21 0 -42.5 10.5t-38.5 27.5v285q12 15 35 26t46 11q27 0 56.5 1.5t56.5 6t48.5 13 t32.5 22.5q2 11 3.5 23.5t1.5 20.5q0 48 -4 95t-14 98t-27.5 109t-44.5 127l347 115q27 -78 44 -139t27 -115t14 -107t4 -115q0 -40 -3 -82t-9.5 -83t-16 -79.5t-22.5 -71.5q-43 -60 -106.5 -98.5t-133 -61t-137 -31t-117.5 -8.5z"/>
<glyph arabic-form="medial" glyph-name="BehMed" horiz-adv-x="624" unicode="ب" d="M624 0q-84 0 -155 28.5t-133 98.5q-38 -35 -81 -59t-87.5 -39t-87.5 -22t-80 -7q-21 0 -42.5 10.5t-38.5 27.5v285q12 15 35 26t46 11q20 0 43.5 3.5t44.5 9t37.5 13t24.5 15.5q3 8 5 19.5t3.5 24.5t2 24.5t0.5 19.5q0 85 -16 160.5t-42 154.5l350 81q24 -68 36 -133.5 t12 -138.5q0 -44 -4 -95.5t-13 -104.5q15 -16 34.5 -26.5t39 -16.5t37 -8t29.5 -2v-360zM431 -235q0 -34 -17.5 -70t-46 -65t-65.5 -48t-76 -19q-36 0 -74 17t-68.5 44t-50.5 60.5t-20 66.5q0 36 20 71.5t51 64t67 46t69 17.5q35 0 72.5 -15.5t68 -41.5t50.5 -59t20 -69z "/>
<glyph arabic-form="isolated" glyph-name="TehMarbutaSep" horiz-adv-x="1089" unicode="ة" d="M545 328q60 0 105.5 10t68.5 32q11 17 15.5 41t3.5 46q-2 39 -15 74t-35.5 61.5t-53 42t-67.5 15.5q-35 0 -68 -15t-59.5 -40.5t-44 -60t-21.5 -74.5q0 -38 14 -63t38 -40.5t55 -22t64 -6.5zM542 -10q-58 0 -116.5 9t-112.5 29.5t-100.5 54t-79.5 83.5q-35 51 -54 114.5 t-19 152.5q0 66 18.5 131.5t52 126t80 112.5t102.5 90.5t120 60.5t132 22q110 0 199.5 -42.5t152.5 -114.5t97.5 -165.5t34.5 -195.5q0 -113 -24.5 -193t-66.5 -144q-32 -30 -77.5 -54t-100 -41.5t-115 -26.5t-123.5 -9zM388 1065q-31 0 -65 16.5t-62.5 42t-47 57 t-18.5 61.5q0 36 19 69t47 58.5t60.5 41t60.5 15.5q21 0 44 -8t45 -22.5t42 -33.5t34 -40q12 25 32.5 47.5t45 39.5t50.5 27t49 10q28 0 60.5 -15t60.5 -40t47 -56t19 -63q0 -30 -18.5 -63t-47 -60.5t-62.5 -45.5t-65 -18q-23 0 -46 8t-44 22.5t-39 33t-31 39.5 q-11 -24 -29.5 -46.5t-41.5 -39.5t-48.5 -27t-50.5 -10z"/>
<glyph arabic-form="final" glyph-name="TehMarbutaFin" horiz-adv-x="1087" unicode="ة" d="M546 408q8 0 21 0.5t27 1t26 1.5t18 2q-5 32 -8.5 66t-5.5 69q-2 38 -3.5 77t-1.5 71q-37 -7 -78.5 -24t-77 -41t-58.5 -55t-23 -65q0 -27 7.5 -46t26 -32t50.5 -19t80 -6zM1087 0q-50 0 -104.5 4.5t-107 21.5t-98 49.5t-76.5 89.5q-24 -14 -58.5 -26t-71.5 -21 t-72.5 -14t-62.5 -5q-82 0 -151 23t-119 66.5t-78 107.5t-28 146t26 162.5t88.5 153t167 134t260.5 107.5v64l322 30q2 -76 6 -154.5t9 -153t10.5 -142t10.5 -120.5t9.5 -89t6.5 -47q20 -15 49.5 -21t61.5 -6v-360zM365 1125q-31 0 -65 16.5t-62.5 42t-47 57t-18.5 61.5 q0 36 19 69t47 58.5t60.5 41t60.5 15.5q21 0 44 -8t45 -22.5t42 -33.5t34 -40q12 25 32.5 47.5t45 39.5t50.5 27t49 10q28 0 60.5 -15t60.5 -40t47 -56t19 -63q0 -30 -18.5 -63t-47 -60.5t-62.5 -45.5t-65 -18q-23 0 -46 8t-44 22.5t-39 33t-31 39.5q-11 -24 -29.5 -46.5 t-41.5 -39.5t-48.5 -27t-50.5 -10z"/>
<glyph arabic-form="isolated" glyph-name="TehSep" horiz-adv-x="1796" unicode="ت" d="M1690 209q-43 -60 -123 -104.5t-190 -74t-245 -44.5t-287 -15q-100 0 -198 9.5t-187 34t-165 66.5t-131.5 106.5t-87 155t-31.5 211.5q0 40 1.5 74t7 70t16 78.5t28.5 98.5l325 -45q-7 -37 -11 -63t-6.5 -47t-3 -41t-0.5 -44q0 -74 25 -129.5t79 -92.5t138 -55.5 t201 -18.5q108 0 201 5t164 14t117.5 23t62.5 32q2 12 3.5 24t1.5 20q0 47 -4 86t-14.5 84.5t-28 104.5t-45.5 147l358 83q25 -75 40.5 -133t24.5 -108.5t12 -99.5t3 -106q0 -81 -12.5 -160.5t-38.5 -145.5zM736 917q-31 0 -65 16.5t-62.5 42t-47 57t-18.5 61.5q0 36 19 69 t47 58.5t60.5 41t60.5 15.5q21 0 44 -8t45 -22.5t42 -33.5t34 -40q12 25 32.5 47.5t45 39.5t50.5 27t49 10q28 0 60.5 -15t60.5 -40t47 -56t19 -63q0 -30 -18.5 -63t-47 -60.5t-62.5 -45.5t-65 -18q-23 0 -46 8t-44 22.5t-39 33t-31 39.5q-11 -24 -29.5 -46.5t-41.5 -39.5 t-48.5 -27t-50.5 -10z"/>
<glyph arabic-form="final" glyph-name="TehFin" horiz-adv-x="1864" unicode="ت" d="M849 -62q-100 0 -198.5 9t-188 33t-165.5 65.5t-132 106t-88 154.5t-32 211q0 40 1.5 73.5t6 67.5t14 72t24.5 88l332 -23q-8 -37 -12 -63t-6 -48t-2.5 -42t-0.5 -44q0 -74 25.5 -129t82.5 -91t148 -54t222 -18q209 0 335.5 22t174.5 70q5 20 8 41.5t3 46.5q0 85 -16 162 t-42 156l368 57q8 -31 13.5 -60t9.5 -59t5.5 -62.5t1.5 -69.5q0 -44 -4 -95.5t-13 -104.5q15 -15 34.5 -24.5t39 -15.5t37 -8t29.5 -2v-360q-84 0 -155 28t-133 96q-54 -47 -132.5 -82t-173.5 -58t-202.5 -34.5t-218.5 -11.5zM753 917q-31 0 -65 16.5t-62.5 42t-47 57 t-18.5 61.5q0 36 19 69t47 58.5t60.5 41t60.5 15.5q21 0 44 -8t45 -22.5t42 -33.5t34 -40q12 25 32.5 47.5t45 39.5t50.5 27t49 10q28 0 60.5 -15t60.5 -40t47 -56t19 -63q0 -30 -18.5 -63t-47 -60.5t-62.5 -45.5t-65 -18q-23 0 -46 8t-44 22.5t-39 33t-31 39.5 q-11 -24 -29.5 -46.5t-41.5 -39.5t-48.5 -27t-50.5 -10z"/>
<glyph arabic-form="initial" glyph-name="TehIni" horiz-adv-x="600" unicode="ت" d="M97 1043q-31 0 -65 16.5t-62.5 42t-47 57t-18.5 61.5q0 36 19 69t47 58.5t60.5 41t60.5 15.5q21 0 44 -8t45 -22.5t42 -33.5t34 -40q12 25 32.5 47.5t45 39.5t50.5 27t49 10q28 0 60.5 -15t60.5 -40t47 -56t19 -63q0 -30 -18.5 -63t-47 -60.5t-62.5 -45.5t-65 -18 q-23 0 -46 8t-44 22.5t-39 33t-31 39.5q-11 -24 -29.5 -46.5t-41.5 -39.5t-48.5 -27t-50.5 -10zM0 0q-21 0 -42.5 10.5t-38.5 27.5v285q12 15 35 26t46 11q27 0 56.5 1.5t56.5 6t48.5 13t32.5 22.5q2 11 3.5 23.5t1.5 20.5q0 48 -2.5 88.5t-11 87.5t-24.5 107.5t-44 148.5 l367 54q20 -70 32 -121t18.5 -96t8.5 -92t2 -109q0 -40 -3 -82t-9.5 -83t-16 -79.5t-22.5 -71.5q-43 -60 -106.5 -98.5t-133 -61t-137 -31t-117.5 -8.5z"/>
<glyph arabic-form="medial" glyph-name="TehMed" horiz-adv-x="624" unicode="ت" d="M97 988q-31 0 -65 16.5t-62.5 42t-47 57t-18.5 61.5q0 36 19 69t47 58.5t60.5 41t60.5 15.5q21 0 44 -8t45 -22.5t42 -33.5t34 -40q12 25 32.5 47.5t45 39.5t50.5 27t49 10q28 0 60.5 -15t60.5 -40t47 -56t19 -63q0 -30 -18.5 -63t-47 -60.5t-62.5 -45.5t-65 -18 q-23 0 -46 8t-44 22.5t-39 33t-31 39.5q-11 -24 -29.5 -46.5t-41.5 -39.5t-48.5 -27t-50.5 -10zM0 0q-21 0 -42.5 10.5t-38.5 27.5v285q12 15 35 26t46 11q20 0 43.5 3.5t44.5 9t37.5 13t24.5 15.5q3 8 5 19.5t3.5 24.5t2 24.5t0.5 19.5q0 42 -2.5 87.5t-8.5 91.5t-16 91 t-25 86l364 30q15 -62 21.5 -125.5t6.5 -136.5q0 -44 -4 -95.5t-13 -104.5q15 -16 34.5 -26.5t39 -16.5t37 -8t29.5 -2v-360q-84 0 -155 28.5t-133 98.5q-38 -35 -81 -59t-87.5 -39t-87.5 -22t-80 -7z"/>
<glyph arabic-form="isolated" glyph-name="ThehSep" horiz-adv-x="1796" unicode="ث" d="M1690 209q-43 -60 -123 -104.5t-190 -74t-245 -44.5t-287 -15q-100 0 -198 9.5t-187 34t-165 66.5t-131.5 106.5t-87 155t-31.5 211.5q0 40 1.5 74t7 70t16 78.5t28.5 98.5l325 -45q-7 -37 -11 -63t-6.5 -47t-3 -41t-0.5 -44q0 -74 25 -129.5t79 -92.5t138 -55.5 t201 -18.5q108 0 201 5t164 14t117.5 23t62.5 32q2 12 3.5 24t1.5 20q0 47 -4 86t-14.5 84.5t-28 104.5t-45.5 147l358 83q25 -75 40.5 -133t24.5 -108.5t12 -99.5t3 -106q0 -81 -12.5 -160.5t-38.5 -145.5zM1038 1449q0 -28 -15 -58t-39 -54.5t-55 -40.5t-62 -16 q-30 0 -61.5 15.5t-57.5 39t-43 51.5t-17 53q0 30 17 59.5t43 53.5t56 38.5t57 14.5q28 0 59.5 -13t57.5 -35t43 -50t17 -58zM724 917q-31 0 -65 16.5t-62.5 42t-47 57t-18.5 61.5q0 36 19 69t47 58.5t60.5 41t60.5 15.5q19 0 42 -8.5t45.5 -22.5t42.5 -33.5t35 -40.5 q12 25 33 47.5t45.5 39.5t50.5 27.5t48 10.5q28 0 60.5 -15t60.5 -40t47 -56t19 -63q0 -30 -18.5 -63t-47 -60.5t-62.5 -45.5t-65 -18q-22 0 -44.5 8.5t-43.5 22.5t-40 33t-32 40q-12 -24 -31 -46.5t-42 -40t-48 -27.5t-49 -10z"/>
<glyph arabic-form="final" glyph-name="ThehFin" horiz-adv-x="1864" unicode="ث" d="M849 -62q-100 0 -198.5 9t-188 33t-165.5 65.5t-132 106t-88 154.5t-32 211q0 40 1.5 73.5t6 67.5t14 72t24.5 88l332 -23q-8 -37 -12 -63t-6 -48t-2.5 -42t-0.5 -44q0 -74 25.5 -129t82.5 -91t148 -54t222 -18q209 0 335.5 22t174.5 70q5 20 8 41.5t3 46.5q0 85 -16 162 t-42 156l368 57q8 -31 13.5 -60t9.5 -59t5.5 -62.5t1.5 -69.5q0 -44 -4 -95.5t-13 -104.5q15 -15 34.5 -24.5t39 -15.5t37 -8t29.5 -2v-360q-84 0 -155 28t-133 96q-54 -47 -132.5 -82t-173.5 -58t-202.5 -34.5t-218.5 -11.5zM1078 1449q0 -28 -15 -58t-39 -54.5t-55 -40.5 t-62 -16q-30 0 -61.5 15.5t-57.5 39t-43 51.5t-17 53q0 30 17 59.5t43 53.5t56 38.5t57 14.5q28 0 59.5 -13t57.5 -35t43 -50t17 -58zM764 917q-31 0 -65 16.5t-62.5 42t-47 57t-18.5 61.5q0 36 19 69t47 58.5t60.5 41t60.5 15.5q19 0 42 -8.5t45.5 -22.5t42.5 -33.5 t35 -40.5q12 25 33 47.5t45.5 39.5t50.5 27.5t48 10.5q28 0 60.5 -15t60.5 -40t47 -56t19 -63q0 -30 -18.5 -63t-47 -60.5t-62.5 -45.5t-65 -18q-22 0 -44.5 8.5t-43.5 22.5t-40 33t-32 40q-12 -24 -31 -46.5t-42 -40t-48 -27.5t-49 -10z"/>
<glyph arabic-form="initial" glyph-name="ThehIni" horiz-adv-x="600" unicode="ث" d="M411 1575q0 -28 -15 -58t-39 -54.5t-55 -40.5t-62 -16q-30 0 -61.5 15.5t-57.5 39t-43 51.5t-17 53q0 30 17 59.5t43 53.5t56 38.5t57 14.5q28 0 59.5 -13t57.5 -35t43 -50t17 -58zM97 1043q-31 0 -65 16.5t-62.5 42t-47 57t-18.5 61.5q0 36 19 69t47 58.5t60.5 41 t60.5 15.5q19 0 42 -8.5t45.5 -22.5t42.5 -33.5t35 -40.5q12 25 33 47.5t45.5 39.5t50.5 27.5t48 10.5q28 0 60.5 -15t60.5 -40t47 -56t19 -63q0 -30 -18.5 -63t-47 -60.5t-62.5 -45.5t-65 -18q-22 0 -44.5 8.5t-43.5 22.5t-40 33t-32 40q-12 -24 -31 -46.5t-42 -40 t-48 -27.5t-49 -10zM0 0q-21 0 -42.5 10.5t-38.5 27.5v285q12 15 35 26t46 11q27 0 56.5 1.5t56.5 6t48.5 13t32.5 22.5q2 11 3.5 23.5t1.5 20.5q0 48 -3 94.5t-10.5 98.5t-22 113t-36.5 136l359 55q18 -67 29.5 -119t18 -100t9 -98t2.5 -112q0 -40 -3 -82t-9.5 -83 t-16 -79.5t-22.5 -71.5q-43 -60 -106.5 -98.5t-133 -61t-137 -31t-117.5 -8.5z"/>
<glyph arabic-form="medial" glyph-name="ThehMed" horiz-adv-x="624" unicode="ث" d="M411 1470q0 -28 -15 -58t-39 -54.5t-55 -40.5t-62 -16q-30 0 -61.5 15.5t-57.5 39t-43 51.5t-17 53q0 30 17 59.5t43 53.5t56 38.5t57 14.5q28 0 59.5 -13t57.5 -35t43 -50t17 -58zM97 938q-31 0 -65 16.5t-62.5 42t-47 57t-18.5 61.5q0 36 19 69t47 58.5t60.5 41 t60.5 15.5q19 0 42 -8.5t45.5 -22.5t42.5 -33.5t35 -40.5q12 25 33 47.5t45.5 39.5t50.5 27.5t48 10.5q28 0 60.5 -15t60.5 -40t47 -56t19 -63q0 -30 -18.5 -63t-47 -60.5t-62.5 -45.5t-65 -18q-22 0 -44.5 8.5t-43.5 22.5t-40 33t-32 40q-12 -24 -31 -46.5t-42 -40 t-48 -27.5t-49 -10zM0 0q-21 0 -42.5 10.5t-38.5 27.5v285q12 15 35 26t46 11q20 0 43.5 3.5t44.5 9t37.5 13t24.5 15.5q3 8 5 19.5t3.5 24.5t2 24.5t0.5 19.5q0 42 -3.5 81.5t-10.5 78.5t-18 79.5t-25 84.5l348 29q16 -38 25.5 -71.5t14 -65.5t6 -63.5t1.5 -66.5 q0 -40 -4 -80t-11 -82q15 -16 34.5 -26.5t39 -16.5t37 -8t29.5 -2v-360q-84 0 -155 28.5t-133 98.5q-38 -35 -81 -59t-87.5 -39t-87.5 -22t-80 -7z"/>
<glyph arabic-form="isolated" glyph-name="JeemSep" horiz-adv-x="1255" unicode="ج" d="M30 683q58 100 115.5 156t112.5 83.5t106.5 34t96.5 6.5q37 0 76 -4.5t85.5 -18.5t103 -40.5t129.5 -69.5q42 -26 94 -55.5t95 -55.5l196 -119l-72 -272l-133 -27q-34 -7 -75 -17t-86.5 -22.5t-92.5 -26t-93 -26.5q-83 -24 -141 -54.5t-95 -65.5t-53.5 -74t-16.5 -81 q0 -51 21.5 -85t61.5 -54.5t98 -29.5t131 -9q32 0 77 2.5t104 10.5q51 8 116 21.5t149 40.5l68 -339q-63 -23 -137.5 -39t-149 -26.5t-144.5 -15.5t-125 -5q-135 0 -247 31.5t-192.5 93t-125.5 152t-45 208.5q0 114 30 201.5t85.5 154.5t133.5 116.5t173 87.5q25 10 66 21.5 t85 21.5t84 17.5t64 10.5q-27 14 -69.5 33t-89 36.5t-90 30t-71.5 14.5q-11 -2 -25 -7.5t-30.5 -16.5t-34.5 -29.5t-38 -46.5zM941 -8q0 -31 -14 -60.5t-37.5 -52t-54.5 -36.5t-64 -14q-31 0 -62 14t-56.5 37t-41.5 52.5t-16 59.5q0 32 16 61t41 51t55.5 35t58.5 13 q30 0 61 -13t56.5 -35t41.5 -51t16 -61z"/>
<glyph arabic-form="final" glyph-name="JeemFin" horiz-adv-x="1270" unicode="ج" d="M24 673q56 102 112.5 160.5t111.5 88.5t106.5 37.5t96.5 7.5q37 0 77.5 -5t88.5 -20t106.5 -42t131.5 -70q42 -26 94 -55.5t95 -55.5l196 -119l-55 -210l-4 -15l-2 -9q9 -2 18 -3t19 -2q11 -1 28.5 -1h25.5v-360q-17 0 -42.5 2t-55.5 6.5t-62.5 13t-62.5 20.5 q-57 27 -93 83.5t-62 141.5q-50 -13 -101.5 -28.5t-102.5 -29.5q-83 -23 -141 -53.5t-95 -65.5t-53.5 -74.5t-16.5 -81.5q0 -51 21 -85t59.5 -54.5t92 -29.5t119.5 -9q103 0 197 15.5t183 37.5l41 -348q-51 -13 -109.5 -23t-118.5 -17t-120 -11t-115 -4q-127 0 -235 31.5 t-187 93t-123.5 152t-44.5 208.5q0 114 29.5 201.5t84.5 154.5t133 116.5t175 87.5q25 10 66 21t85 21.5t84 18t64 10.5q-27 14 -70 33t-90 36.5t-91 30t-72 14.5q-11 -2 -24 -5t-27 -11t-29.5 -23t-31.5 -40zM891 -16q0 -31 -14 -60.5t-37.5 -52t-54.5 -36.5t-64 -14 q-31 0 -62 14t-56.5 37t-41.5 52.5t-16 59.5q0 32 16 61t41 51t55.5 35t58.5 13q30 0 61 -13t56.5 -35t41.5 -51t16 -61z"/>
<glyph arabic-form="initial" glyph-name="JeemIni" horiz-adv-x="1279" unicode="ج" d="M0 0q-19 0 -41 9.5t-39 26.5v288q12 14 34.5 25t45.5 11q42 0 85.5 1t91 4t99.5 8.5t111 14.5q50 8 103 17.5t104.5 19.5t99 19.5t86.5 17.5q-33 21 -81 43.5t-100 42t-102.5 34t-89.5 17.5q-11 -2 -25 -6t-30.5 -13t-34.5 -26t-38 -45l-282 137q58 100 115 158t111 87.5 t103 37.5t92 8q103 0 204.5 -40t198.5 -100q113 -71 222 -134.5t221 -129.5l-73 -269l-92 -19q-131 -43 -268 -86.5t-277 -79t-279.5 -57.5t-274.5 -22zM810 -193q0 -34 -17.5 -70t-46 -65t-65.5 -48t-76 -19q-36 0 -74 17t-68.5 44t-50.5 60.5t-20 66.5q0 36 20 71.5t51 64 t67 46t69 17.5q35 0 72.5 -15.5t68 -41.5t50.5 -59t20 -69z"/>
<glyph arabic-form="medial" glyph-name="JeemMed" horiz-adv-x="1300" unicode="ج" d="M0 0q-19 0 -41 9.5t-39 26.5v287q12 15 34.5 26t45.5 11q22 0 65 1t97 4t115 8.5t120 14.5q64 10 124 21t110.5 21.5t89 18.5t59.5 13q-33 20 -81 43t-100 42.5t-102.5 34t-89.5 17.5q-11 -1 -24 -3.5t-27.5 -9.5t-30 -20.5t-31.5 -36.5l-271 159q54 85 106.5 134.5 t102.5 75t97 32.5t89 7q103 0 204.5 -40t198.5 -100q113 -71 222 -134.5t221 -129.5l-50 -154l-4 -12q7 -1 11 -2l8 -2t8.5 -1.5t12.5 -0.5t13 -0.5t10 -0.5h11h16v-360q-56 0 -113.5 7.5t-112.5 29.5q-52 25 -83.5 70.5t-60.5 103.5q-86 -30 -195.5 -67t-231.5 -69 t-250.5 -53.5t-252.5 -21.5zM812 -183q0 -34 -17.5 -70t-46 -65t-65.5 -48t-76 -19q-36 0 -74 17t-68.5 44t-50.5 60.5t-20 66.5q0 36 20 71.5t51 64t67 46t69 17.5q35 0 72.5 -15.5t68 -41.5t50.5 -59t20 -69z"/>
<glyph arabic-form="isolated" glyph-name="HahSep" horiz-adv-x="1255" unicode="ح" d="M30 683q58 100 115.5 156t112.5 83.5t106.5 34t96.5 6.5q37 0 76 -4.5t85.5 -18.5t103 -40.5t129.5 -69.5q42 -26 94 -55.5t95 -55.5l196 -119l-72 -272l-133 -27q-34 -7 -75 -17t-86.5 -22.5t-92.5 -26t-93 -26.5q-83 -24 -141 -54.5t-95 -65.5t-53.5 -74t-16.5 -81 q0 -51 21.5 -85t61.5 -54.5t98 -29.5t131 -9q32 0 77 2.5t104 10.5q51 8 116 21.5t149 40.5l68 -339q-63 -23 -137.5 -39t-149 -26.5t-144.5 -15.5t-125 -5q-135 0 -247 31.5t-192.5 93t-125.5 152t-45 208.5q0 114 30 201.5t85.5 154.5t133.5 116.5t173 87.5q25 10 66 21.5 t85 21.5t84 17.5t64 10.5q-27 14 -69.5 33t-89 36.5t-90 30t-71.5 14.5q-11 -2 -25 -7.5t-30.5 -16.5t-34.5 -29.5t-38 -46.5z"/>
<glyph arabic-form="final" glyph-name="HahFin" horiz-adv-x="1270" unicode="ح" d="M24 673q56 102 112.5 160.5t111.5 88.5t106.5 37.5t96.5 7.5q37 0 77.5 -5t88.5 -20t106.5 -42t131.5 -70q42 -26 94 -55.5t95 -55.5l196 -119l-55 -210l-4 -15l-2 -9q9 -2 18 -3t19 -2q11 -1 28.5 -1h25.5v-360q-17 0 -42.5 2t-55.5 6.5t-62.5 13t-62.5 20.5 q-57 27 -93 83.5t-62 141.5q-50 -13 -101.5 -28.5t-102.5 -29.5q-83 -23 -141 -53.5t-95 -65.5t-53.5 -74.5t-16.5 -81.5q0 -51 21 -85t59.5 -54.5t92 -29.5t119.5 -9q103 0 197 15.5t183 37.5l41 -348q-51 -13 -109.5 -23t-118.5 -17t-120 -11t-115 -4q-127 0 -235 31.5 t-187 93t-123.5 152t-44.5 208.5q0 114 29.5 201.5t84.5 154.5t133 116.5t175 87.5q25 10 66 21t85 21.5t84 18t64 10.5q-27 14 -70 33t-90 36.5t-91 30t-72 14.5q-11 -2 -24 -5t-27 -11t-29.5 -23t-31.5 -40z"/>
<glyph arabic-form="initial" glyph-name="HahIni" horiz-adv-x="1279" unicode="ح" d="M0 0q-19 0 -41 9.5t-39 26.5v288q12 14 34.5 25t45.5 11q42 0 85.5 1t91 4t99.5 8.5t111 14.5q50 8 103 17.5t104.5 19.5t99 19.5t86.5 17.5q-33 21 -81 43.5t-100 42t-102.5 34t-89.5 17.5q-11 -2 -25 -6t-30.5 -13t-34.5 -26t-38 -45l-282 137q58 100 115 158t111 87.5 t103 37.5t92 8q103 0 204.5 -40t198.5 -100q113 -71 222 -134.5t221 -129.5l-73 -269l-92 -19q-131 -43 -268 -86.5t-277 -79t-279.5 -57.5t-274.5 -22z"/>
<glyph arabic-form="medial" glyph-name="HahMed" horiz-adv-x="1300" unicode="ح" d="M0 0q-19 0 -41 9.5t-39 26.5v287q12 15 34.5 26t45.5 11q22 0 65 1t97 4t115 8.5t120 14.5q64 10 124 21t110.5 21.5t89 18.5t59.5 13q-33 20 -81 43t-100 42.5t-102.5 34t-89.5 17.5q-11 -1 -24 -3.5t-27.5 -9.5t-30 -20.5t-31.5 -36.5l-271 159q54 85 106.5 134.5 t102.5 75t97 32.5t89 7q103 0 204.5 -40t198.5 -100q113 -71 222 -134.5t221 -129.5l-50 -154l-4 -12q7 -1 11 -2l8 -2t8.5 -1.5t12.5 -0.5t13 -0.5t10 -0.5h11h16v-360q-56 0 -113.5 7.5t-112.5 29.5q-52 25 -83.5 70.5t-60.5 103.5q-86 -30 -195.5 -67t-231.5 -69 t-250.5 -53.5t-252.5 -21.5z"/>
<glyph arabic-form="isolated" glyph-name="KhahSep" horiz-adv-x="1255" unicode="خ" d="M30 683q58 100 115.5 156t112.5 83.5t106.5 34t96.5 6.5q37 0 76 -4.5t85.5 -18.5t103 -40.5t129.5 -69.5q42 -26 94 -55.5t95 -55.5l196 -119l-72 -272l-133 -27q-34 -7 -75 -17t-86.5 -22.5t-92.5 -26t-93 -26.5q-83 -24 -141 -54.5t-95 -65.5t-53.5 -74t-16.5 -81 q0 -51 21.5 -85t61.5 -54.5t98 -29.5t131 -9q32 0 77 2.5t104 10.5q51 8 116 21.5t149 40.5l68 -339q-63 -23 -137.5 -39t-149 -26.5t-144.5 -15.5t-125 -5q-135 0 -247 31.5t-192.5 93t-125.5 152t-45 208.5q0 114 30 201.5t85.5 154.5t133.5 116.5t173 87.5q25 10 66 21.5 t85 21.5t84 17.5t64 10.5q-27 14 -69.5 33t-89 36.5t-90 30t-71.5 14.5q-11 -2 -25 -7.5t-30.5 -16.5t-34.5 -29.5t-38 -46.5zM794 1240q0 -34 -17.5 -70t-46 -65t-65.5 -48t-76 -19q-36 0 -74 17t-68.5 44t-50.5 60.5t-20 66.5q0 36 20 71.5t51 64t67 46t69 17.5 q35 0 72.5 -15.5t68 -41.5t50.5 -59t20 -69z"/>
<glyph arabic-form="final" glyph-name="KhahFin" horiz-adv-x="1270" unicode="خ" d="M24 673q56 102 112.5 160.5t111.5 88.5t106.5 37.5t96.5 7.5q37 0 77.5 -5t88.5 -20t106.5 -42t131.5 -70q42 -26 94 -55.5t95 -55.5l196 -119l-55 -210l-4 -15l-2 -9q9 -2 18 -3t19 -2q11 -1 28.5 -1h25.5v-360q-17 0 -42.5 2t-55.5 6.5t-62.5 13t-62.5 20.5 q-57 27 -93 83.5t-62 141.5q-50 -13 -101.5 -28.5t-102.5 -29.5q-83 -23 -141 -53.5t-95 -65.5t-53.5 -74.5t-16.5 -81.5q0 -51 21 -85t59.5 -54.5t92 -29.5t119.5 -9q103 0 197 15.5t183 37.5l41 -348q-51 -13 -109.5 -23t-118.5 -17t-120 -11t-115 -4q-127 0 -235 31.5 t-187 93t-123.5 152t-44.5 208.5q0 114 29.5 201.5t84.5 154.5t133 116.5t175 87.5q25 10 66 21t85 21.5t84 18t64 10.5q-27 14 -70 33t-90 36.5t-91 30t-72 14.5q-11 -2 -24 -5t-27 -11t-29.5 -23t-31.5 -40zM844 1234q0 -34 -17.5 -70t-46 -65t-65.5 -48t-76 -19 q-36 0 -74 17t-68.5 44t-50.5 60.5t-20 66.5q0 36 20 71.5t51 64t67 46t69 17.5q35 0 72.5 -15.5t68 -41.5t50.5 -59t20 -69z"/>
<glyph arabic-form="initial" glyph-name="KhahIni" horiz-adv-x="1279" unicode="خ" d="M0 0q-19 0 -41 9.5t-39 26.5v288q12 14 34.5 25t45.5 11q42 0 85.5 1t91 4t99.5 8.5t111 14.5q50 8 103 17.5t104.5 19.5t99 19.5t86.5 17.5q-33 21 -81 43.5t-100 42t-102.5 34t-89.5 17.5q-11 -2 -25 -6t-30.5 -13t-34.5 -26t-38 -45l-282 137q58 100 115 158t111 87.5 t103 37.5t92 8q103 0 204.5 -40t198.5 -100q113 -71 222 -134.5t221 -129.5l-73 -269l-92 -19q-131 -43 -268 -86.5t-277 -79t-279.5 -57.5t-274.5 -22zM687 1235q0 -34 -17.5 -70t-46 -65t-65.5 -48t-76 -19q-36 0 -74 17t-68.5 44t-50.5 60.5t-20 66.5q0 36 20 71.5t51 64 t67 46t69 17.5q35 0 72.5 -15.5t68 -41.5t50.5 -59t20 -69z"/>
<glyph arabic-form="medial" glyph-name="KhahMed" horiz-adv-x="1300" unicode="خ" d="M0 0q-19 0 -41 9.5t-39 26.5v287q12 15 34.5 26t45.5 11q22 0 65 1t97 4t115 8.5t120 14.5q64 10 124 21t110.5 21.5t89 18.5t59.5 13q-33 20 -81 43t-100 42.5t-102.5 34t-89.5 17.5q-11 -1 -24 -3.5t-27.5 -9.5t-30 -20.5t-31.5 -36.5l-271 159q54 85 106.5 134.5 t102.5 75t97 32.5t89 7q103 0 204.5 -40t198.5 -100q113 -71 222 -134.5t221 -129.5l-50 -154l-4 -12q7 -1 11 -2l8 -2t8.5 -1.5t12.5 -0.5t13 -0.5t10 -0.5h11h16v-360q-56 0 -113.5 7.5t-112.5 29.5q-52 25 -83.5 70.5t-60.5 103.5q-86 -30 -195.5 -67t-231.5 -69 t-250.5 -53.5t-252.5 -21.5zM683 1235q0 -34 -17.5 -70t-46 -65t-65.5 -48t-76 -19q-36 0 -74 17t-68.5 44t-50.5 60.5t-20 66.5q0 36 20 71.5t51 64t67 46t69 17.5q35 0 72.5 -15.5t68 -41.5t50.5 -59t20 -69z"/>
<glyph arabic-form="isolated" glyph-name="DalSep" horiz-adv-x="1127" unicode="د" d="M509 -9q-31 0 -76.5 2.5t-99.5 7t-114 11.5t-121 16l-18 363q61 -12 120 -20.5t111.5 -15t97 -10.5t76.5 -6h11q25 0 59 1.5t67 6.5t60 15.5t39 27.5q0 57 -23.5 134t-64 162t-94 171t-112.5 161l362 114q58 -74 110 -165.5t90 -190t60.5 -198t22.5 -187.5 q0 -18 -1 -45.5t-4.5 -58.5t-10 -62t-17.5 -57q-33 -46 -89 -79.5t-126.5 -55t-151 -32t-163.5 -10.5z"/>
<glyph arabic-form="final" glyph-name="DalFin" horiz-adv-x="1186" unicode="د" d="M85 400q108 -20 200.5 -35t152.5 -17q26 0 71 2t90.5 8.5t83 19t49.5 33.5q-29 68 -60.5 144t-61 158.5t-55.5 171.5t-44 182l359 56q59 -275 117.5 -445.5t108.5 -247.5q21 -33 45 -51.5t45 -18.5v-360q-94 0 -170.5 33t-126.5 100q-38 -42 -91 -68.5t-110 -40.5 t-113 -19t-100 -5q-125 0 -371 36z"/>
<glyph arabic-form="isolated" glyph-name="ThalSep" horiz-adv-x="1127" unicode="ذ" d="M509 -9q-31 0 -76.5 2.5t-99.5 7t-114 11.5t-121 16l-18 363q61 -12 120 -20.5t111.5 -15t97 -10.5t76.5 -6h11q25 0 59 1.5t67 6.5t60 15.5t39 27.5q0 57 -23.5 134t-64 162t-94 171t-112.5 161l362 114q58 -74 110 -165.5t90 -190t60.5 -198t22.5 -187.5 q0 -18 -1 -45.5t-4.5 -58.5t-10 -62t-17.5 -57q-33 -46 -89 -79.5t-126.5 -55t-151 -32t-163.5 -10.5zM746 1386q0 -34 -17.5 -70t-46 -65t-65.5 -48t-76 -19q-36 0 -74 17t-68.5 44t-50.5 60.5t-20 66.5q0 36 20 71.5t51 64t67 46t69 17.5q35 0 72.5 -15.5t68 -41.5 t50.5 -59t20 -69z"/>
<glyph arabic-form="final" glyph-name="ThalFin" horiz-adv-x="1186" unicode="ذ" d="M85 400q108 -20 200.5 -35t152.5 -17q26 0 71 2t90.5 8.5t83 19t49.5 33.5q-29 68 -60.5 144t-61 158.5t-55.5 171.5t-44 182l359 56q59 -275 117.5 -445.5t108.5 -247.5q21 -33 45 -51.5t45 -18.5v-360q-94 0 -170.5 33t-126.5 100q-38 -42 -91 -68.5t-110 -40.5 t-113 -19t-100 -5q-125 0 -371 36zM861 1407q0 -34 -17.5 -70t-46 -65t-65.5 -48t-76 -19q-36 0 -74 17t-68.5 44t-50.5 60.5t-20 66.5q0 36 20 71.5t51 64t67 46t69 17.5q35 0 72.5 -15.5t68 -41.5t50.5 -59t20 -69z"/>
<glyph arabic-form="isolated" glyph-name="RehSep" horiz-adv-x="634" unicode="ر" d="M594 266q0 -48 -6 -94.5t-25 -103.5q-21 -64 -59.5 -132t-104 -135.5t-163 -134t-236.5 -127.5l-170 304q101 44 167 82t108.5 73.5t68.5 69.5t46 69q26 45 27 82q-1 46 -16 110t-37 132.5t-48.5 135.5t-50.5 120l366 125q25 -56 49 -130t43 -152t30 -155t11 -139z"/>
<glyph arabic-form="final" glyph-name="RehFin" horiz-adv-x="648" unicode="ر" d="M648 0q-20 0 -48.5 4t-57.5 15q-21 -54 -62.5 -121t-106 -132.5t-154.5 -123t-210 -93.5l-159 294q86 28 149 64t108.5 74.5t75.5 78t51 76.5q13 23 20.5 44.5t7.5 40.5q0 45 -17 108.5t-42.5 132t-54.5 135.5t-54 120l358 92q25 -55 45 -106t35 -102.5t26 -105 t18 -112.5q11 -13 31.5 -18t40.5 -5v-360z"/>
<glyph arabic-form="isolated" glyph-name="ZainSep" horiz-adv-x="634" unicode="ز" d="M594 266q0 -48 -6 -94.5t-25 -103.5q-21 -64 -59.5 -132t-104 -135.5t-163 -134t-236.5 -127.5l-170 304q101 44 167 82t108.5 73.5t68.5 69.5t46 69q26 45 27 82q-1 46 -16 110t-37 132.5t-48.5 135.5t-50.5 120l366 125q25 -56 49 -130t43 -152t30 -155t11 -139z M477 1097q0 -34 -17.5 -70t-46 -65t-65.5 -48t-76 -19q-36 0 -74 17t-68.5 44t-50.5 60.5t-20 66.5q0 36 20 71.5t51 64t67 46t69 17.5q35 0 72.5 -15.5t68 -41.5t50.5 -59t20 -69z"/>
<glyph arabic-form="final" glyph-name="ZainFin" horiz-adv-x="648" unicode="ز" d="M648 0q-20 0 -48.5 4t-57.5 15q-21 -54 -62.5 -121t-106 -132.5t-154.5 -123t-210 -93.5l-159 294q86 28 149 64t108.5 74.5t75.5 78t51 76.5q13 23 20.5 44.5t7.5 40.5q0 45 -17 108.5t-42.5 132t-54.5 135.5t-54 120l358 92q25 -55 45 -106t35 -102.5t26 -105 t18 -112.5q11 -13 31.5 -18t40.5 -5v-360zM448 1097q0 -34 -17.5 -70t-46 -65t-65.5 -48t-76 -19q-36 0 -74 17t-68.5 44t-50.5 60.5t-20 66.5q0 36 20 71.5t51 64t67 46t69 17.5q35 0 72.5 -15.5t68 -41.5t50.5 -59t20 -69z"/>
<glyph arabic-form="isolated" glyph-name="SeenSep" horiz-adv-x="2157" unicode="س" d="M601 -92q132 0 200 67.5t75 200.5q0 33 -12 87.5t-31.5 118t-43 129t-47.5 121.5l348 73q61 -170 88 -347q12 -18 29 -22.5t38 -4.5q13 0 27 7t19 14q1 10 2.5 26.5t2 34.5t1 35t0.5 27q0 34 -3 71.5t-7.5 74.5t-11 71t-12.5 61l335 14q18 -76 22.5 -146t4.5 -118 q0 -31 -1.5 -59.5t-7.5 -63.5q15 -15 38 -21.5t36 -6.5q20 0 39.5 4.5t27.5 15.5q6 19 9 44.5t3 67.5q0 21 -2 55.5t-8.5 77t-18 91.5t-29.5 99l354 77q18 -62 28.5 -112.5t16 -95.5t6.5 -86t1 -84q0 -50 -3.5 -93.5t-10 -83t-17 -76t-25.5 -73.5q-20 -32 -53 -62.5 t-75 -54.5t-91.5 -38.5t-103.5 -14.5q-29 0 -61.5 5t-64.5 15.5t-62 28t-55 42.5q-13 -17 -35.5 -33.5t-51.5 -29.5t-62.5 -21t-67.5 -8q-18 0 -45.5 3t-52.5 11q-19 -103 -65.5 -188t-121.5 -146t-177.5 -95t-234.5 -34q-110 0 -208.5 32t-172.5 95.5t-117 157.5t-43 217 q0 43 2 79t7.5 73t16.5 78t29 93l311 -47q-18 -63 -25 -115.5t-7 -81.5q0 -47 10.5 -89t36.5 -74t69.5 -51t110.5 -19z"/>
<glyph arabic-form="final" glyph-name="SeenFin" horiz-adv-x="2237" unicode="س" d="M1728 10q-59 0 -121 20t-112 71q-13 -17 -35.5 -33.5t-51.5 -29.5t-62.5 -21t-67.5 -8q-18 0 -45.5 3t-52.5 11q-19 -103 -64 -188t-118 -146t-174 -95t-233 -34q-110 0 -210 32t-176 95.5t-120.5 157.5t-44.5 217q0 43 2 79t7.5 73t16.5 78t29 93l311 -47 q-18 -63 -25 -115.5t-7 -81.5q0 -47 10.5 -89t36.5 -74t69.5 -51t110.5 -19q132 0 200 67.5t75 200.5q0 33 -12 87.5t-31.5 118t-43 129t-47.5 121.5l348 73q61 -170 88 -347q12 -18 29 -22.5t38 -4.5q13 0 27 7t19 14q1 10 2.5 26.5t2 34.5t1 35t0.5 27q0 34 -3 71.5 t-8 74.5t-11 71t-13 62l336 13q18 -76 22.5 -146t4.5 -118q0 -31 -1.5 -59.5t-7.5 -63.5q15 -15 38 -21.5t36 -6.5q20 0 39.5 4.5t27.5 15.5q6 19 9 44.5t3 67.5q0 21 -2 55.5t-8.5 77t-18 91.5t-29.5 99l362 48q20 -65 28.5 -131.5t8.5 -139.5q0 -44 -1 -85t-5 -86 q27 -32 64 -42.5t69 -10.5v-360q-64 0 -126.5 25t-119.5 90q-42 -50 -107.5 -77.5t-155.5 -27.5z"/>
<glyph arabic-form="initial" glyph-name="SeenIni" horiz-adv-x="1461" unicode="س" d="M0 0q-17 0 -36.5 10.5t-33.5 25.5v288q10 13 31 24.5t39 11.5q29 0 55.5 7.5t42.5 19.5q5 31 6.5 61t1.5 64q0 22 -4.5 69t-12.5 100l340 66q13 -63 17 -111t4 -74q0 -39 -5.5 -89t-12.5 -90q19 -15 43 -23.5t41 -8.5q29 0 44 7t20 14q1 10 2.5 27.5t2 36.5t1 35.5 t0.5 23.5q0 34 -1 72.5t-4 76.5t-7.5 73.5t-11.5 64.5l335 5q6 -32 9.5 -68.5t5 -72t2 -67.5t0.5 -56q0 -31 -1.5 -59.5t-7.5 -63.5q15 -15 38 -21.5t36 -6.5q20 0 43.5 4t32.5 19q1 7 2 17.5t1.5 21t0.5 19.5v13q0 33 -2.5 75t-9 89t-18 97t-29.5 100l354 77 q18 -62 28.5 -112.5t16 -95.5t6.5 -86t1 -84q0 -101 -12.5 -183.5t-41.5 -156.5q-20 -30 -55 -58t-79 -50t-95.5 -35t-105.5 -13q-61 0 -124.5 20t-113.5 71q-48 -57 -119 -83.5t-143 -26.5q-31 0 -64 5.5t-65.5 18.5t-62.5 32.5t-54 48.5q-21 -29 -51.5 -50.5t-66.5 -36 t-75.5 -22t-77.5 -7.5z"/>
<glyph arabic-form="medial" glyph-name="SeenMed" horiz-adv-x="1526" unicode="س" d="M0 0q-17 0 -36.5 10.5t-33.5 25.5v288q10 13 31 24.5t39 11.5q29 0 50.5 6.5t37.5 18.5q12 36 17 78t5 84q0 37 -2 72t-6 64l329 53q7 -45 10.5 -94t3.5 -99q0 -42 -2.5 -82t-10.5 -78q17 -19 39.5 -25.5t39.5 -6.5q18 0 38 4t31 17q2 23 4 53.5t2 49.5q0 85 -10.5 164 t-23.5 134l335 14q9 -38 14.5 -78t8 -78t3.5 -71t1 -57q0 -31 -1.5 -59.5t-7.5 -63.5q15 -15 38 -21.5t36 -6.5q20 0 42 6.5t35 23.5q1 19 1.5 40t0.5 62q0 21 -2.5 61.5t-8.5 91t-15.5 107t-23.5 109.5l358 6q20 -65 26.5 -133.5t6.5 -141.5q0 -44 -1 -85t-5 -86 q27 -32 64 -42.5t69 -10.5v-360q-64 0 -126.5 25t-119.5 90q-42 -50 -107.5 -77.5t-155.5 -27.5q-59 0 -121 20t-112 71q-13 -17 -39.5 -34t-62.5 -30.5t-79 -22t-89 -8.5q-31 0 -65.5 6t-68 19.5t-64.5 33.5t-55 49q-21 -28 -50 -49t-63.5 -35.5t-72 -22t-75.5 -7.5z"/>
<glyph arabic-form="isolated" glyph-name="SheenSep" horiz-adv-x="2157" unicode="ش" d="M601 -92q132 0 200 67.5t75 200.5q0 33 -12 87.5t-31.5 118t-43 129t-47.5 121.5l348 73q61 -170 88 -347q12 -18 29 -22.5t38 -4.5q13 0 27 7t19 14q1 10 2.5 26.5t2 34.5t1 35t0.5 27q0 34 -3 71.5t-7.5 74.5t-11 71t-12.5 61l335 14q18 -76 22.5 -146t4.5 -118 q0 -31 -1.5 -59.5t-7.5 -63.5q15 -15 38 -21.5t36 -6.5q20 0 39.5 4.5t27.5 15.5q6 19 9 44.5t3 67.5q0 21 -2 55.5t-8.5 77t-18 91.5t-29.5 99l354 77q18 -62 28.5 -112.5t16 -95.5t6.5 -86t1 -84q0 -50 -3.5 -93.5t-10 -83t-17 -76t-25.5 -73.5q-20 -32 -53 -62.5 t-75 -54.5t-91.5 -38.5t-103.5 -14.5q-29 0 -61.5 5t-64.5 15.5t-62 28t-55 42.5q-13 -17 -35.5 -33.5t-51.5 -29.5t-62.5 -21t-67.5 -8q-18 0 -45.5 3t-52.5 11q-19 -103 -65.5 -188t-121.5 -146t-177.5 -95t-234.5 -34q-110 0 -208.5 32t-172.5 95.5t-117 157.5t-43 217 q0 43 2 79t7.5 73t16.5 78t29 93l311 -47q-18 -63 -25 -115.5t-7 -81.5q0 -47 10.5 -89t36.5 -74t69.5 -51t110.5 -19zM1562 1410q0 -28 -15 -58t-39 -54.5t-55 -40.5t-62 -16q-30 0 -61.5 15.5t-57.5 39t-43 51.5t-17 53q0 30 17 59.5t43 53.5t56 38.5t57 14.5 q28 0 59.5 -13t57.5 -35t43 -50t17 -58zM1248 878q-31 0 -65 16.5t-62.5 42t-47 57t-18.5 61.5q0 36 19 69t47 58.5t60.5 41t60.5 15.5q19 0 42 -8.5t45.5 -22.5t42.5 -33.5t35 -40.5q12 25 33 47.5t45.5 39.5t50.5 27.5t48 10.5q28 0 60.5 -15t60.5 -40t47 -56t19 -63 q0 -30 -18.5 -63t-47 -60.5t-62.5 -45.5t-65 -18q-22 0 -44.5 8.5t-43.5 22.5t-40 33t-32 40q-12 -24 -31 -46.5t-42 -40t-48 -27.5t-49 -10z"/>
<glyph arabic-form="final" glyph-name="SheenFin" horiz-adv-x="2237" unicode="ش" d="M1728 10q-59 0 -121 20t-112 71q-13 -17 -35.5 -33.5t-51.5 -29.5t-62.5 -21t-67.5 -8q-18 0 -45.5 3t-52.5 11q-19 -103 -64 -188t-118 -146t-174 -95t-233 -34q-110 0 -210 32t-176 95.5t-120.5 157.5t-44.5 217q0 43 2 79t7.5 73t16.5 78t29 93l311 -47 q-18 -63 -25 -115.5t-7 -81.5q0 -47 10.5 -89t36.5 -74t69.5 -51t110.5 -19q132 0 200 67.5t75 200.5q0 33 -12 87.5t-31.5 118t-43 129t-47.5 121.5l348 73q61 -170 88 -347q12 -18 29 -22.5t38 -4.5q13 0 27 7t19 14q1 10 2.5 26.5t2 34.5t1 35t0.5 27q0 34 -3 71.5 t-8 74.5t-11 71t-13 62l336 13q18 -76 22.5 -146t4.5 -118q0 -31 -1.5 -59.5t-7.5 -63.5q15 -15 38 -21.5t36 -6.5q20 0 39.5 4.5t27.5 15.5q6 19 9 44.5t3 67.5q0 21 -2 55.5t-8.5 77t-18 91.5t-29.5 99l362 48q20 -65 28.5 -131.5t8.5 -139.5q0 -44 -1 -85t-5 -86 q27 -32 64 -42.5t69 -10.5v-360q-64 0 -126.5 25t-119.5 90q-42 -50 -107.5 -77.5t-155.5 -27.5zM1564 1410q0 -28 -15 -58t-39 -54.5t-55 -40.5t-62 -16q-30 0 -61.5 15.5t-57.5 39t-43 51.5t-17 53q0 30 17 59.5t43 53.5t56 38.5t57 14.5q28 0 59.5 -13t57.5 -35t43 -50 t17 -58zM1250 878q-31 0 -65 16.5t-62.5 42t-47 57t-18.5 61.5q0 36 19 69t47 58.5t60.5 41t60.5 15.5q19 0 42 -8.5t45.5 -22.5t42.5 -33.5t35 -40.5q12 25 33 47.5t45.5 39.5t50.5 27.5t48 10.5q28 0 60.5 -15t60.5 -40t47 -56t19 -63q0 -30 -18.5 -63t-47 -60.5 t-62.5 -45.5t-65 -18q-22 0 -44.5 8.5t-43.5 22.5t-40 33t-32 40q-12 -24 -31 -46.5t-42 -40t-48 -27.5t-49 -10z"/>
<glyph arabic-form="initial" glyph-name="SheenIni" horiz-adv-x="1461" unicode="ش" d="M0 0q-17 0 -36.5 10.5t-33.5 25.5v288q10 13 31 24.5t39 11.5q29 0 55.5 7.5t42.5 19.5q5 31 6.5 61t1.5 64q0 22 -4.5 69t-12.5 100l340 66q13 -63 17 -111t4 -74q0 -39 -5.5 -89t-12.5 -90q19 -15 43 -23.5t41 -8.5q29 0 44 7t20 14q1 10 2.5 27.5t2 36.5t1 35.5 t0.5 23.5q0 34 -1 72.5t-4 76.5t-7.5 73.5t-11.5 64.5l335 5q6 -32 9.5 -68.5t5 -72t2 -67.5t0.5 -56q0 -31 -1.5 -59.5t-7.5 -63.5q15 -15 38 -21.5t36 -6.5q20 0 43.5 4t32.5 19q1 7 2 17.5t1.5 21t0.5 19.5v13q0 33 -2.5 75t-9 89t-18 97t-29.5 100l354 77 q18 -62 28.5 -112.5t16 -95.5t6.5 -86t1 -84q0 -101 -12.5 -183.5t-41.5 -156.5q-20 -30 -55 -58t-79 -50t-95.5 -35t-105.5 -13q-61 0 -124.5 20t-113.5 71q-48 -57 -119 -83.5t-143 -26.5q-31 0 -64 5.5t-65.5 18.5t-62.5 32.5t-54 48.5q-21 -29 -51.5 -50.5t-66.5 -36 t-75.5 -22t-77.5 -7.5zM881 1449q0 -28 -15 -58t-39 -54.5t-55 -40.5t-62 -16q-30 0 -61.5 15.5t-57.5 39t-43 51.5t-17 53q0 30 17 59.5t43 53.5t56 38.5t57 14.5q28 0 59.5 -13t57.5 -35t43 -50t17 -58zM567 917q-31 0 -65 16.5t-62.5 42t-47 57t-18.5 61.5q0 36 19 69 t47 58.5t60.5 41t60.5 15.5q19 0 42 -8.5t45.5 -22.5t42.5 -33.5t35 -40.5q12 25 33 47.5t45.5 39.5t50.5 27.5t48 10.5q28 0 60.5 -15t60.5 -40t47 -56t19 -63q0 -30 -18.5 -63t-47 -60.5t-62.5 -45.5t-65 -18q-22 0 -44.5 8.5t-43.5 22.5t-40 33t-32 40q-12 -24 -31 -46.5 t-42 -40t-48 -27.5t-49 -10z"/>
<glyph arabic-form="medial" glyph-name="SheenMed" horiz-adv-x="1526" unicode="ش" d="M0 0q-17 0 -36.5 10.5t-33.5 25.5v288q10 13 31 24.5t39 11.5q29 0 50.5 6.5t37.5 18.5q12 36 17 78t5 84q0 37 -2 72t-6 64l329 53q7 -45 10.5 -94t3.5 -99q0 -42 -2.5 -82t-10.5 -78q17 -19 39.5 -25.5t39.5 -6.5q18 0 38 4t31 17q2 23 4 53.5t2 49.5q0 85 -10.5 164 t-23.5 134l335 14q9 -38 14.5 -78t8 -78t3.5 -71t1 -57q0 -31 -1.5 -59.5t-7.5 -63.5q15 -15 38 -21.5t36 -6.5q20 0 42 6.5t35 23.5q1 19 1.5 40t0.5 62q0 21 -2.5 61.5t-8.5 91t-15.5 107t-23.5 109.5l358 6q20 -65 26.5 -133.5t6.5 -141.5q0 -44 -1 -85t-5 -86 q27 -32 64 -42.5t69 -10.5v-360q-64 0 -126.5 25t-119.5 90q-42 -50 -107.5 -77.5t-155.5 -27.5q-59 0 -121 20t-112 71q-13 -17 -39.5 -34t-62.5 -30.5t-79 -22t-89 -8.5q-31 0 -65.5 6t-68 19.5t-64.5 33.5t-55 49q-21 -28 -50 -49t-63.5 -35.5t-72 -22t-75.5 -7.5z M850 1430q0 -28 -15 -58t-39 -54.5t-55 -40.5t-62 -16q-30 0 -61.5 15.5t-57.5 39t-43 51.5t-17 53q0 30 17 59.5t43 53.5t56 38.5t57 14.5q28 0 59.5 -13t57.5 -35t43 -50t17 -58zM536 898q-31 0 -65 16.5t-62.5 42t-47 57t-18.5 61.5q0 36 19 69t47 58.5t60.5 41 t60.5 15.5q19 0 42 -8.5t45.5 -22.5t42.5 -33.5t35 -40.5q12 25 33 47.5t45.5 39.5t50.5 27.5t48 10.5q28 0 60.5 -15t60.5 -40t47 -56t19 -63q0 -30 -18.5 -63t-47 -60.5t-62.5 -45.5t-65 -18q-22 0 -44.5 8.5t-43.5 22.5t-40 33t-32 40q-12 -24 -31 -46.5t-42 -40 t-48 -27.5t-49 -10z"/>
<glyph arabic-form="isolated" glyph-name="SadSep" horiz-adv-x="2409" unicode="ص" d="M1636 341q79 0 148.5 6.5t123 20t87.5 33.5t42 47q-5 57 -24.5 98t-48 67.5t-62.5 39t-68 12.5q-64 0 -119.5 -26.5t-102.5 -71t-84.5 -101.5t-65.5 -118q14 -1 37 -2.5t48.5 -2.5t49.5 -1.5t39 -0.5zM1656 -7q-54 0 -116 4t-124 11.5t-119.5 19.5t-103.5 27 q-17 -116 -64 -208t-122.5 -156t-179.5 -97.5t-236 -33.5q-110 0 -208.5 32t-172.5 95.5t-117 157.5t-43 217q0 43 2 79t7.5 73t16.5 78t29 93l311 -47q-18 -63 -25 -115.5t-7 -81.5q0 -47 10.5 -89t36.5 -74t69.5 -51t110.5 -19q132 0 200 67.5t75 200.5q0 33 -12 87.5 t-31.5 118t-43 129t-47.5 121.5l348 73q25 -72 44.5 -144.5t33.5 -147.5q50 138 117 246.5t151.5 182.5t186.5 113t222 39q108 0 201.5 -36.5t161.5 -101.5t107 -154.5t39 -194.5q0 -144 -52 -245t-141 -158q-42 -27 -102 -48t-128.5 -35t-141.5 -21t-143 -7z"/>
<glyph arabic-form="final" glyph-name="SadFin" horiz-adv-x="2446" unicode="ص" d="M1636 341q79 0 148.5 6.5t123 20t87.5 33.5t42 47q-5 57 -24.5 98t-48 67.5t-62.5 39t-68 12.5q-64 0 -119.5 -26.5t-102.5 -71t-84.5 -101.5t-65.5 -118q14 -1 37 -2.5t48.5 -2.5t49.5 -1.5t39 -0.5zM1855 994q108 0 201.5 -36.5t161.5 -102t107 -154.5t39 -194 q0 -30 -3 -69t-11 -67q23 -7 49 -9t47 -2v-360q-77 0 -142.5 24t-132.5 80q-49 -28 -112.5 -49t-131.5 -34.5t-136 -20.5t-125 -7t-121 4t-127 11.5t-121 19.5t-104 27q-17 -116 -64 -208t-122.5 -156t-179.5 -97.5t-236 -33.5q-111 0 -209 32t-172 95.5t-117 157.5t-43 217 q0 43 2.5 83t10 82.5t20.5 89t34 102.5l299 -81q-18 -63 -25 -115.5t-7 -81.5q0 -47 10.5 -89t36.5 -74t69.5 -51t110.5 -19q132 0 200 67.5t75 200.5q0 33 -12 87.5t-31.5 118t-43 129t-47.5 121.5l356 51q12 -35 22 -67.5t18.5 -65t15.5 -66t14 -70.5q56 158 129 268.5 t159.5 179.5t184.5 100.5t204 31.5z"/>
<glyph arabic-form="initial" glyph-name="SadIni" horiz-adv-x="1674" unicode="ص" d="M901 341q79 0 148.5 6.5t123 20t87.5 33.5t42 47q-5 57 -25 98t-49.5 67.5t-64.5 39t-69 12.5q-63 0 -117 -25t-99 -68.5t-80 -101t-60 -121.5q14 -2 35.5 -3t45 -2.5t45.5 -2t37 -0.5zM0 0q-17 0 -36.5 10.5t-33.5 25.5v289q10 13 31 24t39 11q23 0 51.5 2.5t44.5 4.5 q-20 41 -38.5 89t-33.5 114l306 68q12 -46 25.5 -79t28 -58t30 -43.5t31.5 -34.5q58 152 128 260t154 177t182 101.5t211 32.5q108 0 201.5 -36t161.5 -100.5t107 -154t39 -196.5q0 -61 -11.5 -119.5t-35 -111t-60 -96.5t-86.5 -76q-43 -27 -101 -48t-124.5 -35t-138 -21 t-141.5 -7q-41 0 -83.5 2.5t-82 6t-74 8t-58.5 9.5l-48 -140l-334 57l51 143q-32 -22 -73.5 -37t-83.5 -24.5t-80.5 -13.5t-64.5 -4z"/>
<glyph arabic-form="medial" glyph-name="SadMed" horiz-adv-x="1711" unicode="ص" d="M901 341q79 0 148.5 6.5t123 20t87.5 33.5t42 47q-5 57 -25 98t-49.5 67.5t-64.5 39t-69 12.5q-63 0 -117 -25t-99 -68.5t-80 -101t-60 -121.5q14 -2 35.5 -3t45 -2.5t45.5 -2t37 -0.5zM0 0q-17 0 -36.5 10.5t-33.5 25.5v289q10 13 31 24t39 11q23 0 51.5 2.5t44.5 4.5 q-20 40 -37 83.5t-32 108.5l299 95q25 -92 56 -145t63 -86q58 152 128 260t154 177t182 101.5t211 32.5q108 0 201.5 -36.5t161.5 -101.5t107 -154.5t39 -194.5q0 -30 -3 -69t-11 -67q23 -7 49 -9t47 -2v-360q-77 0 -142.5 24t-132.5 80q-44 -27 -103 -47.5t-126 -35 t-138 -21.5t-138 -7q-41 0 -83.5 2.5t-82 6t-74 8t-58.5 9.5l-53 -155l-321 91l43 124q-32 -22 -73.5 -37t-83.5 -24.5t-80.5 -13.5t-64.5 -4z"/>
<glyph arabic-form="isolated" glyph-name="DadSep" horiz-adv-x="2409" unicode="ض" d="M1636 341q79 0 148.5 6.5t123 20t87.5 33.5t42 47q-5 57 -24.5 98t-48 67.5t-62.5 39t-68 12.5q-64 0 -119.5 -26.5t-102.5 -71t-84.5 -101.5t-65.5 -118q14 -1 37 -2.5t48.5 -2.5t49.5 -1.5t39 -0.5zM1656 -7q-54 0 -116 4t-124 11.5t-119.5 19.5t-103.5 27 q-17 -116 -64 -208t-122.5 -156t-179.5 -97.5t-236 -33.5q-110 0 -208.5 32t-172.5 95.5t-117 157.5t-43 217q0 43 2 79t7.5 73t16.5 78t29 93l311 -47q-18 -63 -25 -115.5t-7 -81.5q0 -47 10.5 -89t36.5 -74t69.5 -51t110.5 -19q132 0 200 67.5t75 200.5q0 33 -12 87.5 t-31.5 118t-43 129t-47.5 121.5l348 73q25 -72 44.5 -144.5t33.5 -147.5q50 138 117 246.5t151.5 182.5t186.5 113t222 39q108 0 201.5 -36.5t161.5 -101.5t107 -154.5t39 -194.5q0 -144 -52 -245t-141 -158q-42 -27 -102 -48t-128.5 -35t-141.5 -21t-143 -7zM1944 1289 q0 -34 -17.5 -70t-46 -65t-65.5 -48t-76 -19q-36 0 -74 17t-68.5 44t-50.5 60.5t-20 66.5q0 36 20 71.5t51 64t67 46t69 17.5q35 0 72.5 -15.5t68 -41.5t50.5 -59t20 -69z"/>
<glyph arabic-form="final" glyph-name="DadFin" horiz-adv-x="2446" unicode="ض" d="M1636 341q79 0 148.5 6.5t123 20t87.5 33.5t42 47q-5 57 -24.5 98t-48 67.5t-62.5 39t-68 12.5q-64 0 -119.5 -26.5t-102.5 -71t-84.5 -101.5t-65.5 -118q14 -1 37 -2.5t48.5 -2.5t49.5 -1.5t39 -0.5zM1855 994q108 0 201.5 -36.5t161.5 -102t107 -154.5t39 -194 q0 -30 -3 -69t-11 -67q23 -7 49 -9t47 -2v-360q-77 0 -142.5 24t-132.5 80q-49 -28 -112.5 -49t-131.5 -34.5t-136 -20.5t-125 -7t-121 4t-127 11.5t-121 19.5t-104 27q-17 -116 -64 -208t-122.5 -156t-179.5 -97.5t-236 -33.5q-111 0 -209 32t-172 95.5t-117 157.5t-43 217 q0 43 2.5 83t10 82.5t20.5 89t34 102.5l299 -81q-18 -63 -25 -115.5t-7 -81.5q0 -47 10.5 -89t36.5 -74t69.5 -51t110.5 -19q132 0 200 67.5t75 200.5q0 33 -12 87.5t-31.5 118t-43 129t-47.5 121.5l356 51q12 -35 22 -67.5t18.5 -65t15.5 -66t14 -70.5q56 158 129 268.5 t159.5 179.5t184.5 100.5t204 31.5zM1957 1297q0 -34 -17.5 -70t-46 -65t-65.5 -48t-76 -19q-36 0 -74 17t-68.5 44t-50.5 60.5t-20 66.5q0 36 20 71.5t51 64t67 46t69 17.5q35 0 72.5 -15.5t68 -41.5t50.5 -59t20 -69z"/>
<glyph arabic-form="initial" glyph-name="DadIni" horiz-adv-x="1674" unicode="ض" d="M901 341q79 0 148.5 6.5t123 20t87.5 33.5t42 47q-5 57 -25 98t-49.5 67.5t-64.5 39t-69 12.5q-63 0 -117 -25t-99 -68.5t-80 -101t-60 -121.5q14 -2 35.5 -3t45 -2.5t45.5 -2t37 -0.5zM0 0q-17 0 -36.5 10.5t-33.5 25.5v289q10 13 31 24t39 11q23 0 51.5 2.5t44.5 4.5 q-20 41 -38.5 89t-33.5 114l306 68q12 -46 25.5 -79t28 -58t30 -43.5t31.5 -34.5q58 152 128 260t154 177t182 101.5t211 32.5q108 0 201.5 -36t161.5 -100.5t107 -154t39 -196.5q0 -61 -11.5 -119.5t-35 -111t-60 -96.5t-86.5 -76q-43 -27 -101 -48t-124.5 -35t-138 -21 t-141.5 -7q-41 0 -83.5 2.5t-82 6t-74 8t-58.5 9.5l-48 -140l-334 57l51 143q-32 -22 -73.5 -37t-83.5 -24.5t-80.5 -13.5t-64.5 -4zM1223 1299q0 -34 -17.5 -70t-46 -65t-65.5 -48t-76 -19q-36 0 -74 17t-68.5 44t-50.5 60.5t-20 66.5q0 36 20 71.5t51 64t67 46t69 17.5 q35 0 72.5 -15.5t68 -41.5t50.5 -59t20 -69z"/>
<glyph arabic-form="medial" glyph-name="DadMed" horiz-adv-x="1711" unicode="ض" d="M901 341q79 0 148.5 6.5t123 20t87.5 33.5t42 47q-5 57 -25 98t-49.5 67.5t-64.5 39t-69 12.5q-63 0 -117 -25t-99 -68.5t-80 -101t-60 -121.5q14 -2 35.5 -3t45 -2.5t45.5 -2t37 -0.5zM0 0q-17 0 -36.5 10.5t-33.5 25.5v289q10 13 31 24t39 11q23 0 51.5 2.5t44.5 4.5 q-20 40 -37 83.5t-32 108.5l299 95q25 -92 56 -145t63 -86q58 152 128 260t154 177t182 101.5t211 32.5q108 0 201.5 -36.5t161.5 -101.5t107 -154.5t39 -194.5q0 -30 -3 -69t-11 -67q23 -7 49 -9t47 -2v-360q-77 0 -142.5 24t-132.5 80q-44 -27 -103 -47.5t-126 -35 t-138 -21.5t-138 -7q-41 0 -83.5 2.5t-82 6t-74 8t-58.5 9.5l-53 -155l-321 91l43 124q-32 -22 -73.5 -37t-83.5 -24.5t-80.5 -13.5t-64.5 -4zM1223 1299q0 -34 -17.5 -70t-46 -65t-65.5 -48t-76 -19q-36 0 -74 17t-68.5 44t-50.5 60.5t-20 66.5q0 36 20 71.5t51 64t67 46 t69 17.5q35 0 72.5 -15.5t68 -41.5t50.5 -59t20 -69z"/>
<glyph arabic-form="isolated" glyph-name="TahSep" horiz-adv-x="1683" unicode="ط" d="M910 345q79 0 148.5 7t123 21t87.5 34.5t42 47.5q-5 57 -24.5 98t-48 67.5t-62.5 39t-68 12.5q-64 0 -120 -27.5t-103 -73t-85 -104t-66 -119.5q14 -1 37.5 -1.5t49.5 -1t50 -0.5h39zM1445 121q-102 -63 -269 -92t-397 -29h-152l-56 -153l-321 78l20 75h-178l-17 370 l325 -15q1 4 5 14t8.5 22t8.5 22.5t6 15.5q1 21 1 49v30q-1 48 -3 100t-5 102.5t-6 87.5l-5 74q-4 60 -9 120t-11 129t-13.5 152t-17.5 189l345 47l112 -270l-78 -43q0 -43 -0.5 -83.5t-1 -74.5t-1 -60t-0.5 -41l-2 -107q46 49 95 81.5t99 52.5t100.5 28.5t101.5 8.5 q108 0 201.5 -36.5t161.5 -101t107 -154t39 -195.5q0 -61 -11 -118t-34.5 -107.5t-60 -93.5t-87.5 -74z"/>
<glyph arabic-form="final" glyph-name="TahFin" horiz-adv-x="1720" unicode="ط" d="M910 345q79 0 148.5 7t123 21t87.5 34.5t42 47.5q-5 57 -24.5 98t-48 67.5t-62.5 39t-68 12.5q-64 0 -120 -27.5t-103 -73t-85 -104t-66 -119.5q14 -1 37.5 -1.5t49.5 -1t50 -0.5h39zM75 370l325 -15q1 4 5 14t8.5 22t8.5 22.5t6 15.5q1 21 1 49v30q-1 48 -3 100 t-5 102.5t-6 87.5l-5 74q-4 60 -9.5 123t-12 136t-14.5 159.5t-18 192.5l348 26l112 -280l-78 -34q0 -42 -0.5 -82.5t-1 -74.5t-1 -60.5t-0.5 -40.5l-2 -107q46 49 95 81.5t99 52.5t100.5 28.5t101.5 8.5q108 0 201.5 -36.5t161.5 -101.5t107 -154t39 -195q0 -14 -1 -33 t-2.5 -39t-4.5 -38.5t-7 -32.5q23 -7 49.5 -9t47.5 -2v-360q-74 0 -142.5 24t-144.5 79q-113 -59 -276.5 -81t-377.5 -22h-152l-56 -153l-327 56l26 97h-178z"/>
<glyph arabic-form="initial" glyph-name="TahIni" horiz-adv-x="1419" unicode="ط" d="M139 360q1 5 4.5 14.5t7 20t7.5 20t6 14.5q1 21 1 49v30q-1 48 -3 100t-5 102.5t-6 87.5l-5 74q-4 60 -9 120t-11.5 129t-14 152t-17.5 189l345 47l112 -270l-77 -45q0 -42 -0.5 -82.5t-1 -74.5t-1 -60t-0.5 -40l-2 -107q46 49 95 81.5t99 52.5t100.5 28.5t101.5 8.5 q108 0 201.5 -36.5t161.5 -101t107 -154t39 -195.5q0 -61 -11.5 -118.5t-35 -108.5t-60 -93.5t-86.5 -72.5q-102 -63 -269 -92t-397 -29h-152l-52 -133l-325 58l20 75h-6q-19 0 -41 9.5t-39 26.5v287q12 15 34.5 26t45.5 11h139zM646 345q79 0 148.5 7t123 21t87.5 34.5 t42 47.5q-5 57 -24.5 98t-48 67.5t-62.5 39t-68 12.5q-64 0 -120 -27.5t-103 -73t-85 -104t-66 -119.5q14 -1 37.5 -1.5t49.5 -1t50 -0.5h39z"/>
<glyph arabic-form="medial" glyph-name="TahMed" horiz-adv-x="1456" unicode="ط" d="M139 360q1 4 4.5 13.5t7.5 20.5t7.5 20.5t5.5 14.5q1 21 1 49v30q-1 48 -3 100t-5 102.5t-6 87.5l-5 74q-4 60 -9 122.5t-11.5 135t-14.5 158t-18 191.5l336 21l122 -261l-77 -44q0 -42 -0.5 -82.5t-1 -74.5t-1 -60.5t-0.5 -40.5l-2 -107q46 49 95 81.5t99 52.5 t100.5 28.5t101.5 8.5q108 0 201.5 -36.5t161.5 -101t107 -154t39 -195.5q0 -14 -1 -32.5t-3 -38t-4.5 -38.5t-6.5 -34q23 -7 49.5 -9t47.5 -2v-360q-74 0 -142.5 24t-144.5 79q-112 -59 -275 -81t-379 -22h-152l-56 -153l-321 78l20 75h-6q-19 0 -41 9.5t-39 26.5v287 q12 15 34.5 26t45.5 11h139zM646 345q79 0 148.5 7t123 21t87.5 34.5t42 47.5q-5 57 -24.5 98t-48 67.5t-62.5 39t-68 12.5q-64 0 -120 -27.5t-103 -73t-85 -104t-66 -119.5q14 -1 37.5 -1.5t49.5 -1t50 -0.5h39z"/>
<glyph arabic-form="isolated" glyph-name="ZahSep" horiz-adv-x="1683" unicode="ظ" d="M910 345q79 0 148.5 7t123 21t87.5 34.5t42 47.5q-5 57 -24.5 98t-48 67.5t-62.5 39t-68 12.5q-64 0 -120 -27.5t-103 -73t-85 -104t-66 -119.5q14 -1 37.5 -1.5t49.5 -1t50 -0.5h39zM1445 121q-102 -63 -269 -92t-397 -29h-152l-56 -153l-321 78l20 75h-178l-17 370 l325 -15q1 4 5 14t8.5 22t8.5 22.5t6 15.5q1 21 1 49v30q-1 48 -3 100t-5 102.5t-6 87.5l-5 74q-4 60 -9 120t-11 129t-13.5 152t-17.5 189l345 47l112 -270l-78 -43q0 -43 -0.5 -83.5t-1 -74.5t-1 -60t-0.5 -41l-2 -107q46 49 95 81.5t99 52.5t100.5 28.5t101.5 8.5 q108 0 201.5 -36.5t161.5 -101t107 -154t39 -195.5q0 -61 -11 -118t-34.5 -107.5t-60 -93.5t-87.5 -74zM1322 1306q0 -34 -17.5 -70t-46 -65t-65.5 -48t-76 -19q-36 0 -74 17t-68.5 44t-50.5 60.5t-20 66.5q0 36 20 71.5t51 64t67 46t69 17.5q35 0 72.5 -15.5t68 -41.5 t50.5 -59t20 -69z"/>
<glyph arabic-form="final" glyph-name="ZahFin" horiz-adv-x="1720" unicode="ظ" d="M910 345q79 0 148.5 7t123 21t87.5 34.5t42 47.5q-5 57 -24.5 98t-48 67.5t-62.5 39t-68 12.5q-64 0 -120 -27.5t-103 -73t-85 -104t-66 -119.5q14 -1 37.5 -1.5t49.5 -1t50 -0.5h39zM75 370l325 -15q1 4 5 14t8.5 22t8.5 22.5t6 15.5q1 21 1 49v30q-1 48 -3 100 t-5 102.5t-6 87.5l-5 74q-4 60 -9.5 123t-12 136t-14.5 159.5t-18 192.5l348 26l112 -280l-78 -34q0 -42 -0.5 -82.5t-1 -74.5t-1 -60.5t-0.5 -40.5l-2 -107q46 49 95 81.5t99 52.5t100.5 28.5t101.5 8.5q108 0 201.5 -36.5t161.5 -101.5t107 -154t39 -195q0 -14 -1 -33 t-2.5 -39t-4.5 -38.5t-7 -32.5q23 -7 49.5 -9t47.5 -2v-360q-74 0 -142.5 24t-144.5 79q-113 -59 -276.5 -81t-377.5 -22h-152l-56 -153l-327 56l26 97h-178zM1314 1296q0 -34 -17.5 -70t-46 -65t-65.5 -48t-76 -19q-36 0 -74 17t-68.5 44t-50.5 60.5t-20 66.5q0 36 20 71.5 t51 64t67 46t69 17.5q35 0 72.5 -15.5t68 -41.5t50.5 -59t20 -69z"/>
<glyph arabic-form="initial" glyph-name="ZahIni" horiz-adv-x="1419" unicode="ظ" d="M139 360q1 5 4.5 14.5t7 20t7.5 20t6 14.5q1 21 1 49v30q-1 48 -3 100t-5 102.5t-6 87.5l-5 74q-4 60 -9 120t-11.5 129t-14 152t-17.5 189l345 47l112 -270l-77 -45q0 -42 -0.5 -82.5t-1 -74.5t-1 -60t-0.5 -40l-2 -107q46 49 95 81.5t99 52.5t100.5 28.5t101.5 8.5 q108 0 201.5 -36.5t161.5 -101t107 -154t39 -195.5q0 -61 -11.5 -118.5t-35 -108.5t-60 -93.5t-86.5 -72.5q-102 -63 -269 -92t-397 -29h-152l-52 -133l-325 58l20 75h-6q-19 0 -41 9.5t-39 26.5v287q12 15 34.5 26t45.5 11h139zM646 345q79 0 148.5 7t123 21t87.5 34.5 t42 47.5q-5 57 -24.5 98t-48 67.5t-62.5 39t-68 12.5q-64 0 -120 -27.5t-103 -73t-85 -104t-66 -119.5q14 -1 37.5 -1.5t49.5 -1t50 -0.5h39zM1057 1306q0 -34 -17.5 -70t-46 -65t-65.5 -48t-76 -19q-36 0 -74 17t-68.5 44t-50.5 60.5t-20 66.5q0 36 20 71.5t51 64t67 46 t69 17.5q35 0 72.5 -15.5t68 -41.5t50.5 -59t20 -69z"/>
<glyph arabic-form="medial" glyph-name="ZahMed" horiz-adv-x="1456" unicode="ظ" d="M139 360q1 4 4.5 13.5t7.5 20.5t7.5 20.5t5.5 14.5q1 21 1 49v30q-1 48 -3 100t-5 102.5t-6 87.5l-5 74q-4 60 -9 122.5t-11.5 135t-14.5 158t-18 191.5l336 21l122 -261l-77 -44q0 -42 -0.5 -82.5t-1 -74.5t-1 -60.5t-0.5 -40.5l-2 -107q46 49 95 81.5t99 52.5 t100.5 28.5t101.5 8.5q108 0 201.5 -36.5t161.5 -101t107 -154t39 -195.5q0 -14 -1 -32.5t-3 -38t-4.5 -38.5t-6.5 -34q23 -7 49.5 -9t47.5 -2v-360q-74 0 -142.5 24t-144.5 79q-112 -59 -275 -81t-379 -22h-152l-56 -153l-321 78l20 75h-6q-19 0 -41 9.5t-39 26.5v287 q12 15 34.5 26t45.5 11h139zM646 345q79 0 148.5 7t123 21t87.5 34.5t42 47.5q-5 57 -24.5 98t-48 67.5t-62.5 39t-68 12.5q-64 0 -120 -27.5t-103 -73t-85 -104t-66 -119.5q14 -1 37.5 -1.5t49.5 -1t50 -0.5h39zM1049 1293q0 -34 -17.5 -70t-46 -65t-65.5 -48t-76 -19 q-36 0 -74 17t-68.5 44t-50.5 60.5t-20 66.5q0 36 20 71.5t51 64t67 46t69 17.5q35 0 72.5 -15.5t68 -41.5t50.5 -59t20 -69z"/>
<glyph arabic-form="isolated" glyph-name="AinSep" horiz-adv-x="1056" unicode="ع" d="M966 222q-132 -13 -228 -31.5t-163.5 -40.5t-109.5 -47.5t-65 -53t-31.5 -56.5t-8.5 -59q0 -57 24 -90t64 -50.5t92.5 -22.5t110.5 -5q60 0 108 5t92.5 14.5t88.5 23t96 31.5l68 -339q-131 -48 -256.5 -66.5t-237.5 -18.5q-126 0 -233.5 29t-187 88.5t-124.5 150.5 t-45 216q0 150 60 255.5t170 173.5q-30 29 -54 65.5t-41 77.5t-26 84.5t-9 87.5q0 108 40 194.5t109.5 148t162.5 94.5t198 33q63 0 133.5 -9.5t162.5 -41.5l-55 -293q-40 8 -72.5 12.5t-59.5 7t-50 3t-44 0.5q-38 0 -71.5 -10t-60.5 -29.5t-45.5 -49.5t-25.5 -70 q1 -24 10 -48.5t25 -45.5t40.5 -35.5t57.5 -18.5q20 1 45.5 3.5t51 6.5t49.5 8l42 7l195 38z"/>
<glyph arabic-form="final" glyph-name="AinFin" horiz-adv-x="1148" unicode="ع" d="M749 617q0 14 -7.5 30t-23.5 29t-41.5 21.5t-60.5 8.5q-23 0 -47 -4.5t-47.5 -11.5t-44.5 -16.5t-36 -18.5q18 -25 44.5 -58.5t54.5 -66.5t53.5 -61.5t42.5 -43.5q31 22 53 48t35 52t19 50t6 42zM184 511l-34 -6l-54 269q70 84 140.5 132.5t137.5 73.5t128 32t113 7 q48 0 100.5 -8.5t103 -27.5t96.5 -49t80.5 -73t55 -100t20.5 -129q0 -35 -5 -70.5t-14.5 -70t-24 -65.5t-32.5 -56q48 -5 87.5 -7.5t65.5 -2.5v-360q-127 0 -214.5 5.5t-151.5 18t-112.5 33t-97.5 50.5q-44 -15 -85 -35t-72.5 -44.5t-50.5 -52.5t-19 -60q0 -53 25.5 -84.5 t67.5 -48t96 -21.5t112 -5q45 0 89.5 3t88.5 8q48 6 91.5 13t85.5 20l38 -349q-119 -24 -225.5 -34.5t-218.5 -10.5q-126 0 -233.5 29t-187 88t-124.5 150t-45 216q0 83 22.5 151.5t63.5 124t97.5 98.5t124.5 75z"/>
<glyph arabic-form="initial" glyph-name="AinIni" horiz-adv-x="971" unicode="ع" d="M0 0q-19 0 -41.5 9.5t-39.5 26.5v287q12 15 35 26t46 11q33 0 65 1.5t54 6.5q-14 22 -24.5 49.5t-17.5 56.5t-10.5 58t-3.5 53q0 108 39 193.5t107.5 145.5t160.5 91.5t198 31.5q56 0 129.5 -11.5t166.5 -44.5l-55 -298q-80 16 -132 19.5t-95 3.5q-45 0 -80.5 -12 t-61 -32t-40 -47.5t-16.5 -58.5q2 -26 10.5 -54t26.5 -52.5t46.5 -43.5t69.5 -27q50 2 95.5 6t89.5 9t88 11t91 13l30 -318l-203 -35q-73 -12 -154.5 -25.5t-172 -24.5t-191 -18t-210.5 -7z"/>
<glyph arabic-form="medial" glyph-name="AinMed" horiz-adv-x="1110" unicode="ع" d="M711 617q0 14 -7.5 30t-23.5 29t-41.5 21.5t-60.5 8.5q-23 0 -47 -4.5t-47.5 -11.5t-44.5 -16.5t-36 -18.5q18 -25 44.5 -58.5t54.5 -66.5t53.5 -61.5t42.5 -43.5q31 22 53 48t35 52t19 50t6 42zM0 0q-19 0 -41.5 9.5t-39.5 26.5v287q12 15 35 26t46 11q28 0 63 0.5 t70 1.5t66.5 3t52.5 4q-7 11 -21.5 30.5t-30.5 41t-31 40.5t-23 30l-34 -6l-84 239q70 84 145.5 137t148 84t138 42.5t117.5 11.5q48 0 100.5 -8.5t103.5 -27.5t96.5 -49t80 -73t55 -100t20.5 -129q0 -35 -5 -70.5t-14.5 -70t-24 -65.5t-32.5 -56q48 -5 87.5 -7.5t65.5 -2.5 v-360q-172 0 -299 28t-229 84q-50 -24 -118.5 -44.5t-146 -35.5t-159.5 -23.5t-158 -8.5z"/>
<glyph arabic-form="isolated" glyph-name="GhainSep" horiz-adv-x="1056" unicode="غ" d="M966 222q-132 -13 -228 -31.5t-163.5 -40.5t-109.5 -47.5t-65 -53t-31.5 -56.5t-8.5 -59q0 -57 24 -90t64 -50.5t92.5 -22.5t110.5 -5q60 0 108 5t92.5 14.5t88.5 23t96 31.5l68 -339q-131 -48 -256.5 -66.5t-237.5 -18.5q-126 0 -233.5 29t-187 88.5t-124.5 150.5 t-45 216q0 150 60 255.5t170 173.5q-30 29 -54 65.5t-41 77.5t-26 84.5t-9 87.5q0 108 40 194.5t109.5 148t162.5 94.5t198 33q63 0 133.5 -9.5t162.5 -41.5l-55 -293q-40 8 -72.5 12.5t-59.5 7t-50 3t-44 0.5q-38 0 -71.5 -10t-60.5 -29.5t-45.5 -49.5t-25.5 -70 q1 -24 10 -48.5t25 -45.5t40.5 -35.5t57.5 -18.5q20 1 45.5 3.5t51 6.5t49.5 8l42 7l195 38zM760 1410q0 -34 -17.5 -70t-46 -65t-65.5 -48t-76 -19q-36 0 -74 17t-68.5 44t-50.5 60.5t-20 66.5q0 36 20 71.5t51 64t67 46t69 17.5q35 0 72.5 -15.5t68 -41.5t50.5 -59t20 -69 z"/>
<glyph arabic-form="final" glyph-name="GhainFin" horiz-adv-x="1148" unicode="غ" d="M749 617q0 14 -7.5 30t-23.5 29t-41.5 21.5t-60.5 8.5q-23 0 -47 -4.5t-47.5 -11.5t-44.5 -16.5t-36 -18.5q18 -25 44.5 -58.5t54.5 -66.5t53.5 -61.5t42.5 -43.5q31 22 53 48t35 52t19 50t6 42zM184 511l-34 -6l-54 269q70 84 140.5 132.5t137.5 73.5t128 32t113 7 q48 0 100.5 -8.5t103 -27.5t96.5 -49t80.5 -73t55 -100t20.5 -129q0 -35 -5 -70.5t-14.5 -70t-24 -65.5t-32.5 -56q48 -5 87.5 -7.5t65.5 -2.5v-360q-127 0 -214.5 5.5t-151.5 18t-112.5 33t-97.5 50.5q-44 -15 -85 -35t-72.5 -44.5t-50.5 -52.5t-19 -60q0 -53 25.5 -84.5 t67.5 -48t96 -21.5t112 -5q45 0 89.5 3t88.5 8q48 6 91.5 13t85.5 20l38 -349q-119 -24 -225.5 -34.5t-218.5 -10.5q-126 0 -233.5 29t-187 88t-124.5 150t-45 216q0 83 22.5 151.5t63.5 124t97.5 98.5t124.5 75zM787 1307q0 -34 -17.5 -70t-46 -65t-65.5 -48t-76 -19 q-36 0 -74 17t-68.5 44t-50.5 60.5t-20 66.5q0 36 20 71.5t51 64t67 46t69 17.5q35 0 72.5 -15.5t68 -41.5t50.5 -59t20 -69z"/>
<glyph arabic-form="initial" glyph-name="GhainIni" horiz-adv-x="971" unicode="غ" d="M0 0q-19 0 -41.5 9.5t-39.5 26.5v287q12 15 35 26t46 11q33 0 65 1.5t54 6.5q-14 22 -24.5 49.5t-17.5 56.5t-10.5 58t-3.5 53q0 108 39 193.5t107.5 145.5t160.5 91.5t198 31.5q56 0 129.5 -11.5t166.5 -44.5l-55 -298q-80 16 -132 19.5t-95 3.5q-45 0 -80.5 -12 t-61 -32t-40 -47.5t-16.5 -58.5q2 -26 10.5 -54t26.5 -52.5t46.5 -43.5t69.5 -27q50 2 95.5 6t89.5 9t88 11t91 13l30 -318l-203 -35q-73 -12 -154.5 -25.5t-172 -24.5t-191 -18t-210.5 -7zM700 1345q0 -34 -17.5 -70t-46 -65t-65.5 -48t-76 -19q-36 0 -74 17t-68.5 44 t-50.5 60.5t-20 66.5q0 36 20 71.5t51 64t67 46t69 17.5q35 0 72.5 -15.5t68 -41.5t50.5 -59t20 -69z"/>
<glyph arabic-form="medial" glyph-name="GhainMed" horiz-adv-x="1110" unicode="غ" d="M711 617q0 14 -7.5 30t-23.5 29t-41.5 21.5t-60.5 8.5q-23 0 -47 -4.5t-47.5 -11.5t-44.5 -16.5t-36 -18.5q18 -25 44.5 -58.5t54.5 -66.5t53.5 -61.5t42.5 -43.5q31 22 53 48t35 52t19 50t6 42zM0 0q-19 0 -41.5 9.5t-39.5 26.5v287q12 15 35 26t46 11q28 0 63 0.5 t70 1.5t66.5 3t52.5 4q-7 11 -21.5 30.5t-30.5 41t-31 40.5t-23 30l-34 -6l-84 239q70 84 145.5 137t148 84t138 42.5t117.5 11.5q48 0 100.5 -8.5t103.5 -27.5t96.5 -49t80 -73t55 -100t20.5 -129q0 -35 -5 -70.5t-14.5 -70t-24 -65.5t-32.5 -56q48 -5 87.5 -7.5t65.5 -2.5 v-360q-172 0 -299 28t-229 84q-50 -24 -118.5 -44.5t-146 -35.5t-159.5 -23.5t-158 -8.5zM758 1299q0 -34 -17.5 -70t-46 -65t-65.5 -48t-76 -19q-36 0 -74 17t-68.5 44t-50.5 60.5t-20 66.5q0 36 20 71.5t51 64t67 46t69 17.5q35 0 72.5 -15.5t68 -41.5t50.5 -59t20 -69z "/>
<glyph arabic-form="isolated" glyph-name="FehSep" horiz-adv-x="1986" unicode="ف" d="M1454 810q-25 0 -50.5 -11t-46.5 -31.5t-34 -48t-13 -60.5q0 -47 19.5 -81.5t53.5 -57t80 -34t98 -11.5h13t14 2q7 21 10.5 41.5t3.5 46.5q0 78 -11 126.5t-31 74.5t-47 35t-59 9zM905 339q28 0 67 1t79 2.5t76.5 3.5t59.5 4q-45 20 -83 51t-65 71.5t-42.5 90 t-15.5 106.5q0 84 37 165t102 144t154 101.5t193 38.5q98 0 170.5 -24t124 -65.5t84.5 -96t52 -116t26 -126t7 -124.5q0 -37 -3.5 -79.5t-11.5 -86.5t-20.5 -87.5t-29.5 -82.5q-44 -61 -134 -109t-210.5 -81.5t-264.5 -51.5t-297 -18q-113 0 -224.5 7.5t-213 29.5t-189 62 t-151.5 105t-100.5 158t-36.5 221q0 80 14 155t35 143l331 -20q-8 -35 -12.5 -61.5t-7 -49t-3 -42.5t-0.5 -43q0 -74 28 -129.5t89 -92.5t156 -55.5t230 -18.5zM1656 1415q0 -34 -17.5 -70t-46 -65t-65.5 -48t-76 -19q-36 0 -74 17t-68.5 44t-50.5 60.5t-20 66.5 q0 36 20 71.5t51 64t67 46t69 17.5q35 0 72.5 -15.5t68 -41.5t50.5 -59t20 -69z"/>
<glyph arabic-form="final" glyph-name="FehFin" horiz-adv-x="2014" unicode="ف" d="M1598 560q0 49 -11 85.5t-30.5 60t-45 35t-54.5 11.5q-24 0 -49 -10t-45.5 -28t-33 -44t-12.5 -59q0 -35 13.5 -64t43 -53.5t75 -45.5t109.5 -40q26 50 33 85t7 67zM2014 0q-50 0 -108 7t-116.5 19.5t-113.5 28.5t-98 34q-69 -32 -154 -60t-177.5 -48t-190 -31.5 t-191.5 -11.5q-87 0 -181.5 7.5t-185.5 29.5t-173 62t-144.5 105t-99 158t-36.5 221q0 40 1.5 75.5t7.5 74t17.5 84t30.5 104.5l325 -46q-9 -46 -14 -76t-7.5 -52.5t-3 -41t-0.5 -41.5q0 -74 28 -129.5t89 -92.5t156 -55.5t230 -18.5q26 0 46 0.5t41 2.5t46.5 5t63.5 9 q-35 35 -57.5 71t-35.5 72t-18.5 71t-5.5 68q0 55 17 110t48.5 105.5t75 93.5t97 75t115 50.5t128.5 18.5q75 0 138.5 -20t115 -54.5t90 -81.5t65 -101.5t39.5 -113.5t13 -118q0 -55 -11 -106.5t-27 -90.5q24 -4 42 -6t32 -3.5t26 -2t25 -0.5v-360zM1645 1361 q0 -34 -17.5 -70t-46 -65t-65.5 -48t-76 -19q-36 0 -74 17t-68.5 44t-50.5 60.5t-20 66.5q0 36 20 71.5t51 64t67 46t69 17.5q35 0 72.5 -15.5t68 -41.5t50.5 -59t20 -69z"/>
<glyph arabic-form="initial" glyph-name="FehIni" horiz-adv-x="1041" unicode="ف" d="M508 833q-25 0 -50.5 -11t-46.5 -31t-34 -47.5t-13 -60.5q0 -47 19.5 -81.5t53.5 -57.5t80 -34.5t98 -11.5h13t14 2q7 21 10.5 41.5t3.5 46.5q0 78 -11 126.5t-31 74.5t-47 35t-59 9zM0 0q-17 0 -38 9.5t-38 26.5v289q12 14 35 24.5t41 10.5q28 0 60.5 1t65 2.5t63 3.5 t53.5 4q-45 20 -83 51t-65 71.5t-42.5 90t-15.5 106.5q0 84 37 165t102 144t154 101.5t193 38.5q98 0 170.5 -24t124 -65.5t84.5 -96t52 -116t26 -126t7 -124.5q0 -36 -3.5 -78.5t-11.5 -87t-20.5 -88t-29.5 -82.5q-38 -46 -96.5 -82.5t-131.5 -64.5t-156 -48t-170 -32.5 t-175 -18t-169 -5.5h-23zM691 1421q0 -34 -17.5 -70t-46 -65t-65.5 -48t-76 -19q-36 0 -74 17t-68.5 44t-50.5 60.5t-20 66.5q0 36 20 71.5t51 64t67 46t69 17.5q35 0 72.5 -15.5t68 -41.5t50.5 -59t20 -69z"/>
<glyph arabic-form="medial" glyph-name="FehMed" horiz-adv-x="1097" unicode="ف" d="M680 560q0 49 -11 85.5t-30.5 60t-45 35t-54.5 11.5q-24 0 -49 -10t-45.5 -28t-33 -44t-12.5 -59q0 -35 13.5 -64t43 -53.5t75 -45.5t109.5 -40q26 50 33 85t7 67zM0 0q-17 0 -38.5 9.5t-38.5 26.5v289q12 14 35 24.5t42 10.5t41.5 1t43 3t37 4t22.5 4q-29 47 -52.5 107 t-23.5 126q0 55 17 110t48.5 105.5t75 93.5t97 75t115 50.5t128.5 18.5q75 0 138.5 -20t115 -54.5t90 -81.5t65 -101.5t39.5 -113.5t13 -118q0 -55 -11 -106.5t-27 -90.5q30 -5 50.5 -7t35 -3.5t23.5 -1.5h16v-360q-50 0 -108.5 7t-122.5 20.5t-132 34.5t-137 50 q-59 -23 -121 -43t-133.5 -35.5t-155.5 -24.5t-187 -9zM749 1358q0 -34 -17.5 -70t-46 -65t-65.5 -48t-76 -19q-36 0 -74 17t-68.5 44t-50.5 60.5t-20 66.5q0 36 20 71.5t51 64t67 46t69 17.5q35 0 72.5 -15.5t68 -41.5t50.5 -59t20 -69z"/>
<glyph arabic-form="isolated" glyph-name="QafSep" horiz-adv-x="1497" unicode="ق" d="M840 445q0 -45 38.5 -67t120.5 -22h112q0 25 -3.5 53t-10 54t-15.5 48.5t-20 38.5q-16 23 -38 35.5t-55 12.5q-24 0 -47 -13.5t-41.5 -35t-29.5 -49t-11 -55.5zM601 152q-20 23 -36.5 48.5t-28.5 56t-19 67t-7 82.5q0 55 15.5 114t45 114.5t72 105t96 87t117.5 59 t136 21.5q78 0 143.5 -24.5t117 -66.5t88.5 -97t59 -115q9 -26 17.5 -57t15 -74t10.5 -102t4 -142q0 -86 -9 -158.5t-22 -129.5t-26 -96.5t-22 -60.5q-32 -51 -96 -95.5t-149 -77.5t-185.5 -52t-203.5 -19q-156 0 -282 38.5t-215.5 114t-138 186.5t-48.5 256q0 82 11 170.5 t46 186.5l301 -47q-17 -57 -24.5 -104t-7.5 -93q0 -86 21.5 -153t69.5 -113t124.5 -70t187.5 -24q37 0 79 3t81 9.5t71 18t50 28.5q15 31 21 64h-51q-51 0 -111 6.5t-119 22t-111 43t-88 69.5zM797 983q-31 0 -65 16.5t-62.5 42t-47 57t-18.5 61.5q0 36 19 69t47 58.5 t60.5 41t60.5 15.5q21 0 44 -8t45 -22.5t42 -33.5t34 -40q12 25 32.5 47.5t45 39.5t50.5 27t49 10q28 0 60.5 -15t60.5 -40t47 -56t19 -63q0 -30 -18.5 -63t-47 -60.5t-62.5 -45.5t-65 -18q-23 0 -46 8t-44 22.5t-39 33t-31 39.5q-11 -24 -29.5 -46.5t-41.5 -39.5t-48.5 -27 t-50.5 -10z"/>
<glyph arabic-form="final" glyph-name="QafFin" horiz-adv-x="1508" unicode="ق" d="M840 445q0 -45 38.5 -67t120.5 -22h112q0 25 -3.5 53t-10 54t-15.5 48.5t-20 38.5q-16 23 -38 35.5t-55 12.5q-24 0 -47 -13.5t-41.5 -35t-29.5 -49t-11 -55.5zM601 152q-20 23 -36.5 48.5t-28.5 56t-19 67t-7 82.5q0 55 15.5 114t45 114.5t72 105t96 87t117.5 59 t136 21.5q78 0 143.5 -24.5t117 -66.5t88.5 -97t59 -115q19 -53 28 -117t14 -127h66v-360h-82q-2 -24 -8 -53t-14.5 -58t-17.5 -56.5t-18 -48.5q-32 -51 -96 -95.5t-149 -77.5t-185.5 -52t-203.5 -19q-156 0 -282 38.5t-215.5 114t-138 186.5t-48.5 256q0 41 2 78.5t7 74.5 t14 75.5t23 82.5l304 -30q-14 -57 -19 -99.5t-5 -88.5q0 -86 21.5 -150t69.5 -106t124.5 -63t187.5 -21q37 0 79 3t81 9.5t71 18t50 28.5q15 31 21 64h-51q-51 0 -111 6.5t-119 22t-111 43t-88 69.5zM800 983q-31 0 -65 16.5t-62.5 42t-47 57t-18.5 61.5q0 36 19 69t47 58.5 t60.5 41t60.5 15.5q21 0 44 -8t45 -22.5t42 -33.5t34 -40q12 25 32.5 47.5t45 39.5t50.5 27t49 10q28 0 60.5 -15t60.5 -40t47 -56t19 -63q0 -30 -18.5 -63t-47 -60.5t-62.5 -45.5t-65 -18q-23 0 -46 8t-44 22.5t-39 33t-31 39.5q-11 -24 -29.5 -46.5t-41.5 -39.5t-48.5 -27 t-50.5 -10z"/>
<glyph arabic-form="initial" glyph-name="QafIni" horiz-adv-x="1041" unicode="ق" d="M508 833q-25 0 -50.5 -11t-46.5 -31t-34 -47.5t-13 -60.5q0 -47 19.5 -81.5t53.5 -57.5t80 -34.5t98 -11.5h13t14 2q7 21 10.5 41.5t3.5 46.5q0 78 -11 126.5t-31 74.5t-47 35t-59 9zM0 0q-17 0 -38 9.5t-38 26.5v289q12 14 35 24.5t41 10.5q28 0 60.5 1t65 2.5t63 3.5 t53.5 4q-45 20 -83 51t-65 71.5t-42.5 90t-15.5 106.5q0 84 37 165t102 144t154 101.5t193 38.5q98 0 170.5 -24t124 -65.5t84.5 -96t52 -116t26 -126t7 -124.5q0 -36 -3.5 -78.5t-11.5 -87t-20.5 -88t-29.5 -82.5q-38 -46 -96.5 -82.5t-131.5 -64.5t-156 -48t-170 -32.5 t-175 -18t-169 -5.5h-23zM326 1227q-31 0 -65 16.5t-62.5 42t-47 57t-18.5 61.5q0 36 19 69t47 58.5t60.5 41t60.5 15.5q21 0 44 -8t45 -22.5t42 -33.5t34 -40q12 25 32.5 47.5t45 39.5t50.5 27t49 10q28 0 60.5 -15t60.5 -40t47 -56t19 -63q0 -30 -18.5 -63t-47 -60.5 t-62.5 -45.5t-65 -18q-23 0 -46 8t-44 22.5t-39 33t-31 39.5q-11 -24 -29.5 -46.5t-41.5 -39.5t-48.5 -27t-50.5 -10z"/>
<glyph arabic-form="medial" glyph-name="QafMed" horiz-adv-x="1097" unicode="ق" d="M680 560q0 49 -11 85.5t-30.5 60t-45 35t-54.5 11.5q-24 0 -49 -10t-45.5 -28t-33 -44t-12.5 -59q0 -35 13.5 -64t43 -53.5t75 -45.5t109.5 -40q26 50 33 85t7 67zM0 0q-17 0 -38.5 9.5t-38.5 26.5v289q12 14 35 24.5t42 10.5t41.5 1t43 3t37 4t22.5 4q-29 47 -52.5 107 t-23.5 126q0 55 17 110t48.5 105.5t75 93.5t97 75t115 50.5t128.5 18.5q75 0 138.5 -20t115 -54.5t90 -81.5t65 -101.5t39.5 -113.5t13 -118q0 -55 -11 -106.5t-27 -90.5q30 -5 50.5 -7t35 -3.5t23.5 -1.5h16v-360q-50 0 -108.5 7t-122.5 20.5t-132 34.5t-137 50 q-59 -23 -121 -43t-133.5 -35.5t-155.5 -24.5t-187 -9zM365 1129q-31 0 -65 16.5t-62.5 42t-47 57t-18.5 61.5q0 36 19 69t47 58.5t60.5 41t60.5 15.5q21 0 44 -8t45 -22.5t42 -33.5t34 -40q12 25 32.5 47.5t45 39.5t50.5 27t49 10q28 0 60.5 -15t60.5 -40t47 -56t19 -63 q0 -30 -18.5 -63t-47 -60.5t-62.5 -45.5t-65 -18q-23 0 -46 8t-44 22.5t-39 33t-31 39.5q-11 -24 -29.5 -46.5t-41.5 -39.5t-48.5 -27t-50.5 -10z"/>
<glyph arabic-form="isolated" glyph-name="KafSep" horiz-adv-x="1843" unicode="ك" d="M630 788q18 1 35.5 1.5t33.5 2.5q-17 25 -25 50t-8 51q0 52 19 95t52 74t77.5 48t94.5 17q30 0 74.5 -7t86.5 -23l-30 -144q-38 8 -66 11.5t-46 3.5q-47 0 -75 -25q-19 -19 -19 -50q0 -29 17.5 -51.5t44.5 -30.5q20 2 45 5t52 7t53 9t49 11l17 -161l-118 -19 q-64 -11 -155 -20t-191 -11zM1688 186q-34 -45 -90 -80.5t-125.5 -61.5t-149 -43.5t-160.5 -28.5t-160 -15.5t-147 -4.5q-408 0 -609.5 108t-201.5 345q0 26 2.5 57.5t7.5 65.5t12 69t17 67l300 -51q-7 -39 -9 -68.5t-2 -55.5q0 -51 25.5 -87t82.5 -58.5t149 -33t226 -10.5 q124 0 221 9t165 24t106.5 35t47.5 43q1 7 1.5 22t0.5 23q0 23 -0.5 85t-2 147t-5.5 187t-11.5 205t-19 200.5t-28.5 174.5l355 66l109 -272l-76 -54q4 -77 8 -147.5t6 -139.5t3.5 -139t1.5 -145q0 -43 -2 -101t-7 -118.5t-15 -118.5t-26 -100z"/>
<glyph arabic-form="final" glyph-name="KafFin" horiz-adv-x="1885" unicode="ك" d="M630 798q18 1 35.5 1.5t33.5 2.5q-17 25 -25 50t-8 51q0 52 19 95t52 74t77.5 48t94.5 17q30 0 74.5 -7t86.5 -23l-30 -144q-38 8 -66 11.5t-46 3.5q-47 0 -75 -25q-19 -19 -19 -50q0 -29 17.5 -51.5t44.5 -30.5q20 2 45 5t52 7t53 9t49 11l17 -161l-118 -19 q-64 -11 -155 -20t-191 -11zM1557 135q-47 -42 -122 -73t-171.5 -52t-212 -31.5t-244.5 -10.5q-195 0 -338.5 25.5t-237.5 79.5t-140 138.5t-46 203.5q0 52 7.5 106.5t27.5 119.5l304 -20q-7 -39 -9 -66.5t-2 -53.5q0 -51 25.5 -85.5t82.5 -56t149 -30.5t226 -9 q136 0 234.5 8.5t164 23.5t100.5 34.5t44 42.5q1 21 1.5 46.5t0.5 55.5q0 247 -16.5 479.5t-40.5 464.5l368 32q4 -95 6 -199t3.5 -205.5t2.5 -194t3 -164.5l3 -158q1 -47 3 -95t7 -78q22 -18 39.5 -28.5t34 -16t33.5 -7t38 -1.5v-360q-109 0 -190 30.5t-138 104.5z"/>
<glyph arabic-form="initial" glyph-name="KafIni" horiz-adv-x="935" unicode="ك" d="M0 360h63.5t79.5 0.5t85 1t82 1.5t70 2.5t49 4.5q30 5 50.5 11.5t23.5 17.5q-1 5 -5.5 12.5t-9.5 14.5q-12 18 -42 43t-70 53t-86.5 59t-93.5 62t-90 60t-75 54q-13 32 -15.5 65t-2.5 58q0 12 0.5 30t1.5 36.5t3 35t4 26.5q32 51 97.5 108.5t151 116.5t185.5 116.5 t202 108.5t200 92.5t179 69.5l148 -313q-58 -17 -128.5 -42t-146 -55.5t-152 -65.5t-146.5 -71t-129.5 -73t-101.5 -71q25 -17 63 -42t77.5 -51t74.5 -49.5t53 -37.5q58 -45 99.5 -85t67.5 -79.5t38 -80.5t12 -89q0 -5 -2 -19.5t-5 -26.5q-13 -62 -43.5 -113.5t-69.5 -92 t-83.5 -68.5t-85.5 -43q-38 -13 -88.5 -23t-119.5 -16.5t-160 -9.5t-209 -3q-17 0 -39.5 9t-39.5 27v289q12 14 36.5 24.5t42.5 10.5z"/>
<glyph arabic-form="medial" glyph-name="KafMed" horiz-adv-x="1126" unicode="ك" d="M152 360q37 0 71.5 1t64.5 3.5t54.5 7.5t40.5 13q-45 40 -95 89.5t-97.5 101t-87 100t-62.5 85.5q-4 22 -5 44.5t-1 50.5q0 9 0.5 24.5t2 33t2.5 34t3 27.5q31 51 98.5 112t157.5 124.5t195 127t212 119t208 100.5t182 73l141 -313q-77 -27 -158 -60t-162 -70 t-158.5 -76.5t-146 -79t-125 -78.5t-95.5 -74q24 -28 58 -63.5t73 -74.5t80.5 -78.5t81.5 -75.5t75.5 -67.5t63.5 -52.5q43 -33 80 -54t72.5 -33t71.5 -16.5t78 -4.5v-360q-61 0 -118 5t-110.5 18.5t-104.5 36.5t-99 59q-40 -30 -105 -52.5t-146.5 -37.5t-175.5 -22t-192 -7 h-75q-17 0 -40 9t-40 27v289q12 14 37 24.5t43 10.5h152z"/>
<glyph arabic-form="isolated" glyph-name="LamSep" horiz-adv-x="1307" unicode="ل" d="M1197 311q0 -76 -13 -153.5t-42.5 -149t-76.5 -133.5t-115.5 -108t-160 -72.5t-208.5 -26.5q-107 0 -203.5 32t-169 95.5t-115.5 157.5t-43 217q0 42 1.5 76t6 66.5t13 67.5t22.5 80l307 -23q-16 -65 -21.5 -112t-5.5 -76q0 -47 10.5 -89t36.5 -74t69.5 -51t110.5 -19 q90 0 143 28.5t80.5 74t35.5 103.5t8 117q0 18 -0.5 61t-2 105.5t-3.5 139.5t-5.5 161.5t-8 173.5t-10.5 175.5t-13.5 165.5t-17.5 145l348 43l102 -263l-77 -50q3 -82 6 -163.5t4.5 -148t2.5 -111t1 -53.5q0 -39 1 -90t1.5 -106.5t1 -110.5t0.5 -102z"/>
<glyph arabic-form="final" glyph-name="LamFin" horiz-adv-x="1345" unicode="ل" d="M1345 0q-44 0 -91.5 13t-87.5 45q-8 -119 -50.5 -212t-117.5 -156.5t-180 -96.5t-237 -33q-107 0 -203 32t-169 95.5t-116 157.5t-43 217q0 43 2 79t7.5 73t16.5 78t29 93l301 -47q-18 -63 -25 -115.5t-7 -81.5q0 -47 10.5 -89t36.5 -74t69.5 -51t110.5 -19 q90 0 142.5 28.5t80.5 74.5t36 104t8 117q0 18 -1 64t-2.5 111.5t-3.5 146.5t-4 170q-2 78 -6.5 176.5t-10.5 201t-14 200t-16 173.5l343 32q10 -94 15.5 -198t9 -205.5t5 -194.5t3.5 -165l4 -158q1 -35 2 -60.5t2.5 -45t3 -35t4.5 -30.5q32 -36 70.5 -45.5t72.5 -9.5v-360z "/>
<glyph arabic-form="initial" glyph-name="LamIni" horiz-adv-x="576" unicode="ل" d="M0 360q21 0 42.5 2.5t40 7t32 12t19.5 17.5q0 3 0.5 12.5t1 20.5t0.5 20.5v13.5q0 23 -0.5 84.5t-3 147t-7 187t-13 205t-21.5 201t-31 175.5l364 65l104 -275l-71 -41q4 -77 8 -147.5t6 -139.5t3.5 -139t1.5 -145q0 -43 -2.5 -102t-7.5 -121t-12.5 -121t-17.5 -101 q-34 -49 -84.5 -86t-109 -62t-121 -38t-121.5 -13q-17 0 -37.5 9.5t-34.5 26.5v288q11 15 32 25.5t40 10.5z"/>
<glyph arabic-form="medial" glyph-name="LamMed" horiz-adv-x="629" unicode="ل" d="M0 360q21 0 44 2.5t43 7.5t35.5 13t21.5 19q1 21 1.5 56.5t0.5 65.5q0 248 -16.5 483t-40.5 468l368 32q4 -95 6 -199t3.5 -205.5t2.5 -194t3 -164.5l3 -158q1 -47 3 -95t7 -78q17 -17 36.5 -27t39 -16t37 -8t31.5 -2v-360q-39 0 -78 6t-77 20.5t-76 39t-77 61.5 q-24 -32 -59 -56t-77 -39.5t-89.5 -23.5t-95.5 -8q-19 0 -41.5 9t-39.5 27v288q6 7 15.5 14t21 11.5t23 7.5t21.5 3z"/>
<glyph arabic-form="isolated" glyph-name="MeemSep" horiz-adv-x="1265" unicode="م" d="M776 302q16 0 36 2t38 6.5t32.5 11.5t21.5 18q8 23 8 69q0 37 -11.5 64.5t-29.5 45.5t-41 27t-46 9q-58 0 -96.5 -34t-66.5 -109q-3 -9 -8 -34t-9 -47q42 -8 84.5 -18.5t87.5 -10.5zM774 870q77 0 141 -19t115 -52.5t89.5 -79t64 -97.5t38.5 -108t13 -111q0 -94 -34 -184 t-93 -157q-46 -40 -128 -63.5t-191 -23.5q-57 0 -116.5 6.5t-114.5 19.5q-40 10 -80 16t-74 8q-24 -5 -37 -16t-18 -37v-35q0 -19 0.5 -54.5t1.5 -81t2.5 -97.5t3 -102t3 -95.5t3.5 -77.5l-353 -31v455q0 74 11 147.5t40.5 138t80.5 115.5t132 81q13 65 35.5 129.5t54 124 t73 111t92.5 89.5t112.5 59.5t132.5 21.5z"/>
<glyph arabic-form="final" glyph-name="MeemFin" horiz-adv-x="1288" unicode="م" d="M776 302q16 0 36 2t38 6.5t32.5 11.5t21.5 18q8 23 8 69q0 37 -11.5 64.5t-29.5 45.5t-41 27t-46 9q-58 0 -96.5 -34t-66.5 -109q-3 -9 -8 -34t-9 -47q42 -8 84.5 -18.5t87.5 -10.5zM774 870q77 0 141 -19t115 -52.5t89.5 -79t64 -97.5t38.5 -108t13 -111q0 -8 -0.5 -15 t-0.5 -14q15 -8 29.5 -11t24.5 -3v-360q-16 0 -37.5 2t-46 8.5t-51.5 18t-54 30.5q-48 -40 -128 -63t-184 -23q-57 0 -114 6t-112 19q-40 10 -81.5 17.5t-75.5 9.5q-24 -5 -37 -16t-18 -37v-35q0 -19 0.5 -54.5t1.5 -81t2.5 -97.5t3 -102t3 -95.5t3.5 -77.5l-353 9v415 q0 74 11 147.5t40.5 138t80.5 115.5t132 81q13 65 35.5 129.5t54 124t73 111t92.5 89.5t112.5 59.5t132.5 21.5z"/>
<glyph arabic-form="initial" glyph-name="MeemIni" horiz-adv-x="1011" unicode="م" d="M331 359q41 -29 93.5 -41.5t99.5 -12.5q30 0 61 8t48 25q8 17 10.5 39t2.5 46q0 28 -10 52.5t-27.5 42.5t-41 28.5t-50.5 10.5q-32 0 -58.5 -14.5t-49 -40.5t-42 -62.5t-36.5 -80.5zM0 0q-23 0 -44 10.5t-36 28.5v301q14 9 35 14.5t40 5.5q8 17 14 35q34 99 85.5 186 t119 151.5t150.5 101.5t179 37q105 0 186.5 -41t137.5 -106t85 -146t29 -162q0 -57 -12 -113t-35 -106.5t-57 -93.5t-79 -75q-22 -13 -53 -23.5t-64.5 -18t-66.5 -11.5t-59 -4q-62 0 -109.5 9.5t-89 24.5t-81 33t-85.5 35q-33 -29 -81.5 -51t-108.5 -22z"/>
<glyph arabic-form="medial" glyph-name="MeemMed" horiz-adv-x="1006" unicode="م" d="M0 383q39 105 87 191t108.5 146.5t137.5 94t175 33.5q106 0 188 -43t137.5 -111.5t84 -154t28.5 -170.5q4 -3 12.5 -5t17.5 -3t17.5 -1.5t12.5 -0.5v-359q-44 0 -92 10.5t-88 36.5q-35 -27 -75 -46t-81.5 -31t-82.5 -17.5t-78 -5.5q-47 0 -88.5 6t-81.5 18.5t-81 31.5 t-87 45q-14 -10 -29.5 -19t-35.5 -15.5t-45.5 -10t-60.5 -3.5q-15 0 -34.5 11.5t-28.5 25.5v285q8 14 24.5 24.5t28.5 12.5zM312 334q19 -14 44 -23.5t51.5 -15.5t52.5 -9t49 -3q26 0 53.5 8t44.5 25q8 17 10 38.5t2 45.5q0 28 -10 52t-27 42t-40 28.5t-49 10.5 q-31 0 -57 -15t-48.5 -41t-41 -63t-34.5 -80z"/>
<glyph arabic-form="isolated" glyph-name="NoonSep" horiz-adv-x="1291" unicode="ن" d="M416 445q-18 -63 -25 -115.5t-7 -81.5q0 -47 13.5 -89t43 -74t76.5 -51t114 -19q132 0 200 67.5t75 200.5q0 33 -12 87.5t-31.5 118t-43 129t-47.5 121.5l365 78q22 -68 40.5 -130t32 -123t21 -123.5t7.5 -132.5q0 -134 -38 -251t-116 -203.5t-196 -136.5t-277 -50 q-107 0 -207.5 32t-179.5 95.5t-126.5 157.5t-47.5 217q0 43 2 79t7.5 73t16.5 78t29 93zM818 987q0 -34 -17.5 -70t-46 -65t-65.5 -48t-76 -19q-36 0 -74 17t-68.5 44t-50.5 60.5t-20 66.5q0 36 20 71.5t51 64t67 46t69 17.5q35 0 72.5 -15.5t68 -41.5t50.5 -59t20 -69z "/>
<glyph arabic-form="final" glyph-name="NoonFin" horiz-adv-x="1298" unicode="ن" d="M416 338q-18 -63 -25 -115.5t-7 -81.5q0 -47 13.5 -89t43 -74t76.5 -51t114 -19q132 0 200 67.5t75 200.5q0 33 -12 83t-31 107.5t-42.5 118.5t-47.5 117l354 108q27 -85 46 -162t32 -160q6 -8 17 -13.5t24.5 -8.5t27 -4.5t24.5 -1.5v-360q-17 0 -42.5 5t-54.5 17 q-21 -105 -66.5 -190t-118 -145.5t-173 -93.5t-232.5 -33q-107 0 -207.5 32t-179.5 95.5t-126.5 157.5t-47.5 217q0 43 2.5 84t8.5 83.5t17.5 88.5t29.5 98zM799 877q0 -34 -17.5 -70t-46 -65t-65.5 -48t-76 -19q-36 0 -74 17t-68.5 44t-50.5 60.5t-20 66.5q0 36 20 71.5 t51 64t67 46t69 17.5q35 0 72.5 -15.5t68 -41.5t50.5 -59t20 -69z"/>
<glyph arabic-form="initial" glyph-name="NoonIni" horiz-adv-x="600" unicode="ن" d="M448 1251q0 -34 -17.5 -70t-46 -65t-65.5 -48t-76 -19q-36 0 -74 17t-68.5 44t-50.5 60.5t-20 66.5q0 36 20 71.5t51 64t67 46t69 17.5q35 0 72.5 -15.5t68 -41.5t50.5 -59t20 -69zM0 0q-21 0 -42.5 10.5t-38.5 27.5v285q12 15 35 26t46 11q27 0 56.5 1.5t56.5 6t48.5 13 t32.5 22.5q2 11 3.5 23.5t1.5 20.5q0 48 -2.5 86.5t-11 83t-24.5 103t-44 146.5l345 118q25 -75 41 -134.5t25.5 -113t13 -106.5t3.5 -115q0 -40 -3 -82t-9.5 -83t-16 -79.5t-22.5 -71.5q-43 -60 -106.5 -98.5t-133 -61t-137 -31t-117.5 -8.5z"/>
<glyph arabic-form="medial" glyph-name="NoonMed" horiz-adv-x="624" unicode="ن" d="M451 1158q0 -34 -17.5 -70t-46 -65t-65.5 -48t-76 -19q-36 0 -74 17t-68.5 44t-50.5 60.5t-20 66.5q0 36 20 71.5t51 64t67 46t69 17.5q35 0 72.5 -15.5t68 -41.5t50.5 -59t20 -69zM0 0q-21 0 -42.5 10.5t-38.5 27.5v285q12 15 35 26t46 11q20 0 43.5 3.5t44.5 9t37.5 13 t24.5 15.5q3 8 5 19.5t3.5 24.5t2 24.5t0.5 19.5q0 75 -12 147.5t-38 151.5l332 97q27 -68 42.5 -133.5t15.5 -138.5q0 -44 -4 -95.5t-13 -104.5q15 -16 34.5 -26.5t39 -16.5t37 -8t29.5 -2v-360q-84 0 -155 28.5t-133 98.5q-38 -35 -81 -59t-87.5 -39t-87.5 -22t-80 -7z "/>
<glyph arabic-form="isolated" glyph-name="HehSep" horiz-adv-x="1089" unicode="ه" d="M545 328q60 0 105.5 10t68.5 32q11 17 15.5 41t3.5 46q-2 39 -15 74t-35.5 61.5t-53 42t-67.5 15.5q-35 0 -68 -15t-59.5 -40.5t-44 -60t-21.5 -74.5q0 -38 14 -63t38 -40.5t55 -22t64 -6.5zM542 -10q-58 0 -116.5 9t-112.5 29.5t-100.5 54t-79.5 83.5q-35 51 -54 114.5 t-19 152.5q0 66 18.5 131.5t52 126t80 112.5t102.5 90.5t120 60.5t132 22q110 0 199.5 -42.5t152.5 -114.5t97.5 -165.5t34.5 -195.5q0 -113 -24.5 -193t-66.5 -144q-32 -30 -77.5 -54t-100 -41.5t-115 -26.5t-123.5 -9z"/>
<glyph arabic-form="final" glyph-name="HehFin" horiz-adv-x="1087" unicode="ه" d="M546 408q8 0 21 0.5t27 1t26 1.5t18 2q-5 32 -8.5 66t-5.5 69q-2 38 -3.5 77t-1.5 71q-37 -7 -78.5 -24t-77 -41t-58.5 -55t-23 -65q0 -27 7.5 -46t26 -32t50.5 -19t80 -6zM1087 0q-50 0 -104.5 4.5t-107 21.5t-98 49.5t-76.5 89.5q-24 -14 -58.5 -26t-71.5 -21 t-72.5 -14t-62.5 -5q-82 0 -151 23t-119 66.5t-78 107.5t-28 146t26 162.5t88.5 153t167 134t260.5 107.5v64l322 30q2 -76 6 -154.5t9 -153t10.5 -142t10.5 -120.5t9.5 -89t6.5 -47q20 -15 49.5 -21t61.5 -6v-360z"/>
<glyph arabic-form="initial" glyph-name="HehIni" horiz-adv-x="1317" unicode="ه" d="M54 360q10 0 18 2q-11 29 -17.5 56.5t-6.5 66.5q0 87 34 153t87 111.5t118 70.5t127 29q-52 11 -107.5 17.5t-113.5 8.5l57 324q112 -5 231.5 -28.5t233 -67t215 -108.5t177.5 -154.5t120.5 -205t44.5 -258.5q0 -71 -14 -141.5t-39 -127.5q-27 -30 -62 -51.5t-75.5 -35 t-85 -20t-88.5 -6.5q-56 0 -112 7.5t-110.5 19.5t-105 26.5t-94.5 28.5q-39 -13 -87.5 -26.5t-108.5 -25t-132 -18.5t-158 -7q-18 0 -39.5 2t-42.5 6t-38.5 10.5t-28.5 15.5v292q7 7 22.5 13.5t36 11t43.5 7t47 2.5h54zM525 468q0 60 -29 90.5t-68 30.5q-41 0 -63.5 -24 t-22.5 -56q0 -18 7 -39.5t25 -43t48 -41t76 -34.5q5 10 10 25.5t8.5 32t6 32.5t2.5 27zM882 312h28q2 0 5 -1q9 0 18 2l6 16.5t3 10t1.5 9.5t0.5 14q0 115 -64 211t-175 164q54 -56 83 -129t29 -154q0 -78 -13 -133q20 -5 42 -7.5t36 -2.5z"/>
<glyph arabic-form="medial" glyph-name="HehMed" horiz-adv-x="1345" unicode="ه" d="M54 360q10 0 18 2q-11 29 -17.5 56.5t-6.5 66.5q0 87 34 153t87 111.5t118 70.5t127 29q-52 11 -106 25.5t-112 16.5l104 298q107 -5 221 -27.5t222 -65t204 -106.5t168.5 -152.5t114.5 -203t42 -257.5v-12q19 -3 38 -4t35 -1v-360q-59 0 -111 13.5t-103 45.5 q-47 -32 -103.5 -48t-119.5 -16q-56 0 -112 7.5t-110.5 19.5t-105 26.5t-94.5 28.5q-39 -13 -87.5 -26.5t-108.5 -25t-132 -18.5t-158 -7q-18 0 -39.5 2t-42.5 6t-38.5 10.5t-28.5 15.5v292q7 7 22.5 13.5t36 11t43.5 7t47 2.5h54zM525 468q0 60 -29 90.5t-68 30.5 q-41 0 -63.5 -24t-22.5 -56q0 -18 7 -39.5t25 -43t48 -41t76 -34.5q5 10 10 25.5t8.5 32t6 32.5t2.5 27zM874 312q26 0 39.5 3.5t24.5 8.5q5 9 5.5 18.5t0.5 20.5q0 115 -64 211t-175 164q54 -56 83 -129t29 -154q0 -78 -13 -133q20 -5 38 -7.5t32 -2.5z"/>
<glyph arabic-form="isolated" glyph-name="WawSep" horiz-adv-x="1084" unicode="و" d="M430 445q0 -45 38.5 -67t120.5 -22h112q0 25 -3.5 53t-10 54t-15.5 48.5t-20 38.5q-16 23 -38 35.5t-55 12.5q-24 0 -47 -13.5t-41.5 -35t-29.5 -49t-11 -55.5zM605 39q-6 -1 -17 -2t-23.5 -2t-23.5 -1.5t-16 -0.5q-117 0 -201.5 31.5t-132.5 87.5q-20 23 -36.5 48.5 t-28.5 56t-19 67t-7 82.5q0 55 15.5 114t45 114.5t72 105t96 87t117.5 59t136 21.5q78 0 143.5 -24.5t117 -66.5t88.5 -97t59 -115q11 -32 19.5 -66.5t14 -69.5t8 -69.5t2.5 -65.5q0 -35 -3 -73t-9.5 -77t-16 -76.5t-22.5 -70.5q-24 -61 -66 -126t-116 -129t-187.5 -124.5 t-281.5 -112.5l-138 306q59 13 120 32.5t116 43t100.5 49.5t73.5 52z"/>
<glyph arabic-form="final" glyph-name="WawFin" horiz-adv-x="1095" unicode="و" d="M430 445q0 -45 38.5 -67t120.5 -22h112q0 25 -3.5 53t-10 54t-15.5 48.5t-20 38.5q-16 23 -38 35.5t-55 12.5q-24 0 -47 -13.5t-41.5 -35t-29.5 -49t-11 -55.5zM582 21q-140 4 -239.5 37t-151.5 94q-20 23 -36.5 48.5t-28.5 56t-19 67t-7 82.5q0 55 15.5 114t45 114.5 t72 105t96 87t117.5 59t136 21.5q78 0 143.5 -24.5t117 -66.5t88.5 -97t59 -115q20 -57 30.5 -121t12.5 -123h62v-360h-128q-27 -58 -71 -118.5t-117 -119.5t-179 -114t-256 -101l-172 294q51 12 109.5 30.5t114.5 41.5t104.5 48t79.5 49z"/>
<glyph arabic-form="isolated" glyph-name="YehxSep" horiz-adv-x="1589" unicode="ى" d="M1221 598q49 -22 89 -41.5t73 -40.5t59 -46t46 -57q26 -42 33 -83.5t7 -71.5q0 -103 -47.5 -198t-145.5 -168t-249.5 -117t-358.5 -44q-138 0 -263 28.5t-219 91.5t-149.5 163t-55.5 243q0 42 4 80.5t14 79t26 85.5t39 102l315 -64q-15 -44 -24.5 -75.5t-14 -56.5t-6 -46 t-1.5 -43q0 -63 30 -109t82.5 -75t123 -43t151.5 -14q89 0 162 9.5t125 26t80.5 40t28.5 52.5v11q-35 29 -82.5 53.5t-106.5 49.5q-56 24 -101 45.5t-80 42.5t-61 43t-44 47q-3 33 -4 54.5t-1 38.5q0 49 6 91.5t19.5 81.5t34.5 77t50 79q38 53 81.5 90.5t90 62.5t93 39.5 t89 22t79 9.5t63.5 2q19 0 48 -2t62 -7t66 -14t62 -24l-75 -297q-32 5 -75.5 11.5t-81.5 6.5q-41 0 -85.5 -6.5t-82.5 -22t-66.5 -40t-37.5 -60.5q6 -7 17.5 -14t32.5 -17.5t54 -25t82 -36.5z"/>
<glyph arabic-form="final" glyph-name="YehxFin" horiz-adv-x="1402" unicode="ى" d="M1465 20q-13 -120 -67.5 -211.5t-145 -153.5t-215 -93.5t-277.5 -31.5q-159 0 -290 37t-224.5 110t-144.5 182.5t-51 254.5q0 82 20 180.5t55 197.5l317 -47q-18 -63 -29.5 -123.5t-11.5 -117.5q0 -174 100.5 -250t303.5 -76q60 0 121 12t111 37t81.5 64t31.5 93 q0 7 -0.5 12.5t-1.5 12.5q-20 15 -41 33t-45 43.5t-53 61.5t-65 86l262 219q33 -46 63.5 -81.5t56 -60t45 -37.5t31.5 -13v-312z"/>
<glyph arabic-form="isolated" glyph-name="YehSep" horiz-adv-x="1589" unicode="ي" d="M1221 598q49 -22 89 -41.5t73 -40.5t59 -46t46 -57q26 -42 33 -83.5t7 -71.5q0 -103 -47.5 -198t-145.5 -168t-249.5 -117t-358.5 -44q-138 0 -263 28.5t-219 91.5t-149.5 163t-55.5 243q0 42 4 80.5t14 79t26 85.5t39 102l315 -64q-15 -44 -24.5 -75.5t-14 -56.5t-6 -46 t-1.5 -43q0 -63 30 -109t82.5 -75t123 -43t151.5 -14q89 0 162 9.5t125 26t80.5 40t28.5 52.5v11q-35 29 -82.5 53.5t-106.5 49.5q-56 24 -101 45.5t-80 42.5t-61 43t-44 47q-3 33 -4 54.5t-1 38.5q0 49 6 91.5t19.5 81.5t34.5 77t50 79q38 53 81.5 90.5t90 62.5t93 39.5 t89 22t79 9.5t63.5 2q19 0 48 -2t62 -7t66 -14t62 -24l-75 -297q-32 5 -75.5 11.5t-81.5 6.5q-41 0 -85.5 -6.5t-82.5 -22t-66.5 -40t-37.5 -60.5q6 -7 17.5 -14t32.5 -17.5t54 -25t82 -36.5zM636 -706q-31 0 -65 16.5t-62.5 42t-47 57t-18.5 61.5q0 36 19 69t47 58.5 t60.5 41t60.5 15.5q20 0 42.5 -8t44 -21.5t41 -32t34.5 -38.5q13 23 33.5 44.5t43.5 38.5t47 27t46 10q28 0 60.5 -15t60.5 -40t47 -56t19 -63q0 -30 -16.5 -63t-43.5 -60.5t-60 -45.5t-66 -18q-22 0 -45 8t-44.5 22t-40 32t-32.5 38q-12 -23 -30.5 -44.5t-40.5 -38t-46 -27 t-48 -10.5z"/>
<glyph arabic-form="final" glyph-name="YehFin" horiz-adv-x="1402" unicode="ي" d="M1465 20q-13 -120 -67.5 -211.5t-145 -153.5t-215 -93.5t-277.5 -31.5q-159 0 -290 37t-224.5 110t-144.5 182.5t-51 254.5q0 82 20 180.5t55 197.5l317 -47q-18 -63 -29.5 -123.5t-11.5 -117.5q0 -174 100.5 -250t303.5 -76q60 0 121 12t111 37t81.5 64t31.5 93 q0 7 -0.5 12.5t-1.5 12.5q-20 15 -41 33t-45 43.5t-53 61.5t-65 86l262 219q33 -46 63.5 -81.5t56 -60t45 -37.5t31.5 -13v-312zM626 -906q-31 0 -65 16.5t-62.5 42t-47 57t-18.5 61.5q0 36 19 69t47 58.5t60.5 41t60.5 15.5q20 0 42.5 -8t44 -21.5t41 -32t34.5 -38.5 q13 23 33.5 44.5t43.5 38.5t47 27t46 10q28 0 60.5 -15t60.5 -40t47 -56t19 -63q0 -30 -16.5 -63t-43.5 -60.5t-60 -45.5t-66 -18q-22 0 -45 8t-44.5 22t-40 32t-32.5 38q-12 -23 -30.5 -44.5t-40.5 -38t-46 -27t-48 -10.5z"/>
<glyph arabic-form="initial" glyph-name="YehIni" horiz-adv-x="600" unicode="ي" d="M9 -441q-31 0 -65 16.5t-62.5 42t-47 57t-18.5 61.5q0 36 19 69t47 58.5t60.5 41t60.5 15.5q20 0 42.5 -8t44 -21.5t41 -32t34.5 -38.5q13 23 33.5 44.5t43.5 38.5t47 27t46 10q28 0 60.5 -15t60.5 -40t47 -56t19 -63q0 -30 -16.5 -63t-43.5 -60.5t-60 -45.5t-66 -18 q-22 0 -45 8t-44.5 22t-40 32t-32.5 38q-12 -23 -30.5 -44.5t-40.5 -38t-46 -27t-48 -10.5zM0 0q-21 0 -42.5 10.5t-38.5 27.5v285q12 15 35 26t46 11q27 0 56.5 1.5t56.5 6t48.5 13t32.5 22.5q2 11 3.5 23.5t1.5 20.5q0 48 -5.5 96.5t-18 101.5t-33 110.5t-50.5 123.5 l345 100q28 -63 48 -120t33.5 -112.5t20 -112.5t6.5 -119q0 -40 -3 -82t-9.5 -83t-16 -79.5t-22.5 -71.5q-43 -60 -106.5 -98.5t-133 -61t-137 -31t-117.5 -8.5z"/>
<glyph arabic-form="medial" glyph-name="YehMed" horiz-adv-x="624" unicode="ي" d="M-19 -491q-31 0 -65 16.5t-62.5 42t-47 57t-18.5 61.5q0 36 19 69t47 58.5t60.5 41t60.5 15.5q20 0 42.5 -8t44 -21.5t41 -32t34.5 -38.5q13 23 33.5 44.5t43.5 38.5t47 27t46 10q28 0 60.5 -15t60.5 -40t47 -56t19 -63q0 -30 -16.5 -63t-43.5 -60.5t-60 -45.5t-66 -18 q-22 0 -45 8t-44.5 22t-40 32t-32.5 38q-12 -23 -30.5 -44.5t-40.5 -38t-46 -27t-48 -10.5zM0 0q-21 0 -42.5 10.5t-38.5 27.5v285q12 15 35 26t46 11q20 0 43.5 3.5t44.5 9t37.5 13t24.5 15.5q3 8 5 19.5t3.5 24.5t2 24.5t0.5 19.5q0 85 -22.5 162.5t-52.5 152.5l350 61 q31 -64 48 -135t17 -144q0 -44 -4.5 -87.5t-13.5 -96.5q16 -12 35.5 -20.5t39 -13t37 -6.5t29.5 -2v-360q-42 0 -79.5 5t-72.5 17.5t-69 35t-68 58.5q-38 -35 -81 -57.5t-87 -35.5t-87 -18t-80 -5z"/>
<glyph glyph-name=".notdef" d="M250 574l99 142l-99 141v-283zM695 716l100 -144v287zM523 468l-123 -174h243zM523 964l120 174h-244zM-30 1431h1104v-1431h-1104v1431z" horiz-adv-x="1126"/>
<glyph glyph-name=".null"/>
<glyph glyph-name="nonmarkingreturn" horiz-adv-x="682"/>
<glyph glyph-name="space" horiz-adv-x="451" unicode=" "/>
<glyph glyph-name="exclam" horiz-adv-x="614" unicode="!" d="M78 164q0 41 12.5 78.5t39.5 65.5t70 44.5t105 16.5q60 0 103.5 -16.5t71.5 -44.5t41.5 -65.5t13.5 -78.5q0 -40 -12.5 -76t-39.5 -63.5t-71 -43.5t-107 -16q-62 0 -105 18.5t-70 48t-39.5 64.5t-12.5 68zM463 440l-309 49l-113 951l532 39z"/>
<glyph glyph-name="quotedbl" horiz-adv-x="952" unicode='&quot;' d="M829 965l-256 -33l-61 588h399zM358 965l-256 -33l-61 588h399z"/>
<glyph glyph-name="numbersign" horiz-adv-x="1395" unicode="#" d="M559 623l184 6l52 211h-177zM680 371h-188l-86 -320l-283 -33l80 357l-158 2v229l211 6l53 232h-172v237l228 6l71 320l334 -6l-82 -303l170 4l74 305l311 -6l-74 -289l185 6l-31 -280h-223l-51 -199l170 6l-29 -280h-213l-82 -326l-299 -21z"/>
<glyph glyph-name="dollar" horiz-adv-x="1155" unicode="$" d="M635 1100q-59 0 -96 -24.5t-37 -67.5q0 -39 43.5 -67t116.5 -54q43 -16 91 -35.5t94.5 -45t89.5 -58.5t75.5 -77t51.5 -99.5t19 -125.5q0 -78 -24.5 -144t-70.5 -117.5t-112 -87t-149 -52.5l29 -252h-264l12 240q-125 9 -241 53t-222 137l252 279q68 -79 137.5 -120.5 t134.5 -41.5t95 22t30 64q0 22 -14 41.5t-37 36.5q-34 26 -79 47t-79 37q-63 28 -128.5 61t-119.5 79.5t-88 111.5t-34 157q0 81 26 149t76.5 119.5t123.5 85.5t167 48l-12 164h264l-19 -160q96 -11 188 -47t189 -107l-205 -268q-24 23 -52 44.5t-61.5 38t-73 26.5t-87.5 10 z"/>
<glyph glyph-name="percent" horiz-adv-x="1767" unicode="%" d="M395 899q42 0 63 40.5t21 109.5q0 61 -21 99t-63 38q-20 0 -35 -12t-25.5 -33t-16 -48t-5.5 -57q0 -35 7 -61t18.5 -43t26.5 -25t30 -8zM389 651q-79 0 -143.5 27t-110 77.5t-70 121.5t-24.5 159q0 86 26.5 159t73.5 126t113 83t145 30q69 0 132.5 -25t111.5 -73.5 t76.5 -119t28.5 -161.5q0 -76 -24 -148.5t-69.5 -129.5t-112.5 -91.5t-153 -34.5zM1374 217q42 0 63 40.5t21 109.5q0 62 -21 99.5t-63 37.5q-20 0 -35 -12t-25.5 -33t-16 -48t-5.5 -57q0 -35 7 -61t18.5 -43t26.5 -25t30 -8zM1368 -31q-79 0 -143.5 27t-110 77.5t-70 121.5 t-24.5 159q0 86 26.5 159t73.5 126t113 83t145 30q69 0 132 -25t111 -73.5t76.5 -119t28.5 -161.5q0 -76 -23.5 -148.5t-69.5 -129.5t-112.5 -91.5t-152.5 -34.5zM1120 1415h305l-782 -1419h-307z"/>
<glyph glyph-name="ampersand" horiz-adv-x="1401" unicode="&amp;" d="M492 1116q0 -35 24.5 -80.5t65.5 -95.5q60 42 98.5 87.5t38.5 102.5q0 45 -28 71t-81 26q-33 0 -55.5 -8.5t-36.5 -23.5t-20 -35.5t-6 -43.5zM600 250q97 0 170 43l-270 276q-38 -35 -61 -77t-23 -95q0 -44 16.5 -72t42.5 -45t59 -23.5t66 -6.5zM1085 -31l-124 129 q-84 -62 -180.5 -95.5t-209.5 -33.5q-260 0 -395 107.5t-135 304.5q0 68 22 125t59.5 104.5t86 88t102.5 75.5q-72 90 -116.5 173t-44.5 157q0 82 27.5 152t85 121.5t147 80.5t213.5 29q123 0 207.5 -28t136.5 -75t75 -108t23 -127q0 -75 -26 -134.5t-68.5 -107.5t-97 -87 t-111.5 -75l203 -202q23 60 38.5 122t24.5 123l311 -55q-59 -221 -168 -399l199 -199z"/>
<glyph glyph-name="quotesingle" horiz-adv-x="481" unicode="&apos;" d="M358 965l-256 -33l-61 588h399z"/>
<glyph glyph-name="parenleft" horiz-adv-x="715" unicode="(" d="M670 1360q-80 -103 -142 -225q-27 -52 -52 -114t-45 -131t-32 -145t-12 -157q0 -95 12.5 -182t33.5 -164t47.5 -144t54.5 -122q65 -129 149 -230l-233 -162q-115 101 -205 247q-39 62 -75.5 140t-65.5 171.5t-46.5 203.5t-17.5 236q0 112 17.5 213t46 190t64.5 165.5 t74 139.5q89 148 203 262z"/>
<glyph glyph-name="parenright" horiz-adv-x="715" unicode=")" d="M45 -223q79 103 141 225q27 52 52.5 114t45.5 131t32 145t12 157q0 95 -13 182t-34 164t-47.5 143.5t-54.5 121.5q-65 129 -148 231l233 161q114 -102 205 -247q38 -62 75 -139.5t66 -171.5t46.5 -203.5t17.5 -235.5q0 -112 -17.5 -213t-46 -190.5t-65 -166t-74.5 -139.5 q-90 -148 -203 -262z"/>
<glyph glyph-name="asterisk" horiz-adv-x="1053" unicode="*" d="M721 1063v-8l291 -74l-123 -285l-236 236l-6 -4l72 -320h-322l60 316l-6 4l-213 -246l-183 281l314 75v9l-328 106l162 266l237 -221l6 6l-55 295l301 -14l-57 -277l6 -4l221 223l127 -278z"/>
<glyph glyph-name="plus" horiz-adv-x="1178" unicode="+" d="M752 1182l-9 -441l373 15v-330h-377l-6 -395h-295l-12 395h-365v289l357 14l-10 408z"/>
<glyph glyph-name="comma" horiz-adv-x="635" unicode="," d="M244 0q-48 6 -80.5 24t-52 43.5t-27.5 57t-8 65.5q0 45 16 85t47.5 70t79 47.5t111.5 17.5q61 0 106.5 -17.5t76.5 -49.5t46.5 -77.5t15.5 -101.5q0 -77 -21 -141.5t-54.5 -118t-74 -94.5t-80 -71t-73.5 -48t-53 -25l-119 158q22 17 44.5 33t42 36t35 45.5t22.5 61.5z "/>
<glyph glyph-name="hyphen" horiz-adv-x="778" unicode="-" d="M41 717h696v-330l-696 -39v369z"/>
<glyph glyph-name="period" horiz-adv-x="635" unicode="." d="M82 182q0 47 13.5 88.5t42.5 72.5t75.5 49t112.5 18q64 0 110.5 -18t77 -49t45 -72.5t14.5 -88.5q0 -44 -13.5 -83t-43 -69t-76.5 -47.5t-114 -17.5q-66 0 -112.5 20.5t-75.5 52.5t-42.5 70.5t-13.5 73.5z"/>
<glyph glyph-name="slash" horiz-adv-x="1051" unicode="/" d="M346 -221l-326 37l697 1704h313z"/>
<glyph glyph-name="zero" horiz-adv-x="1274" unicode="0" d="M643 309q55 0 92.5 31t59.5 87t31.5 133.5t9.5 170.5q0 90 -11 162t-35.5 122.5t-63 77.5t-93.5 27q-53 0 -89.5 -35t-59 -94t-32.5 -137t-10 -164q0 -98 14 -170t40 -119t63 -69.5t84 -22.5zM635 -43q-144 0 -254.5 51.5t-186 147.5t-114.5 232t-39 306q0 163 41 302.5 t118.5 241t188.5 159t252 57.5q131 0 240 -47.5t187 -139.5t121.5 -227t43.5 -309q0 -98 -15 -193.5t-46.5 -181.5t-79.5 -159t-114.5 -126.5t-152 -83.5t-190.5 -30z"/>
<glyph glyph-name="one" horiz-adv-x="778" unicode="1" d="M713 -2h-590l-4 207l117 24l-17 856l-158 -12v266l586 105l-31 -1221l101 -24z"/>
<glyph glyph-name="two" horiz-adv-x="1143" unicode="2" d="M45 1186q60 76 144 136q36 25 80 49.5t96 44t111.5 31t127.5 11.5q127 0 221 -33t155.5 -91t91.5 -137t30 -171q0 -104 -45 -196.5t-125 -181t-190 -177t-240 -182.5l2 -8h303l39 127l221 8v-432l-1036 32v291q132 111 254 207t216 181t150 159.5t56 142.5q0 37 -10.5 63 t-29 42t-43.5 23.5t-53 7.5q-42 0 -79 -15t-70.5 -41t-64.5 -60t-62 -73z"/>
<glyph glyph-name="three" horiz-adv-x="1149" unicode="3" d="M348 1049h-221l-31 299q57 34 128 61q61 23 145 42t186 19q56 0 118 -6.5t123 -22.5t116.5 -44t97.5 -71t67 -102.5t25 -138.5q0 -51 -11 -92t-29 -74t-40.5 -58.5t-46.5 -43.5q-56 -44 -127 -65v-9q73 -18 130 -60q24 -18 47.5 -43t42 -59t29.5 -77.5t11 -97.5 q0 -110 -42 -192t-114 -136.5t-168.5 -81.5t-205.5 -27q-73 0 -135.5 10t-115.5 26t-96.5 36.5t-77.5 41.5q-80 50 -133 114l236 235q29 -42 69 -75q35 -28 86 -51t119 -23q89 0 130.5 44.5t41.5 116.5q0 36 -14 65.5t-42 51t-70.5 33.5t-100.5 12h-82l-10 285h55 q124 0 192 37t68 119q0 36 -14 61.5t-37.5 41t-53.5 23t-61 7.5q-38 0 -69.5 -7t-54.5 -15q-27 -10 -48 -21z"/>
<glyph glyph-name="four" horiz-adv-x="1270" unicode="4" d="M432 522l322 27v442l-324 -461zM1100 1454l-19 -907l158 10l-25 -315h-141l-12 -215l-332 -31v246h-688v295l680 917h379z"/>
<glyph glyph-name="five" horiz-adv-x="1176" unicode="5" d="M1083 1090l-530 30l-31 -217q300 0 456.5 -111t156.5 -331q0 -101 -36 -190t-107 -156.5t-176.5 -106.5t-244.5 -39q-73 0 -134.5 10t-113 26t-93 36.5t-74.5 42.5q-77 50 -125 115l235 239q30 -42 70 -75q34 -28 81.5 -51t108.5 -23q48 0 83 12.5t58 35t34.5 53.5 t11.5 67t-12 69.5t-40 59.5t-74 41.5t-114 15.5q-59 0 -117 -5t-105 -11q-55 -7 -104 -15l78 824l883 -21z"/>
<glyph glyph-name="six" horiz-adv-x="1180" unicode="6" d="M623 293q35 0 64 14.5t49.5 40.5t32 62.5t11.5 81.5q0 89 -39 141.5t-116 52.5q-44 0 -75.5 -16.5t-51.5 -43.5t-29.5 -60t-9.5 -66q0 -65 14 -105.5t36.5 -63t52 -30.5t61.5 -8zM899 1063q-29 29 -64 52q-30 20 -72 36t-93 16q-52 0 -95 -13.5t-75.5 -48.5t-53 -96 t-26.5 -155q19 17 45.5 34.5t61 32t76.5 24t93 9.5q89 0 169.5 -29t141 -85t96.5 -138t36 -188q0 -122 -40 -217.5t-111.5 -161t-169.5 -99.5t-214 -34q-137 0 -242.5 49.5t-176.5 140.5t-107.5 219.5t-36.5 286.5q0 105 14.5 204t46 186t81.5 159t122 123.5t166.5 80 t214.5 28.5q110 0 189.5 -23.5t130.5 -52.5q60 -33 100 -76z"/>
<glyph glyph-name="seven" horiz-adv-x="1145" unicode="7" d="M1114 1434v-267l-520 -1177l-428 65l577 1065l-391 -10l-22 -149h-271l-28 473h1083z"/>
<glyph glyph-name="eight" horiz-adv-x="1200" unicode="8" d="M303 764q-42 20 -79 47.5t-64.5 66t-43.5 91t-16 121.5q0 90 40 160t109.5 117.5t163.5 72t203 24.5q105 0 198 -24.5t162.5 -73.5t110.5 -121t41 -166q0 -71 -18.5 -123.5t-48.5 -91.5t-68.5 -65.5t-77.5 -44.5q48 -18 92.5 -47.5t78 -73.5t53.5 -104t20 -138 q0 -76 -31 -151t-96.5 -135t-168 -97t-245.5 -37q-153 0 -262.5 35.5t-179.5 94t-102.5 134t-32.5 154.5q0 88 26 153t65 110t85 72.5t86 39.5zM424 430q0 -32 11.5 -62t34 -52.5t55.5 -36t77 -13.5t77 13.5t55.5 36t34 52.5t11.5 62t-12 61t-34.5 50.5t-56 34t-75.5 12.5 t-75.5 -12.5t-56 -34t-34.5 -50.5t-12 -61zM457 1030q0 -27 9.5 -53t29 -46.5t48.5 -33t68 -12.5t68 12.5t48.5 33t29.5 46.5t10 53q0 30 -10.5 56t-30.5 45.5t-49 31t-66 11.5q-41 0 -70 -12t-48 -32t-28 -46t-9 -54z"/>
<glyph glyph-name="nine" horiz-adv-x="1174" unicode="9" d="M578 1149q-34 0 -65 -14.5t-54 -42t-37 -66.5t-14 -88q0 -36 10 -68.5t30 -57.5t49.5 -39.5t67.5 -14.5q45 0 76.5 16t51 43t28 63.5t8.5 77.5q0 39 -9.5 73.5t-28 60.5t-47 41.5t-66.5 15.5zM260 393q21 -27 49.5 -47.5t60.5 -35t66 -22t68 -7.5q48 0 90 13.5t74.5 48 t53.5 93t26 148.5q-20 -15 -46 -31t-59.5 -29t-73.5 -21.5t-88 -8.5q-97 0 -177.5 34.5t-139 94t-91 139t-32.5 168.5q0 120 41 215t111.5 161t166 101t203.5 35q103 0 185.5 -25t145.5 -70t108.5 -107.5t74.5 -137t42.5 -159t13.5 -173.5q0 -178 -38.5 -325.5t-117.5 -253 t-199.5 -164t-283.5 -58.5q-59 0 -120 9.5t-120 29.5t-112.5 51.5t-96.5 75.5z"/>
<glyph glyph-name="colon" horiz-adv-x="635" unicode=":" d="M82 799q0 47 13.5 88.5t42.5 72t75.5 48.5t112.5 18q64 0 110.5 -18t77 -48.5t45 -72t14.5 -88.5q0 -44 -13.5 -83.5t-43 -69t-76.5 -47t-114 -17.5q-66 0 -112.5 20.5t-75.5 52.5t-42.5 70.5t-13.5 73.5zM82 182q0 47 13.5 88.5t42.5 72.5t75.5 49t112.5 18 q64 0 110.5 -18t77 -49t45 -72.5t14.5 -88.5q0 -44 -13.5 -83t-43 -69t-76.5 -47.5t-114 -17.5q-66 0 -112.5 20.5t-75.5 52.5t-42.5 70.5t-13.5 73.5z"/>
<glyph glyph-name="semicolon" horiz-adv-x="635" unicode=";" d="M82 799q0 47 13.5 88.5t42.5 72t75.5 48.5t112.5 18q64 0 110.5 -18t77 -48.5t45 -72t14.5 -88.5q0 -44 -13.5 -83.5t-43 -69t-76.5 -47t-114 -17.5q-66 0 -112.5 20.5t-75.5 52.5t-42.5 70.5t-13.5 73.5zM244 0q-48 6 -80.5 24t-52 43.5t-27.5 57t-8 65.5q0 45 16 85 t47.5 70t79 47.5t111.5 17.5q61 0 106.5 -17.5t76.5 -49.5t46.5 -77.5t15.5 -101.5q0 -77 -21 -141.5t-54.5 -118t-74 -94.5t-80 -71t-73.5 -48t-53 -25l-119 158q22 17 44.5 33t42 36t35 45.5t22.5 61.5z"/>
<glyph glyph-name="less" horiz-adv-x="1178" unicode="&lt;" d="M66 479l-23 289l965 412l94 -322l-662 -242l680 -325l-141 -299z"/>
<glyph glyph-name="equal" horiz-adv-x="1178" unicode="=" d="M1116 426v-330h-1055v289zM1116 946v-330h-1055v289z"/>
<glyph glyph-name="greater" horiz-adv-x="1178" unicode="&gt;" d="M199 -8l-142 299l680 325l-661 242l94 322l965 -412l-23 -289z"/>
<glyph glyph-name="question" horiz-adv-x="1053" unicode="?" d="M281 164q0 41 12.5 78.5t39.5 65.5t70 44.5t105 16.5q60 0 103.5 -16.5t71 -44.5t41 -65.5t13.5 -78.5q0 -40 -12 -76t-39.5 -63.5t-71 -43.5t-106.5 -16q-62 0 -105 18.5t-70 48t-39.5 64.5t-12.5 68zM31 1286q60 58 138 104q33 19 74 38t89 34t102.5 24t114.5 9 q105 0 190.5 -21.5t146 -65.5t93.5 -111.5t33 -159.5q0 -70 -17 -122t-45 -91t-63.5 -68t-72.5 -52.5t-72.5 -44t-63.5 -43t-45 -49t-17 -61.5q0 -23 4.5 -46t9.5 -42q6 -22 15 -43l-340 -59q-12 32 -21 66q-8 29 -14 64.5t-6 69.5q0 78 26.5 132.5t66.5 94t86.5 68.5 t86.5 55.5t66.5 54.5t26.5 66q0 48 -27 69.5t-68 21.5q-49 0 -91 -18t-74.5 -42t-54 -48t-29.5 -36z"/>
<glyph glyph-name="at" horiz-adv-x="2105" unicode="@" d="M1180 778q-14 8 -44.5 20.5t-68.5 12.5q-55 0 -92 -31.5t-59.5 -78t-32 -101t-9.5 -100.5q0 -93 35.5 -142t104.5 -49q34 0 65 16.5t60 51.5zM1556 229q15 0 35.5 5t42 20.5t42.5 44.5t37.5 77.5t27 119.5t10.5 170q0 148 -44 260.5t-128.5 188.5t-209 114.5t-284.5 38.5 q-176 0 -310.5 -62.5t-225.5 -168.5t-137.5 -246t-46.5 -295q0 -143 37 -265.5t119.5 -212.5t215.5 -141t324 -51q65 0 128.5 10.5t114.5 24.5q60 15 115 35l125 -271q-55 -21 -131 -38q-65 -14 -159 -26t-218 -12q-261 0 -446 71.5t-302.5 198.5t-172 301.5t-54.5 379.5 q0 139 30.5 269t90 243t147 206.5t202 160.5t255 104t306.5 37q243 0 422 -60t296.5 -172.5t175.5 -274.5t58 -366q0 -191 -40 -323t-112.5 -213.5t-175 -117.5t-227.5 -36q-65 0 -113.5 10.5t-83 33t-58 56.5t-38.5 82q-38 -41 -77.5 -67t-79 -41t-79.5 -21t-77 -6 q-78 0 -146 34.5t-118 96.5t-78.5 149.5t-28.5 194.5q0 70 13.5 143t41.5 142.5t70 131t99 107t128.5 72.5t159.5 27q74 0 124.5 -22t88.5 -60l20 57l297 -35q-14 -84 -27 -183t-23 -195.5t-16.5 -180t-6.5 -135.5q0 -119 75 -119z"/>
<glyph glyph-name="A" horiz-adv-x="1481" unicode="A" d="M592 549h291l-115 522h-8zM387 1470l627 39l336 -1218h73l47 -283l-460 -33l-62 275h-452l-86 -266l-400 59l457 1153l-123 14z"/>
<glyph glyph-name="B" horiz-adv-x="1325" unicode="B" d="M545 905q11 -2 18 -2h15q51 0 93 8t73 27.5t48 52.5t17 82q0 41 -12 69t-33 45t-49.5 24.5t-61.5 7.5q-26 0 -56.5 -2t-66.5 -7zM557 293q4 -1 13.5 -1.5t20 -0.5h20h14.5q50 0 94 6t77 24t52.5 52.5t19.5 91.5q0 51 -16.5 86t-45 57.5t-67 32.5t-82.5 10q-11 0 -24.5 -1 t-28 -2.5t-28 -4t-23.5 -4.5zM37 1487q104 8 201 14.5t180.5 10.5t150 6t109.5 2q141 0 243 -25.5t169 -73.5t99 -117.5t32 -156.5q0 -74 -22 -130.5t-59.5 -97.5t-88 -69t-107.5 -45v-8q77 -11 139.5 -37.5t107 -70t69 -104t24.5 -139.5q0 -98 -38 -182t-118 -146.5 t-203.5 -98t-295.5 -35.5q-46 0 -107 1.5t-125.5 3.5t-128.5 4.5t-116 4.5v1194l-107 -16z"/>
<glyph glyph-name="C" horiz-adv-x="1333" unicode="C" d="M1081 1038q-16 19 -40 40.5t-57.5 39.5t-76 29.5t-96.5 11.5q-69 0 -130 -27.5t-106 -81t-71.5 -133t-26.5 -184.5t26.5 -179t71.5 -120.5t104 -68t124 -21.5q71 0 155 32t170 103l138 -317q-52 -36 -109 -67.5t-120.5 -54.5t-135.5 -36.5t-153 -13.5q-143 0 -269.5 45.5 t-221.5 136t-150.5 226.5t-55.5 317q0 180 52 329t151 255t242.5 164.5t326.5 58.5q66 0 134.5 -13.5t133 -39.5t122 -64t100.5 -86z"/>
<glyph glyph-name="D" horiz-adv-x="1401" unicode="D" d="M918 764q0 207 -75 303t-235 96h-41l-14 -835q12 -2 29.5 -3t29.5 -1q149 0 227.5 112.5t78.5 327.5zM37 1477q57 3 117 5.5t115.5 4.5t103.5 3t80 1q132 0 250 -14.5t218 -48t179.5 -88.5t135 -135.5t85 -189t29.5 -249.5q0 -194 -60.5 -337.5t-175.5 -239t-281 -142.5 t-376 -47h-314v1167l-106 29v281z"/>
<glyph glyph-name="E" horiz-adv-x="1157" unicode="E" d="M41 1481l1085 32l-41 -354l-532 10v-280l385 14l-25 -334l-360 6v-262l532 23l-30 -354l-887 30l-29 1168l-102 8z"/>
<glyph glyph-name="F" horiz-adv-x="1157" unicode="F" d="M41 1481l1085 32l-41 -362l-505 10l-15 -352l369 27l-35 -375l-340 14l-22 -475h-367l-33 1176l-100 8z"/>
<glyph glyph-name="G" horiz-adv-x="1399" unicode="G" d="M1313 137q-62 -46 -133 -79.5t-146.5 -55.5t-153.5 -32.5t-153 -10.5q-134 0 -256 48t-215.5 143t-149 236t-55.5 327q0 190 58 337.5t162 248.5t248.5 153.5t318.5 52.5q69 0 138.5 -9.5t136 -31t127.5 -57t114 -86.5l-238 -295q-60 59 -135 90t-156 31 q-68 0 -131 -25.5t-112.5 -78t-79 -133t-29.5 -189.5q0 -93 21.5 -170.5t61.5 -133.5t97.5 -87t130.5 -31q20 0 46 2t52 6t49.5 11t39.5 16v182l-219 -10l-17 311l592 -22z"/>
<glyph glyph-name="H" horiz-adv-x="1493" unicode="H" d="M92 1491h479l-22 -602h401l-6 604h457l-62 -1493h-385l-14 565h-375l-18 -565h-402z"/>
<glyph glyph-name="I" horiz-adv-x="625" unicode="I" d="M492 0h-361l-49 1491l461 37z"/>
<glyph glyph-name="J" horiz-adv-x="1042" unicode="J" d="M907 1511q31 -301 42.5 -529t11.5 -390q0 -154 -29 -271t-91 -195.5t-159.5 -118.5t-235.5 -40q-80 0 -148.5 16t-124 40.5t-97 53t-66.5 54.5l207 270q31 -25 64 -43q29 -17 63.5 -30t69.5 -13q41 0 71 11t49.5 42.5t29 87.5t9.5 146q0 61 -3 132.5t-8.5 147.5 t-12.5 153t-14 149l-285 -31l-27 338z"/>
<glyph glyph-name="K" horiz-adv-x="1417" unicode="K" d="M539 872l415 627l443 -61l-512 -582l375 -590l90 15l24 -250l-416 -39l-309 596l-119 -135l-8 -453h-354l-41 1251l-90 17v223h516z"/>
<glyph glyph-name="L" horiz-adv-x="1159" unicode="L" d="M180 -35l-49 1284l-94 21v211l541 12l-33 -1188l317 19v151h277l-33 -485z"/>
<glyph glyph-name="M" horiz-adv-x="1763" unicode="M" d="M143 0v1192l-106 27v251l516 17l354 -725l320 727h422l22 -1495h-403l59 901h-14l-348 -731l-144 -12l-329 716h-15l41 -868h-375z"/>
<glyph glyph-name="N" horiz-adv-x="1534" unicode="N" d="M37 1466l440 31l645 -895l-69 873l389 32v-1474l-338 -45l-602 841v-829h-316l-45 1139h-104v327z"/>
<glyph glyph-name="O" horiz-adv-x="1411" unicode="O" d="M713 313q119 0 173 108t54 329q0 94 -14 170.5t-42.5 130.5t-73 83t-105.5 29q-59 0 -101.5 -34t-71 -92.5t-42 -137.5t-13.5 -168q0 -98 16 -175.5t46.5 -131.5t74 -82.5t99.5 -28.5zM707 1511q142 0 261.5 -54t206.5 -153.5t136 -239.5t49 -312q0 -180 -47 -325 t-133 -246.5t-206 -156.5t-267 -55q-143 0 -263.5 57.5t-207.5 160t-136 243t-49 307.5q0 156 43 296.5t126.5 246.5t206 168.5t280.5 62.5z"/>
<glyph glyph-name="P" horiz-adv-x="1288" unicode="P" d="M813 969q0 55 -21.5 94.5t-59 64.5t-88 36.5t-109.5 11.5l-15 -431h68q110 0 167.5 53.5t57.5 170.5zM463 1485q187 0 330 -30t239.5 -93t145.5 -160.5t49 -232.5q0 -94 -24.5 -169t-67.5 -133t-101 -100t-125.5 -69t-140.5 -39.5t-145 -12.5h-91l-24 -446h-358l-23 1243 l-90 19v223h426z"/>
<glyph glyph-name="Q" horiz-adv-x="1419" unicode="Q" d="M719 313h25t24 2l-98 156l198 127l68 -119q14 48 20.5 113t6.5 151q0 96 -15.5 176t-45.5 137.5t-75.5 89.5t-105.5 32q-58 0 -102.5 -30t-75 -86t-46.5 -136t-16 -181q0 -104 17 -184t48 -135.5t75 -84t98 -28.5zM715 1524q147 0 267 -54t206 -153.5t133 -240t47 -312.5 q0 -171 -51 -310t-137 -241l170 -205l-361 -168l-100 180q-83 -24 -174 -24q-163 0 -287 55t-208 155t-126.5 238.5t-42.5 305.5q0 156 42.5 296t126.5 246.5t208 169t287 62.5z"/>
<glyph glyph-name="R" horiz-adv-x="1284" unicode="R" d="M823 995q0 45 -14.5 81t-48 61t-89.5 38t-139 13l-10 -373h78q113 0 168 47t55 133zM37 1477q146 8 288 10t287 2q80 0 157 -11.5t145.5 -36.5t126 -63t99 -91t64.5 -121.5t23 -153.5q0 -78 -21.5 -142t-59 -114t-88 -88t-108.5 -64l219 -358l88 10l37 -246l-424 -39 l-237 568h-107v-539h-374l-23 1243l-92 19v215z"/>
<glyph glyph-name="S" horiz-adv-x="1235" unicode="S" d="M666 1180q-29 0 -56 -7t-47.5 -21t-32.5 -34.5t-12 -46.5q0 -35 28.5 -59.5t75 -45.5t106.5 -41.5t122 -47t122 -62t106.5 -86.5t75 -121t28.5 -164q0 -104 -38 -188t-109 -142.5t-173 -90t-229 -31.5q-93 0 -174.5 15.5t-153 42t-134.5 61.5t-118 75l228 303 q52 -51 99 -86.5t91.5 -57t87 -31t84.5 -9.5q66 0 107 26t41 77q0 41 -29 69.5t-77 52.5t-109 45.5t-125 49t-125 63t-109 86.5t-77 121t-29 166q0 103 37 186t107.5 141.5t172 89.5t229.5 31q77 0 154 -14.5t146.5 -40.5t128.5 -61.5t100 -77.5l-238 -266q-21 24 -49 47 t-63 42t-77.5 30.5t-92.5 11.5z"/>
<glyph glyph-name="T" horiz-adv-x="1298" unicode="T" d="M842 1143l39 -1143h-414v1126l-404 -24l-32 387h1237l-33 -346h-393z"/>
<glyph glyph-name="U" horiz-adv-x="1399" unicode="U" d="M1286 1493q5 -71 9.5 -145t8 -145.5t6 -137.5t4 -121t2.5 -96t1 -62q0 -216 -41.5 -369t-122 -251t-199.5 -143.5t-274 -45.5t-268 47.5t-186.5 144t-108.5 244t-35 347.5q0 38 1.5 95.5t5 143t10.5 204.5t18 280l405 8q-5 -97 -10 -193.5t-9 -186t-6.5 -168t-2.5 -138.5 q0 -150 14.5 -242t41 -143t63 -68.5t81.5 -17.5q26 0 52 3.5t50 18t44 44.5t35 83.5t23.5 134.5t8.5 197q0 91 -0.5 168.5t-2 153.5t-6 156.5t-11.5 176.5z"/>
<glyph glyph-name="V" horiz-adv-x="1571" unicode="V" d="M223 1090l-102 -29l-90 373l536 114l254 -1016h8l263 1008l448 -86l-559 -1464l-350 -21z"/>
<glyph glyph-name="W" horiz-adv-x="2169" unicode="W" d="M991 1223l303 20l228 -668l6 3l162 933l448 -73l-409 -1389l-347 -51l-256 670h-8l-270 -668l-338 -20l-281 1085l-108 -29l-90 373l540 113l170 -961h9z"/>
<glyph glyph-name="X" horiz-adv-x="1473" unicode="X" d="M492 1511l256 -475l266 475l409 -77l-450 -668l297 -465l106 37l66 -289l-438 -80l-269 500l-284 -500l-420 82l499 690l-294 428l-93 -43l-110 275z"/>
<glyph glyph-name="Y" horiz-adv-x="1526" unicode="Y" d="M530 0v508l-315 627l-94 -35l-101 311l467 117l285 -678l320 668l413 -119l-551 -891v-508h-424z"/>
<glyph glyph-name="Z" horiz-adv-x="1272" unicode="Z" d="M78 1124v355h1136l17 -222l-664 -956h369l43 141l227 25l23 -467h-1180l-8 211l717 969z"/>
<glyph glyph-name="bracketleft" horiz-adv-x="745" unicode="[" d="M82 -338v1892l623 39l-39 -305h-246l41 -1337l227 18v-307h-606z"/>
<glyph glyph-name="backslash" horiz-adv-x="1051" unicode="\" d="M20 1520h314l696 -1704l-325 -37z"/>
<glyph glyph-name="bracketright" horiz-adv-x="745" unicode="]" d="M664 1593v-1892l-623 -39l39 305h246l-41 1338l-228 -19v307h607z"/>
<glyph glyph-name="asciicircum" horiz-adv-x="1249" unicode="^" d="M868 631l-245 497l-250 -483l-342 47l442 754h297l449 -729z"/>
<glyph glyph-name="underscore" horiz-adv-x="993" unicode="_" d="M-10 -365v211h1048l-32 -211h-1016z"/>
<glyph glyph-name="grave" horiz-adv-x="864" unicode="`" d="M471 1198l-387 401l451 27l219 -381z"/>
<glyph glyph-name="a" horiz-adv-x="1169" unicode="a" d="M723 768q-7 4 -21.5 10t-33 11.5t-39.5 9.5t-41 4q-42 0 -74.5 -20.5t-54.5 -58t-33.5 -90t-11.5 -116.5q0 -112 39.5 -172.5t117.5 -60.5q35 0 75.5 16t66.5 53zM1096 1087q-6 -71 -12 -155t-10 -172.5t-6.5 -177t-2.5 -168.5q0 -98 6 -185l68 -20v-178l-357 -39 l-34 123q-36 -43 -72.5 -71.5t-73.5 -45t-74.5 -23t-76.5 -6.5q-87 0 -162 34t-130 100t-86.5 163t-31.5 223q0 128 34 240t96.5 195t151 130.5t197.5 47.5q77 0 131.5 -23t102.5 -61l10 45z"/>
<glyph glyph-name="b" horiz-adv-x="1188" unicode="b" d="M465 303q18 -14 50.5 -25.5t72.5 -11.5q35 0 68.5 17t59 52t41 88.5t15.5 125.5q0 115 -41.5 182.5t-116.5 67.5q-27 0 -48.5 -8t-38.5 -20.5t-30.5 -28.5t-23.5 -31zM-20 1442l448 71q5 -46 10.5 -109.5t10 -134t7.5 -144t5 -138.5q24 28 54.5 51t66 39t74 24.5 t77.5 8.5q91 0 167.5 -40t131 -111t85 -168.5t30.5 -212.5q0 -136 -43.5 -249t-121.5 -194.5t-185.5 -126.5t-235.5 -45q-70 0 -132 11t-120 32t-112.5 50t-108.5 65q3 37 6 83.5t5.5 96t4 98.5t3 91.5t2 75t0.5 48.5q0 77 -3 160t-8 160.5t-10.5 144t-9.5 111.5l-82 12z "/>
<glyph glyph-name="c" horiz-adv-x="1071" unicode="c" d="M827 698q-43 51 -92.5 75t-111.5 24q-50 0 -89 -20t-65.5 -55.5t-40.5 -84.5t-14 -107q0 -125 58.5 -188t166.5 -63q51 0 109 17t126 71l103 -273q-78 -65 -180 -98t-213 -33q-131 0 -232 42t-170 116.5t-105 175.5t-36 219q0 135 43.5 245.5t120.5 189t183.5 121 t232.5 42.5q51 0 102.5 -6t102.5 -22t100 -44.5t94 -72.5z"/>
<glyph glyph-name="d" horiz-adv-x="1180" unicode="d" d="M649 1477l473 45q-6 -146 -11 -287.5t-9 -272.5t-7.5 -247t-6 -212t-4 -167.5t-1.5 -112.5l86 -14v-178l-391 -41l-12 141q-66 -84 -149 -123t-183 -39q-89 0 -161.5 38.5t-124 108.5t-79.5 167t-28 213q0 129 37 237.5t101.5 187t152.5 122.5t190 44q63 0 119 -8 t115 -28v184l-90 8zM721 768q-28 11 -58.5 19t-72.5 8q-79 0 -127.5 -76t-48.5 -219q0 -61 11.5 -103t30 -68.5t43.5 -38t52 -11.5q54 0 96 25t64 56z"/>
<glyph glyph-name="e" horiz-adv-x="1073" unicode="e" d="M676 662q0 43 -6 77.5t-20.5 59t-38.5 38t-60 13.5q-31 0 -56.5 -15.5t-44 -43t-28.5 -66.5t-10 -86zM635 240q69 0 138.5 17t131.5 52l68 -264q-77 -35 -168 -61.5t-205 -26.5q-139 0 -244 44.5t-175 121.5t-105 181t-35 224q0 68 13 138t41 135t71 122t103 99.5 t137.5 67t173.5 24.5q86 0 153 -19.5t116.5 -53t83.5 -78.5t54.5 -95.5t29.5 -104t9 -104.5q0 -32 -2.5 -66.5t-7 -67.5t-10.5 -62.5t-13 -50.5h-581q5 -47 26 -79.5t52 -53t68.5 -30t76.5 -9.5z"/>
<glyph glyph-name="f" horiz-adv-x="750" unicode="f" d="M764 1198q-37 12 -80.5 20.5t-85.5 8.5q-33 0 -53.5 -7t-32.5 -23t-16 -40.5t-4 -58.5v-51l208 16l-28 -299h-185l21 -764h-377v764h-141v260l135 10v99q0 78 18 136t49.5 100t74 69.5t91.5 43.5t102.5 22.5t106.5 6.5q37 0 74.5 -4t72.5 -10.5t65 -14t52 -14.5z"/>
<glyph glyph-name="g" horiz-adv-x="1169" unicode="g" d="M719 766q-26 14 -59 24.5t-78 10.5q-34 0 -65 -17.5t-55 -51.5t-38 -84t-14 -116q0 -107 42 -153.5t113 -46.5q22 0 44 7.5t41 19t33.5 26t23.5 29.5zM1159 1085v-280l-88 -17v-450q0 -160 -16.5 -281.5t-49 -211t-80 -149.5t-109.5 -96t-138.5 -51.5t-165.5 -15.5 q-129 0 -234 19t-200 53l88 319q35 -19 76 -35t82 -28t81 -18.5t74 -6.5q71 0 114 19t66.5 56t31 91t7.5 125q-35 -29 -67 -48.5t-64 -31t-67.5 -16t-77.5 -4.5q-72 0 -140.5 30t-122 90.5t-86 152t-32.5 214.5q0 116 31.5 223.5t91.5 190.5t146.5 132.5t197.5 49.5 q52 0 90.5 -8.5t68 -22.5t51.5 -31.5t40 -35.5l16 61z"/>
<glyph glyph-name="h" horiz-adv-x="1204" unicode="h" d="M-31 1442l445 71q2 -10 5.5 -43t7.5 -80.5t7.5 -104.5t7 -115t5.5 -112t2 -95q44 66 120 108.5t193 42.5q100 0 168 -36t108.5 -107t58 -176.5t17.5 -243.5q0 -29 -0.5 -57t-1.5 -62t-2.5 -76l-3.5 -98l88 -14v-230l-449 -14q1 26 1.5 65t1 83.5t1 91.5t1 90.5t0.5 80 v60.5q0 105 -6 166.5t-20.5 93.5t-38 41.5t-58.5 9.5q-50 0 -91 -31t-69 -79q0 -29 1 -81t2 -120.5t2 -150.5t1 -170v-38.5v-31t-0.5 -34t-1.5 -46.5h-379q3 91 4.5 189t1.5 200q0 121 -2 240t-6.5 225t-10.5 192.5t-13 143.5l-82 12z"/>
<glyph glyph-name="i" horiz-adv-x="567" unicode="i" d="M10 1030l488 39l-35 -1069h-344v776l-99 27zM51 1362q0 43 13 80t41 64t72 42t106 15t106.5 -15t72.5 -42t41 -64t13 -80t-13 -79.5t-40.5 -63t-72 -41.5t-107.5 -15t-107 15t-72 41.5t-40.5 63t-12.5 79.5z"/>
<glyph glyph-name="j" horiz-adv-x="600" unicode="j" d="M47 1362q0 43 13 80t41 64t72 42t106 15t106 -15t72.5 -42t41.5 -64t13 -80t-13 -79.5t-41 -63t-72 -41.5t-107 -15t-107 15t-72 41.5t-40.5 63t-12.5 79.5zM496 1069q12 -171 20 -306t13.5 -247.5t7.5 -209t2 -189.5q0 -112 -21 -198.5t-57 -151t-85 -108t-104.5 -70.5 t-115.5 -38.5t-119 -11.5q-62 0 -114 7t-97 24l61 313q15 -8 33.5 -14.5t36 -11.5t32.5 -8t25 -3q47 0 80.5 12.5t54.5 45.5t31 90t10 147q0 67 -3 143t-7.5 157.5t-10.5 167t-13 171.5l-129 27v223z"/>
<glyph glyph-name="k" horiz-adv-x="1149" unicode="k" d="M-31 1440l451 71q8 -53 15 -121.5t13 -143.5t10.5 -153.5t8 -151t5.5 -135.5t3 -108l326 416l305 -182l-322 -322l238 -342l106 -20l21 -219l-350 -74l-248 455l-74 -56q-1 -44 -2 -91.5t-2.5 -94t-3 -90t-2.5 -78.5h-365q1 23 1.5 63.5t1 89.5t1 103t0.5 104v91.5v66.5 q0 62 -2.5 142.5t-7 169.5t-11 181.5t-13.5 178.5l-84 14z"/>
<glyph glyph-name="l" horiz-adv-x="631" unicode="l" d="M27 1438l460 73q-11 -242 -22.5 -512.5t-11.5 -556.5q0 -83 15 -118t50 -35q13 0 30 4.5t40 19.5l63 -256q-60 -38 -128 -62t-142 -24q-79 0 -135.5 22.5t-92.5 74.5t-52.5 138t-16.5 214q0 35 1 89t2 119.5t3 139t4.5 147.5t4.5 144t5 129l-79 12z"/>
<glyph glyph-name="m" horiz-adv-x="1802" unicode="m" d="M422 987q27 25 58.5 48.5t68.5 40.5t81 27.5t95 10.5q115 0 186 -35t113 -112q27 29 59.5 55.5t72 47t87 32.5t103.5 12q105 0 174.5 -37t111.5 -107t59 -172.5t17 -232.5q0 -43 -0.5 -123.5t-3.5 -183.5l88 -14v-230l-449 -14q1 21 1.5 57t1 80.5t1 92.5t1 93t0.5 82.5 v61.5q0 104 -6.5 166.5t-21 96t-38.5 44t-59 10.5q-41 0 -74.5 -20t-61.5 -51q2 -25 3.5 -55.5t2 -61.5t1 -58.5t0.5 -45.5q0 -22 -0.5 -71.5t-2 -115t-3.5 -141t-5 -150.5l-360 -20q0 21 0.5 58.5t1 83t1 95.5t1 96.5t0.5 85v62.5q0 100 -6 160.5t-20.5 93.5t-38.5 44 t-60 11q-42 0 -75 -18t-56 -49q0 -54 1 -117.5t2 -126t2 -119.5t1 -98v-64.5v-60t-0.5 -59t-1.5 -60.5l-373 -20q3 69 3.5 133.5t0.5 138.5v121t-1.5 134.5t-4.5 137t-8 129.5l-82 23v233l391 60z"/>
<glyph glyph-name="n" horiz-adv-x="1214" unicode="n" d="M10 1042l391 60l29 -141q27 30 60.5 57.5t74.5 48.5t90 34t107 13q105 0 174.5 -37t110.5 -107t58 -172.5t17 -232.5q0 -43 -1.5 -118.5t-4.5 -188.5l88 -14v-230l-448 -14q0 21 1 57.5t1.5 81.5t1 94t1 94.5t1 83.5t0.5 62q0 97 -6 158t-20 95t-37.5 46t-57.5 12 q-26 0 -51.5 -9t-47.5 -24.5t-39.5 -35.5t-29.5 -41q1 -36 1.5 -89.5t1 -112t1 -116t0.5 -100.5v-130.5t-2 -125.5h-375q1 34 2.5 66t2 63.5t1 64.5t0.5 70v121t-1.5 134.5t-4 137t-6.5 129.5l-84 23v233z"/>
<glyph glyph-name="o" horiz-adv-x="1167" unicode="o" d="M578 268q83 0 131.5 68.5t48.5 206.5q0 64 -13.5 112.5t-37 81.5t-56 49.5t-69.5 16.5q-42 0 -74 -18.5t-53.5 -53.5t-33 -84.5t-11.5 -111.5q0 -128 45 -197.5t123 -69.5zM588 1114q118 0 217 -39t170 -112t111 -179t40 -239t-35 -241.5t-103.5 -185t-169 -118 t-230.5 -41.5q-131 0 -233 43t-172 119.5t-106 182.5t-36 231q0 120 36 225t106 184t172 124.5t233 45.5z"/>
<glyph glyph-name="p" horiz-adv-x="1188" unicode="p" d="M10 1042l393 60l29 -141q24 28 57 55t72.5 48t83.5 33.5t90 12.5q90 0 165.5 -35t130.5 -102t85.5 -165t30.5 -224q0 -132 -31 -244.5t-91.5 -195t-150.5 -129t-208 -46.5q-35 0 -68.5 6t-63 16t-54 21.5t-42.5 22.5l-10 -488l-369 23q9 210 15.5 378.5t11 312.5 t6.5 271.5t2 253.5l-67 23zM461 311q18 -14 53.5 -25.5t75.5 -11.5q41 0 75.5 20t59.5 56.5t39 88.5t14 116q0 58 -8 103t-26 76.5t-48 48t-73 16.5q-27 0 -50.5 -8t-43 -20.5t-35 -28.5t-25.5 -31z"/>
<glyph glyph-name="q" horiz-adv-x="1186" unicode="q" d="M1176 1096v-283l-78 -18v-1246l-346 25v514q-62 -57 -140 -88t-178 -31q-87 0 -159.5 37t-124.5 106.5t-80.5 168.5t-28.5 223q0 129 30.5 239.5t89 191.5t144.5 127t197 46q74 0 143.5 -21t126.5 -75l14 67zM729 768q-65 35 -145 35q-44 0 -76.5 -20.5t-53.5 -57.5 t-31.5 -90t-10.5 -117q0 -122 36.5 -176.5t102.5 -54.5q62 0 104 25.5t64 56.5z"/>
<glyph glyph-name="r" horiz-adv-x="909" unicode="r" d="M10 1030l396 72l28 -180q22 44 49 78.5t61 58t77 35.5t96 12q34 0 69.5 -6t61.5 -19l-68 -395q-40 17 -69 23t-66 6q-35 0 -66 -16.5t-53.5 -48t-35.5 -77.5t-13 -104q0 -77 0.5 -137t1.5 -113.5t2 -105.5t2 -113h-374v76q0 190 -2 366t-15 346l-82 21v221z"/>
<glyph glyph-name="s" horiz-adv-x="1010" unicode="s" d="M455 764q0 -25 21.5 -42.5t57 -33t80.5 -30.5t92.5 -34t92.5 -45t80.5 -62.5t57 -86.5t21.5 -117q0 -79 -34 -145t-95.5 -114t-146 -74.5t-184.5 -26.5q-70 0 -136 10.5t-125 29t-109 44t-87 55.5l176 240q40 -28 75.5 -47.5t68 -32t63 -18t61.5 -5.5q45 0 69 19.5 t24 44.5q0 14 -5.5 25.5t-19 22t-36 21.5t-56.5 23q-42 15 -85 31t-84 37t-77 48t-63 62t-42.5 80.5t-15.5 104.5q0 76 32 141t91 112.5t143 74t189 26.5q67 0 127.5 -10.5t113 -28.5t95.5 -41t76 -47l-152 -244q-78 57 -139 78.5t-111 21.5q-30 0 -50 -5.5t-32 -15 t-17 -21.5t-5 -25z"/>
<glyph glyph-name="t" horiz-adv-x="772" unicode="t" d="M731 20q-25 -11 -58 -19.5t-66.5 -14.5t-65.5 -9.5t-54 -3.5q-93 0 -161.5 22t-113 73t-66 134.5t-21.5 207.5q0 77 1.5 177t4.5 216h-121v268l137 12v215l392 97l-17 -324l199 35v-303h-221q-2 -31 -4.5 -78t-4.5 -98t-3 -100t-1 -83q0 -54 9.5 -86.5t26 -50t38.5 -23 t47 -5.5q53 0 92 12z"/>
<glyph glyph-name="u" horiz-adv-x="1204" unicode="u" d="M473 1085q-3 -51 -5.5 -112.5t-4 -121.5t-2 -113.5t-0.5 -88.5q0 -104 4.5 -171t17.5 -106t36.5 -54t62.5 -15q52 0 89 31.5t60 79.5q-1 64 -2 114.5t-2 94t-1.5 83t-0.5 82.5q0 68 1 123.5t3 118.5l379 55q-5 -94 -8.5 -212.5t-3.5 -243.5q0 -94 2.5 -185.5t7.5 -173.5 l88 -47v-174l-379 -72l-47 148q-54 -68 -131.5 -111t-183.5 -43q-105 0 -175 31.5t-112 99.5t-59 175t-17 258v112t2 135l-72 21l-10 235z"/>
<glyph glyph-name="v" horiz-adv-x="1296" unicode="v" d="M836 4l-402 -51l-305 852l-88 -19l-31 273l434 35l201 -725l184 725l426 -47z"/>
<glyph glyph-name="w" horiz-adv-x="1761" unicode="w" d="M1358 2l-342 -39l-150 490l-194 -453l-314 -43l-245 852l-78 -18l-25 266l430 35l119 -680l158 551l287 20l176 -541l135 652l405 -47z"/>
<glyph glyph-name="x" horiz-adv-x="1233" unicode="x" d="M455 1106l174 -340l168 344l391 -57l-336 -500l213 -313l72 20l55 -213l-401 -70l-173 340l-176 -327l-401 55l342 502l-195 295l-59 -29l-72 229z"/>
<glyph glyph-name="y" horiz-adv-x="1249" unicode="y" d="M129 805l-88 -19l-31 273l453 35l182 -715l170 721l393 -47l-407 -1100q-35 -93 -77 -165t-100.5 -121.5t-137 -75t-185.5 -25.5q-56 0 -100 7.5t-76 17.5q-37 11 -66 26l129 297q21 -13 45 -24q20 -9 44.5 -16t48.5 -7q21 0 40.5 5t37.5 18.5t33.5 37t27.5 60.5l10 32z "/>
<glyph glyph-name="z" horiz-adv-x="1016" unicode="z" d="M92 766l-16 311h868l14 -227l-475 -580h236l49 138l193 16l14 -424h-914v195l482 639z"/>
<glyph glyph-name="braceleft" horiz-adv-x="936" unicode="{" d="M762 -387q-122 0 -212 31t-149 87.5t-88.5 136t-29.5 177.5q0 118 -5.5 193t-24.5 117.5t-54 58.5t-93 16h-45l-20 283h65q58 0 93 15t54 57t24.5 117t5.5 194q0 117 29.5 199.5t88.5 134t149 75t212 23.5h133v-268h-100q-52 0 -85 -10.5t-52.5 -31t-27 -51.5t-7.5 -71 q0 -124 -8.5 -210.5t-26.5 -147.5t-46 -100.5t-67 -68.5q39 -28 70 -61t52.5 -82t32.5 -119t11 -172q0 -124 34.5 -189t119.5 -65h100v-268h-133z"/>
<glyph glyph-name="bar" horiz-adv-x="682" unicode="|" d="M164 -512v2048h354l-65 -2019z"/>
<glyph glyph-name="braceright" horiz-adv-x="936" unicode="}" d="M174 1528q121 0 211.5 -31t149.5 -87.5t88.5 -136.5t29.5 -177q0 -119 5.5 -193.5t24 -117.5t53.5 -58.5t93 -15.5h45l21 -283h-66q-58 0 -93 -15.5t-53.5 -57.5t-24 -116.5t-5.5 -193.5q0 -117 -29.5 -199.5t-88.5 -134t-149.5 -75t-211.5 -23.5h-133v268h100 q52 0 85 10.5t52.5 31t27 51t7.5 71.5q0 124 8.5 210.5t26.5 147t46 100t67 68.5q-39 28 -70 61.5t-52.5 82t-32.5 119t-11 172.5q0 123 -34.5 188.5t-119.5 65.5h-100v268h133z"/>
<glyph glyph-name="asciitilde" horiz-adv-x="1284" unicode="~" d="M874 696q70 0 134.5 29.5t121.5 83.5l113 -264q-163 -162 -352 -162q-55 0 -98 10t-79 25t-68 32.5t-65 32.5t-69.5 25t-81.5 10q-35 0 -71.5 -8t-72.5 -22.5t-70 -36t-62 -48.5l-113 265q84 81 173.5 122t195.5 41q58 0 103 -10t82 -25t68.5 -32.5t63.5 -32.5t67.5 -25 t79.5 -10z"/>
<glyph glyph-name="uni00A0" horiz-adv-x="451" unicode=" "/>
<glyph glyph-name="exclamdown" horiz-adv-x="614" unicode="¡" d="M78 899q0 33 12.5 68t39.5 64.5t70 48t105 18.5q63 0 107 -16t71 -43.5t39.5 -63.5t12.5 -76q0 -42 -13.5 -79t-41.5 -65t-71.5 -44.5t-103.5 -16.5q-62 0 -105 16.5t-70 44.5t-39.5 65t-12.5 79zM573 -416l-532 39l113 950l309 50z"/>
<glyph glyph-name="cent" horiz-adv-x="1065" unicode="¢" d="M848 815q-86 62 -199 62q-51 0 -94 -17.5t-74.5 -50t-49 -79.5t-17.5 -107q0 -56 15.5 -101t46 -76.5t75 -49t102.5 -17.5q24 0 51 4.5t58.5 16.5t66.5 33t76 54l119 -272q-36 -29 -77.5 -54t-87 -44.5t-95 -32t-100.5 -16.5l-52 -371l-321 37l102 364q-88 30 -154 82.5 t-110 120.5t-66 149.5t-22 170.5q0 119 37 218.5t103.5 174t160 121t207.5 59.5l47 356l317 -18l-98 -354q56 -13 106 -33.5t97 -46.5z"/>
<glyph glyph-name="sterling" horiz-adv-x="1239" unicode="£" d="M618 545q-11 -63 -36 -109.5t-51 -78.5q-30 -37 -64 -64l6 -17l647 64l35 -338h-1073l-41 289q50 26 92 63q36 32 69 79.5t44 111.5h-191v205l154 38q-12 44 -20.5 97t-8.5 129q0 84 36.5 164.5t106.5 143.5t170 101.5t228 38.5q113 0 201 -27.5t150 -60.5 q72 -39 126 -88l-221 -272q-2 3 -21 24.5t-52 46.5t-78 45.5t-99 20.5q-89 0 -127.5 -40t-38.5 -110q0 -58 10.5 -106.5t22.5 -93.5l383 39v-295h-359z"/>
<glyph glyph-name="yen" horiz-adv-x="1509" unicode="¥" d="M455 705l-213 405l-121 -57l-101 311l451 119l285 -658l319 648l414 -119l-455 -625l189 8v-256h-308v-84l308 15v-250h-308v-162h-387v162h-258v209l258 10v100h-258v215z"/>
<glyph glyph-name="brokenbar" horiz-adv-x="682" unicode="¦" d="M164 266h313l-24 -649l-289 -29v678zM492 821h-328v699h354z"/>
<glyph glyph-name="section" horiz-adv-x="1090" unicode="§" d="M707 512q0 33 -18.5 61.5t-49.5 54.5t-72 50.5t-86 48.5q-47 -20 -71.5 -59.5t-24.5 -77.5q0 -32 18.5 -59t50.5 -50.5t73.5 -46t88.5 -45.5q44 19 67.5 52t23.5 71zM539 -119q18 0 35 4.5t30 14t21 25t8 36.5q0 25 -15 46t-43.5 42t-70 42.5t-94.5 47.5q-81 40 -149 78 t-117 84.5t-76 107.5t-27 148q0 108 54.5 189t142.5 131q-57 49 -94.5 111t-37.5 145q0 93 34 164t95 120t146 74t186 25q128 0 251 -45.5t220 -135.5l-196 -252q-63 70 -136.5 110t-144.5 40q-43 0 -73.5 -20t-30.5 -58q0 -23 25.5 -45.5t67 -47t94.5 -52.5t108.5 -61 t109 -72t95 -87t67 -105t25.5 -126q0 -106 -47.5 -188.5t-129.5 -134.5q51 -47 83 -104t32 -134q0 -84 -32.5 -156t-92.5 -124.5t-146 -82.5t-194 -30q-128 0 -251 45.5t-220 134.5l199 272q34 -35 70 -66.5t72.5 -56t73.5 -39t73 -14.5z"/>
<glyph glyph-name="dieresis" horiz-adv-x="889" unicode="¨" d="M473 1393q0 37 11.5 69.5t34 56t55 37t75.5 13.5t76.5 -13.5t56 -37t34 -56t11.5 -69.5q0 -38 -11.5 -70t-34 -55t-56 -36t-76.5 -13t-75.5 13t-55 36t-34 55t-11.5 70zM47 1393q0 37 12 69.5t35 56t56 37t75 13.5t74.5 -13.5t55 -37t34.5 -56t12 -69.5q0 -38 -11.5 -70 t-33.5 -55t-55 -36t-76 -13t-76 13t-55.5 36t-34.5 55t-12 70z"/>
<glyph glyph-name="copyright" horiz-adv-x="1888" unicode="©" d="M1167 752q-42 55 -87.5 73.5t-92.5 18.5q-33 0 -65.5 -13.5t-58 -40.5t-41 -68.5t-15.5 -98.5q0 -53 10.5 -95t35 -70.5t63.5 -43.5t96 -15q23 0 47.5 2.5t51.5 11t58 25t66 43.5l90 -225q-68 -62 -154.5 -90.5t-185.5 -28.5q-125 0 -219.5 36t-159 99.5t-97 150 t-32.5 187.5q0 116 38.5 211t107.5 162.5t163.5 104t206.5 36.5q49 0 101 -9t101.5 -28t94 -49t78.5 -71zM293 608q0 -141 41 -264t122.5 -214.5t203.5 -144.5t284 -53q153 0 275 54.5t207 148t130.5 218.5t45.5 265q0 141 -45.5 265.5t-130.5 217.5t-207 147.5t-275 54.5 q-159 0 -280.5 -56t-204 -151t-124.5 -221t-42 -267zM41 612q0 198 63.5 364.5t181 288t284.5 189.5t374 68q142 0 264.5 -32.5t222.5 -92t177.5 -142.5t130.5 -184t80.5 -217.5t27.5 -241.5t-30.5 -241t-87 -217t-137.5 -183.5t-181 -141.5t-218 -91.5t-249 -32.5 q-136 0 -256 29.5t-220.5 85.5t-179.5 136t-134 181t-84 220.5t-29 254.5z"/>
<glyph glyph-name="ordfeminine" horiz-adv-x="844" unicode="ª" d="M496 1270q-14 9 -36.5 15.5t-45.5 6.5q-48 0 -74.5 -44t-26.5 -115q0 -62 24 -95.5t69 -33.5q18 0 43 9t40 29zM762 1511q-4 -45 -7.5 -100t-6 -113t-4 -116.5t-1.5 -110.5q0 -32 0.5 -62.5t4.5 -58.5l45 -14v-115l-258 -26l-23 77q-43 -51 -89.5 -71.5t-100.5 -20.5 q-59 0 -110.5 22.5t-89.5 65.5t-59.5 106.5t-21.5 145.5q0 85 23 158.5t65.5 127.5t103.5 85t136 31q90 0 147 -49l6 28z"/>
<glyph glyph-name="guillemotleft" horiz-adv-x="1358" unicode="«" d="M606 553l422 584l320 -148l-361 -422l336 -350l-299 -217zM10 553l422 584l320 -148l-361 -422l299 -393l-348 -174z"/>
<glyph glyph-name="logicalnot" horiz-adv-x="1178" unicode="¬" d="M1124 739l-20 -708h-295l-18 395h-736v289z"/>
<glyph glyph-name="registered" horiz-adv-x="1888" unicode="®" d="M514 1102q102 6 199.5 7t197.5 1q83 0 162.5 -17t142 -53t100.5 -93t38 -138q0 -49 -15 -91t-41.5 -76t-61.5 -59.5t-75 -41.5l144 -207l61 6l27 -164l-312 -24l-163 348h-52v-330h-278l-17 756l-57 12v164zM1053 788q0 34 -14.5 54.5t-39 31t-58 14t-71.5 3.5l-8 -203 h37q77 0 115.5 23t38.5 77zM293 608q0 -141 41 -264t122.5 -214.5t203.5 -144.5t284 -53q153 0 275 54.5t207 148t130.5 218.5t45.5 265q0 141 -45.5 265.5t-130.5 217.5t-207 147.5t-275 54.5q-159 0 -280.5 -56t-204 -151t-124.5 -221t-42 -267zM41 612q0 198 63.5 364.5 t181 288t284.5 189.5t374 68q142 0 264.5 -32.5t222.5 -92t177.5 -142.5t130.5 -184t80.5 -217.5t27.5 -241.5t-30.5 -241t-87 -217t-137.5 -183.5t-181 -141.5t-218 -91.5t-249 -32.5q-136 0 -256 29.5t-220.5 85.5t-179.5 136t-134 181t-84 220.5t-29 254.5z"/>
<glyph glyph-name="macron" horiz-adv-x="1073" unicode="¯" d="M156 1503h753l-39 -256l-714 29v227z"/>
<glyph glyph-name="degree" horiz-adv-x="776" unicode="°" d="M502 1143q0 24 -7 45t-21 37t-34.5 25.5t-46.5 9.5t-46.5 -9.5t-35 -25.5t-22.5 -37t-8 -45t6.5 -46.5t20.5 -40t36 -28t53 -10.5q24 0 43.5 10.5t33 28t21 40t7.5 46.5zM735 1139q0 -72 -24.5 -135.5t-69.5 -111t-109 -74.5t-143 -27q-86 0 -151 27t-109 74t-66 110 t-22 135t27.5 135.5t74.5 110.5t110 74.5t134 27.5q86 0 151 -27.5t109 -74.5t66 -110t22 -134z"/>
<glyph glyph-name="plusminus" horiz-adv-x="1178" unicode="±" d="M1116 301v-315h-1055v274zM752 1397l-9 -367l373 14v-323h-377l-6 -334h-295l-12 334h-365v283l357 14l-10 334z"/>
<glyph glyph-name="twosuperior" horiz-adv-x="864" unicode="²" d="M90 1374q46 41 104 74q50 28 119 51t156 23q83 0 142 -18.5t97 -51t56 -77.5t18 -99q0 -65 -30.5 -119.5t-78 -100.5t-105.5 -85.5t-113 -73.5l-39 -25v-8h194l25 82l139 4v-270l-692 14v191l82 57q87 61 149.5 107.5t102.5 83t59 65t19 55.5q0 25 -13.5 39.5t-44.5 14.5 q-49 0 -98.5 -30t-89.5 -75z"/>
<glyph glyph-name="threesuperior" horiz-adv-x="850" unicode="³" d="M281 1255h-148l-20 213q43 17 94 30q44 11 101 20.5t122 9.5q33 0 70.5 -3.5t74.5 -13t71 -25.5t60.5 -40.5t42 -59t15.5 -79.5q0 -30 -6.5 -54t-17.5 -43.5t-25 -34t-29 -25.5q-34 -26 -78 -38v-6q45 -10 80 -35q30 -21 55 -59t25 -101q0 -64 -26 -111.5t-71.5 -79 t-107 -47.5t-133.5 -16q-81 0 -145 17t-109 38q-53 25 -94 56l117 203q28 -28 61 -49q28 -18 63.5 -33t73.5 -15q50 0 73.5 18t23.5 50q0 38 -34.5 52t-97.5 14h-51l-6 182h33q77 0 115.5 17t38.5 59q0 34 -26 50.5t-73 16.5q-23 0 -42 -3t-33 -7q-17 -4 -31 -10z"/>
<glyph glyph-name="acute" horiz-adv-x="864" unicode="´" d="M141 1243l219 381l426 -27l-387 -401z"/>
<glyph glyph-name="paragraph" horiz-adv-x="1327" unicode="¶" d="M1237 1204h-90l51 -1569l-268 -38l-27 1607h-135v-1569l-246 -38v978q-107 6 -195 34.5t-152 83.5t-99 137.5t-35 195.5q0 130 49 218.5t134 143t197.5 78t240.5 23.5h624z"/>
<glyph glyph-name="periodcentered" horiz-adv-x="635" unicode="·" d="M82 584q0 47 13.5 88.5t42.5 72t75.5 48.5t112.5 18q64 0 110.5 -18t77 -48.5t45 -72t14.5 -88.5q0 -44 -13.5 -83.5t-43 -69t-76.5 -47t-114 -17.5q-66 0 -112.5 20.5t-75.5 52.5t-42.5 70t-13.5 74z"/>
<glyph glyph-name="cedilla" horiz-adv-x="807" unicode="¸" d="M389 86l170 -47l-24 -86q28 -4 54.5 -16.5t47 -32.5t33 -47.5t12.5 -61.5q0 -94 -67.5 -150.5t-200.5 -56.5q-50 0 -95.5 5.5t-80.5 13.5q-41 9 -78 20l73 158q22 -8 52.5 -13t58.5 -5q32 0 56 10.5t24 36.5q0 32 -35.5 43.5t-118.5 11.5z"/>
<glyph glyph-name="onesuperior" horiz-adv-x="657" unicode="¹" d="M571 680h-448l-4 186l112 15l-6 389l-125 -10l-18 200l420 51l-15 -634l88 -15z"/>
<glyph glyph-name="ordmasculine" horiz-adv-x="825" unicode="º" d="M412 993q55 0 80.5 41t25.5 115q0 69 -28.5 108t-73.5 39q-56 0 -82.5 -43.5t-26.5 -109.5q0 -69 27.5 -109.5t77.5 -40.5zM418 1522q75 0 141.5 -25.5t116.5 -72.5t79 -115t29 -152q0 -85 -27 -154.5t-75.5 -119t-115.5 -76.5t-148 -27q-86 0 -156 27.5t-119 77 t-75.5 117t-26.5 147.5q0 77 27.5 145t77.5 118.5t119 80t153 29.5z"/>
<glyph glyph-name="guillemotright" horiz-adv-x="1358" unicode="»" d="M752 588l-422 -584l-320 148l361 421l-336 351l299 217zM1348 588l-422 -584l-320 148l361 421l-299 394l348 174z"/>
<glyph glyph-name="onequarter" horiz-adv-x="1790" unicode="¼" d="M1094 1415h305l-783 -1419h-307zM571 680h-448l-4 186l112 15l-6 389l-125 -10l-18 200l420 51l-15 -634l88 -15zM1239 297l156 4v229zM1622 799l-10 -498l96 6l-14 -207h-78l-6 -114l-230 -17v131h-424v176l410 523h256z"/>
<glyph glyph-name="onehalf" horiz-adv-x="1882" unicode="½" d="M571 680h-448l-4 186l112 15l-6 389l-125 -10l-18 200l420 51l-15 -634l88 -15zM1108 680q45 40 103 73q50 28 119.5 51t156.5 23q83 0 142 -18t97 -50.5t56 -77.5t18 -99q0 -72 -35.5 -131t-90 -108t-119 -90t-121.5 -75v-8h194l25 82l139 4v-270l-692 14v190l82 58 q87 61 149.5 107.5t102.5 82.5t58.5 65t18.5 56q0 25 -13 39t-44 14q-49 0 -98.5 -29.5t-89.5 -74.5zM1094 1415h305l-783 -1419h-307z"/>
<glyph glyph-name="threequarters" horiz-adv-x="1946" unicode="¾" d="M1395 297l155 4v229zM281 1255h-148l-20 213q43 17 94 30q44 11 101 20.5t122 9.5q33 0 70.5 -3.5t74.5 -13t71 -25.5t60.5 -40.5t42 -59t15.5 -79.5q0 -30 -6.5 -54t-17.5 -43.5t-25 -34t-29 -25.5q-34 -26 -78 -38v-6q45 -10 80 -35q30 -21 55 -59t25 -101 q0 -64 -26 -111.5t-71.5 -79t-107 -47.5t-133.5 -16q-81 0 -145 17t-109 38q-53 25 -94 56l117 203q28 -28 61 -49q28 -18 63.5 -33t73.5 -15q50 0 73.5 18t23.5 50q0 38 -34.5 52t-97.5 14h-51l-6 182h33q77 0 115.5 17t38.5 59q0 34 -26 50.5t-73 16.5q-23 0 -42 -3 t-33 -7q-17 -4 -31 -10zM1778 799l-11 -498l97 6l-15 -207h-77l-7 -114l-229 -17v131h-424v176l410 523h256zM1249 1415h305l-782 -1419h-307z"/>
<glyph glyph-name="questiondown" horiz-adv-x="1063" unicode="¿" d="M793 911q0 -41 -12.5 -78t-40 -65t-71 -44.5t-104.5 -16.5q-60 0 -103 16.5t-71 44.5t-41.5 65t-13.5 78q0 40 12 76t39.5 63.5t71 43.5t106.5 16q61 0 104.5 -18.5t71 -48t40 -64.5t12.5 -68zM1042 -211q-60 -59 -138 -105q-33 -20 -74 -38.5t-89 -33t-102.5 -23.5 t-114.5 -9q-105 0 -190.5 21.5t-146 65.5t-93.5 112t-33 160t29.5 154.5t73.5 105.5t95 73t95 58t73.5 60t29.5 79q0 23 -5 46t-10 42q-6 22 -14 43l340 59q11 -32 20 -66q8 -29 14.5 -64.5t6.5 -69.5q0 -78 -26.5 -132.5t-66.5 -94t-86 -68.5t-86 -55.5t-66.5 -54.5 t-26.5 -66q0 -48 27 -69t67 -21q49 0 91 17.5t74.5 41.5t54 48t30.5 36z"/>
<glyph glyph-name="Agrave" horiz-adv-x="1481" unicode="À" d="M711 1589l-392 365l426 26l224 -344zM592 549h291l-115 522h-8zM387 1470l627 39l336 -1218h73l47 -283l-460 -33l-62 275h-452l-86 -266l-400 59l457 1153l-123 14z"/>
<glyph glyph-name="Aacute" horiz-adv-x="1481" unicode="Á" d="M449 1642l223 345l426 -27l-391 -365zM592 549h291l-115 522h-8zM387 1470l627 39l336 -1218h73l47 -283l-460 -33l-62 275h-452l-86 -266l-400 59l457 1153l-123 14z"/>
<glyph glyph-name="Acircumflex" horiz-adv-x="1481" unicode="Â" d="M293 1653l315 364h262l295 -360l-313 -51l-117 188l-153 -207zM592 549h291l-115 522h-8zM387 1470l627 39l336 -1218h73l47 -283l-460 -33l-62 275h-452l-86 -266l-400 59l457 1153l-123 14z"/>
<glyph glyph-name="Atilde" horiz-adv-x="1481" unicode="Ã" d="M279 1733q14 32 36 67t54 64t76.5 48t103.5 19q48 0 86 -11t71 -23.5t65 -23.5t69 -11q21 0 36 8t26 20.5t18 27t12 26.5l205 -101q-11 -34 -31 -71t-50.5 -67.5t-73 -50.5t-99.5 -20q-54 0 -94.5 10t-75 22t-66 22t-67.5 10q-44 0 -72.5 -27.5t-46.5 -71.5zM592 549h291 l-115 522h-8zM387 1470l627 39l336 -1218h73l47 -283l-460 -33l-62 275h-452l-86 -266l-400 59l457 1153l-123 14z"/>
<glyph glyph-name="Adieresis" horiz-adv-x="1481" unicode="Ä" d="M741 1776q0 37 11.5 69.5t34 56t55.5 37t76 13.5t76 -13.5t55.5 -37t34.5 -56t12 -69.5q0 -38 -12 -70t-34.5 -55t-55.5 -36t-76 -13t-76 13t-55.5 36t-34 55t-11.5 70zM315 1776q0 37 12 69.5t35 56t56.5 37t75.5 13.5q41 0 74 -13.5t55.5 -37t34.5 -56t12 -69.5 q0 -38 -11.5 -70t-34 -55t-55 -36t-75.5 -13t-76.5 13t-56 36t-34.5 55t-12 70zM592 549h291l-115 522h-8zM387 1470l627 39l336 -1218h73l47 -283l-460 -33l-62 275h-452l-86 -266l-400 59l457 1153l-123 14z"/>
<glyph glyph-name="Aring" horiz-adv-x="1481" unicode="Å" d="M625 1808q0 -27 16 -46t47 -19q29 0 45.5 19t16.5 46q0 29 -16.5 48.5t-45.5 19.5q-31 0 -47 -19.5t-16 -48.5zM459 1806q0 47 14.5 87t43.5 69.5t71.5 46t99.5 16.5t100.5 -16.5t72.5 -46t44 -69.5t15 -87q0 -46 -15 -85.5t-44.5 -68t-73 -45t-99.5 -16.5t-98.5 16.5 t-71.5 45t-44 68t-15 85.5zM592 549h291l-115 522h-8zM387 1470l627 39l336 -1218h73l47 -283l-460 -33l-62 275h-452l-86 -266l-400 59l457 1153l-123 14z"/>
<glyph glyph-name="AE" horiz-adv-x="1917" unicode="Æ" d="M694 618h256l-8 506h-8zM563 1473l1323 40l-41 -354l-489 10v-297l342 15l-25 -334l-317 6v-246l489 23l-30 -348h-854l-7 331h-397l-178 -335l-369 133l633 1079l-123 14z"/>
<glyph glyph-name="Ccedilla" horiz-adv-x="1333" unicode="Ç" d="M582 6q-114 23 -211 79t-168 145t-111.5 210t-40.5 275q0 180 52 329t151 255t242.5 164.5t326.5 58.5q66 0 134.5 -13.5t133 -39.5t122 -64t100.5 -86l-232 -281q-16 19 -40 40.5t-57.5 39.5t-76 29.5t-96.5 11.5q-69 0 -130 -27.5t-106 -81t-71.5 -133t-26.5 -184.5 t26.5 -179t71.5 -120.5t104 -68t124 -21.5q71 0 155 32t170 103l138 -317q-49 -35 -103 -65t-113.5 -52.5t-126 -36.5t-141.5 -16l-10 -39q28 -4 55 -16.5t47.5 -32.5t33 -47.5t12.5 -61.5q0 -94 -68 -150.5t-201 -56.5q-50 0 -95.5 5.5t-80.5 13.5q-41 9 -78 20l74 158 q22 -8 52.5 -13t58.5 -5q32 0 56 10.5t24 36.5q0 32 -35.5 43.5t-118.5 11.5z"/>
<glyph glyph-name="Egrave" horiz-adv-x="1157" unicode="È" d="M573 1589l-391 365l426 26l223 -344zM41 1481l1085 32l-41 -354l-532 10v-280l385 14l-25 -334l-360 6v-262l532 23l-30 -354l-887 30l-29 1168l-102 8z"/>
<glyph glyph-name="Eacute" horiz-adv-x="1157" unicode="É" d="M295 1642l223 345l426 -27l-391 -365zM41 1481l1085 32l-41 -354l-532 10v-280l385 14l-25 -334l-360 6v-262l532 23l-30 -354l-887 30l-29 1168l-102 8z"/>
<glyph glyph-name="Ecircumflex" horiz-adv-x="1157" unicode="Ê" d="M156 1653l315 364h262l295 -360l-313 -51l-117 188l-154 -207zM41 1481l1085 32l-41 -354l-532 10v-280l385 14l-25 -334l-360 6v-262l532 23l-30 -354l-887 30l-29 1168l-102 8z"/>
<glyph glyph-name="Edieresis" horiz-adv-x="1157" unicode="Ë" d="M616 1776q0 37 11.5 69.5t34 56t55.5 37t76 13.5t76 -13.5t55.5 -37t34.5 -56t12 -69.5q0 -38 -12 -70t-34.5 -55t-55.5 -36t-76 -13t-76 13t-55.5 36t-34 55t-11.5 70zM190 1776q0 37 12 69.5t35 56t56.5 37t75.5 13.5q41 0 74 -13.5t55.5 -37t34.5 -56t12 -69.5 q0 -38 -11.5 -70t-34 -55t-55 -36t-75.5 -13t-76.5 13t-56 36t-34.5 55t-12 70zM41 1481l1085 32l-41 -354l-532 10v-280l385 14l-25 -334l-360 6v-262l532 23l-30 -354l-887 30l-29 1168l-102 8z"/>
<glyph glyph-name="Igrave" horiz-adv-x="625" unicode="Ì" d="M242 1589l-392 365l426 26l224 -344zM492 0h-361l-49 1491l461 37z"/>
<glyph glyph-name="Iacute" horiz-adv-x="625" unicode="Í" d="M70 1642l223 345l426 -27l-391 -365zM492 0h-361l-49 1491l461 37z"/>
<glyph glyph-name="Icircumflex" horiz-adv-x="625" unicode="Î" d="M-102 1653l315 364h262l295 -360l-313 -51l-117 188l-154 -207zM492 0h-361l-49 1491l461 37z"/>
<glyph glyph-name="Idieresis" horiz-adv-x="625" unicode="Ï" d="M373 1776q0 37 11.5 69.5t33.5 56t55 37t76 13.5t76.5 -13.5t56 -37t34 -56t11.5 -69.5q0 -38 -11.5 -70t-34 -55t-56 -36t-76.5 -13t-76 13t-55 36t-33.5 55t-11.5 70zM-53 1776q0 37 12 69.5t34.5 56t56 37t75.5 13.5t74.5 -13.5t55 -37t34.5 -56t12 -69.5 q0 -38 -11.5 -70t-33.5 -55t-55 -36t-76 -13t-76.5 13t-56 36t-34 55t-11.5 70zM492 0h-361l-49 1491l461 37z"/>
<glyph glyph-name="Eth" horiz-adv-x="1401" unicode="Ð" d="M918 764q0 207 -75 303t-235 96h-37l-10 -321h213l-18 -207l-199 -10l-4 -297q12 -2 29.5 -3t29.5 -1q149 0 227.5 112.5t78.5 327.5zM23 842h120v325l-106 29v281q57 3 117 5.5t115.5 4.5t103.5 3t80 1q132 0 250 -14.5t218 -48t179.5 -88.5t135 -135.5t85 -189 t29.5 -249.5q0 -194 -60.5 -337.5t-175.5 -239t-281 -142.5t-376 -47h-314v602l-139 -6z"/>
<glyph glyph-name="Ntilde" horiz-adv-x="1534" unicode="Ñ" d="M317 1733q15 32 37 67t54 64t76.5 48t103.5 19q48 0 86 -11t71 -23.5t65 -23.5t69 -11q21 0 36 8t26 20.5t18 27t12 26.5l205 -101q-11 -34 -31 -71t-50.5 -67.5t-73 -50.5t-99.5 -20q-54 0 -94.5 10t-75 22t-66.5 22t-68 10q-43 0 -71.5 -27.5t-46.5 -71.5zM37 1466 l440 31l645 -895l-69 873l389 32v-1474l-338 -45l-602 841v-829h-316l-45 1139h-104v327z"/>
<glyph glyph-name="Ograve" horiz-adv-x="1411" unicode="Ò" d="M686 1589l-391 365l426 26l223 -344zM713 313q119 0 173 108t54 329q0 94 -14 170.5t-42.5 130.5t-73 83t-105.5 29q-59 0 -101.5 -34t-71 -92.5t-42 -137.5t-13.5 -168q0 -98 16 -175.5t46.5 -131.5t74 -82.5t99.5 -28.5zM707 1511q142 0 261.5 -54t206.5 -153.5 t136 -239.5t49 -312q0 -180 -47 -325t-133 -246.5t-206 -156.5t-267 -55q-143 0 -263.5 57.5t-207.5 160t-136 243t-49 307.5q0 156 43 296.5t126.5 246.5t206 168.5t280.5 62.5z"/>
<glyph glyph-name="Oacute" horiz-adv-x="1411" unicode="Ó" d="M453 1642l223 345l426 -27l-391 -365zM713 313q119 0 173 108t54 329q0 94 -14 170.5t-42.5 130.5t-73 83t-105.5 29q-59 0 -101.5 -34t-71 -92.5t-42 -137.5t-13.5 -168q0 -98 16 -175.5t46.5 -131.5t74 -82.5t99.5 -28.5zM707 1511q142 0 261.5 -54t206.5 -153.5 t136 -239.5t49 -312q0 -180 -47 -325t-133 -246.5t-206 -156.5t-267 -55q-143 0 -263.5 57.5t-207.5 160t-136 243t-49 307.5q0 156 43 296.5t126.5 246.5t206 168.5t280.5 62.5z"/>
<glyph glyph-name="Ocircumflex" horiz-adv-x="1411" unicode="Ô" d="M266 1653l316 364h262l295 -360l-314 -51l-116 188l-154 -207zM713 313q119 0 173 108t54 329q0 94 -14 170.5t-42.5 130.5t-73 83t-105.5 29q-59 0 -101.5 -34t-71 -92.5t-42 -137.5t-13.5 -168q0 -98 16 -175.5t46.5 -131.5t74 -82.5t99.5 -28.5zM707 1511 q142 0 261.5 -54t206.5 -153.5t136 -239.5t49 -312q0 -180 -47 -325t-133 -246.5t-206 -156.5t-267 -55q-143 0 -263.5 57.5t-207.5 160t-136 243t-49 307.5q0 156 43 296.5t126.5 246.5t206 168.5t280.5 62.5z"/>
<glyph glyph-name="Otilde" horiz-adv-x="1411" unicode="Õ" d="M256 1733q15 32 36.5 67t54 64t76.5 48t103 19q48 0 86 -11t71 -23.5t65 -23.5t69 -11q21 0 36 8t26 20.5t18 27t12 26.5l205 -101q-11 -34 -30.5 -71t-50.5 -67.5t-73.5 -50.5t-99.5 -20q-54 0 -94.5 10t-75 22t-66 22t-67.5 10q-43 0 -71.5 -27.5t-47.5 -71.5zM713 313 q119 0 173 108t54 329q0 94 -14 170.5t-42.5 130.5t-73 83t-105.5 29q-59 0 -101.5 -34t-71 -92.5t-42 -137.5t-13.5 -168q0 -98 16 -175.5t46.5 -131.5t74 -82.5t99.5 -28.5zM707 1511q142 0 261.5 -54t206.5 -153.5t136 -239.5t49 -312q0 -180 -47 -325t-133 -246.5 t-206 -156.5t-267 -55q-143 0 -263.5 57.5t-207.5 160t-136 243t-49 307.5q0 156 43 296.5t126.5 246.5t206 168.5t280.5 62.5z"/>
<glyph glyph-name="Odieresis" horiz-adv-x="1411" unicode="Ö" d="M739 1776q0 37 11.5 69.5t34 56t55 37t75.5 13.5t76.5 -13.5t56 -37t34.5 -56t12 -69.5q0 -38 -12 -70t-34.5 -55t-56 -36t-76.5 -13t-75.5 13t-55 36t-34 55t-11.5 70zM313 1776q0 37 12 69.5t35 56t56.5 37t75.5 13.5q41 0 74 -13.5t55.5 -37t34.5 -56t12 -69.5 q0 -38 -11.5 -70t-34 -55t-55 -36t-75.5 -13t-76.5 13t-56 36t-34.5 55t-12 70zM713 313q119 0 173 108t54 329q0 94 -14 170.5t-42.5 130.5t-73 83t-105.5 29q-59 0 -101.5 -34t-71 -92.5t-42 -137.5t-13.5 -168q0 -98 16 -175.5t46.5 -131.5t74 -82.5t99.5 -28.5z M707 1511q142 0 261.5 -54t206.5 -153.5t136 -239.5t49 -312q0 -180 -47 -325t-133 -246.5t-206 -156.5t-267 -55q-143 0 -263.5 57.5t-207.5 160t-136 243t-49 307.5q0 156 43 296.5t126.5 246.5t206 168.5t280.5 62.5z"/>
<glyph glyph-name="multiply" horiz-adv-x="1178" unicode="×" d="M553 762l311 342l221 -248l-303 -307l346 -322l-254 -211l-307 312l-305 -312l-211 195l303 334l-303 311l178 209z"/>
<glyph glyph-name="Oslash" horiz-adv-x="1411" unicode="Ø" d="M455 733q0 -69 6 -127l395 514q-29 28 -67.5 44t-86.5 16q-65 0 -111.5 -35.5t-76.5 -96t-44.5 -142t-14.5 -173.5zM711 301q132 0 191 110.5t59 340.5q0 67 -9 129l-403 -504q32 -37 72 -56.5t90 -19.5zM707 1511q103 0 194 -29t168 -83l88 112l203 -122l-129 -160 q62 -96 95.5 -215.5t33.5 -261.5q0 -180 -47 -325t-133 -246.5t-206 -156.5t-267 -55q-110 0 -205.5 33.5t-175.5 95.5l-103 -129l-172 103l137 178q-66 97 -101.5 220.5t-35.5 266.5q0 156 43 296.5t126.5 246.5t206 168.5t280.5 62.5z"/>
<glyph glyph-name="Ugrave" horiz-adv-x="1399" unicode="Ù" d="M692 1589l-391 365l426 26l223 -344zM1286 1493q5 -71 9.5 -145t8 -145.5t6 -137.5t4 -121t2.5 -96t1 -62q0 -216 -41.5 -369t-122 -251t-199.5 -143.5t-274 -45.5t-268 47.5t-186.5 144t-108.5 244t-35 347.5q0 38 1.5 95.5t5 143t10.5 204.5t18 280l405 8 q-5 -97 -10 -193.5t-9 -186t-6.5 -168t-2.5 -138.5q0 -150 14.5 -242t41 -143t63 -68.5t81.5 -17.5q26 0 52 3.5t50 18t44 44.5t35 83.5t23.5 134.5t8.5 197q0 91 -0.5 168.5t-2 153.5t-6 156.5t-11.5 176.5z"/>
<glyph glyph-name="Uacute" horiz-adv-x="1399" unicode="Ú" d="M512 1642l223 345l426 -27l-391 -365zM1286 1493q5 -71 9.5 -145t8 -145.5t6 -137.5t4 -121t2.5 -96t1 -62q0 -216 -41.5 -369t-122 -251t-199.5 -143.5t-274 -45.5t-268 47.5t-186.5 144t-108.5 244t-35 347.5q0 38 1.5 95.5t5 143t10.5 204.5t18 280l405 8 q-5 -97 -10 -193.5t-9 -186t-6.5 -168t-2.5 -138.5q0 -150 14.5 -242t41 -143t63 -68.5t81.5 -17.5q26 0 52 3.5t50 18t44 44.5t35 83.5t23.5 134.5t8.5 197q0 91 -0.5 168.5t-2 153.5t-6 156.5t-11.5 176.5z"/>
<glyph glyph-name="Ucircumflex" horiz-adv-x="1399" unicode="Û" d="M283 1653l315 364h262l295 -360l-313 -51l-117 188l-154 -207zM1286 1493q5 -71 9.5 -145t8 -145.5t6 -137.5t4 -121t2.5 -96t1 -62q0 -216 -41.5 -369t-122 -251t-199.5 -143.5t-274 -45.5t-268 47.5t-186.5 144t-108.5 244t-35 347.5q0 38 1.5 95.5t5 143t10.5 204.5 t18 280l405 8q-5 -97 -10 -193.5t-9 -186t-6.5 -168t-2.5 -138.5q0 -150 14.5 -242t41 -143t63 -68.5t81.5 -17.5q26 0 52 3.5t50 18t44 44.5t35 83.5t23.5 134.5t8.5 197q0 91 -0.5 168.5t-2 153.5t-6 156.5t-11.5 176.5z"/>
<glyph glyph-name="Udieresis" horiz-adv-x="1399" unicode="Ü" d="M737 1776q0 37 11.5 69.5t34 56t55 37t75.5 13.5t76.5 -13.5t56 -37t34.5 -56t12 -69.5q0 -38 -12 -70t-34.5 -55t-56 -36t-76.5 -13t-75.5 13t-55 36t-34 55t-11.5 70zM311 1776q0 37 12 69.5t35 56t56 37t75 13.5t74.5 -13.5t55.5 -37t35 -56t12 -69.5q0 -38 -11.5 -70 t-34 -55t-55.5 -36t-76 -13t-76 13t-55.5 36t-34.5 55t-12 70zM1286 1493q5 -71 9.5 -145t8 -145.5t6 -137.5t4 -121t2.5 -96t1 -62q0 -216 -41.5 -369t-122 -251t-199.5 -143.5t-274 -45.5t-268 47.5t-186.5 144t-108.5 244t-35 347.5q0 38 1.5 95.5t5 143t10.5 204.5 t18 280l405 8q-5 -97 -10 -193.5t-9 -186t-6.5 -168t-2.5 -138.5q0 -150 14.5 -242t41 -143t63 -68.5t81.5 -17.5q26 0 52 3.5t50 18t44 44.5t35 83.5t23.5 134.5t8.5 197q0 91 -0.5 168.5t-2 153.5t-6 156.5t-11.5 176.5z"/>
<glyph glyph-name="Yacute" horiz-adv-x="1526" unicode="Ý" d="M571 1642l224 345l426 -27l-392 -365zM530 0v508l-315 627l-94 -35l-101 311l467 117l285 -678l320 668l413 -119l-551 -891v-508h-424z"/>
<glyph glyph-name="Thorn" horiz-adv-x="1264" unicode="Þ" d="M788 748q0 55 -21 94t-58.5 64t-90 36.5t-114.5 11.5v-430h59q111 0 168 53.5t57 170.5zM516 1262q168 -7 296 -40.5t214.5 -96.5t131 -156.5t44.5 -220.5q0 -138 -53.5 -240.5t-142.5 -167.5q-44 -32 -93.5 -53.5t-102 -35.5t-106.5 -20t-106 -6h-94v-225h-389l-23 1481 l434 20z"/>
<glyph glyph-name="germandbls" horiz-adv-x="1255" unicode="ß" d="M1141 1126q0 -74 -17.5 -131t-48.5 -99.5t-73.5 -72.5t-92.5 -49q48 -10 102 -34t99 -68.5t74.5 -110.5t29.5 -160t-28.5 -171.5t-81 -133t-126 -86t-163.5 -30.5q-81 0 -150.5 13.5t-121.5 33.5l57 288q55 -36 127 -36q57 0 89 39t32 116q0 55 -20.5 96t-57 68t-87 40 t-110.5 13v262q87 0 134 40t47 118q0 37 -10 64.5t-28 44.5t-42 25.5t-51 8.5q-38 0 -68 -16.5t-51 -57t-32 -108.5t-11 -170q0 -95 0.5 -173.5t1 -148.5t2 -134t3.5 -128.5t4.5 -134t6.5 -149.5l-469 12v195l80 12v649q0 142 24.5 261t87.5 204.5t171.5 133.5t275.5 48 q96 0 170 -19t128.5 -50.5t91.5 -72t60 -83t32.5 -84t9.5 -74.5z"/>
<glyph glyph-name="agrave" horiz-adv-x="1169" unicode="à" d="M629 1198l-387 401l450 27l219 -381zM723 768q-7 4 -21.5 10t-33 11.5t-39.5 9.5t-41 4q-42 0 -74.5 -20.5t-54.5 -58t-33.5 -90t-11.5 -116.5q0 -112 39.5 -172.5t117.5 -60.5q35 0 75.5 16t66.5 53zM1096 1087q-6 -71 -12 -155t-10 -172.5t-6.5 -177t-2.5 -168.5 q0 -98 6 -185l68 -20v-178l-357 -39l-34 123q-36 -43 -72.5 -71.5t-73.5 -45t-74.5 -23t-76.5 -6.5q-87 0 -162 34t-130 100t-86.5 163t-31.5 223q0 128 34 240t96.5 195t151 130.5t197.5 47.5q77 0 131.5 -23t102.5 -61l10 45z"/>
<glyph glyph-name="aacute" horiz-adv-x="1169" unicode="á" d="M401 1243l220 381l426 -27l-388 -401zM723 768q-7 4 -21.5 10t-33 11.5t-39.5 9.5t-41 4q-42 0 -74.5 -20.5t-54.5 -58t-33.5 -90t-11.5 -116.5q0 -112 39.5 -172.5t117.5 -60.5q35 0 75.5 16t66.5 53zM1096 1087q-6 -71 -12 -155t-10 -172.5t-6.5 -177t-2.5 -168.5 q0 -98 6 -185l68 -20v-178l-357 -39l-34 123q-36 -43 -72.5 -71.5t-73.5 -45t-74.5 -23t-76.5 -6.5q-87 0 -162 34t-130 100t-86.5 163t-31.5 223q0 128 34 240t96.5 195t151 130.5t197.5 47.5q77 0 131.5 -23t102.5 -61l10 45z"/>
<glyph glyph-name="acircumflex" horiz-adv-x="1169" unicode="â" d="M162 1245l315 365h262l295 -361l-313 -51l-117 188l-153 -206zM723 768q-7 4 -21.5 10t-33 11.5t-39.5 9.5t-41 4q-42 0 -74.5 -20.5t-54.5 -58t-33.5 -90t-11.5 -116.5q0 -112 39.5 -172.5t117.5 -60.5q35 0 75.5 16t66.5 53zM1096 1087q-6 -71 -12 -155t-10 -172.5 t-6.5 -177t-2.5 -168.5q0 -98 6 -185l68 -20v-178l-357 -39l-34 123q-36 -43 -72.5 -71.5t-73.5 -45t-74.5 -23t-76.5 -6.5q-87 0 -162 34t-130 100t-86.5 163t-31.5 223q0 128 34 240t96.5 195t151 130.5t197.5 47.5q77 0 131.5 -23t102.5 -61l10 45z"/>
<glyph glyph-name="atilde" horiz-adv-x="1169" unicode="ã" d="M147 1352q15 32 37 67t54 64t76.5 48t103.5 19q48 0 86 -11t71 -23.5t65 -23.5t69 -11q21 0 36 8t26 20.5t18 27t12 26.5l205 -101q-11 -34 -31 -71t-50.5 -67.5t-73 -50.5t-99.5 -20q-54 0 -94.5 10t-75 22t-66 22t-67.5 10q-44 0 -72.5 -27.5t-46.5 -70.5zM723 768 q-7 4 -21.5 10t-33 11.5t-39.5 9.5t-41 4q-42 0 -74.5 -20.5t-54.5 -58t-33.5 -90t-11.5 -116.5q0 -112 39.5 -172.5t117.5 -60.5q35 0 75.5 16t66.5 53zM1096 1087q-6 -71 -12 -155t-10 -172.5t-6.5 -177t-2.5 -168.5q0 -98 6 -185l68 -20v-178l-357 -39l-34 123 q-36 -43 -72.5 -71.5t-73.5 -45t-74.5 -23t-76.5 -6.5q-87 0 -162 34t-130 100t-86.5 163t-31.5 223q0 128 34 240t96.5 195t151 130.5t197.5 47.5q77 0 131.5 -23t102.5 -61l10 45z"/>
<glyph glyph-name="adieresis" horiz-adv-x="1169" unicode="ä" d="M635 1393q0 37 11.5 69.5t33.5 56t55 37t76 13.5t76.5 -13.5t56 -37t34 -56t11.5 -69.5q0 -38 -11.5 -70t-34 -55t-56 -36t-76.5 -13t-76 13t-55 36t-33.5 55t-11.5 70zM209 1393q0 37 12 69.5t34.5 56t56 37t75.5 13.5t74.5 -13.5t55 -37t34.5 -56t12 -69.5 q0 -38 -11.5 -70t-33.5 -55t-55 -36t-76 -13t-76.5 13t-56 36t-34 55t-11.5 70zM723 768q-7 4 -21.5 10t-33 11.5t-39.5 9.5t-41 4q-42 0 -74.5 -20.5t-54.5 -58t-33.5 -90t-11.5 -116.5q0 -112 39.5 -172.5t117.5 -60.5q35 0 75.5 16t66.5 53zM1096 1087q-6 -71 -12 -155 t-10 -172.5t-6.5 -177t-2.5 -168.5q0 -98 6 -185l68 -20v-178l-357 -39l-34 123q-36 -43 -72.5 -71.5t-73.5 -45t-74.5 -23t-76.5 -6.5q-87 0 -162 34t-130 100t-86.5 163t-31.5 223q0 128 34 240t96.5 195t151 130.5t197.5 47.5q77 0 131.5 -23t102.5 -61l10 45z"/>
<glyph glyph-name="aring" horiz-adv-x="1169" unicode="å" d="M516 1430q0 -29 17 -48.5t49 -19.5t48.5 19.5t16.5 48.5q0 30 -16.5 49.5t-48.5 19.5t-49 -19.5t-17 -49.5zM340 1427q0 48 15.5 89.5t45.5 72t75.5 47.5t105.5 17t106 -17t77 -47.5t46.5 -72t15.5 -89.5t-16 -88.5t-47 -70t-76.5 -46t-105.5 -16.5q-59 0 -104.5 16.5 t-76 46t-46 70t-15.5 88.5zM723 768q-7 4 -21.5 10t-33 11.5t-39.5 9.5t-41 4q-42 0 -74.5 -20.5t-54.5 -58t-33.5 -90t-11.5 -116.5q0 -112 39.5 -172.5t117.5 -60.5q35 0 75.5 16t66.5 53zM1096 1087q-6 -71 -12 -155t-10 -172.5t-6.5 -177t-2.5 -168.5q0 -98 6 -185 l68 -20v-178l-357 -39l-34 123q-36 -43 -72.5 -71.5t-73.5 -45t-74.5 -23t-76.5 -6.5q-87 0 -162 34t-130 100t-86.5 163t-31.5 223q0 128 34 240t96.5 195t151 130.5t197.5 47.5q77 0 131.5 -23t102.5 -61l10 45z"/>
<glyph glyph-name="ae" horiz-adv-x="1731" unicode="æ" d="M1333 662q0 43 -6 77.5t-20 59t-38.5 38t-60.5 13.5q-31 0 -56 -15.5t-42.5 -43t-27 -66.5t-9.5 -86zM723 768q-7 4 -21.5 10t-33 11.5t-39.5 9.5t-41 4q-42 0 -74.5 -20.5t-54.5 -58t-33.5 -90t-11.5 -116.5q0 -112 39.5 -172.5t117.5 -60.5q35 0 75.5 16t66.5 53z M1292 240q69 0 139 17t132 52l67 -264q-38 -18 -80 -34t-88 -28t-97 -19t-108 -7q-81 0 -147.5 20t-120.5 52l-180 -37l-35 123q-36 -43 -76.5 -71.5t-82 -45t-83.5 -23t-81 -6.5q-87 0 -162 34t-130 100t-86.5 163t-31.5 223q0 128 34 240t96.5 195t151 130.5t197.5 47.5 q77 0 131.5 -23t102.5 -61l10 53l262 35l-6 -43q45 23 98.5 37t118.5 14q87 0 153.5 -19.5t116 -53t83.5 -78.5t54.5 -95.5t29.5 -104t9 -104.5q0 -32 -2.5 -66.5t-7 -67.5t-10 -62.5t-12.5 -50.5h-582q5 -47 26.5 -79.5t52 -53t68.5 -30t76 -9.5z"/>
<glyph glyph-name="ccedilla" horiz-adv-x="1071" unicode="ç" d="M428 -18q-94 22 -166 71t-121 118.5t-74.5 157t-25.5 187.5q0 135 43.5 245.5t120.5 189t183.5 121t232.5 42.5q51 0 102.5 -6t102.5 -22t100 -44.5t94 -72.5l-193 -271q-43 51 -92.5 75t-111.5 24q-50 0 -89 -20t-65.5 -55.5t-40.5 -84.5t-14 -107q0 -125 58.5 -188 t166.5 -63q51 0 109 17t126 71l103 -273q-69 -57 -158 -89t-186 -40l-2 -16q28 -4 55 -16t47 -31.5t32.5 -46t12.5 -60.5q0 -94 -67.5 -150.5t-200.5 -56.5q-50 0 -95.5 5.5t-80.5 13.5q-41 9 -78 20l74 158q21 -8 51.5 -13t58.5 -5q32 0 56 10.5t24 36.5q0 32 -35 43.5 t-118 11.5z"/>
<glyph glyph-name="egrave" horiz-adv-x="1073" unicode="è" d="M512 1198l-387 401l450 27l220 -381zM676 662q0 43 -6 77.5t-20.5 59t-38.5 38t-60 13.5q-31 0 -56.5 -15.5t-44 -43t-28.5 -66.5t-10 -86zM635 240q69 0 138.5 17t131.5 52l68 -264q-77 -35 -168 -61.5t-205 -26.5q-139 0 -244 44.5t-175 121.5t-105 181t-35 224 q0 68 13 138t41 135t71 122t103 99.5t137.5 67t173.5 24.5q86 0 153 -19.5t116.5 -53t83.5 -78.5t54.5 -95.5t29.5 -104t9 -104.5q0 -32 -2.5 -66.5t-7 -67.5t-10.5 -62.5t-13 -50.5h-581q5 -47 26 -79.5t52 -53t68.5 -30t76.5 -9.5z"/>
<glyph glyph-name="eacute" horiz-adv-x="1073" unicode="é" d="M326 1243l219 381l426 -27l-387 -401zM676 662q0 43 -6 77.5t-20.5 59t-38.5 38t-60 13.5q-31 0 -56.5 -15.5t-44 -43t-28.5 -66.5t-10 -86zM635 240q69 0 138.5 17t131.5 52l68 -264q-77 -35 -168 -61.5t-205 -26.5q-139 0 -244 44.5t-175 121.5t-105 181t-35 224 q0 68 13 138t41 135t71 122t103 99.5t137.5 67t173.5 24.5q86 0 153 -19.5t116.5 -53t83.5 -78.5t54.5 -95.5t29.5 -104t9 -104.5q0 -32 -2.5 -66.5t-7 -67.5t-10.5 -62.5t-13 -50.5h-581q5 -47 26 -79.5t52 -53t68.5 -30t76.5 -9.5z"/>
<glyph glyph-name="ecircumflex" horiz-adv-x="1073" unicode="ê" d="M100 1245l316 365h262l295 -361l-314 -51l-116 188l-154 -206zM676 662q0 43 -6 77.5t-20.5 59t-38.5 38t-60 13.5q-31 0 -56.5 -15.5t-44 -43t-28.5 -66.5t-10 -86zM635 240q69 0 138.5 17t131.5 52l68 -264q-77 -35 -168 -61.5t-205 -26.5q-139 0 -244 44.5t-175 121.5 t-105 181t-35 224q0 68 13 138t41 135t71 122t103 99.5t137.5 67t173.5 24.5q86 0 153 -19.5t116.5 -53t83.5 -78.5t54.5 -95.5t29.5 -104t9 -104.5q0 -32 -2.5 -66.5t-7 -67.5t-10.5 -62.5t-13 -50.5h-581q5 -47 26 -79.5t52 -53t68.5 -30t76.5 -9.5z"/>
<glyph glyph-name="edieresis" horiz-adv-x="1073" unicode="ë" d="M623 1393q0 37 11.5 69.5t33.5 56t55 37t76 13.5t76 -13.5t55.5 -37t34.5 -56t12 -69.5q0 -38 -12 -70t-34.5 -55t-55.5 -36t-76 -13t-76 13t-55 36t-33.5 55t-11.5 70zM197 1393q0 37 12 69.5t34.5 56t56 37t75.5 13.5q41 0 74 -13.5t55.5 -37t34.5 -56t12 -69.5 q0 -38 -11.5 -70t-34 -55t-55 -36t-75.5 -13t-76.5 13t-56 36t-34 55t-11.5 70zM676 662q0 43 -6 77.5t-20.5 59t-38.5 38t-60 13.5q-31 0 -56.5 -15.5t-44 -43t-28.5 -66.5t-10 -86zM635 240q69 0 138.5 17t131.5 52l68 -264q-77 -35 -168 -61.5t-205 -26.5 q-139 0 -244 44.5t-175 121.5t-105 181t-35 224q0 68 13 138t41 135t71 122t103 99.5t137.5 67t173.5 24.5q86 0 153 -19.5t116.5 -53t83.5 -78.5t54.5 -95.5t29.5 -104t9 -104.5q0 -32 -2.5 -66.5t-7 -67.5t-10.5 -62.5t-13 -50.5h-581q5 -47 26 -79.5t52 -53t68.5 -30 t76.5 -9.5z"/>
<glyph glyph-name="igrave" horiz-adv-x="567" unicode="ì" d="M188 1198l-387 401l451 27l219 -381zM10 1030l488 39l-35 -1069h-344v776l-99 27z"/>
<glyph glyph-name="iacute" horiz-adv-x="567" unicode="í" d="M10 1030l488 39l-35 -1069h-344v776l-99 27zM39 1243l219 381l426 -27l-387 -401z"/>
<glyph glyph-name="icircumflex" horiz-adv-x="567" unicode="î" d="M10 1030l488 39l-35 -1069h-344v776l-99 27zM-152 1245l316 365h262l295 -361l-313 -51l-117 188l-154 -206z"/>
<glyph glyph-name="idieresis" horiz-adv-x="567" unicode="ï" d="M10 1030l488 39l-35 -1069h-344v776l-99 27zM319 1393q0 37 11.5 69.5t34 56t55.5 37t76 13.5t76 -13.5t55.5 -37t34.5 -56t12 -69.5q0 -38 -12 -70t-34.5 -55t-55.5 -36t-76 -13t-76 13t-55.5 36t-34 55t-11.5 70zM-106 1393q0 37 12 69.5t34.5 56t56 37t75.5 13.5 q41 0 74 -13.5t55.5 -37t34.5 -56t12 -69.5q0 -38 -11.5 -70t-34 -55t-55 -36t-75.5 -13t-76.5 13t-56 36t-34 55t-11.5 70z"/>
<glyph glyph-name="eth" horiz-adv-x="1169" unicode="ð" d="M578 262q85 0 133.5 67t48.5 201q0 62 -13.5 109.5t-37.5 79.5t-56.5 48.5t-70.5 16.5q-84 0 -128 -70t-44 -192q0 -125 45 -192.5t123 -67.5zM403 1354q-38 30 -72 55t-61 43.5t-44 29.5t-21 13l393 39q17 -11 49 -32t70 -52l246 78l86 -215l-154 -39q45 -57 87.5 -128 t74.5 -156.5t51.5 -187t19.5 -218.5q0 -125 -33 -238.5t-99.5 -199.5t-168 -136.5t-237.5 -50.5q-132 0 -234.5 42t-172 117t-106 178t-36.5 226q0 118 33 218.5t94.5 174.5t148 116t193.5 42q48 0 94.5 -13.5t81.5 -45.5l4 6q-17 45 -46.5 88.5t-68.5 85.5l-280 -70 l-76 172z"/>
<glyph glyph-name="ntilde" horiz-adv-x="1214" unicode="ñ" d="M141 1352q15 32 37 67t54 64t76.5 48t103.5 19q48 0 86 -11t71 -23.5t64.5 -23.5t68.5 -11q21 0 36.5 8t26.5 20.5t18 27t12 26.5l204 -101q-11 -34 -30.5 -71t-50 -67.5t-73.5 -50.5t-100 -20q-54 0 -94 10t-74.5 22t-66.5 22t-68 10q-43 0 -71.5 -27.5t-46.5 -70.5z M10 1042l391 60l29 -141q27 30 60.5 57.5t74.5 48.5t90 34t107 13q105 0 174.5 -37t110.5 -107t58 -172.5t17 -232.5q0 -43 -1.5 -118.5t-4.5 -188.5l88 -14v-230l-448 -14q0 21 1 57.5t1.5 81.5t1 94t1 94.5t1 83.5t0.5 62q0 97 -6 158t-20 95t-37.5 46t-57.5 12 q-26 0 -51.5 -9t-47.5 -24.5t-39.5 -35.5t-29.5 -41q1 -36 1.5 -89.5t1 -112t1 -116t0.5 -100.5v-130.5t-2 -125.5h-375q1 34 2.5 66t2 63.5t1 64.5t0.5 70v121t-1.5 134.5t-4 137t-6.5 129.5l-84 23v233z"/>
<glyph glyph-name="ograve" horiz-adv-x="1167" unicode="ò" d="M588 1198l-387 401l450 27l219 -381zM578 268q83 0 131.5 68.5t48.5 206.5q0 64 -13.5 112.5t-37 81.5t-56 49.5t-69.5 16.5q-42 0 -74 -18.5t-53.5 -53.5t-33 -84.5t-11.5 -111.5q0 -128 45 -197.5t123 -69.5zM588 1114q118 0 217 -39t170 -112t111 -179t40 -239 t-35 -241.5t-103.5 -185t-169 -118t-230.5 -41.5q-131 0 -233 43t-172 119.5t-106 182.5t-36 231q0 120 36 225t106 184t172 124.5t233 45.5z"/>
<glyph glyph-name="oacute" horiz-adv-x="1167" unicode="ó" d="M328 1243l219 381l426 -27l-387 -401zM578 268q83 0 131.5 68.5t48.5 206.5q0 64 -13.5 112.5t-37 81.5t-56 49.5t-69.5 16.5q-42 0 -74 -18.5t-53.5 -53.5t-33 -84.5t-11.5 -111.5q0 -128 45 -197.5t123 -69.5zM588 1114q118 0 217 -39t170 -112t111 -179t40 -239 t-35 -241.5t-103.5 -185t-169 -118t-230.5 -41.5q-131 0 -233 43t-172 119.5t-106 182.5t-36 231q0 120 36 225t106 184t172 124.5t233 45.5z"/>
<glyph glyph-name="ocircumflex" horiz-adv-x="1167" unicode="ô" d="M147 1245l316 365h262l295 -361l-313 -51l-117 188l-154 -206zM578 268q83 0 131.5 68.5t48.5 206.5q0 64 -13.5 112.5t-37 81.5t-56 49.5t-69.5 16.5q-42 0 -74 -18.5t-53.5 -53.5t-33 -84.5t-11.5 -111.5q0 -128 45 -197.5t123 -69.5zM588 1114q118 0 217 -39t170 -112 t111 -179t40 -239t-35 -241.5t-103.5 -185t-169 -118t-230.5 -41.5q-131 0 -233 43t-172 119.5t-106 182.5t-36 231q0 120 36 225t106 184t172 124.5t233 45.5z"/>
<glyph glyph-name="otilde" horiz-adv-x="1167" unicode="õ" d="M154 1352q15 32 36.5 67t54 64t76.5 48t103 19q48 0 86 -11t71 -23.5t65 -23.5t69 -11q21 0 36 8t26 20.5t18 27t12 26.5l205 -101q-11 -34 -31 -71t-50.5 -67.5t-73 -50.5t-99.5 -20q-54 0 -94.5 10t-75 22t-66 22t-67.5 10q-44 0 -72.5 -27.5t-46.5 -70.5zM578 268 q83 0 131.5 68.5t48.5 206.5q0 64 -13.5 112.5t-37 81.5t-56 49.5t-69.5 16.5q-42 0 -74 -18.5t-53.5 -53.5t-33 -84.5t-11.5 -111.5q0 -128 45 -197.5t123 -69.5zM588 1114q118 0 217 -39t170 -112t111 -179t40 -239t-35 -241.5t-103.5 -185t-169 -118t-230.5 -41.5 q-131 0 -233 43t-172 119.5t-106 182.5t-36 231q0 120 36 225t106 184t172 124.5t233 45.5z"/>
<glyph glyph-name="odieresis" horiz-adv-x="1167" unicode="ö" d="M618 1393q0 37 11.5 69.5t34 56t55.5 37t76 13.5t76 -13.5t55.5 -37t34.5 -56t12 -69.5q0 -38 -12 -70t-34.5 -55t-55.5 -36t-76 -13t-76 13t-55.5 36t-34 55t-11.5 70zM193 1393q0 37 12 69.5t34.5 56t56 37t75.5 13.5q41 0 74 -13.5t55.5 -37t34.5 -56t12 -69.5 q0 -38 -11.5 -70t-34 -55t-55 -36t-75.5 -13t-76.5 13t-56 36t-34 55t-11.5 70zM578 268q83 0 131.5 68.5t48.5 206.5q0 64 -13.5 112.5t-37 81.5t-56 49.5t-69.5 16.5q-42 0 -74 -18.5t-53.5 -53.5t-33 -84.5t-11.5 -111.5q0 -128 45 -197.5t123 -69.5zM588 1114 q118 0 217 -39t170 -112t111 -179t40 -239t-35 -241.5t-103.5 -185t-169 -118t-230.5 -41.5q-131 0 -233 43t-172 119.5t-106 182.5t-36 231q0 120 36 225t106 184t172 124.5t233 45.5z"/>
<glyph glyph-name="divide" horiz-adv-x="1178" unicode="÷" d="M410 143q0 38 11 71t34.5 57.5t61 38.5t91.5 14q51 0 88.5 -14t62 -38.5t36.5 -57.5t12 -71q0 -35 -11 -66.5t-34.5 -55.5t-61.5 -38t-92 -14t-91.5 16.5t-61 42t-34.5 56.5t-11 59zM410 1006q0 37 11 70t34.5 57.5t61 38.5t91.5 14q51 0 88.5 -14t62 -38.5t36.5 -57.5 t12 -70q0 -35 -11 -66.5t-34.5 -55.5t-61.5 -38.5t-92 -14.5t-91.5 16.5t-61 42.5t-34.5 56.5t-11 59.5zM1116 731v-305h-1055v287z"/>
<glyph glyph-name="oslash" horiz-adv-x="1167" unicode="ø" d="M578 252q90 0 142 73.5t52 221.5q0 38 -6 71l-274 -339q34 -27 86 -27zM399 537q0 -22 0.5 -42t3.5 -38l275 338q-20 15 -45 22.5t-51 7.5q-44 0 -78 -20t-57.5 -57.5t-35.5 -90.5t-12 -120zM588 1114q80 0 151.5 -19t132.5 -53l52 68l198 -66l-108 -126 q54 -72 83 -165.5t29 -207.5q0 -133 -35 -241.5t-103.5 -185t-169 -118t-230.5 -41.5q-85 0 -157 19t-132 51l-53 -70l-205 78l111 123q-56 74 -83.5 168.5t-27.5 206.5q0 120 36 225t106 184t172 124.5t233 45.5z"/>
<glyph glyph-name="ugrave" horiz-adv-x="1204" unicode="ù" d="M563 1198l-387 401l451 27l219 -381zM473 1085q-3 -51 -5.5 -112.5t-4 -121.5t-2 -113.5t-0.5 -88.5q0 -104 4.5 -171t17.5 -106t36.5 -54t62.5 -15q52 0 89 31.5t60 79.5q-1 64 -2 114.5t-2 94t-1.5 83t-0.5 82.5q0 68 1 123.5t3 118.5l379 55q-5 -94 -8.5 -212.5 t-3.5 -243.5q0 -94 2.5 -185.5t7.5 -173.5l88 -47v-174l-379 -72l-47 148q-54 -68 -131.5 -111t-183.5 -43q-105 0 -175 31.5t-112 99.5t-59 175t-17 258v112t2 135l-72 21l-10 235z"/>
<glyph glyph-name="uacute" horiz-adv-x="1204" unicode="ú" d="M414 1243l219 381l426 -27l-387 -401zM473 1085q-3 -51 -5.5 -112.5t-4 -121.5t-2 -113.5t-0.5 -88.5q0 -104 4.5 -171t17.5 -106t36.5 -54t62.5 -15q52 0 89 31.5t60 79.5q-1 64 -2 114.5t-2 94t-1.5 83t-0.5 82.5q0 68 1 123.5t3 118.5l379 55q-5 -94 -8.5 -212.5 t-3.5 -243.5q0 -94 2.5 -185.5t7.5 -173.5l88 -47v-174l-379 -72l-47 148q-54 -68 -131.5 -111t-183.5 -43q-105 0 -175 31.5t-112 99.5t-59 175t-17 258v112t2 135l-72 21l-10 235z"/>
<glyph glyph-name="ucircumflex" horiz-adv-x="1204" unicode="û" d="M166 1245l315 365h262l295 -361l-313 -51l-117 188l-153 -206zM473 1085q-3 -51 -5.5 -112.5t-4 -121.5t-2 -113.5t-0.5 -88.5q0 -104 4.5 -171t17.5 -106t36.5 -54t62.5 -15q52 0 89 31.5t60 79.5q-1 64 -2 114.5t-2 94t-1.5 83t-0.5 82.5q0 68 1 123.5t3 118.5l379 55 q-5 -94 -8.5 -212.5t-3.5 -243.5q0 -94 2.5 -185.5t7.5 -173.5l88 -47v-174l-379 -72l-47 148q-54 -68 -131.5 -111t-183.5 -43q-105 0 -175 31.5t-112 99.5t-59 175t-17 258v112t2 135l-72 21l-10 235z"/>
<glyph glyph-name="udieresis" horiz-adv-x="1204" unicode="ü" d="M637 1393q0 37 11.5 69.5t33.5 56t55 37t76 13.5t76.5 -13.5t56 -37t34 -56t11.5 -69.5q0 -38 -11.5 -70t-34 -55t-56 -36t-76.5 -13t-76 13t-55 36t-33.5 55t-11.5 70zM211 1393q0 37 12 69.5t34.5 56t56 37t75.5 13.5t74.5 -13.5t55 -37t34.5 -56t12 -69.5 q0 -38 -11.5 -70t-33.5 -55t-55 -36t-76 -13t-76.5 13t-56 36t-34 55t-11.5 70zM473 1085q-3 -51 -5.5 -112.5t-4 -121.5t-2 -113.5t-0.5 -88.5q0 -104 4.5 -171t17.5 -106t36.5 -54t62.5 -15q52 0 89 31.5t60 79.5q-1 64 -2 114.5t-2 94t-1.5 83t-0.5 82.5q0 68 1 123.5 t3 118.5l379 55q-5 -94 -8.5 -212.5t-3.5 -243.5q0 -94 2.5 -185.5t7.5 -173.5l88 -47v-174l-379 -72l-47 148q-54 -68 -131.5 -111t-183.5 -43q-105 0 -175 31.5t-112 99.5t-59 175t-17 258v112t2 135l-72 21l-10 235z"/>
<glyph glyph-name="yacute" horiz-adv-x="1249" unicode="ý" d="M401 1243l220 381l426 -27l-388 -401zM129 805l-88 -19l-31 273l453 35l182 -715l170 721l393 -47l-407 -1100q-35 -93 -77 -165t-100.5 -121.5t-137 -75t-185.5 -25.5q-56 0 -100 7.5t-76 17.5q-37 11 -66 26l129 297q21 -13 45 -24q20 -9 44.5 -16t48.5 -7q21 0 40.5 5 t37.5 18.5t33.5 37t27.5 60.5l10 32z"/>
<glyph glyph-name="thorn" horiz-adv-x="1194" unicode="þ" d="M10 1436l463 59v-504q48 57 118 88t163 31q90 0 163.5 -35t126 -102t81 -165t28.5 -224q0 -132 -31 -244.5t-91.5 -195t-150.5 -129t-208 -46.5q-35 0 -68 6t-62.5 16t-54.5 21.5t-43 22.5l-10 -488l-368 23q5 140 9.5 290t7.5 300.5t5 297t3.5 279t2 245.5t0.5 198 l-67 22zM467 311q19 -14 54 -25.5t75 -11.5q42 0 76.5 20t59 56.5t38.5 88.5t14 116q0 58 -8 103t-26 76.5t-48 48t-73 16.5q-27 0 -50.5 -8t-43 -20.5t-35 -28.5t-25.5 -31z"/>
<glyph glyph-name="ydieresis" horiz-adv-x="1249" unicode="ÿ" d="M233 1393q0 37 12 69.5t35 56t56.5 37t75.5 13.5q41 0 74 -13.5t55.5 -37t34.5 -56t12 -69.5q0 -38 -11.5 -70t-34 -55t-55 -36t-75.5 -13t-76.5 13t-56 36t-34.5 55t-12 70zM659 1393q0 37 11.5 69.5t34 56t55.5 37t76 13.5t76 -13.5t55.5 -37t34.5 -56t12 -69.5 q0 -38 -12 -70t-34.5 -55t-55.5 -36t-76 -13t-76 13t-55.5 36t-34 55t-11.5 70zM129 805l-88 -19l-31 273l453 35l182 -715l170 721l393 -47l-407 -1100q-35 -93 -77 -165t-100.5 -121.5t-137 -75t-185.5 -25.5q-56 0 -100 7.5t-76 17.5q-37 11 -66 26l129 297 q21 -13 45 -24q20 -9 44.5 -16t48.5 -7q21 0 40.5 5t37.5 18.5t33.5 37t27.5 60.5l10 32z"/>
<glyph glyph-name="dotlessi" horiz-adv-x="567" unicode="ı" d="M10 1030l488 39l-35 -1069h-344v776l-99 27z"/>
<glyph glyph-name="Lslash" horiz-adv-x="1159" unicode="Ł" d="M180 -35l-16 428l-109 -69l-133 139l232 174l-23 612l-94 21v211l541 12l-17 -549l187 139l149 -213l-344 -223l-8 -342l317 19v151h277l-33 -485z"/>
<glyph glyph-name="lslash" horiz-adv-x="631" unicode="ł" d="M27 1438l460 73q-6 -123 -11.5 -254t-10.5 -270l80 57l149 -213l-239 -139q-2 -62 -2 -124.5v-125.5q0 -83 15 -118t50 -35q13 0 30 4.5t40 19.5l63 -256q-60 -38 -128 -62t-142 -24q-79 0 -135.5 22.5t-92.5 74.5t-52.5 138t-16.5 214v57l-80 -45l-133 139l217 154 q1 58 3 119.5t4 121.5t4.5 116.5t4.5 105.5l-79 12z"/>
<glyph glyph-name="OE" horiz-adv-x="1946" unicode="Œ" d="M711 324q115 0 166 104.5t51 319.5q0 93 -13 167.5t-40.5 127.5t-69.5 81.5t-100 28.5q-56 0 -97 -33.5t-68 -90.5t-40 -133.5t-13 -162.5q0 -97 15.5 -173t44 -128.5t70 -80t94.5 -27.5zM707 1511q51 0 99 -7t93 -21l1016 30l-41 -354l-533 10v-280l385 14l-24 -334 l-361 6v-262l533 23l-31 -354l-897 32q-54 -21 -113.5 -33t-125.5 -12q-143 0 -263.5 57.5t-207.5 160t-136 243t-49 307.5q0 156 43 296.5t126.5 246.5t206 168.5t280.5 62.5z"/>
<glyph glyph-name="oe" horiz-adv-x="1767" unicode="œ" d="M1370 662q0 43 -6 77.5t-20.5 59t-38.5 38t-60 13.5q-31 0 -56.5 -15.5t-44 -43t-28.5 -66.5t-10 -86zM578 268q83 0 131.5 68.5t48.5 206.5q0 64 -13.5 112.5t-37 81.5t-56 49.5t-69.5 16.5q-42 0 -74 -18.5t-53.5 -53.5t-33 -84.5t-11.5 -111.5q0 -128 45 -197.5 t123 -69.5zM1329 240q69 0 139 17t131 52l68 -264q-38 -18 -80 -34t-88 -28t-97 -19t-108 -7q-117 0 -206 31t-152 88q-63 -57 -150 -87t-198 -30q-131 0 -233 43t-172 119.5t-106 182.5t-36 231q0 120 36 225t106 184t172 124.5t233 45.5q106 0 193 -31t153 -90 q60 56 143.5 88.5t196.5 32.5q86 0 153 -19.5t116.5 -53t83.5 -78.5t54.5 -95.5t29.5 -104t9 -104.5q0 -32 -2.5 -66.5t-7 -67.5t-10 -62.5t-12.5 -50.5h-582q5 -47 26.5 -79.5t52 -53t68.5 -30t76 -9.5z"/>
<glyph glyph-name="Scaron" horiz-adv-x="1235" unicode="Š" d="M502 2025l137 -186l94 168l320 -47l-279 -344h-262l-303 346zM666 1180q-29 0 -56 -7t-47.5 -21t-32.5 -34.5t-12 -46.5q0 -35 28.5 -59.5t75 -45.5t106.5 -41.5t122 -47t122 -62t106.5 -86.5t75 -121t28.5 -164q0 -104 -38 -188t-109 -142.5t-173 -90t-229 -31.5 q-93 0 -174.5 15.5t-153 42t-134.5 61.5t-118 75l228 303q52 -51 99 -86.5t91.5 -57t87 -31t84.5 -9.5q66 0 107 26t41 77q0 41 -29 69.5t-77 52.5t-109 45.5t-125 49t-125 63t-109 86.5t-77 121t-29 166q0 103 37 186t107.5 141.5t172 89.5t229.5 31q77 0 154 -14.5 t146.5 -40.5t128.5 -61.5t100 -77.5l-238 -266q-21 24 -49 47t-63 42t-77.5 30.5t-92.5 11.5z"/>
<glyph glyph-name="scaron" horiz-adv-x="1010" unicode="š" d="M389 1647l154 -207l116 188l314 -51l-295 -360h-262l-316 364zM455 764q0 -25 21.5 -42.5t57 -33t80.5 -30.5t92.5 -34t92.5 -45t80.5 -62.5t57 -86.5t21.5 -117q0 -79 -34 -145t-95.5 -114t-146 -74.5t-184.5 -26.5q-70 0 -136 10.5t-125 29t-109 44t-87 55.5l176 240 q40 -28 75.5 -47.5t68 -32t63 -18t61.5 -5.5q45 0 69 19.5t24 44.5q0 14 -5.5 25.5t-19 22t-36 21.5t-56.5 23q-42 15 -85 31t-84 37t-77 48t-63 62t-42.5 80.5t-15.5 104.5q0 76 32 141t91 112.5t143 74t189 26.5q67 0 127.5 -10.5t113 -28.5t95.5 -41t76 -47l-152 -244 q-78 57 -139 78.5t-111 21.5q-30 0 -50 -5.5t-32 -15t-17 -21.5t-5 -25z"/>
<glyph glyph-name="Ydieresis" horiz-adv-x="1526" unicode="Ÿ" d="M809 1776q0 37 11.5 69.5t33.5 56t55 37t76 13.5t76.5 -13.5t56 -37t34 -56t11.5 -69.5q0 -38 -11.5 -70t-34 -55t-56 -36t-76.5 -13t-76 13t-55 36t-33.5 55t-11.5 70zM383 1776q0 37 12 69.5t35 56t56 37t75 13.5t74.5 -13.5t55 -37t34.5 -56t12 -69.5q0 -38 -11.5 -70 t-33.5 -55t-55 -36t-76 -13t-76.5 13t-56 36t-34 55t-11.5 70zM530 0v508l-315 627l-94 -35l-101 311l467 117l285 -678l320 668l413 -119l-551 -891v-508h-424z"/>
<glyph glyph-name="Zcaron" horiz-adv-x="1272" unicode="Ž" d="M512 2025l137 -186l94 168l320 -47l-279 -344h-262l-303 346zM78 1124v355h1136l17 -222l-664 -956h369l43 141l227 25l23 -467h-1180l-8 211l717 969z"/>
<glyph glyph-name="zcaron" horiz-adv-x="1016" unicode="ž" d="M360 1647l154 -207l117 188l313 -51l-295 -360h-262l-315 364zM92 766l-16 311h868l14 -227l-475 -580h236l49 138l193 16l14 -424h-914v195l482 639z"/>
<glyph glyph-name="florin" horiz-adv-x="1253" unicode="ƒ" d="M858 1051h201l-64 -310l-198 23l-162 -754q-26 -119 -71.5 -198.5t-108.5 -127t-142 -67.5t-172 -20q-37 0 -74.5 4t-72 10.5t-65 14t-52.5 14.5l68 270q37 -12 80.5 -20.5t85.5 -8.5q26 0 49.5 7t42.5 22.5t33 40t22 59.5l166 768l-111 -4l35 277h135l21 92 q26 119 70 193t105.5 115.5t139 56t170.5 14.5q37 0 74.5 -4t72 -10.5t65 -14t52.5 -14.5l-67 -271q-37 13 -80.5 21t-85.5 8q-53 0 -93.5 -29t-56.5 -100z"/>
<glyph glyph-name="circumflex" horiz-adv-x="1051" unicode="ˆ" d="M82 1245l315 365h262l295 -361l-313 -51l-117 188l-153 -206z"/>
<glyph glyph-name="caron" horiz-adv-x="1051" unicode="ˇ" d="M371 1647l153 -207l117 188l313 -51l-295 -360h-262l-315 364z"/>
<glyph glyph-name="uni02C9" horiz-adv-x="1073" unicode="ˉ" d="M156 1503h753l-39 -256l-714 29v227z"/>
<glyph glyph-name="breve" horiz-adv-x="1073" unicode="˘" d="M340 1585q23 -66 64.5 -93.5t101.5 -27.5q22 0 43.5 5.5t41 19t35.5 36.5t27 58l291 -47q-37 -84 -82.5 -140.5t-99.5 -91.5t-115.5 -50t-128.5 -15q-106 0 -182.5 27t-129 70.5t-84.5 99t-48 112.5z"/>
<glyph glyph-name="dotaccent" horiz-adv-x="520" unicode="˙" d="M51 1393q0 42 11.5 78t37 62t65 41t95.5 15q55 0 95 -15t65 -41t37 -62t12 -78t-11.5 -78t-36.5 -62t-65 -40.5t-96 -14.5q-57 0 -96.5 14.5t-64.5 40.5t-36.5 62t-11.5 78z"/>
<glyph glyph-name="ring" horiz-adv-x="563" unicode="˚" d="M219 1430q0 -29 17 -48.5t49 -19.5t48.5 19.5t16.5 48.5q0 30 -16.5 49.5t-48.5 19.5t-49 -19.5t-17 -49.5zM43 1427q0 48 15.5 89.5t45.5 72t75.5 47.5t105.5 17t106 -17t77 -47.5t46.5 -72t15.5 -89.5t-16 -88.5t-47 -70t-76.5 -46t-105.5 -16.5q-59 0 -104.5 16.5 t-76 46t-46 70t-15.5 88.5z"/>
<glyph glyph-name="ogonek" horiz-adv-x="1073" unicode="˛" d="M311 -223q0 34 10 65t26.5 59t38 52.5t43.5 44.5q52 48 118 86l138 -53q-2 -2 -24 -17t-47.5 -39.5t-46 -56.5t-20.5 -68q0 -37 18 -48t43 -11q23 0 46.5 8t43.5 19q23 12 45 28l64 -147q-23 -22 -51 -43t-61 -37t-70 -25.5t-78 -9.5q-68 0 -113.5 18t-72.5 45.5 t-38.5 62t-11.5 67.5z"/>
<glyph glyph-name="tilde" horiz-adv-x="1022" unicode="˜" d="M92 1352q15 32 36.5 67t54 64t76.5 48t103 19q49 0 86.5 -11t71 -23.5t65 -23.5t68.5 -11q21 0 36.5 8t26 20.5t17.5 27t12 26.5l205 -101q-11 -34 -30.5 -71t-50 -67.5t-73.5 -50.5t-100 -20q-54 0 -94.5 10t-75 22t-66 22t-67.5 10q-43 0 -71.5 -27.5t-47.5 -70.5z"/>
<glyph glyph-name="hungarumlaut" horiz-adv-x="1049" unicode="˝" d="M522 1231l123 393l342 -27l-270 -413zM117 1231l123 393l342 -27l-271 -413z"/>
<glyph glyph-name="Delta" horiz-adv-x="1503" unicode="Δ" d="M516 307h483l-208 799zM51 219l518 1270l457 20l426 -1265v-244h-1401v219z"/>
<glyph glyph-name="Omega" horiz-adv-x="1585" unicode="Ω" d="M793 1163q-72 0 -123.5 -32t-85.5 -88.5t-50 -134.5t-16 -169q0 -86 16 -151t42.5 -117t61.5 -93.5t73 -80.5v-295h-662l-8 342l268 -31v17q-44 36 -84 83t-71 106t-49.5 130.5t-18.5 155.5q0 151 46.5 280.5t136 224t221 148t301.5 53.5q169 0 301 -53.5t223.5 -148 t139.5 -224t48 -280.5q0 -91 -17.5 -164.5t-48 -133t-71 -106.5t-86.5 -84v-16l264 43l-8 -342h-655v295q37 41 72 83t61.5 94t42.5 118.5t16 157.5q0 77 -15.5 151.5t-49 132.5t-86.5 93.5t-129 35.5z"/>
<glyph glyph-name="mu" horiz-adv-x="1346" unicode="μ" d="M102 1069l377 41q-3 -51 -5.5 -119.5t-4 -137t-2 -129t-0.5 -95.5q0 -105 6.5 -169.5t22 -100t41 -48t63.5 -12.5q53 0 90 33.5t60 81.5q-1 64 -2 114.5t-2 94t-2 83t-1 82.5q0 69 1.5 143.5t3.5 137.5l378 41q-6 -97 -9 -202t-3 -230q0 -130 5 -207t15 -117.5 t25.5 -52.5t36.5 -12q22 0 42.5 6t45.5 20l62 -262q-76 -49 -146 -66.5t-141 -17.5q-51 0 -89.5 14t-66.5 38.5t-46.5 58t-27.5 72.5q-24 -56 -49.5 -92t-52.5 -56t-57 -27.5t-64 -7.5q-115 0 -172 101h-8l66 -496l-386 -29z"/>
<glyph glyph-name="pi" horiz-adv-x="1507" unicode="π" d="M858 272q0 27 3 75t7.5 114t11 148t13.5 177h-215q-6 -107 -13.5 -215.5t-16.5 -213.5t-19 -203.5t-21 -184.5l-387 64q25 51 44 131t33.5 176.5t23 204t12.5 213.5q-65 -19 -115.5 -48t-93.5 -71l-105 313q36 28 85.5 53.5t116.5 45t154 30.5t199 11h560q5 0 25 1 t49 2.5t64.5 3.5t71.5 4t70.5 4.5t61.5 4.5l-43 -334h-226q-9 -118 -14.5 -218t-5.5 -171q0 -125 74 -125q18 0 34 2.5t27 6.5q13 4 25 10l53 -254q-30 -17 -66 -30q-31 -11 -73 -20.5t-93 -9.5q-84 0 -143 18.5t-96.5 56t-54.5 94.5t-17 134z"/>
<glyph glyph-name="CommaArabic" horiz-adv-x="635" unicode="،" d="M407 400q48 -6 80.5 -24t52 -43.5t27.5 -57t8 -65.5q0 -45 -16 -85t-47.5 -70t-79 -47.5t-111.5 -17.5q-61 0 -107 17.5t-76.5 49.5t-46 77.5t-15.5 101.5q0 77 21 141.5t54.5 118t74 94.5t80 71t73.5 48t53 25l119 -158q-22 -17 -44.5 -33t-42 -36t-35 -45.5 t-22.5 -61.5z"/>
<glyph glyph-name="SemicolonArabic" horiz-adv-x="648" unicode="؛" d="M82 182q0 47 13.5 88.5t42.5 72.5t75.5 49t112.5 18q64 0 110.5 -18t77 -49t45 -72.5t14.5 -88.5q0 -44 -13.5 -83t-43 -69t-76.5 -47.5t-114 -17.5q-66 0 -112.5 20.5t-75.5 52.5t-42.5 70.5t-13.5 73.5zM407 991q48 -6 80.5 -24t52 -43.5t27.5 -57t8 -65.5 q0 -45 -16 -85t-47.5 -70t-79 -47.5t-111.5 -17.5q-61 0 -107 17.5t-76.5 49.5t-46 77.5t-15.5 101.5q0 77 21 141.5t54.5 118t74 94.5t80 71t73.5 48t53 25l119 -158q-22 -17 -44.5 -33t-42 -36t-35 -45.5t-22.5 -61.5z"/>
<glyph glyph-name="QuestionArabic" horiz-adv-x="1032" unicode="؟" d="M814 164q0 -33 -12.5 -68t-39.5 -64.5t-70.5 -48t-104.5 -18.5q-63 0 -106.5 16t-71 43.5t-39.5 63.5t-12 76q0 41 13.5 78.5t41 65.5t71 44.5t103.5 16.5q61 0 104.5 -16.5t70.5 -44.5t39.5 -65.5t12.5 -78.5zM793 1081q-18 12 -42 29t-55 32t-70.5 25.5t-88.5 10.5 q-20 0 -39.5 -8t-34.5 -22t-24 -34t-9 -44q0 -38 27.5 -65t68.5 -51.5t89.5 -51t89.5 -64t68.5 -91t27.5 -131.5q0 -27 -4 -56.5t-9.5 -56t-11.5 -46.5t-11 -28l-335 37q19 41 19 110q0 47 -30 80.5t-75.5 63.5t-98.5 61t-98.5 73.5t-75.5 101.5t-30 144q0 92 35 165 t97.5 124t150 78.5t192.5 27.5q82 0 150.5 -10t127 -28.5t107.5 -44.5t91 -57z"/>
<glyph glyph-name="Hamza" horiz-adv-x="949" unicode="ء" d="M150 477q0 90 32 161t88 120t132 75t164 26q46 0 113 -9.5t150 -37.5l-57 -274q-74 13 -117 16t-74 3q-60 0 -96.5 -31t-36.5 -83q0 -18 6.5 -35.5t18.5 -32t29.5 -24.5t39.5 -13q81 1 168 7.5t172 21.5l27 -283l-202 -26q-119 -15 -263 -29t-325 -24l-39 296l107 10 q-11 18 -18 40.5t-11.5 45.5t-6 44t-1.5 36z"/>
<glyph glyph-name="AlefMadda" horiz-adv-x="596" unicode="آ" d="M486 16l-347 -22q2 75 3.5 129t2.5 93t1.5 66.5t0.5 48.5v74q0 40 -0.5 101.5t-2.5 136t-5.5 160t-9 174t-14 176.5t-19.5 170l369 31q5 -49 8.5 -120.5t6 -151t3.5 -160.5t2 -150.5t1 -120v-69.5v-566zM-114 1450q24 58 49.5 96t54 59.5t61.5 30t72 8.5q35 0 69.5 -5 t69.5 -11q36 -7 73 -12t72 -5q40 0 73 16t73 52l81 -131q-51 -45 -107 -69t-106 -24q-47 0 -89 6t-82 14q-35 7 -65.5 11.5t-55.5 4.5q-19 0 -34 -2.5t-28.5 -12.5t-27 -29t-28.5 -53z"/>
<glyph glyph-name="AlefHamzaAbove" horiz-adv-x="596" unicode="أ" d="M486 16l-347 -22q2 75 3.5 129t2.5 93t1.5 66.5t0.5 48.5v74q0 40 -0.5 101.5t-2.5 136t-5.5 160t-9 174t-14 176.5t-19.5 170l369 31q5 -49 8.5 -120.5t6 -151t3.5 -160.5t2 -150.5t1 -120v-69.5v-566zM36 1582q17 1 33 1.5t30 2.5q-30 43 -30 92q0 47 17.5 86.5 t47.5 67.5t70 43.5t86 15.5q27 0 67.5 -7t78.5 -21l-27 -131q-35 8 -60 11t-42 3q-43 0 -68 -23q-8 -8 -13 -19t-5 -26q0 -27 16 -47t41 -28q18 2 41 5t47 6.5t48 8t45 9.5l15 -146l-107 -17q-58 -10 -141 -18.5t-174 -9.5z"/>
<glyph glyph-name="WawHamzaAbove" horiz-adv-x="1084" unicode="ؤ" d="M430 445q0 -45 38.5 -67t120.5 -22h112q0 25 -3.5 53t-10 54t-15.5 48.5t-20 38.5q-16 23 -38 35.5t-55 12.5q-24 0 -47 -13.5t-41.5 -35t-29.5 -49t-11 -55.5zM605 39q-6 -1 -17 -2t-23.5 -2t-23.5 -1.5t-16 -0.5q-117 0 -201.5 31.5t-132.5 87.5q-20 23 -36.5 48.5 t-28.5 56t-19 67t-7 82.5q0 55 15.5 114t45 114.5t72 105t96 87t117.5 59t136 21.5q78 0 143.5 -24.5t117 -66.5t88.5 -97t59 -115q11 -32 19.5 -66.5t14 -69.5t8 -69.5t2.5 -65.5q0 -35 -3 -73t-9.5 -77t-16 -76.5t-22.5 -70.5q-24 -61 -66 -126t-116 -129t-187.5 -124.5 t-281.5 -112.5l-138 306q59 13 120 32.5t116 43t100.5 49.5t73.5 52zM327 1130q17 1 33 1.5t30 2.5q-30 43 -30 92q0 47 17.5 86.5t47.5 67.5t70 43.5t86 15.5q27 0 67.5 -7t78.5 -21l-27 -131q-35 8 -60 11t-42 3q-43 0 -68 -23q-8 -8 -13 -19t-5 -26q0 -27 16 -47t41 -28 q18 2 41 5t47 6.5t48 8t45 9.5l15 -146l-107 -17q-58 -10 -141 -18.5t-174 -9.5z"/>
<glyph glyph-name="YehHamzaAbove" horiz-adv-x="1589" unicode="ئ" d="M1221 598q49 -22 89 -41.5t73 -40.5t59 -46t46 -57q26 -42 33 -83.5t7 -71.5q0 -103 -47.5 -198t-145.5 -168t-249.5 -117t-358.5 -44q-138 0 -263 28.5t-219 91.5t-149.5 163t-55.5 243q0 42 4 80.5t14 79t26 85.5t39 102l315 -64q-15 -44 -24.5 -75.5t-14 -56.5t-6 -46 t-1.5 -43q0 -63 30 -109t82.5 -75t123 -43t151.5 -14q89 0 162 9.5t125 26t80.5 40t28.5 52.5v11q-35 29 -82.5 53.5t-106.5 49.5q-56 24 -101 45.5t-80 42.5t-61 43t-44 47q-3 33 -4 54.5t-1 38.5q0 49 6 91.5t19.5 81.5t34.5 77t50 79q38 53 81.5 90.5t90 62.5t93 39.5 t89 22t79 9.5t63.5 2q19 0 48 -2t62 -7t66 -14t62 -24l-75 -297q-32 5 -75.5 11.5t-81.5 6.5q-41 0 -85.5 -6.5t-82.5 -22t-66.5 -40t-37.5 -60.5q6 -7 17.5 -14t32.5 -17.5t54 -25t82 -36.5zM107 842q17 1 33 1.5t30 2.5q-30 43 -30 92q0 47 17.5 86.5t47.5 67.5t70 43.5 t86 15.5q27 0 67.5 -7t78.5 -21l-27 -131q-35 8 -60 11t-42 3q-43 0 -68 -23q-8 -8 -13 -19t-5 -26q0 -27 16 -47t41 -28q18 2 41 5t47 6.5t48 8t45 9.5l15 -146l-107 -17q-58 -10 -141 -18.5t-174 -9.5z"/>
<glyph glyph-name="Alef" horiz-adv-x="587" unicode="ا" d="M482 16l-347 -22q2 75 3.5 129t2.5 93t1.5 66.5t0.5 48.5v74q0 40 -1.5 112.5t-4.5 164.5t-7.5 197t-11.5 210.5t-16 205t-20 181.5l379 31q5 -49 8.5 -126t6 -165.5t3.5 -180t2 -170t1 -135v-75.5v-639z"/>
<glyph glyph-name="Beh" horiz-adv-x="1796" unicode="ب" d="M1690 209q-43 -60 -123 -104.5t-190 -74t-245 -44.5t-287 -15q-100 0 -198 9.5t-187 34t-165 66.5t-131.5 106.5t-87 155t-31.5 211.5q0 40 1.5 74t7 70t16 78.5t28.5 98.5l325 -45q-7 -37 -11 -63t-6.5 -47t-3 -41t-0.5 -44q0 -74 25 -129.5t79 -92.5t138 -55.5 t201 -18.5q108 0 201 5t164 14t117.5 23t62.5 32q2 12 3.5 24t1.5 20q0 47 -4 86t-14.5 84.5t-28 104.5t-45.5 147l358 83q25 -75 40.5 -133t24.5 -108.5t12 -99.5t3 -106q0 -81 -12.5 -160.5t-38.5 -145.5zM1133 -307q0 -34 -17.5 -70t-46 -65t-65.5 -48t-76 -19 q-36 0 -74 17t-68.5 44t-50.5 60.5t-20 66.5q0 36 20 71.5t51 64t67 46t69 17.5q35 0 72.5 -15.5t68 -41.5t50.5 -59t20 -69z"/>
<glyph glyph-name="TehMarbuta" horiz-adv-x="1089" unicode="ة" d="M545 328q60 0 105.5 10t68.5 32q11 17 15.5 41t3.5 46q-2 39 -15 74t-35.5 61.5t-53 42t-67.5 15.5q-35 0 -68 -15t-59.5 -40.5t-44 -60t-21.5 -74.5q0 -38 14 -63t38 -40.5t55 -22t64 -6.5zM542 -10q-58 0 -116.5 9t-112.5 29.5t-100.5 54t-79.5 83.5q-35 51 -54 114.5 t-19 152.5q0 66 18.5 131.5t52 126t80 112.5t102.5 90.5t120 60.5t132 22q110 0 199.5 -42.5t152.5 -114.5t97.5 -165.5t34.5 -195.5q0 -113 -24.5 -193t-66.5 -144q-32 -30 -77.5 -54t-100 -41.5t-115 -26.5t-123.5 -9zM386 1063q-31 0 -65 16.5t-62.5 42t-47 57 t-18.5 61.5q0 36 19 69t47 58.5t60.5 41t60.5 15.5q21 0 44 -8t45 -22.5t42 -33.5t34 -40q12 25 32.5 47.5t45 39.5t50.5 27t49 10q28 0 60.5 -15t60.5 -40t47 -56t19 -63q0 -30 -18.5 -63t-47 -60.5t-62.5 -45.5t-65 -18q-23 0 -46 8t-44 22.5t-39 33t-31 39.5 q-11 -24 -29.5 -46.5t-41.5 -39.5t-48.5 -27t-50.5 -10z"/>
<glyph glyph-name="Teh" horiz-adv-x="1796" unicode="ت" d="M1690 209q-43 -60 -123 -104.5t-190 -74t-245 -44.5t-287 -15q-100 0 -198 9.5t-187 34t-165 66.5t-131.5 106.5t-87 155t-31.5 211.5q0 40 1.5 74t7 70t16 78.5t28.5 98.5l325 -45q-7 -37 -11 -63t-6.5 -47t-3 -41t-0.5 -44q0 -74 25 -129.5t79 -92.5t138 -55.5 t201 -18.5q108 0 201 5t164 14t117.5 23t62.5 32q2 12 3.5 24t1.5 20q0 47 -4 86t-14.5 84.5t-28 104.5t-45.5 147l358 83q25 -75 40.5 -133t24.5 -108.5t12 -99.5t3 -106q0 -81 -12.5 -160.5t-38.5 -145.5zM716 917q-31 0 -65 16.5t-62.5 42t-47 57t-18.5 61.5q0 36 19 69 t47 58.5t60.5 41t60.5 15.5q21 0 44 -8t45 -22.5t42 -33.5t34 -40q12 25 32.5 47.5t45 39.5t50.5 27t49 10q28 0 60.5 -15t60.5 -40t47 -56t19 -63q0 -30 -18.5 -63t-47 -60.5t-62.5 -45.5t-65 -18q-23 0 -46 8t-44 22.5t-39 33t-31 39.5q-11 -24 -29.5 -46.5t-41.5 -39.5 t-48.5 -27t-50.5 -10z"/>
<glyph glyph-name="Theh" horiz-adv-x="1796" unicode="ث" d="M1690 209q-43 -60 -123 -104.5t-190 -74t-245 -44.5t-287 -15q-100 0 -198 9.5t-187 34t-165 66.5t-131.5 106.5t-87 155t-31.5 211.5q0 40 1.5 74t7 70t16 78.5t28.5 98.5l325 -45q-7 -37 -11 -63t-6.5 -47t-3 -41t-0.5 -44q0 -74 25 -129.5t79 -92.5t138 -55.5 t201 -18.5q108 0 201 5t164 14t117.5 23t62.5 32q2 12 3.5 24t1.5 20q0 47 -4 86t-14.5 84.5t-28 104.5t-45.5 147l358 83q25 -75 40.5 -133t24.5 -108.5t12 -99.5t3 -106q0 -81 -12.5 -160.5t-38.5 -145.5zM1028 1449q0 -28 -15 -58t-39 -54.5t-55 -40.5t-62 -16 q-30 0 -61.5 15.5t-57.5 39t-43 51.5t-17 53q0 30 17 59.5t43 53.5t56 38.5t57 14.5q28 0 59.5 -13t57.5 -35t43 -50t17 -58zM714 917q-31 0 -65 16.5t-62.5 42t-47 57t-18.5 61.5q0 36 19 69t47 58.5t60.5 41t60.5 15.5q19 0 42 -8.5t45.5 -22.5t42.5 -33.5t35 -40.5 q12 25 33 47.5t45.5 39.5t50.5 27.5t48 10.5q28 0 60.5 -15t60.5 -40t47 -56t19 -63q0 -30 -18.5 -63t-47 -60.5t-62.5 -45.5t-65 -18q-22 0 -44.5 8.5t-43.5 22.5t-40 33t-32 40q-12 -24 -31 -46.5t-42 -40t-48 -27.5t-49 -10z"/>
<glyph glyph-name="Jeem" horiz-adv-x="1255" unicode="ج" d="M30 683q58 100 115.5 156t112.5 83.5t106.5 34t96.5 6.5q37 0 76 -4.5t85.5 -18.5t103 -40.5t129.5 -69.5q42 -26 94 -55.5t95 -55.5l196 -119l-72 -272l-133 -27q-34 -7 -75 -17t-86.5 -22.5t-92.5 -26t-93 -26.5q-83 -24 -141 -54.5t-95 -65.5t-53.5 -74t-16.5 -81 q0 -51 21.5 -85t61.5 -54.5t98 -29.5t131 -9q32 0 77 2.5t104 10.5q51 8 116 21.5t149 40.5l68 -339q-63 -23 -137.5 -39t-149 -26.5t-144.5 -15.5t-125 -5q-135 0 -247 31.5t-192.5 93t-125.5 152t-45 208.5q0 114 30 201.5t85.5 154.5t133.5 116.5t173 87.5q25 10 66 21.5 t85 21.5t84 17.5t64 10.5q-27 14 -69.5 33t-89 36.5t-90 30t-71.5 14.5q-11 -2 -25 -7.5t-30.5 -16.5t-34.5 -29.5t-38 -46.5zM931 -8q0 -31 -14 -60.5t-37.5 -52t-54.5 -36.5t-64 -14q-31 0 -62 14t-56.5 37t-41.5 52.5t-16 59.5q0 32 16 61t41 51t55.5 35t58.5 13 q30 0 61 -13t56.5 -35t41.5 -51t16 -61z"/>
<glyph glyph-name="Hah" horiz-adv-x="1255" unicode="ح" d="M30 683q58 100 115.5 156t112.5 83.5t106.5 34t96.5 6.5q37 0 76 -4.5t85.5 -18.5t103 -40.5t129.5 -69.5q42 -26 94 -55.5t95 -55.5l196 -119l-72 -272l-133 -27q-34 -7 -75 -17t-86.5 -22.5t-92.5 -26t-93 -26.5q-83 -24 -141 -54.5t-95 -65.5t-53.5 -74t-16.5 -81 q0 -51 21.5 -85t61.5 -54.5t98 -29.5t131 -9q32 0 77 2.5t104 10.5q51 8 116 21.5t149 40.5l68 -339q-63 -23 -137.5 -39t-149 -26.5t-144.5 -15.5t-125 -5q-135 0 -247 31.5t-192.5 93t-125.5 152t-45 208.5q0 114 30 201.5t85.5 154.5t133.5 116.5t173 87.5q25 10 66 21.5 t85 21.5t84 17.5t64 10.5q-27 14 -69.5 33t-89 36.5t-90 30t-71.5 14.5q-11 -2 -25 -7.5t-30.5 -16.5t-34.5 -29.5t-38 -46.5z"/>
<glyph glyph-name="Khah" horiz-adv-x="1255" unicode="خ" d="M30 683q58 100 115.5 156t112.5 83.5t106.5 34t96.5 6.5q37 0 76 -4.5t85.5 -18.5t103 -40.5t129.5 -69.5q42 -26 94 -55.5t95 -55.5l196 -119l-72 -272l-133 -27q-34 -7 -75 -17t-86.5 -22.5t-92.5 -26t-93 -26.5q-83 -24 -141 -54.5t-95 -65.5t-53.5 -74t-16.5 -81 q0 -51 21.5 -85t61.5 -54.5t98 -29.5t131 -9q32 0 77 2.5t104 10.5q51 8 116 21.5t149 40.5l68 -339q-63 -23 -137.5 -39t-149 -26.5t-144.5 -15.5t-125 -5q-135 0 -247 31.5t-192.5 93t-125.5 152t-45 208.5q0 114 30 201.5t85.5 154.5t133.5 116.5t173 87.5q25 10 66 21.5 t85 21.5t84 17.5t64 10.5q-27 14 -69.5 33t-89 36.5t-90 30t-71.5 14.5q-11 -2 -25 -7.5t-30.5 -16.5t-34.5 -29.5t-38 -46.5zM844 1235q0 -34 -17.5 -70t-46 -65t-65.5 -48t-76 -19q-36 0 -74 17t-68.5 44t-50.5 60.5t-20 66.5q0 36 20 71.5t51 64t67 46t69 17.5 q35 0 72.5 -15.5t68 -41.5t50.5 -59t20 -69z"/>
<glyph glyph-name="Dal" horiz-adv-x="1127" unicode="د" d="M509 -9q-31 0 -76.5 2.5t-99.5 7t-114 11.5t-121 16l-18 363q61 -12 120 -20.5t111.5 -15t97 -10.5t76.5 -6h11q25 0 59 1.5t67 6.5t60 15.5t39 27.5q0 57 -23.5 134t-64 162t-94 171t-112.5 161l362 114q58 -74 110 -165.5t90 -190t60.5 -198t22.5 -187.5 q0 -18 -1 -45.5t-4.5 -58.5t-10 -62t-17.5 -57q-33 -46 -89 -79.5t-126.5 -55t-151 -32t-163.5 -10.5z"/>
<glyph glyph-name="Thal" horiz-adv-x="1127" unicode="ذ" d="M509 -9q-31 0 -76.5 2.5t-99.5 7t-114 11.5t-121 16l-18 363q61 -12 120 -20.5t111.5 -15t97 -10.5t76.5 -6h11q25 0 59 1.5t67 6.5t60 15.5t39 27.5q0 57 -23.5 134t-64 162t-94 171t-112.5 161l362 114q58 -74 110 -165.5t90 -190t60.5 -198t22.5 -187.5 q0 -18 -1 -45.5t-4.5 -58.5t-10 -62t-17.5 -57q-33 -46 -89 -79.5t-126.5 -55t-151 -32t-163.5 -10.5zM744 1384q0 -34 -17.5 -70t-46 -65t-65.5 -48t-76 -19q-36 0 -74 17t-68.5 44t-50.5 60.5t-20 66.5q0 36 20 71.5t51 64t67 46t69 17.5q35 0 72.5 -15.5t68 -41.5 t50.5 -59t20 -69z"/>
<glyph glyph-name="Reh" horiz-adv-x="634" unicode="ر" d="M594 266q0 -48 -6 -94.5t-25 -103.5q-21 -64 -59.5 -132t-104 -135.5t-163 -134t-236.5 -127.5l-170 304q101 44 167 82t108.5 73.5t68.5 69.5t46 69q26 45 27 82q-1 46 -16 110t-37 132.5t-48.5 135.5t-50.5 120l366 125q25 -56 49 -130t43 -152t30 -155t11 -139z"/>
<glyph glyph-name="Zain" horiz-adv-x="634" unicode="ز" d="M594 266q0 -48 -6 -94.5t-25 -103.5q-21 -64 -59.5 -132t-104 -135.5t-163 -134t-236.5 -127.5l-170 304q101 44 167 82t108.5 73.5t68.5 69.5t46 69q26 45 27 82q-1 46 -16 110t-37 132.5t-48.5 135.5t-50.5 120l366 125q25 -56 49 -130t43 -152t30 -155t11 -139z M467 1097q0 -34 -17.5 -70t-46 -65t-65.5 -48t-76 -19q-36 0 -74 17t-68.5 44t-50.5 60.5t-20 66.5q0 36 20 71.5t51 64t67 46t69 17.5q35 0 72.5 -15.5t68 -41.5t50.5 -59t20 -69z"/>
<glyph glyph-name="Seen" horiz-adv-x="2157" unicode="س" d="M601 -92q132 0 200 67.5t75 200.5q0 33 -12 87.5t-31.5 118t-43 129t-47.5 121.5l348 73q61 -170 88 -347q12 -18 29 -22.5t38 -4.5q13 0 27 7t19 14q1 10 2.5 26.5t2 34.5t1 35t0.5 27q0 34 -3 71.5t-7.5 74.5t-11 71t-12.5 61l335 14q18 -76 22.5 -146t4.5 -118 q0 -31 -1.5 -59.5t-7.5 -63.5q15 -15 38 -21.5t36 -6.5q20 0 39.5 4.5t27.5 15.5q6 19 9 44.5t3 67.5q0 21 -2 55.5t-8.5 77t-18 91.5t-29.5 99l354 77q18 -62 28.5 -112.5t16 -95.5t6.5 -86t1 -84q0 -50 -3.5 -93.5t-10 -83t-17 -76t-25.5 -73.5q-20 -32 -53 -62.5 t-75 -54.5t-91.5 -38.5t-103.5 -14.5q-29 0 -61.5 5t-64.5 15.5t-62 28t-55 42.5q-13 -17 -35.5 -33.5t-51.5 -29.5t-62.5 -21t-67.5 -8q-18 0 -45.5 3t-52.5 11q-19 -103 -65.5 -188t-121.5 -146t-177.5 -95t-234.5 -34q-110 0 -208.5 32t-172.5 95.5t-117 157.5t-43 217 q0 43 2 79t7.5 73t16.5 78t29 93l311 -47q-18 -63 -25 -115.5t-7 -81.5q0 -47 10.5 -89t36.5 -74t69.5 -51t110.5 -19z"/>
</font>
</defs>
</svg>
