<?xml version="1.0" encoding="UTF-8" standalone="no"?>
<!DOCTYPE svg  PUBLIC '-//W3C//DTD SVG 1.1//EN'  'http://www.w3.org/Graphics/SVG/1.1/DTD/svg11.dtd'>
<svg xmlns="http://www.w3.org/2000/svg">
<defs>
<font id="FredFredburgerAra-Regular" horiz-adv-x="0">
<font-face underline-position="-126" font-weight="400" descent="-410" panose-1="2 0 5 3 0 0 0 2 0 4" units-per-em="2048" unicode-range="U+0020-FEFC" bbox="-372 -718 2637 2306" x-height="1063" underline-thickness="75" font-family="FredFredburgerAra" ascent="1638" cap-height="1491"/>
<missing-glyph d="M512 594l-332 -496h662zM569 682l332 -498v994zM123 186l14 21q14 21 37.5 55.5t53 79t60.5 91.5l165 249l-330 496v-992zM512 768l330 498h-662zM25 1362h972v-1362h-972v1362z" horiz-adv-x="1024"/>
<glyph glyph-name="AlefHamzaBelow" horiz-adv-x="562" unicode="ﺍٕ" d="M349 13q-44 -3 -81 -6.5t-81 -6.5q1 29 2 64.5t2 72t1 72v65.5v88v130t-1.5 183.5t-3.5 214t-6.5 221t-10.5 205t-15 165.5l183 18q3 -29 5.5 -77t5 -107.5t4 -127l3 -135t3 -132t2 -118t1 -92t0.5 -54.5q0 -161 -1.5 -321.5t-11.5 -321.5zM97 -377q15 1 32 1.5t34 2.5 q-21 21 -30 46.5t-9 48.5q0 39 14 70.5t38 54t56 34.5t68 12q23 0 55.5 -4.5t59.5 -15.5l-16 -83q-28 5 -50.5 8t-40.5 3t-31.5 -3.5t-25.5 -12.5t-19 -24.5t-7 -38.5q0 -29 14.5 -50.5t41.5 -28.5q16 1 36.5 2.5t41.5 4t40.5 6t34.5 8.5l10 -94l-78 -13q-54 -9 -118.5 -17 t-139.5 -8z"/>
<glyph arabic-form="isolated" glyph-name="AlefMaddaSep" horiz-adv-x="526" unicode="ﺍٓ" d="M330 1351q2 -59 4.5 -129t4 -141.5t3 -140t2 -126t1 -99.5t0.5 -59q0 -161 -1.5 -321.5t-11.5 -321.5q-44 -3 -81 -6.5t-81 -6.5q1 29 2 64.5t2 72t1 72v65.5v88v106t-1 147t-2.5 173.5t-4 186.5t-6.5 185t-9 170zM-84 1442q18 45 38 74t43.5 46t51 23.5t59.5 6.5 q30 0 61 -5t63.5 -10.5t65.5 -10.5t66 -5q40 0 69 12.5t60 39.5l54 -87q-39 -34 -84 -52.5t-87 -18.5q-36 0 -71.5 5t-69 11.5t-64.5 11.5t-58 5q-20 0 -35.5 -2t-29 -10.5t-26 -25t-25.5 -44.5z"/>
<glyph arabic-form="final" glyph-name="AlefMaddaFin" horiz-adv-x="552" unicode="ﺎٓ" d="M552 0q-50 0 -101.5 6t-98 17.5t-84.5 29t-61 40.5q-12 46 -18.5 111t-10 141t-4 159t-0.5 166q0 72 -1 147t-3 156t-4.5 170t-5.5 188l193 18v-91v-112t0.5 -120t0.5 -114.5v-95.5v-63v-237q0 -48 0.5 -94.5t1.5 -87.5t3 -73t5 -50q39 -17 83 -24t105 -7v-180zM-56 1442 q18 45 38 74t43.5 46t51 23.5t59.5 6.5q30 0 61 -5t63.5 -10.5t65.5 -10.5t66 -5q40 0 69 12.5t60 39.5l54 -87q-39 -34 -84 -52.5t-87 -18.5q-36 0 -71.5 5t-69 11.5t-64.5 11.5t-58 5q-20 0 -35.5 -2t-29 -10.5t-26 -25t-25.5 -44.5z"/>
<glyph arabic-form="isolated" glyph-name="AlefHamzaAboveSep" horiz-adv-x="526" unicode="ﺍٔ" d="M330 1351q2 -59 4.5 -129t4 -141.5t3 -140t2 -126t1 -99.5t0.5 -59q0 -161 -1.5 -321.5t-11.5 -321.5q-44 -3 -81 -6.5t-81 -6.5q1 29 2 64.5t2 72t1 72v65.5v88v106t-1 147t-2.5 173.5t-4 186.5t-6.5 185t-9 170zM37 1522q15 1 32 1.5t34 2.5q-21 21 -30 46.5t-9 48.5 q0 39 14 70.5t38 54t56 34.5t68 12q23 0 55.5 -4.5t59.5 -15.5l-16 -83q-28 5 -50.5 8t-40.5 3t-31.5 -3.5t-25.5 -12.5t-19 -24.5t-7 -38.5q0 -29 14.5 -50.5t41.5 -28.5q16 1 36.5 2.5t41.5 4t40.5 6t34.5 8.5l10 -94l-78 -13q-54 -9 -118.5 -17t-139.5 -8z"/>
<glyph arabic-form="final" glyph-name="AlefHamzaAboveFin" horiz-adv-x="552" unicode="ﺎٔ" d="M552 0q-50 0 -101.5 6t-98 17.5t-84.5 29t-61 40.5q-12 46 -18.5 111t-10 141t-4 159t-0.5 166q0 72 -1 147t-3 156t-4.5 170t-5.5 188l193 18v-91v-112t0.5 -120t0.5 -114.5v-95.5v-63v-237q0 -48 0.5 -94.5t1.5 -87.5t3 -73t5 -50q39 -17 83 -24t105 -7v-180zM58 1522 q15 1 32 1.5t34 2.5q-21 21 -30 46.5t-9 48.5q0 39 14 70.5t38 54t56 34.5t68 12q23 0 55.5 -4.5t59.5 -15.5l-16 -83q-28 5 -50.5 8t-40.5 3t-31.5 -3.5t-25.5 -12.5t-19 -24.5t-7 -38.5q0 -29 14.5 -50.5t41.5 -28.5q16 1 36.5 2.5t41.5 4t40.5 6t34.5 8.5l10 -94l-78 -13 q-54 -9 -118.5 -17t-139.5 -8z"/>
<glyph arabic-form="final" glyph-name="AlefHamzaBelowFin" horiz-adv-x="552" unicode="ﺎٕ" d="M552 0q-50 0 -101.5 6t-98 17.5t-84.5 29t-61 40.5q-12 46 -18.5 111t-10 141t-4 159t-0.5 166q0 72 -1 147t-3 156t-4.5 170t-5.5 188l193 18v-91v-112t0.5 -120t0.5 -114.5v-95.5v-63v-237q0 -48 0.5 -94.5t1.5 -87.5t3 -73t5 -50q39 -17 83 -24t105 -7v-180zM132 -361 q15 1 32 1.5t34 2.5q-21 21 -30 46.5t-9 48.5q0 39 14 70.5t38 54t56 34.5t68 12q23 0 55.5 -4.5t59.5 -15.5l-16 -83q-28 5 -50.5 8t-40.5 3t-31.5 -3.5t-25.5 -12.5t-19 -24.5t-7 -38.5q0 -29 14.5 -50.5t41.5 -28.5q16 1 36.5 2.5t41.5 4t40.5 6t34.5 8.5l10 -94l-78 -13 q-54 -9 -118.5 -17t-139.5 -8z"/>
<glyph arabic-form="isolated" glyph-name="LamAlefMaddaSep" horiz-adv-x="1126" unicode="ﻟﺂ" d="M315 157q11 2 39 3.5t59.5 3t59 2t37.5 0.5q94 0 165 3t129 11q6 12 9 26.5t3 25.5q0 34 -10 72t-27 75.5t-40 72.5t-49 64q-54 -66 -104.5 -119t-110.5 -108q-14 -13 -34 -30t-42 -34t-44 -32t-39 -24zM817 1177q2 23 4 54t4 64.5t3.5 67t1.5 60.5v58l181 19l-1 -152 q-6 -110 -26.5 -212.5t-49.5 -192.5t-64 -165t-70 -129q37 -47 69 -96.5t55.5 -100t37 -102.5t13.5 -104q0 -57 -10.5 -107t-42.5 -102q-45 -11 -115.5 -18t-149 -11t-157 -6t-138.5 -2l-250 -5l-17 172l31 4q51 37 112.5 91.5t123 117t118.5 126.5t100 121 q-40 54 -92 116.5t-110 128t-118.5 130.5t-117 124t-106 109t-85.5 86l193 54q72 -66 142 -140t138 -151.5t134 -156.5t131 -155q57 99 87.5 203.5t40.5 201.5zM-205 1451q18 45 38 74t43.5 46t51 23.5t59.5 6.5q30 0 61 -5t63.5 -10.5t65.5 -10.5t66 -5q40 0 69 12.5 t60 39.5l54 -87q-39 -34 -84 -52.5t-87 -18.5q-36 0 -71.5 5t-69 11.5t-64.5 11.5t-58 5q-20 0 -35.5 -2t-29 -10.5t-26 -25t-25.5 -44.5z"/>
<glyph arabic-form="final" glyph-name="LamAlefMaddaFin" horiz-adv-x="1267" unicode="ﻠﺂ" d="M1267 0q-47 0 -94.5 6.5t-89.5 19.5t-76.5 31t-56.5 41q-17 38 -23 98.5t-10 134.5l-6 1q-65 -95 -147.5 -163t-180 -111.5t-208 -64t-230.5 -20.5q-49 0 -100 3l-15 183l104 -6q199 0 360 60q-9 28 -25.5 74.5t-38 106.5t-48 130.5t-55 146t-59 154.5t-60.5 155 l-155 338l185 75q37 -71 74.5 -158t73.5 -183t71 -197.5t69 -200.5q16 -49 30 -91.5t27 -86t26 -90t29 -103.5q82 54 152.5 130t117.5 167v115t-1 144t-3 161.5t-5.5 168.5t-9 163.5t-13.5 148.5l181 18q4 -38 7 -91t5.5 -112t4.5 -120t3 -114.5t1.5 -95.5t0.5 -63v-317 q-1 -26 -1 -78v-35q0 -37 1 -75q1 -58 3 -109.5t7 -77.5q16 -9 38 -15t46 -9.5t48.5 -5t45.5 -1.5v-180zM-128 1463q18 45 38 74t43.5 46t51 23.5t59.5 6.5q30 0 61 -5t63.5 -10.5t65.5 -10.5t66 -5q40 0 69 12.5t60 39.5l54 -87q-39 -34 -84 -52.5t-87 -18.5q-36 0 -71.5 5 t-69 11.5t-64.5 11.5t-58 5q-20 0 -35.5 -2t-29 -10.5t-26 -25t-25.5 -44.5z"/>
<glyph arabic-form="isolated" glyph-name="LamAlefHamzaAboveSep" horiz-adv-x="1126" unicode="ﻟﺄ" d="M315 157q11 2 39 3.5t59.5 3t59 2t37.5 0.5q94 0 165 3t129 11q6 12 9 26.5t3 25.5q0 34 -10 72t-27 75.5t-40 72.5t-49 64q-54 -66 -104.5 -119t-110.5 -108q-14 -13 -34 -30t-42 -34t-44 -32t-39 -24zM817 1177q2 23 4 54t4 64.5t3.5 67t1.5 60.5v58l181 19l-1 -152 q-6 -110 -26.5 -212.5t-49.5 -192.5t-64 -165t-70 -129q37 -47 69 -96.5t55.5 -100t37 -102.5t13.5 -104q0 -57 -10.5 -107t-42.5 -102q-45 -11 -115.5 -18t-149 -11t-157 -6t-138.5 -2l-250 -5l-17 172l31 4q51 37 112.5 91.5t123 117t118.5 126.5t100 121 q-40 54 -92 116.5t-110 128t-118.5 130.5t-117 124t-106 109t-85.5 86l193 54q72 -66 142 -140t138 -151.5t134 -156.5t131 -155q57 99 87.5 203.5t40.5 201.5zM-144 1537q15 1 32 1.5t34 2.5q-21 21 -30 46.5t-9 48.5q0 39 14 70.5t38 54t56 34.5t68 12q23 0 55.5 -4.5 t59.5 -15.5l-16 -83q-28 5 -50.5 8t-40.5 3t-31.5 -3.5t-25.5 -12.5t-19 -24.5t-7 -38.5q0 -29 14.5 -50.5t41.5 -28.5q16 1 36.5 2.5t41.5 4t40.5 6t34.5 8.5l10 -94l-78 -13q-54 -9 -118.5 -17t-139.5 -8z"/>
<glyph arabic-form="final" glyph-name="LamAlefHamzaAboveFin" horiz-adv-x="1267" unicode="ﻠﺄ" d="M1267 0q-47 0 -94.5 6.5t-89.5 19.5t-76.5 31t-56.5 41q-17 38 -23 98.5t-10 134.5l-6 1q-65 -95 -147.5 -163t-180 -111.5t-208 -64t-230.5 -20.5q-49 0 -100 3l-15 183l104 -6q199 0 360 60q-9 28 -25.5 74.5t-38 106.5t-48 130.5t-55 146t-59 154.5t-60.5 155 l-155 338l195 52q37 -71 72.5 -154.5t70 -175t68 -189.5t67.5 -197q16 -49 30 -91.5t27 -86t26 -90t29 -103.5q82 54 152.5 130t117.5 167v115t-1 144t-3 161.5t-5.5 168.5t-9 163.5t-13.5 148.5l181 18q4 -38 7 -91t5.5 -112t4.5 -120t3 -114.5t1.5 -95.5t0.5 -63v-317 q-1 -26 -1 -78v-35q0 -37 1 -75q1 -58 3 -109.5t7 -77.5q16 -9 38 -15t46 -9.5t48.5 -5t45.5 -1.5v-180zM-40 1531q15 1 32 1.5t34 2.5q-21 21 -30 46.5t-9 48.5q0 39 14 70.5t38 54t56 34.5t68 12q23 0 55.5 -4.5t59.5 -15.5l-16 -83q-28 5 -50.5 8t-40.5 3t-31.5 -3.5 t-25.5 -12.5t-19 -24.5t-7 -38.5q0 -29 14.5 -50.5t41.5 -28.5q16 1 36.5 2.5t41.5 4t40.5 6t34.5 8.5l10 -94l-78 -13q-54 -9 -118.5 -17t-139.5 -8z"/>
<glyph arabic-form="isolated" glyph-name="LamAlefHamzaBelowSep" horiz-adv-x="1126" unicode="ﻟﺈ" d="M315 157q11 2 39 3.5t59.5 3t59 2t37.5 0.5q94 0 165 3t129 11q6 12 9 26.5t3 25.5q0 34 -10 72t-27 75.5t-40 72.5t-49 64q-54 -66 -104.5 -119t-110.5 -108q-14 -13 -34 -30t-42 -34t-44 -32t-39 -24zM817 1177q2 23 4 54t4 64.5t3.5 67t1.5 60.5v58l181 19l-1 -152 q-6 -110 -26.5 -212.5t-49.5 -192.5t-64 -165t-70 -129q37 -47 69 -96.5t55.5 -100t37 -102.5t13.5 -104q0 -57 -10.5 -107t-42.5 -102q-45 -11 -115.5 -18t-149 -11t-157 -6t-138.5 -2l-250 -5l-17 172l31 4q51 37 112.5 91.5t123 117t118.5 126.5t100 121 q-65 87 -144 177.5t-165.5 179.5t-176 173.5t-174.5 159.5l164 111q81 -69 159 -148.5t153.5 -164.5t148.5 -172t144 -171q57 99 87.5 203.5t40.5 201.5zM83 -384q15 1 32 1.5t34 2.5q-21 21 -30 46.5t-9 48.5q0 39 14 70.5t38 54t56 34.5t68 12q23 0 55.5 -4.5t59.5 -15.5 l-16 -83q-28 5 -50.5 8t-40.5 3t-31.5 -3.5t-25.5 -12.5t-19 -24.5t-7 -38.5q0 -29 14.5 -50.5t41.5 -28.5q16 1 36.5 2.5t41.5 4t40.5 6t34.5 8.5l10 -94l-78 -13q-54 -9 -118.5 -17t-139.5 -8z"/>
<glyph arabic-form="final" glyph-name="LamAlefHamzaBelowFin" horiz-adv-x="1267" unicode="ﻠﺈ" d="M1267 0q-47 0 -94.5 6.5t-89.5 19.5t-76.5 31t-56.5 41q-17 38 -23 98.5t-10 134.5l-6 1q-65 -95 -147.5 -163t-180 -111.5t-208 -64t-230.5 -20.5q-49 0 -100 3l-15 183l104 -6q199 0 360 60q-9 28 -25.5 74.5t-38 106.5t-48 130.5t-55 146t-59 154.5t-60.5 155 l-155 338l185 75q37 -71 74.5 -158t73.5 -183t71 -197.5t69 -200.5q16 -49 30 -91.5t27 -86t26 -90t29 -103.5q82 54 152.5 130t117.5 167v115t-1 144t-3 161.5t-5.5 168.5t-9 163.5t-13.5 148.5l181 18q4 -38 7 -91t5.5 -112t4.5 -120t3 -114.5t1.5 -95.5t0.5 -63v-317 q-1 -26 -1 -78v-35q0 -37 1 -75q1 -58 3 -109.5t7 -77.5q16 -9 38 -15t46 -9.5t48.5 -5t45.5 -1.5v-180zM489 -318q15 1 32 1.5t34 2.5q-21 21 -30 46.5t-9 48.5q0 39 14 70.5t38 54t56 34.5t68 12q23 0 55.5 -4.5t59.5 -15.5l-16 -83q-28 5 -50.5 8t-40.5 3t-31.5 -3.5 t-25.5 -12.5t-19 -24.5t-7 -38.5q0 -29 14.5 -50.5t41.5 -28.5q16 1 36.5 2.5t41.5 4t40.5 6t34.5 8.5l10 -94l-78 -13q-54 -9 -118.5 -17t-139.5 -8z"/>
<glyph arabic-form="isolated" glyph-name="LamAlefSep" horiz-adv-x="1126" unicode="ﻟﺎ" d="M315 157q11 2 39 3.5t59.5 3t59 2t37.5 0.5q94 0 165 3t129 11q6 12 9 26.5t3 25.5q0 34 -10 72t-27 75.5t-40 72.5t-49 64q-54 -66 -104.5 -119t-110.5 -108q-14 -13 -34 -30t-42 -34t-44 -32t-39 -24zM817 1177q2 23 4 54t4 64.5t3.5 67t1.5 60.5v58l181 19l-1 -152 q-6 -110 -26.5 -212.5t-49.5 -192.5t-64 -165t-70 -129q37 -47 69 -96.5t55.5 -100t37 -102.5t13.5 -104q0 -57 -10.5 -107t-42.5 -102q-45 -11 -115.5 -18t-149 -11t-157 -6t-138.5 -2l-250 -5l-17 172l31 4q51 37 112.5 91.5t123 117t118.5 126.5t100 121 q-65 87 -144 177.5t-165.5 179.5t-176 173.5t-174.5 159.5l164 111q81 -69 159 -148.5t153.5 -164.5t148.5 -172t144 -171q57 99 87.5 203.5t40.5 201.5z"/>
<glyph arabic-form="final" glyph-name="LamAlefFin" horiz-adv-x="1267" unicode="ﻠﺎ" d="M1267 0q-47 0 -94.5 6.5t-89.5 19.5t-76.5 31t-56.5 41q-17 38 -23 98.5t-10 134.5l-6 1q-65 -95 -147.5 -163t-180 -111.5t-208 -64t-230.5 -20.5q-49 0 -100 3l-15 183l104 -6q199 0 360 60q-9 28 -25.5 74.5t-38 106.5t-48 130.5t-55 146t-59 154.5t-60.5 155 l-155 338l185 75q37 -71 74.5 -158t73.5 -183t71 -197.5t69 -200.5q16 -49 30 -91.5t27 -86t26 -90t29 -103.5q82 54 152.5 130t117.5 167v115t-1 144t-3 161.5t-5.5 168.5t-9 163.5t-13.5 148.5l181 18q4 -38 7 -91t5.5 -112t4.5 -120t3 -114.5t1.5 -95.5t0.5 -63v-317 q-1 -26 -1 -78v-35q0 -37 1 -75q1 -58 3 -109.5t7 -77.5q16 -9 38 -15t46 -9.5t48.5 -5t45.5 -1.5v-180z"/>
<glyph glyph-name="AlefFathatanSep" horiz-adv-x="526" unicode="ﺍً" d="M330 1351q2 -59 4.5 -129t4 -141.5t3 -140t2 -126t1 -99.5t0.5 -59q0 -161 -1.5 -321.5t-11.5 -321.5q-44 -3 -81 -6.5t-81 -6.5q1 29 2 64.5t2 72t1 72v65.5v88v106t-1 147t-2.5 173.5t-4 186.5t-6.5 185t-9 170zM445 1699q-49 -23 -105 -43t-115.5 -35.5t-119.5 -25 t-117 -11.5l-17 70q115 11 224.5 40t224.5 74zM474 1538q-49 -23 -105 -43t-115.5 -35.5t-119.5 -25t-117 -11.5l-17 70q115 11 224.5 40t224.5 74z"/>
<glyph glyph-name="AlefFathatanFin" horiz-adv-x="552" unicode="ﺎً" d="M552 0q-50 0 -101.5 6t-98 17.5t-84.5 29t-61 40.5q-12 46 -18.5 111t-10 141t-4 159t-0.5 166q0 72 -1 147t-3 156t-4.5 170t-5.5 188l193 18v-91v-112t0.5 -120t0.5 -114.5v-95.5v-63v-237q0 -48 0.5 -94.5t1.5 -87.5t3 -73t5 -50q39 -17 83 -24t105 -7v-180zM466 1700 q-49 -23 -105 -43t-115.5 -35.5t-119.5 -25t-117 -11.5l-17 70q115 11 224.5 40t224.5 74zM495 1539q-49 -23 -105 -43t-115.5 -35.5t-119.5 -25t-117 -11.5l-17 70q115 11 224.5 40t224.5 74z"/>
<glyph glyph-name="LamAlefFathatanSep" horiz-adv-x="1126" unicode="ﻟﺎً" d="M315 157q11 2 39 3.5t59.5 3t59 2t37.5 0.5q94 0 165 3t129 11q6 12 9 26.5t3 25.5q0 34 -10 72t-27 75.5t-40 72.5t-49 64q-54 -66 -104.5 -119t-110.5 -108q-14 -13 -34 -30t-42 -34t-44 -32t-39 -24zM817 1177q2 23 4 54t4 64.5t3.5 67t1.5 60.5v58l181 19l-1 -152 q-6 -110 -26.5 -212.5t-49.5 -192.5t-64 -165t-70 -129q37 -47 69 -96.5t55.5 -100t37 -102.5t13.5 -104q0 -57 -10.5 -107t-42.5 -102q-45 -11 -115.5 -18t-149 -11t-157 -6t-138.5 -2l-250 -5l-17 172l31 4q51 37 112.5 91.5t123 117t118.5 126.5t100 121 q-40 54 -92 116.5t-110 128t-118.5 130.5t-117 124t-106 109t-85.5 86l193 54q72 -66 142 -140t138 -151.5t134 -156.5t131 -155q57 99 87.5 203.5t40.5 201.5zM252 1713q-49 -23 -105 -43t-115.5 -35.5t-119.5 -25t-117 -11.5l-17 70q115 11 224.5 40t224.5 74zM281 1552 q-49 -23 -105 -43t-115.5 -35.5t-119.5 -25t-117 -11.5l-17 70q115 11 224.5 40t224.5 74z"/>
<glyph glyph-name="LamAlefFathatanFin" horiz-adv-x="1267" unicode="ﻠﺎً" d="M1267 0q-47 0 -94.5 6.5t-89.5 19.5t-76.5 31t-56.5 41q-17 38 -23 98.5t-10 134.5l-6 1q-65 -95 -147.5 -163t-180 -111.5t-208 -64t-230.5 -20.5q-49 0 -100 3l-15 183l104 -6q199 0 360 60q-9 28 -25.5 74.5t-38 106.5t-48 130.5t-55 146t-59 154.5t-60.5 155 l-155 338l195 52q37 -71 72.5 -154.5t70 -175t68 -189.5t67.5 -197q16 -49 30 -91.5t27 -86t26 -90t29 -103.5q82 54 152.5 130t117.5 167v115t-1 144t-3 161.5t-5.5 168.5t-9 163.5t-13.5 148.5l181 18q4 -38 7 -91t5.5 -112t4.5 -120t3 -114.5t1.5 -95.5t0.5 -63v-317 q-1 -26 -1 -78v-35q0 -37 1 -75q1 -58 3 -109.5t7 -77.5q16 -9 38 -15t46 -9.5t48.5 -5t45.5 -1.5v-180zM360 1706q-49 -23 -105 -43t-115.5 -35.5t-119.5 -25t-117 -11.5l-17 70q115 11 224.5 40t224.5 74zM389 1545q-49 -23 -105 -43t-115.5 -35.5t-119.5 -25t-117 -11.5 l-17 70q115 11 224.5 40t224.5 74z"/>
<glyph glyph-name="AlefMaqsuraFin" horiz-adv-x="1334" unicode="ى" d="M1334 0q-13 0 -29.5 3t-30.5 9v-13q0 -72 -38 -141t-112 -123t-182.5 -87t-248.5 -33q-124 0 -231.5 28.5t-186.5 89t-124.5 154.5t-45.5 224q0 35 4.5 75t13 83t21.5 86.5t30 85.5l158 -25q-23 -68 -39 -134t-16 -135q0 -96 29 -163t85 -109t138.5 -61t189.5 -19 q94 0 170 18t129.5 49.5t82 72.5t28.5 88q0 11 -2 19.5t-7 19.5q-22 15 -47.5 33.5t-52.5 42t-54 52.5t-51 64l138 112q27 -39 61 -73t70.5 -59t75 -39.5t74.5 -14.5v-180z"/>
<glyph arabic-form="isolated" glyph-name="AlefMaqsuraSep" horiz-adv-x="1560" unicode="ى" d="M1144 417q89 -44 149.5 -84t89.5 -92q17 -30 22 -61t5 -52q0 -98 -52 -179.5t-143.5 -141t-216.5 -92.5t-272 -33q-127 0 -240.5 29t-199 90.5t-136 157.5t-50.5 230q0 81 15 157.5t47 157.5l161 -33q-23 -71 -34.5 -130t-11.5 -119q0 -83 28.5 -149.5t85 -113t140.5 -72 t195 -25.5q53 0 112 8t117 23t111 37t93.5 50t64.5 61.5t24 72.5v7q-15 28 -54 55.5t-90 54t-107.5 52t-107.5 49.5q-52 25 -88 55.5t-57 72.5q-2 15 -3.5 38.5t-1.5 37.5q0 46 6.5 83t18 68.5t27.5 59.5t36 57q51 74 113 117t123 65t115.5 28t90.5 6q34 0 70.5 -6.5 t62.5 -16.5l-37 -161q-30 2 -59.5 4.5t-63.5 2.5q-62 0 -122 -20t-108 -57t-79.5 -90.5t-35.5 -120.5q4 -14 16.5 -25.5t29 -20.5t33.5 -16.5t30 -13.5z"/>
<glyph arabic-form="isolated" glyph-name="AlefWaslaSep" horiz-adv-x="526" unicode="ٱ" d="M330 1351q2 -59 4.5 -129t4 -141.5t3 -140t2 -126t1 -99.5t0.5 -59q0 -161 -1.5 -321.5t-11.5 -321.5q-44 -3 -81 -6.5t-81 -6.5q1 29 2 64.5t2 72t1 72v65.5v88v106t-1 147t-2.5 173.5t-4 186.5t-6.5 185t-9 170zM322 1678q-11 0 -24.5 -5.5t-28.5 -19t-31 -36.5 t-33 -58h39q85 0 117.5 14.5t32.5 44.5q0 17 -7.5 28.5t-18.5 18.5t-23.5 10t-22.5 3zM130 1463q-26 0 -45 -2.5t-33.5 -11t-26 -25t-21.5 -44.5l-79 22q12 37 26.5 65.5t35 48t49.5 30.5t71 13q30 70 58.5 113.5t56 67.5t54.5 32.5t54 8.5q25 0 52.5 -10t50.5 -30t38 -50.5 t15 -70.5q0 -84 -58 -120.5t-184 -36.5h-114z"/>
<glyph arabic-form="final" glyph-name="AlefWaslaFin" horiz-adv-x="552" unicode="ٱ" d="M552 0q-50 0 -101.5 6t-98 17.5t-84.5 29t-61 40.5q-12 46 -18.5 111t-10 141t-4 159t-0.5 166q0 72 -1 147t-3 156t-4.5 170t-5.5 188l193 18v-91v-112t0.5 -120t0.5 -114.5v-95.5v-63v-237q0 -48 0.5 -94.5t1.5 -87.5t3 -73t5 -50q39 -17 83 -24t105 -7v-180zM340 1678 q-11 0 -24.5 -5.5t-28.5 -19t-31 -36.5t-33 -58h39q85 0 117.5 14.5t32.5 44.5q0 17 -7.5 28.5t-18.5 18.5t-23.5 10t-22.5 3zM148 1463q-26 0 -45 -2.5t-33.5 -11t-26 -25t-21.5 -44.5l-79 22q12 37 26.5 65.5t35 48t49.5 30.5t71 13q30 70 58.5 113.5t56 67.5t54.5 32.5 t54 8.5q25 0 52.5 -10t50.5 -30t38 -50.5t15 -70.5q0 -84 -58 -120.5t-184 -36.5h-114z"/>
<glyph arabic-form="isolated" glyph-name="NoonGhunnaSep" horiz-adv-x="1303" unicode="ں" d="M615 -333q-107 0 -197 30.5t-155.5 88.5t-102.5 141.5t-37 189.5q0 35 2 70t7.5 71.5t15.5 76t26 84.5l151 -28q-13 -38 -21 -69t-12 -58t-5 -52t-1 -51q0 -62 19.5 -119t60 -100.5t102.5 -69t147 -25.5q99 0 167 25t112 65.5t67.5 92.5t33.5 106q1 11 1.5 21.5t0.5 21.5 q0 63 -9 125.5t-24 124t-35 120t-42 112.5l193 43q35 -111 59.5 -229t29.5 -250q0 -63 -12 -125t-38 -125t-68 -119t-103.5 -98t-144 -66.5t-188.5 -24.5z"/>
<glyph arabic-form="final" glyph-name="NoonGhunnaFin" horiz-adv-x="1364" unicode="ں" d="M588 -433q-104 0 -193 30.5t-154 88.5t-102 141.5t-37 189.5q0 35 2 70t7.5 71.5t15.5 76t26 84.5l151 -28q-13 -38 -21 -69t-12 -58t-5 -52t-1 -51q0 -62 19.5 -119t60 -100.5t102.5 -69t147 -25.5q99 0 171.5 28.5t120 76t70.5 110t23 130.5q0 45 -9.5 104t-24.5 121.5 t-33.5 122.5t-37.5 106l191 43q9 -29 17.5 -66t16.5 -79t15 -87.5t12 -90.5q19 -25 46 -41.5t58 -26.5t65 -14t69 -4v-180q-15 0 -44 3.5t-62 11.5t-65.5 21t-55.5 33q-8 -118 -49.5 -211t-113 -157.5t-169 -99t-217.5 -34.5z"/>
<glyph arabic-form="initial" glyph-name="AlefMaqsuraIni" horiz-adv-x="614" unicode="ى" d="M0 0q-21 0 -43 4.5t-39 15.5v140q16 9 38.5 14.5t43.5 5.5q39 0 76.5 2.5t70.5 9.5t61 19t49 30q3 9 6 24t6 32t4.5 34t1.5 30q0 60 -4 107t-13.5 92.5t-24 96.5t-35.5 120l187 45q16 -65 27 -116t17.5 -99t9.5 -98.5t3 -113.5q0 -52 -11 -111.5t-32 -116.5 q-30 -44 -79.5 -75.5t-106 -51.5t-113 -30t-100.5 -10z"/>
<glyph arabic-form="medial" glyph-name="AlefMaqsuraMed" horiz-adv-x="636" unicode="ى" d="M636 0q-37 0 -77.5 7t-81 20.5t-79 33.5t-71.5 47q-135 -108 -327 -108q-21 0 -43 4.5t-39 15.5v140q16 9 38.5 14.5t43.5 5.5q75 0 132.5 11t108.5 43q11 38 15 81.5t4 85.5q0 81 -14.5 155t-34.5 137l185 43q18 -81 28 -157.5t10 -148.5q0 -28 -1 -52t-3 -47 t-5.5 -46.5t-8.5 -49.5q21 -12 48 -22.5t56 -17.5t59 -11t57 -4v-180z"/>
<glyph arabic-form="isolated" glyph-name="ShaddaKasratanNS" d="M154 2168q0 -66 -30.5 -105t-96.5 -39q-26 0 -50.5 12t-43.5 47q-14 -48 -43 -74t-74 -26q-68 0 -98.5 42.5t-30.5 111.5v13.5t1 13.5l73 3q-1 -6 -1 -11.5v-10.5q0 -35 12.5 -60t49.5 -25q19 0 32 10t20 26t10 36t3 40q0 7 -0.5 13.5t-1.5 11.5l73 14q2 -15 5.5 -34 t11.5 -36t21 -28.5t34 -11.5q29 0 40.5 19.5t11.5 45.5q0 29 -9.5 58.5t-20.5 46.5l63 35q15 -22 27 -54.5t12 -83.5zM196 1916q-49 -23 -105 -43t-115.5 -35.5t-119.5 -25t-117 -11.5l-17 70q115 11 224.5 40t224.5 74zM225 1755q-49 -23 -105 -43t-115.5 -35.5t-119.5 -25 t-117 -11.5l-17 70q115 11 224.5 40t224.5 74z" unicode="ﱟ"/>
<glyph arabic-form="isolated" glyph-name="ShaddaFathaNS" d="M211 1820q0 -66 -30.5 -105t-96.5 -39q-26 0 -50.5 12t-43.5 47q-14 -48 -43 -74t-74 -26q-68 0 -98.5 42.5t-30.5 111.5v13.5t1 13.5l73 3q-1 -6 -1 -11.5v-10.5q0 -35 12.5 -60t49.5 -25q19 0 32 10t20 26t10 36t3 40q0 7 -0.5 13.5t-1.5 11.5l73 14q2 -15 5.5 -34 t11.5 -36t21 -28.5t34 -11.5q29 0 40.5 19.5t11.5 45.5q0 29 -9.5 58.5t-20.5 46.5l63 35q15 -22 27 -54.5t12 -83.5zM179 2038q-49 -23 -105 -43t-115.5 -35.5t-119.5 -25t-117 -11.5l-17 70q115 11 224.5 40t224.5 74z" unicode="ﱠ"/>
<glyph arabic-form="isolated" glyph-name="ShaddaDammaNS" d="M211 1820q0 -66 -30.5 -105t-96.5 -39q-26 0 -50.5 12t-43.5 47q-14 -48 -43 -74t-74 -26q-68 0 -98.5 42.5t-30.5 111.5v13.5t1 13.5l73 3q-1 -6 -1 -11.5v-10.5q0 -35 12.5 -60t49.5 -25q19 0 32 10t20 26t10 36t3 40q0 7 -0.5 13.5t-1.5 11.5l73 14q2 -15 5.5 -34 t11.5 -36t21 -28.5t34 -11.5q29 0 40.5 19.5t11.5 45.5q0 29 -9.5 58.5t-20.5 46.5l63 35q15 -22 27 -54.5t12 -83.5zM34 2190q-26 0 -44 -17t-18 -44q0 -29 16 -46t41 -30q34 16 49 36.5t15 44.5q0 56 -59 56zM-295 1971q61 7 130.5 18t129.5 32q-24 17 -46.5 44t-22.5 68 q0 27 10.5 52t30 44t45.5 30.5t58 11.5q22 0 44.5 -7.5t40 -23.5t28.5 -40t11 -57q0 -75 -48.5 -123.5t-148.5 -78.5q-49 -15 -112 -27.5t-138 -15.5z" unicode="ﱡ"/>
<glyph arabic-form="isolated" glyph-name="ShaddaKasraNS" d="M183 2007q0 -66 -30.5 -105t-96.5 -39q-26 0 -50.5 12t-43.5 47q-14 -48 -43 -74t-74 -26q-68 0 -98.5 42.5t-30.5 111.5v13.5t1 13.5l73 3q-1 -6 -1 -11.5v-10.5q0 -35 12.5 -60t49.5 -25q19 0 32 10t20 26t10 36t3 40q0 7 -0.5 13.5t-1.5 11.5l73 14q2 -15 5.5 -34 t11.5 -36t21 -28.5t34 -11.5q29 0 40.5 19.5t11.5 45.5q0 29 -9.5 58.5t-20.5 46.5l63 35q15 -22 27 -54.5t12 -83.5zM225 1755q-49 -23 -105 -43t-115.5 -35.5t-119.5 -25t-117 -11.5l-17 70q115 11 224.5 40t224.5 74z" unicode="ﱢ"/>
<glyph arabic-form="isolated" glyph-name="ShaddaSmallAlefAboveNS" d="M211 1820q0 -66 -30.5 -105t-96.5 -39q-26 0 -50.5 12t-43.5 47q-14 -48 -43 -74t-74 -26q-68 0 -98.5 42.5t-30.5 111.5v13.5t1 13.5l73 3q-1 -6 -1 -11.5v-10.5q0 -35 12.5 -60t49.5 -25q19 0 32 10t20 26t10 36t3 40q0 7 -0.5 13.5t-1.5 11.5l73 14q2 -15 5.5 -34 t11.5 -36t21 -28.5t34 -11.5q29 0 40.5 19.5t11.5 45.5q0 29 -9.5 58.5t-20.5 46.5l63 35q15 -22 27 -54.5t12 -83.5zM12 2272q6 -57 9.5 -99t5 -78t2 -71.5t0.5 -79.5h-97q0 66 -2.5 140t-14.5 176z" unicode="ﱣ"/>
<glyph arabic-form="isolated" glyph-name="HamzaSep" horiz-adv-x="843" unicode="ء" d="M108 421q0 80 28.5 145t78 111t117 71t144.5 25q22 0 49.5 -2.5t56 -7.5t56.5 -12.5t52 -16.5l-21 -127q-44 11 -88.5 17.5t-86.5 6.5q-51 0 -93 -14t-71.5 -41t-46 -66t-16.5 -89q0 -44 14.5 -83.5t42 -70t66.5 -50t88 -23.5q80 5 143.5 16t126.5 24l15 -139l-143 -24 q-131 -23 -267 -38t-287 -17l-16 135q53 2 100 5t99 9q-38 20 -64.5 49t-43.5 63t-25 71t-8 73z"/>
<glyph arabic-form="isolated" glyph-name="WawHamzaAboveSep" horiz-adv-x="974" unicode="ؤ" d="M712 269q0 67 -14 134.5t-46 121.5q-53 91 -169 91q-42 0 -82 -23t-70.5 -59.5t-49.5 -83t-19 -94.5q0 -55 20.5 -91t56 -57t82 -29.5t98.5 -8.5q45 0 93 3.5t93 14.5q3 22 5 42t2 39zM474 0q-47 0 -92 6.5t-86 21.5t-76.5 39.5t-63.5 60.5q-16 20 -28 41.5t-20 46.5 t-12 54.5t-4 66.5q0 49 13 100.5t38 100t61 92t81.5 75.5t99.5 51t116 19q66 0 120.5 -20.5t97 -56t73.5 -82t49 -98.5q23 -66 33 -125.5t10 -125.5q0 -69 -12.5 -137t-32.5 -124q-22 -63 -64 -128t-110.5 -125t-166.5 -111.5t-232 -87.5l-84 151q28 8 58.5 18t60 21 t56.5 22.5t50 21.5q62 28 106.5 56t76 58.5t52.5 64.5t37 73q-48 -18 -102.5 -29t-102.5 -11zM274 1043q15 1 32 1.5t34 2.5q-21 21 -30 46.5t-9 48.5q0 39 14 70.5t38 54t56 34.5t68 12q23 0 55.5 -4.5t59.5 -15.5l-16 -83q-28 5 -50.5 8t-40.5 3t-31.5 -3.5t-25.5 -12.5 t-19 -24.5t-7 -38.5q0 -29 14.5 -50.5t41.5 -28.5q16 1 36.5 2.5t41.5 4t40.5 6t34.5 8.5l10 -94l-78 -13q-54 -9 -118.5 -17t-139.5 -8z"/>
<glyph arabic-form="final" glyph-name="WawHamzaAboveFin" horiz-adv-x="1037" unicode="ؤ" d="M652 525q-51 91 -169 91q-42 0 -82 -23t-70.5 -59.5t-49.5 -83t-19 -94.5q0 -55 24 -89t63 -53.5t88.5 -26.5t101.5 -7h165q6 42 6 87q0 70 -14.5 138.5t-43.5 119.5zM163 128q-16 20 -29 41.5t-22.5 46.5t-14.5 54.5t-5 66.5q0 49 13 100.5t38 100t61 92t81.5 75.5 t99.5 51t116 19q66 0 120.5 -20.5t97 -56t73.5 -82t49 -98.5q18 -51 24.5 -102t6.5 -103q0 -34 -2 -67.5t-5 -65.5h172v-180h-209q-23 -56 -64 -119.5t-107.5 -124t-162.5 -113.5t-228 -89l-84 152q28 8 58.5 18t60 21t56.5 22t50 21q52 24 92 49.5t70 52t51.5 54t37.5 56.5 h-137q-47 0 -98 6.5t-99.5 21.5t-90.5 39.5t-70 60.5zM273 1043q15 1 32 1.5t34 2.5q-21 21 -30 46.5t-9 48.5q0 39 14 70.5t38 54t56 34.5t68 12q23 0 55.5 -4.5t59.5 -15.5l-16 -83q-28 5 -50.5 8t-40.5 3t-31.5 -3.5t-25.5 -12.5t-19 -24.5t-7 -38.5q0 -29 14.5 -50.5 t41.5 -28.5q16 1 36.5 2.5t41.5 4t40.5 6t34.5 8.5l10 -94l-78 -13q-54 -9 -118.5 -17t-139.5 -8z"/>
<glyph arabic-form="isolated" glyph-name="AlefHamzaBelowSep" horiz-adv-x="562" unicode="إ" d="M349 13q-44 -3 -81 -6.5t-81 -6.5q1 29 2 64.5t2 72t1 72v65.5v88v130t-1.5 183.5t-3.5 214t-6.5 221t-10.5 205t-15 165.5l183 18q3 -29 5.5 -77t5 -107.5t4 -127l3 -135t3 -132t2 -118t1 -92t0.5 -54.5q0 -161 -1.5 -321.5t-11.5 -321.5zM97 -377q15 1 32 1.5t34 2.5 q-21 21 -30 46.5t-9 48.5q0 39 14 70.5t38 54t56 34.5t68 12q23 0 55.5 -4.5t59.5 -15.5l-16 -83q-28 5 -50.5 8t-40.5 3t-31.5 -3.5t-25.5 -12.5t-19 -24.5t-7 -38.5q0 -29 14.5 -50.5t41.5 -28.5q16 1 36.5 2.5t41.5 4t40.5 6t34.5 8.5l10 -94l-78 -13q-54 -9 -118.5 -17 t-139.5 -8z"/>
<glyph arabic-form="isolated" glyph-name="YehHamzaAboveSep" horiz-adv-x="1560" unicode="ئ" d="M1144 417q89 -44 149.5 -84t89.5 -92q17 -30 22 -61t5 -52q0 -98 -52 -179.5t-143.5 -141t-216.5 -92.5t-272 -33q-127 0 -240.5 29t-199 90.5t-136 157.5t-50.5 230q0 81 15 157.5t47 157.5l161 -33q-23 -71 -34.5 -130t-11.5 -119q0 -83 28.5 -149.5t85 -113t140.5 -72 t195 -25.5q53 0 112 8t117 23t111 37t93.5 50t64.5 61.5t24 72.5v7q-15 28 -54 55.5t-90 54t-107.5 52t-107.5 49.5q-52 25 -88 55.5t-57 72.5q-2 15 -3.5 38.5t-1.5 37.5q0 46 6.5 83t18 68.5t27.5 59.5t36 57q51 74 113 117t123 65t115.5 28t90.5 6q34 0 70.5 -6.5 t62.5 -16.5l-37 -161q-30 2 -59.5 4.5t-63.5 2.5q-62 0 -122 -20t-108 -57t-79.5 -90.5t-35.5 -120.5q4 -14 16.5 -25.5t29 -20.5t33.5 -16.5t30 -13.5zM97 759q15 1 32 1.5t34 2.5q-21 21 -30 46.5t-9 48.5q0 39 14 70.5t38 54t56 34.5t68 12q23 0 55.5 -4.5t59.5 -15.5 l-16 -83q-28 5 -50.5 8t-40.5 3t-31.5 -3.5t-25.5 -12.5t-19 -24.5t-7 -38.5q0 -29 14.5 -50.5t41.5 -28.5q16 1 36.5 2.5t41.5 4t40.5 6t34.5 8.5l10 -94l-78 -13q-54 -9 -118.5 -17t-139.5 -8z"/>
<glyph arabic-form="final" glyph-name="YehHamzaAboveFin" horiz-adv-x="1334" unicode="ئ" d="M1334 0q-13 0 -29.5 3t-30.5 9v-13q0 -72 -38 -141t-112 -123t-182.5 -87t-248.5 -33q-124 0 -231.5 28.5t-186.5 89t-124.5 154.5t-45.5 224q0 35 4.5 75t13 83t21.5 86.5t30 85.5l158 -25q-23 -68 -39 -134t-16 -135q0 -96 29 -163t85 -109t138.5 -61t189.5 -19 q94 0 170 18t129.5 49.5t82 72.5t28.5 88q0 11 -2 19.5t-7 19.5q-22 15 -47.5 33.5t-52.5 42t-54 52.5t-51 64l138 112q27 -39 61 -73t70.5 -59t75 -39.5t74.5 -14.5v-180zM86 723q15 1 32 1.5t34 2.5q-21 21 -30 46.5t-9 48.5q0 39 14 70.5t38 54t56 34.5t68 12 q23 0 55.5 -4.5t59.5 -15.5l-16 -83q-28 5 -50.5 8t-40.5 3t-31.5 -3.5t-25.5 -12.5t-19 -24.5t-7 -38.5q0 -29 14.5 -50.5t41.5 -28.5q16 1 36.5 2.5t41.5 4t40.5 6t34.5 8.5l10 -94l-78 -13q-54 -9 -118.5 -17t-139.5 -8z"/>
<glyph arabic-form="initial" glyph-name="YehHamzaAboveIni" horiz-adv-x="614" unicode="ئ" d="M0 0q-21 0 -43 4.5t-39 15.5v140q16 9 38.5 14.5t43.5 5.5q39 0 76.5 2.5t70.5 9.5t61 19t49 30q3 9 6 24t6 32t4.5 34t1.5 30q0 60 -4 107t-13.5 92.5t-24 96.5t-35.5 120l187 45q16 -65 27 -116t17.5 -99t9.5 -98.5t3 -113.5q0 -52 -11 -111.5t-32 -116.5 q-30 -44 -79.5 -75.5t-106 -51.5t-113 -30t-100.5 -10zM74 1074q15 1 32 1.5t34 2.5q-21 21 -30 46.5t-9 48.5q0 39 14 70.5t38 54t56 34.5t68 12q23 0 55.5 -4.5t59.5 -15.5l-16 -83q-28 5 -50.5 8t-40.5 3t-31.5 -3.5t-25.5 -12.5t-19 -24.5t-7 -38.5q0 -29 14.5 -50.5 t41.5 -28.5q16 1 36.5 2.5t41.5 4t40.5 6t34.5 8.5l10 -94l-78 -13q-54 -9 -118.5 -17t-139.5 -8z"/>
<glyph arabic-form="medial" glyph-name="YehHamzaAboveMed" horiz-adv-x="636" unicode="ئ" d="M636 0q-37 0 -77.5 7t-81 20.5t-79 33.5t-71.5 47q-135 -108 -327 -108q-21 0 -43 4.5t-39 15.5v140q16 9 38.5 14.5t43.5 5.5q75 0 132.5 11t108.5 43q11 38 15 81.5t4 85.5q0 81 -14.5 155t-34.5 137l185 43q18 -81 28 -157.5t10 -148.5q0 -28 -1 -52t-3 -47 t-5.5 -46.5t-8.5 -49.5q21 -12 48 -22.5t56 -17.5t59 -11t57 -4v-180zM85 989q15 1 32 1.5t34 2.5q-21 21 -30 46.5t-9 48.5q0 39 14 70.5t38 54t56 34.5t68 12q23 0 55.5 -4.5t59.5 -15.5l-16 -83q-28 5 -50.5 8t-40.5 3t-31.5 -3.5t-25.5 -12.5t-19 -24.5t-7 -38.5 q0 -29 14.5 -50.5t41.5 -28.5q16 1 36.5 2.5t41.5 4t40.5 6t34.5 8.5l10 -94l-78 -13q-54 -9 -118.5 -17t-139.5 -8z"/>
<glyph arabic-form="isolated" glyph-name="AlefSep" horiz-adv-x="562" unicode="ا" d="M349 13q-44 -3 -81 -6.5t-81 -6.5q1 29 2 64.5t2 72t1 72v65.5v88v130t-1.5 183.5t-3.5 214t-6.5 221t-10.5 205t-15 165.5l183 18q3 -29 5.5 -77t5 -107.5t4 -127l3 -135t3 -132t2 -118t1 -92t0.5 -54.5q0 -161 -1.5 -321.5t-11.5 -321.5z"/>
<glyph arabic-form="final" glyph-name="AlefFin" horiz-adv-x="552" unicode="ا" d="M552 0q-50 0 -100 6t-94.5 17.5t-81 29t-59.5 40.5q-12 46 -18.5 111t-10 141t-4 159t-0.5 166q0 72 -1 170t-3 207.5t-4.5 222t-5.5 211.5l183 18v-91v-112t0.5 -120t0.5 -114.5v-95.5v-63v-387q0 -48 0.5 -94.5t1.5 -87.5t3 -73t5 -50q39 -17 83 -24t105 -7v-180z"/>
<glyph arabic-form="isolated" glyph-name="BehSep" horiz-adv-x="1963" unicode="ب" d="M1750 167q-37 -53 -109 -91t-178 -62t-245 -35t-309 -11q-88 0 -181.5 6.5t-182 25.5t-168 54.5t-139 94t-94 143t-34.5 201.5q0 39 2.5 73.5t7.5 69t12.5 71t17.5 79.5l173 -19q-15 -72 -24.5 -129.5t-9.5 -90.5q0 -116 41.5 -192.5t120.5 -122.5t194.5 -65t263.5 -19 q137 0 253.5 6t206.5 17.5t150.5 29t86.5 40.5q3 9 6 24.5t6 32.5t4.5 33.5t1.5 29.5q0 60 -4 106.5t-13.5 92.5t-24 97t-35.5 120l190 45q16 -65 27 -116t17.5 -99t9.5 -98.5t3 -113.5q0 -51 -11.5 -111t-32.5 -117zM1105 -327q0 -19 -10 -40t-26.5 -39t-38 -29.5 t-43.5 -11.5q-21 0 -43.5 12t-40.5 30t-29.5 39t-11.5 39q0 19 11.5 39.5t29.5 38t39 28.5t40 11q20 0 42 -11t40 -28.5t29.5 -38t11.5 -39.5z"/>
<glyph arabic-form="final" glyph-name="BehFin" horiz-adv-x="2000" unicode="ب" d="M932 -63q-94 0 -192 6.5t-189 25.5t-171.5 54.5t-140.5 94t-94.5 143t-34.5 201.5q0 39 2.5 73.5t7.5 69t12.5 71t17.5 79.5l173 -19q-15 -72 -24.5 -129.5t-9.5 -90.5q0 -116 40.5 -192.5t121.5 -122.5t201.5 -65t279.5 -19q129 0 243.5 11t203.5 28.5t147.5 40 t76.5 46.5q12 38 16.5 75.5t4.5 82.5q0 81 -15.5 155t-33.5 137l185 43q17 -85 27.5 -159.5t10.5 -146.5q0 -56 -4 -101t-14 -96q63 -31 120 -42t100 -11v-180q-36 0 -77.5 7t-83 20.5t-80.5 34t-72 48.5q-36 -35 -109 -66t-172.5 -55t-220.5 -38t-253 -14zM1121 -357 q0 -19 -10 -40t-26.5 -39t-38 -29.5t-43.5 -11.5q-21 0 -43.5 12t-40.5 30t-29.5 39t-11.5 39q0 19 11.5 39.5t29.5 38t39 28.5t40 11q20 0 42 -11t40 -28.5t29.5 -38t11.5 -39.5z"/>
<glyph arabic-form="initial" glyph-name="BehIni" horiz-adv-x="614" unicode="ب" d="M0 0q-21 0 -43 4.5t-39 15.5v140q16 9 38.5 14.5t43.5 5.5q39 0 76.5 2.5t70.5 9.5t61 19t49 30q3 9 6 24t6 32t4.5 34t1.5 30q0 60 -4 107t-13.5 92.5t-24 96.5t-35.5 120l187 45q16 -65 27 -116t17.5 -99t9.5 -98.5t3 -113.5q0 -52 -11 -111.5t-32 -116.5 q-30 -44 -79.5 -75.5t-106 -51.5t-113 -30t-100.5 -10zM401 -258q0 -19 -10 -40t-26.5 -39t-38 -29.5t-43.5 -11.5q-21 0 -43.5 12t-40.5 30t-29.5 39t-11.5 39q0 19 11.5 39.5t29.5 38t39 28.5t40 11q20 0 42 -11t40 -28.5t29.5 -38t11.5 -39.5z"/>
<glyph arabic-form="medial" glyph-name="BehMed" horiz-adv-x="636" unicode="ب" d="M0 0q-21 0 -43 4.5t-39 15.5v140q16 9 38.5 14.5t43.5 5.5q75 0 132.5 11t108.5 43q11 38 15 81.5t4 85.5q0 81 -14.5 155t-34.5 137l185 43q18 -81 28 -157.5t10 -148.5q0 -28 -1 -52t-3 -47t-5.5 -46.5t-8.5 -49.5q21 -12 48 -22.5t56 -17.5t59 -11t57 -4v-180 q-37 0 -77.5 7t-81 20.5t-79 33.5t-71.5 47q-135 -108 -327 -108zM379 -258q0 -19 -10 -40t-26.5 -39t-38 -29.5t-43.5 -11.5q-21 0 -43.5 12t-40.5 30t-29.5 39t-11.5 39q0 19 11.5 39.5t29.5 38t39 28.5t40 11q20 0 42 -11t40 -28.5t29.5 -38t11.5 -39.5z"/>
<glyph arabic-form="isolated" glyph-name="TehMarbutaSep" horiz-adv-x="1027" unicode="ة" d="M502 192q138 0 205 50.5t67 168.5q-2 59 -20.5 114t-51.5 97t-78.5 67.5t-101.5 25.5q-59 0 -108 -25t-84 -66.5t-54 -96t-19 -114.5q0 -57 18 -98.5t50.5 -68.5t77.5 -40.5t99 -13.5zM496 17q-74 0 -146.5 18t-130.5 62.5t-93.5 120t-35.5 190.5q0 94 34.5 180t93 151.5 t137 104t167.5 38.5q94 0 171 -39t131 -103.5t83.5 -149.5t29.5 -176q0 -111 -32.5 -187t-91 -122.5t-139.5 -67t-178 -20.5zM758 1231q0 -18 -9.5 -38t-25 -37t-35.5 -28t-41 -11q-20 0 -41 11t-38 28t-28 37t-11 38t11 37.5t27.5 36t36.5 27t38 10.5q19 0 39.5 -10.5 t37.5 -27t28 -36t11 -37.5zM489 1221q0 -18 -9.5 -38t-25 -37t-35.5 -28t-41 -11q-20 0 -41 11t-38 28t-28 37t-11 38t11 37.5t27.5 36t36.5 27t38 10.5q19 0 39.5 -10.5t37.5 -27t28 -36t11 -37.5z"/>
<glyph arabic-form="final" glyph-name="TehMarbutaFin" horiz-adv-x="1037" unicode="ة" d="M476 308q34 0 81.5 4t92.5 12q-9 55 -16 115t-12 126q-5 57 -8.5 113.5t-6.5 110.5q-87 -18 -155 -49.5t-114.5 -72t-71 -88.5t-24.5 -99q0 -49 18 -82t49.5 -53t74 -28.5t92.5 -8.5zM1038 0q-50 0 -103 8t-99.5 24t-83.5 38.5t-56 52.5q-5 11 -11 30t-11 38 q-66 -28 -124 -40.5t-100 -12.5q-77 0 -146 16.5t-121 53t-82.5 95t-30.5 143.5q0 79 30.5 155.5t95 142.5t165 118.5t240.5 83.5l-2 83l167 31q1 -60 5.5 -137t10.5 -155t12 -148.5l10 -117.5t9.5 -93t11.5 -84.5t12.5 -65.5t13.5 -37q37 -21 81.5 -31.5t105.5 -10.5v-180z M706 1341q0 -18 -9.5 -38t-25 -37t-35.5 -28t-41 -11q-20 0 -41 11t-38 28t-28 37t-11 38t11 37.5t27.5 36t36.5 27t38 10.5q19 0 39.5 -10.5t37.5 -27t28 -36t11 -37.5zM437 1331q0 -18 -9.5 -38t-25 -37t-35.5 -28t-41 -11q-20 0 -41 11t-38 28t-28 37t-11 38t11 37.5 t27.5 36t36.5 27t38 10.5q19 0 39.5 -10.5t37.5 -27t28 -36t11 -37.5z"/>
<glyph arabic-form="isolated" glyph-name="TehSep" horiz-adv-x="1963" unicode="ت" d="M1750 167q-37 -53 -109 -91t-178 -62t-245 -35t-309 -11q-88 0 -181.5 6.5t-182 25.5t-168 54.5t-139 94t-94 143t-34.5 201.5q0 39 2.5 73.5t7.5 69t12.5 71t17.5 79.5l173 -19q-15 -72 -24.5 -129.5t-9.5 -90.5q0 -116 41.5 -192.5t120.5 -122.5t194.5 -65t263.5 -19 q137 0 253.5 6t206.5 17.5t150.5 29t86.5 40.5q3 9 6 24.5t6 32.5t4.5 33.5t1.5 29.5q0 60 -4 106.5t-13.5 92.5t-24 97t-35.5 120l190 45q16 -65 27 -116t17.5 -99t9.5 -98.5t3 -113.5q0 -51 -11.5 -111t-32.5 -117zM1213 1051q0 -18 -9.5 -38t-25 -37t-35.5 -28t-41 -11 q-20 0 -41 11t-38 28t-28 37t-11 38t11 37.5t27.5 36t36.5 27t38 10.5q19 0 39.5 -10.5t37.5 -27t28 -36t11 -37.5zM944 1041q0 -18 -9.5 -38t-25 -37t-35.5 -28t-41 -11q-20 0 -41 11t-38 28t-28 37t-11 38t11 37.5t27.5 36t36.5 27t38 10.5q19 0 39.5 -10.5t37.5 -27 t28 -36t11 -37.5z"/>
<glyph arabic-form="final" glyph-name="TehFin" horiz-adv-x="2000" unicode="ت" d="M932 -63q-94 0 -192 6.5t-189 25.5t-171.5 54.5t-140.5 94t-94.5 143t-34.5 201.5q0 39 2.5 73.5t7.5 69t12.5 71t17.5 79.5l173 -19q-15 -72 -24.5 -129.5t-9.5 -90.5q0 -116 40.5 -192.5t121.5 -122.5t201.5 -65t279.5 -19q129 0 243.5 11t203.5 28.5t147.5 40 t76.5 46.5q12 38 16.5 75.5t4.5 82.5q0 81 -15.5 155t-33.5 137l185 43q17 -85 27.5 -159.5t10.5 -146.5q0 -56 -4 -101t-14 -96q63 -31 120 -42t100 -11v-180q-36 0 -77.5 7t-83 20.5t-80.5 34t-72 48.5q-36 -35 -109 -66t-172.5 -55t-220.5 -38t-253 -14zM1228 1051 q0 -18 -9.5 -38t-25 -37t-35.5 -28t-41 -11q-20 0 -41 11t-38 28t-28 37t-11 38t11 37.5t27.5 36t36.5 27t38 10.5q19 0 39.5 -10.5t37.5 -27t28 -36t11 -37.5zM959 1041q0 -18 -9.5 -38t-25 -37t-35.5 -28t-41 -11q-20 0 -41 11t-38 28t-28 37t-11 38t11 37.5t27.5 36 t36.5 27t38 10.5q19 0 39.5 -10.5t37.5 -27t28 -36t11 -37.5z"/>
<glyph arabic-form="initial" glyph-name="TehIni" horiz-adv-x="614" unicode="ت" d="M498 1161q0 -18 -9.5 -38t-25 -37t-35.5 -28t-41 -11q-20 0 -41 11t-38 28t-28 37t-11 38t11 37.5t27.5 36t36.5 27t38 10.5q19 0 39.5 -10.5t37.5 -27t28 -36t11 -37.5zM229 1151q0 -18 -9.5 -38t-25 -37t-35.5 -28t-41 -11q-20 0 -41 11t-38 28t-28 37t-11 38t11 37.5 t27.5 36t36.5 27t38 10.5q19 0 39.5 -10.5t37.5 -27t28 -36t11 -37.5zM0 180q39 0 76.5 2.5t70.5 9.5t61 19t49 30q3 9 6 24t6 32t4.5 34t1.5 30q0 60 -4 107t-13.5 92.5t-24 96.5t-35.5 120l187 45q16 -65 27 -116t17.5 -99t9.5 -98.5t3 -113.5q0 -52 -11 -111.5 t-32 -116.5q-30 -44 -79.5 -75.5t-106 -51.5t-113 -30t-100.5 -10q-21 0 -43 4.5t-39 15.5v140q16 9 38.5 14.5t43.5 5.5z"/>
<glyph arabic-form="medial" glyph-name="TehMed" horiz-adv-x="636" unicode="ت" d="M527 1071q0 -18 -9.5 -38t-25 -37t-35.5 -28t-41 -11q-20 0 -41 11t-38 28t-28 37t-11 38t11 37.5t27.5 36t36.5 27t38 10.5q19 0 39.5 -10.5t37.5 -27t28 -36t11 -37.5zM258 1061q0 -18 -9.5 -38t-25 -37t-35.5 -28t-41 -11q-20 0 -41 11t-38 28t-28 37t-11 38t11 37.5 t27.5 36t36.5 27t38 10.5q19 0 39.5 -10.5t37.5 -27t28 -36t11 -37.5zM0 180q75 0 132.5 11t108.5 43q11 38 15 81.5t4 85.5q0 81 -14.5 155t-34.5 137l185 43q18 -81 28 -157.5t10 -148.5q0 -28 -1 -52t-3 -47t-5.5 -46.5t-8.5 -49.5q21 -12 48 -22.5t56 -17.5t59 -11 t57 -4v-180q-37 0 -77.5 7t-81 20.5t-79 33.5t-71.5 47q-135 -108 -327 -108q-21 0 -43 4.5t-39 15.5v140q16 9 38.5 14.5t43.5 5.5z"/>
<glyph arabic-form="isolated" glyph-name="ThehSep" horiz-adv-x="1963" unicode="ث" d="M1750 167q-37 -53 -109 -91t-178 -62t-245 -35t-309 -11q-88 0 -181.5 6.5t-182 25.5t-168 54.5t-139 94t-94 143t-34.5 201.5q0 39 2.5 73.5t7.5 69t12.5 71t17.5 79.5l173 -19q-15 -72 -24.5 -129.5t-9.5 -90.5q0 -116 41.5 -192.5t120.5 -122.5t194.5 -65t263.5 -19 q137 0 253.5 6t206.5 17.5t150.5 29t86.5 40.5q3 9 6 24.5t6 32.5t4.5 33.5t1.5 29.5q0 60 -4 106.5t-13.5 92.5t-24 97t-35.5 120l190 45q16 -65 27 -116t17.5 -99t9.5 -98.5t3 -113.5q0 -51 -11.5 -111t-32.5 -117zM1056 1269q0 -17 -9 -35t-23.5 -33.5t-32.5 -25.5 t-36 -10q-19 0 -38 10.5t-34.5 26t-25.5 34t-10 33.5q0 16 10 34t25.5 33t33.5 24.5t34 9.5q17 0 36 -9.5t34.5 -24.5t25.5 -33t10 -34zM1212 1051q0 -18 -9.5 -38t-25 -37t-35.5 -28t-41 -11q-20 0 -41 11t-38 28t-28 37t-11 38t11 37.5t27.5 36t36.5 27t38 10.5 q19 0 39.5 -10.5t37.5 -27t28 -36t11 -37.5zM943 1041q0 -18 -9.5 -38t-25 -37t-35.5 -28t-41 -11q-20 0 -41 11t-38 28t-28 37t-11 38t11 37.5t27.5 36t36.5 27t38 10.5q19 0 39.5 -10.5t37.5 -27t28 -36t11 -37.5z"/>
<glyph arabic-form="final" glyph-name="ThehFin" horiz-adv-x="2000" unicode="ث" d="M932 -63q-94 0 -192 6.5t-189 25.5t-171.5 54.5t-140.5 94t-94.5 143t-34.5 201.5q0 39 2.5 73.5t7.5 69t12.5 71t17.5 79.5l173 -19q-15 -72 -24.5 -129.5t-9.5 -90.5q0 -116 40.5 -192.5t121.5 -122.5t201.5 -65t279.5 -19q129 0 243.5 11t203.5 28.5t147.5 40 t76.5 46.5q12 38 16.5 75.5t4.5 82.5q0 81 -15.5 155t-33.5 137l185 43q17 -85 27.5 -159.5t10.5 -146.5q0 -56 -4 -101t-14 -96q63 -31 120 -42t100 -11v-180q-36 0 -77.5 7t-83 20.5t-80.5 34t-72 48.5q-36 -35 -109 -66t-172.5 -55t-220.5 -38t-253 -14zM1072 1269 q0 -17 -9 -35t-23.5 -33.5t-32.5 -25.5t-36 -10q-19 0 -38 10.5t-34.5 26t-25.5 34t-10 33.5q0 16 10 34t25.5 33t33.5 24.5t34 9.5q17 0 36 -9.5t34.5 -24.5t25.5 -33t10 -34zM1228 1051q0 -18 -9.5 -38t-25 -37t-35.5 -28t-41 -11q-20 0 -41 11t-38 28t-28 37t-11 38 t11 37.5t27.5 36t36.5 27t38 10.5q19 0 39.5 -10.5t37.5 -27t28 -36t11 -37.5zM959 1041q0 -18 -9.5 -38t-25 -37t-35.5 -28t-41 -11q-20 0 -41 11t-38 28t-28 37t-11 38t11 37.5t27.5 36t36.5 27t38 10.5q19 0 39.5 -10.5t37.5 -27t28 -36t11 -37.5z"/>
<glyph arabic-form="initial" glyph-name="ThehIni" horiz-adv-x="614" unicode="ث" d="M0 0q-21 0 -43 4.5t-39 15.5v140q16 9 38.5 14.5t43.5 5.5q39 0 76.5 2.5t70.5 9.5t61 19t49 30q3 9 6 24t6 32t4.5 34t1.5 30q0 60 -4 107t-13.5 92.5t-24 96.5t-35.5 120l187 45q16 -65 27 -116t17.5 -99t9.5 -98.5t3 -113.5q0 -52 -11 -111.5t-32 -116.5 q-30 -44 -79.5 -75.5t-106 -51.5t-113 -30t-100.5 -10zM342 1379q0 -17 -9 -35t-23.5 -33.5t-32.5 -25.5t-36 -10q-19 0 -38 10.5t-34.5 26t-25.5 34t-10 33.5q0 16 10 34t25.5 33t33.5 24.5t34 9.5q17 0 36 -9.5t34.5 -24.5t25.5 -33t10 -34zM498 1161q0 -18 -9.5 -38 t-25 -37t-35.5 -28t-41 -11q-20 0 -41 11t-38 28t-28 37t-11 38t11 37.5t27.5 36t36.5 27t38 10.5q19 0 39.5 -10.5t37.5 -27t28 -36t11 -37.5zM229 1151q0 -18 -9.5 -38t-25 -37t-35.5 -28t-41 -11q-20 0 -41 11t-38 28t-28 37t-11 38t11 37.5t27.5 36t36.5 27t38 10.5 q19 0 39.5 -10.5t37.5 -27t28 -36t11 -37.5z"/>
<glyph arabic-form="medial" glyph-name="ThehMed" horiz-adv-x="636" unicode="ث" d="M371 1289q0 -17 -9 -35t-23.5 -33.5t-32.5 -25.5t-36 -10q-19 0 -38 10.5t-34.5 26t-25.5 34t-10 33.5q0 16 10 34t25.5 33t33.5 24.5t34 9.5q17 0 36 -9.5t34.5 -24.5t25.5 -33t10 -34zM527 1071q0 -18 -9.5 -38t-25 -37t-35.5 -28t-41 -11q-20 0 -41 11t-38 28t-28 37 t-11 38t11 37.5t27.5 36t36.5 27t38 10.5q19 0 39.5 -10.5t37.5 -27t28 -36t11 -37.5zM258 1061q0 -18 -9.5 -38t-25 -37t-35.5 -28t-41 -11q-20 0 -41 11t-38 28t-28 37t-11 38t11 37.5t27.5 36t36.5 27t38 10.5q19 0 39.5 -10.5t37.5 -27t28 -36t11 -37.5zM0 180 q75 0 132.5 11t108.5 43q11 38 15 81.5t4 85.5q0 81 -14.5 155t-34.5 137l185 43q18 -81 28 -157.5t10 -148.5q0 -28 -1 -52t-3 -47t-5.5 -46.5t-8.5 -49.5q21 -12 48 -22.5t56 -17.5t59 -11t57 -4v-180q-37 0 -77.5 7t-81 20.5t-79 33.5t-71.5 47q-135 -108 -327 -108 q-21 0 -43 4.5t-39 15.5v140q16 9 38.5 14.5t43.5 5.5z"/>
<glyph arabic-form="isolated" glyph-name="JeemSep" horiz-adv-x="1314" unicode="ج" d="M71 671q37 67 81.5 110t90.5 67.5t91.5 33.5t84.5 9q36 0 76 -5t88 -20.5t106 -44t131 -74.5q42 -27 89.5 -56t96 -59t96.5 -59.5t92 -57.5l-44 -143l-95 -21q-40 -9 -88 -21t-100 -26t-106 -30t-106 -33q-96 -31 -173.5 -65.5t-132 -78.5t-84 -100.5t-29.5 -132.5 q0 -70 29.5 -121.5t85 -85.5t135.5 -50.5t181 -16.5q39 0 94.5 3.5t124.5 14.5q52 10 113 22.5t113 31.5l54 -166q-49 -20 -118 -36.5t-144 -28.5t-149 -18.5t-133 -6.5q-111 0 -213 26t-179.5 79t-123.5 133.5t-46 190.5q0 109 31.5 190.5t86.5 141.5t128.5 103t156.5 76 q70 27 138 48t130.5 37t118 27t99.5 19q-60 39 -122 75t-123 69q-73 40 -149 69t-158 37q-20 -2 -41.5 -7.5t-44.5 -19t-48 -37t-52 -61.5zM794 -68q0 -19 -10 -40t-26.5 -39t-38 -29.5t-43.5 -11.5q-21 0 -43.5 12t-40.5 30t-29.5 39t-11.5 39q0 19 11.5 39.5t29.5 38 t39 28.5t40 11q20 0 42 -11t40 -28.5t29.5 -38t11.5 -39.5z"/>
<glyph arabic-form="final" glyph-name="JeemFin" horiz-adv-x="1312" unicode="ج" d="M71 671q37 67 81.5 110t90.5 67.5t91.5 33.5t84.5 9q36 0 76 -5t88 -20.5t106 -44t131 -74.5q42 -27 89.5 -57.5t96 -62t96.5 -63t92 -59.5l-44 -133l-95 -21l-58 -14q10 -53 26 -78.5t39 -40.5q31 -20 89.5 -29t160.5 -9v-180q-119 0 -190 11.5t-115 34.5 q-30 16 -55 37.5t-44 52t-32.5 71t-20.5 94.5q-50 -14 -100.5 -29t-99.5 -31q-96 -31 -173.5 -65.5t-132 -78.5t-84 -100.5t-29.5 -132.5q0 -70 29.5 -121.5t85 -85.5t135.5 -50.5t181 -16.5q39 0 94.5 3.5t124.5 14.5q52 10 113 23t113 31l54 -166q-49 -20 -118 -36.5 t-144 -28.5t-149 -18.5t-133 -6.5q-111 0 -213 26t-179.5 79t-123.5 133.5t-46 190.5q0 109 31.5 190.5t86.5 141.5t128.5 103t156.5 76q70 27 138 48t130.5 37t118 27t99.5 19q-60 38 -122.5 74t-122.5 70q-36 21 -70 37.5t-68.5 29t-70.5 21t-77 12.5q-27 0 -51 -2.5 t-48 -13.5t-50 -35.5t-58 -67.5zM777 -68q0 -19 -10 -40t-26.5 -39t-38 -29.5t-43.5 -11.5q-21 0 -43.5 12t-40.5 30t-29.5 39t-11.5 39q0 19 11.5 39.5t29.5 38t39 28.5t40 11q20 0 42 -11t40 -28.5t29.5 -38t11.5 -39.5z"/>
<glyph arabic-form="initial" glyph-name="JeemIni" horiz-adv-x="1352" unicode="ج" d="M0 180q111 0 231 20.5t249 54t265.5 75.5t280.5 85q-54 38 -120 76.5t-138 83.5q-35 22 -77.5 44.5t-87.5 40.5t-90 30t-84 14q-23 -2 -46 -9.5t-47 -23t-48.5 -41t-49.5 -64.5l-139 69q40 81 87 128t94.5 71.5t93.5 31t85 6.5q50 0 98.5 -10.5t96 -29.5t95.5 -45.5 t96 -57.5q47 -30 101.5 -65t111 -71t111.5 -70.5t103 -64.5l-44 -145l-95 -21q-121 -36 -248.5 -86t-267 -96t-292.5 -78t-325 -32q-21 0 -42 4.5t-38 15.5v140q16 9 37.5 14.5t42.5 5.5zM726 -218q0 -19 -10 -40t-26.5 -39t-38 -29.5t-43.5 -11.5q-21 0 -43.5 12t-40.5 30 t-29.5 39t-11.5 39q0 19 11.5 39.5t29.5 38t39 28.5t40 11q20 0 42 -11t40 -28.5t29.5 -38t11.5 -39.5z"/>
<glyph arabic-form="medial" glyph-name="JeemMed" horiz-adv-x="1380" unicode="ج" d="M0 180q111 0 231 20.5t249 54t265.5 75.5t280.5 85q-54 38 -120 76.5t-138 83.5q-35 22 -77.5 44.5t-87.5 40.5t-90 30t-84 14q-23 -2 -46 -9.5t-47 -23t-48.5 -41t-48.5 -64.5l-140 69q40 81 87 128t94.5 71.5t93.5 31t85 6.5q50 0 98.5 -10.5t96 -29.5t95.5 -45.5 t96 -57.5q47 -30 101.5 -66.5t111 -74t111.5 -74t103 -66.5l-44 -135l-95 -21l-49 -15q8 -22 18.5 -35t27.5 -24q31 -20 89.5 -29t160.5 -9v-180q-119 0 -190 11.5t-115 34.5q-54 27 -85.5 71t-50.5 110q-102 -38 -209 -78t-223 -73t-242 -54.5t-265 -21.5q-21 0 -42 4.5 t-38 15.5v140q16 9 37.5 14.5t42.5 5.5zM731 -208q0 -19 -10 -40t-26.5 -39t-38 -29.5t-43.5 -11.5q-21 0 -43.5 12t-40.5 30t-29.5 39t-11.5 39q0 19 11.5 39.5t29.5 38t39 28.5t40 11q20 0 42 -11t40 -28.5t29.5 -38t11.5 -39.5z"/>
<glyph arabic-form="isolated" glyph-name="HahSep" horiz-adv-x="1314" unicode="ح" d="M71 671q37 67 81.5 110t90.5 67.5t91.5 33.5t84.5 9q36 0 76 -5t88 -20.5t106 -44t131 -74.5q42 -27 89.5 -56t96 -59t96.5 -59.5t92 -57.5l-44 -143l-95 -21q-40 -9 -88 -21t-100 -26t-106 -30t-106 -33q-96 -31 -173.5 -65.5t-132 -78.5t-84 -100.5t-29.5 -132.5 q0 -70 29.5 -121.5t85 -85.5t135.5 -50.5t181 -16.5q39 0 94.5 3.5t124.5 14.5q52 10 113 22.5t113 31.5l54 -166q-49 -20 -118 -36.5t-144 -28.5t-149 -18.5t-133 -6.5q-111 0 -213 26t-179.5 79t-123.5 133.5t-46 190.5q0 109 31.5 190.5t86.5 141.5t128.5 103t156.5 76 q70 27 138 48t130.5 37t118 27t99.5 19q-60 39 -122 75t-123 69q-73 40 -149 69t-158 37q-20 -2 -41.5 -7.5t-44.5 -19t-48 -37t-52 -61.5z"/>
<glyph arabic-form="final" glyph-name="HahFin" horiz-adv-x="1312" unicode="ح" d="M71 671q37 67 81.5 110t90.5 67.5t91.5 33.5t84.5 9q36 0 76 -5t88 -20.5t106 -44t131 -74.5q42 -27 89.5 -57.5t96 -62t96.5 -63t92 -59.5l-44 -133l-95 -21l-58 -14q10 -53 26 -78.5t39 -40.5q31 -20 89.5 -29t160.5 -9v-180q-119 0 -190 11.5t-115 34.5 q-30 16 -55 37.5t-44 52t-32.5 71t-20.5 94.5q-50 -14 -100.5 -29t-99.5 -31q-96 -31 -173.5 -65.5t-132 -78.5t-84 -100.5t-29.5 -132.5q0 -70 29.5 -121.5t85 -85.5t135.5 -50.5t181 -16.5q39 0 94.5 3.5t124.5 14.5q52 10 113 23t113 31l54 -166q-49 -20 -118 -36.5 t-144 -28.5t-149 -18.5t-133 -6.5q-111 0 -213 26t-179.5 79t-123.5 133.5t-46 190.5q0 109 31.5 190.5t86.5 141.5t128.5 103t156.5 76q70 27 138 48t130.5 37t118 27t99.5 19q-60 38 -122.5 74t-122.5 70q-36 21 -70 37.5t-68.5 29t-70.5 21t-77 12.5q-27 0 -51 -2.5 t-48 -13.5t-50 -35.5t-58 -67.5z"/>
<glyph arabic-form="initial" glyph-name="HahIni" horiz-adv-x="1352" unicode="ح" d="M0 180q111 0 231 20.5t249 54t265.5 75.5t280.5 85q-54 38 -120 76.5t-138 83.5q-35 22 -77.5 44.5t-87.5 40.5t-90 30t-84 14q-23 -2 -46 -9.5t-47 -23t-48.5 -41t-49.5 -64.5l-139 69q40 81 87 128t94.5 71.5t93.5 31t85 6.5q50 0 98.5 -10.5t96 -29.5t95.5 -45.5 t96 -57.5q47 -30 101.5 -65t111 -71t111.5 -70.5t103 -64.5l-44 -145l-95 -21q-121 -36 -248.5 -86t-267 -96t-292.5 -78t-325 -32q-21 0 -42 4.5t-38 15.5v140q16 9 37.5 14.5t42.5 5.5z"/>
<glyph arabic-form="medial" glyph-name="HahMed" horiz-adv-x="1380" unicode="ح" d="M0 180q111 0 231 20.5t249 54t265.5 75.5t280.5 85q-54 38 -120 76.5t-138 83.5q-35 22 -77.5 44.5t-87.5 40.5t-90 30t-84 14q-23 -2 -46 -9.5t-47 -23t-48.5 -41t-48.5 -64.5l-140 69q40 81 87 128t94.5 71.5t93.5 31t85 6.5q50 0 98.5 -10.5t96 -29.5t95.5 -45.5 t96 -57.5q47 -30 101.5 -66.5t111 -74t111.5 -74t103 -66.5l-44 -135l-95 -21l-49 -15q8 -22 18.5 -35t27.5 -24q31 -20 89.5 -29t160.5 -9v-180q-119 0 -190 11.5t-115 34.5q-54 27 -85.5 71t-50.5 110q-102 -38 -209 -78t-223 -73t-242 -54.5t-265 -21.5q-21 0 -42 4.5 t-38 15.5v140q16 9 37.5 14.5t42.5 5.5z"/>
<glyph arabic-form="isolated" glyph-name="KhahSep" horiz-adv-x="1314" unicode="خ" d="M71 671q37 67 81.5 110t90.5 67.5t91.5 33.5t84.5 9q36 0 76 -5t88 -20.5t106 -44t131 -74.5q42 -27 89.5 -56t96 -59t96.5 -59.5t92 -57.5l-44 -143l-95 -21q-40 -9 -88 -21t-100 -26t-106 -30t-106 -33q-96 -31 -173.5 -65.5t-132 -78.5t-84 -100.5t-29.5 -132.5 q0 -70 29.5 -121.5t85 -85.5t135.5 -50.5t181 -16.5q39 0 94.5 3.5t124.5 14.5q52 10 113 22.5t113 31.5l54 -166q-49 -20 -118 -36.5t-144 -28.5t-149 -18.5t-133 -6.5q-111 0 -213 26t-179.5 79t-123.5 133.5t-46 190.5q0 109 31.5 190.5t86.5 141.5t128.5 103t156.5 76 q70 27 138 48t130.5 37t118 27t99.5 19q-60 39 -122 75t-123 69q-73 40 -149 69t-158 37q-20 -2 -41.5 -7.5t-44.5 -19t-48 -37t-52 -61.5zM633 1231q0 -19 -10 -40t-26.5 -39t-38 -29.5t-43.5 -11.5q-21 0 -43.5 12t-40.5 30t-29.5 39t-11.5 39q0 19 11.5 39.5t29.5 38 t39 28.5t40 11q20 0 42 -11t40 -28.5t29.5 -38t11.5 -39.5z"/>
<glyph arabic-form="final" glyph-name="KhahFin" horiz-adv-x="1312" unicode="خ" d="M71 671q37 67 81.5 110t90.5 67.5t91.5 33.5t84.5 9q36 0 76 -5t88 -20.5t106 -44t131 -74.5q42 -27 89.5 -57.5t96 -62t96.5 -63t92 -59.5l-44 -133l-95 -21l-58 -14q10 -53 26 -78.5t39 -40.5q31 -20 89.5 -29t160.5 -9v-180q-119 0 -190 11.5t-115 34.5 q-30 16 -55 37.5t-44 52t-32.5 71t-20.5 94.5q-50 -14 -100.5 -29t-99.5 -31q-96 -31 -173.5 -65.5t-132 -78.5t-84 -100.5t-29.5 -132.5q0 -70 29.5 -121.5t85 -85.5t135.5 -50.5t181 -16.5q39 0 94.5 3.5t124.5 14.5q52 10 113 23t113 31l54 -166q-49 -20 -118 -36.5 t-144 -28.5t-149 -18.5t-133 -6.5q-111 0 -213 26t-179.5 79t-123.5 133.5t-46 190.5q0 109 31.5 190.5t86.5 141.5t128.5 103t156.5 76q70 27 138 48t130.5 37t118 27t99.5 19q-60 38 -122.5 74t-122.5 70q-36 21 -70 37.5t-68.5 29t-70.5 21t-77 12.5q-27 0 -51 -2.5 t-48 -13.5t-50 -35.5t-58 -67.5zM632 1231q0 -19 -10 -40t-26.5 -39t-38 -29.5t-43.5 -11.5q-21 0 -43.5 12t-40.5 30t-29.5 39t-11.5 39q0 19 11.5 39.5t29.5 38t39 28.5t40 11q20 0 42 -11t40 -28.5t29.5 -38t11.5 -39.5z"/>
<glyph arabic-form="initial" glyph-name="KhahIni" horiz-adv-x="1352" unicode="خ" d="M0 180q111 0 231 20.5t249 54t265.5 75.5t280.5 85q-54 38 -120 76.5t-138 83.5q-35 22 -77.5 44.5t-87.5 40.5t-90 30t-84 14q-23 -2 -46 -9.5t-47 -23t-48.5 -41t-49.5 -64.5l-139 69q40 81 87 128t94.5 71.5t93.5 31t85 6.5q50 0 98.5 -10.5t96 -29.5t95.5 -45.5 t96 -57.5q47 -30 101.5 -65t111 -71t111.5 -70.5t103 -64.5l-44 -145l-95 -21q-121 -36 -248.5 -86t-267 -96t-292.5 -78t-325 -32q-21 0 -42 4.5t-38 15.5v140q16 9 37.5 14.5t42.5 5.5zM614 1202q0 -19 -10 -40t-26.5 -39t-38 -29.5t-43.5 -11.5q-21 0 -43.5 12t-40.5 30 t-29.5 39t-11.5 39q0 19 11.5 39.5t29.5 38t39 28.5t40 11q20 0 42 -11t40 -28.5t29.5 -38t11.5 -39.5z"/>
<glyph arabic-form="medial" glyph-name="KhahMed" horiz-adv-x="1380" unicode="خ" d="M0 180q111 0 231 20.5t249 54t265.5 75.5t280.5 85q-54 38 -120 76.5t-138 83.5q-35 22 -77.5 44.5t-87.5 40.5t-90 30t-84 14q-23 -2 -46 -9.5t-47 -23t-48.5 -41t-48.5 -64.5l-140 69q40 81 87 128t94.5 71.5t93.5 31t85 6.5q50 0 98.5 -10.5t96 -29.5t95.5 -45.5 t96 -57.5q47 -30 101.5 -66.5t111 -74t111.5 -74t103 -66.5l-44 -135l-95 -21l-49 -15q8 -22 18.5 -35t27.5 -24q31 -20 89.5 -29t160.5 -9v-180q-119 0 -190 11.5t-115 34.5q-54 27 -85.5 71t-50.5 110q-102 -38 -209 -78t-223 -73t-242 -54.5t-265 -21.5q-21 0 -42 4.5 t-38 15.5v140q16 9 37.5 14.5t42.5 5.5zM614 1202q0 -19 -10 -40t-26.5 -39t-38 -29.5t-43.5 -11.5q-21 0 -43.5 12t-40.5 30t-29.5 39t-11.5 39q0 19 11.5 39.5t29.5 38t39 28.5t40 11q20 0 42 -11t40 -28.5t29.5 -38t11.5 -39.5z"/>
<glyph arabic-form="isolated" glyph-name="DalSep" horiz-adv-x="1063" unicode="د" d="M401 -10q-66 0 -146.5 7.5t-174.5 21.5l-10 180q75 -14 148 -19t148 -10h20q39 0 90 2.5t102 10.5t95 22t69 38q6 10 10.5 23.5t7.5 26.5t4 24.5t1 18.5q0 78 -19 161.5t-53 166.5t-79.5 162.5t-97.5 148.5l188 65q52 -74 94.5 -159t72.5 -176.5t46 -187t16 -190.5 q0 -16 -1.5 -37.5t-7 -45.5t-14.5 -49.5t-24 -50.5q-27 -32 -78 -60t-116 -49t-140 -33t-151 -12z"/>
<glyph arabic-form="final" glyph-name="DalFin" horiz-adv-x="1111" unicode="د" d="M70 209q72 -14 143 -20t143 -9q36 0 78 1.5t84.5 6t83 12.5t72.5 21q29 12 49.5 28t27.5 39q-35 80 -66 174.5t-56.5 190.5t-44.5 187.5t-30 166.5l183 33q17 -116 36.5 -214.5t42 -181.5t47 -153t51.5 -128q19 -43 38.5 -77t42 -57.5t51 -36t65.5 -12.5v-180 q-53 0 -94 10t-74 28.5t-59.5 44.5t-50.5 59q-50 -44 -103.5 -72t-109 -43.5t-111 -21t-108.5 -5.5q-66 0 -146.5 7.5t-174.5 21.5z"/>
<glyph arabic-form="isolated" glyph-name="ThalSep" horiz-adv-x="1063" unicode="ذ" d="M401 -10q-66 0 -146.5 7.5t-174.5 21.5l-10 180q75 -14 148 -19t148 -10h20q39 0 90 2.5t102 10.5t95 22t69 38q6 10 10.5 23.5t7.5 26.5t4 24.5t1 18.5q0 78 -19 161.5t-53 166.5t-79.5 162.5t-97.5 148.5l188 65q52 -74 94.5 -159t72.5 -176.5t46 -187t16 -190.5 q0 -16 -1.5 -37.5t-7 -45.5t-14.5 -49.5t-24 -50.5q-27 -32 -78 -60t-116 -49t-140 -33t-151 -12zM655 1353q0 -19 -10 -40t-26.5 -39t-38 -29.5t-43.5 -11.5q-21 0 -43.5 12t-40.5 30t-29.5 39t-11.5 39q0 19 11.5 39.5t29.5 38t39 28.5t40 11q20 0 42 -11t40 -28.5 t29.5 -38t11.5 -39.5z"/>
<glyph arabic-form="final" glyph-name="ThalFin" horiz-adv-x="1111" unicode="ذ" d="M70 209q72 -14 143 -20t143 -9q36 0 78 1.5t84.5 6t83 12.5t72.5 21q29 12 49.5 28t27.5 39q-35 80 -66 174.5t-56.5 190.5t-44.5 187.5t-30 166.5l183 33q17 -116 36.5 -214.5t42 -181.5t47 -153t51.5 -128q19 -43 38.5 -77t42 -57.5t51 -36t65.5 -12.5v-180 q-53 0 -94 10t-74 28.5t-59.5 44.5t-50.5 59q-50 -44 -103.5 -72t-109 -43.5t-111 -21t-108.5 -5.5q-66 0 -146.5 7.5t-174.5 21.5zM740 1375q0 -19 -10 -40t-26.5 -39t-38 -29.5t-43.5 -11.5q-21 0 -43.5 12t-40.5 30t-29.5 39t-11.5 39q0 19 11.5 39.5t29.5 38t39 28.5 t40 11q20 0 42 -11t40 -28.5t29.5 -38t11.5 -39.5z"/>
<glyph arabic-form="isolated" glyph-name="RehSep" horiz-adv-x="621" unicode="ر" d="M491 187q0 -23 -1.5 -44.5t-4.5 -43t-9 -45.5t-15 -52q-20 -64 -58 -127t-101 -121.5t-153.5 -109.5t-214.5 -90l-84 151q149 42 260 114.5t171 183.5q21 39 31 76.5t12 77.5q-1 64 -16.5 131.5t-37.5 133t-47 124.5t-46 105l191 53q21 -48 43 -110.5t39.5 -131t29 -139 t11.5 -136.5z"/>
<glyph arabic-form="final" glyph-name="RehFin" horiz-adv-x="657" unicode="ر" d="M657 0q-54 0 -102.5 7.5t-93.5 34.5q-21 -80 -60 -151.5t-102 -133.5t-153 -113t-212 -90l-84 151q149 42 257.5 114t168.5 183q21 39 32.5 77t11.5 78q0 63 -14 131t-35.5 133t-46 124.5t-45.5 105.5l189 53q40 -92 68.5 -207t40.5 -268q39 -31 86.5 -40t93.5 -9v-180z "/>
<glyph arabic-form="isolated" glyph-name="ZainSep" horiz-adv-x="621" unicode="ز" d="M491 187q0 -23 -1.5 -44.5t-4.5 -43t-9 -45.5t-15 -52q-20 -64 -58 -127t-101 -121.5t-153.5 -109.5t-214.5 -90l-84 151q149 42 260 114.5t171 183.5q21 39 31 76.5t12 77.5q-1 64 -16.5 131.5t-37.5 133t-47 124.5t-46 105l191 53q21 -48 43 -110.5t39.5 -131t29 -139 t11.5 -136.5zM335 1032q0 -19 -10 -40t-26.5 -39t-38 -29.5t-43.5 -11.5q-21 0 -43.5 12t-40.5 30t-29.5 39t-11.5 39q0 19 11.5 39.5t29.5 38t39 28.5t40 11q20 0 42 -11t40 -28.5t29.5 -38t11.5 -39.5z"/>
<glyph arabic-form="final" glyph-name="ZainFin" horiz-adv-x="657" unicode="ز" d="M657 0q-54 0 -102.5 7.5t-93.5 34.5q-21 -80 -60 -151.5t-102 -133.5t-153 -113t-212 -90l-84 151q149 42 257.5 114t168.5 183q21 39 32.5 77t11.5 78q0 63 -14 131t-35.5 133t-46 124.5t-45.5 105.5l189 53q40 -92 68.5 -207t40.5 -268q39 -31 86.5 -40t93.5 -9v-180z M333 1032q0 -19 -10 -40t-26.5 -39t-38 -29.5t-43.5 -11.5q-21 0 -43.5 12t-40.5 30t-29.5 39t-11.5 39q0 19 11.5 39.5t29.5 38t39 28.5t40 11q20 0 42 -11t40 -28.5t29.5 -38t11.5 -39.5z"/>
<glyph arabic-form="isolated" glyph-name="SeenSep" horiz-adv-x="2261" unicode="س" d="M1128 236q26 -33 69.5 -44.5t96.5 -11.5q49 0 81.5 13.5t52.5 37.5q5 25 6 55.5t1 65.5q0 57 -7.5 126t-19.5 154l183 40q2 -38 3 -66t2 -53t1 -48.5v-51.5v-45.5t-1 -57.5t-3 -59t-6 -50q32 -29 74.5 -42t85.5 -13q49 0 93 9.5t70 33.5q3 9 6 25.5t6 35.5t4.5 38t1.5 32 q0 48 -4 89t-13 83t-23 89t-35 109l187 45q25 -103 39.5 -193.5t14.5 -181.5q0 -52 -8.5 -111.5t-35.5 -129.5q-15 -30 -45 -57.5t-69 -48.5t-85.5 -34t-94.5 -13q-39 0 -75.5 8t-67.5 22.5t-55.5 33.5t-39.5 41q-13 -20 -33.5 -39.5t-48.5 -35.5t-64 -26t-81 -10 q-42 0 -84.5 11.5t-72.5 37.5q-10 -110 -51 -199t-110.5 -152t-166.5 -97t-218 -34q-104 0 -193 30.5t-154 89t-102 144.5t-37 196q0 31 2 64t7.5 68.5t15.5 75t26 84.5l151 -28q-13 -38 -21 -69t-12 -58t-5 -52t-1 -51q0 -62 19.5 -119t60 -100.5t102.5 -69t147 -25.5 q99 0 171.5 28.5t120 76t70.5 110t23 130.5q0 45 -9.5 104t-24.5 121.5t-33.5 122.5t-37.5 106l186 43q9 -31 19.5 -73.5t19.5 -90t16.5 -96.5t12.5 -93z"/>
<glyph arabic-form="final" glyph-name="SeenFin" horiz-adv-x="2288" unicode="س" d="M594 -253q99 0 171.5 28.5t120 76t70.5 110t23 130.5q0 45 -9.5 104t-24.5 121.5t-33.5 122.5t-37.5 106l186 43q10 -32 20 -74.5t19.5 -90.5t17 -99t12.5 -100q26 -32 69 -43.5t96 -11.5q49 0 79.5 13.5t50.5 37.5q7 25 9 55.5t2 65.5q0 57 -9 126t-23 154l183 40 q5 -74 8 -144t3 -131q0 -35 -2.5 -74.5t-7.5 -81.5q16 -15 38.5 -25t47 -17t49 -10t44.5 -3q52 0 87.5 15t56.5 39q3 9 6 24t6 32t4.5 34t1.5 30q0 45 -2 83t-8 79.5t-18.5 91t-33.5 116.5l187 45q12 -50 20 -94.5t13 -87.5t7 -85.5t2 -87.5q0 -42 -3.5 -88t-12.5 -94 q22 -15 50 -24.5t56.5 -15t55.5 -7t47 -1.5v-180q-33 0 -71.5 4.5t-78 15.5t-77 28.5t-67.5 43.5q-45 -42 -101.5 -69t-136.5 -27q-39 0 -75.5 8t-67.5 22.5t-55.5 33.5t-39.5 41q-13 -20 -33.5 -39.5t-48.5 -35.5t-64 -26t-81 -10q-43 0 -85.5 12t-72.5 38 q-11 -108 -52.5 -195t-111 -149t-165.5 -95.5t-216 -33.5q-104 0 -193 30.5t-154 89t-102 144.5t-37 196q0 31 2 64t7.5 68.5t15.5 75t26 84.5l151 -28q-13 -38 -21 -69t-12 -58t-5 -52t-1 -51q0 -62 19.5 -119t60 -100.5t102.5 -69t147 -25.5z"/>
<glyph arabic-form="initial" glyph-name="SeenIni" horiz-adv-x="1526" unicode="س" d="M0 0q-21 0 -42 4.5t-38 15.5v140q16 9 37.5 14.5t42.5 5.5q78 0 125.5 21t63.5 45q13 48 15.5 106t2.5 112q0 25 -1 48.5t-3 45.5l166 42q4 -24 5.5 -59.5t1.5 -62.5q0 -57 -5.5 -114t-22.5 -120q31 -39 79.5 -56.5t105.5 -17.5q64 0 100 15t54 35q5 25 8.5 61t3.5 71 q0 57 -7.5 126t-19.5 154l183 40q4 -75 5 -144.5t1 -130.5q0 -35 -2.5 -74.5t-7.5 -81.5q32 -29 74.5 -42t85.5 -13q24 0 49.5 3t47.5 8t39.5 13t26.5 19q3 9 6.5 25.5t6 36t4 38.5t1.5 31q0 48 -4 89t-13 83t-23 89t-35 109l187 45q25 -103 39.5 -193.5t14.5 -181.5 q0 -52 -9 -113.5t-32 -131.5q-12 -25 -42 -51.5t-70.5 -48t-88 -35.5t-95.5 -14q-76 0 -135 27t-101 72q-21 -24 -48 -44.5t-60 -36.5t-72.5 -25t-84.5 -9q-35 0 -71 9t-70 24.5t-64 36.5t-52 45q-38 -42 -104 -73.5t-159 -31.5z"/>
<glyph arabic-form="medial" glyph-name="SeenMed" horiz-adv-x="1543" unicode="س" d="M0 0q-21 0 -42 4.5t-38 15.5v140q16 9 37.5 14.5t42.5 5.5q25 0 51.5 2t50 8t43 17t31.5 29q13 48 15.5 106t2.5 112q0 50 -3 94l166 42q4 -24 5.5 -59.5t1.5 -62.5q0 -60 -6 -117t-23 -117q31 -39 81 -56.5t107 -17.5q64 0 98 15t52 35q7 25 10 61t3 71q0 57 -9 126 t-23 154l183 40q5 -75 8 -144.5t3 -130.5q0 -35 -2.5 -74.5t-7.5 -81.5q16 -15 38.5 -25t47.5 -17t50.5 -10t46.5 -3q49 0 84 15t56 39q3 9 6 24t6 32t4.5 34t1.5 30q0 45 -2 83.5t-8 79.5t-18.5 90.5t-33.5 116.5l187 45q12 -50 20 -95t13 -88t7 -85t2 -87q0 -48 -4 -92 t-12 -90q22 -15 50 -24.5t57 -15t56.5 -7t49.5 -1.5v-180q-35 0 -74.5 4.5t-79 15.5t-77 28.5t-67.5 43.5q-45 -42 -101.5 -69t-132.5 -27t-136.5 27t-102.5 72q-21 -24 -45.5 -44.5t-55.5 -36.5t-68 -25t-83 -9q-39 0 -78 9t-74 24.5t-65.5 36.5t-52.5 45 q-38 -40 -99 -67.5t-151 -27.5z"/>
<glyph arabic-form="isolated" glyph-name="SheenSep" horiz-adv-x="2261" unicode="ش" d="M1128 236q26 -33 69.5 -44.5t96.5 -11.5q49 0 81.5 13.5t52.5 37.5q5 25 6 55.5t1 65.5q0 57 -7.5 126t-19.5 154l183 40q2 -38 3 -66t2 -53t1 -48.5v-51.5v-45.5t-1 -57.5t-3 -59t-6 -50q32 -29 74.5 -42t85.5 -13q49 0 93 9.5t70 33.5q3 9 6 25.5t6 35.5t4.5 38t1.5 32 q0 48 -4 89t-13 83t-23 89t-35 109l187 45q25 -103 39.5 -193.5t14.5 -181.5q0 -52 -8.5 -111.5t-35.5 -129.5q-15 -30 -45 -57.5t-69 -48.5t-85.5 -34t-94.5 -13q-39 0 -75.5 8t-67.5 22.5t-55.5 33.5t-39.5 41q-13 -20 -33.5 -39.5t-48.5 -35.5t-64 -26t-81 -10 q-42 0 -84.5 11.5t-72.5 37.5q-10 -110 -51 -199t-110.5 -152t-166.5 -97t-218 -34q-104 0 -193 30.5t-154 89t-102 144.5t-37 196q0 31 2 64t7.5 68.5t15.5 75t26 84.5l151 -28q-13 -38 -21 -69t-12 -58t-5 -52t-1 -51q0 -62 19.5 -119t60 -100.5t102.5 -69t147 -25.5 q99 0 171.5 28.5t120 76t70.5 110t23 130.5q0 45 -9.5 104t-24.5 121.5t-33.5 122.5t-37.5 106l186 43q9 -31 19.5 -73.5t19.5 -90t16.5 -96.5t12.5 -93zM1601 1250q0 -17 -9 -35t-23.5 -33.5t-32.5 -25.5t-36 -10q-19 0 -38 10.5t-34.5 26t-25.5 34t-10 33.5q0 16 10 34 t25.5 33t33.5 24.5t34 9.5q17 0 36 -9.5t34.5 -24.5t25.5 -33t10 -34zM1757 1032q0 -18 -9.5 -38t-25 -37t-35.5 -28t-41 -11q-20 0 -41 11t-38 28t-28 37t-11 38t11 37.5t27.5 36t36.5 27t38 10.5q19 0 39.5 -10.5t37.5 -27t28 -36t11 -37.5zM1488 1022q0 -18 -9.5 -38 t-25 -37t-35.5 -28t-41 -11q-20 0 -41 11t-38 28t-28 37t-11 38t11 37.5t27.5 36t36.5 27t38 10.5q19 0 39.5 -10.5t37.5 -27t28 -36t11 -37.5z"/>
<glyph arabic-form="final" glyph-name="SheenFin" horiz-adv-x="2288" unicode="ش" d="M594 -253q99 0 171.5 28.5t120 76t70.5 110t23 130.5q0 45 -9.5 104t-24.5 121.5t-33.5 122.5t-37.5 106l186 43q10 -32 20 -74.5t19.5 -90.5t17 -99t12.5 -100q26 -32 69 -43.5t96 -11.5q49 0 79.5 13.5t50.5 37.5q7 25 9 55.5t2 65.5q0 57 -9 126t-23 154l183 40 q5 -74 8 -144t3 -131q0 -35 -2.5 -74.5t-7.5 -81.5q16 -15 38.5 -25t47 -17t49 -10t44.5 -3q52 0 87.5 15t56.5 39q3 9 6 24t6 32t4.5 34t1.5 30q0 45 -2 83t-8 79.5t-18.5 91t-33.5 116.5l187 45q12 -50 20 -94.5t13 -87.5t7 -85.5t2 -87.5q0 -42 -3.5 -88t-12.5 -94 q22 -15 50 -24.5t56.5 -15t55.5 -7t47 -1.5v-180q-33 0 -71.5 4.5t-78 15.5t-77 28.5t-67.5 43.5q-45 -42 -101.5 -69t-136.5 -27q-39 0 -75.5 8t-67.5 22.5t-55.5 33.5t-39.5 41q-13 -20 -33.5 -39.5t-48.5 -35.5t-64 -26t-81 -10q-43 0 -85.5 12t-72.5 38 q-11 -108 -52.5 -195t-111 -149t-165.5 -95.5t-216 -33.5q-104 0 -193 30.5t-154 89t-102 144.5t-37 196q0 31 2 64t7.5 68.5t15.5 75t26 84.5l151 -28q-13 -38 -21 -69t-12 -58t-5 -52t-1 -51q0 -62 19.5 -119t60 -100.5t102.5 -69t147 -25.5zM1581 1250q0 -17 -9 -35 t-23.5 -33.5t-32.5 -25.5t-36 -10q-19 0 -38 10.5t-34.5 26t-25.5 34t-10 33.5q0 16 10 34t25.5 33t33.5 24.5t34 9.5q17 0 36 -9.5t34.5 -24.5t25.5 -33t10 -34zM1737 1032q0 -18 -9.5 -38t-25 -37t-35.5 -28t-41 -11q-20 0 -41 11t-38 28t-28 37t-11 38t11 37.5t27.5 36 t36.5 27t38 10.5q19 0 39.5 -10.5t37.5 -27t28 -36t11 -37.5zM1468 1022q0 -18 -9.5 -38t-25 -37t-35.5 -28t-41 -11q-20 0 -41 11t-38 28t-28 37t-11 38t11 37.5t27.5 36t36.5 27t38 10.5q19 0 39.5 -10.5t37.5 -27t28 -36t11 -37.5z"/>
<glyph arabic-form="initial" glyph-name="SheenIni" horiz-adv-x="1526" unicode="ش" d="M0 0q-21 0 -42 4.5t-38 15.5v140q16 9 37.5 14.5t42.5 5.5q78 0 125.5 21t63.5 45q13 48 15.5 106t2.5 112q0 25 -1 48.5t-3 45.5l166 42q4 -24 5.5 -59.5t1.5 -62.5q0 -57 -5.5 -114t-22.5 -120q31 -39 79.5 -56.5t105.5 -17.5q64 0 100 15t54 35q5 25 8.5 61t3.5 71 q0 57 -7.5 126t-19.5 154l183 40q4 -75 5 -144.5t1 -130.5q0 -35 -2.5 -74.5t-7.5 -81.5q32 -29 74.5 -42t85.5 -13q24 0 49.5 3t47.5 8t39.5 13t26.5 19q3 9 6.5 25.5t6 36t4 38.5t1.5 31q0 48 -4 89t-13 83t-23 89t-35 109l187 45q25 -103 39.5 -193.5t14.5 -181.5 q0 -52 -9 -113.5t-32 -131.5q-12 -25 -42 -51.5t-70.5 -48t-88 -35.5t-95.5 -14q-76 0 -135 27t-101 72q-21 -24 -48 -44.5t-60 -36.5t-72.5 -25t-84.5 -9q-35 0 -71 9t-70 24.5t-64 36.5t-52 45q-38 -42 -104 -73.5t-159 -31.5zM846 1250q0 -17 -9 -35t-23.5 -33.5 t-32.5 -25.5t-36 -10q-19 0 -38 10.5t-34.5 26t-25.5 34t-10 33.5q0 16 10 34t25.5 33t33.5 24.5t34 9.5q17 0 36 -9.5t34.5 -24.5t25.5 -33t10 -34zM1002 1032q0 -18 -9.5 -38t-25 -37t-35.5 -28t-41 -11q-20 0 -41 11t-38 28t-28 37t-11 38t11 37.5t27.5 36t36.5 27 t38 10.5q19 0 39.5 -10.5t37.5 -27t28 -36t11 -37.5zM733 1022q0 -18 -9.5 -38t-25 -37t-35.5 -28t-41 -11q-20 0 -41 11t-38 28t-28 37t-11 38t11 37.5t27.5 36t36.5 27t38 10.5q19 0 39.5 -10.5t37.5 -27t28 -36t11 -37.5z"/>
<glyph arabic-form="medial" glyph-name="SheenMed" horiz-adv-x="1543" unicode="ش" d="M0 0q-21 0 -42 4.5t-38 15.5v140q16 9 37.5 14.5t42.5 5.5q25 0 51.5 2t50 8t43 17t31.5 29q13 48 15.5 106t2.5 112q0 50 -3 94l166 42q4 -24 5.5 -59.5t1.5 -62.5q0 -60 -6 -117t-23 -117q31 -39 81 -56.5t107 -17.5q64 0 98 15t52 35q7 25 10 61t3 71q0 57 -9 126 t-23 154l183 40q5 -75 8 -144.5t3 -130.5q0 -35 -2.5 -74.5t-7.5 -81.5q16 -15 38.5 -25t47.5 -17t50.5 -10t46.5 -3q49 0 84 15t56 39q3 9 6 24t6 32t4.5 34t1.5 30q0 45 -2 83.5t-8 79.5t-18.5 90.5t-33.5 116.5l187 45q12 -50 20 -95t13 -88t7 -85t2 -87q0 -48 -4 -92 t-12 -90q22 -15 50 -24.5t57 -15t56.5 -7t49.5 -1.5v-180q-35 0 -74.5 4.5t-79 15.5t-77 28.5t-67.5 43.5q-45 -42 -101.5 -69t-132.5 -27t-136.5 27t-102.5 72q-21 -24 -45.5 -44.5t-55.5 -36.5t-68 -25t-83 -9q-39 0 -78 9t-74 24.5t-65.5 36.5t-52.5 45 q-38 -40 -99 -67.5t-151 -27.5zM824 1250q0 -17 -9 -35t-23.5 -33.5t-32.5 -25.5t-36 -10q-19 0 -38 10.5t-34.5 26t-25.5 34t-10 33.5q0 16 10 34t25.5 33t33.5 24.5t34 9.5q17 0 36 -9.5t34.5 -24.5t25.5 -33t10 -34zM980 1032q0 -18 -9.5 -38t-25 -37t-35.5 -28t-41 -11 q-20 0 -41 11t-38 28t-28 37t-11 38t11 37.5t27.5 36t36.5 27t38 10.5q19 0 39.5 -10.5t37.5 -27t28 -36t11 -37.5zM711 1022q0 -18 -9.5 -38t-25 -37t-35.5 -28t-41 -11q-20 0 -41 11t-38 28t-28 37t-11 38t11 37.5t27.5 36t36.5 27t38 10.5q19 0 39.5 -10.5t37.5 -27 t28 -36t11 -37.5z"/>
<glyph arabic-form="isolated" glyph-name="SadSep" horiz-adv-x="2424" unicode="ص" d="M1647 160q226 0 352.5 55.5t149.5 173.5q-3 66 -23 119t-54.5 90.5t-82.5 57.5t-108 20q-100 0 -199 -60t-178 -169q-38 -54 -76.5 -120.5t-72.5 -144.5q70 -14 141.5 -18t150.5 -4zM1201 217q36 85 79 166.5t90 145.5q58 80 117.5 139.5t123.5 99t135 59t152 19.5 q97 0 174.5 -36.5t131 -95t82 -133t28.5 -149.5q0 -101 -46 -184.5t-132.5 -143t-210 -92t-278.5 -32.5q-158 0 -288.5 26.5t-221.5 75.5q-6 -121 -47 -216.5t-112.5 -162t-170 -101.5t-219.5 -35q-104 0 -193 30.5t-154 89t-102 144.5t-37 196q0 31 2 64t7.5 68.5t15.5 75 t26 84.5l151 -28q-13 -38 -21 -69t-12 -58t-5 -52t-1 -51q0 -62 19.5 -119t60 -100.5t102.5 -69t147 -25.5q99 0 171.5 28.5t120 76t70.5 110t23 130.5q0 45 -9.5 104t-24.5 121.5t-33.5 122.5t-37.5 106l186 43q9 -30 18.5 -68.5t18.5 -82.5t16.5 -91t12.5 -93 q17 -12 37 -21t38 -16z"/>
<glyph arabic-form="final" glyph-name="SadFin" horiz-adv-x="2456" unicode="ص" d="M1647 160q226 0 352.5 55.5t149.5 173.5q-3 66 -23 119t-54.5 90.5t-82.5 57.5t-108 20q-100 0 -199 -60t-178 -169q-38 -54 -76.5 -120.5t-72.5 -144.5q70 -14 141.5 -18t150.5 -4zM2456 0q-94 0 -190.5 18t-179.5 56q-84 -46 -194 -70t-245 -24q-158 0 -288.5 26.5 t-221.5 75.5q-6 -121 -47 -216.5t-112.5 -162t-170 -101.5t-219.5 -35q-104 0 -193 30.5t-154 89t-102 144.5t-37 196q0 31 2 64t7.5 68.5t15.5 75t26 84.5l151 -28q-13 -38 -21 -69t-12 -58t-5 -52t-1 -51q0 -62 19.5 -119t60 -100.5t102.5 -69t147 -25.5q99 0 171.5 28.5 t120 76t70.5 110t23 130.5q0 45 -9.5 104t-24.5 121.5t-33.5 122.5t-37.5 106l186 43q9 -30 18.5 -68.5t18.5 -82.5t16.5 -91t12.5 -93q17 -12 37 -21t38 -16q36 85 79 166.5t90 145.5q58 80 117.5 139.5t123.5 99t135 59t152 19.5q97 0 174.5 -36t131 -94.5t82 -133 t28.5 -150.5q0 -69 -21 -129t-61 -111q60 -8 116 -10t108 -2v-180z"/>
<glyph arabic-form="initial" glyph-name="SadIni" horiz-adv-x="1723" unicode="ص" d="M0 0q-21 0 -42 4.5t-38 15.5v140q16 9 37.5 14.5t42.5 5.5q69 0 126.5 10.5t99.5 36.5q-35 50 -57.5 105t-39.5 130l171 52q14 -60 32.5 -105.5t45.5 -87.5q23 -35 50.5 -62t67.5 -44q37 88 78.5 168.5t89.5 146.5q60 82 120 141.5t123.5 98.5t134 57.5t151.5 18.5 q97 0 174.5 -37t131 -96t82 -133t28.5 -148q0 -101 -42 -184.5t-126 -143t-210.5 -92t-294.5 -32.5q-61 0 -110.5 1.5t-90.5 5t-75.5 9t-65.5 12.5q-30 -78 -60 -162l-160 57l56 148q-29 13 -54 27.5t-47 32.5q-33 -30 -72 -51t-81.5 -34.5t-87 -19.5t-88.5 -6zM936 160 q233 0 359.5 55.5t149.5 173.5q-3 66 -23 119t-54.5 90.5t-82.5 57.5t-108 20q-50 0 -100.5 -15.5t-99 -44.5t-94 -72t-84.5 -97q-78 -107 -149 -267q72 -12 140.5 -16t145.5 -4z"/>
<glyph arabic-form="medial" glyph-name="SadMed" horiz-adv-x="1751" unicode="ص" d="M936 160q233 0 359 55.5t149 173.5q-3 66 -23 119t-54.5 90.5t-82 57.5t-107.5 20q-50 0 -100.5 -15.5t-99 -44.5t-94 -72t-84.5 -97q-78 -107 -149 -267q72 -12 140.5 -16t145.5 -4zM0 0q-21 0 -42 4.5t-38 15.5v140q16 9 37.5 14.5t42.5 5.5q69 0 126.5 10.5t99.5 36.5 q-35 50 -57.5 105t-39.5 130l171 52q14 -60 32.5 -105.5t45.5 -87.5q23 -35 50.5 -62t67.5 -44q37 88 78.5 168.5t89.5 146.5q60 82 120 141.5t123.5 98.5t134 57.5t151.5 18.5q97 0 174.5 -36t131 -94.5t82 -133t28.5 -150.5q0 -138 -81 -240q60 -8 115.5 -10t107.5 -2 v-180q-94 0 -190.5 18t-178.5 55q-85 -45 -196 -69t-250 -24q-61 0 -110.5 1.5t-90.5 5t-75.5 9t-65.5 12.5q-30 -78 -60 -162l-160 57l56 148q-29 13 -54 27.5t-47 32.5q-33 -30 -72 -51t-81.5 -34.5t-87 -19.5t-88.5 -6z"/>
<glyph arabic-form="isolated" glyph-name="DadSep" horiz-adv-x="2424" unicode="ض" d="M1647 160q226 0 352.5 55.5t149.5 173.5q-3 66 -23 119t-54.5 90.5t-82.5 57.5t-108 20q-100 0 -199 -60t-178 -169q-38 -54 -76.5 -120.5t-72.5 -144.5q70 -14 141.5 -18t150.5 -4zM1201 217q36 85 79 166.5t90 145.5q58 80 117.5 139.5t123.5 99t135 59t152 19.5 q97 0 174.5 -36.5t131 -95t82 -133t28.5 -149.5q0 -101 -46 -184.5t-132.5 -143t-210 -92t-278.5 -32.5q-158 0 -288.5 26.5t-221.5 75.5q-6 -121 -47 -216.5t-112.5 -162t-170 -101.5t-219.5 -35q-104 0 -193 30.5t-154 89t-102 144.5t-37 196q0 31 2 64t7.5 68.5t15.5 75 t26 84.5l151 -28q-13 -38 -21 -69t-12 -58t-5 -52t-1 -51q0 -62 19.5 -119t60 -100.5t102.5 -69t147 -25.5q99 0 171.5 28.5t120 76t70.5 110t23 130.5q0 45 -9.5 104t-24.5 121.5t-33.5 122.5t-37.5 106l186 43q9 -30 18.5 -68.5t18.5 -82.5t16.5 -91t12.5 -93 q17 -12 37 -21t38 -16zM1892 1186q0 -19 -10 -40t-26.5 -39t-38 -29.5t-43.5 -11.5q-21 0 -43.5 12t-40.5 30t-29.5 39t-11.5 39q0 19 11.5 39.5t29.5 38t39 28.5t40 11q20 0 42 -11t40 -28.5t29.5 -38t11.5 -39.5z"/>
<glyph arabic-form="final" glyph-name="DadFin" horiz-adv-x="2456" unicode="ض" d="M1647 160q226 0 352.5 55.5t149.5 173.5q-3 66 -23 119t-54.5 90.5t-82.5 57.5t-108 20q-100 0 -199 -60t-178 -169q-38 -54 -76.5 -120.5t-72.5 -144.5q70 -14 141.5 -18t150.5 -4zM2456 0q-94 0 -190.5 18t-179.5 56q-84 -46 -194 -70t-245 -24q-158 0 -288.5 26.5 t-221.5 75.5q-6 -121 -47 -216.5t-112.5 -162t-170 -101.5t-219.5 -35q-104 0 -193 30.5t-154 89t-102 144.5t-37 196q0 31 2 64t7.5 68.5t15.5 75t26 84.5l151 -28q-13 -38 -21 -69t-12 -58t-5 -52t-1 -51q0 -62 19.5 -119t60 -100.5t102.5 -69t147 -25.5q99 0 171.5 28.5 t120 76t70.5 110t23 130.5q0 45 -9.5 104t-24.5 121.5t-33.5 122.5t-37.5 106l186 43q9 -30 18.5 -68.5t18.5 -82.5t16.5 -91t12.5 -93q17 -12 37 -21t38 -16q36 85 79 166.5t90 145.5q58 80 117.5 139.5t123.5 99t135 59t152 19.5q97 0 174.5 -36t131 -94.5t82 -133 t28.5 -150.5q0 -69 -21 -129t-61 -111q60 -8 116 -10t108 -2v-180zM1902 1187q0 -19 -10 -40t-26.5 -39t-38 -29.5t-43.5 -11.5q-21 0 -43.5 12t-40.5 30t-29.5 39t-11.5 39q0 19 11.5 39.5t29.5 38t39 28.5t40 11q20 0 42 -11t40 -28.5t29.5 -38t11.5 -39.5z"/>
<glyph arabic-form="initial" glyph-name="DadIni" horiz-adv-x="1723" unicode="ض" d="M0 0q-21 0 -42 4.5t-38 15.5v140q16 9 37.5 14.5t42.5 5.5q69 0 126.5 10.5t99.5 36.5q-35 50 -57.5 105t-39.5 130l171 52q14 -60 32.5 -105.5t45.5 -87.5q23 -35 50.5 -62t67.5 -44q37 88 78.5 168.5t89.5 146.5q60 82 120 141.5t123.5 98.5t134 57.5t151.5 18.5 q97 0 174.5 -37t131 -96t82 -133t28.5 -148q0 -101 -42 -184.5t-126 -143t-210.5 -92t-294.5 -32.5q-61 0 -110.5 1.5t-90.5 5t-75.5 9t-65.5 12.5q-30 -78 -60 -162l-160 57l56 148q-29 13 -54 27.5t-47 32.5q-33 -30 -72 -51t-81.5 -34.5t-87 -19.5t-88.5 -6zM936 160 q233 0 359.5 55.5t149.5 173.5q-3 66 -23 119t-54.5 90.5t-82.5 57.5t-108 20q-50 0 -100.5 -15.5t-99 -44.5t-94 -72t-84.5 -97q-78 -107 -149 -267q72 -12 140.5 -16t145.5 -4zM1191 1186q0 -19 -10 -40t-26.5 -39t-38 -29.5t-43.5 -11.5q-21 0 -43.5 12t-40.5 30 t-29.5 39t-11.5 39q0 19 11.5 39.5t29.5 38t39 28.5t40 11q20 0 42 -11t40 -28.5t29.5 -38t11.5 -39.5z"/>
<glyph arabic-form="medial" glyph-name="DadMed" horiz-adv-x="1751" unicode="ض" d="M936 160q233 0 359 55.5t149 173.5q-3 66 -23 119t-54.5 90.5t-82 57.5t-107.5 20q-50 0 -100.5 -15.5t-99 -44.5t-94 -72t-84.5 -97q-78 -107 -149 -267q72 -12 140.5 -16t145.5 -4zM0 0q-21 0 -42 4.5t-38 15.5v140q16 9 37.5 14.5t42.5 5.5q69 0 126.5 10.5t99.5 36.5 q-35 50 -57.5 105t-39.5 130l171 52q14 -60 32.5 -105.5t45.5 -87.5q23 -35 50.5 -62t67.5 -44q37 88 78.5 168.5t89.5 146.5q60 82 120 141.5t123.5 98.5t134 57.5t151.5 18.5q97 0 174.5 -36t131 -94.5t82 -133t28.5 -150.5q0 -138 -81 -240q60 -8 115.5 -10t107.5 -2 v-180q-94 0 -190.5 18t-178.5 55q-85 -45 -196 -69t-250 -24q-61 0 -110.5 1.5t-90.5 5t-75.5 9t-65.5 12.5q-30 -78 -60 -162l-160 57l56 148q-29 13 -54 27.5t-47 32.5q-33 -30 -72 -51t-81.5 -34.5t-87 -19.5t-88.5 -6zM1191 1186q0 -19 -10 -40t-26.5 -39t-38 -29.5 t-43.5 -11.5q-21 0 -43.5 12t-40.5 30t-29.5 39t-11.5 39q0 19 11.5 39.5t29.5 38t39 28.5t40 11q20 0 42 -11t40 -28.5t29.5 -38t11.5 -39.5z"/>
<glyph arabic-form="isolated" glyph-name="TahSep" horiz-adv-x="1672" unicode="ط" d="M807 180q150 0 256 14t175.5 42.5t106 71.5t48.5 101q-3 66 -23 119t-54 90.5t-81.5 57.5t-105.5 20q-100 0 -193.5 -53t-184.5 -173q-45 -58 -85 -131.5t-76 -158.5h217zM70 188q45 -2 96.5 -3.5t100 -2.5t89.5 -1.5t64 -0.5q13 31 25.5 61t26.5 60q3 35 5 89t3 110.5 t1.5 107.5t0.5 81v88q0 144 -5.5 319.5t-31.5 384.5l193 18q4 -38 7 -91t5.5 -112t4.5 -120t3 -114.5t1.5 -95.5t0.5 -63q0 -48 -0.5 -89t-3 -79.5t-6.5 -76.5t-11 -81l10 -3q57 77 112.5 132t114.5 90.5t124 52.5t142 17q94 0 170.5 -35.5t131 -93.5t84.5 -132.5t30 -152.5 q0 -102 -42 -185.5t-130.5 -142.5t-226 -91.5t-328.5 -32.5h-303q-11 -32 -22.5 -65.5t-22.5 -68.5l-160 57l29 77h-274z"/>
<glyph arabic-form="final" glyph-name="TahFin" horiz-adv-x="1699" unicode="ط" d="M807 180q150 0 256 14t175.5 42.5t106 71.5t48.5 101q-3 66 -23 119t-54 90.5t-81.5 57.5t-105.5 20q-100 0 -193.5 -53t-184.5 -173q-45 -58 -85 -131.5t-76 -158.5h217zM70 188q45 -2 96.5 -3.5t100 -2.5t89.5 -1.5t64 -0.5q13 31 25.5 61t26.5 60q3 35 5 89t3 110.5 t1.5 107.5t0.5 81v88q0 144 -5.5 319.5t-31.5 384.5l193 18q4 -38 7 -91t5.5 -112t4.5 -120t3 -114.5t1.5 -95.5t0.5 -63q0 -48 -0.5 -89t-3 -79.5t-6.5 -76.5t-11 -81l10 -3q57 77 112.5 132t114.5 90.5t124 52.5t142 17q94 0 170.5 -35.5t131 -93.5t84.5 -132.5t30 -152.5 q0 -154 -93 -259q62 -9 121 -11t113 -2v-180q-50 0 -102 3t-102.5 12t-98 25t-87.5 42q-87 -40 -205 -61t-273 -21h-303q-11 -32 -22.5 -65.5t-22.5 -68.5l-160 57l29 77h-274z"/>
<glyph arabic-form="initial" glyph-name="TahIni" horiz-adv-x="1437" unicode="ط" d="M0 0q-21 0 -42 4.5t-38 15.5v140q16 9 37.5 14.5t42.5 5.5h185q13 31 25.5 61t26.5 60q3 35 5 89t3 110.5t1.5 107.5t0.5 81v88q0 144 -5.5 319.5t-31.5 384.5l193 18q4 -38 7 -91t5.5 -112t4.5 -120t3 -114.5t1.5 -95.5t0.5 -63q0 -48 -0.5 -89t-3 -79.5t-6.5 -76.5 t-11 -81l10 -3q57 77 112.5 132t114.5 90.5t124 52.5t142 17q94 0 170.5 -35.5t131 -93.5t84.5 -132.5t30 -152.5q0 -102 -42 -185.5t-130.5 -142.5t-226 -91.5t-328.5 -32.5h-303q-11 -32 -22.5 -65.5t-22.5 -68.5l-160 57l29 77h-117zM572 180q150 0 256 14t175.5 42.5 t106 71.5t48.5 101q-3 66 -23 119t-54 90.5t-81.5 57.5t-105.5 20q-100 0 -193.5 -53t-184.5 -173q-45 -58 -85 -131.5t-76 -158.5h217z"/>
<glyph arabic-form="medial" glyph-name="TahMed" horiz-adv-x="1464" unicode="ط" d="M572 180q150 0 256 14t175.5 42.5t106 71.5t48.5 101q-3 66 -23 119t-54 90.5t-81.5 57.5t-105.5 20q-100 0 -193.5 -53t-184.5 -173q-45 -58 -85 -131.5t-76 -158.5h217zM0 0q-21 0 -42 4.5t-38 15.5v140q16 9 37.5 14.5t42.5 5.5h185q13 31 25.5 61t26.5 60q3 35 5 89 t3 110.5t1.5 107.5t0.5 81v88q0 144 -5.5 319.5t-31.5 384.5l193 18q4 -38 7 -91t5.5 -112t4.5 -120t3 -114.5t1.5 -95.5t0.5 -63q0 -48 -0.5 -89t-3 -79.5t-6.5 -76.5t-11 -81l10 -3q57 77 112.5 132t114.5 90.5t124 52.5t142 17q94 0 170.5 -35.5t131 -93.5t84.5 -132.5 t30 -152.5q0 -154 -93 -259q62 -9 121 -11t113 -2v-180q-50 0 -102 3t-102.5 12t-98 25t-87.5 42q-87 -40 -205 -61t-273 -21h-303q-11 -32 -22.5 -65.5t-22.5 -68.5l-160 57l29 77h-117z"/>
<glyph arabic-form="isolated" glyph-name="ZahSep" horiz-adv-x="1672" unicode="ظ" d="M807 180q150 0 256 14t175.5 42.5t106 71.5t48.5 101q-3 66 -23 119t-54 90.5t-81.5 57.5t-105.5 20q-100 0 -193.5 -53t-184.5 -173q-45 -58 -85 -131.5t-76 -158.5h217zM70 188q45 -2 96.5 -3.5t100 -2.5t89.5 -1.5t64 -0.5q13 31 25.5 61t26.5 60q3 35 5 89t3 110.5 t1.5 107.5t0.5 81v88q0 144 -5.5 319.5t-31.5 384.5l193 18q4 -38 7 -91t5.5 -112t4.5 -120t3 -114.5t1.5 -95.5t0.5 -63q0 -48 -0.5 -89t-3 -79.5t-6.5 -76.5t-11 -81l10 -3q57 77 112.5 132t114.5 90.5t124 52.5t142 17q94 0 170.5 -35.5t131 -93.5t84.5 -132.5t30 -152.5 q0 -102 -42 -185.5t-130.5 -142.5t-226 -91.5t-328.5 -32.5h-303q-11 -32 -22.5 -65.5t-22.5 -68.5l-160 57l29 77h-274zM1211 1212q0 -19 -10 -40t-26.5 -39t-38 -29.5t-43.5 -11.5q-21 0 -43.5 12t-40.5 30t-29.5 39t-11.5 39q0 19 11.5 39.5t29.5 38t39 28.5t40 11 q20 0 42 -11t40 -28.5t29.5 -38t11.5 -39.5z"/>
<glyph arabic-form="final" glyph-name="ZahFin" horiz-adv-x="1699" unicode="ظ" d="M807 180q150 0 256 14t175.5 42.5t106 71.5t48.5 101q-3 66 -23 119t-54 90.5t-81.5 57.5t-105.5 20q-100 0 -193.5 -53t-184.5 -173q-45 -58 -85 -131.5t-76 -158.5h217zM70 188q45 -2 96.5 -3.5t100 -2.5t89.5 -1.5t64 -0.5q13 31 25.5 61t26.5 60q3 35 5 89t3 110.5 t1.5 107.5t0.5 81v88q0 144 -5.5 319.5t-31.5 384.5l193 18q4 -38 7 -91t5.5 -112t4.5 -120t3 -114.5t1.5 -95.5t0.5 -63q0 -48 -0.5 -89t-3 -79.5t-6.5 -76.5t-11 -81l10 -3q57 77 112.5 132t114.5 90.5t124 52.5t142 17q94 0 170.5 -35.5t131 -93.5t84.5 -132.5t30 -152.5 q0 -154 -93 -259q62 -9 121 -11t113 -2v-180q-50 0 -102 3t-102.5 12t-98 25t-87.5 42q-87 -40 -205 -61t-273 -21h-303q-11 -32 -22.5 -65.5t-22.5 -68.5l-160 57l29 77h-274zM1211 1212q0 -19 -10 -40t-26.5 -39t-38 -29.5t-43.5 -11.5q-21 0 -43.5 12t-40.5 30t-29.5 39 t-11.5 39q0 19 11.5 39.5t29.5 38t39 28.5t40 11q20 0 42 -11t40 -28.5t29.5 -38t11.5 -39.5z"/>
<glyph arabic-form="initial" glyph-name="ZahIni" horiz-adv-x="1437" unicode="ظ" d="M0 0q-21 0 -42 4.5t-38 15.5v140q16 9 37.5 14.5t42.5 5.5h185q13 31 25.5 61t26.5 60q3 35 5 89t3 110.5t1.5 107.5t0.5 81v88q0 144 -5.5 319.5t-31.5 384.5l193 18q4 -38 7 -91t5.5 -112t4.5 -120t3 -114.5t1.5 -95.5t0.5 -63q0 -48 -0.5 -89t-3 -79.5t-6.5 -76.5 t-11 -81l10 -3q57 77 112.5 132t114.5 90.5t124 52.5t142 17q94 0 170.5 -35.5t131 -93.5t84.5 -132.5t30 -152.5q0 -102 -42 -185.5t-130.5 -142.5t-226 -91.5t-328.5 -32.5h-303q-11 -32 -22.5 -65.5t-22.5 -68.5l-160 57l29 77h-117zM572 180q150 0 256 14t175.5 42.5 t106 71.5t48.5 101q-3 66 -23 119t-54 90.5t-81.5 57.5t-105.5 20q-100 0 -193.5 -53t-184.5 -173q-45 -58 -85 -131.5t-76 -158.5h217zM975 1212q0 -19 -10 -40t-26.5 -39t-38 -29.5t-43.5 -11.5q-21 0 -43.5 12t-40.5 30t-29.5 39t-11.5 39q0 19 11.5 39.5t29.5 38 t39 28.5t40 11q20 0 42 -11t40 -28.5t29.5 -38t11.5 -39.5z"/>
<glyph arabic-form="medial" glyph-name="ZahMed" horiz-adv-x="1464" unicode="ظ" d="M572 180q150 0 256 14t175.5 42.5t106 71.5t48.5 101q-3 66 -23 119t-54 90.5t-81.5 57.5t-105.5 20q-100 0 -193.5 -53t-184.5 -173q-45 -58 -85 -131.5t-76 -158.5h217zM0 0q-21 0 -42 4.5t-38 15.5v140q16 9 37.5 14.5t42.5 5.5h185q13 31 25.5 61t26.5 60q3 35 5 89 t3 110.5t1.5 107.5t0.5 81v88q0 144 -5.5 319.5t-31.5 384.5l193 18q4 -38 7 -91t5.5 -112t4.5 -120t3 -114.5t1.5 -95.5t0.5 -63q0 -48 -0.5 -89t-3 -79.5t-6.5 -76.5t-11 -81l10 -3q57 77 112.5 132t114.5 90.5t124 52.5t142 17q94 0 170.5 -35.5t131 -93.5t84.5 -132.5 t30 -152.5q0 -154 -93 -259q62 -9 121 -11t113 -2v-180q-50 0 -102 3t-102.5 12t-98 25t-87.5 42q-87 -40 -205 -61t-273 -21h-303q-11 -32 -22.5 -65.5t-22.5 -68.5l-160 57l29 77h-117zM974 1210q0 -19 -10 -40t-26.5 -39t-38 -29.5t-43.5 -11.5q-21 0 -43.5 12t-40.5 30 t-29.5 39t-11.5 39q0 19 11.5 39.5t29.5 38t39 28.5t40 11q20 0 42 -11t40 -28.5t29.5 -38t11.5 -39.5z"/>
<glyph arabic-form="isolated" glyph-name="AinSep" horiz-adv-x="1136" unicode="ع" d="M992 307q-170 -34 -311 -69.5t-242 -83.5t-157 -114t-56 -160q0 -74 30.5 -128.5t87.5 -90.5t138 -53.5t182 -17.5q39 0 86 3.5t116 14.5q52 11 113 23.5t113 31.5l54 -167q-49 -20 -115.5 -36.5t-138 -28.5t-143 -18.5t-130.5 -6.5q-120 0 -223.5 26.5t-180.5 81 t-121 139t-44 201.5q0 91 27.5 162t73.5 125t105 93.5t122 67.5q-102 60 -160 146t-58 203q0 100 36.5 181.5t100 139.5t148.5 89t183 31q31 0 66 -3.5t70.5 -10t69.5 -15.5t64 -20l-26 -146q-55 12 -115 21t-112 9q-63 0 -118 -15.5t-97 -46.5t-69 -77.5t-35 -109.5 q0 -54 20.5 -101t58 -83t89.5 -60t115 -33l182 41l174 46z"/>
<glyph arabic-form="final" glyph-name="AinFin" horiz-adv-x="1171" unicode="ع" d="M848 573q0 40 -21 73t-56 56.5t-80 36t-93 12.5q-28 0 -62.5 -5t-72.5 -18.5t-78 -37t-79 -61.5q35 -29 72 -68t76 -82t81 -86.5t88 -80.5q63 27 106.5 59t69.5 66.5t37.5 69t11.5 66.5zM162 536l-41 114q48 69 110 119t127 83t127.5 48.5t111.5 15.5q43 0 91 -8.5 t94 -26t88 -45t74 -65.5t50.5 -86.5t18.5 -108.5t-17 -109t-48.5 -91t-77.5 -78.5t-103 -71.5q69 -25 172.5 -35.5t231.5 -10.5v-180q-118 0 -208 6.5t-161 22.5t-128 42t-108 64q-74 -25 -134.5 -53t-104 -63.5t-67.5 -80.5t-24 -103q0 -66 28.5 -113t80.5 -76t124 -42.5 t158 -13.5q39 0 94.5 3.5t124.5 14.5q52 11 113 23t113 31l54 -166q-49 -20 -118 -36.5t-144 -28.5t-149 -18.5t-133 -6.5q-100 0 -194 22.5t-167 71t-117 124t-44 180.5q0 94 31.5 163.5t84.5 121t122.5 90.5t144.5 74q-36 37 -69 76t-65.5 77t-66 73.5t-69.5 64.5z"/>
<glyph arabic-form="initial" glyph-name="AinIni" horiz-adv-x="1095" unicode="ع" d="M0 0q-21 0 -42 4.5t-38 15.5v140q16 9 37.5 14.5t42.5 5.5q69 0 142 2t151 10q-44 30 -73 67t-46.5 78.5t-25 86.5t-7.5 91q0 101 36 182.5t99 138.5t148 88t183 31q28 0 63 -3.5t71 -10t71 -15.5t65 -20l-26 -146q-55 12 -115 20.5t-112 8.5q-65 0 -121.5 -17t-99 -50 t-68 -81.5t-29.5 -111.5q0 -55 23.5 -107t63.5 -93.5t94 -69t116 -33.5q101 7 185.5 26.5t162.5 34.5l14 -159l-176 -36q-80 -20 -178 -36.5t-202 -28.5t-209 -19t-200 -8z"/>
<glyph arabic-form="medial" glyph-name="AinMed" horiz-adv-x="1138" unicode="ع" d="M816 540q0 40 -18 74.5t-51 59.5t-79 39t-101 14q-28 0 -64 -7t-74.5 -22t-76 -38.5t-68.5 -56.5q46 -39 86 -80.5t78 -82.5t76 -80.5t82 -75.5q63 29 104 61.5t64.5 66t32.5 66t9 62.5zM1 180q135 0 238.5 14t178.5 34q-33 36 -62.5 72.5t-60.5 73t-66 73.5t-78 73 l-11 -7l-38 117q47 67 108 116t125.5 81.5t128 48.5t114.5 16q43 0 90 -8t92 -25.5t85 -44t70 -64t48 -86t18 -108.5q0 -47 -11.5 -93.5t-37 -91t-66 -85.5t-99.5 -77q32 -9 69 -14.5t82 -9t99.5 -4.5t121.5 -1v-180q-118 0 -206.5 6t-160.5 20q-63 11 -112.5 29t-97.5 47 q-104 -43 -242 -72.5t-319 -29.5q-21 0 -41 4.5t-37 15.5v140q16 9 36.5 14.5t41.5 5.5z"/>
<glyph arabic-form="isolated" glyph-name="GhainSep" horiz-adv-x="1136" unicode="غ" d="M992 307q-170 -34 -311 -69.5t-242 -83.5t-157 -114t-56 -160q0 -74 30.5 -128.5t87.5 -90.5t138 -53.5t182 -17.5q39 0 86 3.5t116 14.5q52 11 113 23.5t113 31.5l54 -167q-49 -20 -115.5 -36.5t-138 -28.5t-143 -18.5t-130.5 -6.5q-120 0 -223.5 26.5t-180.5 81 t-121 139t-44 201.5q0 91 27.5 162t73.5 125t105 93.5t122 67.5q-102 60 -160 146t-58 203q0 100 36.5 181.5t100 139.5t148.5 89t183 31q31 0 66 -3.5t70.5 -10t69.5 -15.5t64 -20l-26 -146q-55 12 -115 21t-112 9q-63 0 -118 -15.5t-97 -46.5t-69 -77.5t-35 -109.5 q0 -54 20.5 -101t58 -83t89.5 -60t115 -33l182 41l174 46zM681 1423q0 -19 -10 -40t-26.5 -39t-38 -29.5t-43.5 -11.5q-21 0 -43.5 12t-40.5 30t-29.5 39t-11.5 39q0 19 11.5 39.5t29.5 38t39 28.5t40 11q20 0 42 -11t40 -28.5t29.5 -38t11.5 -39.5z"/>
<glyph arabic-form="final" glyph-name="GhainFin" horiz-adv-x="1171" unicode="غ" d="M848 573q0 40 -21 73t-56 56.5t-80 36t-93 12.5q-28 0 -62.5 -5t-72.5 -18.5t-78 -37t-79 -61.5q35 -29 72 -68t76 -82t81 -86.5t88 -80.5q63 27 106.5 59t69.5 66.5t37.5 69t11.5 66.5zM162 536l-41 114q48 69 110 119t127 83t127.5 48.5t111.5 15.5q43 0 91 -8.5 t94 -26t88 -45t74 -65.5t50.5 -86.5t18.5 -108.5t-17 -109t-48.5 -91t-77.5 -78.5t-103 -71.5q69 -25 172.5 -35.5t231.5 -10.5v-180q-118 0 -208 6.5t-161 22.5t-128 42t-108 64q-74 -25 -134.5 -53t-104 -63.5t-67.5 -80.5t-24 -103q0 -66 28.5 -113t80.5 -76t124 -42.5 t158 -13.5q39 0 94.5 3.5t124.5 14.5q52 11 113 23t113 31l54 -166q-49 -20 -118 -36.5t-144 -28.5t-149 -18.5t-133 -6.5q-100 0 -194 22.5t-167 71t-117 124t-44 180.5q0 94 31.5 163.5t84.5 121t122.5 90.5t144.5 74q-36 37 -69 76t-65.5 77t-66 73.5t-69.5 64.5z M717 1249q0 -19 -10 -40t-26.5 -39t-38 -29.5t-43.5 -11.5q-21 0 -43.5 12t-40.5 30t-29.5 39t-11.5 39q0 19 11.5 39.5t29.5 38t39 28.5t40 11q20 0 42 -11t40 -28.5t29.5 -38t11.5 -39.5z"/>
<glyph arabic-form="initial" glyph-name="GhainIni" horiz-adv-x="1095" unicode="غ" d="M0 0q-21 0 -42 4.5t-38 15.5v140q16 9 37.5 14.5t42.5 5.5q69 0 142 2t151 10q-44 30 -73 67t-46.5 78.5t-25 86.5t-7.5 91q0 101 36 182.5t99 138.5t148 88t183 31q28 0 63 -3.5t71 -10t71 -15.5t65 -20l-26 -146q-55 12 -115 20.5t-112 8.5q-65 0 -121.5 -17t-99 -50 t-68 -81.5t-29.5 -111.5q0 -55 23.5 -107t63.5 -93.5t94 -69t116 -33.5q101 7 185.5 26.5t162.5 34.5l14 -159l-176 -36q-80 -20 -178 -36.5t-202 -28.5t-209 -19t-200 -8zM660 1288q0 -19 -10 -40t-26.5 -39t-38 -29.5t-43.5 -11.5q-21 0 -43.5 12t-40.5 30t-29.5 39 t-11.5 39q0 19 11.5 39.5t29.5 38t39 28.5t40 11q20 0 42 -11t40 -28.5t29.5 -38t11.5 -39.5z"/>
<glyph arabic-form="medial" glyph-name="GhainMed" horiz-adv-x="1138" unicode="غ" d="M816 540q0 40 -18 74.5t-51 59.5t-79 39t-101 14q-28 0 -64 -7t-74.5 -22t-76 -38.5t-68.5 -56.5q46 -39 86 -80.5t78 -82.5t76 -80.5t82 -75.5q63 29 104 61.5t64.5 66t32.5 66t9 62.5zM1 180q135 0 238.5 14t178.5 34q-33 36 -62.5 72.5t-60.5 73t-66 73.5t-78 73 l-11 -7l-38 117q47 67 108 116t125.5 81.5t128 48.5t114.5 16q43 0 90 -8t92 -25.5t85 -44t70 -64t48 -86t18 -108.5q0 -47 -11.5 -93.5t-37 -91t-66 -85.5t-99.5 -77q32 -9 69 -14.5t82 -9t99.5 -4.5t121.5 -1v-180q-118 0 -206.5 6t-160.5 20q-63 11 -112.5 29t-97.5 47 q-104 -43 -242 -72.5t-319 -29.5q-21 0 -41 4.5t-37 15.5v140q16 9 36.5 14.5t41.5 5.5zM686 1225q0 -19 -10 -40t-26.5 -39t-38 -29.5t-43.5 -11.5q-21 0 -43.5 12t-40.5 30t-29.5 39t-11.5 39q0 19 11.5 39.5t29.5 38t39 28.5t40 11q20 0 42 -11t40 -28.5t29.5 -38 t11.5 -39.5z"/>
<glyph arabic-form="isolated" glyph-name="FehSep" horiz-adv-x="2057" unicode="ف" d="M1501 905q-37 0 -76 -17t-71.5 -48.5t-53.5 -76t-21 -98.5q0 -57 20.5 -93.5t55.5 -57.5t82 -28.5t100 -7.5q19 0 44 2t52 6t54.5 11t51.5 17q-2 39 -6 83.5t-13 88t-24.5 83t-41.5 70t-63.5 48.5t-89.5 18zM1489 315q-74 0 -142.5 20t-121 61t-84.5 104t-32 149 q0 73 31 147.5t85.5 134t129.5 97t164 37.5q83 0 144.5 -27.5t105 -73t71.5 -104.5t44 -123.5t22 -129t6 -120.5q0 -36 -3 -78t-9.5 -85t-16.5 -83.5t-24 -73.5q-37 -53 -118.5 -91t-195 -62t-252.5 -35.5t-291 -11.5q-107 0 -215 6.5t-207 26.5t-185 56t-149 95t-99.5 144 t-36.5 202q0 39 2.5 72.5t7.5 67t12.5 69.5t17.5 79l173 -19q-15 -72 -24.5 -129.5t-9.5 -90.5q0 -116 47 -192.5t137.5 -122.5t223.5 -65t305 -19q292 0 466 22.5t228 60.5q20 28 29.5 68.5t12.5 76.5q-23 -13 -52.5 -24t-62 -19t-67 -12.5t-67.5 -4.5zM1595 1396 q0 -19 -10 -40t-26.5 -39t-38 -29.5t-43.5 -11.5q-21 0 -43.5 12t-40.5 30t-29.5 39t-11.5 39q0 19 11.5 39.5t29.5 38t39 28.5t40 11q20 0 42 -11t40 -28.5t29.5 -38t11.5 -39.5z"/>
<glyph arabic-form="final" glyph-name="FehFin" horiz-adv-x="2106" unicode="ف" d="M1744 487q0 70 -17.5 124t-47.5 91t-71 55.5t-88 18.5q-44 0 -85.5 -19t-73.5 -51.5t-52 -76.5t-20 -94q0 -102 91 -169.5t278 -118.5q52 54 69 115t17 125zM2106 0q-46 0 -97 5t-103.5 14.5t-104.5 22t-99 27.5q-72 -29 -167 -53t-200.5 -41.5t-216.5 -27.5t-216 -10 q-85 0 -176.5 6.5t-179.5 26.5t-167.5 56t-139 95t-94.5 144t-35 202q0 39 2.5 72.5t7.5 67t12.5 69.5t17.5 79l173 -19q-15 -72 -24.5 -129.5t-9.5 -90.5q0 -116 42.5 -192.5t122 -122.5t193 -65t255.5 -19q78 0 155 3t148.5 8.5t137 13.5t121.5 18q-69 21 -131.5 52 t-110 76t-75.5 105t-28 140q0 71 31.5 142t87 128t130.5 92.5t162 35.5q95 0 167.5 -33.5t122 -92t74.5 -136.5t25 -167t-17.5 -158t-56.5 -133q78 -16 147 -23.5t114 -7.5v-180zM1630 1272q0 -19 -10 -40t-26.5 -39t-38 -29.5t-43.5 -11.5q-21 0 -43.5 12t-40.5 30 t-29.5 39t-11.5 39q0 19 11.5 39.5t29.5 38t39 28.5t40 11q20 0 42 -11t40 -28.5t29.5 -38t11.5 -39.5z"/>
<glyph arabic-form="initial" glyph-name="FehIni" horiz-adv-x="1085" unicode="ف" d="M529 907q-37 0 -76 -17t-71.5 -48.5t-53.5 -76t-21 -98.5q0 -57 20.5 -93.5t55.5 -57.5t82 -28.5t100 -7.5q19 0 44 1.5t52 5.5t54.5 10.5t51.5 16.5q-2 40 -6 84.5t-13 88.5t-24.5 83.5t-41.5 70t-63.5 48.5t-89.5 18zM90 180q138 0 244 3t183 9.5t127.5 17t79.5 26.5 q17 23 26.5 56t14.5 82q-23 -12 -52.5 -22.5t-62 -18t-66.5 -12t-67 -4.5q-74 0 -142.5 20t-121 61t-84.5 104t-32 149q0 73 31 147.5t85.5 134t129.5 97t164 37.5q83 0 144.5 -27.5t105 -73t71.5 -105.5t44 -124.5t22 -129t6 -120.5q0 -36 -3 -78t-9.5 -84.5t-16.5 -83.5 t-24 -74q-37 -53 -111.5 -86t-179 -51t-233 -24t-273.5 -6h-90q-42 0 -75 19v142q33 19 75 19h90zM633 1407q0 -19 -10 -40t-26.5 -39t-38 -29.5t-43.5 -11.5q-21 0 -43.5 12t-40.5 30t-29.5 39t-11.5 39q0 19 11.5 39.5t29.5 38t39 28.5t40 11q20 0 42 -11t40 -28.5 t29.5 -38t11.5 -39.5z"/>
<glyph arabic-form="medial" glyph-name="FehMed" horiz-adv-x="1128" unicode="ف" d="M771 487q0 69 -18 122t-49.5 89t-73 54.5t-88.5 18.5q-41 0 -82 -16.5t-74 -46.5t-54 -71.5t-21 -91.5q0 -101 85 -178t273 -128q27 22 46 51.5t31.5 62.5t18.5 67t6 67zM0 180q144 0 240 3t158 8q-54 23 -101 56t-81.5 76.5t-54.5 98t-20 120.5q0 71 32 140t88 123 t130.5 87.5t160.5 33.5q95 0 167.5 -37t122 -97t74.5 -136t25 -154q0 -47 -5.5 -85t-18.5 -72.5t-33.5 -68t-50.5 -72.5q39 -8 81.5 -12.5t82.5 -7t74 -3.5t57 -1v-180q-49 0 -109 6t-123 17.5t-126.5 27t-118.5 34.5q-44 -16 -98 -31t-129.5 -27t-179 -19.5t-244.5 -7.5 q-42 0 -75 19v142q33 19 75 19zM641 1275q0 -19 -10 -40t-26.5 -39t-38 -29.5t-43.5 -11.5q-21 0 -43.5 12t-40.5 30t-29.5 39t-11.5 39q0 19 11.5 39.5t29.5 38t39 28.5t40 11q20 0 42 -11t40 -28.5t29.5 -38t11.5 -39.5z"/>
<glyph arabic-form="isolated" glyph-name="QafSep" horiz-adv-x="1523" unicode="ق" d="M1217 237q0 72 -15.5 150t-51.5 141q-27 46 -67.5 66.5t-100.5 20.5q-42 0 -82 -22.5t-70.5 -59.5t-49.5 -83t-19 -94q0 -55 20.5 -91t56 -57t82 -29.5t98.5 -8.5q49 0 97.5 4.5t99.5 16.5q1 11 1.5 22.5t0.5 23.5zM1215 56q-52 -24 -116 -40t-136 -16q-43 0 -86 6.5 t-83 21.5t-75.5 39.5t-63.5 60.5q-16 20 -28 41.5t-20 46.5t-12 54.5t-4 66.5q0 49 13 100.5t38 100t61 92t81.5 75.5t99.5 51t116 19q66 0 120.5 -20.5t97 -56t73.5 -82t49 -98.5q24 -69 36 -152.5t12 -168.5q0 -58 -5 -120t-13.5 -121t-21 -111.5t-27.5 -90.5 q-31 -45 -90.5 -84.5t-138.5 -68t-173 -45t-193 -16.5q-142 0 -257.5 35.5t-197.5 104.5t-126.5 171t-44.5 236q0 81 15 162.5t41 162.5l167 -33q-23 -72 -32 -135.5t-9 -123.5q0 -83 19.5 -155.5t73 -127t147 -86t242.5 -31.5q157 0 260.5 32t154.5 80q7 19 13 45.5 t10.5 56t7.5 61t5 61.5zM1213 1114q0 -18 -9.5 -38t-25 -37t-35.5 -28t-41 -11q-20 0 -41 11t-38 28t-28 37t-11 38t11 37.5t27.5 36t36.5 27t38 10.5q19 0 39.5 -10.5t37.5 -27t28 -36t11 -37.5zM944 1104q0 -18 -9.5 -38t-25 -37t-35.5 -28t-41 -11q-20 0 -41 11t-38 28 t-28 37t-11 38t11 37.5t27.5 36t36.5 27t38 10.5q19 0 39.5 -10.5t37.5 -27t28 -36t11 -37.5z"/>
<glyph arabic-form="final" glyph-name="QafFin" horiz-adv-x="1536" unicode="ق" d="M1217 237q0 72 -15.5 150t-51.5 141q-27 46 -67.5 66.5t-100.5 20.5q-42 0 -82 -22.5t-70.5 -59.5t-49.5 -83t-19 -94q0 -55 27 -91t69.5 -57t95.5 -29.5t105 -8.5h157q2 16 2 32.5v34.5zM662 128q-16 20 -29.5 41.5t-23 46.5t-14.5 54.5t-5 66.5q0 49 13.5 100.5 t38.5 100t61 92t81.5 75.5t99.5 51t116 19q66 0 120.5 -20.5t97 -56t73.5 -82t49 -98.5q24 -69 36 -152.5t12 -168.5v-17h148v-180h-161q-8 -78 -21 -135.5t-33 -110.5q-31 -45 -90.5 -84.5t-138.5 -68t-173 -45t-193 -16.5q-142 0 -257.5 35.5t-197.5 104.5t-126.5 171 t-44.5 236q0 81 15 162.5t41 162.5l167 -33q-23 -72 -32 -135.5t-9 -123.5q0 -83 19.5 -155.5t73 -127t147 -86t242.5 -31.5q151 0 257.5 32t157.5 80q11 32 18 77t12 91h-169q-47 0 -101 6.5t-106.5 21.5t-97.5 39.5t-73 60.5zM1213 1114q0 -18 -9.5 -38t-25 -37t-35.5 -28 t-41 -11q-20 0 -41 11t-38 28t-28 37t-11 38t11 37.5t27.5 36t36.5 27t38 10.5q19 0 39.5 -10.5t37.5 -27t28 -36t11 -37.5zM944 1104q0 -18 -9.5 -38t-25 -37t-35.5 -28t-41 -11q-20 0 -41 11t-38 28t-28 37t-11 38t11 37.5t27.5 36t36.5 27t38 10.5q19 0 39.5 -10.5 t37.5 -27t28 -36t11 -37.5z"/>
<glyph arabic-form="initial" glyph-name="QafIni" horiz-adv-x="1085" unicode="ق" d="M529 907q-37 0 -76 -17t-71.5 -48.5t-53.5 -76t-21 -98.5q0 -57 20.5 -93.5t55.5 -57.5t82 -28.5t100 -7.5q19 0 44 1.5t52 5.5t54.5 10.5t51.5 16.5q-2 40 -6 84.5t-13 88.5t-24.5 83.5t-41.5 70t-63.5 48.5t-89.5 18zM90 180q138 0 244 3t183 9.5t127.5 17t79.5 26.5 q17 23 26.5 56t14.5 82q-23 -12 -52.5 -22.5t-62 -18t-66.5 -12t-67 -4.5q-74 0 -142.5 20t-121 61t-84.5 104t-32 149q0 73 31 147.5t85.5 134t129.5 97t164 37.5q83 0 144.5 -27.5t105 -73t71.5 -105.5t44 -124.5t22 -129t6 -120.5q0 -36 -3 -78t-9.5 -84.5t-16.5 -83.5 t-24 -74q-37 -53 -111.5 -86t-179 -51t-233 -24t-273.5 -6h-90q-42 0 -75 19v142q33 19 75 19h90zM746 1400q0 -18 -9.5 -38t-25 -37t-35.5 -28t-41 -11q-20 0 -41 11t-38 28t-28 37t-11 38t11 37.5t27.5 36t36.5 27t38 10.5q19 0 39.5 -10.5t37.5 -27t28 -36t11 -37.5z M477 1390q0 -18 -9.5 -38t-25 -37t-35.5 -28t-41 -11q-20 0 -41 11t-38 28t-28 37t-11 38t11 37.5t27.5 36t36.5 27t38 10.5q19 0 39.5 -10.5t37.5 -27t28 -36t11 -37.5z"/>
<glyph arabic-form="medial" glyph-name="QafMed" horiz-adv-x="1128" unicode="ق" d="M771 487q0 69 -18 122t-49.5 89t-73 54.5t-88.5 18.5q-41 0 -82 -16.5t-74 -46.5t-54 -71.5t-21 -91.5q0 -101 85 -178t273 -128q27 22 46 51.5t31.5 62.5t18.5 67t6 67zM0 180q144 0 240 3t158 8q-54 23 -101 56t-81.5 76.5t-54.5 98t-20 120.5q0 71 32 140t88 123 t130.5 87.5t160.5 33.5q95 0 167.5 -37t122 -97t74.5 -136t25 -154q0 -47 -5.5 -85t-18.5 -72.5t-33.5 -68t-50.5 -72.5q39 -8 81.5 -12.5t82.5 -7t74 -3.5t57 -1v-180q-49 0 -109 6t-123 17.5t-126.5 27t-118.5 34.5q-44 -16 -98 -31t-129.5 -27t-179 -19.5t-244.5 -7.5 q-42 0 -75 19v142q33 19 75 19zM771 1272q0 -18 -9.5 -38t-25 -37t-35.5 -28t-41 -11q-20 0 -41 11t-38 28t-28 37t-11 38t11 37.5t27.5 36t36.5 27t38 10.5q19 0 39.5 -10.5t37.5 -27t28 -36t11 -37.5zM502 1262q0 -18 -9.5 -38t-25 -37t-35.5 -28t-41 -11q-20 0 -41 11 t-38 28t-28 37t-11 38t11 37.5t27.5 36t36.5 27t38 10.5q19 0 39.5 -10.5t37.5 -27t28 -36t11 -37.5z"/>
<glyph arabic-form="isolated" glyph-name="KafSep" horiz-adv-x="1984" unicode="ك" d="M1625 551q0 28 -1 89t-4 142t-7.5 174.5t-11.5 186.5t-17 178t-23 149l192 38q4 -25 7 -52.5t6 -56.5q3 -32 6 -69.5t5 -72.5q12 -180 14.5 -360.5t2.5 -359.5q0 -53 -2 -107.5t-7 -104t-13 -91.5t-20 -70q-39 -42 -113 -78t-180.5 -62.5t-246 -41t-309.5 -14.5 q-205 0 -356 20t-250.5 68t-148 127t-48.5 198q0 32 3.5 72.5t14.5 97.5l169 -19q-8 -44 -10 -69.5t-2 -46.5q0 -78 32.5 -129.5t107 -82t194.5 -43.5t294 -13q121 0 235.5 9t209 25t161 39t90.5 52q3 9 7.5 38t8.5 68.5t7 84.5t3 87zM712 709q22 1 44.5 2t45.5 3 q-29 29 -42 63.5t-13 67.5q0 50 18 91t49.5 70.5t74 45.5t90.5 16q28 0 69.5 -8t75.5 -21l-18 -104q-31 6 -63 11t-55 5q-46 0 -77 -22q-17 -12 -27.5 -33t-10.5 -51q0 -42 21.5 -72.5t64.5 -38.5q46 3 100 10.5t94 16.5l12 -117l-101 -17q-72 -12 -157 -21.5t-182 -10.5z "/>
<glyph arabic-form="final" glyph-name="KafFin" horiz-adv-x="2031" unicode="ك" d="M712 709q22 1 44.5 2t45.5 3q-29 29 -42 63.5t-13 67.5q0 50 18 91t49.5 70.5t74 45.5t90.5 16q28 0 69.5 -8t75.5 -21l-18 -104q-31 6 -63 11t-55 5q-46 0 -77 -22q-17 -12 -27.5 -33t-10.5 -51q0 -42 21.5 -72.5t64.5 -38.5q46 3 100 10.5t94 16.5l12 -117l-101 -17 q-72 -12 -157 -21.5t-182 -10.5zM2031 0q-42 0 -87.5 4t-90.5 18t-89 40.5t-84 71.5q-42 -43 -107.5 -74t-159.5 -51.5t-220 -30.5t-290 -10q-205 0 -356 20t-250.5 68t-148 127t-48.5 198q0 32 3.5 72.5t14.5 97.5l169 -19q-8 -44 -10 -69.5t-2 -46.5q0 -78 32.5 -129.5 t107 -82t194.5 -43.5t294 -13q137 0 254.5 6.5t209 22t152.5 40.5t86 62q2 7 3.5 22t3 34.5t2 41t0.5 42.5v41t-1 53.5t-2 87t-4 141.5q-2 74 -4.5 168.5t-5.5 194.5t-8 197.5t-13 177.5l186 19q5 -52 8.5 -123.5t6.5 -153t4.5 -167.5t3 -166t2.5 -149t2 -117 q2 -109 3.5 -189t1.5 -140v-27q15 -23 42 -39t59.5 -27t68 -16t67.5 -5v-180z"/>
<glyph arabic-form="initial" glyph-name="KafIni" horiz-adv-x="841" unicode="ك" d="M0 0q-21 0 -42 4.5t-38 15.5v140q16 9 37.5 14.5t42.5 5.5q67 0 122 0.5t101 4t84 11t72 21.5q38 16 63 40.5t25 61.5q0 8 -3 23t-7 24q-43 67 -93.5 120.5t-106.5 98.5t-116.5 84.5t-124.5 78.5q-6 13 -8 29.5t-2 33.5t1 34.5t2 31.5q32 55 94 118t142.5 128t174.5 129 t190 120.5t189.5 102t172.5 73.5l79 -164q-63 -19 -141.5 -53.5t-163 -79.5t-169.5 -97t-161 -105.5t-137 -106.5t-97 -99q39 -23 78.5 -49.5t76.5 -55t70.5 -57.5t60.5 -56q51 -51 83 -94.5t49 -82.5t23 -76t6 -74q0 -7 -0.5 -16.5t-1.5 -16.5q-12 -72 -60 -121.5 t-119 -80.5q-81 -35 -193.5 -49t-254.5 -14z"/>
<glyph arabic-form="medial" glyph-name="KafMed" horiz-adv-x="1035" unicode="ك" d="M30 180q198 0 316 17.5t166 61.5q-61 52 -129 114t-132 127.5t-118 129t-87 118.5q-6 14 -8.5 31t-2.5 36q0 17 1 32.5t3 29.5q32 55 94 118t142.5 128t174.5 129t190 120.5t189.5 102t172.5 73.5l79 -164q-62 -19 -141 -54t-164 -80.5t-171 -99t-162.5 -108 t-137.5 -107.5t-97 -99q41 -63 99.5 -129.5t124 -130.5t132.5 -122.5t126 -106.5q57 -47 102 -78.5t85 -51.5t78 -28.5t80 -8.5v-180q-58 0 -107 8.5t-95.5 27t-94 48.5t-102.5 73q-38 -42 -91.5 -71.5t-127.5 -48.5t-170 -28t-217 -9h-30q-21 0 -42 4.5t-38 15.5v140 q16 9 37.5 14.5t42.5 5.5h30z"/>
<glyph arabic-form="isolated" glyph-name="LamSep" horiz-adv-x="1325" unicode="ل" d="M1135 309q0 -76 -9.5 -153t-33 -148.5t-63.5 -133.5t-101 -108t-145 -72.5t-195 -26.5q-107 0 -197 32t-154.5 92t-100.5 145t-36 191q0 43 3 77t9 67t15.5 68t23.5 80l151 -28q-13 -38 -21 -66t-12 -53t-5 -51t-1 -60q0 -62 19 -119t58.5 -100.5t101 -69t146.5 -25.5 q88 0 150 20t103.5 55t65.5 82.5t36 102.5t15.5 115t3.5 120v69.5t-1 116t-2.5 149.5t-3.5 169.5t-5 176.5t-7.5 171t-10.5 152t-13 120l188 37l6 -121q2 -29 2.5 -58.5t1.5 -60.5q4 -121 7.5 -252t5.5 -257t3.5 -241t1.5 -204z"/>
<glyph arabic-form="final" glyph-name="LamFin" horiz-adv-x="1374" unicode="ل" d="M1374 0q-60 0 -126.5 14t-129.5 52q-3 -53 -16 -111t-40 -113t-68 -105t-99.5 -88t-135.5 -60t-174 -22q-110 0 -199.5 32.5t-153 93t-98 146t-34.5 191.5q0 43 3 76.5t9 65.5t15.5 67t23.5 80l151 -28q-13 -38 -21 -69t-12 -58t-5 -52t-1 -51q0 -62 19 -119t58.5 -100.5 t101 -69t146.5 -25.5q88 0 150 20t103.5 55t66 82.5t36.5 102.5t15.5 115t3.5 120q0 42 -1 166t-9 334q-3 74 -5.5 168.5t-6.5 194.5t-9 197.5t-13 177.5l186 19q5 -52 8.5 -123.5t6.5 -153t4.5 -167.5t3 -166t2.5 -149t2 -117q1 -53 2.5 -97t2.5 -81.5t1.5 -70t0.5 -62.5 q0 -15 -0.5 -28.5t-0.5 -27.5q22 -23 54.5 -38t66 -23.5t64.5 -11.5t51 -3v-180z"/>
<glyph arabic-form="initial" glyph-name="LamIni" horiz-adv-x="582" unicode="ل" d="M0 180q39 0 74.5 2t65 6.5t51.5 13t34 20.5q5 28 7 54t2 54v70t-1 117.5t-3 152t-5 172.5t-7.5 179.5t-11 173.5t-15 154t-19.5 121l189 38q4 -25 7 -52.5t6 -56.5q3 -32 6 -69.5t5 -72.5q6 -90 10 -187.5t6.5 -196.5t3.5 -196.5t1 -186.5q0 -94 -9 -178t-28 -165 q-27 -40 -67.5 -68t-89.5 -45.5t-103.5 -25.5t-108.5 -8q-21 0 -43 4.5t-39 15.5v140q16 9 38.5 14.5t43.5 5.5z"/>
<glyph arabic-form="medial" glyph-name="LamMed" horiz-adv-x="646" unicode="ل" d="M0 0q-21 0 -43 4.5t-39 15.5v140q16 9 38.5 14.5t43.5 5.5q69 0 121.5 12t103.5 44q5 14 7 39t2 67v47t-0.5 69.5t-2.5 111.5t-6 172q-3 74 -5.5 168.5t-6.5 194.5t-9 197.5t-13 177.5l186 19q5 -52 8.5 -123.5t6.5 -153t4.5 -167.5t3 -166t2.5 -149t2 -117 q1 -53 2.5 -97t2.5 -81.5t1.5 -70t0.5 -62.5q0 -15 -0.5 -28.5t-0.5 -27.5q20 -22 47.5 -36.5t59 -23.5t64.5 -12.5t65 -3.5v-180q-36 0 -79.5 7t-87.5 21t-85 35.5t-71 50.5q-26 -23 -56.5 -44t-69.5 -36.5t-87.5 -24.5t-109.5 -9z"/>
<glyph arabic-form="isolated" glyph-name="MeemSep" horiz-adv-x="1232" unicode="م" d="M761 133q94 0 146 29q20 27 31.5 67t11.5 103q0 52 -16 99t-44.5 83t-68 57t-85.5 21q-50 0 -88 -16t-67 -44t-51.5 -65t-42.5 -79q-7 -14 -15 -35.5t-16.5 -47.5t-16 -55t-12.5 -59q37 -6 78 -16t83.5 -19t86.5 -16t86 -7zM738 759q96 0 168 -39t120 -101t72 -139.5 t24 -154.5q0 -43 -8 -83t-21.5 -76t-31 -67t-36.5 -57q-15 -15 -40 -30t-60 -27t-78.5 -19.5t-94.5 -7.5q-56 0 -112.5 11t-112.5 24.5t-110 25t-103 11.5q-36 -6 -62 -17.5t-44 -31t-29.5 -48.5t-17.5 -69v-53v-76t0.5 -95.5t1.5 -108.5l2 -114l-185 -19v314 q0 78 10.5 154.5t41 141t86 112t145.5 68.5q8 70 27 139.5t48 133t68 118t89 94.5t110.5 63t132.5 23z"/>
<glyph arabic-form="final" glyph-name="MeemFin" horiz-adv-x="1320" unicode="م" d="M761 133q48 0 82.5 7.5t63.5 24.5q23 29 33 66.5t10 100.5q0 52 -16 99t-44.5 83t-68 57t-85.5 21q-50 0 -88 -16t-67 -44t-51.5 -65t-42.5 -79q-7 -14 -15 -35.5t-16.5 -47.5t-16 -55t-12.5 -59q37 -6 78 -16t83.5 -19t86.5 -16t86 -7zM1320 0q-38 0 -77 3t-75.5 11 t-69 21t-57.5 33q-5 -9 -7 -12.5t-9 -13.5q-15 -15 -40 -30t-60 -27t-78.5 -19.5t-94.5 -7.5q-56 0 -112.5 11t-112.5 24.5t-110 25t-103 11.5q-36 -6 -62 -17.5t-44 -31t-29.5 -48.5t-17.5 -69v-53v-76t1 -95.5t1.5 -108.5t2.5 -114l-181 -19q-2 123 -3 199.5t-1 114.5 q0 78 10.5 154.5t40.5 141t85.5 112t145.5 68.5q8 70 27 139.5t48 133t68 118t89 94.5t110.5 63t132.5 23q96 0 168 -39t120 -101t72 -139.5t24 -154.5q0 -26 -3.5 -50.5t-9.5 -48.5q22 -15 48 -24t53.5 -14t55.5 -6.5t54 -1.5v-180z"/>
<glyph arabic-form="initial" glyph-name="MeemIni" horiz-adv-x="1076" unicode="م" d="M0 0q-21 0 -42 4.5t-38 15.5v140q16 9 37.5 14.5t42.5 5.5q17 0 36 2.5t38 8.5t35 16t27 26q33 111 75 207t100 167t135 111.5t180 40.5q88 0 157 -38.5t116.5 -97.5t72 -131.5t24.5 -139.5q0 -50 -10.5 -99t-30 -93.5t-49 -82.5t-66.5 -66q-18 -11 -45.5 -19.5 t-57 -15.5t-58.5 -10.5t-50 -3.5q-83 0 -141 12.5t-105 30t-89.5 36t-93.5 30.5q-42 -42 -92.5 -56.5t-107.5 -14.5zM299 210q32 -11 70 -24.5t80.5 -25t90.5 -19.5t101 -8q11 0 29 2t37 5.5t34.5 9t22.5 12.5q35 36 48 86t13 120q0 47 -15 88t-42 71t-64 47.5t-80 17.5 q-65 0 -113.5 -28t-86 -78t-67.5 -120.5t-58 -155.5z"/>
<glyph arabic-form="medial" glyph-name="MeemMed" horiz-adv-x="1200" unicode="م" d="M0 0q-21 0 -42 4.5t-38 15.5v140q16 9 37.5 14.5t42.5 5.5q49 0 78 13.5t46 36.5q51 99 99.5 186.5t105 153t124.5 104t158 38.5q61 0 112.5 -18t92.5 -48.5t72 -71t51.5 -86t31 -93.5t10.5 -93q0 -35 -6 -66q21 -18 48.5 -29t57.5 -17t60.5 -8t58.5 -2v-180 q-40 0 -81.5 4t-80 14t-72 25t-58.5 38q-19 -29 -42 -54.5t-56 -49.5q-39 -24 -89 -37t-92 -13q-65 0 -125 12.5t-115.5 33t-106.5 47.5t-96 56q-32 -37 -75.5 -56.5t-110.5 -19.5zM358 334q-6 -11 -14 -26t-17 -33l-18.5 -37t-17.5 -36q31 -21 69 -39t79.5 -30.5t85.5 -20 t88 -7.5q25 0 59.5 2.5t60.5 11.5q23 14 38 35t23.5 46.5t12 53.5t3.5 55q0 50 -14.5 93.5t-41 75.5t-63.5 50t-82 18q-41 0 -77.5 -17.5t-68 -47t-58 -68t-47.5 -79.5z"/>
<glyph arabic-form="isolated" glyph-name="NoonSep" horiz-adv-x="1303" unicode="ن" d="M615 -333q-107 0 -197 30.5t-155.5 88.5t-102.5 141.5t-37 189.5q0 35 2 70t7.5 71.5t15.5 76t26 84.5l151 -28q-13 -38 -21 -69t-12 -58t-5 -52t-1 -51q0 -62 19.5 -119t60 -100.5t102.5 -69t147 -25.5q99 0 167 25t112 65.5t67.5 92.5t33.5 106q1 11 1.5 21.5t0.5 21.5 q0 63 -9 125.5t-24 124t-35 120t-42 112.5l193 43q35 -111 59.5 -229t29.5 -250q0 -63 -12 -125t-38 -125t-68 -119t-103.5 -98t-144 -66.5t-188.5 -24.5zM748 932q0 -19 -10 -40t-26.5 -39t-38 -29.5t-43.5 -11.5q-21 0 -43.5 12t-40.5 30t-29.5 39t-11.5 39 q0 19 11.5 39.5t29.5 38t39 28.5t40 11q20 0 42 -11t40 -28.5t29.5 -38t11.5 -39.5z"/>
<glyph arabic-form="final" glyph-name="NoonFin" horiz-adv-x="1364" unicode="ن" d="M588 -433q-104 0 -193 30.5t-154 88.5t-102 141.5t-37 189.5q0 35 2 70t7.5 71.5t15.5 76t26 84.5l151 -28q-13 -38 -21 -69t-12 -58t-5 -52t-1 -51q0 -62 19.5 -119t60 -100.5t102.5 -69t147 -25.5q99 0 171.5 28.5t120 76t70.5 110t23 130.5q0 45 -9.5 104t-24.5 121.5 t-33.5 122.5t-37.5 106l191 43q9 -29 17.5 -66t16.5 -79t15 -87.5t12 -90.5q19 -25 46 -41.5t58 -26.5t65 -14t69 -4v-180q-15 0 -44 3.5t-62 11.5t-65.5 21t-55.5 33q-8 -118 -49.5 -211t-113 -157.5t-169 -99t-217.5 -34.5zM705 822q0 -19 -10 -40t-26.5 -39t-38 -29.5 t-43.5 -11.5q-21 0 -43.5 12t-40.5 30t-29.5 39t-11.5 39q0 19 11.5 39.5t29.5 38t39 28.5t40 11q20 0 42 -11t40 -28.5t29.5 -38t11.5 -39.5z"/>
<glyph arabic-form="initial" glyph-name="NoonIni" horiz-adv-x="614" unicode="ن" d="M367 1151q0 -19 -10 -40t-26.5 -39t-38 -29.5t-43.5 -11.5q-21 0 -43.5 12t-40.5 30t-29.5 39t-11.5 39q0 19 11.5 39.5t29.5 38t39 28.5t40 11q20 0 42 -11t40 -28.5t29.5 -38t11.5 -39.5zM0 180q39 0 76.5 2.5t70.5 9.5t61 19t49 30q3 9 6 24t6 32t4.5 34t1.5 30 q0 60 -4 107t-13.5 92.5t-24 96.5t-35.5 120l187 45q16 -65 27 -116t17.5 -99t9.5 -98.5t3 -113.5q0 -52 -11 -111.5t-32 -116.5q-30 -44 -79.5 -75.5t-106 -51.5t-113 -30t-100.5 -10q-21 0 -43 4.5t-39 15.5v140q16 9 38.5 14.5t43.5 5.5z"/>
<glyph arabic-form="medial" glyph-name="NoonMed" horiz-adv-x="636" unicode="ن" d="M0 0q-21 0 -43 4.5t-39 15.5v140q16 9 38.5 14.5t43.5 5.5q75 0 132.5 11t108.5 43q11 38 15 81.5t4 85.5q0 81 -14.5 155t-34.5 137l185 43q18 -81 28 -157.5t10 -148.5q0 -28 -1 -52t-3 -47t-5.5 -46.5t-8.5 -49.5q21 -12 48 -22.5t56 -17.5t59 -11t57 -4v-180 q-37 0 -77.5 7t-81 20.5t-79 33.5t-71.5 47q-135 -108 -327 -108zM399 1061q0 -19 -10 -40t-26.5 -39t-38 -29.5t-43.5 -11.5q-21 0 -43.5 12t-40.5 30t-29.5 39t-11.5 39q0 19 11.5 39.5t29.5 38t39 28.5t40 11q20 0 42 -11t40 -28.5t29.5 -38t11.5 -39.5z"/>
<glyph arabic-form="isolated" glyph-name="HehSep" horiz-adv-x="1027" unicode="ه" d="M502 192q138 0 205 50.5t67 168.5q-2 59 -20.5 114t-51.5 97t-78.5 67.5t-101.5 25.5q-59 0 -108 -25t-84 -66.5t-54 -96t-19 -114.5q0 -57 18 -98.5t50.5 -68.5t77.5 -40.5t99 -13.5zM496 17q-74 0 -146.5 18t-130.5 62.5t-93.5 120t-35.5 190.5q0 94 34.5 180t93 151.5 t137 104t167.5 38.5q94 0 171 -39t131 -103.5t83.5 -149.5t29.5 -176q0 -111 -32.5 -187t-91 -122.5t-139.5 -67t-178 -20.5z"/>
<glyph arabic-form="final" glyph-name="HehFin" horiz-adv-x="1038" unicode="ه" d="M476 308q34 0 81.5 4t92.5 12q-9 55 -16 115t-12 126q-5 57 -8.5 113.5t-6.5 110.5q-87 -18 -155 -49.5t-114.5 -72t-71 -88.5t-24.5 -99q0 -49 18 -82t49.5 -53t74 -28.5t92.5 -8.5zM1038 0q-50 0 -103 8t-99.5 24t-83.5 38.5t-56 52.5q-5 11 -11 30t-11 38 q-66 -28 -124 -40.5t-100 -12.5q-77 0 -146 16.5t-121 53t-82.5 95t-30.5 143.5q0 79 30.5 155.5t95 142.5t165 118.5t240.5 83.5l-2 83l167 31q1 -60 5.5 -137t10.5 -155t12 -148.5l10 -117.5t9.5 -93t11.5 -84.5t12.5 -65.5t13.5 -37q37 -21 81.5 -31.5t105.5 -10.5v-180z "/>
<glyph arabic-form="initial" glyph-name="HehIni" horiz-adv-x="1399" unicode="ه" d="M0 0q-17 0 -40 6t-35 14v140q14 8 34 14t41 6h97.5t79.5 0.5t66.5 1.5t59.5 2q-65 42 -106 107t-41 165q0 62 26.5 123.5t73 110.5t111 79.5t140.5 30.5q72 0 135 -28.5t110 -78t74 -117.5t27 -146q0 -42 -4 -76.5t-13 -65t-24.5 -58.5t-37.5 -58q29 -6 67.5 -11.5 t69.5 -5.5q51 0 92.5 9.5t57.5 38.5q4 15 5 31.5t1 32.5q0 134 -62.5 246t-171.5 194t-255 129.5t-313 52.5l30 174q158 -11 289 -47.5t236 -93.5t183 -131t130 -160t78 -180.5t26 -192.5q0 -34 -10 -78t-33 -87q-38 -47 -110.5 -76t-166.5 -29q-40 0 -83.5 6.5t-88.5 16.5 t-89.5 23t-84.5 25q-39 -12 -91 -22.5t-121 -19t-157.5 -13t-201.5 -4.5zM692 417q0 59 -15.5 102t-42 71.5t-62 42.5t-75.5 14q-36 0 -68.5 -13.5t-57.5 -37.5t-40 -57t-15 -72q0 -43 15.5 -81t50 -71.5t89.5 -61t135 -49.5q24 17 40.5 42t26.5 53.5t14.5 59t4.5 58.5z"/>
<glyph arabic-form="medial" glyph-name="HehMed" horiz-adv-x="1107" unicode="ه" d="M0 0q-19 0 -39 6t-36 14v140q16 9 38.5 14.5t36.5 5.5q22 0 41 0.5t36 1.5t35 3t39 5q-2 23 -3.5 47t-1.5 49q0 70 10 144.5t31.5 145t55 133.5t80.5 110t108 74.5t137 27.5q83 0 148.5 -31.5t111.5 -83.5t70 -118t24 -136q0 -78 -23.5 -152t-86.5 -139t-174 -120 t-287 -96q12 -51 35 -103.5t53.5 -98.5t66 -81t73.5 -49q22 91 55 158t71 115.5t78.5 80.5t78.5 54q63 36 122.5 47.5t122.5 11.5v-180q-65 0 -127.5 -20t-117 -67t-98 -126.5t-70.5 -197.5q-10 -9 -26 -17.5t-35 -16t-40.5 -13t-41.5 -6.5q-69 25 -116 62.5t-84 79.5 q-60 68 -101 155t-69 183q-27 -5 -49.5 -8t-43.5 -4.5t-42.5 -2.5t-45.5 -1zM328 209q423 78 423 332q-2 39 -15 77t-36.5 69t-56 50t-72.5 19q-46 0 -82.5 -19t-64.5 -51t-48 -74.5t-32.5 -90.5t-18.5 -98.5t-6 -97.5q0 -31 2.5 -60.5t6.5 -55.5z"/>
<glyph arabic-form="isolated" glyph-name="WawSep" horiz-adv-x="974" unicode="و" d="M712 269q0 67 -14 134.5t-46 121.5q-53 91 -169 91q-42 0 -82 -23t-70.5 -59.5t-49.5 -83t-19 -94.5q0 -55 20.5 -91t56 -57t82 -29.5t98.5 -8.5q45 0 93 3.5t93 14.5q3 22 5 42t2 39zM474 0q-47 0 -92 6.5t-86 21.5t-76.5 39.5t-63.5 60.5q-16 20 -28 41.5t-20 46.5 t-12 54.5t-4 66.5q0 49 13 100.5t38 100t61 92t81.5 75.5t99.5 51t116 19q66 0 120.5 -20.5t97 -56t73.5 -82t49 -98.5q23 -66 33 -125.5t10 -125.5q0 -69 -12.5 -137t-32.5 -124q-22 -63 -64 -128t-110.5 -125t-166.5 -111.5t-232 -87.5l-84 151q28 8 58.5 18t60 21 t56.5 22.5t50 21.5q62 28 106.5 56t76 58.5t52.5 64.5t37 73q-48 -18 -102.5 -29t-102.5 -11z"/>
<glyph arabic-form="final" glyph-name="WawFin" horiz-adv-x="1037" unicode="و" d="M652 525q-51 91 -169 91q-42 0 -82 -23t-70.5 -59.5t-49.5 -83t-19 -94.5q0 -55 24 -89t63 -53.5t88.5 -26.5t101.5 -7h165q6 42 6 87q0 70 -14.5 138.5t-43.5 119.5zM163 128q-16 20 -29 41.5t-22.5 46.5t-14.5 54.5t-5 66.5q0 49 13 100.5t38 100t61 92t81.5 75.5 t99.5 51t116 19q66 0 120.5 -20.5t97 -56t73.5 -82t49 -98.5q18 -51 24.5 -102t6.5 -103q0 -34 -2 -67.5t-5 -65.5h172v-180h-209q-23 -56 -64 -119.5t-107.5 -124t-162.5 -113.5t-228 -89l-84 152q28 8 58.5 18t60 21t56.5 22t50 21q52 24 92 49.5t70 52t51.5 54t37.5 56.5 h-137q-47 0 -98 6.5t-99.5 21.5t-90.5 39.5t-70 60.5z"/>
<glyph arabic-form="isolated" glyph-name="YehxSep" horiz-adv-x="1560" unicode="ى" d="M1144 417q89 -44 149.5 -84t89.5 -92q17 -30 22 -61t5 -52q0 -98 -52 -179.5t-143.5 -141t-216.5 -92.5t-272 -33q-127 0 -240.5 29t-199 90.5t-136 157.5t-50.5 230q0 81 15 157.5t47 157.5l161 -33q-23 -71 -34.5 -130t-11.5 -119q0 -83 28.5 -149.5t85 -113t140.5 -72 t195 -25.5q53 0 112 8t117 23t111 37t93.5 50t64.5 61.5t24 72.5v7q-15 28 -54 55.5t-90 54t-107.5 52t-107.5 49.5q-52 25 -88 55.5t-57 72.5q-2 15 -3.5 38.5t-1.5 37.5q0 46 6.5 83t18 68.5t27.5 59.5t36 57q51 74 113 117t123 65t115.5 28t90.5 6q34 0 70.5 -6.5 t62.5 -16.5l-37 -161q-30 2 -59.5 4.5t-63.5 2.5q-62 0 -122 -20t-108 -57t-79.5 -90.5t-35.5 -120.5q4 -14 16.5 -25.5t29 -20.5t33.5 -16.5t30 -13.5z"/>
<glyph arabic-form="final" glyph-name="YehxFin" horiz-adv-x="1334" unicode="ى" d="M1334 0q-13 0 -29.5 3t-30.5 9v-13q0 -72 -38 -141t-112 -123t-182.5 -87t-248.5 -33q-124 0 -231.5 28.5t-186.5 89t-124.5 154.5t-45.5 224q0 35 4.5 75t13 83t21.5 86.5t30 85.5l158 -25q-23 -68 -39 -134t-16 -135q0 -96 29 -163t85 -109t138.5 -61t189.5 -19 q94 0 170 18t129.5 49.5t82 72.5t28.5 88q0 11 -2 19.5t-7 19.5q-22 15 -47.5 33.5t-52.5 42t-54 52.5t-51 64l138 112q27 -39 61 -73t70.5 -59t75 -39.5t74.5 -14.5v-180z"/>
<glyph arabic-form="isolated" glyph-name="YehSep" horiz-adv-x="1560" unicode="ي" d="M1144 417q89 -44 149.5 -84t89.5 -92q17 -30 22 -61t5 -52q0 -98 -52 -179.5t-143.5 -141t-216.5 -92.5t-272 -33q-127 0 -240.5 29t-199 90.5t-136 157.5t-50.5 230q0 81 15 157.5t47 157.5l161 -33q-23 -71 -34.5 -130t-11.5 -119q0 -83 28.5 -149.5t85 -113t140.5 -72 t195 -25.5q53 0 112 8t117 23t111 37t93.5 50t64.5 61.5t24 72.5v7q-15 28 -54 55.5t-90 54t-107.5 52t-107.5 49.5q-52 25 -88 55.5t-57 72.5q-2 15 -3.5 38.5t-1.5 37.5q0 46 6.5 83t18 68.5t27.5 59.5t36 57q51 74 113 117t123 65t115.5 28t90.5 6q34 0 70.5 -6.5 t62.5 -16.5l-37 -161q-30 2 -59.5 4.5t-63.5 2.5q-62 0 -122 -20t-108 -57t-79.5 -90.5t-35.5 -120.5q4 -14 16.5 -25.5t29 -20.5t33.5 -16.5t30 -13.5zM1012 -578q0 -18 -9.5 -38t-25 -37t-35.5 -28t-41 -11q-20 0 -41 11t-38 28t-28 37t-11 38t11 37.5t27.5 36t36.5 27 t38 10.5q19 0 39.5 -10.5t37.5 -27t28 -36t11 -37.5zM743 -588q0 -18 -9.5 -38t-25 -37t-35.5 -28t-41 -11q-20 0 -41 11t-38 28t-28 37t-11 38t11 37.5t27.5 36t36.5 27t38 10.5q19 0 39.5 -10.5t37.5 -27t28 -36t11 -37.5z"/>
<glyph arabic-form="final" glyph-name="YehFin" horiz-adv-x="1334" unicode="ي" d="M1334 0q-13 0 -29.5 3t-30.5 9v-13q0 -72 -38 -141t-112 -123t-182.5 -87t-248.5 -33q-124 0 -231.5 28.5t-186.5 89t-124.5 154.5t-45.5 224q0 35 4.5 75t13 83t21.5 86.5t30 85.5l158 -25q-23 -68 -39 -134t-16 -135q0 -96 29 -163t85 -109t138.5 -61t189.5 -19 q94 0 170 18t129.5 49.5t82 72.5t28.5 88q0 11 -2 19.5t-7 19.5q-22 15 -47.5 33.5t-52.5 42t-54 52.5t-51 64l138 112q27 -39 61 -73t70.5 -59t75 -39.5t74.5 -14.5v-180zM956 -594q0 -18 -9.5 -38t-25 -37t-35.5 -28t-41 -11q-20 0 -41 11t-38 28t-28 37t-11 38t11 37.5 t27.5 36t36.5 27t38 10.5q19 0 39.5 -10.5t37.5 -27t28 -36t11 -37.5zM687 -604q0 -18 -9.5 -38t-25 -37t-35.5 -28t-41 -11q-20 0 -41 11t-38 28t-28 37t-11 38t11 37.5t27.5 36t36.5 27t38 10.5q19 0 39.5 -10.5t37.5 -27t28 -36t11 -37.5z"/>
<glyph arabic-form="initial" glyph-name="YehIni" horiz-adv-x="614" unicode="ي" d="M0 0q-21 0 -43 4.5t-39 15.5v140q16 9 38.5 14.5t43.5 5.5q39 0 76.5 2.5t70.5 9.5t61 19t49 30q3 9 6 24t6 32t4.5 34t1.5 30q0 60 -4 107t-13.5 92.5t-24 96.5t-35.5 120l187 45q16 -65 27 -116t17.5 -99t9.5 -98.5t3 -113.5q0 -52 -11 -111.5t-32 -116.5 q-30 -44 -79.5 -75.5t-106 -51.5t-113 -30t-100.5 -10zM424 -258q0 -18 -9.5 -38t-25 -37t-35.5 -28t-41 -11q-20 0 -41 11t-38 28t-28 37t-11 38t11 37.5t27.5 36t36.5 27t38 10.5q19 0 39.5 -10.5t37.5 -27t28 -36t11 -37.5zM155 -268q0 -18 -9.5 -38t-25 -37t-35.5 -28 t-41 -11q-20 0 -41 11t-38 28t-28 37t-11 38t11 37.5t27.5 36t36.5 27t38 10.5q19 0 39.5 -10.5t37.5 -27t28 -36t11 -37.5z"/>
<glyph arabic-form="medial" glyph-name="YehMed" horiz-adv-x="636" unicode="ي" d="M0 0q-21 0 -43 4.5t-39 15.5v140q16 9 38.5 14.5t43.5 5.5q75 0 132.5 11t108.5 43q11 38 15 81.5t4 85.5q0 81 -14.5 155t-34.5 137l185 43q18 -81 28 -157.5t10 -148.5q0 -28 -1 -52t-3 -47t-5.5 -46.5t-8.5 -49.5q21 -12 48 -22.5t56 -17.5t59 -11t57 -4v-180 q-37 0 -77.5 7t-81 20.5t-79 33.5t-71.5 47q-135 -108 -327 -108zM428 -258q0 -18 -9.5 -38t-25 -37t-35.5 -28t-41 -11q-20 0 -41 11t-38 28t-28 37t-11 38t11 37.5t27.5 36t36.5 27t38 10.5q19 0 39.5 -10.5t37.5 -27t28 -36t11 -37.5zM159 -268q0 -18 -9.5 -38t-25 -37 t-35.5 -28t-41 -11q-20 0 -41 11t-38 28t-28 37t-11 38t11 37.5t27.5 36t36.5 27t38 10.5q19 0 39.5 -10.5t37.5 -27t28 -36t11 -37.5z"/>
<glyph glyph-name=".notdef" d="M512 594l-332 -496h662zM569 682l332 -498v994zM123 186l14 21q14 21 37.5 55.5t53 79t60.5 91.5l165 249l-330 496v-992zM512 768l330 498h-662zM25 1362h972v-1362h-972v1362z" horiz-adv-x="1024"/>
<glyph glyph-name=".null"/>
<glyph glyph-name="nonmarkingreturn" horiz-adv-x="682"/>
<glyph glyph-name="space" horiz-adv-x="451" unicode=" "/>
<glyph glyph-name="exclam" horiz-adv-x="604" unicode="!" d="M436 115q0 -59 -30 -94t-101 -35q-75 0 -106 34.5t-31 94.5q0 55 31 90t106 35q70 0 100.5 -35t30.5 -90zM227 365l-37 1126h222l-39 -1126h-146z"/>
<glyph glyph-name="quotedbl" horiz-adv-x="782" unicode='&quot;' d="M629 1018l-123 -10l-43 503h196zM289 1018l-123 -10l-43 503h196z"/>
<glyph glyph-name="numbersign" horiz-adv-x="1343" unicode="#" d="M483 525l291 6l79 354h-282zM188 1030l244 2l80 369h186l-90 -367l278 2l81 365h186l-92 -363l180 2l-31 -155h-187l-88 -351l224 5l-31 -164h-233l-94 -375h-144l83 375h-294l-92 -375h-143l80 375h-189v143l221 4l78 363h-213v145z"/>
<glyph glyph-name="dollar" horiz-adv-x="1202" unicode="$" d="M342 1049q0 -38 12 -68.5t37.5 -56t64.5 -47.5t93 -43v405q-56 -6 -95 -22t-64 -40.5t-36.5 -57t-11.5 -70.5zM887 393q0 71 -50 120.5t-157 94.5v-415q100 13 153.5 64t53.5 136zM541 -162l5 194q-132 8 -244 46.5t-200 116.5l115 147q84 -75 164.5 -108.5t167.5 -40.5 v463l-17 6q-82 27 -152.5 57.5t-122 73t-81 100.5t-29.5 141q0 69 24.5 131t74.5 110t125 80t176 42l-8 164h147l-5 -162q62 -4 119 -17.5t108 -34t96.5 -46t85.5 -54.5l-105 -137q-66 54 -141.5 87t-163.5 42v-450q78 -27 149.5 -59t126.5 -76.5t88 -104.5t33 -143 q0 -84 -28.5 -149t-80 -111.5t-123.5 -74t-160 -36.5l9 -197h-153z"/>
<glyph glyph-name="percent" horiz-adv-x="1763" unicode="%" d="M1339 553q-36 0 -63.5 -15.5t-46 -43.5t-28 -68t-9.5 -88t9.5 -88t28 -68t46 -43.5t63.5 -15.5q73 0 111.5 59t38.5 156t-38.5 156t-111.5 59zM1341 -27q-67 0 -125.5 24t-102 70.5t-68.5 114.5t-25 156q0 87 25 155t68.5 114.5t101.5 70.5t124 24t125 -24t102.5 -70.5 t69 -114.5t25.5 -155q0 -88 -25 -156t-68 -114.5t-101.5 -70.5t-125.5 -24zM422 1284q-36 0 -63.5 -15.5t-46.5 -43.5t-28.5 -68t-9.5 -88t9.5 -88t28.5 -68t46.5 -43.5t63.5 -15.5t64 15.5t46.5 43.5t28.5 68t10 88t-10 88t-28.5 68t-46.5 43.5t-64 15.5zM424 705 q-67 0 -125.5 24t-102 70.5t-69 114.5t-25.5 155q0 88 25 156t68.5 114.5t102 70.5t124.5 24t124.5 -24t102 -70.5t69 -114.5t25.5 -156q0 -87 -25 -155t-68 -114.5t-101 -70.5t-125 -24zM1133 1415h192l-694 -1419h-195z"/>
<glyph glyph-name="ampersand" horiz-adv-x="1378" unicode="&amp;" d="M432 1159q0 -66 34 -129.5t91 -133.5q51 28 96.5 56.5t79.5 61.5t54 72t20 88q0 36 -13 66.5t-37 52t-59 34t-80 12.5q-47 0 -81.5 -14t-58 -38t-35 -57t-11.5 -71zM600 131q91 0 159 26.5t122 72.5l-299 366l-77 92q-44 -29 -82.5 -60t-67 -66.5t-44.5 -77.5t-16 -93 q0 -69 23.5 -118.5t65 -81t97 -46t119.5 -14.5zM1096 -31l-118 143q-78 -69 -175 -104t-221 -35q-121 0 -211 33t-150 89t-89.5 130t-29.5 156q0 84 25 149t67 116.5t96.5 91.5t113.5 75q-39 49 -69 93t-51 87t-31.5 86t-10.5 90q0 73 27 132.5t77 101.5t119.5 65t155.5 23 q87 0 156 -23t117 -64.5t73.5 -97.5t25.5 -122q0 -77 -28.5 -136t-75.5 -107t-107.5 -87.5t-123.5 -75.5l67 -80l270 -327q40 70 67 150t46 161l168 -33q-35 -121 -78 -221.5t-100 -181.5l162 -195z"/>
<glyph glyph-name="quotesingle" horiz-adv-x="442" unicode="&apos;" d="M289 1018l-123 -10l-43 503h196z"/>
<glyph glyph-name="parenleft" horiz-adv-x="666" unicode="(" d="M301 584q0 -97 13 -186.5t34 -170.5t48 -152t56 -129q67 -139 152 -251l-131 -86q-49 60 -93 126.5t-82 141.5q-33 64 -64.5 141t-56 166t-39.5 189t-15 209q0 108 15 207.5t39.5 188t56 165.5t64.5 141q38 75 82 141.5t93 126.5l131 -86q-43 -57 -80.5 -118t-71.5 -130 q-29 -59 -56 -129t-48 -150t-34 -169t-13 -186z"/>
<glyph glyph-name="parenright" horiz-adv-x="666" unicode=")" d="M365 584q0 97 -13 186t-34 169t-48 150t-56 129q-34 69 -71 130t-81 118l131 86q49 -60 93 -126t82 -142q33 -64 65 -141q31 -77 56 -165q24 -88 39 -188t15 -208q0 -109 -15 -209t-39 -189t-56 -166q-31 -77 -65 -141q-38 -75 -82 -141t-93 -127l-131 86q85 112 152 251 q29 58 56 129t48 152t34 171t13 186z"/>
<glyph glyph-name="asterisk" horiz-adv-x="1028" unicode="*" d="M557 1171l2 -2l272 185l74 -140l-317 -122v-2l297 -117l-88 -137l-246 188l-2 -2l45 -301h-160l45 301l-2 2l-246 -188l-88 137l297 117v2l-317 122l74 140l272 -185l2 2l-41 306h168z"/>
<glyph glyph-name="plus" horiz-adv-x="1364" unicode="+" d="M123 680h469v500h180v-500h469v-170h-469v-510h-180v510h-469v170z"/>
<glyph glyph-name="comma" horiz-adv-x="616" unicode="," d="M289 -10q-35 0 -58.5 12t-37.5 30t-19.5 39.5t-5.5 41.5q0 25 8 48t24.5 40.5t42 28t60.5 10.5q72 0 105.5 -39t33.5 -105q0 -54 -13 -111.5t-37 -112t-58 -103.5t-76 -86l-94 67q31 27 54 58t39 62.5t24 62.5t8 57z"/>
<glyph glyph-name="hyphen" horiz-adv-x="858" unicode="-" d="M123 668h612v-181h-612v181z"/>
<glyph glyph-name="hyphen" horiz-adv-x="858" unicode="­" d="M123 668h612v-181h-612v181z"/>
<glyph glyph-name="period" horiz-adv-x="616" unicode="." d="M442 115q0 -59 -30 -94t-101 -35q-75 0 -106 34.5t-31 94.5q0 55 31 90t106 35q71 0 101 -35t30 -90z"/>
<glyph glyph-name="slash" horiz-adv-x="991" unicode="/" d="M303 -127l-180 16l563 1622l182 -8z"/>
<glyph glyph-name="zero" horiz-adv-x="1278" unicode="0" d="M639 -27q-136 0 -237 55.5t-167.5 153.5t-99.5 232.5t-33 292.5q0 151 34 286.5t101.5 238t168 162.5t233.5 60q134 0 235 -58.5t168 -158t100.5 -232t33.5 -280.5q0 -158 -35.5 -295t-103.5 -238.5t-168 -160t-230 -58.5zM639 137q72 0 135.5 35.5t111.5 108t75.5 183.5 t27.5 261q0 157 -30 265t-79 174t-112 95t-129 29q-72 0 -136 -36.5t-111.5 -109.5t-75 -182t-27.5 -253q0 -167 30.5 -277t80 -175t112 -91.5t127.5 -26.5z"/>
<glyph glyph-name="one" horiz-adv-x="879" unicode="1" d="M242 0v137l153 10v1088l-194 -55l-37 163l411 99v-1295l138 -12v-135h-471z"/>
<glyph glyph-name="two" horiz-adv-x="1108" unicode="2" d="M88 1204q44 59 95.5 105.5t111.5 78.5t129.5 49t150.5 17q89 0 166 -24.5t134 -72.5t89.5 -119t32.5 -165t-22.5 -174.5t-64.5 -155t-101.5 -145.5t-132.5 -145q-38 -39 -81 -80t-87.5 -81.5t-89 -78t-84.5 -68.5l657 31v-176h-887v158q45 37 96.5 82t102.5 91.5t98 90.5 t84 80q82 80 143.5 149.5t102 135.5t60.5 131t20 137q0 61 -19 105t-52 73t-78 43t-97 14q-106 0 -191.5 -47t-160.5 -147z"/>
<glyph glyph-name="three" horiz-adv-x="1161" unicode="3" d="M127 1280q49 48 117 87q29 16 64.5 31.5t78 28t91 20t104.5 7.5q90 0 173 -22t146.5 -67.5t102 -116.5t38.5 -169q0 -65 -20.5 -118t-55.5 -94t-82 -69.5t-100 -45.5q55 -15 103.5 -44.5t84.5 -73.5t56.5 -103.5t20.5 -135.5q0 -83 -29 -159t-89 -134.5t-153 -93.5 t-221 -35q-84 0 -156 13.5t-131.5 35t-106.5 48.5t-81 53l106 147q23 -19 49 -36t55 -31q51 -25 118.5 -45.5t152.5 -20.5q81 0 137 21.5t91 57.5t51 84t16 101q0 55 -18.5 103t-58 83.5t-101.5 56t-150 20.5h-129l-10 167h148q58 0 114.5 13.5t101 43.5t72 77t27.5 114 q0 54 -21 93.5t-58 65t-87.5 38t-109.5 12.5q-62 0 -115 -13t-95.5 -33t-74.5 -44t-53 -47z"/>
<glyph glyph-name="four" horiz-adv-x="1268" unicode="4" d="M309 451l510 10v713zM995 1434v-971l181 12l-19 -182h-162v-293h-176v293h-717v162l715 979h178z"/>
<glyph glyph-name="five" horiz-adv-x="1143" unicode="5" d="M987 1264l-588 18l-37 -440q48 11 98 16.5t99 5.5q91 0 178 -23.5t154 -75t108 -134t41 -199.5q0 -103 -37 -187.5t-104.5 -145t-161.5 -93.5t-209 -33q-103 0 -183.5 22.5t-140.5 49.5q-35 16 -65.5 34t-56.5 38l106 147q41 -36 92 -64q45 -24 110.5 -43.5t150.5 -19.5 q70 0 127.5 19.5t98.5 56t64 90.5t23 123q0 78 -27 132t-72 87t-104 47.5t-123 14.5q-72 0 -144.5 -14.5t-135.5 -37.5l-62 41l56 738h770z"/>
<glyph glyph-name="six" horiz-adv-x="1192" unicode="6" d="M629 137q68 0 119.5 23.5t86 66t51.5 103t17 135.5q0 74 -20.5 126.5t-55.5 85.5t-81.5 48.5t-98.5 15.5q-78 0 -136 -23.5t-96.5 -65t-57.5 -98t-19 -122.5q0 -83 25.5 -139.5t66.5 -91t93.5 -49.5t105.5 -15zM954 1155q-63 66 -134.5 99.5t-162.5 33.5 q-68 0 -135.5 -29.5t-121 -101.5t-86.5 -192.5t-33 -302.5q26 57 64.5 102.5t86.5 77t103.5 48.5t115.5 17q91 0 171 -28.5t139.5 -83.5t94 -136.5t34.5 -187.5q0 -98 -28 -188t-84.5 -159t-142.5 -110t-202 -41q-268 0 -399.5 178t-131.5 521q0 179 38 323.5t109 246.5 t174 157t234 55q70 0 131 -12.5t113.5 -35t96.5 -53t81 -65.5z"/>
<glyph glyph-name="seven" horiz-adv-x="1096" unicode="7" d="M1034 1434v-142l-563 -1319l-186 41l559 1252h-590l-18 -187h-154l-10 355h962z"/>
<glyph glyph-name="eight" horiz-adv-x="1217" unicode="8" d="M608 1296q-65 0 -116 -16t-86 -45.5t-53.5 -70.5t-18.5 -91q0 -56 17.5 -102t52 -79.5t85.5 -52t119 -18.5q69 0 120.5 18.5t86 52t51.5 79.5t17 102q0 50 -18.5 91t-54 70.5t-86.5 45.5t-116 16zM608 1454q109 0 193.5 -27t142 -76.5t87.5 -119.5t30 -156 q0 -71 -19 -124.5t-49.5 -92.5t-69 -65t-77.5 -43q48 -15 95.5 -43t86 -71.5t62.5 -104.5t24 -142q0 -84 -30 -159.5t-92 -132.5t-157.5 -90.5t-226.5 -33.5t-226.5 33.5t-157.5 90.5t-92 132.5t-30 159.5q0 81 24 142t62.5 104.5t86.5 71.5t96 43q-40 19 -78.5 45.5t-69 65 t-49 91t-18.5 123.5q0 86 29.5 156t87 119.5t141.5 76.5t194 27zM608 129q88 0 150 22t101 58.5t57 85t18 102.5q0 63 -21.5 114t-63 87.5t-102.5 56t-139 19.5t-139 -19.5t-102 -56t-62.5 -87.5t-21.5 -114q0 -54 18 -102.5t57 -85t101 -58.5t149 -22z"/>
<glyph glyph-name="nine" horiz-adv-x="1188" unicode="9" d="M590 1290q-75 0 -131 -23.5t-94 -66t-57 -103t-19 -134.5t22.5 -128.5t59.5 -90t85.5 -53t100.5 -17.5q76 0 134.5 22.5t98 63.5t60 99.5t20.5 129.5q0 83 -24 140.5t-63 93t-89.5 51.5t-103.5 16zM266 256q72 -66 149 -91.5t158 -25.5q72 0 133 34t104.5 106.5t68 186.5 t24.5 275q-19 -51 -55.5 -93t-84 -72t-104 -46t-116.5 -16q-91 0 -171 29.5t-140 86t-95 138.5t-35 188q0 99 28 189t86 158.5t146.5 109.5t210.5 41q252 0 382 -166t130 -510q0 -404 -132.5 -604.5t-381.5 -200.5q-67 0 -125 9t-110 27t-99 45t-92 63z"/>
<glyph glyph-name="colon" horiz-adv-x="604" unicode=":" d="M437 115q0 -59 -30 -94t-101 -35q-75 0 -106 34.5t-31 94.5q0 55 31 90t106 35q71 0 101 -35t30 -90zM437 871q0 -59 -30 -94t-101 -35q-75 0 -106 34.5t-31 94.5q0 55 31 90t106 35q71 0 101 -35t30 -90z"/>
<glyph glyph-name="semicolon" horiz-adv-x="604" unicode=";" d="M437 871q0 -59 -30 -94t-101 -35q-75 0 -106 34.5t-31 94.5q0 55 31 90t106 35q71 0 101 -35t30 -90zM286 -10q-35 0 -58.5 12t-37.5 30t-19.5 39.5t-5.5 41.5q0 25 8 48t24.5 40.5t42 28t60.5 10.5q72 0 105.5 -39t33.5 -105q0 -54 -13 -111.5t-37 -112t-58 -103.5 t-76 -86l-94 67q31 27 54 58t39 62.5t24 62.5t8 57z"/>
<glyph glyph-name="less" horiz-adv-x="1208" unicode="&lt;" d="M985 1108l100 -143l-733 -412l733 -414l-98 -145l-864 506v106z"/>
<glyph glyph-name="equal" horiz-adv-x="1364" unicode="=" d="M123 324h1118v-179h-1118v179zM123 872h1118v-178h-1118v178z"/>
<glyph glyph-name="greater" horiz-adv-x="1208" unicode="&gt;" d="M223.061 -5.93262l-99.9941 142.991l732.955 411.976l-732.955 413.975l97.9941 144.991l863.947 -505.97v-105.993z"/>
<glyph glyph-name="question" horiz-adv-x="1042" unicode="?" d="M631 115q0 -59 -30 -94t-101 -35q-76 0 -107 34.5t-31 94.5q0 54 31.5 89.5t106.5 35.5q70 0 100.5 -35t30.5 -90zM82 1247q47 68 116 122q29 23 66 45t82 39t97.5 27.5t113.5 10.5q95 0 170 -25.5t127 -72.5t79.5 -112.5t27.5 -145.5q0 -67 -17.5 -118t-46 -91t-65 -72 t-74.5 -60t-74.5 -55t-65 -57.5t-46 -67t-17.5 -84.5q0 -18 1 -46t3 -54l4 -65h-168l-3 48q-2 22 -2.5 51.5t-0.5 63.5q0 85 28.5 144.5t71.5 104t92.5 80.5t92.5 74.5t71.5 86t28.5 115.5q0 54 -19.5 91.5t-51 60t-70.5 32.5t-78 10q-51 0 -95.5 -12t-81 -31t-66 -42 t-50.5 -44.5t-34.5 -39t-18.5 -25.5z"/>
<glyph glyph-name="at" horiz-adv-x="2089" unicode="@" d="M1262 877q-45 27 -94 45t-115 18q-65 0 -119.5 -31t-94 -90.5t-61.5 -147t-22 -200.5q0 -86 17.5 -145.5t48 -97t72 -54t89.5 -16.5q28 0 58 8.5t58.5 23.5t55 35.5t47.5 44.5zM1534 154q42 0 87 24.5t82 83t61 157t24 247.5q0 166 -52 294.5t-147 217t-227.5 134.5 t-292.5 46q-117 0 -219.5 -29.5t-188 -84.5t-152.5 -132.5t-113 -173.5t-70.5 -207.5t-24.5 -234.5q0 -155 44.5 -293t136 -242.5t231.5 -165.5t331 -61q59 0 114.5 8t103 20t84 25.5t57.5 24.5l57 -152q-53 -26 -118 -45q-57 -17 -138 -31t-184 -14q-223 0 -394 68.5 t-287.5 191.5t-176.5 294t-60 376q0 136 28.5 264t84 240t137.5 205.5t190 160.5t241.5 104t291.5 37q211 0 380 -62t287 -174t181.5 -268t63.5 -343q0 -169 -37.5 -298t-101.5 -216.5t-149.5 -132t-180.5 -44.5q-45 0 -88.5 9t-81.5 29.5t-68.5 53t-48.5 80.5 q-66 -75 -139 -110t-164 -35q-90 0 -159 36t-116.5 100t-71.5 151.5t-24 191.5q0 76 12.5 150.5t38 142.5t64.5 126t91 101t117.5 67t145.5 24q75 0 142.5 -20t134.5 -62l12 51l162 -15q-11 -58 -21.5 -125t-19.5 -136.5t-16.5 -138.5t-13 -131.5t-8.5 -114.5t-3 -87 q0 -75 32 -116t107 -41z"/>
<glyph glyph-name="A" horiz-adv-x="1372" unicode="A" d="M450 598h468l-230 694zM974 430h-582l-156 -457l-195 45l541 1465l223 12l526 -1487l-205 -35z"/>
<glyph glyph-name="B" horiz-adv-x="1288" unicode="B" d="M354 844h221q166 0 257.5 63.5t91.5 198.5q0 112 -84 172.5t-248 60.5q-13 0 -41.5 -0.5t-63 -1.5t-70 -2.5t-63.5 -3.5v-487zM354 158q48 -5 116.5 -8t156.5 -3q87 0 158.5 14.5t121.5 46.5t77.5 83.5t27.5 126.5q0 68 -29 118t-82.5 83t-129 49t-169.5 16h-248v-526z M51 1483q105 8 189.5 12.5t153 6.5t122 2.5t96.5 0.5q131 0 228 -26.5t161 -76t95.5 -120t31.5 -158.5q0 -61 -19.5 -116t-54 -100t-82 -78t-102.5 -50q73 -12 136.5 -39t110 -71t73.5 -105.5t27 -142.5q0 -105 -38 -187t-110 -137.5t-177 -84.5t-239 -29q-46 0 -108.5 1.5 t-130 3.5t-133 4.5t-117.5 4.5v1321l-113 -8v172z"/>
<glyph glyph-name="C" horiz-adv-x="1350" unicode="C" d="M1135 1174q-70 74 -160 117.5t-209 43.5q-89 0 -171.5 -31.5t-145.5 -102.5t-100.5 -187t-37.5 -285q0 -163 40 -274t104 -179.5t144 -98.5t161 -30q53 0 101 7t95.5 24t96.5 45t104 70l80 -154q-42 -35 -93.5 -65t-111.5 -52.5t-127.5 -35.5t-140.5 -13 q-147 0 -269 50.5t-209.5 147t-135.5 237.5t-48 321t48.5 325t136 246.5t208.5 156t265 54.5q147 0 272 -47t225 -153z"/>
<glyph glyph-name="D" horiz-adv-x="1405" unicode="D" d="M1094 754q0 153 -39 264t-109.5 183t-169 106t-217.5 34q-24 0 -53 -1t-57.5 -2.5t-53.5 -3.5t-41 -3v-1171q48 -5 93.5 -7.5t105.5 -2.5q114 0 213 32.5t172 104.5t114.5 187t41.5 280zM51 1481q59 4 134.5 8.5t149 8.5t135.5 6.5t95 2.5q163 0 299 -46t233.5 -139 t151.5 -234.5t54 -331.5q0 -184 -53.5 -327.5t-152 -242.5t-238.5 -150.5t-312 -51.5q-97 0 -193 3.5t-190 12.5v1319l-113 -8v170z"/>
<glyph glyph-name="E" horiz-adv-x="1165" unicode="E" d="M358 842h588v-168h-588v-516l684 20l-14 -178h-870q1 24 2 63.5t2 86.5t2.5 97t2 95.5t1 82t0.5 56.5v344q0 72 -0.5 145.5t-1.5 139.5t-3 120.5t-5 88.5l-107 10v152l991 26l-14 -180h-674q1 -33 2 -70t1.5 -73t0.5 -69v-58v-215z"/>
<glyph glyph-name="F" horiz-adv-x="1110" unicode="F" d="M354 829h549l-18 -167h-531v-662h-200q1 24 2 63.5t2 86.5t2.5 97t2 95.5t1 82t0.5 56.5v344q0 72 -0.5 145.5t-1.5 139.5t-3 120.5t-5 88.5l-107 10v152l991 26l-14 -180h-674q1 -33 2 -70t1.5 -73t0.5 -69v-58v-228z"/>
<glyph glyph-name="G" horiz-adv-x="1440" unicode="G" d="M1288 117q-99 -65 -220.5 -104.5t-272.5 -39.5q-156 0 -284 52t-218.5 149.5t-140.5 237t-50 315.5q0 190 51.5 336t143.5 245.5t220.5 151t283.5 51.5q66 0 132 -9t130 -31t125.5 -60t118.5 -96l-125 -139q-48 46 -95.5 77t-96 49.5t-99 26.5t-105.5 8q-128 0 -218 -48 t-147 -129.5t-83.5 -189.5t-26.5 -229q0 -164 41 -276.5t109.5 -182.5t157.5 -101t184 -31q88 0 160 17t135 52v346l-314 -12v178h504v-614z"/>
<glyph glyph-name="H" horiz-adv-x="1421" unicode="H" d="M1067 674h-713v-674h-200q1 24 2 63.5t2 86.5t2.5 97t2 95.5t1 82t0.5 56.5v344q0 109 -1 200.5t-2.5 172t-3 152.5t-3.5 141h200v-649h713v649h201q-2 -69 -4 -141t-3.5 -152.5t-2.5 -172t-1 -200.5v-344q0 -20 0.5 -56.5t1.5 -82t2 -95.5t2.5 -97t2.5 -86.5t2 -63.5 h-201v674z"/>
<glyph glyph-name="I" horiz-adv-x="555" unicode="I" d="M174 0q1 24 2 63.5t2 86.5t2.5 97t2 95.5t1 82t0.5 56.5v344q0 109 -1 200.5t-2.5 172t-3 152.5t-3.5 141h207q-2 -69 -3.5 -141t-3 -152.5t-2.5 -172t-1 -200.5v-344q0 -20 0.5 -56.5t1 -82t2 -95.5t2.5 -97t2 -86.5t2 -63.5h-207z"/>
<glyph glyph-name="J" horiz-adv-x="956" unicode="J" d="M784 1491q8 -131 13.5 -260.5t9 -248t5 -222.5t1.5 -185q0 -167 -24 -282t-72 -186t-120 -102.5t-169 -31.5q-106 0 -195 27t-170 78l93 158q16 -13 34.5 -23.5t38.5 -19.5q35 -17 81.5 -30t103.5 -13t97 24.5t65 80t36 145.5t11 221q0 174 -7.5 346t-21.5 356h-365v168 h555z"/>
<glyph glyph-name="K" horiz-adv-x="1341" unicode="K" d="M354 747l695 764l211 -49l-554 -583l586 -834l-219 -59l-497 757l-222 -235v-508h-200q1 24 2 63.5t2 86.5t2.5 97t2 95.5t1 82t0.5 56.5v344q0 109 -1 200.5t-2.5 172t-3 152.5t-3.5 141h200v-744z"/>
<glyph glyph-name="L" horiz-adv-x="1110" unicode="L" d="M358 166l691 22v-188h-895q1 24 2 63.5t2 86.5t2.5 97t2 95.5t1 82t0.5 56.5v344q0 109 -1 200.5t-2.5 172t-3 152.5t-3.5 141h204v-1325z"/>
<glyph glyph-name="M" horiz-adv-x="1741" unicode="M" d="M1577 1491v-1010q0 -20 0.5 -56.5t1 -82t2 -95.5t2.5 -97t2 -86.5t2 -63.5h-192v1284l-447 -1083l-155 -13l-447 1100v-1288h-192q1 24 2 63.5t2 86.5t2.5 97t2 95.5t1 82t0.5 56.5v344q0 146 -2 309t-8 357h313l410 -1032l415 1032h285z"/>
<glyph glyph-name="N" horiz-adv-x="1479" unicode="N" d="M1325 1491q-4 -86 -7 -171.5t-4.5 -164.5t-2 -148.5t-0.5 -123.5v-877l-234 -16l-729 1294v-1284h-194q1 24 2 63.5t2 86.5t2.5 97t2 95.5t1 82t0.5 56.5v998l280 12l684 -1200v1200h197z"/>
<glyph glyph-name="O" horiz-adv-x="1507" unicode="O" d="M754 -27q-155 0 -276.5 59t-205 162.5t-127 243.5t-43.5 303q0 107 19.5 205.5t57.5 184t94 156t128 120t160.5 77t192.5 27.5q103 0 191.5 -27.5t161 -77t128 -120t93.5 -156t57.5 -184t19.5 -205.5q0 -164 -43.5 -304t-127 -243.5t-204.5 -162t-276 -58.5zM754 147 q111 0 194 46.5t138 126.5t82.5 188.5t27.5 232.5t-27.5 233t-83 189.5t-138 127t-193.5 46.5t-194 -46.5t-138.5 -127t-83 -189.5t-27.5 -233t27.5 -232.5t82.5 -188.5t138.5 -126.5t194.5 -46.5z"/>
<glyph glyph-name="P" horiz-adv-x="1219" unicode="P" d="M942 1044q0 149 -101.5 221t-299.5 72q-42 0 -87.5 -1.5t-99.5 -6.5v-624q18 -1 41.5 -2t49 -1.5t52 -1t50.5 -0.5q198 0 296.5 90.5t98.5 253.5zM51 1481q94 8 203.5 16t245.5 8q322 0 486.5 -114t164.5 -355q0 -120 -42.5 -213.5t-119 -158t-183.5 -98.5t-235 -34 q-54 0 -105.5 2t-111.5 5v-539h-190v1319l-113 -8v170z"/>
<glyph glyph-name="Q" horiz-adv-x="1507" unicode="Q" d="M754 -27q-155 0 -276.5 59t-205 162.5t-127 243.5t-43.5 303q0 107 19.5 205.5t57.5 184t94 156t128 120t160.5 77t192.5 27.5q103 0 191.5 -27.5t161 -77t128 -120t93.5 -156t57.5 -184t19.5 -205.5q0 -164 -43 -304q-44 -139 -128 -243q-8 -9 -15 -19q31 -31 63 -62 q72 -68 141 -123l-155 -113l-177 188q-29 -17 -61 -33q-121 -58 -276 -59zM754 147q111 1 194 47l14 8l-176 187l136 125q40 -55 98 -123q31 -36 64 -73l2 2q55 80 82.5 188.5t27.5 232.5t-27.5 233t-83 189.5t-138 127t-193.5 46.5t-194 -46.5t-138.5 -127t-83 -189.5 t-27.5 -233t27.5 -232.5t82.5 -188.5t138.5 -126.5t194.5 -46.5z"/>
<glyph glyph-name="R" horiz-adv-x="1219" unicode="R" d="M922 1077q0 61 -22 109.5t-69 82t-121 51t-178 17.5q-38 0 -84 -1.5t-94 -6.5v-557h160q102 0 178.5 17t127.5 54t76.5 95t25.5 139zM51 1483q68 5 120.5 9t102 7t104 4.5t126.5 1.5q128 0 242 -20.5t199.5 -69.5t135 -130.5t49.5 -203.5q0 -90 -27.5 -162.5 t-76.5 -127.5t-117 -93t-149 -60l377 -599l-199 -64l-357 635q-16 -2 -32 -2h-33h-162v-608h-190v1319l-113 -8v172z"/>
<glyph glyph-name="S" horiz-adv-x="1241" unicode="S" d="M344 1116q0 -49 19 -86.5t57 -68.5t95 -58t134 -55q59 -22 117.5 -45.5t111 -51.5t97.5 -61.5t78.5 -77t52 -97.5t18.5 -122q0 -104 -37.5 -182.5t-104 -131t-157.5 -79.5t-198 -27q-157 0 -288 44.5t-237 138.5l121 157q51 -51 102 -83.5t103 -52t104.5 -27t106.5 -7.5 q67 0 119.5 17t89.5 48t56.5 74.5t19.5 96.5q0 52 -20.5 92.5t-65 75t-115.5 67t-172 68.5q-85 31 -159.5 65.5t-129.5 82t-87 113t-32 157.5q0 85 32 160t95.5 130.5t158.5 88t222 32.5q74 0 141 -13.5t126.5 -36.5t112 -55t97.5 -69l-118 -145q-82 72 -174 110.5 t-201 38.5q-73 0 -127.5 -17t-91 -47t-54.5 -71.5t-18 -89.5z"/>
<glyph glyph-name="T" horiz-adv-x="1286" unicode="T" d="M739 481q0 -20 0.5 -56.5t1.5 -82t2 -95.5t2.5 -97t2.5 -86.5t2 -63.5h-213q1 24 2 63.5t2 86.5t2.5 97t2 95.5t1 82t0.5 56.5v842h-516v168h1224v-168h-516v-842z"/>
<glyph glyph-name="U" horiz-adv-x="1376" unicode="U" d="M688 -27q-147 0 -252 43t-172.5 132t-99 224.5t-31.5 321.5q0 78 4.5 281.5t18.5 515.5h196q-5 -97 -9.5 -204t-7.5 -209t-5 -190.5t-2 -148.5q0 -129 13 -222.5t36.5 -159t57 -106t73.5 -63t85.5 -30.5t94.5 -8t95 8t86 30.5t73 63t57 106t37 159t13 222.5 q0 60 -2 148.5t-5.5 190.5t-8 209t-9.5 204h197q14 -312 18 -515.5t4 -281.5q0 -186 -31.5 -321.5t-99 -224.5t-172.5 -132t-252 -43z"/>
<glyph glyph-name="V" horiz-adv-x="1427" unicode="V" d="M72 1462l207 51l440 -1280l434 1274l203 -30l-537 -1477l-207 -10z"/>
<glyph glyph-name="W" horiz-adv-x="1911" unicode="W" d="M868 1229l187 14l311 -1003l268 1267l195 -41l-342 -1474l-225 -10l-304 960l-305 -944l-221 -12l-350 1484l203 41l268 -1269z"/>
<glyph glyph-name="X" horiz-adv-x="1364" unicode="X" d="M803 774l489 -745l-223 -60l-385 662l-389 -662l-223 60l491 745l-469 696l219 41l373 -598l369 598l209 -57z"/>
<glyph glyph-name="Y" horiz-adv-x="1331" unicode="Y" d="M1059 1518l201 -52l-498 -901v-565h-193v565l-497 901l200 52l394 -775z"/>
<glyph glyph-name="Z" horiz-adv-x="1343" unicode="Z" d="M154 1303v188h1067v-174l-861 -1157l846 24v-184h-1104v125l895 1208z"/>
<glyph glyph-name="bracketleft" horiz-adv-x="623" unicode="[" d="M551 -285v-155h-387v1951h387v-155h-205v-1641h205z"/>
<glyph glyph-name="backslash" horiz-adv-x="991" unicode="\" d="M688 -127l-565 1630l182 8l563 -1622z"/>
<glyph glyph-name="bracketright" horiz-adv-x="623" unicode="]" d="M72 -285h205v1641h-205v155h387v-1951h-387v155z"/>
<glyph glyph-name="asciicircum" horiz-adv-x="1253" unicode="^" d="M1151 682l-195 -29l-329 623l-330 -623l-195 29l439 764h172z"/>
<glyph glyph-name="underscore" horiz-adv-x="1028" unicode="_" d="M-10 -283v129h1048v-129h-1048z"/>
<glyph glyph-name="grave" horiz-adv-x="864" unicode="`" d="M571 1245l-331 354l268 17l217 -332z"/>
<glyph glyph-name="a" horiz-adv-x="1178" unicode="a" d="M813 508q0 97 3 186t11 170q-51 42 -112.5 59t-136.5 17q-62 0 -115 -26.5t-91 -80t-59.5 -133.5t-21.5 -188q0 -114 23.5 -187.5t60.5 -116.5t83 -60t91 -17q66 0 134 29.5t130 103.5v244zM1034 1061q-5 -39 -12 -87t-13.5 -106t-11 -127.5t-4.5 -152.5v-133 q0 -36 2.5 -91t8 -115t14 -117.5t20.5 -98.5l-184 -41l-23 135q-25 -27 -57.5 -54.5t-71.5 -49.5t-85 -36t-97 -14q-89 0 -167 29t-136 93t-91.5 164.5t-33.5 244.5q0 150 41.5 260.5t109 183t152 107.5t170.5 35q78 0 144.5 -20t132.5 -66l12 69z"/>
<glyph glyph-name="b" horiz-adv-x="1165" unicode="b" d="M354 596q0 -45 -1.5 -98t-4 -107t-6 -105.5t-8.5 -92.5q18 -15 44 -28.5t55 -23t59.5 -15t58.5 -5.5q32 0 68.5 6.5t72.5 24t69 48t58 78.5t40 115t15 158t-19.5 163t-56 122t-88.5 77t-116 27q-27 0 -58.5 -6t-63.5 -18t-62.5 -30.5t-55.5 -43.5v-246zM322 1499 q3 -25 6.5 -64.5t7 -87.5t7 -101t6 -103.5t4 -95t1.5 -76.5q22 23 53 44.5t68.5 38t81 26.5t90.5 10q100 0 179 -41.5t134 -114t84 -170t29 -209.5q0 -133 -36 -240.5t-103.5 -183.5t-164 -117t-216.5 -41q-60 0 -120.5 13t-114 34t-97.5 48.5t-71 56.5q7 64 11.5 139.5 t7.5 145.5t4 126t1 80v197q0 30 -1 76t-3 102t-6 118t-9 125t-12 123.5t-16 112.5z"/>
<glyph glyph-name="c" horiz-adv-x="1001" unicode="c" d="M838 821q-57 60 -118.5 87.5t-133.5 27.5q-62 0 -116 -27.5t-94 -79.5t-62.5 -125.5t-22.5 -166.5q0 -92 21 -167.5t59.5 -129.5t93.5 -83.5t123 -29.5q36 0 69.5 5.5t68 18t72.5 34.5t83 55l69 -127q-78 -66 -169 -103t-203 -37q-120 0 -211 45.5t-152 120.5t-92 172 t-31 201q0 126 36 232t100.5 183t153.5 120t196 43q109 0 200 -36t166 -114z"/>
<glyph glyph-name="d" horiz-adv-x="1174" unicode="d" d="M819 870q-48 34 -107 52t-134 18q-62 0 -115 -26.5t-91 -80t-59.5 -133.5t-21.5 -188q0 -114 23.5 -187.5t60.5 -116.5t83 -60t91 -17q66 0 133.5 30t136.5 111v598zM999 446q0 -20 1 -51t3 -68t5 -78t7.5 -81t10 -77t12.5 -66l-184 -39l-23 141q-25 -27 -57.5 -54.5 t-71.5 -49.5t-85 -36t-97 -14q-89 0 -167 29t-136 93t-91.5 164.5t-33.5 244.5q0 150 41.5 260.5t109 183t152 107.5t170.5 35q77 0 138 -18t126 -60q0 23 2 75.5t5 118.5t7 137.5t9 131.5l188 16q-6 -71 -13 -162t-13.5 -190t-10.5 -198.5t-4 -186.5v-308z"/>
<glyph glyph-name="e" horiz-adv-x="1106" unicode="e" d="M573 942q-51 0 -99.5 -19.5t-88 -60.5t-66.5 -104t-34 -150l522 23q2 11 2 21.5v21.5q0 129 -59 198.5t-177 69.5zM285 475q4 -77 25.5 -141t60 -110t94 -71.5t127.5 -25.5q42 0 78.5 5t72 17.5t73.5 33.5t83 53l62 -132q-91 -72 -184.5 -101.5t-201.5 -29.5 q-117 0 -207.5 42.5t-151.5 116t-92.5 173.5t-31.5 215q0 130 38.5 235t105 179.5t156.5 115t192 40.5q73 0 131 -17.5t102.5 -48t76 -72t51.5 -89t29 -99t9 -102.5q0 -48 -5 -99t-13 -88h-680z"/>
<glyph glyph-name="f" horiz-adv-x="719" unicode="f" d="M379 0h-191q1 19 2 57t2.5 84.5t2.5 98t2 98.5t1.5 85t0.5 58v420h-158v139l152 11v49q0 110 29.5 187.5t79 127t113.5 72t132 22.5q67 0 123.5 -13.5t89.5 -27.5l-51 -149q-39 20 -81.5 29.5t-88.5 9.5q-74 0 -117 -51.5t-43 -169.5v-90l233 16v-162h-233v-901z"/>
<glyph glyph-name="g" horiz-adv-x="1184" unicode="g" d="M823 868q-60 42 -119.5 57t-125.5 15q-65 0 -117.5 -28.5t-89.5 -82t-57.5 -131t-20.5 -174.5q0 -105 22 -174.5t57.5 -110.5t80.5 -58t92 -17q28 0 61 6t68.5 22.5t73 46.5t75.5 78v551zM1004 158q0 -136 -21.5 -246.5t-76 -188.5t-147 -120.5t-233.5 -42.5 q-65 0 -121 8.5t-104 22t-87.5 31t-70.5 34.5l80 184q33 -26 65.5 -48t69.5 -37.5t80 -24.5t97 -9q67 0 120 16.5t90.5 57.5t57.5 112t20 179v66q-30 -32 -62.5 -59t-70 -46.5t-81.5 -30t-97 -10.5q-107 0 -186 40.5t-131 109.5t-77.5 161.5t-25.5 196.5q0 136 39 243 t104 181t151 113t181 39q75 0 142.5 -19.5t132.5 -69.5l12 72l180 -12q-8 -57 -13.5 -117t-9.5 -127t-5.5 -143t-1.5 -164v-352z"/>
<glyph glyph-name="h" horiz-adv-x="1200" unicode="h" d="M330 1499q4 -38 7 -88.5t5.5 -105t3.5 -110t2 -105t1.5 -88.5t0.5 -60q63 66 149 107t195 41q353 0 353 -455q0 -61 -1.5 -133.5t-4 -154t-6 -169t-7.5 -178.5h-184q4 83 7.5 155.5t6.5 141.5t4.5 138t1.5 145q0 82 -9.5 146t-34 108t-66 67t-105.5 23q-49 0 -93 -12 t-81.5 -31.5t-68 -44.5t-52.5 -50v-786h-190q1 19 2 57t2 84.5t2.5 98t2 98.5t1 85t0.5 58v88v115t-1.5 145t-3.5 163.5t-6.5 171t-10.5 166.5t-15 151z"/>
<glyph glyph-name="i" horiz-adv-x="537" unicode="i" d="M135 1393q0 57 28 90t97 33t98 -33t29 -90q0 -51 -29 -83t-98 -32q-68 0 -96.5 32t-28.5 83zM356 1085v-725q0 -97 3 -187.5t8 -172.5h-193q1 19 2 57t1.5 84.5t1 98t1 98.5t0.5 85v58v101q0 46 -1.5 104.5t-4.5 122t-6.5 128.5t-7.5 124z"/>
<glyph glyph-name="j" horiz-adv-x="514" unicode="j" d="M342 1077q4 -87 8 -181t7.5 -190t5.5 -191t2 -185v-187q0 -158 -19 -269t-59 -181t-103 -101.5t-151 -31.5q-45 0 -84.5 6t-81.5 18l47 172q28 -14 59 -20t62 -6q38 0 67 18.5t48 65t28.5 126t9.5 201.5v183q0 147 -7.5 329t-30.5 406zM104 1393q0 57 28 90t97 33 q70 0 98.5 -33t28.5 -90q0 -51 -28.5 -83t-98.5 -32q-68 0 -96.5 32t-28.5 83z"/>
<glyph glyph-name="k" horiz-adv-x="1065" unicode="k" d="M354 595l477 486l156 -90l-396 -366l433 -582l-207 -63l-343 537l-120 -111v-406h-190q1 19 2 57t2 84.5t2.5 98t2 98.5t1 85t0.5 58v213q0 114 -2.5 225t-7 212.5t-11.5 190.5t-16 159l193 18q4 -37 7.5 -93t6 -124.5t4.5 -146t3.5 -159t2 -163.5t0.5 -158v-60z"/>
<glyph glyph-name="l" horiz-adv-x="606" unicode="l" d="M365 1499q-4 -89 -7.5 -186.5t-7 -197.5t-6 -199.5t-4.5 -192.5t-3 -176t-1 -150q0 -84 7 -134.5t20 -78t32.5 -36.5t44.5 -9q22 0 44.5 7t39.5 16l41 -137q-32 -16 -75.5 -27.5t-94.5 -11.5q-128 0 -184.5 87.5t-56.5 254.5q0 100 2.5 235.5t6 288.5t8 315.5t9.5 317.5z "/>
<glyph glyph-name="m" horiz-adv-x="1765" unicode="m" d="M1612 629q0 -76 -1.5 -146t-4 -144t-6 -156.5t-7.5 -182.5h-184q3 67 6.5 133.5t7 137t5.5 146t2 161.5q0 82 -8.5 146.5t-30.5 108.5t-60 67.5t-96 23.5q-79 0 -144.5 -30.5t-113.5 -75.5q7 -38 10.5 -79.5t3.5 -89.5v-649h-180v578q0 82 -8 146.5t-29 108.5t-56.5 67.5 t-90.5 23.5q-42 0 -81 -12t-73 -31.5t-62.5 -44.5t-50.5 -50v-786h-190q1 19 2 57t2 84.5t2.5 98t2 98.5t1 85t0.5 58v101q0 94 -8.5 206.5t-28.5 253.5l195 35l14 -137q30 28 64 55t73.5 48t85.5 34t101 13q94 0 158 -35t102 -110q30 27 66.5 53t79.5 46.5t91 33t101 12.5 q82 0 145 -26.5t106 -82.5t65 -143.5t22 -208.5z"/>
<glyph glyph-name="n" horiz-adv-x="1206" unicode="n" d="M338 1077l14 -139q66 72 154.5 112t200.5 40q178 0 262 -114.5t84 -346.5q0 -69 -1.5 -135.5t-4 -140t-6 -159.5t-7.5 -194h-184q8 141 14 285t6 293q0 82 -9.5 146.5t-34 108.5t-66 67.5t-105.5 23.5q-85 0 -161.5 -36t-133.5 -102v-786h-190q1 19 2 57t2 84.5t2.5 98 t2 98.5t1 85t0.5 58v72q0 100 -7 224t-30 265z"/>
<glyph glyph-name="o" horiz-adv-x="1178" unicode="o" d="M588 936q-58 0 -111.5 -24t-95 -73t-66 -124t-24.5 -178q0 -106 22.5 -183.5t62 -127.5t92.5 -74.5t114 -24.5q60 0 115 24t97 74t67.5 127.5t25.5 184.5q0 98 -24 172.5t-65.5 125t-95.5 76t-114 25.5zM588 -27q-120 0 -212.5 44.5t-155.5 120t-95.5 175.5t-32.5 211 q0 116 33 219t96.5 180t155.5 122t211 45q111 0 202.5 -40.5t157 -113.5t101.5 -174.5t36 -222.5q0 -108 -30.5 -210t-92.5 -181t-155.5 -127t-218.5 -48z"/>
<glyph glyph-name="p" horiz-adv-x="1174" unicode="p" d="M182 573q0 142 -10.5 256.5t-26.5 212.5l195 35l14 -119q24 28 53.5 52.5t66.5 42t82.5 27.5t102.5 10q84 0 160.5 -35t134.5 -101.5t92.5 -164.5t34.5 -224q0 -136 -36 -245.5t-100.5 -186.5t-155 -118.5t-199.5 -41.5q-69 0 -129 20.5t-105 51.5v-485h-204q9 90 15 201 t9 240t4.5 273t1.5 299zM362 174q13 -9 33 -18.5t44 -17t51.5 -12.5t56.5 -5q90 0 153.5 31.5t104 89t59.5 138.5t19 179q0 81 -18 150.5t-54 119.5t-90 78.5t-127 28.5q-31 0 -64 -8.5t-64.5 -22.5t-58.5 -32.5t-45 -38.5v-660z"/>
<glyph glyph-name="q" horiz-adv-x="1176" unicode="q" d="M823 868q-59 42 -117.5 57t-127.5 15q-65 0 -117.5 -29.5t-90.5 -84t-58.5 -133t-20.5 -175.5q0 -111 22 -185.5t58 -119.5t81.5 -63.5t92.5 -18.5q28 0 61 6t68.5 23t73 47t75.5 78v583zM1004 158v-71.5t1 -95.5t1.5 -109.5t2.5 -114.5t4 -110.5t5 -96.5h-195v549 q-58 -60 -133.5 -98t-181.5 -38q-107 0 -185.5 40.5t-129.5 112.5t-76 170t-25 212q0 140 39.5 248.5t105 182.5t151 112.5t177.5 38.5q78 0 143.5 -19.5t133.5 -69.5l12 72l174 -12q-7 -45 -11.5 -106t-7.5 -126.5t-4 -130t-1 -116.5v-424z"/>
<glyph glyph-name="r" horiz-adv-x="793" unicode="r" d="M360 0h-190q1 19 2 57t2 84.5t2.5 98t2 98.5t1 85t0.5 58v101q0 46 -1.5 91t-5 98t-11 118.5t-19.5 152.5l197 35l12 -184q48 94 121 145.5t176 51.5q34 0 65.5 -5.5t57.5 -17.5l-39 -174q-37 12 -62 16t-59 4q-51 0 -97 -20.5t-80.5 -57t-54.5 -86.5t-20 -108v-641z"/>
<glyph glyph-name="s" horiz-adv-x="1001" unicode="s" d="M311 791q0 -36 19.5 -62t52 -45.5t75 -34.5t87.5 -28q39 -13 80.5 -27.5t80.5 -33.5t74 -43.5t61 -57t41 -74.5t15 -96q0 -78 -31 -137.5t-85.5 -99t-128 -59.5t-158.5 -20q-126 0 -226.5 38.5t-185.5 107.5l104 141q81 -78 158.5 -108.5t149.5 -30.5q51 0 92.5 11t71 31 t45.5 49.5t16 66.5q0 39 -19.5 66.5t-56.5 49.5t-91 41t-124 41q-64 21 -118 44t-93.5 57t-61.5 83t-22 121q0 64 25.5 120t74.5 98t121.5 66t167.5 24q58 0 109.5 -10t97 -27.5t84 -40.5t70.5 -49l-90 -140q-63 54 -131.5 86.5t-149.5 32.5q-97 0 -149 -39.5t-52 -111.5z "/>
<glyph glyph-name="t" horiz-adv-x="692" unicode="t" d="M610 23q-22 -12 -46 -19.5t-47 -11t-43.5 -5t-35.5 -1.5q-70 0 -119 22.5t-80 62.5t-45 96t-14 124q0 25 0.5 70t2 100.5t2.5 117.5t2.5 121.5t3 113t2.5 91.5h-152v133l162 13v256l190 45l-16 -303l229 14v-158h-231q-3 -39 -5 -92t-3.5 -111.5t-2.5 -118.5t-1.5 -113 t-0.5 -95v-64q0 -91 29.5 -130.5t89.5 -39.5q26 0 47.5 4.5t49.5 18.5z"/>
<glyph glyph-name="u" horiz-adv-x="1206" unicode="u" d="M868 -14l-14 139q-66 -72 -155.5 -112t-198.5 -40q-178 0 -262 115.5t-84 345.5q0 69 1.5 135.5t3.5 140t5.5 159.5t7.5 194h184q-8 -141 -14 -285t-6 -293q0 -82 9.5 -146.5t34 -108.5t66 -67.5t105.5 -23.5q85 0 161.5 35.5t133.5 101.5v787h190q-1 -20 -2 -57.5 t-2 -84t-2.5 -98t-2 -98.5t-1 -85t-0.5 -58v-72q0 -100 7 -224t30 -266z"/>
<glyph glyph-name="v" horiz-adv-x="1087" unicode="v" d="M629 -8h-174l-410 1050l195 35l307 -876l305 876l190 -30z"/>
<glyph glyph-name="w" horiz-adv-x="1518" unicode="w" d="M1178 2h-158l-256 643l-258 -645h-158l-307 1057l192 33l207 -854l248 643h154l252 -635l198 846l185 -33z"/>
<glyph glyph-name="x" horiz-adv-x="1083" unicode="x" d="M543 436l-320 -465l-182 47l403 539l-344 500l201 33l262 -418l273 418l188 -37l-354 -496l372 -545l-198 -41z"/>
<glyph glyph-name="y" horiz-adv-x="1085" unicode="y" d="M37 1042l201 35l325 -831l287 831l192 -30l-395 -1014q-45 -114 -85.5 -202t-88.5 -148t-109 -91.5t-147 -31.5q-40 0 -75.5 7t-62.5 15q-16 5 -30.5 10.5t-28.5 12.5l66 157q16 -12 39 -21q19 -8 44.5 -14t55.5 -6q63 0 115.5 54.5t99.5 183.5l31 84z"/>
<glyph glyph-name="z" horiz-adv-x="1071" unicode="z" d="M154 885v178h784v-156l-594 -760l580 25v-172h-801v137l612 785z"/>
<glyph glyph-name="braceleft" horiz-adv-x="895" unicode="{" d="M147 631q52 0 86.5 20.5t54.5 64t28 110.5t8 159v119q0 195 92.5 301t283.5 106h93v-161h-60q-71 0 -115 -18.5t-68 -53.5t-32 -84.5t-8 -110.5v-94q0 -102 -8.5 -174.5t-27 -124.5t-47 -87.5t-67.5 -63.5q39 -29 67.5 -65t47 -87.5t27 -124t8.5 -174.5v-94q0 -62 8 -111 t32 -83.5t68 -53t115 -18.5h60v-162h-93q-191 0 -283.5 106t-92.5 301v119q0 92 -8 159t-28 110.5t-54.5 64t-86.5 20.5h-45v185h45z"/>
<glyph glyph-name="bar" horiz-adv-x="616" unicode="|" d="M205 -440v1951h207l-29 -1951h-178z"/>
<glyph glyph-name="braceright" horiz-adv-x="895" unicode="}" d="M748 631h45v-185h-45q-52 0 -86 -20t-55 -64q-20 -44 -28 -111t-8 -159v-119q0 -195 -92 -301t-284 -106h-93v162h60q71 0 115 18t68 54q24 34 32 83t8 111v94q0 102 9 174q8 72 27 124q18 52 47 88q28 36 67 65q-39 27 -67 63t-47 88q-18 52 -27 124q-8 72 -9 175v94 q0 61 -8 111t-32 84q-24 36 -68 54t-115 18h-60v161h93q191 0 284 -106q92 -106 92 -301v-119q0 -92 8 -159q8 -66 28 -110t55 -64q34 -20 86 -21z"/>
<glyph glyph-name="asciitilde" horiz-adv-x="1278" unicode="~" d="M846 457q-46 0 -82 9.5t-68 24t-62 31t-62 31t-69.5 24t-84.5 9.5q-67 0 -125 -31t-109 -76l-82 137q79 75 157.5 108.5t168.5 33.5q73 0 127 -20t101 -44.5t94 -44.5t106 -20q33 0 64 8.5t59.5 23t55 34t52.5 40.5l89 -137q-79 -75 -160.5 -108t-169.5 -33z"/>
<glyph glyph-name="uni00A0" horiz-adv-x="451" unicode=" "/>
<glyph glyph-name="exclamdown" horiz-adv-x="604" unicode="¡" d="M168.026 960.007q0 58.9971 29.998 93.9941q29.999 34.998 100.994 34.998q74.9951 0 105.993 -34.498t30.998 -94.4941q0 -54.9961 -30.998 -89.9941t-105.993 -34.998q-69.9961 0 -100.494 34.998t-30.498 89.9941zM377.014 710.022l36.998 -1125.93h-221.986 l38.9971 1125.93h145.991z"/>
<glyph glyph-name="cent" horiz-adv-x="1024" unicode="¢" d="M285 608q0 -136 36.5 -223t100.5 -133l147 750q-59 -5 -111 -30.5t-90.5 -73.5t-60.5 -120t-22 -170zM858 889q-66 69 -143 96l-156 -782q11 -2 21.5 -2h21.5q36 0 70.5 5t70.5 18t74.5 34.5t83.5 54.5l72 -127q-79 -63 -173.5 -100t-209.5 -37q-31 0 -61 3l-66 -335 l-139 31l66 338q-74 31 -129.5 82.5t-93 117.5t-56.5 142t-19 156q0 124 37 229t103.5 181t158 118.5t199.5 42.5h9l63 322l147 -21l-64 -320q124 -33 222 -128z"/>
<glyph glyph-name="sterling" horiz-adv-x="1169" unicode="£" d="M127 793h158q-17 62 -33 127t-16 149q0 70 25 138.5t77.5 123.5t133.5 89t194 34q75 0 139.5 -13.5t118 -35t94.5 -48t69 -52.5l-114 -140q-39 39 -79 63.5t-78.5 38t-74.5 18.5t-67 5q-56 0 -102 -13.5t-79.5 -40.5t-52 -67.5t-18.5 -93.5q0 -35 5.5 -69.5t14 -69.5 t18.5 -70.5t19 -72.5h395v-154h-370q1 -11 1.5 -21.5t0.5 -21.5q0 -81 -16 -147.5t-41 -121t-55 -96.5t-58 -73l4 -11l682 31l14 -178h-944v147q63 47 113 112q21 27 41.5 61t36.5 74t26 86t10 98q0 31 -3 61h-189v154z"/>
<glyph glyph-name="yen" horiz-adv-x="1331" unicode="¥" d="M293 635h241l-462 786l200 52l394 -730l393 730l201 -52l-463 -786h243v-148h-284v-133h284v-147h-284v-207h-181v207h-282v147h282v133h-282v148z"/>
<glyph glyph-name="brokenbar" horiz-adv-x="623" unicode="¦" d="M205 266h192l-14 -706h-178v706zM401 821h-196v670h213z"/>
<glyph glyph-name="section" horiz-adv-x="1141" unicode="§" d="M836 514q0 62 -34.5 105t-89.5 76.5t-123 63t-135 63.5q-66 -29 -107.5 -84t-41.5 -130q0 -61 34.5 -104.5t89 -77.5t122.5 -63.5t135 -62.5q66 29 108 84t42 130zM791 -63q0 59 -28 102t-74 76.5t-105 60t-120 54t-120 58.5t-105 73t-74 98t-28 133q0 57 15 105t40 86.5 t58 68t70 51.5q-61 48 -99.5 113t-38.5 160q0 73 24.5 135t75.5 106t129 69t185 25q62 0 119.5 -11.5t109.5 -32t98 -47.5t85 -58l-101 -125q-69 63 -145.5 98t-167.5 35q-123 0 -183.5 -51t-60.5 -133q0 -60 28 -103t74 -76t105 -60t120 -54t120 -58.5t105 -73.5t74 -98 t28 -133q0 -58 -15 -105.5t-40.5 -86t-58.5 -68t-70 -51.5q30 -24 55.5 -52t44 -61t28.5 -72.5t10 -86.5q0 -74 -24.5 -135.5t-75.5 -106t-129 -69.5t-184 -25q-63 0 -120.5 11.5t-109 31.5t-97.5 47t-85 59l100 125q69 -63 146 -98t168 -35q123 0 183.5 51t60.5 134z"/>
<glyph glyph-name="dieresis" horiz-adv-x="889" unicode="¨" d="M485 1397q0 52 30.5 85.5t90.5 33.5q57 0 88 -33.5t31 -85.5q0 -54 -29.5 -85.5t-89.5 -31.5t-90.5 31.5t-30.5 85.5zM104 1397q0 52 32 85.5t89 33.5t88 -33.5t31 -85.5q0 -54 -29.5 -85.5t-89.5 -31.5t-90.5 31.5t-30.5 85.5z"/>
<glyph glyph-name="copyright" horiz-adv-x="1907" unicode="©" d="M1225 899q-54 54 -109.5 77t-118.5 23q-59 0 -112.5 -22t-94 -65t-64.5 -105t-24 -143t24.5 -145t64.5 -109t91 -69t105 -24q34 0 66 4.5t65.5 16t69.5 30.5t78 48l65 -121q-72 -57 -160 -90t-194 -33q-114 0 -201 39.5t-145.5 105t-88.5 150t-30 174.5q0 110 34.5 202.5 t96.5 159.5t147.5 104.5t186.5 37.5q103 0 189.5 -31.5t158.5 -97.5zM283 635q0 -144 44.5 -272.5t130 -224.5t211 -152t287.5 -56t288 55.5t212.5 151t131 224t44.5 274.5t-45.5 274.5t-132 224.5t-212.5 151.5t-286 55.5q-161 0 -286 -56t-211 -152.5t-131 -225 t-45 -272.5zM102 635q0 120 27 230.5t79 205.5t126.5 172.5t169.5 132.5t208.5 85t243.5 30q195 0 352 -66t267.5 -181t169.5 -271.5t59 -337.5t-58.5 -337.5t-168.5 -271.5t-267 -181t-354 -66q-130 0 -244.5 30t-209 85t-169 132.5t-126 172.5t-78.5 205.5t-27 230.5z"/>
<glyph glyph-name="ordfeminine" horiz-adv-x="809" unicode="ª" d="M559 1130q0 63 1.5 111t6.5 100q-31 19 -61.5 31t-75.5 12q-40 0 -73.5 -16.5t-57.5 -48t-37.5 -78t-13.5 -106.5q0 -56 13.5 -97t36 -67t52.5 -38.5t62 -12.5q48 0 83.5 18.5t63.5 50.5v141zM745 1493q-8 -51 -18 -125.5t-10 -183.5v-88q0 -23 1.5 -59t5 -75t9.5 -77 t15 -66l-158 -26l-17 75q-40 -46 -85 -67t-111 -21q-57 0 -110 20.5t-94.5 63t-66 108.5t-24.5 156q0 99 29 171.5t75.5 119.5t103.5 69.5t113 22.5q57 0 99 -14.5t78 -40.5l10 45z"/>
<glyph glyph-name="guillemotleft" horiz-adv-x="1237" unicode="«" d="M930 999l184 -77l-299 -385l299 -385l-184 -78l-332 463zM434 999l184 -77l-299 -385l299 -385l-184 -78l-332 463z"/>
<glyph glyph-name="logicalnot" horiz-adv-x="1364" unicode="¬" d="M1206 680v-649h-180v477h-868v172h1048z"/>
<glyph glyph-name="registered" horiz-adv-x="1907" unicode="®" d="M1188 862q0 82 -61.5 119t-182.5 37h-24.5t-20.5 -0.5t-22 -1.5t-29 -2v-322h74q56 0 104.5 6.5t84.5 25.5t56.5 52t20.5 86zM600 1139q49 4 86.5 7t73 4.5t74 2t90.5 0.5q91 0 172.5 -14.5t142.5 -48.5t97 -88.5t36 -135.5q0 -59 -16.5 -106.5t-47 -84t-73 -61.5 t-94.5 -39l235 -380l-188 -41l-212 401h-128v-385h-172v836l-76 -5v138zM283 635q0 -144 44.5 -272.5t130 -224.5t211 -152t287.5 -56t288 55.5t212.5 151t131 224t44.5 274.5t-45.5 274.5t-132 224.5t-212.5 151.5t-286 55.5q-161 0 -286 -56t-211 -152.5t-131 -225 t-45 -272.5zM102 635q0 120 27 230.5t79 205.5t126.5 172.5t169.5 132.5t208.5 85t243.5 30q195 0 352 -66t267.5 -181t169.5 -271.5t59 -337.5t-58.5 -337.5t-168.5 -271.5t-267 -181t-354 -66q-130 0 -244.5 30t-209 85t-169 132.5t-126 172.5t-78.5 205.5t-27 230.5z"/>
<glyph glyph-name="macron" horiz-adv-x="1073" unicode="¯" d="M156 1430h643l-19 -150h-624v150z"/>
<glyph glyph-name="degree" horiz-adv-x="801" unicode="°" d="M553 1151q0 33 -10 62.5t-29 51.5t-47.5 35t-65.5 13q-36 0 -64.5 -13t-49 -35t-31 -51.5t-10.5 -62.5t9.5 -64t29 -55t50.5 -38.5t73 -14.5q32 0 59 14.5t46 38.5t29.5 55t10.5 64zM709 1147q0 -65 -22 -121t-62 -98t-97 -66t-127 -24q-77 0 -134.5 24t-96.5 65.5 t-58.5 97.5t-19.5 120t24 120.5t65.5 98.5t97.5 66t120 24q77 0 135 -24t97 -65.5t58.5 -97.5t19.5 -120z"/>
<glyph glyph-name="plusminus" horiz-adv-x="1364" unicode="±" d="M1241 180v-180h-1118v180h1118zM123 913h469v416h180v-416h469v-170h-469v-421h-180v421h-469v170z"/>
<glyph glyph-name="twosuperior" horiz-adv-x="885" unicode="²" d="M102 1356q63 75 154 115t209 40q75 0 132 -20t96 -54.5t59 -81.5t20 -100q0 -51 -12 -91.5t-36 -75t-60.5 -66.5t-85.5 -66q-63 -42 -128 -80t-122 -69l444 27v-154h-659v147q72 47 135 83.5t123 74.5q67 44 112 78.5t71 65t37 59.5t11 63q0 54 -35.5 85.5t-107.5 31.5 q-69 0 -134.5 -30.5t-117.5 -90.5z"/>
<glyph glyph-name="threesuperior" horiz-adv-x="868" unicode="³" d="M111 1411q19 15 50 32.5t73 32.5t94 25t112 10q64 0 119.5 -13t95.5 -39.5t63 -68t23 -98.5q0 -75 -45.5 -125.5t-142.5 -68.5q42 -9 77.5 -24.5t61 -39.5t39.5 -57t14 -78q0 -56 -19 -100.5t-58.5 -76t-101 -48.5t-146.5 -17q-56 0 -107.5 8t-95.5 20t-78.5 27.5 t-56.5 30.5l70 140q17 -11 36 -21.5t39 -19.5q35 -16 79 -28.5t95 -12.5q81 0 123.5 27t42.5 85q0 31 -15 53.5t-43 36.5t-66.5 20.5t-86.5 6.5h-86l-6 133h123q39 0 72.5 6t58 19.5t38 35t13.5 52.5q0 27 -11.5 44.5t-31.5 28t-47.5 15t-58.5 4.5q-40 0 -76 -7.5t-66 -19 t-53 -25.5t-37 -26z"/>
<glyph glyph-name="acute" horiz-adv-x="864" unicode="´" d="M217 1284l217 332l268 -17l-331 -354z"/>
<glyph glyph-name="mu" horiz-adv-x="1311" unicode="µ" d="M164 1063l194 10q-2 -34 -4 -81.5t-3.5 -101t-2.5 -109t-2 -105.5t-1.5 -90.5t-0.5 -63.5q0 -120 17.5 -195t50.5 -117t79 -57.5t103 -15.5q26 0 58 6t66 22.5t69 47t67 78.5v497v140.5t2 134.5l191 12q-3 -48 -5.5 -100.5t-4 -115.5t-2.5 -139t-1 -171 q0 -136 5.5 -213.5t16.5 -116t26.5 -48t35.5 -9.5q19 0 39 7t45 24l58 -138q-17 -15 -40.5 -27.5t-50.5 -22t-55.5 -14.5t-56.5 -5q-29 0 -58.5 6t-55.5 23.5t-46.5 48.5t-32.5 81q-49 -85 -115.5 -128.5t-154.5 -43.5q-48 0 -85 8t-67.5 25.5t-55 44t-46.5 62.5h-8l22 -488 h-190v1438z"/>
<glyph glyph-name="paragraph" horiz-adv-x="1247" unicode="¶" d="M1165 1272h-133v-1637l-162 -28v1665h-194v-1637l-160 -28v872q-75 10 -149 42t-133 86.5t-95.5 131t-36.5 176.5q0 127 41.5 222t112.5 158t166 94.5t203 31.5h540v-149z"/>
<glyph glyph-name="periodcentered" horiz-adv-x="616" unicode="·" d="M442 516q0 -59 -30 -94t-101 -35q-75 0 -106 34.5t-31 94.5q0 55 31 90t106 35q71 0 101 -35t30 -90z"/>
<glyph glyph-name="periodcentered" horiz-adv-x="616" unicode="∙" d="M442 516q0 -59 -30 -94t-101 -35q-75 0 -106 34.5t-31 94.5q0 55 31 90t106 35q71 0 101 -35t30 -90z"/>
<glyph glyph-name="cedilla" horiz-adv-x="807" unicode="¸" d="M389 86l98 -47l-24 -96q166 -34 166 -172q0 -91 -62.5 -137t-171.5 -46q-78 0 -134.5 17t-90.5 33l68 112q37 -25 77.5 -36t69.5 -11q54 0 78 22.5t24 57.5q0 24 -13.5 41.5t-38.5 29t-60 18.5t-78 11z"/>
<glyph glyph-name="onesuperior" horiz-adv-x="743" unicode="¹" d="M195 680v125l137 10v512l-154 -49l-37 143l357 90v-696l116 -12v-123h-419z"/>
<glyph glyph-name="ordmasculine" horiz-adv-x="836" unicode="º" d="M418 1380q-34 0 -64.5 -13t-54 -40.5t-37.5 -71.5t-14 -106t13 -106.5t35.5 -73t52.5 -42.5t65 -14t67 13.5t56 42t38.5 73.5t14.5 107q0 58 -13.5 101.5t-37 72.5t-55 43t-66.5 14zM418 782q-81 0 -143.5 29t-105 78t-65 114.5t-22.5 137.5q0 76 22.5 143t65.5 117.5 t105.5 80t142.5 29.5q74 0 136 -26.5t106.5 -74.5t69 -114t24.5 -145q0 -71 -21 -137t-63 -118t-105 -83t-147 -31z"/>
<glyph glyph-name="guillemotright" horiz-adv-x="1237" unicode="»" d="M307.057 74.0605l-183.988 76.9961l298.981 384.977l-298.981 384.977l183.988 77.9951l331.979 -462.972zM803.026 74.0605l-183.988 76.9961l298.981 384.977l-298.981 384.977l183.988 77.9951l331.979 -462.972z"/>
<glyph glyph-name="onequarter" horiz-adv-x="1808" unicode="¼" d="M154 680v125l137 10v512l-154 -49l-37 143l357 90v-696l116 -12v-123h-419zM1194 1415h193l-783 -1415h-200zM1214 258h265v350zM1630 799v-543l96 6l-14 -139h-84v-137h-155v137h-451v119l440 557h168z"/>
<glyph glyph-name="onehalf" horiz-adv-x="1872" unicode="½" d="M1163 1415h193l-783 -1415h-200zM155 680v125l137 10v512l-154 -49l-37 143l357 90v-696l116 -12v-123h-419zM1112 677q63 75 154 115t209 40q75 0 132 -20t96 -54.5t59 -81.5t20 -100q0 -51 -12 -91.5t-36 -75t-60.5 -66.5t-85.5 -66q-63 -42 -128 -80t-122 -69l444 27 v-154h-659v147q72 47 135 83.5t123 74.5q67 44 112 78.5t71 65t37 59.5t11 63q0 54 -35.5 85.5t-107.5 31.5q-69 0 -134.5 -30.5t-117.5 -90.5z"/>
<glyph glyph-name="threequarters" horiz-adv-x="1876" unicode="¾" d="M111 1411q19 15 50 32.5t73 32.5t94 25t112 10q64 0 119.5 -13t95.5 -39.5t63 -68t23 -98.5q0 -75 -45.5 -125.5t-142.5 -68.5q42 -9 77.5 -24.5t61 -39.5t39.5 -57t14 -78q0 -56 -19 -100.5t-58.5 -76t-101 -48.5t-146.5 -17q-56 0 -107.5 8t-95.5 20t-78.5 27.5 t-56.5 30.5l70 140q17 -11 36 -21.5t39 -19.5q35 -16 79 -28.5t95 -12.5q81 0 123.5 27t42.5 85q0 31 -15 53.5t-43 36.5t-66.5 20.5t-86.5 6.5h-86l-6 133h123q39 0 72.5 6t58 19.5t38 35t13.5 52.5q0 27 -11.5 44.5t-31.5 28t-47.5 15t-58.5 4.5q-40 0 -76 -7.5t-66 -19 t-53 -25.5t-37 -26zM1298 1415h193l-783 -1415h-200zM1282 258h264v350zM1698 799v-543l96 6l-14 -139h-84v-137h-156v137h-450v119l440 557h168z"/>
<glyph glyph-name="questiondown" horiz-adv-x="1042" unicode="¿" d="M411.038 960.007q0 58.9971 29.999 93.9941q29.998 34.998 100.993 34.998q75.9951 0 106.994 -34.498q30.998 -34.498 30.998 -94.4941q0 -53.9961 -31.498 -89.4941t-106.494 -35.498q-69.9951 0 -100.493 34.998q-30.499 34.998 -30.499 89.9941zM960.005 -171.924 q-46.9971 -67.9961 -115.993 -121.992q-28.998 -22.999 -65.9961 -44.998q-36.9971 -21.998 -81.9941 -38.9971q-44.998 -16.999 -97.4941 -27.499q-52.4971 -10.499 -113.493 -10.499q-94.9941 0 -169.99 25.499q-74.9951 25.498 -126.992 72.4951 q-51.9961 46.9971 -79.4951 112.493q-27.498 65.4961 -27.498 145.491q0 66.9961 17.499 117.993q17.499 50.9961 45.9971 90.9941q28.498 39.9971 64.9961 71.9951t74.4951 59.9971q37.998 27.998 74.4961 54.9961q36.4971 26.998 64.9961 57.4971 q28.498 30.498 45.9971 66.9951q17.499 36.498 17.499 84.4951q0 17.999 -1 45.9971t-3 53.9971l-4 64.9961h167.99l2.99902 -47.9971q2 -21.999 2.5 -51.4971t0.5 -63.4961q0 -84.9951 -28.498 -144.491t-71.4951 -103.994q-42.998 -44.4971 -92.4951 -80.4941 q-49.4971 -35.998 -92.4941 -74.4961q-42.9971 -38.4971 -71.4951 -85.9941q-28.499 -47.498 -28.499 -115.493q0 -53.9971 19.499 -91.4951q19.499 -37.4971 50.9971 -59.9961q31.498 -22.498 70.4961 -32.498q38.9971 -9.99902 77.9951 -9.99902q50.9971 0 95.4941 11.999 q44.4971 12 80.9951 30.998q36.4971 18.999 65.9961 41.998q29.498 22.998 50.4961 44.4971q20.999 21.499 34.498 38.9971q13.499 17.499 18.499 25.499z"/>
<glyph glyph-name="Agrave" horiz-adv-x="1372" unicode="À" d="M450 598h468l-230 694zM974 430h-582l-156 -457l-195 45l541 1465l223 12l526 -1487l-205 -35zM706 1589l-348 355l269 16l233 -332z"/>
<glyph glyph-name="Aacute" horiz-adv-x="1372" unicode="Á" d="M450 598h468l-230 694zM974 430h-582l-156 -457l-195 45l541 1465l223 12l526 -1487l-205 -35zM500 1628l234 332l268 -16l-348 -355z"/>
<glyph glyph-name="Acircumflex" horiz-adv-x="1372" unicode="Â" d="M450 598h468l-230 694zM974 430h-582l-156 -457l-195 45l541 1465l223 12l526 -1487l-205 -35zM766 1952l295 -310l-158 -63l-217 242l-217 -242l-157 63l290 310h164z"/>
<glyph glyph-name="Atilde" horiz-adv-x="1372" unicode="Ã" d="M450 598h468l-230 694zM974 430h-582l-156 -457l-195 45l541 1465l223 12l526 -1487l-205 -35zM823 1802q42 0 66 27t41 72l147 -58q-14 -33 -34 -66.5t-49 -60.5t-69 -44t-93 -17q-46 0 -85 15.5t-73 33.5t-64.5 33.5t-60.5 15.5q-42 0 -65.5 -27.5t-40.5 -70.5l-148 57 q14 33 34.5 66.5t49.5 61t69 44.5t93 17q46 0 84.5 -15.5t72 -34t64.5 -34t61 -15.5z"/>
<glyph glyph-name="Adieresis" horiz-adv-x="1372" unicode="Ä" d="M450 598h468l-230 694zM974 430h-582l-156 -457l-195 45l541 1465l223 12l526 -1487l-205 -35zM768 1761q0 54 30.5 86.5t90.5 32.5q57 0 88 -32.5t31 -86.5q0 -52 -29.5 -84t-89.5 -32t-90.5 32t-30.5 84zM362 1761q0 54 32 86.5t89 32.5t88 -32.5t31 -86.5 q0 -52 -29.5 -84t-89.5 -32q-58 0 -89.5 32t-31.5 84z"/>
<glyph glyph-name="Aring" horiz-adv-x="1372" unicode="Å" d="M450 598h468l-230 694zM974 430h-582l-156 -457l-195 45l541 1465l223 12l526 -1487l-205 -35zM594 1802q0 -40 22.5 -67t67.5 -27t67.5 27t22.5 67q0 42 -22.5 69t-67.5 27t-67.5 -27t-22.5 -69zM465 1802q0 43 13.5 80t41 64.5t68.5 43t96 15.5q54 0 95.5 -15.5 t69.5 -43t42 -64.5t14 -80t-14.5 -79.5t-42.5 -63.5t-69 -42t-95 -15t-95 15t-68.5 42t-41.5 63.5t-14 79.5z"/>
<glyph glyph-name="AE" horiz-adv-x="1962" unicode="Æ" d="M985 1327l-401 -729h401v729zM1186 842h557v-168h-557v-516l653 20l-14 -178h-840v430h-496l-241 -457l-207 45l842 1465l956 24l-14 -180h-643q1 -33 2 -70t1.5 -73t0.5 -69v-58v-215z"/>
<glyph glyph-name="Ccedilla" horiz-adv-x="1350" unicode="Ç" d="M1135 1174q-70 74 -160 117.5t-209 43.5q-89 0 -171.5 -31.5t-145.5 -102.5t-100.5 -187t-37.5 -285q0 -163 40 -274t104 -179.5t144 -98.5t161 -30q53 0 101 7t95.5 24t96.5 45t104 70l80 -154q-42 -35 -93.5 -65t-111.5 -52.5t-127.5 -35.5t-140.5 -13 q-147 0 -269 50.5t-209.5 147t-135.5 237.5t-48 321t48.5 325t136 246.5t208.5 156t265 54.5q147 0 272 -47t225 -153zM659 86l98 -47l-24 -96q166 -34 166 -172q0 -91 -62.5 -137t-171.5 -46q-78 0 -134.5 17t-90.5 33l68 112q37 -25 77.5 -36t69.5 -11q54 0 78 22.5 t24 57.5q0 24 -13.5 41.5t-38.5 29t-60 18.5t-78 11z"/>
<glyph glyph-name="Egrave" horiz-adv-x="1165" unicode="È" d="M358 842h588v-168h-588v-516l684 20l-14 -178h-870q1 24 2 63.5t2 86.5t2.5 97t2 95.5t1 82t0.5 56.5v344q0 72 -0.5 145.5t-1.5 139.5t-3 120.5t-5 88.5l-107 10v152l991 26l-14 -180h-674q1 -33 2 -70t1.5 -73t0.5 -69v-58v-215zM577 1589l-348 355l269 16l233 -332z "/>
<glyph glyph-name="Eacute" horiz-adv-x="1165" unicode="É" d="M358 842h588v-168h-588v-516l684 20l-14 -178h-870q1 24 2 63.5t2 86.5t2.5 97t2 95.5t1 82t0.5 56.5v344q0 72 -0.5 145.5t-1.5 139.5t-3 120.5t-5 88.5l-107 10v152l991 26l-14 -180h-674q1 -33 2 -70t1.5 -73t0.5 -69v-58v-215zM334 1628l234 332l268 -16l-348 -355z "/>
<glyph glyph-name="Ecircumflex" horiz-adv-x="1165" unicode="Ê" d="M358 842h588v-168h-588v-516l684 20l-14 -178h-870q1 24 2 63.5t2 86.5t2.5 97t2 95.5t1 82t0.5 56.5v344q0 72 -0.5 145.5t-1.5 139.5t-3 120.5t-5 88.5l-107 10v152l991 26l-14 -180h-674q1 -33 2 -70t1.5 -73t0.5 -69v-58v-215zM633 1952l295 -310l-158 -63l-217 242 l-217 -242l-157 63l290 310h164z"/>
<glyph glyph-name="Edieresis" horiz-adv-x="1165" unicode="Ë" d="M358 842h588v-168h-588v-516l684 20l-14 -178h-870q1 24 2 63.5t2 86.5t2.5 97t2 95.5t1 82t0.5 56.5v344q0 72 -0.5 145.5t-1.5 139.5t-3 120.5t-5 88.5l-107 10v152l991 26l-14 -180h-674q1 -33 2 -70t1.5 -73t0.5 -69v-58v-215zM639 1761q0 54 30.5 86.5t90.5 32.5 q57 0 88 -32.5t31 -86.5q0 -52 -29.5 -84t-89.5 -32t-90.5 32t-30.5 84zM233 1761q0 54 32 86.5t89 32.5t88 -32.5t31 -86.5q0 -52 -29.5 -84t-89.5 -32q-58 0 -89.5 32t-31.5 84z"/>
<glyph glyph-name="Igrave" horiz-adv-x="555" unicode="Ì" d="M174 0q1 24 2 63.5t2 86.5t2.5 97t2 95.5t1 82t0.5 56.5v344q0 109 -1 200.5t-2.5 172t-3 152.5t-3.5 141h207q-2 -69 -3.5 -141t-3 -152.5t-2.5 -172t-1 -200.5v-344q0 -20 0.5 -56.5t1 -82t2 -95.5t2.5 -97t2 -86.5t2 -63.5h-207zM293 1589l-348 355l269 16l233 -332z "/>
<glyph glyph-name="Iacute" horiz-adv-x="555" unicode="Í" d="M174 0q1 24 2 63.5t2 86.5t2.5 97t2 95.5t1 82t0.5 56.5v344q0 109 -1 200.5t-2.5 172t-3 152.5t-3.5 141h207q-2 -69 -3.5 -141t-3 -152.5t-2.5 -172t-1 -200.5v-344q0 -20 0.5 -56.5t1 -82t2 -95.5t2.5 -97t2 -86.5t2 -63.5h-207zM126 1628l234 332l268 -16l-348 -355z "/>
<glyph glyph-name="Icircumflex" horiz-adv-x="555" unicode="Î" d="M174 0q1 24 2 63.5t2 86.5t2.5 97t2 95.5t1 82t0.5 56.5v344q0 109 -1 200.5t-2.5 172t-3 152.5t-3.5 141h207q-2 -69 -3.5 -141t-3 -152.5t-2.5 -172t-1 -200.5v-344q0 -20 0.5 -56.5t1 -82t2 -95.5t2.5 -97t2 -86.5t2 -63.5h-207zM359 1952l295 -310l-158 -63l-217 242 l-217 -242l-157 63l290 310h164z"/>
<glyph glyph-name="Idieresis" horiz-adv-x="555" unicode="Ï" d="M174 0q1 24 2 63.5t2 86.5t2.5 97t2 95.5t1 82t0.5 56.5v344q0 109 -1 200.5t-2.5 172t-3 152.5t-3.5 141h207q-2 -69 -3.5 -141t-3 -152.5t-2.5 -172t-1 -200.5v-344q0 -20 0.5 -56.5t1 -82t2 -95.5t2.5 -97t2 -86.5t2 -63.5h-207zM361 1761q0 54 30.5 86.5t90.5 32.5 q57 0 88 -32.5t31 -86.5q0 -52 -29.5 -84t-89.5 -32t-90.5 32t-30.5 84zM-45 1761q0 54 32 86.5t89 32.5t88 -32.5t31 -86.5q0 -52 -29.5 -84t-89.5 -32q-58 0 -89.5 32t-31.5 84z"/>
<glyph glyph-name="Eth" horiz-adv-x="1405" unicode="Ð" d="M1094 754q0 153 -39 264t-109.5 183t-169 106t-217.5 34q-24 0 -53 -1t-57.5 -2.5t-53.5 -3.5t-41 -3v-510h373v-157h-373v-504q48 -5 93.5 -7.5t105.5 -2.5q114 0 213 32.5t172 104.5t114.5 187t41.5 280zM51 1481q59 4 134.5 8.5t149 8.5t135.5 6.5t95 2.5 q163 0 299 -46t233.5 -139t151.5 -234.5t54 -331.5q0 -184 -53.5 -327.5t-152 -242.5t-238.5 -150.5t-312 -51.5q-97 0 -193 3.5t-190 12.5v664h-113v157h113v498l-113 -8v170z"/>
<glyph glyph-name="Ntilde" horiz-adv-x="1479" unicode="Ñ" d="M1325 1491q-4 -86 -7 -171.5t-4.5 -164.5t-2 -148.5t-0.5 -123.5v-877l-234 -16l-729 1294v-1284h-194q1 24 2 63.5t2 86.5t2.5 97t2 95.5t1 82t0.5 56.5v998l280 12l684 -1200v1200h197zM876 1802q42 0 66 27t41 72l147 -58q-14 -33 -34 -66.5t-49 -60.5t-69 -44 t-93 -17q-46 0 -85 15.5t-73 33.5t-64.5 33.5t-60.5 15.5q-42 0 -65.5 -27.5t-40.5 -70.5l-148 57q14 33 34.5 66.5t49.5 61t69 44.5t93 17q46 0 84.5 -15.5t72 -34t64.5 -34t61 -15.5z"/>
<glyph glyph-name="Ograve" horiz-adv-x="1507" unicode="Ò" d="M754 -27q-155 0 -276.5 59t-205 162.5t-127 243.5t-43.5 303q0 107 19.5 205.5t57.5 184t94 156t128 120t160.5 77t192.5 27.5q103 0 191.5 -27.5t161 -77t128 -120t93.5 -156t57.5 -184t19.5 -205.5q0 -164 -43.5 -304t-127 -243.5t-204.5 -162t-276 -58.5zM754 147 q111 0 194 46.5t138 126.5t82.5 188.5t27.5 232.5t-27.5 233t-83 189.5t-138 127t-193.5 46.5t-194 -46.5t-138.5 -127t-83 -189.5t-27.5 -233t27.5 -232.5t82.5 -188.5t138.5 -126.5t194.5 -46.5zM725 1589l-348 355l269 16l233 -332z"/>
<glyph glyph-name="Oacute" horiz-adv-x="1507" unicode="Ó" d="M754 -27q-155 0 -276.5 59t-205 162.5t-127 243.5t-43.5 303q0 107 19.5 205.5t57.5 184t94 156t128 120t160.5 77t192.5 27.5q103 0 191.5 -27.5t161 -77t128 -120t93.5 -156t57.5 -184t19.5 -205.5q0 -164 -43.5 -304t-127 -243.5t-204.5 -162t-276 -58.5zM754 147 q111 0 194 46.5t138 126.5t82.5 188.5t27.5 232.5t-27.5 233t-83 189.5t-138 127t-193.5 46.5t-194 -46.5t-138.5 -127t-83 -189.5t-27.5 -233t27.5 -232.5t82.5 -188.5t138.5 -126.5t194.5 -46.5zM596 1628l234 332l268 -16l-348 -355z"/>
<glyph glyph-name="Ocircumflex" horiz-adv-x="1507" unicode="Ô" d="M754 -27q-155 0 -276.5 59t-205 162.5t-127 243.5t-43.5 303q0 107 19.5 205.5t57.5 184t94 156t128 120t160.5 77t192.5 27.5q103 0 191.5 -27.5t161 -77t128 -120t93.5 -156t57.5 -184t19.5 -205.5q0 -164 -43.5 -304t-127 -243.5t-204.5 -162t-276 -58.5zM754 147 q111 0 194 46.5t138 126.5t82.5 188.5t27.5 232.5t-27.5 233t-83 189.5t-138 127t-193.5 46.5t-194 -46.5t-138.5 -127t-83 -189.5t-27.5 -233t27.5 -232.5t82.5 -188.5t138.5 -126.5t194.5 -46.5zM833 1952l295 -310l-158 -63l-217 242l-217 -242l-157 63l290 310h164z"/>
<glyph glyph-name="Otilde" horiz-adv-x="1507" unicode="Õ" d="M754 -27q-155 0 -276.5 59t-205 162.5t-127 243.5t-43.5 303q0 107 19.5 205.5t57.5 184t94 156t128 120t160.5 77t192.5 27.5q103 0 191.5 -27.5t161 -77t128 -120t93.5 -156t57.5 -184t19.5 -205.5q0 -164 -43.5 -304t-127 -243.5t-204.5 -162t-276 -58.5zM754 147 q111 0 194 46.5t138 126.5t82.5 188.5t27.5 232.5t-27.5 233t-83 189.5t-138 127t-193.5 46.5t-194 -46.5t-138.5 -127t-83 -189.5t-27.5 -233t27.5 -232.5t82.5 -188.5t138.5 -126.5t194.5 -46.5zM890 1802q42 0 66 27t41 72l147 -58q-14 -33 -34 -66.5t-49 -60.5t-69 -44 t-93 -17q-46 0 -85 15.5t-73 33.5t-64.5 33.5t-60.5 15.5q-42 0 -65.5 -27.5t-40.5 -70.5l-148 57q14 33 34.5 66.5t49.5 61t69 44.5t93 17q46 0 84.5 -15.5t72 -34t64.5 -34t61 -15.5z"/>
<glyph glyph-name="Odieresis" horiz-adv-x="1507" unicode="Ö" d="M754 -27q-155 0 -276.5 59t-205 162.5t-127 243.5t-43.5 303q0 107 19.5 205.5t57.5 184t94 156t128 120t160.5 77t192.5 27.5q103 0 191.5 -27.5t161 -77t128 -120t93.5 -156t57.5 -184t19.5 -205.5q0 -164 -43.5 -304t-127 -243.5t-204.5 -162t-276 -58.5zM754 147 q111 0 194 46.5t138 126.5t82.5 188.5t27.5 232.5t-27.5 233t-83 189.5t-138 127t-193.5 46.5t-194 -46.5t-138.5 -127t-83 -189.5t-27.5 -233t27.5 -232.5t82.5 -188.5t138.5 -126.5t194.5 -46.5zM836 1761q0 54 30.5 86.5t90.5 32.5q57 0 88 -32.5t31 -86.5 q0 -52 -29.5 -84t-89.5 -32t-90.5 32t-30.5 84zM430 1761q0 54 32 86.5t89 32.5t88 -32.5t31 -86.5q0 -52 -29.5 -84t-89.5 -32q-58 0 -89.5 32t-31.5 84z"/>
<glyph glyph-name="multiply" horiz-adv-x="1178" unicode="×" d="M135 166l334 334l-336 336l121 120l335 -336l337 336l121 -120l-337 -337l334 -333l-120 -121l-334 334l-334 -334z"/>
<glyph glyph-name="Oslash" horiz-adv-x="1507" unicode="Ø" d="M754 -27q-154 0 -276 59q-64 31 -118 75l-108 -136l-150 101l136 170q-58 87 -92 196q-44 140 -44 303q0 107 19.5 205.5t57.5 184t94 156t128 120t160.5 77t192.5 27.5q103 0 191.5 -27.5t160.5 -77.5q20 -13 39 -28l106 133l154 -92l-139 -175q36 -54 62 -114 q38 -86 57.5 -184t19.5 -205q0 -164 -43.5 -304t-127 -243.5t-204.5 -162t-276 -58.5zM754 147q111 0 194 46.5t138 126.5t82.5 188.5t27.5 232.5t-28 233q-14 56 -35 104l-656 -824q37 -34 83 -60q84 -46 194 -47zM1028 1231q-36 33 -80 59q-82 46 -193.5 46.5t-194.5 -46 t-138.5 -127t-83 -189.5t-27.5 -233q-1 -125 27 -233q13 -53 34 -98z"/>
<glyph glyph-name="Ugrave" horiz-adv-x="1376" unicode="Ù" d="M688 -27q-147 0 -252 43t-172.5 132t-99 224.5t-31.5 321.5q0 78 4.5 281.5t18.5 515.5h196q-5 -97 -9.5 -204t-7.5 -209t-5 -190.5t-2 -148.5q0 -129 13 -222.5t36.5 -159t57 -106t73.5 -63t85.5 -30.5t94.5 -8t95 8t86 30.5t73 63t57 106t37 159t13 222.5 q0 60 -2 148.5t-5.5 190.5t-8 209t-9.5 204h197q14 -312 18 -515.5t4 -281.5q0 -186 -31.5 -321.5t-99 -224.5t-172.5 -132t-252 -43zM727 1589l-348 355l269 16l233 -332z"/>
<glyph glyph-name="Uacute" horiz-adv-x="1376" unicode="Ú" d="M688 -27q-147 0 -252 43t-172.5 132t-99 224.5t-31.5 321.5q0 78 4.5 281.5t18.5 515.5h196q-5 -97 -9.5 -204t-7.5 -209t-5 -190.5t-2 -148.5q0 -129 13 -222.5t36.5 -159t57 -106t73.5 -63t85.5 -30.5t94.5 -8t95 8t86 30.5t73 63t57 106t37 159t13 222.5 q0 60 -2 148.5t-5.5 190.5t-8 209t-9.5 204h197q14 -312 18 -515.5t4 -281.5q0 -186 -31.5 -321.5t-99 -224.5t-172.5 -132t-252 -43zM487 1628l234 332l268 -16l-348 -355z"/>
<glyph glyph-name="Ucircumflex" horiz-adv-x="1376" unicode="Û" d="M688 -27q-147 0 -252 43t-172.5 132t-99 224.5t-31.5 321.5q0 78 4.5 281.5t18.5 515.5h196q-5 -97 -9.5 -204t-7.5 -209t-5 -190.5t-2 -148.5q0 -129 13 -222.5t36.5 -159t57 -106t73.5 -63t85.5 -30.5t94.5 -8t95 8t86 30.5t73 63t57 106t37 159t13 222.5 q0 60 -2 148.5t-5.5 190.5t-8 209t-9.5 204h197q14 -312 18 -515.5t4 -281.5q0 -186 -31.5 -321.5t-99 -224.5t-172.5 -132t-252 -43zM768 1952l295 -310l-158 -63l-217 242l-217 -242l-157 63l290 310h164z"/>
<glyph glyph-name="Udieresis" horiz-adv-x="1376" unicode="Ü" d="M688 -27q-147 0 -252 43t-172.5 132t-99 224.5t-31.5 321.5q0 78 4.5 281.5t18.5 515.5h196q-5 -97 -9.5 -204t-7.5 -209t-5 -190.5t-2 -148.5q0 -129 13 -222.5t36.5 -159t57 -106t73.5 -63t85.5 -30.5t94.5 -8t95 8t86 30.5t73 63t57 106t37 159t13 222.5 q0 60 -2 148.5t-5.5 190.5t-8 209t-9.5 204h197q14 -312 18 -515.5t4 -281.5q0 -186 -31.5 -321.5t-99 -224.5t-172.5 -132t-252 -43zM770 1761q0 54 30.5 86.5t90.5 32.5q57 0 88 -32.5t31 -86.5q0 -52 -29.5 -84t-89.5 -32t-90.5 32t-30.5 84zM364 1761q0 54 32 86.5 t89 32.5t88 -32.5t31 -86.5q0 -52 -29.5 -84t-89.5 -32q-58 0 -89.5 32t-31.5 84z"/>
<glyph glyph-name="Yacute" horiz-adv-x="1331" unicode="Ý" d="M1059 1518l201 -52l-498 -901v-565h-193v565l-497 901l200 52l394 -775zM504 1628l234 332l268 -16l-348 -355z"/>
<glyph glyph-name="Thorn" horiz-adv-x="1212" unicode="Þ" d="M942 780q0 149 -101.5 221t-299.5 72q-42 0 -87.5 -1.5t-99.5 -6.5v-621q18 -2 45 -3.5t56.5 -2.5t58.5 -1.5t53 -0.5q99 0 170 23t116.5 67.5t67 108.5t21.5 145zM354 1237q28 2 63 3t83 1q322 0 486.5 -114t164.5 -355q0 -120 -40 -213.5t-114 -158t-178.5 -98.5 t-232.5 -34q-54 0 -113 1.5t-119 4.5v-274h-190v799q0 109 -1 204.5t-2.5 180.5t-3 161t-3.5 146h200v-254z"/>
<glyph glyph-name="germandbls" horiz-adv-x="1223" unicode="ß" d="M1047 1135q0 -74 -21.5 -132t-58 -101.5t-85 -72.5t-102.5 -45q61 -11 121.5 -35t109 -69.5t79 -117t30.5 -177.5q0 -95 -31 -171t-84.5 -129.5t-125 -82.5t-152.5 -29q-75 0 -138 16t-108 38l68 151q40 -26 83 -39.5t97 -13.5q40 0 75 15.5t61.5 48.5t41.5 83t15 119 q0 72 -17.5 131t-56.5 101.5t-101 66t-151 23.5h-55v131h49q55 0 102.5 16.5t82 51t54 87t19.5 123.5q0 112 -60.5 174t-175.5 62q-123 0 -187.5 -103t-64.5 -309v-262.5t1.5 -232t4.5 -221t9 -230.5h-205q2 61 3.5 132.5t3 137t2.5 118t1 77.5v440q0 142 24 254.5 t76.5 190.5t135.5 119.5t200 41.5q96 0 175.5 -28t136 -78t88 -119t31.5 -151z"/>
<glyph glyph-name="agrave" horiz-adv-x="1178" unicode="à" d="M813 508q0 97 3 186t11 170q-51 42 -112.5 59t-136.5 17q-62 0 -115 -26.5t-91 -80t-59.5 -133.5t-21.5 -188q0 -114 23.5 -187.5t60.5 -116.5t83 -60t91 -17q66 0 134 29.5t130 103.5v244zM1034 1061q-5 -39 -12 -87t-13.5 -106t-11 -127.5t-4.5 -152.5v-133 q0 -36 2.5 -91t8 -115t14 -117.5t20.5 -98.5l-184 -41l-23 135q-25 -27 -57.5 -54.5t-71.5 -49.5t-85 -36t-97 -14q-89 0 -167 29t-136 93t-91.5 164.5t-33.5 244.5q0 150 41.5 260.5t109 183t152 107.5t170.5 35q78 0 144.5 -20t132.5 -66l12 69zM677 1245l-331 354l268 17 l217 -332z"/>
<glyph glyph-name="aacute" horiz-adv-x="1178" unicode="á" d="M813 508q0 97 3 186t11 170q-51 42 -112.5 59t-136.5 17q-62 0 -115 -26.5t-91 -80t-59.5 -133.5t-21.5 -188q0 -114 23.5 -187.5t60.5 -116.5t83 -60t91 -17q66 0 134 29.5t130 103.5v244zM1034 1061q-5 -39 -12 -87t-13.5 -106t-11 -127.5t-4.5 -152.5v-133 q0 -36 2.5 -91t8 -115t14 -117.5t20.5 -98.5l-184 -41l-23 135q-25 -27 -57.5 -54.5t-71.5 -49.5t-85 -36t-97 -14q-89 0 -167 29t-136 93t-91.5 164.5t-33.5 244.5q0 150 41.5 260.5t109 183t152 107.5t170.5 35q78 0 144.5 -20t132.5 -66l12 69zM432 1284l217 332l268 -17 l-331 -354z"/>
<glyph glyph-name="acircumflex" horiz-adv-x="1178" unicode="â" d="M813 508q0 97 3 186t11 170q-51 42 -112.5 59t-136.5 17q-62 0 -115 -26.5t-91 -80t-59.5 -133.5t-21.5 -188q0 -114 23.5 -187.5t60.5 -116.5t83 -60t91 -17q66 0 134 29.5t130 103.5v244zM1034 1061q-5 -39 -12 -87t-13.5 -106t-11 -127.5t-4.5 -152.5v-133 q0 -36 2.5 -91t8 -115t14 -117.5t20.5 -98.5l-184 -41l-23 135q-25 -27 -57.5 -54.5t-71.5 -49.5t-85 -36t-97 -14q-89 0 -167 29t-136 93t-91.5 164.5t-33.5 244.5q0 150 41.5 260.5t109 183t152 107.5t170.5 35q78 0 144.5 -20t132.5 -66l12 69zM667 1597l295 -331 l-158 -64l-217 264l-217 -264l-157 64l290 331h164z"/>
<glyph glyph-name="atilde" horiz-adv-x="1178" unicode="ã" d="M813 508q0 97 3 186t11 170q-51 42 -112.5 59t-136.5 17q-62 0 -115 -26.5t-91 -80t-59.5 -133.5t-21.5 -188q0 -114 23.5 -187.5t60.5 -116.5t83 -60t91 -17q66 0 134 29.5t130 103.5v244zM1034 1061q-5 -39 -12 -87t-13.5 -106t-11 -127.5t-4.5 -152.5v-133 q0 -36 2.5 -91t8 -115t14 -117.5t20.5 -98.5l-184 -41l-23 135q-25 -27 -57.5 -54.5t-71.5 -49.5t-85 -36t-97 -14q-89 0 -167 29t-136 93t-91.5 164.5t-33.5 244.5q0 150 41.5 260.5t109 183t152 107.5t170.5 35q78 0 144.5 -20t132.5 -66l12 69zM750 1407q42 0 65.5 27.5 t40.5 70.5l148 -57q-14 -33 -34 -66.5t-49.5 -60.5t-69.5 -44t-93 -17q-46 0 -85 15.5t-73 33.5t-64.5 33.5t-60.5 15.5q-42 0 -65.5 -27.5t-40.5 -70.5l-148 57q14 33 34 66.5t49.5 60.5t69.5 44t93 17q46 0 84.5 -15.5t72.5 -33.5t64.5 -33.5t61.5 -15.5z"/>
<glyph glyph-name="adieresis" horiz-adv-x="1178" unicode="ä" d="M813 508q0 97 3 186t11 170q-51 42 -112.5 59t-136.5 17q-62 0 -115 -26.5t-91 -80t-59.5 -133.5t-21.5 -188q0 -114 23.5 -187.5t60.5 -116.5t83 -60t91 -17q66 0 134 29.5t130 103.5v244zM1034 1061q-5 -39 -12 -87t-13.5 -106t-11 -127.5t-4.5 -152.5v-133 q0 -36 2.5 -91t8 -115t14 -117.5t20.5 -98.5l-184 -41l-23 135q-25 -27 -57.5 -54.5t-71.5 -49.5t-85 -36t-97 -14q-89 0 -167 29t-136 93t-91.5 164.5t-33.5 244.5q0 150 41.5 260.5t109 183t152 107.5t170.5 35q78 0 144.5 -20t132.5 -66l12 69zM657 1397q0 52 30.5 85.5 t90.5 33.5q57 0 88 -33.5t31 -85.5q0 -54 -29.5 -85.5t-89.5 -31.5t-90.5 31.5t-30.5 85.5zM276 1397q0 52 32 85.5t89 33.5t88 -33.5t31 -85.5q0 -54 -29.5 -85.5t-89.5 -31.5t-90.5 31.5t-30.5 85.5z"/>
<glyph glyph-name="aring" horiz-adv-x="1178" unicode="å" d="M813 508q0 97 3 186t11 170q-51 42 -112.5 59t-136.5 17q-62 0 -115 -26.5t-91 -80t-59.5 -133.5t-21.5 -188q0 -114 23.5 -187.5t60.5 -116.5t83 -60t91 -17q66 0 134 29.5t130 103.5v244zM1034 1061q-5 -39 -12 -87t-13.5 -106t-11 -127.5t-4.5 -152.5v-133 q0 -36 2.5 -91t8 -115t14 -117.5t20.5 -98.5l-184 -41l-23 135q-25 -27 -57.5 -54.5t-71.5 -49.5t-85 -36t-97 -14q-89 0 -167 29t-136 93t-91.5 164.5t-33.5 244.5q0 150 41.5 260.5t109 183t152 107.5t170.5 35q78 0 144.5 -20t132.5 -66l12 69zM498 1430 q0 -42 22.5 -68.5t67.5 -26.5t67.5 26.5t22.5 68.5t-22.5 69t-67.5 27t-67.5 -27t-22.5 -69zM369 1430q0 43 13.5 80t41 64t68.5 42.5t96 15.5q54 0 95.5 -15.5t69.5 -42.5t42 -64t14 -80q0 -44 -14.5 -80.5t-42.5 -63.5t-69 -42t-95 -15t-95 15t-68.5 42t-41.5 63.5 t-14 80.5z"/>
<glyph glyph-name="ae" horiz-adv-x="1804" unicode="æ" d="M1272 942q-51 0 -100 -19.5t-88.5 -60.5t-66.5 -104t-34 -150l522 23q2 11 2 21.5v21.5q0 129 -60 198.5t-175 69.5zM813 508q0 97 3 186t11 170q-51 42 -112.5 59t-136.5 17q-62 0 -115 -26.5t-91 -80t-59.5 -133.5t-21.5 -188q0 -114 23.5 -187.5t60.5 -116.5t83 -60 t91 -17q66 0 134 29.5t130 103.5v244zM983 475q4 -77 26 -141t61 -110t94 -71.5t126 -25.5q42 0 78.5 5t72.5 17.5t73.5 33.5t82.5 53l62 -132q-91 -72 -184.5 -101.5t-200.5 -29.5q-78 0 -139 22.5t-110 61.5l-155 -59l-24 137q-26 -27 -60.5 -55.5t-76.5 -52.5t-89.5 -39 t-99.5 -15q-89 0 -167 29t-136 93t-91.5 164.5t-33.5 244.5q0 150 41.5 260.5t109 183t152 107.5t170.5 35q78 0 144.5 -20t132.5 -66l12 69l170 -12l-12 -82q55 52 122 81.5t148 29.5q73 0 131 -17.5t102.5 -48t76 -72t51.5 -89t29 -99t9 -102.5q0 -48 -5 -99t-13 -88h-680 z"/>
<glyph glyph-name="ccedilla" horiz-adv-x="1001" unicode="ç" d="M838 821q-57 60 -118.5 87.5t-133.5 27.5q-62 0 -116 -27.5t-94 -79.5t-62.5 -125.5t-22.5 -166.5q0 -92 21 -167.5t59.5 -129.5t93.5 -83.5t123 -29.5q36 0 69.5 5.5t68 18t72.5 34.5t83 55l69 -127q-78 -66 -169 -103t-203 -37q-120 0 -211 45.5t-152 120.5t-92 172 t-31 201q0 126 36 232t100.5 183t153.5 120t196 43q109 0 200 -36t166 -114zM551 86l98 -47l-24 -96q166 -34 166 -172q0 -91 -62.5 -137t-171.5 -46q-78 0 -134.5 17t-90.5 33l68 112q37 -25 77.5 -36t69.5 -11q54 0 78 22.5t24 57.5q0 24 -13.5 41.5t-38.5 29t-60 18.5 t-78 11z"/>
<glyph glyph-name="egrave" horiz-adv-x="1106" unicode="è" d="M573 942q-51 0 -99.5 -19.5t-88 -60.5t-66.5 -104t-34 -150l522 23q2 11 2 21.5v21.5q0 129 -59 198.5t-177 69.5zM285 475q4 -77 25.5 -141t60 -110t94 -71.5t127.5 -25.5q42 0 78.5 5t72 17.5t73.5 33.5t83 53l62 -132q-91 -72 -184.5 -101.5t-201.5 -29.5 q-117 0 -207.5 42.5t-151.5 116t-92.5 173.5t-31.5 215q0 130 38.5 235t105 179.5t156.5 115t192 40.5q73 0 131 -17.5t102.5 -48t76 -72t51.5 -89t29 -99t9 -102.5q0 -48 -5 -99t-13 -88h-680zM602 1245l-331 354l268 17l217 -332z"/>
<glyph glyph-name="eacute" horiz-adv-x="1106" unicode="é" d="M573 942q-51 0 -99.5 -19.5t-88 -60.5t-66.5 -104t-34 -150l522 23q2 11 2 21.5v21.5q0 129 -59 198.5t-177 69.5zM285 475q4 -77 25.5 -141t60 -110t94 -71.5t127.5 -25.5q42 0 78.5 5t72 17.5t73.5 33.5t83 53l62 -132q-91 -72 -184.5 -101.5t-201.5 -29.5 q-117 0 -207.5 42.5t-151.5 116t-92.5 173.5t-31.5 215q0 130 38.5 235t105 179.5t156.5 115t192 40.5q73 0 131 -17.5t102.5 -48t76 -72t51.5 -89t29 -99t9 -102.5q0 -48 -5 -99t-13 -88h-680zM364 1284l217 332l268 -17l-331 -354z"/>
<glyph glyph-name="ecircumflex" horiz-adv-x="1106" unicode="ê" d="M573 942q-51 0 -99.5 -19.5t-88 -60.5t-66.5 -104t-34 -150l522 23q2 11 2 21.5v21.5q0 129 -59 198.5t-177 69.5zM285 475q4 -77 25.5 -141t60 -110t94 -71.5t127.5 -25.5q42 0 78.5 5t72 17.5t73.5 33.5t83 53l62 -132q-91 -72 -184.5 -101.5t-201.5 -29.5 q-117 0 -207.5 42.5t-151.5 116t-92.5 173.5t-31.5 215q0 130 38.5 235t105 179.5t156.5 115t192 40.5q73 0 131 -17.5t102.5 -48t76 -72t51.5 -89t29 -99t9 -102.5q0 -48 -5 -99t-13 -88h-680zM667 1597l295 -331l-158 -64l-217 264l-217 -264l-157 64l290 331h164z"/>
<glyph glyph-name="edieresis" horiz-adv-x="1106" unicode="ë" d="M573 942q-51 0 -99.5 -19.5t-88 -60.5t-66.5 -104t-34 -150l522 23q2 11 2 21.5v21.5q0 129 -59 198.5t-177 69.5zM285 475q4 -77 25.5 -141t60 -110t94 -71.5t127.5 -25.5q42 0 78.5 5t72 17.5t73.5 33.5t83 53l62 -132q-91 -72 -184.5 -101.5t-201.5 -29.5 q-117 0 -207.5 42.5t-151.5 116t-92.5 173.5t-31.5 215q0 130 38.5 235t105 179.5t156.5 115t192 40.5q73 0 131 -17.5t102.5 -48t76 -72t51.5 -89t29 -99t9 -102.5q0 -48 -5 -99t-13 -88h-680zM622 1397q0 52 30.5 85.5t90.5 33.5q57 0 88 -33.5t31 -85.5 q0 -54 -29.5 -85.5t-89.5 -31.5t-90.5 31.5t-30.5 85.5zM241 1397q0 52 32 85.5t89 33.5t88 -33.5t31 -85.5q0 -54 -29.5 -85.5t-89.5 -31.5t-90.5 31.5t-30.5 85.5z"/>
<glyph glyph-name="igrave" horiz-adv-x="537" unicode="ì" d="M356 1085v-725q0 -97 3 -187.5t8 -172.5h-193q1 19 2 57t1.5 84.5t1 98t1 98.5t0.5 85v58v101q0 46 -1.5 104.5t-4.5 122t-6.5 128.5t-7.5 124zM267 1245l-331 354l268 17l217 -332z"/>
<glyph glyph-name="iacute" horiz-adv-x="537" unicode="í" d="M356 1085v-725q0 -97 3 -187.5t8 -172.5h-193q1 19 2 57t1.5 84.5t1 98t1 98.5t0.5 85v58v101q0 46 -1.5 104.5t-4.5 122t-6.5 128.5t-7.5 124zM159 1284l217 332l268 -17l-331 -354z"/>
<glyph glyph-name="icircumflex" horiz-adv-x="537" unicode="î" d="M356 1085v-725q0 -97 3 -187.5t8 -172.5h-193q1 19 2 57t1.5 84.5t1 98t1 98.5t0.5 85v58v101q0 46 -1.5 104.5t-4.5 122t-6.5 128.5t-7.5 124zM353 1597l295 -331l-158 -64l-217 264l-217 -264l-157 64l290 331h164z"/>
<glyph glyph-name="idieresis" horiz-adv-x="537" unicode="ï" d="M356 1085v-725q0 -97 3 -187.5t8 -172.5h-193q1 19 2 57t1.5 84.5t1 98t1 98.5t0.5 85v58v101q0 46 -1.5 104.5t-4.5 122t-6.5 128.5t-7.5 124zM343 1397q0 52 30.5 85.5t90.5 33.5q57 0 88 -33.5t31 -85.5q0 -54 -29.5 -85.5t-89.5 -31.5t-90.5 31.5t-30.5 85.5z M-38 1397q0 52 32 85.5t89 33.5t88 -33.5t31 -85.5q0 -54 -29.5 -85.5t-89.5 -31.5t-90.5 31.5t-30.5 85.5z"/>
<glyph glyph-name="eth" horiz-adv-x="1178" unicode="ð" d="M580 127q71 0 128 29t96.5 82.5t61 129t21.5 169.5q0 97 -23.5 172t-64.5 125t-96 76t-117 26q-64 0 -118 -28t-93.5 -79.5t-61.5 -125t-22 -164.5q0 -98 20.5 -174.5t58 -129t91 -80.5t119.5 -28zM354 1251l171 87q-43 35 -80.5 62.5t-65.5 46.5q-17 11 -31.5 20.5 t-28.5 17.5l222 26q19 -12 53.5 -36t79.5 -61l190 97l54 -90l-161 -85q58 -59 116.5 -137.5t105.5 -177t76.5 -218t29.5 -260.5q0 -70 -12 -139.5t-37 -133t-64.5 -118t-94.5 -94.5t-126.5 -62.5t-160.5 -22.5q-129 0 -223 49t-155 127t-90.5 175t-29.5 192q0 117 31 219 t90.5 177.5t146 119t197.5 43.5q38 0 72 -5t66.5 -17.5t64.5 -34t67 -53.5l4 6q-45 88 -102.5 158.5t-117.5 130.5l-203 -107z"/>
<glyph glyph-name="ntilde" horiz-adv-x="1206" unicode="ñ" d="M338 1077l14 -139q66 72 154.5 112t200.5 40q178 0 262 -114.5t84 -346.5q0 -69 -1.5 -135.5t-4 -140t-6 -159.5t-7.5 -194h-184q8 141 14 285t6 293q0 82 -9.5 146.5t-34 108.5t-66 67.5t-105.5 23.5q-85 0 -161.5 -36t-133.5 -102v-786h-190q1 19 2 57t2 84.5t2.5 98 t2 98.5t1 85t0.5 58v72q0 100 -7 224t-30 265zM740 1407q42 0 65.5 27.5t40.5 70.5l148 -57q-14 -33 -34 -66.5t-49.5 -60.5t-69.5 -44t-93 -17q-46 0 -85 15.5t-73 33.5t-64.5 33.5t-60.5 15.5q-42 0 -65.5 -27.5t-40.5 -70.5l-148 57q14 33 34 66.5t49.5 60.5t69.5 44 t93 17q46 0 84.5 -15.5t72.5 -33.5t64.5 -33.5t61.5 -15.5z"/>
<glyph glyph-name="ograve" horiz-adv-x="1178" unicode="ò" d="M588 936q-58 0 -111.5 -24t-95 -73t-66 -124t-24.5 -178q0 -106 22.5 -183.5t62 -127.5t92.5 -74.5t114 -24.5q60 0 115 24t97 74t67.5 127.5t25.5 184.5q0 98 -24 172.5t-65.5 125t-95.5 76t-114 25.5zM588 -27q-120 0 -212.5 44.5t-155.5 120t-95.5 175.5t-32.5 211 q0 116 33 219t96.5 180t155.5 122t211 45q111 0 202.5 -40.5t157 -113.5t101.5 -174.5t36 -222.5q0 -108 -30.5 -210t-92.5 -181t-155.5 -127t-218.5 -48zM583 1245l-331 354l268 17l217 -332z"/>
<glyph glyph-name="oacute" horiz-adv-x="1178" unicode="ó" d="M588 936q-58 0 -111.5 -24t-95 -73t-66 -124t-24.5 -178q0 -106 22.5 -183.5t62 -127.5t92.5 -74.5t114 -24.5q60 0 115 24t97 74t67.5 127.5t25.5 184.5q0 98 -24 172.5t-65.5 125t-95.5 76t-114 25.5zM588 -27q-120 0 -212.5 44.5t-155.5 120t-95.5 175.5t-32.5 211 q0 116 33 219t96.5 180t155.5 122t211 45q111 0 202.5 -40.5t157 -113.5t101.5 -174.5t36 -222.5q0 -108 -30.5 -210t-92.5 -181t-155.5 -127t-218.5 -48zM438 1284l217 332l268 -17l-331 -354z"/>
<glyph glyph-name="ocircumflex" horiz-adv-x="1178" unicode="ô" d="M588 936q-58 0 -111.5 -24t-95 -73t-66 -124t-24.5 -178q0 -106 22.5 -183.5t62 -127.5t92.5 -74.5t114 -24.5q60 0 115 24t97 74t67.5 127.5t25.5 184.5q0 98 -24 172.5t-65.5 125t-95.5 76t-114 25.5zM588 -27q-120 0 -212.5 44.5t-155.5 120t-95.5 175.5t-32.5 211 q0 116 33 219t96.5 180t155.5 122t211 45q111 0 202.5 -40.5t157 -113.5t101.5 -174.5t36 -222.5q0 -108 -30.5 -210t-92.5 -181t-155.5 -127t-218.5 -48zM667 1597l295 -331l-158 -64l-217 264l-217 -264l-157 64l290 331h164z"/>
<glyph glyph-name="otilde" horiz-adv-x="1178" unicode="õ" d="M588 936q-58 0 -111.5 -24t-95 -73t-66 -124t-24.5 -178q0 -106 22.5 -183.5t62 -127.5t92.5 -74.5t114 -24.5q60 0 115 24t97 74t67.5 127.5t25.5 184.5q0 98 -24 172.5t-65.5 125t-95.5 76t-114 25.5zM588 -27q-120 0 -212.5 44.5t-155.5 120t-95.5 175.5t-32.5 211 q0 116 33 219t96.5 180t155.5 122t211 45q111 0 202.5 -40.5t157 -113.5t101.5 -174.5t36 -222.5q0 -108 -30.5 -210t-92.5 -181t-155.5 -127t-218.5 -48zM725 1407q42 0 65.5 27.5t40.5 70.5l148 -57q-14 -33 -34 -66.5t-49.5 -60.5t-69.5 -44t-93 -17q-46 0 -85 15.5 t-73 33.5t-64.5 33.5t-60.5 15.5q-42 0 -65.5 -27.5t-40.5 -70.5l-148 57q14 33 34 66.5t49.5 60.5t69.5 44t93 17q46 0 84.5 -15.5t72.5 -33.5t64.5 -33.5t61.5 -15.5z"/>
<glyph glyph-name="odieresis" horiz-adv-x="1178" unicode="ö" d="M588 936q-58 0 -111.5 -24t-95 -73t-66 -124t-24.5 -178q0 -106 22.5 -183.5t62 -127.5t92.5 -74.5t114 -24.5q60 0 115 24t97 74t67.5 127.5t25.5 184.5q0 98 -24 172.5t-65.5 125t-95.5 76t-114 25.5zM588 -27q-120 0 -212.5 44.5t-155.5 120t-95.5 175.5t-32.5 211 q0 116 33 219t96.5 180t155.5 122t211 45q111 0 202.5 -40.5t157 -113.5t101.5 -174.5t36 -222.5q0 -108 -30.5 -210t-92.5 -181t-155.5 -127t-218.5 -48zM657 1397q0 52 30.5 85.5t90.5 33.5q57 0 88 -33.5t31 -85.5q0 -54 -29.5 -85.5t-89.5 -31.5t-90.5 31.5t-30.5 85.5z M276 1397q0 52 32 85.5t89 33.5t88 -33.5t31 -85.5q0 -54 -29.5 -85.5t-89.5 -31.5t-90.5 31.5t-30.5 85.5z"/>
<glyph glyph-name="divide" horiz-adv-x="1364" unicode="÷" d="M1241 642v-180h-1118v180h1118zM836.727 121.765q0 -67.0879 -34.1221 -106.886q-34.1211 -39.7979 -114.876 -39.7979q-85.3047 0 -120.563 39.2295t-35.2588 107.454q0 62.54 35.2588 102.338t120.563 39.7979q80.7549 0 114.876 -39.7979 q34.1221 -39.7979 34.1221 -102.338zM836.727 945.765q0 -67.0879 -34.1221 -106.886q-34.1211 -39.7979 -114.876 -39.7979q-85.3047 0 -120.563 39.2295t-35.2588 107.454q0 62.54 35.2588 102.338t120.563 39.7979q80.7549 0 114.876 -39.7979 q34.1221 -39.7979 34.1221 -102.338z"/>
<glyph glyph-name="oslash" horiz-adv-x="1178" unicode="ø" d="M588 936q-58 0 -111.5 -24t-95 -73t-66 -124t-24.5 -178q1 -105 23 -183q3 -12 7 -24l452 531q-32 31 -71 49q-54 26 -114 26zM588 -27q-120 1 -212 45q-43 21 -81 48l-78 -93l-127 86l100 118q-42 61 -66 136q-32 100 -32 211q0 116 33 219t96.5 180t155.5 122t211 45 q110 0 202 -40q51 -23 95 -56l82 96l116 -89l-97 -115q38 -56 63 -124q36 -102 36 -223q0 -108 -30.5 -210t-92.5 -181t-155.5 -127t-218.5 -48zM404 195q29 -27 64 -43q53 -24 114 -25q60 0 115 24t97 74t67.5 127.5t25.5 184.5q0 99 -24 173q-4 11 -7 21z"/>
<glyph glyph-name="ugrave" horiz-adv-x="1206" unicode="ù" d="M868 -14l-14 139q-66 -72 -155.5 -112t-198.5 -40q-178 0 -262 115.5t-84 345.5q0 69 1.5 135.5t3.5 140t5.5 159.5t7.5 194h184q-8 -141 -14 -285t-6 -293q0 -82 9.5 -146.5t34 -108.5t66 -67.5t105.5 -23.5q85 0 161.5 35.5t133.5 101.5v787h190q-1 -20 -2 -57.5 t-2 -84t-2.5 -98t-2 -98.5t-1 -85t-0.5 -58v-72q0 -100 7 -224t30 -266zM616 1245l-331 354l268 17l217 -332z"/>
<glyph glyph-name="uacute" horiz-adv-x="1206" unicode="ú" d="M868 -14l-14 139q-66 -72 -155.5 -112t-198.5 -40q-178 0 -262 115.5t-84 345.5q0 69 1.5 135.5t3.5 140t5.5 159.5t7.5 194h184q-8 -141 -14 -285t-6 -293q0 -82 9.5 -146.5t34 -108.5t66 -67.5t105.5 -23.5q85 0 161.5 35.5t133.5 101.5v787h190q-1 -20 -2 -57.5 t-2 -84t-2.5 -98t-2 -98.5t-1 -85t-0.5 -58v-72q0 -100 7 -224t30 -266zM418 1284l217 332l268 -17l-331 -354z"/>
<glyph glyph-name="ucircumflex" horiz-adv-x="1206" unicode="û" d="M868 -14l-14 139q-66 -72 -155.5 -112t-198.5 -40q-178 0 -262 115.5t-84 345.5q0 69 1.5 135.5t3.5 140t5.5 159.5t7.5 194h184q-8 -141 -14 -285t-6 -293q0 -82 9.5 -146.5t34 -108.5t66 -67.5t105.5 -23.5q85 0 161.5 35.5t133.5 101.5v787h190q-1 -20 -2 -57.5 t-2 -84t-2.5 -98t-2 -98.5t-1 -85t-0.5 -58v-72q0 -100 7 -224t30 -266zM682 1597l295 -331l-158 -64l-217 264l-217 -264l-157 64l290 331h164z"/>
<glyph glyph-name="udieresis" horiz-adv-x="1206" unicode="ü" d="M868 -14l-14 139q-66 -72 -155.5 -112t-198.5 -40q-178 0 -262 115.5t-84 345.5q0 69 1.5 135.5t3.5 140t5.5 159.5t7.5 194h184q-8 -141 -14 -285t-6 -293q0 -82 9.5 -146.5t34 -108.5t66 -67.5t105.5 -23.5q85 0 161.5 35.5t133.5 101.5v787h190q-1 -20 -2 -57.5 t-2 -84t-2.5 -98t-2 -98.5t-1 -85t-0.5 -58v-72q0 -100 7 -224t30 -266zM671 1397q0 52 30.5 85.5t90.5 33.5q57 0 88 -33.5t31 -85.5q0 -54 -29.5 -85.5t-89.5 -31.5t-90.5 31.5t-30.5 85.5zM290 1397q0 52 32 85.5t89 33.5t88 -33.5t31 -85.5q0 -54 -29.5 -85.5 t-89.5 -31.5t-90.5 31.5t-30.5 85.5z"/>
<glyph glyph-name="yacute" horiz-adv-x="1085" unicode="ý" d="M37 1042l201 35l325 -831l287 831l192 -30l-395 -1014q-45 -114 -85.5 -202t-88.5 -148t-109 -91.5t-147 -31.5q-40 0 -75.5 7t-62.5 15q-16 5 -30.5 10.5t-28.5 12.5l66 157q16 -12 39 -21q19 -8 44.5 -14t55.5 -6q63 0 115.5 54.5t99.5 183.5l31 84zM416 1284l217 332 l268 -17l-331 -354z"/>
<glyph glyph-name="thorn" horiz-adv-x="1174" unicode="þ" d="M182 573q0 47 -1 123t-3 165t-4.5 183.5t-6 178.5t-8 150.5t-9.5 99.5l204 24v-539q24 28 53.5 52.5t66.5 42t82.5 27.5t102.5 10q84 0 160.5 -35t134.5 -101.5t92.5 -164.5t34.5 -224q0 -136 -36 -245.5t-100.5 -186.5t-155 -118.5t-199.5 -41.5q-69 0 -129 20.5 t-105 51.5v-485h-204q9 90 15 201t9 240t4.5 273t1.5 299zM362 174q13 -9 33 -18.5t44 -17t51.5 -12.5t56.5 -5q90 0 153.5 31.5t104 89t59.5 138.5t19 179q0 81 -18 150.5t-54 119.5t-90 78.5t-127 28.5q-31 0 -64 -8.5t-64.5 -22.5t-58.5 -32.5t-45 -38.5v-660z"/>
<glyph glyph-name="ydieresis" horiz-adv-x="1085" unicode="ÿ" d="M37 1042l201 35l325 -831l287 831l192 -30l-395 -1014q-45 -114 -85.5 -202t-88.5 -148t-109 -91.5t-147 -31.5q-40 0 -75.5 7t-62.5 15q-16 5 -30.5 10.5t-28.5 12.5l66 157q16 -12 39 -21q19 -8 44.5 -14t55.5 -6q63 0 115.5 54.5t99.5 183.5l31 84zM612 1397 q0 52 30.5 85.5t90.5 33.5q57 0 88 -33.5t31 -85.5q0 -54 -29.5 -85.5t-89.5 -31.5t-90.5 31.5t-30.5 85.5zM231 1397q0 52 32 85.5t89 33.5t88 -33.5t31 -85.5q0 -54 -29.5 -85.5t-89.5 -31.5t-90.5 31.5t-30.5 85.5z"/>
<glyph glyph-name="dotlessi" horiz-adv-x="537" unicode="ı" d="M356 1085v-725q0 -97 3 -187.5t8 -172.5h-193q1 19 2 57t1.5 84.5t1 98t1 98.5t0.5 85v58v101q0 46 -1.5 104.5t-4.5 122t-6.5 128.5t-7.5 124z"/>
<glyph glyph-name="Lslash" horiz-adv-x="1110" unicode="Ł" d="M358 166l691 22v-188h-895q1 24 2 63.5t2 86.5t2.5 97t1.5 95q2 46 2 82v18l-115 -82l-78 125l193 144v196q0 109 -1 200.5t-2.5 172t-3 152.5t-3.5 141h204v-716l281 210l98 -133l-379 -271v-415z"/>
<glyph glyph-name="lslash" horiz-adv-x="606" unicode="ł" d="M365 1499q-4 -89 -7.5 -186.5t-7.5 -197.5q-4 -99 -6 -199q-2 -60 -2 -119l145 110l93 -116l-242 -173q-1 -37 -1 -71q-1 -83 -1 -150q0 -84 7 -134.5t20 -78t32.5 -36.5t44.5 -9q22 0 44.5 7t39.5 16l41 -137q-32 -16 -75.5 -27.5t-94.5 -11.5q-128 0 -184.5 87.5 t-56.5 254.5q0 71 1 160l-130 -93l-72 109l205 155q2 93 4 193q4 153 8.5 315.5t9.5 317.5z"/>
<glyph glyph-name="OE" horiz-adv-x="1985" unicode="Œ" d="M780 147q84 0 141 9.5t105 31.5q1 44 2 88.5t1.5 84t0.5 71v49.5v344q0 61 -0.5 126.5t-1.5 127.5t-2 117t-2 94q-54 25 -118 40.5t-148 15.5q-111 0 -194.5 -48t-139.5 -130t-84.5 -192.5t-28.5 -234.5t28.5 -232.5t87 -188.5t146.5 -126.5t207 -46.5zM1221 842h544 v-168h-544v-516l641 20l-15 -178h-821q-54 -12 -116.5 -19.5t-131.5 -7.5q-165 0 -291.5 59t-212 162.5t-129 243.5t-43.5 303q0 107 19.5 205.5t58 184t95.5 156t132 120t166.5 77t200.5 27.5q28 0 61 -2.5t66 -7t64 -11.5t55 -15l842 32l-15 -180h-630q1 -33 2 -70 t1.5 -73t0.5 -69v-58v-215z"/>
<glyph glyph-name="oe" horiz-adv-x="1839" unicode="œ" d="M1358 942q-51 0 -100 -19.5t-88.5 -60.5t-66.5 -104t-34 -150l522 23q2 11 2 21.5v21.5q0 129 -60 198.5t-175 69.5zM588 936q-58 0 -111.5 -24t-95 -73t-66 -124t-24.5 -178q0 -106 22.5 -183.5t62 -127.5t92.5 -74.5t114 -24.5q60 0 115 24t97 74t67.5 127.5 t25.5 184.5q0 98 -24 172.5t-65.5 125t-95.5 76t-114 25.5zM1069 475q4 -77 26 -141t61 -110t94 -71.5t126 -25.5q42 0 78.5 5t72.5 17.5t73.5 33.5t82.5 53l62 -132q-91 -72 -184.5 -101.5t-200.5 -29.5q-137 0 -232 54t-155 150q-29 -46 -67 -83.5t-86 -64.5t-106 -41.5 t-126 -14.5q-120 0 -212.5 44.5t-155.5 120t-95.5 175.5t-32.5 211q0 116 33 219t96.5 180t155.5 122t211 45q134 0 232.5 -57t161.5 -157q66 103 165.5 158.5t220.5 55.5q73 0 131 -17.5t102.5 -48t76 -72t51.5 -89t29 -99t9 -102.5q0 -48 -5 -99t-13 -88h-680z"/>
<glyph glyph-name="Scaron" horiz-adv-x="1241" unicode="Š" d="M344 1116q0 -49 19 -86.5t57 -68.5t95 -58t134 -55q59 -22 117.5 -45.5t111 -51.5t97.5 -61.5t78.5 -77t52 -97.5t18.5 -122q0 -104 -37.5 -182.5t-104 -131t-157.5 -79.5t-198 -27q-157 0 -288 44.5t-237 138.5l121 157q51 -51 102 -83.5t103 -52t104.5 -27t106.5 -7.5 q67 0 119.5 17t89.5 48t56.5 74.5t19.5 96.5q0 52 -20.5 92.5t-65 75t-115.5 67t-172 68.5q-85 31 -159.5 65.5t-129.5 82t-87 113t-32 157.5q0 85 32 160t95.5 130.5t158.5 88t222 32.5q74 0 141 -13.5t126.5 -36.5t112 -55t97.5 -69l-118 -145q-82 72 -174 110.5 t-201 38.5q-73 0 -127.5 -17t-91 -47t-54.5 -71.5t-18 -89.5zM571 1602l-290 309l157 63l217 -241l217 241l158 -63l-295 -309h-164z"/>
<glyph glyph-name="scaron" horiz-adv-x="1001" unicode="š" d="M311 791q0 -36 19.5 -62t52 -45.5t75 -34.5t87.5 -28q39 -13 80.5 -27.5t80.5 -33.5t74 -43.5t61 -57t41 -74.5t15 -96q0 -78 -31 -137.5t-85.5 -99t-128 -59.5t-158.5 -20q-126 0 -226.5 38.5t-185.5 107.5l104 141q81 -78 158.5 -108.5t149.5 -30.5q51 0 92.5 11t71 31 t45.5 49.5t16 66.5q0 39 -19.5 66.5t-56.5 49.5t-91 41t-124 41q-64 21 -118 44t-93.5 57t-61.5 83t-22 121q0 64 25.5 120t74.5 98t121.5 66t167.5 24q58 0 109.5 -10t97 -27.5t84 -40.5t70.5 -49l-90 -140q-63 54 -131.5 86.5t-149.5 32.5q-97 0 -149 -39.5t-52 -111.5z M422 1212l-294 332l157 64l217 -265l217 265l158 -64l-291 -332h-164z"/>
<glyph glyph-name="Ydieresis" horiz-adv-x="1331" unicode="Ÿ" d="M1059 1518l201 -52l-498 -901v-565h-193v565l-497 901l200 52l394 -775zM748 1761q0 54 30.5 86.5t90.5 32.5q57 0 88 -32.5t31 -86.5q0 -52 -29.5 -84t-89.5 -32t-90.5 32t-30.5 84zM342 1761q0 54 32 86.5t89 32.5t88 -32.5t31 -86.5q0 -52 -29.5 -84t-89.5 -32 q-58 0 -89.5 32t-31.5 84z"/>
<glyph glyph-name="Zcaron" horiz-adv-x="1343" unicode="Ž" d="M256 1303v188h1067v-174l-861 -1157l846 24v-184h-1104v125l895 1208zM587 1602l-290 309l157 63l217 -241l217 241l158 -63l-295 -309h-164z"/>
<glyph glyph-name="zcaron" horiz-adv-x="1071" unicode="ž" d="M154 885v178h784v-156l-594 -760l580 25v-172h-801v137l612 785zM454 1212l-294 332l157 64l217 -265l217 265l158 -64l-291 -332h-164z"/>
<glyph glyph-name="florin" horiz-adv-x="1204" unicode="ƒ" d="M802 1051h259l-35 -166l-257 14l-204 -936q-26 -119 -64.5 -191t-87 -111t-104.5 -51.5t-116 -12.5q-63 0 -116.5 12t-96.5 29l51 155q82 -39 166 -39q42 0 72 13t52.5 43.5t39.5 81.5t34 128l192 883h-163v148h195l20 92q26 119 69 191t94 111t105.5 51.5t104.5 12.5 q63 0 115.5 -12t97.5 -29l-51 -149q-42 20 -83 29.5t-83 9.5t-72 -13t-51.5 -42.5t-38 -77t-31.5 -117.5z"/>
<glyph glyph-name="circumflex" horiz-adv-x="1051" unicode="ˆ" d="M604 1597l295 -331l-158 -64l-217 264l-217 -264l-157 64l290 331h164z"/>
<glyph glyph-name="caron" horiz-adv-x="1051" unicode="ˇ" d="M444 1212l-294 332l157 64l217 -265l217 265l158 -64l-291 -332h-164z"/>
<glyph glyph-name="uni02C9" horiz-adv-x="1073" unicode="ˉ" d="M156 1430h643l-19 -150h-624v150z"/>
<glyph glyph-name="breve" horiz-adv-x="1073" unicode="˘" d="M500 1239q-75 0 -129.5 20.5t-93 56.5t-63 85t-38.5 106l131 25q23 -75 68.5 -112.5t124.5 -37.5q78 0 123.5 37.5t68.5 112.5l131 -25q-14 -57 -38.5 -106t-63 -85t-93 -56.5t-128.5 -20.5z"/>
<glyph glyph-name="dotaccent" horiz-adv-x="520" unicode="˙" d="M117 1421q0 57 32 93t95 36t96 -36t33 -93q0 -55 -33 -91t-96 -36t-95 36t-32 91z"/>
<glyph glyph-name="ring" horiz-adv-x="563" unicode="˚" d="M195 1430q0 -42 22.5 -68.5t67.5 -26.5t67.5 26.5t22.5 68.5t-22.5 69t-67.5 27t-67.5 -27t-22.5 -69zM66 1430q0 43 13.5 80t41 64t68.5 42.5t96 15.5q54 0 95.5 -15.5t69.5 -42.5t42 -64t14 -80q0 -44 -14.5 -80.5t-42.5 -63.5t-69 -42t-95 -15t-95 15t-68.5 42 t-41.5 63.5t-14 80.5z"/>
<glyph glyph-name="ogonek" horiz-adv-x="1073" unicode="˛" d="M651 6q-47 -23 -81 -54q-31 -26 -56 -64.5t-25 -86.5q0 -46 23.5 -66t65.5 -20q23 0 46 8t40 18q20 11 38 26l58 -84q-57 -51 -110.5 -73t-102.5 -22q-51 0 -89 14t-63.5 39t-38 59.5t-12.5 76.5q0 36 10 67.5t26.5 58t37.5 48.5t43 40q26 20 55 38t62 32z"/>
<glyph glyph-name="tilde" horiz-adv-x="1022" unicode="˜" d="M631 1407q42 0 65.5 27.5t40.5 70.5l148 -57q-14 -33 -34 -66.5t-49.5 -60.5t-69.5 -44t-93 -17q-46 0 -85 15.5t-73 33.5t-64.5 33.5t-60.5 15.5q-42 0 -65.5 -27.5t-40.5 -70.5l-148 57q14 33 34 66.5t49.5 60.5t69.5 44t93 17q46 0 84.5 -15.5t72.5 -33.5t64.5 -33.5 t61.5 -15.5z"/>
<glyph glyph-name="hungarumlaut" horiz-adv-x="1049" unicode="˝" d="M518 1257l172 381l195 -26l-250 -387zM195 1257l172 381l194 -26l-250 -387z"/>
<glyph glyph-name="pi" horiz-adv-x="1407" unicode="π" d="M1055 911q-5 -68 -8.5 -141t-6 -142t-3.5 -129t-1 -102q0 -84 8.5 -134.5t23.5 -78t36 -36.5t47 -9q22 0 44.5 7t39.5 16l41 -137q-32 -16 -76.5 -27.5t-93.5 -11.5q-128 0 -185 87.5t-57 254.5q0 94 4.5 241.5t14.5 341.5h-292q-4 -71 -9 -152.5t-11 -167t-13 -171.5 t-14 -166.5t-14 -152.5t-14 -128l-215 23q15 40 28 103t24.5 140.5t20.5 165t16.5 175.5t12.5 172t8 155q-45 -6 -83 -19.5t-70 -31t-57.5 -36t-44.5 -34.5l-95 146q36 27 78.5 51t98.5 41.5t130.5 28t174.5 10.5h499q9 0 39 0.5t70.5 1.5t86.5 3t87 5l-31 -162h-239z"/>
<glyph glyph-name="CommaArabic" horiz-adv-x="616" unicode="،" d="M321 239q35 0 58.5 -12t37.5 -30t19.5 -40t5.5 -41q0 -25 -8 -48t-24.5 -40.5t-42 -28t-60.5 -10.5q-72 0 -105.5 39t-33.5 105q0 54 13 111.5t37 112t58 103.5t76 86l94 -67q-31 -27 -54.5 -58t-39 -62.5t-23.5 -62.5t-8 -57z"/>
<glyph glyph-name="SemicolonArabic" horiz-adv-x="616" unicode="؛" d="M442 115q0 -59 -30 -94t-101 -35q-75 0 -106 34.5t-31 94.5q0 55 31 90t106 35q71 0 101 -35t30 -90zM320 842q35 0 58.5 -12t37.5 -30t19.5 -40t5.5 -41q0 -25 -8 -48t-24.5 -40.5t-42 -28t-60.5 -10.5q-72 0 -105.5 39t-33.5 105q0 54 13 111.5t37 112t58 103.5t76 86 l94 -67q-31 -27 -54.5 -58t-39 -62.5t-23.5 -62.5t-8 -57z"/>
<glyph glyph-name="QuestionArabic" horiz-adv-x="976" unicode="؟" d="M690 115q0 -59 -30 -94t-101 -35q-76 0 -107 34.5t-31 94.5q0 54 31.5 89.5t106.5 35.5q70 0 100.5 -35t30.5 -90zM840 1189q-39 36 -77 62.5t-77.5 43t-83 24.5t-93.5 8q-39 0 -81.5 -12.5t-77.5 -38t-58 -65t-23 -93.5q0 -51 16.5 -89t43.5 -69t61.5 -57t71 -53 t71 -56.5t61.5 -67t43.5 -86t16.5 -112.5q0 -34 -1 -63.5t-2 -51.5l-3 -48h-168l4 58q2 24 3 50t1 44q0 63 -30 107.5t-75 82t-98 73.5t-98 82t-75 107.5t-30 150.5q0 80 33 148t90.5 117.5t135 77.5t166.5 28q79 0 145 -12.5t120 -35t98.5 -54.5t80.5 -70z"/>
<glyph glyph-name="Hamza" horiz-adv-x="843" unicode="ء" d="M108 421q0 80 28.5 145t78 111t117 71t144.5 25q22 0 49.5 -2.5t56 -7.5t56.5 -12.5t52 -16.5l-21 -127q-44 11 -88.5 17.5t-86.5 6.5q-51 0 -93 -14t-71.5 -41t-46 -66t-16.5 -89q0 -44 14.5 -83.5t42 -70t66.5 -50t88 -23.5q80 5 143.5 16t126.5 24l15 -139l-143 -24 q-131 -23 -267 -38t-287 -17l-16 135q53 2 100 5t99 9q-38 20 -64.5 49t-43.5 63t-25 71t-8 73z"/>
<glyph glyph-name="AlefMadda" horiz-adv-x="526" unicode="آ" d="M330 1351q2 -59 4.5 -129t4 -141.5t3 -140t2 -126t1 -99.5t0.5 -59q0 -161 -1.5 -321.5t-11.5 -321.5q-44 -3 -81 -6.5t-81 -6.5q1 29 2 64.5t2 72t1 72v65.5v88v106t-1 147t-2.5 173.5t-4 186.5t-6.5 185t-9 170zM-74 1442q18 45 38 74t43.5 46t51 23.5t59.5 6.5 q30 0 61 -5t63.5 -10.5t65.5 -10.5t66 -5q40 0 69 12.5t60 39.5l54 -87q-39 -34 -84 -52.5t-87 -18.5q-36 0 -71.5 5t-69 11.5t-64.5 11.5t-58 5q-20 0 -35.5 -2t-29 -10.5t-26 -25t-25.5 -44.5z"/>
<glyph glyph-name="AlefHamzaAbove" horiz-adv-x="526" unicode="أ" d="M330 1351q2 -59 4.5 -129t4 -141.5t3 -140t2 -126t1 -99.5t0.5 -59q0 -161 -1.5 -321.5t-11.5 -321.5q-44 -3 -81 -6.5t-81 -6.5q1 29 2 64.5t2 72t1 72v65.5v88v106t-1 147t-2.5 173.5t-4 186.5t-6.5 185t-9 170zM47 1522q15 1 32 1.5t34 2.5q-21 21 -30 46.5t-9 48.5 q0 39 14 70.5t38 54t56 34.5t68 12q23 0 55.5 -4.5t59.5 -15.5l-16 -83q-28 5 -50.5 8t-40.5 3t-31.5 -3.5t-25.5 -12.5t-19 -24.5t-7 -38.5q0 -29 14.5 -50.5t41.5 -28.5q16 1 36.5 2.5t41.5 4t40.5 6t34.5 8.5l10 -94l-78 -13q-54 -9 -118.5 -17t-139.5 -8z"/>
<glyph glyph-name="WawHamzaAbove" horiz-adv-x="974" unicode="ؤ" d="M712 269q0 67 -14 134.5t-46 121.5q-53 91 -169 91q-42 0 -82 -23t-70.5 -59.5t-49.5 -83t-19 -94.5q0 -55 20.5 -91t56 -57t82 -29.5t98.5 -8.5q45 0 93 3.5t93 14.5q3 22 5 42t2 39zM474 0q-47 0 -92 6.5t-86 21.5t-76.5 39.5t-63.5 60.5q-16 20 -28 41.5t-20 46.5 t-12 54.5t-4 66.5q0 49 13 100.5t38 100t61 92t81.5 75.5t99.5 51t116 19q66 0 120.5 -20.5t97 -56t73.5 -82t49 -98.5q23 -66 33 -125.5t10 -125.5q0 -69 -12.5 -137t-32.5 -124q-22 -63 -64 -128t-110.5 -125t-166.5 -111.5t-232 -87.5l-84 151q28 8 58.5 18t60 21 t56.5 22.5t50 21.5q62 28 106.5 56t76 58.5t52.5 64.5t37 73q-48 -18 -102.5 -29t-102.5 -11zM274 1043q15 1 32 1.5t34 2.5q-21 21 -30 46.5t-9 48.5q0 39 14 70.5t38 54t56 34.5t68 12q23 0 55.5 -4.5t59.5 -15.5l-16 -83q-28 5 -50.5 8t-40.5 3t-31.5 -3.5t-25.5 -12.5 t-19 -24.5t-7 -38.5q0 -29 14.5 -50.5t41.5 -28.5q16 1 36.5 2.5t41.5 4t40.5 6t34.5 8.5l10 -94l-78 -13q-54 -9 -118.5 -17t-139.5 -8z"/>
<glyph glyph-name="YehHamzaAbove" horiz-adv-x="1560" unicode="ئ" d="M1144 417q89 -44 149.5 -84t89.5 -92q17 -30 22 -61t5 -52q0 -98 -52 -179.5t-143.5 -141t-216.5 -92.5t-272 -33q-127 0 -240.5 29t-199 90.5t-136 157.5t-50.5 230q0 81 15 157.5t47 157.5l161 -33q-23 -71 -34.5 -130t-11.5 -119q0 -83 28.5 -149.5t85 -113t140.5 -72 t195 -25.5q53 0 112 8t117 23t111 37t93.5 50t64.5 61.5t24 72.5v7q-15 28 -54 55.5t-90 54t-107.5 52t-107.5 49.5q-52 25 -88 55.5t-57 72.5q-2 15 -3.5 38.5t-1.5 37.5q0 46 6.5 83t18 68.5t27.5 59.5t36 57q51 74 113 117t123 65t115.5 28t90.5 6q34 0 70.5 -6.5 t62.5 -16.5l-37 -161q-30 2 -59.5 4.5t-63.5 2.5q-62 0 -122 -20t-108 -57t-79.5 -90.5t-35.5 -120.5q4 -14 16.5 -25.5t29 -20.5t33.5 -16.5t30 -13.5zM97 759q15 1 32 1.5t34 2.5q-21 21 -30 46.5t-9 48.5q0 39 14 70.5t38 54t56 34.5t68 12q23 0 55.5 -4.5t59.5 -15.5 l-16 -83q-28 5 -50.5 8t-40.5 3t-31.5 -3.5t-25.5 -12.5t-19 -24.5t-7 -38.5q0 -29 14.5 -50.5t41.5 -28.5q16 1 36.5 2.5t41.5 4t40.5 6t34.5 8.5l10 -94l-78 -13q-54 -9 -118.5 -17t-139.5 -8z"/>
<glyph glyph-name="Alef" horiz-adv-x="562" unicode="ا" d="M349 13q-44 -3 -81 -6.5t-81 -6.5q1 29 2 64.5t2 72t1 72v65.5v88v130t-1.5 183.5t-3.5 214t-6.5 221t-10.5 205t-15 165.5l183 18q3 -29 5.5 -77t5 -107.5t4 -127l3 -135t3 -132t2 -118t1 -92t0.5 -54.5q0 -161 -1.5 -321.5t-11.5 -321.5z"/>
<glyph glyph-name="Beh" horiz-adv-x="1963" unicode="ب" d="M1750 167q-37 -53 -109 -91t-178 -62t-245 -35t-309 -11q-88 0 -181.5 6.5t-182 25.5t-168 54.5t-139 94t-94 143t-34.5 201.5q0 39 2.5 73.5t7.5 69t12.5 71t17.5 79.5l173 -19q-15 -72 -24.5 -129.5t-9.5 -90.5q0 -116 41.5 -192.5t120.5 -122.5t194.5 -65t263.5 -19 q137 0 253.5 6t206.5 17.5t150.5 29t86.5 40.5q3 9 6 24.5t6 32.5t4.5 33.5t1.5 29.5q0 60 -4 106.5t-13.5 92.5t-24 97t-35.5 120l190 45q16 -65 27 -116t17.5 -99t9.5 -98.5t3 -113.5q0 -51 -11.5 -111t-32.5 -117zM1105 -327q0 -19 -10 -40t-26.5 -39t-38 -29.5 t-43.5 -11.5q-21 0 -43.5 12t-40.5 30t-29.5 39t-11.5 39q0 19 11.5 39.5t29.5 38t39 28.5t40 11q20 0 42 -11t40 -28.5t29.5 -38t11.5 -39.5z"/>
<glyph glyph-name="TehMarbuta" horiz-adv-x="1027" unicode="ة" d="M502 192q138 0 205 50.5t67 168.5q-2 59 -20.5 114t-51.5 97t-78.5 67.5t-101.5 25.5q-59 0 -108 -25t-84 -66.5t-54 -96t-19 -114.5q0 -57 18 -98.5t50.5 -68.5t77.5 -40.5t99 -13.5zM496 17q-74 0 -146.5 18t-130.5 62.5t-93.5 120t-35.5 190.5q0 94 34.5 180t93 151.5 t137 104t167.5 38.5q94 0 171 -39t131 -103.5t83.5 -149.5t29.5 -176q0 -111 -32.5 -187t-91 -122.5t-139.5 -67t-178 -20.5zM758 1231q0 -18 -9.5 -38t-25 -37t-35.5 -28t-41 -11q-20 0 -41 11t-38 28t-28 37t-11 38t11 37.5t27.5 36t36.5 27t38 10.5q19 0 39.5 -10.5 t37.5 -27t28 -36t11 -37.5zM489 1221q0 -18 -9.5 -38t-25 -37t-35.5 -28t-41 -11q-20 0 -41 11t-38 28t-28 37t-11 38t11 37.5t27.5 36t36.5 27t38 10.5q19 0 39.5 -10.5t37.5 -27t28 -36t11 -37.5z"/>
<glyph glyph-name="Teh" horiz-adv-x="1963" unicode="ت" d="M1750 167q-37 -53 -109 -91t-178 -62t-245 -35t-309 -11q-88 0 -181.5 6.5t-182 25.5t-168 54.5t-139 94t-94 143t-34.5 201.5q0 39 2.5 73.5t7.5 69t12.5 71t17.5 79.5l173 -19q-15 -72 -24.5 -129.5t-9.5 -90.5q0 -116 41.5 -192.5t120.5 -122.5t194.5 -65t263.5 -19 q137 0 253.5 6t206.5 17.5t150.5 29t86.5 40.5q3 9 6 24.5t6 32.5t4.5 33.5t1.5 29.5q0 60 -4 106.5t-13.5 92.5t-24 97t-35.5 120l190 45q16 -65 27 -116t17.5 -99t9.5 -98.5t3 -113.5q0 -51 -11.5 -111t-32.5 -117zM1213 1051q0 -18 -9.5 -38t-25 -37t-35.5 -28t-41 -11 q-20 0 -41 11t-38 28t-28 37t-11 38t11 37.5t27.5 36t36.5 27t38 10.5q19 0 39.5 -10.5t37.5 -27t28 -36t11 -37.5zM944 1041q0 -18 -9.5 -38t-25 -37t-35.5 -28t-41 -11q-20 0 -41 11t-38 28t-28 37t-11 38t11 37.5t27.5 36t36.5 27t38 10.5q19 0 39.5 -10.5t37.5 -27 t28 -36t11 -37.5z"/>
<glyph glyph-name="Theh" horiz-adv-x="1963" unicode="ث" d="M1750 167q-37 -53 -109 -91t-178 -62t-245 -35t-309 -11q-88 0 -181.5 6.5t-182 25.5t-168 54.5t-139 94t-94 143t-34.5 201.5q0 39 2.5 73.5t7.5 69t12.5 71t17.5 79.5l173 -19q-15 -72 -24.5 -129.5t-9.5 -90.5q0 -116 41.5 -192.5t120.5 -122.5t194.5 -65t263.5 -19 q137 0 253.5 6t206.5 17.5t150.5 29t86.5 40.5q3 9 6 24.5t6 32.5t4.5 33.5t1.5 29.5q0 60 -4 106.5t-13.5 92.5t-24 97t-35.5 120l190 45q16 -65 27 -116t17.5 -99t9.5 -98.5t3 -113.5q0 -51 -11.5 -111t-32.5 -117zM1056 1269q0 -17 -9 -35t-23.5 -33.5t-32.5 -25.5 t-36 -10q-19 0 -38 10.5t-34.5 26t-25.5 34t-10 33.5q0 16 10 34t25.5 33t33.5 24.5t34 9.5q17 0 36 -9.5t34.5 -24.5t25.5 -33t10 -34zM1212 1051q0 -18 -9.5 -38t-25 -37t-35.5 -28t-41 -11q-20 0 -41 11t-38 28t-28 37t-11 38t11 37.5t27.5 36t36.5 27t38 10.5 q19 0 39.5 -10.5t37.5 -27t28 -36t11 -37.5zM943 1041q0 -18 -9.5 -38t-25 -37t-35.5 -28t-41 -11q-20 0 -41 11t-38 28t-28 37t-11 38t11 37.5t27.5 36t36.5 27t38 10.5q19 0 39.5 -10.5t37.5 -27t28 -36t11 -37.5z"/>
</font>
</defs>
</svg>
